<svg width="295" height="264" viewBox="0 0 295 264" fill="none" xmlns="http://www.w3.org/2000/svg">
<path fill-rule="evenodd" clip-rule="evenodd" d="M209.729 182.945C209.729 142.009 178.902 116.741 129.88 105.623L96.5259 99.5582C81.8702 96.526 70.752 90.4615 70.752 76.8165C70.752 62.6661 84.397 54.5801 101.58 54.5801C121.795 54.5801 134.934 66.7091 137.461 86.9239L202.654 75.8058C195.073 28.3008 158.181 0 105.117 0C51.5479 0 4.04297 28.3008 4.04297 78.3326C4.04297 119.773 34.3653 145.547 80.8594 156.665L111.182 162.73C125.332 165.762 138.977 172.332 138.977 186.482C138.977 199.622 126.343 209.224 105.117 209.224C84.9024 209.224 68.2252 198.106 65.1929 176.375L0 187.998C8.59132 234.998 51.5479 262.793 105.117 262.793C163.235 262.793 209.729 233.987 209.729 182.945ZM210.571 263.214C210.571 239.955 229.426 221.1 252.686 221.1C275.945 221.1 294.8 239.955 294.8 263.214H210.571Z" fill="white"/>
<path fill-rule="evenodd" clip-rule="evenodd" d="M209.729 182.945C209.729 142.009 178.902 116.741 129.88 105.623L96.5259 99.5582C81.8702 96.526 70.752 90.4615 70.752 76.8165C70.752 62.6661 84.397 54.5801 101.58 54.5801C121.795 54.5801 134.934 66.7091 137.461 86.9239L202.654 75.8058C195.073 28.3008 158.181 0 105.117 0C51.5479 0 4.04297 28.3008 4.04297 78.3326C4.04297 119.773 34.3653 145.547 80.8594 156.665L111.182 162.73C125.332 165.762 138.977 172.332 138.977 186.482C138.977 199.622 126.343 209.224 105.117 209.224C84.9024 209.224 68.2252 198.106 65.1929 176.375L0 187.998C8.59132 234.998 51.5479 262.793 105.117 262.793C163.235 262.793 209.729 233.987 209.729 182.945ZM210.571 263.214C210.571 239.955 229.426 221.1 252.686 221.1C275.945 221.1 294.8 239.955 294.8 263.214H210.571Z" fill="url(#paint0_linear_1_134)"/>
<path fill-rule="evenodd" clip-rule="evenodd" d="M209.729 182.945C209.729 142.009 178.902 116.741 129.88 105.623L96.5259 99.5582C81.8702 96.526 70.752 90.4615 70.752 76.8165C70.752 62.6661 84.397 54.5801 101.58 54.5801C121.795 54.5801 134.934 66.7091 137.461 86.9239L202.654 75.8058C195.073 28.3008 158.181 0 105.117 0C51.5479 0 4.04297 28.3008 4.04297 78.3326C4.04297 119.773 34.3653 145.547 80.8594 156.665L111.182 162.73C125.332 165.762 138.977 172.332 138.977 186.482C138.977 199.622 126.343 209.224 105.117 209.224C84.9024 209.224 68.2252 198.106 65.1929 176.375L0 187.998C8.59132 234.998 51.5479 262.793 105.117 262.793C163.235 262.793 209.729 233.987 209.729 182.945ZM210.571 263.214C210.571 239.955 229.426 221.1 252.686 221.1C275.945 221.1 294.8 239.955 294.8 263.214H210.571Z" fill="url(#paint1_linear_1_134)"/>
<defs>
<linearGradient id="paint0_linear_1_134" x1="294.805" y1="234.539" x2="4.02926" y2="233.818" gradientUnits="userSpaceOnUse">
<stop stop-color="#007DA3"/>
<stop offset="0.578125" stop-color="#E7A77F"/>
<stop offset="1" stop-color="#E97047"/>
</linearGradient>
<linearGradient id="paint1_linear_1_134" x1="0" y1="0" x2="334.306" y2="195.743" gradientUnits="userSpaceOnUse">
<stop stop-color="#0689AD"/>
<stop offset="0.557292" stop-color="#E7A77F"/>
<stop offset="1" stop-color="#E97047"/>
</linearGradient>
</defs>
</svg>
