<svg width="295" height="264" viewBox="0 0 295 264" fill="none" xmlns="http://www.w3.org/2000/svg">
<path d="M129.88 105.623C178.902 116.741 209.729 142.009 209.729 182.945C209.729 233.987 163.235 262.793 105.117 262.793C51.5479 262.793 8.59132 234.998 0 187.998L65.1929 176.375C68.2252 198.106 84.9024 209.224 105.117 209.224C126.343 209.224 138.977 199.622 138.977 186.482C138.977 172.332 125.332 165.762 111.182 162.73L80.8594 156.665C34.3653 145.547 4.04297 119.773 4.04297 78.3326C4.04297 28.3008 51.5479 0 105.117 0C158.181 0 195.073 28.3008 202.654 75.8058L137.461 86.9239C134.934 66.7091 121.795 54.5801 101.58 54.5801C84.397 54.5801 70.752 62.6661 70.752 76.8165C70.752 90.4615 81.8702 96.526 96.526 99.5582L129.88 105.623Z" fill="white"/>
<path d="M252.686 221.1C229.427 221.1 210.571 239.955 210.571 263.214H294.8C294.8 239.955 275.945 221.1 252.686 221.1Z" fill="white"/>
</svg>
