<svg width="240" height="41" viewBox="0 0 240 41" fill="none" xmlns="http://www.w3.org/2000/svg">
<path fill-rule="evenodd" clip-rule="evenodd" d="M208.594 11.7912V17.8824H212.841V39.5834H220.497V17.8824H232.344V39.5834H240V11.7353H220.497V10.0588C220.497 7.15296 222.062 6.14707 224.297 6.14707C224.912 6.14707 225.415 6.20296 225.918 6.31472V0.726471C224.8 0.335297 223.292 0 221.615 0C216.139 0 212.841 3.35295 212.841 9.05296V11.7912H208.594ZM184.375 11.7353V39.5834H192.031V25.0912C192.031 19.3353 196.39 17.6589 201.42 18.7206V11.7353C196.39 10.5059 193.484 12.9647 192.031 16.5412V11.7353H184.375ZM23.1912 31.4061C23.1912 26.8796 19.7824 24.0855 14.3618 22.8561L10.6736 22.1855C9.05296 21.8502 7.82355 21.1796 7.82355 19.6708C7.82355 18.1061 9.33237 17.2119 11.2324 17.2119C13.4677 17.2119 14.9206 18.5531 15.2 20.7884L22.4089 19.559C21.5706 14.3061 17.4912 11.1766 11.6236 11.1766C5.70001 11.1766 0.44706 14.3061 0.44706 19.8384C0.44706 24.4208 3.80001 27.2708 8.9412 28.5002L12.2941 29.1708C13.8589 29.5061 15.3677 30.2326 15.3677 31.7973C15.3677 33.2502 13.9706 34.312 11.6236 34.312C9.38826 34.312 7.54414 33.0826 7.20884 30.6796L0 31.9649C0.950005 37.162 5.70001 40.2355 11.6236 40.2355C18.05 40.2355 23.1912 37.0502 23.1912 31.4061ZM235.172 1.7463C232.6 1.7463 230.515 3.83125 230.515 6.40318H239.829C239.829 3.83125 237.744 1.7463 235.172 1.7463ZM167.147 11.2323C158.384 11.2323 153.245 17.8106 153.232 25.7332C153.245 33.6563 158.887 40.2353 167.594 40.2353C174.244 40.2353 178.324 36.4912 180 32.2441L173.574 30.3441C172.735 32.2441 170.78 33.8647 167.594 33.8647C163.962 33.8647 161.391 31.4059 161.112 27.7735H180.838C182.012 18.9441 176.256 11.2323 167.147 11.2323ZM173.182 22.8559H161.056C161.335 20.0058 163.515 17.4353 167.147 17.4353C170.724 17.4353 172.903 20.0058 173.182 22.8559ZM77.2673 39.5834H84.8347V36.231L84.8347 23.9597C84.8348 21.0662 87.1804 18.7207 90.0738 18.7207C92.9672 18.7207 95.3128 21.0662 95.3128 23.9596L95.3127 23.9869V38.5124H95.3125V39.5834H102.88V24.611L102.88 24.5418L102.88 24.4725V24.4486H102.88C102.83 17.4187 97.1154 11.7354 90.0737 11.7354C86.5539 11.7354 83.3658 13.1553 81.0509 15.4537C78.736 13.1553 75.5479 11.7354 72.0281 11.7354C64.9864 11.7354 59.2721 17.4186 59.222 24.4485H59.2218V24.4813L59.2217 24.5418L59.2218 24.6022V39.5834H66.7892V38.5124H66.7891V23.9983L66.7889 23.9596C66.7889 21.0662 69.1345 18.7207 72.0279 18.7207C74.9213 18.7207 77.2669 21.0662 77.2669 23.9597H77.267V36.231L77.2673 36.2309V39.5834ZM131.986 39.5834H124.418L124.418 36.2309V24.0069L124.418 23.9596C124.418 21.0662 122.073 18.7207 119.179 18.7207C116.286 18.7207 113.94 21.0662 113.94 23.9597H113.94L113.94 38.5124V39.5834H106.373V24.6157L106.373 24.5418L106.373 24.4678V24.4485H106.373C106.423 17.4186 112.137 11.7354 119.179 11.7354C122.699 11.7354 125.887 13.1553 128.202 15.4537C130.517 13.1553 133.705 11.7354 137.225 11.7354C144.266 11.7354 149.981 17.4187 150.031 24.4486H150.031V24.4725L150.031 24.5418L150.031 24.611V39.5834H142.463V38.5124H142.464V23.9597C142.464 21.0662 140.118 18.7207 137.225 18.7207C134.331 18.7207 131.986 21.0662 131.986 23.9597L131.986 24.4486V39.5834ZM26.6235 13.3884H34.191V25.6127V25.9038C34.191 29.9224 37.3184 33.1801 41.1763 33.1801C45.0341 33.1801 48.1616 29.9224 48.1616 25.9038V25.6127V13.3884H55.729V25.6127C55.729 33.65 49.2135 40.1655 41.1763 40.1655C33.139 40.1655 26.6235 33.65 26.6235 25.6127V13.3884ZM197.917 39.5835C197.917 37.0116 200.002 34.9266 202.574 34.9266C205.146 34.9266 207.231 37.0116 207.231 39.5835H197.917Z" fill="#17344F"/>
</svg>
