<svg width="83" height="30" viewBox="0 0 83 30" fill="none" xmlns="http://www.w3.org/2000/svg">
    <rect width="82.7784" height="30" rx="15" fill="url(#paint0_linear_2189_85698)"/>
    <path fill-rule="evenodd" clip-rule="evenodd" d="M21.899 8C25.0859 8 28.2054 9.51522 31.2412 12.4041L31.2525 12.4151C31.5575 12.7201 31.7576 13.1667 31.7576 13.6301C31.7576 13.7161 31.7406 13.7982 31.7097 13.873C31.6639 14.221 31.5144 14.5876 31.1992 14.8649C31.0153 15.0405 30.831 15.2109 30.6465 15.3763C30.6355 15.3912 30.6239 15.4056 30.6115 15.4197C30.5625 15.4755 30.5059 15.5207 30.4446 15.5551C27.767 17.8978 25.0303 19.1657 22.2355 19.2632C19.3174 19.3649 16.4489 18.1868 13.6382 15.8423C13.5628 15.9113 13.4885 15.9817 13.4145 16.0558C13.4084 16.0618 13.4023 16.0676 13.3961 16.0734C13.2493 16.2089 13.2174 16.4726 13.3982 16.6681L13.4031 16.6727C16.2921 19.4219 19.1132 20.7257 21.867 20.7257C24.6208 20.7257 27.4419 19.4219 30.3309 16.6727C30.5858 16.4302 30.989 16.4402 31.2316 16.6951C31.4741 16.9499 31.4641 17.3532 31.2092 17.5957C28.1734 20.4846 25.0539 21.9999 21.867 21.9999C18.7028 21.9999 15.6051 20.5062 12.5897 17.6573C12.5278 17.6158 12.4621 17.5567 12.407 17.4742C12.4029 17.468 12.3989 17.4618 12.3951 17.4556C11.8251 16.7629 11.8758 15.7528 12.5217 15.1467C12.7532 14.9158 12.983 14.7181 13.195 14.5364C13.2041 14.5277 13.2135 14.5193 13.223 14.5113C16.0515 12.0292 18.9387 10.7309 21.8829 10.7309C24.6769 10.7309 27.4197 11.9003 30.1097 14.141C30.1831 14.0727 30.2565 14.0035 30.3299 13.9333C30.3382 13.9254 30.3467 13.9177 30.3554 13.9103C30.3999 13.8721 30.4514 13.7855 30.4514 13.6295C30.4514 13.5874 30.4555 13.5463 30.4633 13.5065C30.4413 13.4364 30.4029 13.3692 30.3557 13.3203C27.4693 10.5758 24.6505 9.27414 21.899 9.27414C19.1452 9.27414 16.3241 10.5779 13.4351 13.3271C13.1802 13.5697 12.777 13.5597 12.5344 13.3048C12.2919 13.0499 12.3019 12.6467 12.5568 12.4041C15.5926 9.51522 18.7121 8 21.899 8ZM29.1393 14.9922C26.6618 12.97 24.2478 12.005 21.8829 12.005C19.5153 12.005 17.0985 12.9722 14.6181 14.999C17.2063 17.1122 19.726 18.0758 22.1911 17.9898C24.4599 17.9107 26.774 16.9395 29.1393 14.9922ZM20.6084 14.9995C20.6084 14.2958 21.1788 13.7254 21.8825 13.7254C22.5862 13.7254 23.1566 14.2958 23.1566 14.9995C23.1566 15.7032 22.5862 16.2737 21.8825 16.2737C21.1788 16.2737 20.6084 15.7032 20.6084 14.9995ZM21.8825 12.4512C20.4751 12.4512 19.3342 13.5921 19.3342 14.9995C19.3342 16.4069 20.4751 17.5478 21.8825 17.5478C23.2899 17.5478 24.4308 16.4069 24.4308 14.9995C24.4308 13.5921 23.2899 12.4512 21.8825 12.4512Z" fill="white"/>
    <path fill-rule="evenodd" clip-rule="evenodd" d="M63.3885 13.7583C63.3885 11.7258 65.051 10.0633 67.0835 10.0633C69.116 10.0633 70.7785 11.7258 70.7785 13.7583V15.1912V19.1415C70.7785 19.5813 70.422 19.9378 69.9822 19.9378C69.5424 19.9378 69.1858 19.5813 69.1858 19.1415V15.9876H64.9812V19.1415C64.9812 19.5813 64.6246 19.9378 64.1848 19.9378C63.745 19.9378 63.3885 19.5813 63.3885 19.1415V15.1912V13.7583ZM64.9812 14.3949H69.1858V13.7583C69.1858 12.6054 68.2364 11.6559 67.0835 11.6559C65.9306 11.6559 64.9812 12.6054 64.9812 13.7583V14.3949ZM39.753 10.0635C37.7205 10.0635 36.058 11.726 36.058 13.7585V15.2094L36.0579 15.2231L36.058 15.2368V19.1417C36.058 19.5815 36.4145 19.938 36.8543 19.938C37.2941 19.938 37.6507 19.5815 37.6507 19.1417V16.0195H41.8553V19.1417C41.8553 19.5815 42.2118 19.938 42.6516 19.938C43.0915 19.938 43.448 19.5815 43.448 19.1417V13.7585C43.448 11.726 41.7855 10.0635 39.753 10.0635ZM41.8553 14.4268V13.7585C41.8553 12.6056 40.9059 11.6561 39.753 11.6561C38.6001 11.6561 37.6507 12.6056 37.6507 13.7585V14.4268H41.8553ZM54.2781 13.7583C54.2781 11.7258 55.9406 10.0633 57.9731 10.0633C60.0056 10.0633 61.6681 11.7258 61.6681 13.7583V19.1415C61.6681 19.5813 61.3116 19.9378 60.8718 19.9378C60.4319 19.9378 60.0754 19.5813 60.0754 19.1415V13.7583C60.0754 12.6054 59.126 11.6559 57.9731 11.6559C56.8202 11.6559 55.8708 12.6054 55.8708 13.7583V19.1415C55.8708 19.5813 55.5142 19.9378 55.0744 19.9378C54.6346 19.9378 54.2781 19.5813 54.2781 19.1415V13.7583ZM52.5583 10.8596C52.5583 10.4198 52.2017 10.0633 51.7619 10.0633C51.3221 10.0633 50.9656 10.4198 50.9656 10.8596V16.2428C50.9656 17.3957 50.0161 18.3452 48.8633 18.3452C47.7104 18.3452 46.7609 17.3957 46.7609 16.2428V15.0643C46.7609 14.6245 46.4044 14.2679 45.9646 14.2679C45.5248 14.2679 45.1683 14.6245 45.1683 15.0643V16.2428C45.1683 18.2753 46.8308 19.9378 48.8633 19.9378C50.8957 19.9378 52.5583 18.2753 52.5583 16.2428V10.8596Z" fill="white"/>
  <defs>
    <linearGradient id="paint0_linear_2189_85698" x1="0" y1="15" x2="82.7784" y2="15" gradientUnits="userSpaceOnUse">
      <stop stop-color="#F154DB"/>
      <stop offset="1" stop-color="#974EEA"/>
    </linearGradient>
  </defs>
</svg>
