<svg width="280" height="180" viewBox="0 0 280 180" fill="none" xmlns="http://www.w3.org/2000/svg">
  <rect width="280" height="180" fill="white"/>
  <path opacity="0.1" d="M140 174C186.392 174 224 136.392 224 90C224 43.6081 186.392 6 140 6C93.6081 6 56 43.6081 56 90C56 136.392 93.6081 174 140 174Z" fill="url(#paint0_linear_2071_89072)"/>
  <path opacity="0.1" d="M140 159C178.108 159 209 128.108 209 90C209 51.8924 178.108 21 140 21C101.892 21 71 51.8924 71 90C71 128.108 101.892 159 140 159Z" fill="url(#paint1_linear_2071_89072)"/>
  <path d="M140 145C170.376 145 195 120.376 195 90C195 59.6243 170.376 35 140 35C109.624 35 84.9999 59.6243 84.9999 90C84.9999 120.376 109.624 145 140 145Z" fill="url(#paint2_linear_2071_89072)"/>
  <path fill-rule="evenodd" clip-rule="evenodd" d="M140.811 65.9307C151.404 65.9307 161.773 70.9671 171.864 80.5696C171.876 80.5816 171.889 80.5939 171.901 80.6062C172.915 81.62 173.58 83.1043 173.58 84.6447C173.58 84.9317 173.523 85.2054 173.419 85.4551C173.267 86.6107 172.77 87.8276 171.723 88.7484C171.111 89.3325 170.498 89.8997 169.884 90.4498C169.848 90.4983 169.81 90.5457 169.77 90.5918C169.607 90.7765 169.42 90.9261 169.217 91.0402C160.317 98.8286 151.219 103.044 141.929 103.368C132.229 103.706 122.696 99.7904 113.353 91.9984C113.102 92.2279 112.855 92.4623 112.609 92.7088C112.589 92.7287 112.568 92.7483 112.548 92.7674C112.06 93.2179 111.954 94.0942 112.555 94.7442L112.571 94.7596C122.174 103.898 131.551 108.231 140.704 108.231C149.858 108.231 159.235 103.898 168.838 94.7596C169.685 93.9534 171.025 93.9866 171.831 94.8338C172.638 95.681 172.604 97.0214 171.757 97.8276C161.666 107.43 151.297 112.466 140.704 112.466C130.187 112.466 119.89 107.502 109.867 98.0322C109.662 97.8941 109.443 97.6979 109.26 97.4236C109.246 97.4031 109.233 97.3824 109.22 97.3617C107.326 95.0594 107.494 91.7019 109.641 89.687C110.4 88.9304 111.154 88.2806 111.85 87.6834C111.878 87.6561 111.907 87.6294 111.936 87.6034C121.349 79.3329 130.958 75.0065 140.756 75.0065C150.044 75.0065 159.161 78.8934 168.102 86.3417C168.346 86.1148 168.59 85.8849 168.834 85.6518C168.861 85.6255 168.889 85.6 168.918 85.5752C169.067 85.4482 169.238 85.1605 169.238 84.6419C169.238 84.5017 169.251 84.3647 169.277 84.2322C169.204 83.9999 169.077 83.7769 168.92 83.615C159.326 74.4924 149.957 70.1658 140.811 70.1658C131.657 70.1658 122.28 74.4996 112.678 83.6376C111.83 84.4438 110.49 84.4106 109.684 83.5634C108.878 82.7161 108.911 81.3758 109.758 80.5696C119.849 70.9671 130.218 65.9307 140.811 65.9307ZM164.877 89.1711C156.642 82.4493 148.617 79.2416 140.756 79.2416C132.887 79.2416 124.853 82.4565 116.608 89.1937C125.212 96.2182 133.587 99.421 141.781 99.1353C149.323 98.8724 157.015 95.6442 164.877 89.1711ZM136.522 89.1962C136.522 86.8572 138.418 84.961 140.757 84.961C143.096 84.961 144.992 86.8572 144.992 89.1962C144.992 91.5352 143.096 93.4313 140.757 93.4313C138.418 93.4313 136.522 91.5352 136.522 89.1962ZM140.757 80.7259C136.079 80.7259 132.287 84.5182 132.287 89.1962C132.287 93.8742 136.079 97.6664 140.757 97.6664C145.435 97.6664 149.227 93.8742 149.227 89.1962C149.227 84.5182 145.435 80.7259 140.757 80.7259Z" fill="white"/>
  <g filter="url(#filter0_d_2071_89072)">
    <rect x="159" y="36" width="49" height="26" rx="13" fill="#031371" shape-rendering="crispEdges"/>
    <path d="M177.058 44.2727V53H175.464L171.668 47.5071H171.604V53H169.759V44.2727H171.378L175.145 49.7614H175.222V44.2727H177.058ZM178.583 53V44.2727H184.463V45.794H180.428V47.8736H184.161V49.3949H180.428V51.4787H184.48V53H178.583ZM187.895 53L185.398 44.2727H187.413L188.858 50.3366H188.93L190.524 44.2727H192.25L193.839 50.3494H193.916L195.361 44.2727H197.376L194.879 53H193.081L191.419 47.294H191.351L189.693 53H187.895Z" fill="white"/>
  </g>
  <defs>
    <filter id="filter0_d_2071_89072" x="151" y="28" width="65" height="42" filterUnits="userSpaceOnUse" color-interpolation-filters="sRGB">
      <feFlood flood-opacity="0" result="BackgroundImageFix"/>
        <feColorMatrix in="SourceAlpha" type="matrix" values="0 0 0 0 0 0 0 0 0 0 0 0 0 0 0 0 0 0 127 0" result="hardAlpha"/>
      <feOffset/>
      <feGaussianBlur stdDeviation="4"/>
      <feComposite in2="hardAlpha" operator="out"/>
      <feColorMatrix type="matrix" values="0 0 0 0 0 0 0 0 0 0 0 0 0 0 0 0 0 0 0.1 0"/>
      <feBlend mode="normal" in2="BackgroundImageFix" result="effect1_dropShadow_2071_89072"/>
      <feBlend mode="normal" in="SourceGraphic" in2="effect1_dropShadow_2071_89072" result="shape"/>
    </filter>
    <linearGradient id="paint0_linear_2071_89072" x1="56" y1="90" x2="224" y2="90" gradientUnits="userSpaceOnUse">
      <stop stop-color="#F154DB"/>
      <stop offset="1" stop-color="#974EEA"/>
    </linearGradient>
    <linearGradient id="paint1_linear_2071_89072" x1="71" y1="90" x2="209" y2="90" gradientUnits="userSpaceOnUse">
      <stop stop-color="#F154DB"/>
      <stop offset="1" stop-color="#974EEA"/>
    </linearGradient>
    <linearGradient id="paint2_linear_2071_89072" x1="84.9999" y1="90" x2="195" y2="90" gradientUnits="userSpaceOnUse">
      <stop stop-color="#F154DB"/>
      <stop offset="1" stop-color="#974EEA"/>
    </linearGradient>
  </defs>
</svg>
