<svg width="71" height="71" viewBox="0 0 71 71" fill="none" xmlns="http://www.w3.org/2000/svg">
  <circle cx="35.5" cy="35.5" r="28.8438" fill="url(#paint0_linear_13395_79166)"/>
  <path fill-rule="evenodd" clip-rule="evenodd" d="M35.3319 23.8516C40.6351 23.8516 45.8262 26.373 50.8779 31.1803C50.8843 31.1863 50.8905 31.1924 50.8967 31.1986C51.4043 31.7062 51.7373 32.4493 51.7373 33.2204C51.7373 33.3635 51.7089 33.5001 51.6575 33.6246C51.5813 34.2037 51.3326 34.8137 50.8081 35.2752C50.502 35.5673 50.1953 35.851 49.8882 36.1262C49.8701 36.1509 49.8507 36.175 49.8301 36.1985C49.7485 36.2913 49.6543 36.3665 49.5523 36.4237C45.0967 40.3221 40.5427 42.432 35.892 42.5942C31.036 42.7635 26.2627 40.803 21.5854 36.9016C21.46 37.0164 21.3363 37.1336 21.2131 37.2568C21.2031 37.2668 21.1929 37.2766 21.1826 37.2862C20.9382 37.5117 20.8852 37.9504 21.1861 38.2759L21.1943 38.2835C26.0017 42.8583 30.6963 45.0279 35.2787 45.0279C39.8611 45.0279 44.5557 42.8583 49.3631 38.2835C49.7872 37.8799 50.4583 37.8966 50.8619 38.3207C51.2655 38.7448 51.2489 39.4159 50.8247 39.8195C45.773 44.6268 40.5819 47.1482 35.2787 47.1482C30.0133 47.1482 24.8584 44.6626 19.8407 39.9219C19.7377 39.8528 19.6283 39.7546 19.5367 39.6172C19.5299 39.6069 19.5232 39.5966 19.5168 39.5863C18.5683 38.4337 18.6527 36.7528 19.7274 35.7441C20.1128 35.36 20.4952 35.0308 20.8479 34.7285C20.8631 34.714 20.8787 34.7001 20.8945 34.6868C25.6014 30.5565 30.4059 28.3959 35.3051 28.3959C39.9545 28.3959 44.5187 30.3418 48.9951 34.0705C49.1171 33.9569 49.2393 33.8417 49.3615 33.725C49.3753 33.7118 49.3894 33.699 49.4039 33.6866C49.478 33.623 49.5637 33.479 49.5637 33.2194C49.5637 33.1494 49.5705 33.081 49.5835 33.0148C49.5469 32.8981 49.483 32.7862 49.4044 32.7049C44.6012 28.1379 39.9106 25.9718 35.3319 25.9718C30.7495 25.9718 26.0549 28.1414 21.2475 32.7162C20.8234 33.1198 20.1523 33.1032 19.7487 32.6791C19.3451 32.2549 19.3617 31.5839 19.7859 31.1803C24.8376 26.373 30.0287 23.8516 35.3319 23.8516ZM47.3803 35.487C43.2576 32.122 39.2404 30.5162 35.3051 30.5162C31.3653 30.5162 27.3435 32.1256 23.216 35.4983C27.5231 39.0149 31.716 40.6182 35.8181 40.4752C39.5935 40.3436 43.4443 38.7275 47.3803 35.487ZM33.1842 35.4992C33.1842 34.3282 34.1335 33.3789 35.3045 33.3789C36.4755 33.3789 37.4247 34.3282 37.4247 35.4992C37.4247 36.6702 36.4755 37.6194 35.3045 37.6194C34.1335 37.6194 33.1842 36.6702 33.1842 35.4992ZM35.3045 31.2587C32.9625 31.2587 31.064 33.1572 31.064 35.4992C31.064 37.8411 32.9625 39.7397 35.3045 39.7397C37.6464 39.7397 39.545 37.8411 39.545 35.4992C39.545 33.1572 37.6464 31.2587 35.3045 31.2587Z" fill="white"/>
  <defs>
    <linearGradient id="paint0_linear_13395_79166" x1="6.65625" y1="35.5" x2="64.3438" y2="35.5" gradientUnits="userSpaceOnUse">
      <stop stop-color="#F154DB"/>
      <stop offset="1" stop-color="#974EEA"/>
    </linearGradient>
  </defs>
</svg>
