<svg width="46" height="33" viewBox="0 0 46 33" fill="none" xmlns="http://www.w3.org/2000/svg">
<path fill-rule="evenodd" clip-rule="evenodd" d="M23.3018 0.5C30.6397 0.5 37.8195 3.98891 44.8034 10.6349C44.8123 10.6434 44.8212 10.652 44.8299 10.6607C45.5364 11.3672 45.9998 12.4012 45.9998 13.4748C45.9998 13.6742 45.9607 13.8645 45.8898 14.0385C45.7838 14.844 45.4378 15.6935 44.707 16.3367C44.2846 16.7397 43.8615 17.1312 43.4377 17.511C43.4127 17.5448 43.386 17.5779 43.3577 17.6101C43.2436 17.74 43.1119 17.8454 42.9693 17.9258C36.8096 23.3145 30.5115 26.2333 24.0772 26.4576C17.3642 26.6917 10.7677 23.9839 4.30654 18.5997C4.14021 18.7522 3.97625 18.908 3.81279 19.0715C3.79871 19.0855 3.78436 19.0993 3.76973 19.1128C3.44437 19.4132 3.37098 20.0006 3.77558 20.4389L3.78629 20.449C10.4259 26.7673 16.9062 29.7606 23.2285 29.7606C29.5508 29.7606 36.031 26.7673 42.6707 20.449C43.2683 19.8803 44.2137 19.9037 44.7824 20.5013C45.3511 21.0989 45.3276 22.0444 44.73 22.6131C37.7462 29.259 30.5663 32.7479 23.2285 32.7479C15.9436 32.7479 8.81435 29.3091 1.87804 22.7563C1.73351 22.6591 1.58034 22.5212 1.45202 22.3287C1.44273 22.3148 1.43373 22.3008 1.425 22.2867C0.106416 20.6829 0.223762 18.3442 1.71949 16.94C2.2664 16.3949 2.80895 15.9299 3.30654 15.5034L3.30655 15.5034L3.32268 15.4895L3.34073 15.4743C9.84585 9.76805 16.4889 6.78067 23.2653 6.78067C29.6918 6.78067 35.9985 9.46759 42.1813 14.6124C42.3437 14.4611 42.5062 14.3078 42.6687 14.1524C42.6882 14.1339 42.7081 14.1159 42.7285 14.0984C42.8229 14.0175 42.9393 13.8275 42.9393 13.4746C42.9393 13.3786 42.9484 13.2848 42.9657 13.1938C42.9163 13.0392 42.8313 12.8907 42.7272 12.7829C36.0934 6.47551 29.6188 3.48735 23.3018 3.48735C16.9795 3.48735 10.4993 6.48058 3.85966 12.7989C3.26206 13.3676 2.31661 13.3442 1.74793 12.7466C1.17925 12.149 1.2027 11.2035 1.80029 10.6349C8.78416 3.98891 15.964 0.5 23.3018 0.5ZM39.9056 16.6081C34.222 11.9764 28.6862 9.76801 23.2653 9.76801C17.8383 9.76801 12.2962 11.9813 6.60584 16.6237C12.5441 21.4644 18.3224 23.6691 23.9731 23.4721C29.1734 23.2908 34.4797 21.0682 39.9056 16.6081ZM20.3641 16.6236C20.3641 15.0214 21.6629 13.7226 23.2651 13.7226C24.8673 13.7226 26.1661 15.0214 26.1661 16.6236C26.1661 18.2258 24.8673 19.5246 23.2651 19.5246C21.6629 19.5246 20.3641 18.2258 20.3641 16.6236ZM23.2651 10.7353C20.0131 10.7353 17.3768 13.3716 17.3768 16.6236C17.3768 19.8757 20.0131 22.512 23.2651 22.512C26.5172 22.512 29.1535 19.8757 29.1535 16.6236C29.1535 13.3716 26.5172 10.7353 23.2651 10.7353Z" fill="url(#paint0_linear_2773_91842)"/>
<defs>
<linearGradient id="paint0_linear_2773_91842" x1="0.51123" y1="16.624" x2="45.9998" y2="16.624" gradientUnits="userSpaceOnUse">
<stop stop-color="#F154DB"/>
<stop offset="1" stop-color="#974EEA"/>
</linearGradient>
</defs>
</svg>
