<svg width="194" height="118" viewBox="0 0 194 118" fill="none" xmlns="http://www.w3.org/2000/svg">
  <path d="M193.736 58.9779C193.736 75.2646 180.418 88.4676 161.63 88.4676C145.344 88.4676 134.757 75.2646 134.757 58.9779C134.757 42.6912 145.344 29.4883 161.63 29.4883C182.44 29.4883 193.736 42.6912 193.736 58.9779Z" fill="url(#paint0_linear_2071_88657)"/>
  <circle cx="159.49" cy="58.9779" r="29.4896" fill="url(#paint1_linear_2071_88657)"/>
  <g style="mix-blend-mode:multiply" opacity="0.1">
    <circle cx="159.489" cy="58.9785" r="25.9224" fill="black"/>
  </g>
  <g style="mix-blend-mode:overlay" opacity="0.8">
    <path fill-rule="evenodd" clip-rule="evenodd" d="M159.559 46.1479C165.401 46.1479 171.116 48.9254 176.676 54.2162C176.683 54.223 176.69 54.2298 176.697 54.2368C177.26 54.7992 177.629 55.6224 177.629 56.477C177.629 56.6364 177.597 56.7884 177.54 56.9273C177.456 57.568 177.18 58.2435 176.599 58.755C176.263 59.0756 175.926 59.387 175.589 59.6891C175.569 59.7164 175.548 59.7432 175.525 59.7692C175.434 59.873 175.328 59.9571 175.214 60.0211C170.311 64.3104 165.298 66.6336 160.176 66.8122C154.832 66.9985 149.58 64.8429 144.437 60.5567C144.304 60.6781 144.174 60.8021 144.044 60.9322C144.033 60.9434 144.021 60.9544 144.01 60.9651C143.751 61.2042 143.692 61.6719 144.014 62.0208L144.023 62.0288C149.309 67.0588 154.467 69.4417 159.501 69.4417C164.534 69.4417 169.693 67.0588 174.978 62.0288C175.454 61.5761 176.207 61.5947 176.659 62.0705C177.112 62.5462 177.093 63.2989 176.618 63.7516C171.058 69.0424 165.342 71.8199 159.501 71.8199C153.701 71.8199 148.026 69.0823 142.504 63.8657C142.389 63.7882 142.267 63.6784 142.164 63.5252C142.157 63.5141 142.15 63.503 142.143 63.4918C141.093 62.215 141.187 60.3532 142.377 59.2354C142.813 58.8014 143.245 58.4312 143.641 58.0916L143.654 58.0806L143.67 58.0669C148.848 53.5255 154.136 51.1479 159.53 51.1479C164.646 51.1479 169.666 53.2869 174.588 57.3825C174.717 57.262 174.847 57.1399 174.976 57.0162C174.992 57.0014 175.008 56.987 175.024 56.9731C175.099 56.9087 175.192 56.7575 175.192 56.4765C175.192 56.4 175.199 56.3251 175.213 56.2525C175.174 56.1297 175.106 56.0119 175.023 55.9262C169.742 50.905 164.588 48.5261 159.559 48.5261C154.526 48.5261 149.367 50.909 144.081 55.939C143.605 56.3917 142.853 56.3731 142.4 55.8973C141.947 55.4216 141.966 54.6689 142.442 54.2162C148.002 48.9254 153.717 46.1479 159.559 46.1479ZM172.777 58.9713C168.252 55.2841 163.845 53.5261 159.53 53.5261C155.209 53.5261 150.797 55.2881 146.267 58.9837C150.995 62.8372 155.595 64.5923 160.093 64.4354C164.233 64.2911 168.457 62.5218 172.777 58.9713ZM157.22 58.9833C157.22 57.7078 158.254 56.6738 159.53 56.6738C160.805 56.6738 161.839 57.7078 161.839 58.9833C161.839 60.2587 160.805 61.2927 159.53 61.2927C158.254 61.2927 157.22 60.2587 157.22 58.9833ZM159.53 54.2956C156.941 54.2956 154.842 56.3943 154.842 58.9833C154.842 61.5722 156.941 63.6709 159.53 63.6709C162.119 63.6709 164.217 61.5722 164.217 58.9833C164.217 56.3943 162.119 54.2956 159.53 54.2956Z" fill="white"/>
  </g>
  <path d="M168.573 58.9795C168.573 84.2238 147.93 104.688 118.809 104.688C93.5646 104.688 77.1549 84.2238 77.1549 58.9795C77.1549 33.7351 93.5646 13.2705 118.809 13.2705C151.063 13.2705 168.573 33.7351 168.573 58.9795Z" fill="url(#paint2_linear_2071_88657)"/>
  <circle cx="115.491" cy="58.9795" r="45.709" fill="url(#paint3_linear_2071_88657)"/>
  <g style="mix-blend-mode:multiply" opacity="0.1">
    <circle cx="115.491" cy="58.9799" r="40.1796" fill="black"/>
  </g>
  <g style="mix-blend-mode:overlay" opacity="0.8">
    <path fill-rule="evenodd" clip-rule="evenodd" d="M115.599 39.0938C124.654 39.0938 133.513 43.3989 142.131 51.5996L142.149 51.6171L142.164 51.6315C143.035 52.5032 143.607 53.7791 143.607 55.1038C143.607 55.3504 143.559 55.5856 143.471 55.8006C143.34 56.794 142.913 57.8416 142.012 58.6348C141.491 59.1321 140.969 59.615 140.446 60.0836C140.415 60.1255 140.382 60.1664 140.347 60.2063C140.206 60.3668 140.043 60.4969 139.867 60.5961C132.267 67.2452 124.495 70.8467 116.556 71.1235C108.272 71.4123 100.133 68.071 92.1599 61.4271C91.9548 61.6153 91.7526 61.8074 91.5511 62.0089C91.5337 62.0263 91.516 62.0433 91.4979 62.06C91.0964 62.4306 91.0059 63.1555 91.5051 63.6963L91.5184 63.7087C99.7113 71.5052 107.708 75.1987 115.509 75.1987C123.31 75.1987 131.306 71.5052 139.499 63.7087C140.237 63.007 141.403 63.0359 142.105 63.7733C142.807 64.5107 142.778 65.6773 142.04 66.3791C133.423 74.5798 124.563 78.8849 115.509 78.8849C106.52 78.8849 97.7227 74.6416 89.1637 66.5559C88.9853 66.4359 88.7963 66.2657 88.638 66.0282C88.6265 66.011 88.6154 65.9937 88.6047 65.9764C86.9776 63.9974 87.1224 61.1116 88.9681 59.3789C89.6429 58.7062 90.3124 58.1324 90.9264 57.6061L90.9463 57.5891C90.9554 57.5812 90.9646 57.5735 90.9739 57.5659C98.999 50.5279 107.194 46.8434 115.554 46.8434C123.484 46.8434 131.266 50.1589 138.895 56.5072C139.095 56.3205 139.296 56.1313 139.497 55.9396C139.521 55.9167 139.545 55.8945 139.57 55.8729C139.687 55.7731 139.83 55.5386 139.83 55.1032C139.83 54.9847 139.842 54.8688 139.863 54.7565C139.802 54.5659 139.697 54.383 139.569 54.2501C131.383 46.4672 123.394 42.78 115.599 42.78C107.798 42.78 99.8017 46.4734 91.6088 54.2699C90.8714 54.9716 89.7048 54.9427 89.003 54.2053C88.3013 53.4679 88.3302 52.3013 89.0676 51.5996C97.6853 43.3989 106.545 39.0938 115.599 39.0938ZM136.087 58.9698C129.074 53.2546 122.243 50.5296 115.554 50.5296C108.857 50.5296 102.019 53.2607 94.9972 58.989C102.325 64.9621 109.455 67.6826 116.427 67.4395C122.844 67.2158 129.392 64.4732 136.087 58.9698ZM111.974 58.9887C111.974 57.0117 113.577 55.409 115.554 55.409C117.531 55.409 119.134 57.0117 119.134 58.9887C119.134 60.9657 117.531 62.5683 115.554 62.5683C113.577 62.5683 111.974 60.9657 111.974 58.9887ZM115.554 51.7228C111.541 51.7228 108.288 54.9758 108.288 58.9887C108.288 63.0015 111.541 66.2545 115.554 66.2545C119.567 66.2545 122.82 63.0015 122.82 58.9887C122.82 54.9758 119.567 51.7228 115.554 51.7228Z" fill="white"/>
  </g>
  <path d="M127.471 58.9793C127.471 91.5527 100.836 117.959 63.2601 117.959C30.6868 117.959 9.51288 91.5527 9.51288 58.9793C9.51288 26.4059 30.6868 0 63.2601 0C104.879 0 127.471 26.4059 127.471 58.9793Z" fill="url(#paint4_linear_2071_88657)"/>
  <circle cx="58.9793" cy="58.9793" r="58.9793" fill="url(#paint5_linear_2071_88657)"/>
  <g style="mix-blend-mode:multiply" opacity="0.1">
    <circle cx="58.9794" cy="58.9795" r="51.8447" fill="black"/>
  </g>
  <g style="mix-blend-mode:overlay" opacity="0.8">
    <path fill-rule="evenodd" clip-rule="evenodd" d="M59.1176 33.3174C70.8007 33.3174 82.2323 38.8724 93.3519 49.4539L93.3741 49.4753L93.3941 49.4951C94.5189 50.6199 95.2569 52.2663 95.2569 53.9756C95.2569 54.2936 95.1945 54.597 95.0812 54.8743C94.9123 56.1564 94.3613 57.5085 93.1982 58.5322C92.5255 59.174 91.8519 59.7973 91.1772 60.402C91.1373 60.4559 91.0949 60.5085 91.0498 60.5598C90.8681 60.7667 90.6584 60.9344 90.4314 61.0624C80.6241 69.6423 70.5963 74.2894 60.3518 74.6466C49.6637 75.0193 39.161 70.7082 28.8739 62.1358C28.6089 62.3788 28.3477 62.627 28.0874 62.8874C28.065 62.9098 28.0421 62.9317 28.0188 62.9532C27.5008 63.4314 27.3839 64.3667 28.0281 65.0645L28.0452 65.0806C38.6167 75.1406 48.9344 79.9063 59.0006 79.9063C69.0669 79.9063 79.3846 75.1406 89.9561 65.0806C90.9076 64.1752 92.4129 64.2125 93.3184 65.164C94.2238 66.1154 94.1865 67.6208 93.235 68.5262C82.1154 79.1078 70.6838 84.6627 59.0006 84.6627C47.4018 84.6627 36.0508 79.1876 25.0069 68.7543C24.7768 68.5995 24.5329 68.3799 24.3286 68.0735C24.3138 68.0513 24.2995 68.029 24.2856 68.0067C22.1862 65.4531 22.373 61.7295 24.7545 59.4938C25.6252 58.6258 26.4891 57.8854 27.2813 57.2063L27.2822 57.2056C27.2945 57.1947 27.3069 57.184 27.3194 57.1734C37.6819 48.0788 48.2642 43.3174 59.059 43.3174C69.2913 43.3174 79.3326 47.5954 89.1768 55.7869C89.4353 55.546 89.694 55.3019 89.9529 55.0546C89.9838 55.025 90.0155 54.9963 90.0479 54.9685C90.1983 54.8396 90.3836 54.5372 90.3836 53.9753C90.3836 53.8223 90.3981 53.6726 90.4257 53.5276C90.3471 53.2816 90.2118 53.0455 90.0462 52.874C79.4841 42.8315 69.1753 38.0738 59.1176 38.0738C49.0513 38.0738 38.7336 42.8396 28.1621 52.8995C27.2106 53.805 25.7053 53.7676 24.7999 52.8162C23.8944 51.8647 23.9317 50.3593 24.8832 49.4539C36.0028 38.8724 47.4344 33.3174 59.1176 33.3174ZM85.5535 58.9644C76.5041 51.5899 67.6901 48.0737 59.059 48.0737C50.4184 48.0737 41.5943 51.5978 32.5342 58.9892C41.9889 66.6965 51.189 70.2068 60.1861 69.8931C68.4658 69.6044 76.9144 66.0657 85.5535 58.9644ZM54.4405 58.9888C54.4405 56.4378 56.5085 54.3698 59.0594 54.3698C61.6104 54.3698 63.6783 56.4378 63.6783 58.9888C63.6783 61.5397 61.6104 63.6077 59.0594 63.6077C56.5085 63.6077 54.4405 61.5397 54.4405 58.9888ZM59.0594 49.6134C53.8816 49.6134 49.6841 53.8109 49.6841 58.9888C49.6841 64.1666 53.8816 68.3641 59.0594 68.3641C64.2373 68.3641 68.4347 64.1666 68.4347 58.9888C68.4347 53.8109 64.2373 49.6134 59.0594 49.6134Z" fill="white"/>
  </g>
  <defs>
    <linearGradient id="paint0_linear_2071_88657" x1="134.757" y1="58.9779" x2="193.736" y2="58.9779" gradientUnits="userSpaceOnUse">
      <stop stop-color="#B5189F"/>
      <stop offset="1" stop-color="#3C0080"/>
    </linearGradient>
    <linearGradient id="paint1_linear_2071_88657" x1="130" y1="58.9779" x2="188.979" y2="58.9779" gradientUnits="userSpaceOnUse">
      <stop stop-color="#F154DB"/>
      <stop offset="1" stop-color="#974EEA"/>
    </linearGradient>
    <linearGradient id="paint2_linear_2071_88657" x1="77.1549" y1="58.9795" x2="168.573" y2="58.9795" gradientUnits="userSpaceOnUse">
      <stop stop-color="#B5189F"/>
      <stop offset="1" stop-color="#3C0080"/>
    </linearGradient>
    <linearGradient id="paint3_linear_2071_88657" x1="69.7823" y1="58.9795" x2="161.2" y2="58.9795" gradientUnits="userSpaceOnUse">
      <stop stop-color="#F154DB"/>
      <stop offset="1" stop-color="#974EEA"/>
    </linearGradient>
    <linearGradient id="paint4_linear_2071_88657" x1="9.51288" y1="58.9793" x2="127.471" y2="58.9793" gradientUnits="userSpaceOnUse">
      <stop stop-color="#B5189F"/>
      <stop offset="1" stop-color="#3C0080"/>
    </linearGradient>
    <linearGradient id="paint5_linear_2071_88657" x1="0" y1="58.9793" x2="117.959" y2="58.9793" gradientUnits="userSpaceOnUse">
      <stop stop-color="#F154DB"/>
      <stop offset="1" stop-color="#974EEA"/>
    </linearGradient>
  </defs>
</svg>
