<svg width="46" height="33" viewBox="0 0 46 33" fill="none" xmlns="http://www.w3.org/2000/svg">
<path fill-rule="evenodd" clip-rule="evenodd" d="M23.3018 0C30.6397 0 37.8195 3.48891 44.8034 10.1349C44.8123 10.1434 44.8212 10.152 44.8299 10.1607C45.5364 10.8672 45.9998 11.9012 45.9998 12.9748C45.9998 13.1742 45.9607 13.3645 45.8898 13.5385C45.7838 14.344 45.4378 15.1935 44.707 15.8367C44.2846 16.2397 43.8615 16.6312 43.4377 17.011C43.4127 17.0448 43.386 17.0779 43.3577 17.1101C43.2436 17.24 43.1119 17.3454 42.9693 17.4258C36.8096 22.8145 30.5115 25.7333 24.0772 25.9576C17.3642 26.1917 10.7677 23.4839 4.30654 18.0997C4.14021 18.2522 3.97625 18.408 3.81279 18.5715C3.79871 18.5855 3.78436 18.5993 3.76973 18.6128C3.44437 18.9132 3.37098 19.5006 3.77558 19.9389L3.78629 19.949C10.4259 26.2673 16.9062 29.2606 23.2285 29.2606C29.5508 29.2606 36.031 26.2673 42.6707 19.949C43.2683 19.3803 44.2137 19.4037 44.7824 20.0013C45.3511 20.5989 45.3276 21.5444 44.73 22.1131C37.7462 28.759 30.5663 32.2479 23.2285 32.2479C15.9436 32.2479 8.81435 28.8091 1.87804 22.2563C1.73351 22.1591 1.58034 22.0212 1.45202 21.8287C1.44273 21.8148 1.43373 21.8008 1.425 21.7867C0.106416 20.1829 0.223762 17.8442 1.71949 16.44C2.2664 15.8949 2.80895 15.4299 3.30654 15.0034L3.30655 15.0034L3.32268 14.9895L3.34073 14.9743C9.84585 9.26805 16.4889 6.28067 23.2653 6.28067C29.6918 6.28067 35.9985 8.96759 42.1813 14.1124C42.3437 13.9611 42.5062 13.8078 42.6687 13.6524C42.6882 13.6339 42.7081 13.6159 42.7285 13.5984C42.8229 13.5175 42.9393 13.3275 42.9393 12.9746C42.9393 12.8786 42.9484 12.7848 42.9657 12.6938C42.9163 12.5392 42.8313 12.3907 42.7272 12.2829C36.0934 5.97551 29.6188 2.98735 23.3018 2.98735C16.9795 2.98735 10.4993 5.98058 3.85966 12.2989C3.26206 12.8676 2.31661 12.8442 1.74793 12.2466C1.17925 11.649 1.2027 10.7035 1.80029 10.1349C8.78416 3.48891 15.964 0 23.3018 0ZM39.9056 16.1081C34.222 11.4764 28.6862 9.26801 23.2653 9.26801C17.8383 9.26801 12.2962 11.4813 6.60584 16.1237C12.5441 20.9644 18.3224 23.1691 23.9731 22.9721C29.1734 22.7908 34.4797 20.5682 39.9056 16.1081ZM20.3641 16.1236C20.3641 14.5214 21.6629 13.2226 23.2651 13.2226C24.8673 13.2226 26.1661 14.5214 26.1661 16.1236C26.1661 17.7258 24.8673 19.0246 23.2651 19.0246C21.6629 19.0246 20.3641 17.7258 20.3641 16.1236ZM23.2651 10.2353C20.0131 10.2353 17.3768 12.8716 17.3768 16.1236C17.3768 19.3757 20.0131 22.012 23.2651 22.012C26.5172 22.012 29.1535 19.3757 29.1535 16.1236C29.1535 12.8716 26.5172 10.2353 23.2651 10.2353Z" fill="url(#paint0_linear_2773_91800)"/>
<defs>
<linearGradient id="paint0_linear_2773_91800" x1="39.3381" y1="4.72262" x2="17.8211" y2="35.0742" gradientUnits="userSpaceOnUse">
<stop stop-color="#FF2D55"/>
<stop offset="1" stop-color="#FFBC5B"/>
</linearGradient>
</defs>
</svg>
