<svg xmlns="http://www.w3.org/2000/svg" width="44" height="16" viewBox="0 0 44 16" fill="none">
    <path opacity="0.3" d="M10.7648 7.04911C11.3888 7.52948 11.3888 8.47052 10.7648 8.95089L4.93199 13.441C4.14291 14.0484 3 13.4859 3 12.4901L3 3.50993C3 2.51412 4.14291 1.95161 4.93199 2.55905L10.7648 7.04911Z" fill="#787A9B"/>
    <path opacity="0.5" d="M26.7648 7.04911C27.3888 7.52948 27.3888 8.47052 26.7648 8.95089L20.932 13.441C20.1429 14.0484 19 13.4859 19 12.4901L19 3.50993C19 2.51412 20.1429 1.95161 20.932 2.55905L26.7648 7.04911Z" fill="#787A9B"/>
    <path d="M42.7648 7.04911C43.3888 7.52948 43.3888 8.47052 42.7648 8.95089L36.932 13.441C36.1429 14.0484 35 13.4859 35 12.4901L35 3.50993C35 2.51412 36.1429 1.95161 36.932 2.55905L42.7648 7.04911Z" fill="#787A9B"/>
</svg>
