<svg width="281" height="160" viewBox="0 0 281 160" fill="none" xmlns="http://www.w3.org/2000/svg">
<mask id="mask0_12829_45085" style="mask-type:alpha" maskUnits="userSpaceOnUse" x="0" y="0" width="281" height="160">
<rect x="0.5" y="0.5" width="280" height="159" rx="15.5" fill="white" stroke="#EAEAEA"/>
</mask>
<g mask="url(#mask0_12829_45085)">
<rect opacity="0.2" x="149" y="66" width="97" height="97" rx="48.5" fill="url(#paint0_radial_12829_45085)"/>
<rect x="231" y="74" width="25" height="25" rx="12.5" fill="url(#paint1_radial_12829_45085)"/>
<rect opacity="0.2" x="29" y="77" width="25" height="25" rx="12.5" fill="url(#paint2_radial_12829_45085)"/>
<rect x="52" y="27" width="16" height="16" rx="8" fill="url(#paint3_radial_12829_45085)"/>
<rect x="79" y="128" width="16" height="16" rx="8" fill="url(#paint4_radial_12829_45085)"/>
<rect x="270" y="106" width="18" height="18" rx="9" fill="#F3F7F9"/>
<rect opacity="0.34" x="182" y="-16" width="34" height="34" rx="17" fill="url(#paint5_radial_12829_45085)"/>
<g filter="url(#filter0_d_12829_45085)">
<rect x="80.8896" y="14.7056" width="118.1" height="118.1" rx="59.0498" fill="white"/>
</g>
<path d="M109.008 56.4288C108.695 54.5693 109.686 52.7284 111.422 51.9923L138.378 40.5621C139.376 40.1389 140.503 40.1389 141.501 40.5621L168.457 51.9923C170.193 52.7284 171.184 54.5693 170.871 56.4288C169.957 61.8756 168.246 73.3316 168.246 82.8193C168.246 94.7543 148.131 104.184 141.814 106.851C140.618 107.356 139.275 107.322 138.103 106.765C131.829 103.785 111.633 93.3712 111.633 82.8193C111.633 73.3316 109.922 61.8756 109.008 56.4288Z" fill="url(#paint6_radial_12829_45085)"/>
<g style="mix-blend-mode:overlay" opacity="0.3">
<path d="M112.695 57.9986C112.519 57.0633 113.012 56.1317 113.887 55.7576L139.939 44.6235L165.992 55.7576C166.867 56.1317 167.36 57.0633 167.184 57.9986C166.428 62.0041 164.563 72.7817 164.563 81.5742C164.563 91.5982 147.538 99.6875 141.801 102.129C140.607 102.637 139.285 102.603 138.114 102.045C132.412 99.3269 115.315 90.4373 115.315 81.5742C115.315 72.7818 113.451 62.0041 112.695 57.9986Z" fill="url(#paint7_linear_12829_45085)"/>
</g>
<g style="mix-blend-mode:multiply">
<path d="M132.066 74.7136L137.263 80.8409L149.388 66.6689" stroke="url(#paint8_radial_12829_45085)" stroke-width="5" stroke-linecap="round" stroke-linejoin="round"/>
</g>
</g>
<defs>
<filter id="filter0_d_12829_45085" x="68.8896" y="3.70557" width="142.1" height="142.1" filterUnits="userSpaceOnUse" color-interpolation-filters="sRGB">
<feFlood flood-opacity="0" result="BackgroundImageFix"/>
<feColorMatrix in="SourceAlpha" type="matrix" values="0 0 0 0 0 0 0 0 0 0 0 0 0 0 0 0 0 0 127 0" result="hardAlpha"/>
<feOffset dy="1"/>
<feGaussianBlur stdDeviation="6"/>
<feComposite in2="hardAlpha" operator="out"/>
<feColorMatrix type="matrix" values="0 0 0 0 0 0 0 0 0 0 0 0 0 0 0 0 0 0 0.1 0"/>
<feBlend mode="normal" in2="BackgroundImageFix" result="effect1_dropShadow_12829_45085"/>
<feBlend mode="normal" in="SourceGraphic" in2="effect1_dropShadow_12829_45085" result="shape"/>
</filter>
<radialGradient id="paint0_radial_12829_45085" cx="0" cy="0" r="1" gradientUnits="userSpaceOnUse" gradientTransform="translate(159.778 87.5556) rotate(40.8335) scale(96.1522 296.284)">
<stop stop-color="#FFCCEB"/>
<stop offset="0.473958" stop-color="#BFC6FF"/>
<stop offset="1" stop-color="#96E4D2"/>
</radialGradient>
<radialGradient id="paint1_radial_12829_45085" cx="0" cy="0" r="1" gradientUnits="userSpaceOnUse" gradientTransform="translate(233.778 79.5556) rotate(40.8335) scale(24.7815 76.3619)">
<stop stop-color="#FFDDF1"/>
<stop offset="0.473958" stop-color="#E0E3FE"/>
<stop offset="1" stop-color="#BDFAEB"/>
</radialGradient>
<radialGradient id="paint2_radial_12829_45085" cx="0" cy="0" r="1" gradientUnits="userSpaceOnUse" gradientTransform="translate(31.7778 82.5556) rotate(40.8335) scale(24.7815 76.3619)">
<stop stop-color="#FFCCEB"/>
<stop offset="0.473958" stop-color="#BFC6FF"/>
<stop offset="1" stop-color="#96E4D2"/>
</radialGradient>
<radialGradient id="paint3_radial_12829_45085" cx="0" cy="0" r="1" gradientUnits="userSpaceOnUse" gradientTransform="translate(53.7778 30.5556) rotate(40.8335) scale(15.8602 48.8716)">
<stop stop-color="#FFDDF1"/>
<stop offset="0.473958" stop-color="#E0E3FE"/>
<stop offset="1" stop-color="#BDFAEB"/>
</radialGradient>
<radialGradient id="paint4_radial_12829_45085" cx="0" cy="0" r="1" gradientUnits="userSpaceOnUse" gradientTransform="translate(80.7778 131.556) rotate(40.8335) scale(15.8602 48.8716)">
<stop stop-color="#FFDDF1"/>
<stop offset="0.473958" stop-color="#E0E3FE"/>
<stop offset="1" stop-color="#BDFAEB"/>
</radialGradient>
<radialGradient id="paint5_radial_12829_45085" cx="0" cy="0" r="1" gradientUnits="userSpaceOnUse" gradientTransform="translate(185.778 -8.44445) rotate(40.8335) scale(33.7028 103.852)">
<stop stop-color="#FFCCEB"/>
<stop offset="0.473958" stop-color="#BFC6FF"/>
<stop offset="1" stop-color="#96E4D2"/>
</radialGradient>
<radialGradient id="paint6_radial_12829_45085" cx="0" cy="0" r="1" gradientUnits="userSpaceOnUse" gradientTransform="translate(115.445 54.9467) rotate(42.8925) scale(64.4796 200.265)">
<stop stop-color="#FFCCEB"/>
<stop offset="0.473958" stop-color="#BFC6FF"/>
<stop offset="1" stop-color="#96E4D2"/>
</radialGradient>
<linearGradient id="paint7_linear_12829_45085" x1="139.939" y1="47.5367" x2="139.939" y2="101.429" gradientUnits="userSpaceOnUse">
<stop offset="0.473958" stop-color="white"/>
<stop offset="1" stop-color="white" stop-opacity="0"/>
</linearGradient>
<radialGradient id="paint8_radial_12829_45085" cx="0" cy="0" r="1" gradientUnits="userSpaceOnUse" gradientTransform="translate(133.991 69.8183) rotate(35.263) scale(15.9103 46.7148)">
<stop stop-color="#FFCCEB"/>
<stop offset="0.473958" stop-color="#BFC6FF"/>
<stop offset="1" stop-color="#96E4D2"/>
</radialGradient>
</defs>
</svg>
