<svg width="1882" height="1017" viewBox="0 0 1882 1017" fill="none" xmlns="http://www.w3.org/2000/svg">
<circle cx="1387" cy="619.782" r="379" fill="url(#paint0_radial)"/>
<g filter="url(#filter0_f)">
<circle cx="533" cy="617.782" r="379" fill="url(#paint1_radial)"/>
</g>
<g filter="url(#filter1_f)">
<circle cx="1025" cy="447.782" r="379" fill="url(#paint2_radial)"/>
</g>
<circle cx="979.001" cy="603.783" r="379" fill="url(#paint3_radial)"/>
<g style="mix-blend-mode:overlay" opacity="0.3" filter="url(#filter2_b)">
<path d="M1882 557.283C1882 753.068 1268 1087.78 1009 911.782C750 735.782 136 753.068 136 557.283C136 361.498 561 -31.2173 1009 202.783C1371 496.783 1882 361.498 1882 557.283Z" fill="url(#paint4_linear)"/>
</g>
<g style="mix-blend-mode:overlay" opacity="0.3" filter="url(#filter3_b)">
<path d="M1641 612.783C1641 808.477 1535.81 732.704 1254.41 762.69C760.813 815.289 26.9961 636.749 54.7656 303.404C54.7656 107.709 423.177 37.0271 823.059 248.929C1204.43 546.791 1641 417.089 1641 612.783Z" fill="url(#paint5_linear)"/>
</g>
<g style="mix-blend-mode:overlay" opacity="0.3" filter="url(#filter4_b)">
<path d="M214.428 402.902C56.4913 218.35 -80.8692 -16.3852 57.4277 0.901924C288.576 29.7954 345.428 352.902 610.428 338.902C781.595 329.859 1160.86 348.051 1495.43 474.783C1627.43 524.783 1725.34 582.783 1693 700.783C1660.66 818.783 1078 622.902 890 677.783C680.987 738.798 329 536.783 214.428 402.902Z" fill="url(#paint6_linear)"/>
</g>
<defs>
<filter id="filter0_f" x="134" y="218.782" width="798" height="798" filterUnits="userSpaceOnUse" color-interpolation-filters="sRGB">
<feFlood flood-opacity="0" result="BackgroundImageFix"/>
<feBlend mode="normal" in="SourceGraphic" in2="BackgroundImageFix" result="shape"/>
<feGaussianBlur stdDeviation="10" result="effect1_foregroundBlur"/>
</filter>
<filter id="filter1_f" x="626.001" y="48.7822" width="798" height="798" filterUnits="userSpaceOnUse" color-interpolation-filters="sRGB">
<feFlood flood-opacity="0" result="BackgroundImageFix"/>
<feBlend mode="normal" in="SourceGraphic" in2="BackgroundImageFix" result="shape"/>
<feGaussianBlur stdDeviation="10" result="effect1_foregroundBlur"/>
</filter>
<filter id="filter2_b" x="76" y="70.5654" width="1866" height="950.739" filterUnits="userSpaceOnUse" color-interpolation-filters="sRGB">
<feFlood flood-opacity="0" result="BackgroundImageFix"/>
<feGaussianBlur in="BackgroundImage" stdDeviation="30"/>
<feComposite in2="SourceAlpha" operator="in" result="effect1_backgroundBlur"/>
<feBlend mode="normal" in="SourceGraphic" in2="effect1_backgroundBlur" result="shape"/>
</filter>
<filter id="filter3_b" x="-6" y="59.7832" width="1707" height="772" filterUnits="userSpaceOnUse" color-interpolation-filters="sRGB">
<feFlood flood-opacity="0" result="BackgroundImageFix"/>
<feGaussianBlur in="BackgroundImage" stdDeviation="30"/>
<feComposite in2="SourceAlpha" operator="in" result="effect1_backgroundBlur"/>
<feBlend mode="normal" in="SourceGraphic" in2="effect1_backgroundBlur" result="shape"/>
</filter>
<filter id="filter4_b" x="-59.5635" y="-60" width="1818.78" height="859.31" filterUnits="userSpaceOnUse" color-interpolation-filters="sRGB">
<feFlood flood-opacity="0" result="BackgroundImageFix"/>
<feGaussianBlur in="BackgroundImage" stdDeviation="30"/>
<feComposite in2="SourceAlpha" operator="in" result="effect1_backgroundBlur"/>
<feBlend mode="normal" in="SourceGraphic" in2="effect1_backgroundBlur" result="shape"/>
</filter>
<radialGradient id="paint0_radial" cx="0" cy="0" r="1" gradientUnits="userSpaceOnUse" gradientTransform="translate(1387 619.782) rotate(90) scale(379)">
<stop stop-color="#BFFFF0"/>
<stop offset="1" stop-color="#FEFFC7" stop-opacity="0"/>
</radialGradient>
<radialGradient id="paint1_radial" cx="0" cy="0" r="1" gradientUnits="userSpaceOnUse" gradientTransform="translate(533 617.782) rotate(90) scale(379)">
<stop stop-color="#EAE2FF"/>
<stop offset="1" stop-color="#FFC8CE" stop-opacity="0"/>
</radialGradient>
<radialGradient id="paint2_radial" cx="0" cy="0" r="1" gradientUnits="userSpaceOnUse" gradientTransform="translate(1025 447.782) rotate(90) scale(379)">
<stop stop-color="#EAE2FF"/>
<stop offset="1" stop-color="#FFC8CE" stop-opacity="0"/>
</radialGradient>
<radialGradient id="paint3_radial" cx="0" cy="0" r="1" gradientUnits="userSpaceOnUse" gradientTransform="translate(979.001 603.783) rotate(90) scale(379)">
<stop stop-color="#FFF8E0"/>
<stop offset="1" stop-color="#D3EFFF" stop-opacity="0"/>
</radialGradient>
<linearGradient id="paint4_linear" x1="479.479" y1="295.749" x2="1671.58" y2="941.718" gradientUnits="userSpaceOnUse">
<stop stop-color="#141414"/>
<stop offset="1"/>
</linearGradient>
<linearGradient id="paint5_linear" x1="372.709" y1="41.9907" x2="1281.03" y2="738.34" gradientUnits="userSpaceOnUse">
<stop stop-color="#141414"/>
<stop offset="1"/>
</linearGradient>
<linearGradient id="paint6_linear" x1="229" y1="206.783" x2="1617" y2="656.783" gradientUnits="userSpaceOnUse">
<stop stop-color="#141414"/>
<stop offset="1" stop-opacity="0.57"/>
</linearGradient>
</defs>
</svg>
