<svg width="32" height="32" viewBox="0 0 32 32" fill="none" xmlns="http://www.w3.org/2000/svg">
  <path d="M29 16C29 8.8203 23.1797 3 16 3C8.8203 3 3 8.8203 3 16C3 23.1797 8.8203 29 16 29C23.1797 29 29 23.1797 29 16Z" fill="white" stroke="#D4D9E1"/>
  <path fill-rule="evenodd" clip-rule="evenodd" d="M9 22.8913V10.1084H21.2933V13.926H20.6497L20.6479 10.7488H9.61652V22.2509H20.6479V18.9039H21.2933V22.8913H9ZM13.3639 16.8746C13.4792 17.0239 13.5409 17.2103 13.5386 17.4017C13.5418 17.5686 13.4977 17.7327 13.4118 17.8737C13.3217 18.0145 13.1944 18.1253 13.0452 18.1928C12.8664 18.2734 12.6729 18.3127 12.4781 18.308H11.09V14.9626H12.4182C12.6118 14.9574 12.8042 14.9948 12.9829 15.0724C13.1293 15.1355 13.2545 15.2421 13.3427 15.379C13.4251 15.5121 13.4678 15.6675 13.4655 15.8257C13.4655 16.0206 13.4155 16.1835 13.3154 16.3146C13.2129 16.4476 13.0736 16.5447 12.9162 16.5925C13.0941 16.6253 13.2537 16.7259 13.3639 16.8746ZM11.7366 16.3427H12.3267C12.4807 16.3427 12.599 16.3067 12.6817 16.2348C12.7644 16.1629 12.8059 16.0599 12.8063 15.9259C12.8063 15.7917 12.7648 15.6879 12.6817 15.6145C12.5986 15.5411 12.4802 15.5043 12.3267 15.5041H11.7366V16.3427ZM12.7532 17.6462C12.841 17.5696 12.8848 17.461 12.8846 17.3204C12.8846 17.1766 12.8386 17.0639 12.7464 16.9824C12.6543 16.901 12.5295 16.8599 12.3719 16.8593H11.7366V17.7604H12.3866C12.543 17.761 12.6649 17.723 12.7523 17.6462H12.7532ZM14.599 18.3075V14.7611H13.9542V18.3075H14.599ZM15.6053 18.1809C15.4101 18.069 15.2494 17.902 15.1417 17.6991C15.0265 17.4788 14.9685 17.2311 14.9734 16.9805C14.9681 16.7293 15.0272 16.4811 15.1447 16.2616C15.2558 16.0582 15.4197 15.8914 15.6176 15.7801C15.824 15.6683 16.0534 15.61 16.2861 15.61C16.5189 15.61 16.7483 15.6683 16.9547 15.7801C17.1526 15.8912 17.3164 16.0581 17.4272 16.2616C17.5457 16.4808 17.6057 16.729 17.601 16.9805C17.6059 17.2323 17.5445 17.4808 17.4235 17.6991C17.3095 17.9026 17.1435 18.0694 16.944 18.1809C16.7362 18.2959 16.5038 18.3544 16.2685 18.351C16.037 18.3545 15.8086 18.296 15.6053 18.1809ZM16.5989 17.6777C16.704 17.6158 16.7893 17.5233 16.8445 17.4116C16.9094 17.2782 16.9411 17.1299 16.9366 16.9805C16.9366 16.7282 16.8728 16.5341 16.7453 16.3981C16.6851 16.3323 16.6124 16.2802 16.5318 16.2452C16.4512 16.2101 16.3644 16.1929 16.2771 16.1946C16.1904 16.1926 16.1043 16.2097 16.0244 16.2448C15.9446 16.2799 15.8728 16.3321 15.8138 16.3981C15.6891 16.5341 15.6269 16.7282 15.6271 16.9805C15.6273 17.2328 15.6881 17.4265 15.8095 17.5616C15.8673 17.6278 15.9383 17.6803 16.0174 17.7155C16.0966 17.7507 16.1821 17.7677 16.2682 17.7655C16.3835 17.7661 16.4971 17.7359 16.5979 17.6777H16.5989ZM18.4162 15.7803C18.2266 15.8926 18.0716 16.0586 17.9692 16.2589C17.8617 16.4668 17.808 16.708 17.808 16.9826C17.808 17.2573 17.8618 17.4977 17.9695 17.7038C18.0719 17.9041 18.2269 18.0701 18.4165 18.1824C18.6166 18.2982 18.8425 18.3569 19.0714 18.3525C19.385 18.3525 19.6463 18.2674 19.8553 18.0972C20.0661 17.9249 20.2141 17.6832 20.275 17.4118H19.5787C19.4986 17.6548 19.328 17.7762 19.0668 17.7762C18.8822 17.776 18.7362 17.7064 18.6287 17.5675C18.5212 17.4286 18.4675 17.233 18.4675 16.9807C18.4671 16.725 18.5208 16.5277 18.6287 16.3888C18.7366 16.2499 18.8826 16.1804 19.0668 16.1804C19.1825 16.1762 19.2965 16.2107 19.392 16.2787C19.4806 16.3457 19.5461 16.4406 19.5787 16.5493H20.2747C20.2037 16.2521 20.0645 16.0213 19.8571 15.8569C19.6498 15.6924 19.3878 15.6102 19.0711 15.6102C18.8422 15.6056 18.6162 15.6643 18.4162 15.7803ZM22.1608 18.3075L21.2937 17.1763V18.3075H20.649V14.7611H21.2937V16.7787L22.1516 15.6526H22.9907L21.8657 16.9849L22.9999 18.3075H22.1608ZM11.1004 20.0287H11.8065L11.9416 20.411H12.105L11.5431 18.8219H11.3681L10.8026 20.4117H10.965L11.1004 20.0287ZM11.4528 19.0246L11.7599 19.895H11.1458L11.4528 19.0246ZM13.2592 19.2696C13.3507 19.3624 13.3965 19.497 13.3965 19.6736V20.4107H13.2429V19.6921C13.2429 19.5555 13.2101 19.4511 13.1444 19.3788C13.1094 19.342 13.0673 19.3134 13.0209 19.2947C12.9745 19.2761 12.9248 19.2679 12.8751 19.2706C12.8234 19.2681 12.7718 19.2772 12.7237 19.297C12.6755 19.3169 12.632 19.3471 12.596 19.3858C12.5266 19.4626 12.4919 19.5754 12.4919 19.7243V20.4107H12.3369V19.1532H12.4919V19.3673C12.5287 19.2923 12.5867 19.2309 12.658 19.1911C12.7337 19.1498 12.8182 19.1288 12.9037 19.1302C12.9689 19.1274 13.034 19.1384 13.0951 19.1623C13.1562 19.1863 13.212 19.2228 13.2592 19.2696ZM13.9076 19.2146C13.8195 19.2676 13.7479 19.346 13.7016 19.4402C13.6504 19.5453 13.6249 19.6619 13.6273 19.7797C13.625 19.8979 13.6505 20.0149 13.7016 20.1205C13.7475 20.2152 13.8184 20.2944 13.9061 20.3487C13.9959 20.4029 14.0982 20.4308 14.2021 20.4294C14.3071 20.4323 14.4107 20.403 14.4999 20.3452C14.5799 20.2942 14.6439 20.2201 14.6841 20.132V20.4109H14.8395V19.1534H14.6844V19.4297C14.6457 19.3421 14.5829 19.2683 14.5039 19.2178C14.4143 19.1608 14.3107 19.132 14.2057 19.1348C14.1013 19.1331 13.9983 19.1606 13.9076 19.2146ZM14.4615 19.3378C14.5308 19.3797 14.5873 19.4411 14.6245 19.5149V19.5133C14.6638 19.5965 14.6843 19.6879 14.6843 19.7805C14.6843 19.8732 14.6638 19.9646 14.6245 20.0478C14.5872 20.1215 14.5307 20.1829 14.4615 20.2249C14.3928 20.267 14.3144 20.2891 14.2346 20.2887C14.1539 20.2901 14.0743 20.2691 14.004 20.2277C13.9351 20.186 13.8793 20.1244 13.8434 20.0503C13.8028 19.9665 13.7827 19.8736 13.7848 19.7797C13.7824 19.6859 13.8025 19.5929 13.8434 19.5091C13.8797 19.4363 13.9355 19.3759 14.004 19.3352C14.0745 19.2947 14.154 19.2742 14.2346 19.2756C14.3142 19.2747 14.3926 19.2962 14.4615 19.3378ZM15.2235 18.7065V20.4108H15.0681V18.7065H15.2235ZM15.5054 18.8428C15.5112 18.8575 15.5198 18.8708 15.5307 18.8818C15.5411 18.8927 15.5535 18.9014 15.5672 18.9073C15.5809 18.9132 15.5955 18.9162 15.6104 18.9162C15.6252 18.9162 15.6398 18.9132 15.6535 18.9073C15.6672 18.9014 15.6796 18.8927 15.69 18.8818C15.7008 18.8707 15.7094 18.8574 15.7151 18.8428C15.7208 18.8281 15.7235 18.8124 15.7232 18.7966C15.7236 18.7809 15.7209 18.7654 15.7152 18.7508C15.7095 18.7363 15.7009 18.7232 15.69 18.7124C15.6686 18.6911 15.64 18.6792 15.6104 18.6792C15.5807 18.6792 15.5522 18.6911 15.5307 18.7124C15.5197 18.7232 15.5111 18.7363 15.5053 18.7508C15.4995 18.7653 15.4968 18.7809 15.4972 18.7966C15.4969 18.8124 15.4997 18.8282 15.5054 18.8428ZM15.6879 20.4109V19.1534H15.5328V20.4109H15.6879ZM16.243 19.2892V20.0701C16.243 20.1467 16.2568 20.1996 16.2851 20.2296C16.3133 20.2596 16.3624 20.2737 16.4343 20.2737H16.5761V20.4118H16.41C16.3007 20.4118 16.2195 20.3853 16.1662 20.3324C16.113 20.2794 16.0864 20.1923 16.0864 20.071V19.2892H15.9182V19.1533H16.0864V18.8377H16.2439V19.153H16.5761V19.2889L16.243 19.2892ZM16.8134 18.8428C16.8191 18.8574 16.8276 18.8707 16.8384 18.8818C16.8489 18.8928 16.8613 18.9014 16.875 18.9073C16.8887 18.9132 16.9034 18.9163 16.9183 18.9163C16.9331 18.9163 16.9478 18.9132 16.9615 18.9073C16.9752 18.9014 16.9876 18.8928 16.9981 18.8818C17.0089 18.8707 17.0174 18.8574 17.0231 18.8428C17.0288 18.8281 17.0316 18.8124 17.0312 18.7966C17.0317 18.781 17.0289 18.7654 17.0232 18.7509C17.0175 18.7364 17.0089 18.7233 16.9981 18.7124C16.9766 18.6911 16.948 18.6792 16.9183 18.6792C16.8885 18.6792 16.8599 18.6911 16.8384 18.7124C16.8276 18.7233 16.819 18.7364 16.8133 18.7509C16.8076 18.7654 16.8048 18.781 16.8053 18.7966C16.8049 18.8124 16.8077 18.8281 16.8134 18.8428ZM16.9959 20.4109V19.1534H16.8406V20.4109H16.9959ZM17.2785 19.4401C17.3257 19.3458 17.3979 19.2674 17.4867 19.2145C17.5793 19.1603 17.6841 19.1327 17.7904 19.1348C17.9396 19.1348 18.0624 19.1732 18.1588 19.25C18.2558 19.3272 18.3223 19.4387 18.3458 19.5633H18.1797C18.162 19.4775 18.1143 19.4016 18.0458 19.3502C17.9705 19.2968 17.8808 19.2699 17.7898 19.2733C17.713 19.272 17.6373 19.2919 17.5702 19.3307C17.5038 19.3709 17.4504 19.4306 17.4167 19.5024C17.3766 19.5895 17.3573 19.6854 17.3602 19.7819C17.3573 19.8789 17.3767 19.9753 17.4167 20.063C17.4502 20.1352 17.5037 20.1953 17.5702 20.2356C17.6372 20.2747 17.7129 20.2947 17.7898 20.2934C17.8808 20.2967 17.9706 20.2696 18.0458 20.2162C18.1147 20.1643 18.1625 20.0874 18.1797 20.0008H18.3458C18.3211 20.1245 18.2542 20.2349 18.1576 20.3116C18.0511 20.3931 17.9212 20.4346 17.7891 20.4293C17.6829 20.4312 17.5781 20.4037 17.4855 20.3496C17.3967 20.2967 17.3245 20.2183 17.2773 20.124C17.2276 20.0174 17.2018 19.9005 17.2018 19.782C17.2018 19.6636 17.2276 19.5467 17.2773 19.4401H17.2785ZM18.8053 19.2146C18.7171 19.2676 18.6456 19.346 18.5992 19.4402C18.548 19.5453 18.5225 19.6619 18.5249 19.7797C18.5226 19.8979 18.5481 20.0149 18.5992 20.1205C18.6456 20.2154 18.7171 20.2946 18.8053 20.3487C18.8951 20.4029 18.9974 20.4308 19.1012 20.4294C19.2064 20.4323 19.3101 20.403 19.3994 20.3452C19.4787 20.2939 19.5422 20.2199 19.5821 20.132V20.4109H19.7371V19.1534H19.5821V19.4297C19.5435 19.3419 19.4807 19.2682 19.4015 19.2178C19.3119 19.1608 19.2084 19.132 19.1034 19.1348C18.9989 19.1331 18.8959 19.1607 18.8053 19.2146ZM19.3595 19.3378C19.4286 19.3798 19.485 19.4412 19.5222 19.5149V19.5133C19.5615 19.5965 19.5819 19.6879 19.5819 19.7805C19.5819 19.8732 19.5615 19.9646 19.5222 20.0478C19.4849 20.1214 19.4285 20.1827 19.3595 20.2249C19.2906 20.267 19.2121 20.289 19.1323 20.2887C19.0515 20.2901 18.9719 20.2691 18.9017 20.2277C18.8328 20.186 18.777 20.1243 18.7411 20.0503C18.7006 19.9665 18.6804 19.8736 18.6825 19.7797C18.6802 19.6859 18.7003 19.5929 18.7411 19.5091C18.7775 19.4364 18.8332 19.376 18.9017 19.3352C18.9722 19.2947 19.0517 19.2742 19.1323 19.2756C19.212 19.2748 19.2905 19.2963 19.3595 19.3378Z" fill="black"/>
  <path d="M23 18.25C26.1756 18.25 28.75 20.8244 28.75 24C28.75 27.1756 26.1756 29.75 23 29.75C19.8244 29.75 17.25 27.1756 17.25 24C17.25 20.8244 19.8244 18.25 23 18.25Z" fill="black" stroke="white" stroke-width="0.5"/>
  <path d="M22.6933 21.6229L21.8021 22.5907L22.6933 23.5583C22.8442 23.7222 23.089 23.7222 23.24 23.5583L24.1312 22.5907L23.24 21.6229C23.089 21.459 22.8442 21.459 22.6933 21.6229Z" fill="#12C264"/>
  <path d="M23.4394 23.7744L24.9952 22.0853L25.8868 23.0529C26.0377 23.2167 26.0377 23.4823 25.8868 23.6462L24.3308 25.3356L23.4394 24.368C23.2885 24.2039 23.2885 23.9383 23.4394 23.7744Z" fill="#12C264"/>
  <path d="M21.6028 22.8068L20.1132 24.4241C19.9623 24.588 19.9623 24.8536 20.1132 25.0175L21.0048 25.9853L22.494 24.368C22.6449 24.2041 22.6449 23.9385 22.494 23.7746L21.6028 22.8068Z" fill="#12C264"/>
  <path d="M22.6933 24.5846L21.8021 25.5521L22.6933 26.52C22.8442 26.6838 23.089 26.6838 23.24 26.52L24.1312 25.5521L23.24 24.5846C23.089 24.4207 22.8442 24.4207 22.6933 24.5846Z" fill="#12C264"/>
</svg>
