<svg xmlns="http://www.w3.org/2000/svg" width="347" height="188" fill="none">
  <g clip-path="url(#a)">
    <path fill="url(#b)"
      d="M0 12C0 5.373 5.373 0 12 0h323c6.627 0 12 5.373 12 12v164c0 6.627-5.373 12-12 12H12c-6.627 0-12-5.373-12-12V12Z" />
    <g fill="#D74C1B" opacity=".8" style="mix-blend-mode:overlay">
      <path
        d="M-1.06-3.11c-.11.037-.11.206 0 .243.702.238 2.196.803 2.921 1.528.725.726 1.291 2.22 1.529 2.921.037.11.206.11.243 0 .238-.701.803-2.195 1.528-2.92.726-.726 2.22-1.291 2.921-1.529.11-.037.11-.206 0-.243-.701-.238-2.196-.804-2.92-1.529-.726-.725-1.291-2.22-1.529-2.92-.037-.11-.206-.11-.243 0-.238.7-.804 2.195-1.529 2.92-.725.725-2.22 1.291-2.92 1.529ZM-1.06 32.39c-.11.037-.11.206 0 .243.702.238 2.196.803 2.921 1.528.725.725 1.291 2.22 1.529 2.921.037.11.206.11.243 0 .238-.701.803-2.196 1.528-2.92.726-.726 2.22-1.291 2.921-1.529.11-.037.11-.206 0-.243-.701-.238-2.196-.804-2.92-1.529-.726-.725-1.291-2.22-1.529-2.92-.037-.11-.206-.11-.243 0-.238.7-.804 2.195-1.529 2.92-.725.725-2.22 1.291-2.92 1.529ZM-1.06 67.89c-.11.037-.11.206 0 .243.702.238 2.196.803 2.921 1.528.725.725 1.291 2.22 1.529 2.921.037.11.206.11.243 0 .238-.701.803-2.195 1.528-2.92.726-.726 2.22-1.291 2.921-1.529.11-.037.11-.206 0-.243-.701-.238-2.196-.804-2.92-1.529-.726-.725-1.291-2.22-1.529-2.92-.037-.11-.206-.11-.243 0-.238.7-.804 2.195-1.529 2.92-.725.725-2.22 1.291-2.92 1.529ZM-1.06 103.39c-.11.037-.11.206 0 .243.702.238 2.196.803 2.921 1.528.725.726 1.291 2.22 1.529 2.921.037.111.206.111.243 0 .238-.701.803-2.195 1.528-2.921.726-.725 2.22-1.29 2.921-1.528.11-.037.11-.206 0-.243-.701-.238-2.196-.804-2.92-1.529-.726-.725-1.291-2.22-1.529-2.92-.037-.11-.206-.11-.243 0-.238.7-.804 2.195-1.529 2.92-.725.725-2.22 1.291-2.92 1.529ZM-1.06 138.89c-.11.037-.11.206 0 .243.702.238 2.196.803 2.921 1.528.725.726 1.291 2.22 1.529 2.921.037.111.206.111.243 0 .238-.701.803-2.195 1.528-2.921.726-.725 2.22-1.29 2.921-1.528.11-.037.11-.206 0-.243-.701-.238-2.196-.804-2.92-1.529-.726-.725-1.291-2.219-1.529-2.921-.037-.11-.206-.11-.243 0-.238.702-.804 2.196-1.529 2.921-.725.725-2.22 1.291-2.92 1.529ZM-1.06 174.39c-.11.037-.11.206 0 .243.702.238 2.196.803 2.921 1.528.725.726 1.291 2.22 1.529 2.921.037.111.206.111.243 0 .238-.701.803-2.195 1.528-2.921.726-.725 2.22-1.29 2.921-1.528.11-.037.11-.206 0-.243-.701-.238-2.196-.804-2.92-1.529-.726-.725-1.291-2.219-1.529-2.921-.037-.11-.206-.11-.243 0-.238.702-.804 2.196-1.529 2.921-.725.725-2.22 1.291-2.92 1.529ZM38.94-3.11c-.11.037-.11.206 0 .243.702.238 2.196.803 2.921 1.528.725.726 1.291 2.22 1.529 2.921.037.11.206.11.243 0 .237-.701.803-2.195 1.528-2.92.725-.726 2.22-1.291 2.921-1.529.11-.037.11-.206 0-.243-.701-.238-2.196-.804-2.92-1.529-.726-.725-1.291-2.22-1.529-2.92-.037-.11-.206-.11-.243 0-.238.7-.804 2.195-1.529 2.92-.725.725-2.22 1.291-2.92 1.529ZM38.94 32.39c-.11.037-.11.206 0 .243.702.238 2.196.803 2.921 1.528.725.725 1.291 2.22 1.529 2.921.037.11.206.11.243 0 .237-.701.803-2.196 1.528-2.92.725-.726 2.22-1.291 2.921-1.529.11-.037.11-.206 0-.243-.701-.238-2.196-.804-2.92-1.529-.726-.725-1.291-2.22-1.529-2.92-.037-.11-.206-.11-.243 0-.238.7-.804 2.195-1.529 2.92-.725.725-2.22 1.291-2.92 1.529ZM38.94 67.89c-.11.037-.11.206 0 .243.702.238 2.196.803 2.921 1.528.725.725 1.291 2.22 1.529 2.921.037.11.206.11.243 0 .237-.701.803-2.195 1.528-2.92.725-.726 2.22-1.291 2.921-1.529.11-.037.11-.206 0-.243-.701-.238-2.196-.804-2.92-1.529-.726-.725-1.291-2.22-1.529-2.92-.037-.11-.206-.11-.243 0-.238.7-.804 2.195-1.529 2.92-.725.725-2.22 1.291-2.92 1.529ZM38.94 103.39c-.11.037-.11.206 0 .243.702.238 2.196.803 2.921 1.528.725.726 1.291 2.22 1.529 2.921.037.111.206.111.243 0 .237-.701.803-2.195 1.528-2.921.725-.725 2.22-1.29 2.921-1.528.11-.037.11-.206 0-.243-.701-.238-2.196-.804-2.92-1.529-.726-.725-1.291-2.22-1.529-2.92-.037-.11-.206-.11-.243 0-.238.7-.804 2.195-1.529 2.92-.725.725-2.22 1.291-2.92 1.529ZM38.94 138.89c-.11.037-.11.206 0 .243.702.238 2.196.803 2.921 1.528.725.726 1.291 2.22 1.529 2.921.037.111.206.111.243 0 .237-.701.803-2.195 1.528-2.921.725-.725 2.22-1.29 2.921-1.528.11-.037.11-.206 0-.243-.701-.238-2.196-.804-2.92-1.529-.726-.725-1.291-2.219-1.529-2.921-.037-.11-.206-.11-.243 0-.238.702-.804 2.196-1.529 2.921-.725.725-2.22 1.291-2.92 1.529ZM38.94 174.39c-.11.037-.11.206 0 .243.702.238 2.196.803 2.921 1.528.725.726 1.291 2.22 1.529 2.921.037.111.206.111.243 0 .237-.701.803-2.195 1.528-2.921.725-.725 2.22-1.29 2.921-1.528.11-.037.11-.206 0-.243-.701-.238-2.196-.804-2.92-1.529-.726-.725-1.291-2.219-1.529-2.921-.037-.11-.206-.11-.243 0-.238.702-.804 2.196-1.529 2.921-.725.725-2.22 1.291-2.92 1.529ZM78.94-3.11c-.11.037-.11.206 0 .243.702.238 2.196.803 2.921 1.528.725.726 1.291 2.22 1.529 2.921.037.11.206.11.243 0 .238-.701.803-2.195 1.528-2.92.725-.726 2.22-1.291 2.921-1.529.11-.037.11-.206 0-.243-.701-.238-2.195-.804-2.92-1.529-.726-.725-1.291-2.22-1.529-2.92-.037-.11-.206-.11-.243 0-.238.7-.804 2.195-1.529 2.92-.725.725-2.22 1.291-2.92 1.529ZM78.94 32.39c-.11.037-.11.206 0 .243.702.238 2.196.803 2.921 1.528.725.725 1.291 2.22 1.529 2.921.037.11.206.11.243 0 .238-.701.803-2.196 1.528-2.92.725-.726 2.22-1.291 2.921-1.529.11-.037.11-.206 0-.243-.701-.238-2.195-.804-2.92-1.529-.726-.725-1.291-2.22-1.529-2.92-.037-.11-.206-.11-.243 0-.238.7-.804 2.195-1.529 2.92-.725.725-2.22 1.291-2.92 1.529ZM78.94 67.89c-.11.037-.11.206 0 .243.702.238 2.196.803 2.921 1.528.725.725 1.291 2.22 1.529 2.921.037.11.206.11.243 0 .238-.701.803-2.195 1.528-2.92.725-.726 2.22-1.291 2.921-1.529.11-.037.11-.206 0-.243-.701-.238-2.195-.804-2.92-1.529-.726-.725-1.291-2.22-1.529-2.92-.037-.11-.206-.11-.243 0-.238.7-.804 2.195-1.529 2.92-.725.725-2.22 1.291-2.92 1.529ZM78.94 103.39c-.11.037-.11.206 0 .243.702.238 2.196.803 2.921 1.528.725.726 1.291 2.22 1.529 2.921.037.111.206.111.243 0 .238-.701.803-2.195 1.528-2.921.725-.725 2.22-1.29 2.921-1.528.11-.037.11-.206 0-.243-.701-.238-2.195-.804-2.92-1.529-.726-.725-1.291-2.22-1.529-2.92-.037-.11-.206-.11-.243 0-.238.7-.804 2.195-1.529 2.92-.725.725-2.22 1.291-2.92 1.529ZM78.94 138.89c-.11.037-.11.206 0 .243.702.238 2.196.803 2.921 1.528.725.726 1.291 2.22 1.529 2.921.037.111.206.111.243 0 .238-.701.803-2.195 1.528-2.921.725-.725 2.22-1.29 2.921-1.528.11-.037.11-.206 0-.243-.701-.238-2.195-.804-2.92-1.529-.726-.725-1.291-2.219-1.529-2.921-.037-.11-.206-.11-.243 0-.238.702-.804 2.196-1.529 2.921-.725.725-2.22 1.291-2.92 1.529ZM78.94 174.39c-.11.037-.11.206 0 .243.702.238 2.196.803 2.921 1.528.725.726 1.291 2.22 1.529 2.921.037.111.206.111.243 0 .238-.701.803-2.195 1.528-2.921.725-.725 2.22-1.29 2.921-1.528.11-.037.11-.206 0-.243-.701-.238-2.195-.804-2.92-1.529-.726-.725-1.291-2.219-1.529-2.921-.037-.11-.206-.11-.243 0-.238.702-.804 2.196-1.529 2.921-.725.725-2.22 1.291-2.92 1.529ZM118.94-3.11c-.11.037-.11.206 0 .243.702.238 2.196.803 2.921 1.528.725.726 1.291 2.22 1.529 2.921.037.11.206.11.243 0 .238-.701.803-2.195 1.528-2.92.725-.726 2.22-1.291 2.921-1.529.111-.037.111-.206 0-.243-.701-.238-2.196-.804-2.921-1.529-.725-.725-1.29-2.22-1.528-2.92-.037-.11-.206-.11-.243 0-.238.7-.804 2.195-1.529 2.92-.725.725-2.219 1.291-2.921 1.529ZM118.94 32.39c-.11.037-.11.206 0 .243.702.238 2.196.803 2.921 1.528.725.725 1.291 2.22 1.529 2.921.037.11.206.11.243 0 .238-.701.803-2.196 1.528-2.92.725-.726 2.22-1.291 2.921-1.529.111-.037.111-.206 0-.243-.701-.238-2.196-.804-2.921-1.529-.725-.725-1.29-2.22-1.528-2.92-.037-.11-.206-.11-.243 0-.238.7-.804 2.195-1.529 2.92-.725.725-2.219 1.291-2.921 1.529ZM118.94 67.89c-.11.037-.11.206 0 .243.702.238 2.196.803 2.921 1.528.725.725 1.291 2.22 1.529 2.921.037.11.206.11.243 0 .238-.701.803-2.195 1.528-2.92.725-.726 2.22-1.291 2.921-1.529.111-.037.111-.206 0-.243-.701-.238-2.196-.804-2.921-1.529-.725-.725-1.29-2.22-1.528-2.92-.037-.11-.206-.11-.243 0-.238.7-.804 2.195-1.529 2.92-.725.725-2.219 1.291-2.921 1.529ZM118.94 103.39c-.11.037-.11.206 0 .243.702.238 2.196.803 2.921 1.528.725.726 1.291 2.22 1.529 2.921.037.111.206.111.243 0 .238-.701.803-2.195 1.528-2.921.725-.725 2.22-1.29 2.921-1.528.111-.037.111-.206 0-.243-.701-.238-2.196-.804-2.921-1.529-.725-.725-1.29-2.22-1.528-2.92-.037-.11-.206-.11-.243 0-.238.7-.804 2.195-1.529 2.92-.725.725-2.219 1.291-2.921 1.529ZM118.94 138.89c-.11.037-.11.206 0 .243.702.238 2.196.803 2.921 1.528.725.726 1.291 2.22 1.529 2.921.037.111.206.111.243 0 .238-.701.803-2.195 1.528-2.921.725-.725 2.22-1.29 2.921-1.528.111-.037.111-.206 0-.243-.701-.238-2.196-.804-2.921-1.529-.725-.725-1.29-2.219-1.528-2.921-.037-.11-.206-.11-.243 0-.238.702-.804 2.196-1.529 2.921-.725.725-2.219 1.291-2.921 1.529ZM118.94 174.39c-.11.037-.11.206 0 .243.702.238 2.196.803 2.921 1.528.725.726 1.291 2.22 1.529 2.921.037.111.206.111.243 0 .238-.701.803-2.195 1.528-2.921.725-.725 2.22-1.29 2.921-1.528.111-.037.111-.206 0-.243-.701-.238-2.196-.804-2.921-1.529-.725-.725-1.29-2.219-1.528-2.921-.037-.11-.206-.11-.243 0-.238.702-.804 2.196-1.529 2.921-.725.725-2.219 1.291-2.921 1.529ZM158.94-3.11c-.11.037-.11.206 0 .243.702.238 2.196.803 2.921 1.528.725.726 1.291 2.22 1.529 2.921.037.11.206.11.243 0 .238-.701.803-2.195 1.528-2.92.725-.726 2.22-1.291 2.921-1.529.111-.037.111-.206 0-.243-.701-.238-2.196-.804-2.921-1.529-.725-.725-1.29-2.22-1.528-2.92-.037-.11-.206-.11-.243 0-.238.7-.804 2.195-1.529 2.92-.725.725-2.219 1.291-2.921 1.529ZM158.94 32.39c-.11.037-.11.206 0 .243.702.238 2.196.803 2.921 1.528.725.725 1.291 2.22 1.529 2.921.037.11.206.11.243 0 .238-.701.803-2.196 1.528-2.92.725-.726 2.22-1.291 2.921-1.529.111-.037.111-.206 0-.243-.701-.238-2.196-.804-2.921-1.529-.725-.725-1.29-2.22-1.528-2.92-.037-.11-.206-.11-.243 0-.238.7-.804 2.195-1.529 2.92-.725.725-2.219 1.291-2.921 1.529ZM158.94 67.89c-.11.037-.11.206 0 .243.702.238 2.196.803 2.921 1.528.725.725 1.291 2.22 1.529 2.921.037.11.206.11.243 0 .238-.701.803-2.195 1.528-2.92.725-.726 2.22-1.291 2.921-1.529.111-.037.111-.206 0-.243-.701-.238-2.196-.804-2.921-1.529-.725-.725-1.29-2.22-1.528-2.92-.037-.11-.206-.11-.243 0-.238.7-.804 2.195-1.529 2.92-.725.725-2.219 1.291-2.921 1.529ZM158.94 103.39c-.11.037-.11.206 0 .243.702.238 2.196.803 2.921 1.528.725.726 1.291 2.22 1.529 2.921.037.111.206.111.243 0 .238-.701.803-2.195 1.528-2.921.725-.725 2.22-1.29 2.921-1.528.111-.037.111-.206 0-.243-.701-.238-2.196-.804-2.921-1.529-.725-.725-1.29-2.22-1.528-2.92-.037-.11-.206-.11-.243 0-.238.7-.804 2.195-1.529 2.92-.725.725-2.219 1.291-2.921 1.529ZM158.94 138.89c-.11.037-.11.206 0 .243.702.238 2.196.803 2.921 1.528.725.726 1.291 2.22 1.529 2.921.037.111.206.111.243 0 .238-.701.803-2.195 1.528-2.921.725-.725 2.22-1.29 2.921-1.528.111-.037.111-.206 0-.243-.701-.238-2.196-.804-2.921-1.529-.725-.725-1.29-2.219-1.528-2.921-.037-.11-.206-.11-.243 0-.238.702-.804 2.196-1.529 2.921-.725.725-2.219 1.291-2.921 1.529ZM158.94 174.39c-.11.037-.11.206 0 .243.702.238 2.196.803 2.921 1.528.725.726 1.291 2.22 1.529 2.921.037.111.206.111.243 0 .238-.701.803-2.195 1.528-2.921.725-.725 2.22-1.29 2.921-1.528.111-.037.111-.206 0-.243-.701-.238-2.196-.804-2.921-1.529-.725-.725-1.29-2.219-1.528-2.921-.037-.11-.206-.11-.243 0-.238.702-.804 2.196-1.529 2.921-.725.725-2.219 1.291-2.921 1.529ZM198.94-3.11c-.11.037-.11.206 0 .243.702.238 2.196.803 2.921 1.528.725.726 1.291 2.22 1.529 2.921.037.11.206.11.243 0 .238-.701.803-2.195 1.528-2.92.725-.726 2.22-1.291 2.921-1.529.111-.037.111-.206 0-.243-.701-.238-2.196-.804-2.921-1.529-.725-.725-1.29-2.22-1.528-2.92-.037-.11-.206-.11-.243 0-.238.7-.804 2.195-1.529 2.92-.725.725-2.219 1.291-2.921 1.529ZM198.94 32.39c-.11.037-.11.206 0 .243.702.238 2.196.803 2.921 1.528.725.725 1.291 2.22 1.529 2.921.037.11.206.11.243 0 .238-.701.803-2.196 1.528-2.92.725-.726 2.22-1.291 2.921-1.529.111-.037.111-.206 0-.243-.701-.238-2.196-.804-2.921-1.529-.725-.725-1.29-2.22-1.528-2.92-.037-.11-.206-.11-.243 0-.238.7-.804 2.195-1.529 2.92-.725.725-2.219 1.291-2.921 1.529ZM198.94 67.89c-.11.037-.11.206 0 .243.702.238 2.196.803 2.921 1.528.725.725 1.291 2.22 1.529 2.921.037.11.206.11.243 0 .238-.701.803-2.195 1.528-2.92.725-.726 2.22-1.291 2.921-1.529.111-.037.111-.206 0-.243-.701-.238-2.196-.804-2.921-1.529-.725-.725-1.29-2.22-1.528-2.92-.037-.11-.206-.11-.243 0-.238.7-.804 2.195-1.529 2.92-.725.725-2.219 1.291-2.921 1.529ZM198.94 103.39c-.11.037-.11.206 0 .243.702.238 2.196.803 2.921 1.528.725.726 1.291 2.22 1.529 2.921.037.111.206.111.243 0 .238-.701.803-2.195 1.528-2.921.725-.725 2.22-1.29 2.921-1.528.111-.037.111-.206 0-.243-.701-.238-2.196-.804-2.921-1.529-.725-.725-1.29-2.22-1.528-2.92-.037-.11-.206-.11-.243 0-.238.7-.804 2.195-1.529 2.92-.725.725-2.219 1.291-2.921 1.529ZM198.94 138.89c-.11.037-.11.206 0 .243.702.238 2.196.803 2.921 1.528.725.726 1.291 2.22 1.529 2.921.037.111.206.111.243 0 .238-.701.803-2.195 1.528-2.921.725-.725 2.22-1.29 2.921-1.528.111-.037.111-.206 0-.243-.701-.238-2.196-.804-2.921-1.529-.725-.725-1.29-2.219-1.528-2.921-.037-.11-.206-.11-.243 0-.238.702-.804 2.196-1.529 2.921-.725.725-2.219 1.291-2.921 1.529ZM198.94 174.39c-.11.037-.11.206 0 .243.702.238 2.196.803 2.921 1.528.725.726 1.291 2.22 1.529 2.921.037.111.206.111.243 0 .238-.701.803-2.195 1.528-2.921.725-.725 2.22-1.29 2.921-1.528.111-.037.111-.206 0-.243-.701-.238-2.196-.804-2.921-1.529-.725-.725-1.29-2.219-1.528-2.921-.037-.11-.206-.11-.243 0-.238.702-.804 2.196-1.529 2.921-.725.725-2.219 1.291-2.921 1.529ZM238.94-3.11c-.11.037-.11.206 0 .243.702.238 2.196.803 2.921 1.528.725.726 1.291 2.22 1.529 2.921.037.11.206.11.243 0 .238-.701.803-2.195 1.528-2.92.725-.726 2.22-1.291 2.921-1.529.111-.037.111-.206 0-.243-.701-.238-2.196-.804-2.921-1.529-.725-.725-1.29-2.22-1.528-2.92-.037-.11-.206-.11-.243 0-.238.7-.804 2.195-1.529 2.92-.725.725-2.219 1.291-2.921 1.529ZM238.94 32.39c-.11.037-.11.206 0 .243.702.238 2.196.803 2.921 1.528.725.725 1.291 2.22 1.529 2.921.037.11.206.11.243 0 .238-.701.803-2.196 1.528-2.92.725-.726 2.22-1.291 2.921-1.529.111-.037.111-.206 0-.243-.701-.238-2.196-.804-2.921-1.529-.725-.725-1.29-2.22-1.528-2.92-.037-.11-.206-.11-.243 0-.238.7-.804 2.195-1.529 2.92-.725.725-2.219 1.291-2.921 1.529ZM238.94 67.89c-.11.037-.11.206 0 .243.702.238 2.196.803 2.921 1.528.725.725 1.291 2.22 1.529 2.921.037.11.206.11.243 0 .238-.701.803-2.195 1.528-2.92.725-.726 2.22-1.291 2.921-1.529.111-.037.111-.206 0-.243-.701-.238-2.196-.804-2.921-1.529-.725-.725-1.29-2.22-1.528-2.92-.037-.11-.206-.11-.243 0-.238.7-.804 2.195-1.529 2.92-.725.725-2.219 1.291-2.921 1.529ZM238.94 103.39c-.11.037-.11.206 0 .243.702.238 2.196.803 2.921 1.528.725.726 1.291 2.22 1.529 2.921.037.111.206.111.243 0 .238-.701.803-2.195 1.528-2.921.725-.725 2.22-1.29 2.921-1.528.111-.037.111-.206 0-.243-.701-.238-2.196-.804-2.921-1.529-.725-.725-1.29-2.22-1.528-2.92-.037-.11-.206-.11-.243 0-.238.7-.804 2.195-1.529 2.92-.725.725-2.219 1.291-2.921 1.529ZM238.94 138.89c-.11.037-.11.206 0 .243.702.238 2.196.803 2.921 1.528.725.726 1.291 2.22 1.529 2.921.037.111.206.111.243 0 .238-.701.803-2.195 1.528-2.921.725-.725 2.22-1.29 2.921-1.528.111-.037.111-.206 0-.243-.701-.238-2.196-.804-2.921-1.529-.725-.725-1.29-2.219-1.528-2.921-.037-.11-.206-.11-.243 0-.238.702-.804 2.196-1.529 2.921-.725.725-2.219 1.291-2.921 1.529ZM238.94 174.39c-.11.037-.11.206 0 .243.702.238 2.196.803 2.921 1.528.725.726 1.291 2.22 1.529 2.921.037.111.206.111.243 0 .238-.701.803-2.195 1.528-2.921.725-.725 2.22-1.29 2.921-1.528.111-.037.111-.206 0-.243-.701-.238-2.196-.804-2.921-1.529-.725-.725-1.29-2.219-1.528-2.921-.037-.11-.206-.11-.243 0-.238.702-.804 2.196-1.529 2.921-.725.725-2.219 1.291-2.921 1.529ZM278.94-3.11c-.11.037-.11.206 0 .243.702.238 2.196.803 2.921 1.528.725.726 1.291 2.22 1.529 2.921.037.11.206.11.243 0 .238-.701.803-2.195 1.528-2.92.725-.726 2.22-1.291 2.921-1.529.111-.037.111-.206 0-.243-.701-.238-2.196-.804-2.921-1.529-.725-.725-1.29-2.22-1.528-2.92-.037-.11-.206-.11-.243 0-.238.7-.804 2.195-1.529 2.92-.725.725-2.219 1.291-2.921 1.529ZM278.94 32.39c-.11.037-.11.206 0 .243.702.238 2.196.803 2.921 1.528.725.725 1.291 2.22 1.529 2.921.037.11.206.11.243 0 .238-.701.803-2.196 1.528-2.92.725-.726 2.22-1.291 2.921-1.529.111-.037.111-.206 0-.243-.701-.238-2.196-.804-2.921-1.529-.725-.725-1.29-2.22-1.528-2.92-.037-.11-.206-.11-.243 0-.238.7-.804 2.195-1.529 2.92-.725.725-2.219 1.291-2.921 1.529ZM278.94 67.89c-.11.037-.11.206 0 .243.702.238 2.196.803 2.921 1.528.725.725 1.291 2.22 1.529 2.921.037.11.206.11.243 0 .238-.701.803-2.195 1.528-2.92.725-.726 2.22-1.291 2.921-1.529.111-.037.111-.206 0-.243-.701-.238-2.196-.804-2.921-1.529-.725-.725-1.29-2.22-1.528-2.92-.037-.11-.206-.11-.243 0-.238.7-.804 2.195-1.529 2.92-.725.725-2.219 1.291-2.921 1.529ZM278.94 103.39c-.11.037-.11.206 0 .243.702.238 2.196.803 2.921 1.528.725.726 1.291 2.22 1.529 2.921.037.111.206.111.243 0 .238-.701.803-2.195 1.528-2.921.725-.725 2.22-1.29 2.921-1.528.111-.037.111-.206 0-.243-.701-.238-2.196-.804-2.921-1.529-.725-.725-1.29-2.22-1.528-2.92-.037-.11-.206-.11-.243 0-.238.7-.804 2.195-1.529 2.92-.725.725-2.219 1.291-2.921 1.529ZM278.94 138.89c-.11.037-.11.206 0 .243.702.238 2.196.803 2.921 1.528.725.726 1.291 2.22 1.529 2.921.037.111.206.111.243 0 .238-.701.803-2.195 1.528-2.921.725-.725 2.22-1.29 2.921-1.528.111-.037.111-.206 0-.243-.701-.238-2.196-.804-2.921-1.529-.725-.725-1.29-2.219-1.528-2.921-.037-.11-.206-.11-.243 0-.238.702-.804 2.196-1.529 2.921-.725.725-2.219 1.291-2.921 1.529ZM278.94 174.39c-.11.037-.11.206 0 .243.702.238 2.196.803 2.921 1.528.725.726 1.291 2.22 1.529 2.921.037.111.206.111.243 0 .238-.701.803-2.195 1.528-2.921.725-.725 2.22-1.29 2.921-1.528.111-.037.111-.206 0-.243-.701-.238-2.196-.804-2.921-1.529-.725-.725-1.29-2.219-1.528-2.921-.037-.11-.206-.11-.243 0-.238.702-.804 2.196-1.529 2.921-.725.725-2.219 1.291-2.921 1.529ZM318.94-3.11c-.11.037-.11.206 0 .243.702.238 2.196.803 2.921 1.528.725.726 1.291 2.22 1.529 2.921.037.11.206.11.243 0 .238-.701.803-2.195 1.528-2.92.725-.726 2.22-1.291 2.921-1.529.111-.037.111-.206 0-.243-.701-.238-2.196-.804-2.921-1.529-.725-.725-1.29-2.22-1.528-2.92-.037-.11-.206-.11-.243 0-.238.7-.804 2.195-1.529 2.92-.725.725-2.219 1.291-2.921 1.529ZM318.94 32.39c-.11.037-.11.206 0 .243.702.238 2.196.803 2.921 1.528.725.725 1.291 2.22 1.529 2.921.037.11.206.11.243 0 .238-.701.803-2.196 1.528-2.92.725-.726 2.22-1.291 2.921-1.529.111-.037.111-.206 0-.243-.701-.238-2.196-.804-2.921-1.529-.725-.725-1.29-2.22-1.528-2.92-.037-.11-.206-.11-.243 0-.238.7-.804 2.195-1.529 2.92-.725.725-2.219 1.291-2.921 1.529ZM318.94 67.89c-.11.037-.11.206 0 .243.702.238 2.196.803 2.921 1.528.725.725 1.291 2.22 1.529 2.921.037.11.206.11.243 0 .238-.701.803-2.195 1.528-2.92.725-.726 2.22-1.291 2.921-1.529.111-.037.111-.206 0-.243-.701-.238-2.196-.804-2.921-1.529-.725-.725-1.29-2.22-1.528-2.92-.037-.11-.206-.11-.243 0-.238.7-.804 2.195-1.529 2.92-.725.725-2.219 1.291-2.921 1.529ZM318.94 103.39c-.11.037-.11.206 0 .243.702.238 2.196.803 2.921 1.528.725.726 1.291 2.22 1.529 2.921.037.111.206.111.243 0 .238-.701.803-2.195 1.528-2.921.725-.725 2.22-1.29 2.921-1.528.111-.037.111-.206 0-.243-.701-.238-2.196-.804-2.921-1.529-.725-.725-1.29-2.22-1.528-2.92-.037-.11-.206-.11-.243 0-.238.7-.804 2.195-1.529 2.92-.725.725-2.219 1.291-2.921 1.529ZM318.94 138.89c-.11.037-.11.206 0 .243.702.238 2.196.803 2.921 1.528.725.726 1.291 2.22 1.529 2.921.037.111.206.111.243 0 .238-.701.803-2.195 1.528-2.921.725-.725 2.22-1.29 2.921-1.528.111-.037.111-.206 0-.243-.701-.238-2.196-.804-2.921-1.529-.725-.725-1.29-2.219-1.528-2.921-.037-.11-.206-.11-.243 0-.238.702-.804 2.196-1.529 2.921-.725.725-2.219 1.291-2.921 1.529ZM318.94 174.39c-.11.037-.11.206 0 .243.702.238 2.196.803 2.921 1.528.725.726 1.291 2.22 1.529 2.921.037.111.206.111.243 0 .238-.701.803-2.195 1.528-2.921.725-.725 2.22-1.29 2.921-1.528.111-.037.111-.206 0-.243-.701-.238-2.196-.804-2.921-1.529-.725-.725-1.29-2.219-1.528-2.921-.037-.11-.206-.11-.243 0-.238.702-.804 2.196-1.529 2.921-.725.725-2.219 1.291-2.921 1.529ZM18.94 13.39c-.11.037-.11.206 0 .243.702.238 2.196.803 2.921 1.528.725.726 1.291 2.22 1.529 2.921.037.11.206.11.243 0 .238-.701.803-2.196 1.528-2.92.726-.726 2.22-1.291 2.921-1.529.11-.037.11-.206 0-.243-.701-.238-2.195-.804-2.92-1.529-.726-.725-1.291-2.22-1.529-2.92-.037-.11-.206-.11-.243 0-.238.7-.804 2.195-1.529 2.92-.725.725-2.22 1.291-2.92 1.529ZM18.94 48.89c-.11.037-.11.206 0 .243.702.238 2.196.803 2.921 1.528.725.725 1.291 2.22 1.529 2.921.037.11.206.11.243 0 .238-.701.803-2.196 1.528-2.92.726-.726 2.22-1.291 2.921-1.529.11-.037.11-.206 0-.243-.701-.238-2.195-.804-2.92-1.529-.726-.725-1.291-2.22-1.529-2.92-.037-.11-.206-.11-.243 0-.238.7-.804 2.195-1.529 2.92-.725.725-2.22 1.291-2.92 1.529ZM18.94 84.39c-.11.037-.11.206 0 .243.702.238 2.196.803 2.921 1.528.725.725 1.291 2.22 1.529 2.921.037.11.206.11.243 0 .238-.701.803-2.195 1.528-2.92.726-.726 2.22-1.291 2.921-1.529.11-.037.11-.206 0-.243-.701-.238-2.195-.804-2.92-1.529-.726-.725-1.291-2.22-1.529-2.92-.037-.11-.206-.11-.243 0-.238.7-.804 2.195-1.529 2.92-.725.725-2.22 1.291-2.92 1.529ZM18.94 119.89c-.11.037-.11.206 0 .243.702.238 2.196.803 2.921 1.528.725.726 1.291 2.22 1.529 2.921.037.111.206.111.243 0 .238-.701.803-2.195 1.528-2.921.726-.725 2.22-1.29 2.921-1.528.11-.037.11-.206 0-.243-.701-.238-2.195-.804-2.92-1.529-.726-.725-1.291-2.219-1.529-2.921-.037-.11-.206-.11-.243 0-.238.702-.804 2.196-1.529 2.921-.725.725-2.22 1.291-2.92 1.529ZM18.94 155.39c-.11.037-.11.206 0 .243.702.238 2.196.803 2.921 1.528.725.726 1.291 2.22 1.529 2.921.037.111.206.111.243 0 .238-.701.803-2.195 1.528-2.921.726-.725 2.22-1.29 2.921-1.528.11-.037.11-.206 0-.243-.701-.238-2.195-.804-2.92-1.529-.726-.725-1.291-2.219-1.529-2.921-.037-.11-.206-.11-.243 0-.238.702-.804 2.196-1.529 2.921-.725.725-2.22 1.291-2.92 1.529ZM18.94 190.89c-.11.037-.11.206 0 .243.702.238 2.196.803 2.921 1.528.725.726 1.291 2.22 1.529 2.921.037.111.206.111.243 0 .238-.701.803-2.195 1.528-2.921.726-.725 2.22-1.29 2.921-1.528.11-.037.11-.206 0-.243-.701-.238-2.195-.804-2.92-1.529-.726-.725-1.291-2.219-1.529-2.921-.037-.11-.206-.11-.243 0-.238.702-.804 2.196-1.529 2.921-.725.725-2.22 1.291-2.92 1.529ZM58.94 13.39c-.11.037-.11.206 0 .243.702.238 2.196.803 2.921 1.528.725.726 1.291 2.22 1.529 2.921.037.11.206.11.243 0 .237-.701.803-2.196 1.528-2.92.725-.726 2.22-1.291 2.921-1.529.11-.037.11-.206 0-.243-.701-.238-2.195-.804-2.92-1.529-.726-.725-1.292-2.22-1.529-2.92-.037-.11-.206-.11-.243 0-.238.7-.804 2.195-1.529 2.92-.725.725-2.22 1.291-2.92 1.529ZM58.94 48.89c-.11.037-.11.206 0 .243.702.238 2.196.803 2.921 1.528.725.725 1.291 2.22 1.529 2.921.037.11.206.11.243 0 .237-.701.803-2.196 1.528-2.92.725-.726 2.22-1.291 2.921-1.529.11-.037.11-.206 0-.243-.701-.238-2.195-.804-2.92-1.529-.726-.725-1.292-2.22-1.529-2.92-.037-.11-.206-.11-.243 0-.238.7-.804 2.195-1.529 2.92-.725.725-2.22 1.291-2.92 1.529ZM58.94 84.39c-.11.037-.11.206 0 .243.702.238 2.196.803 2.921 1.528.725.725 1.291 2.22 1.529 2.921.037.11.206.11.243 0 .237-.701.803-2.195 1.528-2.92.725-.726 2.22-1.291 2.921-1.529.11-.037.11-.206 0-.243-.701-.238-2.195-.804-2.92-1.529-.726-.725-1.292-2.22-1.529-2.92-.037-.11-.206-.11-.243 0-.238.7-.804 2.195-1.529 2.92-.725.725-2.22 1.291-2.92 1.529ZM58.94 119.89c-.11.037-.11.206 0 .243.702.238 2.196.803 2.921 1.528.725.726 1.291 2.22 1.529 2.921.037.111.206.111.243 0 .237-.701.803-2.195 1.528-2.921.725-.725 2.22-1.29 2.921-1.528.11-.037.11-.206 0-.243-.701-.238-2.195-.804-2.92-1.529-.726-.725-1.292-2.219-1.529-2.921-.037-.11-.206-.11-.243 0-.238.702-.804 2.196-1.529 2.921-.725.725-2.22 1.291-2.92 1.529ZM58.94 155.39c-.11.037-.11.206 0 .243.702.238 2.196.803 2.921 1.528.725.726 1.291 2.22 1.529 2.921.037.111.206.111.243 0 .237-.701.803-2.195 1.528-2.921.725-.725 2.22-1.29 2.921-1.528.11-.037.11-.206 0-.243-.701-.238-2.195-.804-2.92-1.529-.726-.725-1.292-2.219-1.529-2.921-.037-.11-.206-.11-.243 0-.238.702-.804 2.196-1.529 2.921-.725.725-2.22 1.291-2.92 1.529ZM58.94 190.89c-.11.037-.11.206 0 .243.702.238 2.196.803 2.921 1.528.725.726 1.291 2.22 1.529 2.921.037.111.206.111.243 0 .237-.701.803-2.195 1.528-2.921.725-.725 2.22-1.29 2.921-1.528.11-.037.11-.206 0-.243-.701-.238-2.195-.804-2.92-1.529-.726-.725-1.292-2.219-1.529-2.921-.037-.11-.206-.11-.243 0-.238.702-.804 2.196-1.529 2.921-.725.725-2.22 1.291-2.92 1.529ZM98.94 13.39c-.11.037-.11.206 0 .243.702.238 2.196.803 2.921 1.528.725.726 1.291 2.22 1.529 2.921.037.11.206.11.243 0 .238-.701.803-2.196 1.528-2.92.725-.726 2.22-1.291 2.921-1.529.111-.037.111-.206 0-.243-.701-.238-2.196-.804-2.921-1.529-.725-.725-1.29-2.22-1.528-2.92-.037-.11-.206-.11-.243 0-.238.7-.804 2.195-1.529 2.92-.725.725-2.22 1.291-2.92 1.529ZM98.94 48.89c-.11.037-.11.206 0 .243.702.238 2.196.803 2.921 1.528.725.725 1.291 2.22 1.529 2.921.037.11.206.11.243 0 .238-.701.803-2.196 1.528-2.92.725-.726 2.22-1.291 2.921-1.529.111-.037.111-.206 0-.243-.701-.238-2.196-.804-2.921-1.529-.725-.725-1.29-2.22-1.528-2.92-.037-.11-.206-.11-.243 0-.238.7-.804 2.195-1.529 2.92-.725.725-2.22 1.291-2.92 1.529ZM98.94 84.39c-.11.037-.11.206 0 .243.702.238 2.196.803 2.921 1.528.725.725 1.291 2.22 1.529 2.921.037.11.206.11.243 0 .238-.701.803-2.195 1.528-2.92.725-.726 2.22-1.291 2.921-1.529.111-.037.111-.206 0-.243-.701-.238-2.196-.804-2.921-1.529-.725-.725-1.29-2.22-1.528-2.92-.037-.11-.206-.11-.243 0-.238.7-.804 2.195-1.529 2.92-.725.725-2.22 1.291-2.92 1.529ZM98.94 119.89c-.11.037-.11.206 0 .243.702.238 2.196.803 2.921 1.528.725.726 1.291 2.22 1.529 2.921.037.111.206.111.243 0 .238-.701.803-2.195 1.528-2.921.725-.725 2.22-1.29 2.921-1.528.111-.037.111-.206 0-.243-.701-.238-2.196-.804-2.921-1.529-.725-.725-1.29-2.219-1.528-2.921-.037-.11-.206-.11-.243 0-.238.702-.804 2.196-1.529 2.921-.725.725-2.22 1.291-2.92 1.529ZM98.94 155.39c-.11.037-.11.206 0 .243.702.238 2.196.803 2.921 1.528.725.726 1.291 2.22 1.529 2.921.037.111.206.111.243 0 .238-.701.803-2.195 1.528-2.921.725-.725 2.22-1.29 2.921-1.528.111-.037.111-.206 0-.243-.701-.238-2.196-.804-2.921-1.529-.725-.725-1.29-2.219-1.528-2.921-.037-.11-.206-.11-.243 0-.238.702-.804 2.196-1.529 2.921-.725.725-2.22 1.291-2.92 1.529ZM98.94 190.89c-.11.037-.11.206 0 .243.702.238 2.196.803 2.921 1.528.725.726 1.291 2.22 1.529 2.921.037.111.206.111.243 0 .238-.701.803-2.195 1.528-2.921.725-.725 2.22-1.29 2.921-1.528.111-.037.111-.206 0-.243-.701-.238-2.196-.804-2.921-1.529-.725-.725-1.29-2.219-1.528-2.921-.037-.11-.206-.11-.243 0-.238.702-.804 2.196-1.529 2.921-.725.725-2.22 1.291-2.92 1.529ZM138.94 13.39c-.11.037-.11.206 0 .243.702.238 2.196.803 2.921 1.528.725.726 1.291 2.22 1.529 2.921.037.11.206.11.243 0 .238-.701.803-2.196 1.528-2.92.725-.726 2.22-1.291 2.921-1.529.111-.037.111-.206 0-.243-.701-.238-2.196-.804-2.921-1.529-.725-.725-1.29-2.22-1.528-2.92-.037-.11-.206-.11-.243 0-.238.7-.804 2.195-1.529 2.92-.725.725-2.219 1.291-2.921 1.529ZM138.94 48.89c-.11.037-.11.206 0 .243.702.238 2.196.803 2.921 1.528.725.725 1.291 2.22 1.529 2.921.037.11.206.11.243 0 .238-.701.803-2.196 1.528-2.92.725-.726 2.22-1.291 2.921-1.529.111-.037.111-.206 0-.243-.701-.238-2.196-.804-2.921-1.529-.725-.725-1.29-2.22-1.528-2.92-.037-.11-.206-.11-.243 0-.238.7-.804 2.195-1.529 2.92-.725.725-2.219 1.291-2.921 1.529ZM138.94 84.39c-.11.037-.11.206 0 .243.702.238 2.196.803 2.921 1.528.725.725 1.291 2.22 1.529 2.921.037.11.206.11.243 0 .238-.701.803-2.195 1.528-2.92.725-.726 2.22-1.291 2.921-1.529.111-.037.111-.206 0-.243-.701-.238-2.196-.804-2.921-1.529-.725-.725-1.29-2.22-1.528-2.92-.037-.11-.206-.11-.243 0-.238.7-.804 2.195-1.529 2.92-.725.725-2.219 1.291-2.921 1.529ZM138.94 119.89c-.11.037-.11.206 0 .243.702.238 2.196.803 2.921 1.528.725.726 1.291 2.22 1.529 2.921.037.111.206.111.243 0 .238-.701.803-2.195 1.528-2.921.725-.725 2.22-1.29 2.921-1.528.111-.037.111-.206 0-.243-.701-.238-2.196-.804-2.921-1.529-.725-.725-1.29-2.219-1.528-2.921-.037-.11-.206-.11-.243 0-.238.702-.804 2.196-1.529 2.921-.725.725-2.219 1.291-2.921 1.529ZM138.94 155.39c-.11.037-.11.206 0 .243.702.238 2.196.803 2.921 1.528.725.726 1.291 2.22 1.529 2.921.037.111.206.111.243 0 .238-.701.803-2.195 1.528-2.921.725-.725 2.22-1.29 2.921-1.528.111-.037.111-.206 0-.243-.701-.238-2.196-.804-2.921-1.529-.725-.725-1.29-2.219-1.528-2.921-.037-.11-.206-.11-.243 0-.238.702-.804 2.196-1.529 2.921-.725.725-2.219 1.291-2.921 1.529ZM138.94 190.89c-.11.037-.11.206 0 .243.702.238 2.196.803 2.921 1.528.725.726 1.291 2.22 1.529 2.921.037.111.206.111.243 0 .238-.701.803-2.195 1.528-2.921.725-.725 2.22-1.29 2.921-1.528.111-.037.111-.206 0-.243-.701-.238-2.196-.804-2.921-1.529-.725-.725-1.29-2.219-1.528-2.921-.037-.11-.206-.11-.243 0-.238.702-.804 2.196-1.529 2.921-.725.725-2.219 1.291-2.921 1.529ZM178.94 13.39c-.11.037-.11.206 0 .243.702.238 2.196.803 2.921 1.528.725.726 1.291 2.22 1.529 2.921.037.11.206.11.243 0 .238-.701.803-2.196 1.528-2.92.725-.726 2.22-1.291 2.921-1.529.111-.037.111-.206 0-.243-.701-.238-2.196-.804-2.921-1.529-.725-.725-1.29-2.22-1.528-2.92-.037-.11-.206-.11-.243 0-.238.7-.804 2.195-1.529 2.92-.725.725-2.219 1.291-2.921 1.529ZM178.94 48.89c-.11.037-.11.206 0 .243.702.238 2.196.803 2.921 1.528.725.725 1.291 2.22 1.529 2.921.037.11.206.11.243 0 .238-.701.803-2.196 1.528-2.92.725-.726 2.22-1.291 2.921-1.529.111-.037.111-.206 0-.243-.701-.238-2.196-.804-2.921-1.529-.725-.725-1.29-2.22-1.528-2.92-.037-.11-.206-.11-.243 0-.238.7-.804 2.195-1.529 2.92-.725.725-2.219 1.291-2.921 1.529ZM178.94 84.39c-.11.037-.11.206 0 .243.702.238 2.196.803 2.921 1.528.725.725 1.291 2.22 1.529 2.921.037.11.206.11.243 0 .238-.701.803-2.195 1.528-2.92.725-.726 2.22-1.291 2.921-1.529.111-.037.111-.206 0-.243-.701-.238-2.196-.804-2.921-1.529-.725-.725-1.29-2.22-1.528-2.92-.037-.11-.206-.11-.243 0-.238.7-.804 2.195-1.529 2.92-.725.725-2.219 1.291-2.921 1.529ZM178.94 119.89c-.11.037-.11.206 0 .243.702.238 2.196.803 2.921 1.528.725.726 1.291 2.22 1.529 2.921.037.111.206.111.243 0 .238-.701.803-2.195 1.528-2.921.725-.725 2.22-1.29 2.921-1.528.111-.037.111-.206 0-.243-.701-.238-2.196-.804-2.921-1.529-.725-.725-1.29-2.219-1.528-2.921-.037-.11-.206-.11-.243 0-.238.702-.804 2.196-1.529 2.921-.725.725-2.219 1.291-2.921 1.529ZM178.94 155.39c-.11.037-.11.206 0 .243.702.238 2.196.803 2.921 1.528.725.726 1.291 2.22 1.529 2.921.037.111.206.111.243 0 .238-.701.803-2.195 1.528-2.921.725-.725 2.22-1.29 2.921-1.528.111-.037.111-.206 0-.243-.701-.238-2.196-.804-2.921-1.529-.725-.725-1.29-2.219-1.528-2.921-.037-.11-.206-.11-.243 0-.238.702-.804 2.196-1.529 2.921-.725.725-2.219 1.291-2.921 1.529ZM178.94 190.89c-.11.037-.11.206 0 .243.702.238 2.196.803 2.921 1.528.725.726 1.291 2.22 1.529 2.921.037.111.206.111.243 0 .238-.701.803-2.195 1.528-2.921.725-.725 2.22-1.29 2.921-1.528.111-.037.111-.206 0-.243-.701-.238-2.196-.804-2.921-1.529-.725-.725-1.29-2.219-1.528-2.921-.037-.11-.206-.11-.243 0-.238.702-.804 2.196-1.529 2.921-.725.725-2.219 1.291-2.921 1.529ZM218.94 13.39c-.11.037-.11.206 0 .243.702.238 2.196.803 2.921 1.528.725.726 1.291 2.22 1.529 2.921.037.11.206.11.243 0 .238-.701.803-2.196 1.528-2.92.725-.726 2.22-1.291 2.921-1.529.111-.037.111-.206 0-.243-.701-.238-2.196-.804-2.921-1.529-.725-.725-1.29-2.22-1.528-2.92-.037-.11-.206-.11-.243 0-.238.7-.804 2.195-1.529 2.92-.725.725-2.219 1.291-2.921 1.529ZM218.94 48.89c-.11.037-.11.206 0 .243.702.238 2.196.803 2.921 1.528.725.725 1.291 2.22 1.529 2.921.037.11.206.11.243 0 .238-.701.803-2.196 1.528-2.92.725-.726 2.22-1.291 2.921-1.529.111-.037.111-.206 0-.243-.701-.238-2.196-.804-2.921-1.529-.725-.725-1.29-2.22-1.528-2.92-.037-.11-.206-.11-.243 0-.238.7-.804 2.195-1.529 2.92-.725.725-2.219 1.291-2.921 1.529ZM218.94 84.39c-.11.037-.11.206 0 .243.702.238 2.196.803 2.921 1.528.725.725 1.291 2.22 1.529 2.921.037.11.206.11.243 0 .238-.701.803-2.195 1.528-2.92.725-.726 2.22-1.291 2.921-1.529.111-.037.111-.206 0-.243-.701-.238-2.196-.804-2.921-1.529-.725-.725-1.29-2.22-1.528-2.92-.037-.11-.206-.11-.243 0-.238.7-.804 2.195-1.529 2.92-.725.725-2.219 1.291-2.921 1.529ZM218.94 119.89c-.11.037-.11.206 0 .243.702.238 2.196.803 2.921 1.528.725.726 1.291 2.22 1.529 2.921.037.111.206.111.243 0 .238-.701.803-2.195 1.528-2.921.725-.725 2.22-1.29 2.921-1.528.111-.037.111-.206 0-.243-.701-.238-2.196-.804-2.921-1.529-.725-.725-1.29-2.219-1.528-2.921-.037-.11-.206-.11-.243 0-.238.702-.804 2.196-1.529 2.921-.725.725-2.219 1.291-2.921 1.529ZM218.94 155.39c-.11.037-.11.206 0 .243.702.238 2.196.803 2.921 1.528.725.726 1.291 2.22 1.529 2.921.037.111.206.111.243 0 .238-.701.803-2.195 1.528-2.921.725-.725 2.22-1.29 2.921-1.528.111-.037.111-.206 0-.243-.701-.238-2.196-.804-2.921-1.529-.725-.725-1.29-2.219-1.528-2.921-.037-.11-.206-.11-.243 0-.238.702-.804 2.196-1.529 2.921-.725.725-2.219 1.291-2.921 1.529ZM218.94 190.89c-.11.037-.11.206 0 .243.702.238 2.196.803 2.921 1.528.725.726 1.291 2.22 1.529 2.921.037.111.206.111.243 0 .238-.701.803-2.195 1.528-2.921.725-.725 2.22-1.29 2.921-1.528.111-.037.111-.206 0-.243-.701-.238-2.196-.804-2.921-1.529-.725-.725-1.29-2.219-1.528-2.921-.037-.11-.206-.11-.243 0-.238.702-.804 2.196-1.529 2.921-.725.725-2.219 1.291-2.921 1.529ZM258.94 13.39c-.11.037-.11.206 0 .243.702.238 2.196.803 2.921 1.528.725.726 1.291 2.22 1.529 2.921.037.11.206.11.243 0 .238-.701.803-2.196 1.528-2.92.725-.726 2.22-1.291 2.921-1.529.111-.037.111-.206 0-.243-.701-.238-2.196-.804-2.921-1.529-.725-.725-1.29-2.22-1.528-2.92-.037-.11-.206-.11-.243 0-.238.7-.804 2.195-1.529 2.92-.725.725-2.219 1.291-2.921 1.529ZM258.94 48.89c-.11.037-.11.206 0 .243.702.238 2.196.803 2.921 1.528.725.725 1.291 2.22 1.529 2.921.037.11.206.11.243 0 .238-.701.803-2.196 1.528-2.92.725-.726 2.22-1.291 2.921-1.529.111-.037.111-.206 0-.243-.701-.238-2.196-.804-2.921-1.529-.725-.725-1.29-2.22-1.528-2.92-.037-.11-.206-.11-.243 0-.238.7-.804 2.195-1.529 2.92-.725.725-2.219 1.291-2.921 1.529ZM258.94 84.39c-.11.037-.11.206 0 .243.702.238 2.196.803 2.921 1.528.725.725 1.291 2.22 1.529 2.921.037.11.206.11.243 0 .238-.701.803-2.195 1.528-2.92.725-.726 2.22-1.291 2.921-1.529.111-.037.111-.206 0-.243-.701-.238-2.196-.804-2.921-1.529-.725-.725-1.29-2.22-1.528-2.92-.037-.11-.206-.11-.243 0-.238.7-.804 2.195-1.529 2.92-.725.725-2.219 1.291-2.921 1.529ZM258.94 119.89c-.11.037-.11.206 0 .243.702.238 2.196.803 2.921 1.528.725.726 1.291 2.22 1.529 2.921.037.111.206.111.243 0 .238-.701.803-2.195 1.528-2.921.725-.725 2.22-1.29 2.921-1.528.111-.037.111-.206 0-.243-.701-.238-2.196-.804-2.921-1.529-.725-.725-1.29-2.219-1.528-2.921-.037-.11-.206-.11-.243 0-.238.702-.804 2.196-1.529 2.921-.725.725-2.219 1.291-2.921 1.529ZM258.94 155.39c-.11.037-.11.206 0 .243.702.238 2.196.803 2.921 1.528.725.726 1.291 2.22 1.529 2.921.037.111.206.111.243 0 .238-.701.803-2.195 1.528-2.921.725-.725 2.22-1.29 2.921-1.528.111-.037.111-.206 0-.243-.701-.238-2.196-.804-2.921-1.529-.725-.725-1.29-2.219-1.528-2.921-.037-.11-.206-.11-.243 0-.238.702-.804 2.196-1.529 2.921-.725.725-2.219 1.291-2.921 1.529ZM258.94 190.89c-.11.037-.11.206 0 .243.702.238 2.196.803 2.921 1.528.725.726 1.291 2.22 1.529 2.921.037.111.206.111.243 0 .238-.701.803-2.195 1.528-2.921.725-.725 2.22-1.29 2.921-1.528.111-.037.111-.206 0-.243-.701-.238-2.196-.804-2.921-1.529-.725-.725-1.29-2.219-1.528-2.921-.037-.11-.206-.11-.243 0-.238.702-.804 2.196-1.529 2.921-.725.725-2.219 1.291-2.921 1.529ZM298.94 13.39c-.11.037-.11.206 0 .243.702.238 2.196.803 2.921 1.528.725.726 1.291 2.22 1.529 2.921.037.11.206.11.243 0 .238-.701.803-2.196 1.528-2.92.725-.726 2.22-1.291 2.921-1.529.111-.037.111-.206 0-.243-.701-.238-2.196-.804-2.921-1.529-.725-.725-1.29-2.22-1.528-2.92-.037-.11-.206-.11-.243 0-.238.7-.804 2.195-1.529 2.92-.725.725-2.219 1.291-2.921 1.529ZM298.94 48.89c-.11.037-.11.206 0 .243.702.238 2.196.803 2.921 1.528.725.725 1.291 2.22 1.529 2.921.037.11.206.11.243 0 .238-.701.803-2.196 1.528-2.92.725-.726 2.22-1.291 2.921-1.529.111-.037.111-.206 0-.243-.701-.238-2.196-.804-2.921-1.529-.725-.725-1.29-2.22-1.528-2.92-.037-.11-.206-.11-.243 0-.238.7-.804 2.195-1.529 2.92-.725.725-2.219 1.291-2.921 1.529ZM298.94 84.39c-.11.037-.11.206 0 .243.702.238 2.196.803 2.921 1.528.725.725 1.291 2.22 1.529 2.921.037.11.206.11.243 0 .238-.701.803-2.195 1.528-2.92.725-.726 2.22-1.291 2.921-1.529.111-.037.111-.206 0-.243-.701-.238-2.196-.804-2.921-1.529-.725-.725-1.29-2.22-1.528-2.92-.037-.11-.206-.11-.243 0-.238.7-.804 2.195-1.529 2.92-.725.725-2.219 1.291-2.921 1.529ZM298.94 119.89c-.11.037-.11.206 0 .243.702.238 2.196.803 2.921 1.528.725.726 1.291 2.22 1.529 2.921.037.111.206.111.243 0 .238-.701.803-2.195 1.528-2.921.725-.725 2.22-1.29 2.921-1.528.111-.037.111-.206 0-.243-.701-.238-2.196-.804-2.921-1.529-.725-.725-1.29-2.219-1.528-2.921-.037-.11-.206-.11-.243 0-.238.702-.804 2.196-1.529 2.921-.725.725-2.219 1.291-2.921 1.529ZM298.94 155.39c-.11.037-.11.206 0 .243.702.238 2.196.803 2.921 1.528.725.726 1.291 2.22 1.529 2.921.037.111.206.111.243 0 .238-.701.803-2.195 1.528-2.921.725-.725 2.22-1.29 2.921-1.528.111-.037.111-.206 0-.243-.701-.238-2.196-.804-2.921-1.529-.725-.725-1.29-2.219-1.528-2.921-.037-.11-.206-.11-.243 0-.238.702-.804 2.196-1.529 2.921-.725.725-2.219 1.291-2.921 1.529ZM298.94 190.89c-.11.037-.11.206 0 .243.702.238 2.196.803 2.921 1.528.725.726 1.291 2.22 1.529 2.921.037.111.206.111.243 0 .238-.701.803-2.195 1.528-2.921.725-.725 2.22-1.29 2.921-1.528.111-.037.111-.206 0-.243-.701-.238-2.196-.804-2.921-1.529-.725-.725-1.29-2.219-1.528-2.921-.037-.11-.206-.11-.243 0-.238.702-.804 2.196-1.529 2.921-.725.725-2.219 1.291-2.921 1.529ZM338.94 13.39c-.11.037-.11.206 0 .243.702.238 2.196.803 2.921 1.528.725.726 1.291 2.22 1.529 2.921.037.11.206.11.243 0 .238-.701.803-2.196 1.528-2.92.725-.726 2.22-1.291 2.921-1.529.111-.037.111-.206 0-.243-.701-.238-2.196-.804-2.921-1.529-.725-.725-1.29-2.22-1.528-2.92-.037-.11-.206-.11-.243 0-.238.7-.804 2.195-1.529 2.92-.725.725-2.219 1.291-2.921 1.529ZM338.94 48.89c-.11.037-.11.206 0 .243.702.238 2.196.803 2.921 1.528.725.725 1.291 2.22 1.529 2.921.037.11.206.11.243 0 .238-.701.803-2.196 1.528-2.92.725-.726 2.22-1.291 2.921-1.529.111-.037.111-.206 0-.243-.701-.238-2.196-.804-2.921-1.529-.725-.725-1.29-2.22-1.528-2.92-.037-.11-.206-.11-.243 0-.238.7-.804 2.195-1.529 2.92-.725.725-2.219 1.291-2.921 1.529ZM338.94 84.39c-.11.037-.11.206 0 .243.702.238 2.196.803 2.921 1.528.725.725 1.291 2.22 1.529 2.921.037.11.206.11.243 0 .238-.701.803-2.195 1.528-2.92.725-.726 2.22-1.291 2.921-1.529.111-.037.111-.206 0-.243-.701-.238-2.196-.804-2.921-1.529-.725-.725-1.29-2.22-1.528-2.92-.037-.11-.206-.11-.243 0-.238.7-.804 2.195-1.529 2.92-.725.725-2.219 1.291-2.921 1.529ZM338.94 119.89c-.11.037-.11.206 0 .243.702.238 2.196.803 2.921 1.528.725.726 1.291 2.22 1.529 2.921.037.111.206.111.243 0 .238-.701.803-2.195 1.528-2.921.725-.725 2.22-1.29 2.921-1.528.111-.037.111-.206 0-.243-.701-.238-2.196-.804-2.921-1.529-.725-.725-1.29-2.219-1.528-2.921-.037-.11-.206-.11-.243 0-.238.702-.804 2.196-1.529 2.921-.725.725-2.219 1.291-2.921 1.529ZM338.94 155.39c-.11.037-.11.206 0 .243.702.238 2.196.803 2.921 1.528.725.726 1.291 2.22 1.529 2.921.037.111.206.111.243 0 .238-.701.803-2.195 1.528-2.921.725-.725 2.22-1.29 2.921-1.528.111-.037.111-.206 0-.243-.701-.238-2.196-.804-2.921-1.529-.725-.725-1.29-2.219-1.528-2.921-.037-.11-.206-.11-.243 0-.238.702-.804 2.196-1.529 2.921-.725.725-2.219 1.291-2.921 1.529ZM338.94 190.89c-.11.037-.11.206 0 .243.702.238 2.196.803 2.921 1.528.725.726 1.291 2.22 1.529 2.921.037.111.206.111.243 0 .238-.701.803-2.195 1.528-2.921.725-.725 2.22-1.29 2.921-1.528.111-.037.111-.206 0-.243-.701-.238-2.196-.804-2.921-1.529-.725-.725-1.29-2.219-1.528-2.921-.037-.11-.206-.11-.243 0-.238.702-.804 2.196-1.529 2.921-.725.725-2.219 1.291-2.921 1.529Z" />
    </g>
    <g clip-path="url(#c)">
      <path fill="url(#d)"
        d="M132.074 83.959c-.914-.61-.503-2.147.594-2.218 6.967-.45 21.956-1.956 30.328-6.79s17.171-17.061 21.045-22.87c.609-.914 2.146-.502 2.217.594.451 6.967 1.957 21.956 6.791 30.329 4.833 8.372 17.061 17.171 22.869 21.044.914.61.503 2.147-.594 2.218-6.967.45-21.956 1.956-30.328 6.79s-17.171 17.062-21.045 22.87c-.609.914-2.146.502-2.217-.594-.451-6.967-1.957-21.956-6.791-30.328-4.833-8.373-17.061-17.171-22.869-21.045Z" />
      <g filter="url(#e)">
        <path fill="url(#f)"
          d="M151.436 57.243c-.215-1.077 1.162-1.873 1.988-1.148 5.245 4.608 16.908 14.142 26.247 16.644 9.338 2.502 24.206.078 31.052-1.29 1.077-.215 1.873 1.162 1.147 1.988-4.607 5.245-14.141 16.908-16.643 26.246-2.502 9.339-.078 24.207 1.29 31.053.215 1.077-1.162 1.873-1.988 1.147-5.245-4.607-16.908-14.141-26.247-16.643-9.338-2.502-24.206-.078-31.052 1.29-1.077.215-1.873-1.162-1.147-1.988 4.607-5.245 14.141-16.908 16.643-26.247 2.502-9.338.078-24.206-1.29-31.052Z" />
      </g>
      <path fill="#fff"
        d="M159.266 93.414c-.518.182-.518.986 0 1.168 2.493.875 6.968 2.665 9.219 4.916 2.251 2.251 4.041 6.726 4.916 9.219.182.518.986.518 1.168 0 .875-2.493 2.665-6.968 4.916-9.219 2.251-2.251 6.726-4.041 9.219-4.916.518-.182.518-.986 0-1.168-2.493-.875-6.968-2.665-9.219-4.916-2.251-2.251-4.041-6.726-4.916-9.219-.182-.518-.986-.518-1.168 0-.875 2.493-2.665 6.968-4.916 9.219-2.251 2.25-6.726 4.041-9.219 4.916Z" />
    </g>
  </g>
  <defs>
    <linearGradient id="b" x1="17.442" x2="65.473" y1="-4.329" y2="242.732" gradientUnits="userSpaceOnUse">
      <stop offset=".056" stop-color="#FED7D8" />
      <stop offset="1" stop-color="#FFEAD2" />
    </linearGradient>
    <linearGradient id="d" x1="140.987" x2="162.233" y1="115.999" y2="43.341" gradientUnits="userSpaceOnUse">
      <stop stop-color="#D74C1B" />
      <stop offset=".248" stop-color="#EF6636" />
      <stop offset=".553" stop-color="#E7936B" />
      <stop offset=".977" stop-color="#FFE5D4" />
    </linearGradient>
    <linearGradient id="f" x1="151.988" x2="214.04" y1="55.496" y2="113.053" gradientUnits="userSpaceOnUse">
      <stop stop-color="#D74C1B" />
      <stop offset=".248" stop-color="#EF6636" />
      <stop offset=".553" stop-color="#E7936B" />
      <stop offset=".977" stop-color="#FFE5D4" />
    </linearGradient>
    <clipPath id="a">
      <path fill="#fff" d="M0 0h347v188H0z" />
    </clipPath>
    <clipPath id="c">
      <path fill="#fff" d="M130 50h88v88h-88z" />
    </clipPath>
    <filter id="e" width="87.346" height="87.346" x="130.303" y="50.316" color-interpolation-filters="sRGB"
      filterUnits="userSpaceOnUse">
      <feFlood flood-opacity="0" result="BackgroundImageFix" />
      <feColorMatrix in="SourceAlpha" result="hardAlpha" values="0 0 0 0 0 0 0 0 0 0 0 0 0 0 0 0 0 0 127 0" />
      <feOffset />
      <feGaussianBlur stdDeviation="2.75" />
      <feComposite in2="hardAlpha" operator="out" />
      <feColorMatrix values="0 0 0 0 0 0 0 0 0 0 0 0 0 0 0 0 0 0 0.1 0" />
      <feBlend in2="BackgroundImageFix" result="effect1_dropShadow_6736_5970" />
      <feBlend in="SourceGraphic" in2="effect1_dropShadow_6736_5970" result="shape" />
    </filter>
  </defs>
</svg>