<svg width="688" height="48" viewBox="0 0 688 48" fill="none" xmlns="http://www.w3.org/2000/svg">
<g style="mix-blend-mode:overlay">
<path d="M24 44C35.0457 44 44 35.0457 44 24C44 12.9543 35.0457 4 24 4C12.9543 4 4 12.9543 4 24C4 35.0457 12.9543 44 24 44Z" fill="black"/>
<path opacity="0.6" d="M31.9582 21.1974C32.2911 18.7935 30.5967 17.5012 28.2799 16.6391L29.0314 13.3826L27.1964 12.8886L26.4648 16.0593C25.9824 15.9294 25.4869 15.8069 24.9946 15.6855L25.7315 12.494L23.8976 12L23.1455 15.2553C22.7462 15.1571 22.3542 15.06 21.9737 14.9578L21.9758 14.9476L19.4452 14.2651L18.9571 16.3822C18.9571 16.3822 20.3186 16.7192 20.2898 16.7401C21.033 16.9406 21.1673 17.4718 21.1448 17.893L20.2888 21.6028C20.34 21.6169 20.4064 21.6372 20.4795 21.6688C20.4184 21.6525 20.353 21.6344 20.2856 21.6169L19.0856 26.8138C18.9947 27.0577 18.7642 27.4235 18.2447 27.2846C18.263 27.3134 16.911 26.925 16.911 26.925L16 29.194L18.3879 29.837C18.8322 29.9573 19.2675 30.0832 19.6961 30.2017L18.9367 33.4955L20.7696 33.9895L21.5217 30.7308C22.0223 30.8775 22.5084 31.013 22.984 31.1406L22.2345 34.3841L24.0695 34.8781L24.8289 31.5906C27.9579 32.2303 30.3108 31.9722 31.3012 28.9151C32.0993 26.4536 31.2615 25.0337 29.6152 24.1078C30.8141 23.8091 31.7172 22.9572 31.9582 21.1974ZM27.7656 27.5483C27.1985 30.0098 23.3619 28.6791 22.118 28.3454L23.1256 23.9819C24.3695 24.3172 28.3583 24.9812 27.7656 27.5483ZM28.3332 21.1618C27.8158 23.4009 24.6225 22.2633 23.5866 21.9844L24.5002 18.0268C25.536 18.3057 28.872 18.8262 28.3332 21.1618Z" fill="white"/>
<path d="M104 44C115.046 44 124 35.0457 124 24C124 12.9543 115.046 4 104 4C92.9543 4 84 12.9543 84 24C84 35.0457 92.9543 44 104 44Z" fill="black"/>
<g style="mix-blend-mode:hard-light" opacity="0.6">
<path d="M104 12V28.5764L96.0001 24.2226L104 12Z" fill="white"/>
<path d="M104 12L112 24.2226L104 28.5764V12Z" fill="white"/>
<path d="M104 29.9716V35.9998L96 25.6199L104 29.9716Z" fill="white"/>
<path d="M104 35.9998V29.9716L112 25.6199L104 35.9998Z" fill="white"/>
</g>
<circle cx="184" cy="24" r="20" fill="black"/>
<path opacity="0.6" fill-rule="evenodd" clip-rule="evenodd" d="M182.289 20.0757C182.238 20.2535 182.162 20.4229 182.052 20.5753C181.84 20.8463 181.569 21.058 181.247 21.185C180.959 21.3036 180.663 21.3883 180.35 21.4221C180.282 21.4306 180.214 21.4391 180.146 21.4391C179.952 21.4475 179.765 21.5153 179.613 21.6423C179.461 21.7609 179.35 21.9302 179.3 22.1165C179.274 22.2097 179.257 22.3028 179.249 22.4045C179.228 22.5529 179.22 22.7075 179.211 22.8758L179.211 22.8758C179.206 22.986 179.2 23.1019 179.19 23.2259C179.122 23.7594 178.969 24.2759 178.732 24.7586C178.684 24.8608 178.634 24.96 178.586 25.0576L178.586 25.0576C178.328 25.5743 178.094 26.0442 178.165 26.664C178.216 27.1467 178.461 27.4685 178.792 27.8072C178.948 27.9685 179.157 28.1062 179.373 28.249C179.974 28.6457 180.635 29.0823 180.417 30.1783C180.24 31.0675 178.758 32.0074 176.683 32.3292C176.886 32.2953 176.42 31.4993 176.387 31.4485C176.328 31.3564 176.268 31.2655 176.208 31.1745C176.041 30.9225 175.874 30.67 175.743 30.39C175.396 29.6533 175.235 28.8064 175.379 28.002C175.51 27.2734 175.992 26.6891 176.453 26.1302L176.453 26.1302C176.528 26.0394 176.602 25.9494 176.674 25.8595C177.293 25.0889 177.945 24.0812 178.089 23.0819C178.101 22.9909 178.113 22.893 178.125 22.7902L178.125 22.7901C178.145 22.6155 178.167 22.427 178.199 22.2351C178.25 21.9048 178.351 21.5746 178.512 21.2782C178.614 21.0834 178.758 20.9056 178.919 20.7532C179.003 20.6769 179.063 20.5669 179.079 20.4483C179.096 20.3297 179.079 20.2112 179.02 20.1096L175.701 14.1649L180.46 20.0334C180.511 20.1011 180.578 20.1604 180.663 20.1942C180.739 20.2366 180.824 20.2535 180.917 20.2535C181.002 20.2535 181.086 20.2366 181.171 20.2027C181.247 20.1688 181.324 20.118 181.374 20.0503C181.434 19.9825 181.467 19.8894 181.467 19.7962C181.467 19.7031 181.442 19.6099 181.383 19.5422C181.226 19.3432 181.065 19.1421 180.904 18.941C180.743 18.7398 180.583 18.5387 180.426 18.3397L179.232 16.8578L176.818 13.9108L172 8L177.132 13.6398L179.689 16.4682L180.968 17.8824C181.052 17.977 181.137 18.0712 181.221 18.1654L181.222 18.1663C181.561 18.5443 181.899 18.9223 182.238 19.322L182.306 19.4067L182.323 19.5337C182.34 19.72 182.331 19.9063 182.289 20.0757ZM194.255 21.6508C194.356 21.7862 194.441 21.9216 194.525 22.0739L194.526 22.0742C194.526 21.4476 194.128 20.406 193.34 19.4067L193.323 19.3813C193.078 19.0765 192.815 18.797 192.527 18.5345C192.476 18.4837 192.417 18.4329 192.358 18.3821C191.994 18.0603 191.587 17.7808 191.164 17.5522L191.13 17.5353C189.792 16.7985 188.047 16.4259 185.897 16.8493C185.609 16.5021 185.295 16.1719 184.965 15.8585C184.457 15.3759 183.856 14.9948 183.204 14.7407C182.56 14.5036 181.866 14.4189 181.18 14.4952C181.84 14.5544 182.484 14.7407 183.077 15.0371C183.652 15.3505 184.161 15.7485 184.601 16.2311C185.041 16.7223 185.456 17.2389 185.846 17.7724C185.892 17.8321 185.939 17.8921 185.985 17.9522C186.353 18.4283 186.726 18.9104 187.192 19.339C187.463 19.5846 187.751 19.7963 188.073 19.9741C188.158 20.0164 188.242 20.0588 188.327 20.0927C188.369 20.1096 188.41 20.1265 188.45 20.1435C188.49 20.1604 188.53 20.1773 188.573 20.1943C188.733 20.2536 188.903 20.3044 189.072 20.3552C189.75 20.5415 190.444 20.6177 191.121 20.6516C191.231 20.657 191.34 20.6616 191.448 20.6662L191.448 20.6662C191.674 20.6758 191.897 20.6852 192.121 20.7024C192.442 20.7193 192.764 20.7701 193.078 20.8548C193.552 20.9818 193.967 21.2613 194.255 21.6508ZM192.527 18.526C192.498 18.5006 192.47 18.4752 192.442 18.4498C192.415 18.4244 192.387 18.399 192.358 18.3736C192.386 18.3981 192.415 18.4245 192.443 18.4501C192.472 18.4776 192.501 18.5041 192.527 18.526ZM191.702 24.7688C189.524 23.8843 187.243 22.9585 187.581 20.3636C188.31 21.1407 189.453 21.3031 190.695 21.4796C191.821 21.6396 193.03 21.8113 194.085 22.4637C196.575 24.005 196.211 26.9942 195.364 28.0951C195.443 26.2875 193.612 25.544 191.702 24.7688ZM182.907 23.4713C183.483 23.412 184.711 23.1156 184.16 22.1502C184.042 21.9555 183.872 21.7946 183.669 21.6929C183.466 21.5913 183.237 21.549 183.009 21.5659C182.772 21.5913 182.56 21.6845 182.382 21.8369C182.204 21.9893 182.086 22.1926 182.026 22.4212C181.857 23.0563 182.035 23.5559 182.907 23.4713ZM182.755 15.8329C182.399 15.418 181.84 15.1978 181.29 15.1216C181.264 15.2571 181.256 15.3926 181.247 15.5365C181.222 16.6713 181.628 17.9161 182.407 18.7884C182.661 19.0678 182.958 19.2964 183.297 19.4658C183.491 19.559 184.008 19.7961 184.203 19.5844C184.22 19.5674 184.228 19.542 184.228 19.5166C184.237 19.4997 184.228 19.4743 184.22 19.4489C184.189 19.353 184.126 19.2692 184.064 19.1866C184.021 19.1306 183.979 19.0752 183.949 19.017C183.916 18.9539 183.88 18.8929 183.845 18.8321L183.845 18.8321C183.782 18.7217 183.718 18.6121 183.669 18.492C183.534 18.1717 183.465 17.8335 183.396 17.4974L183.395 17.497C183.382 17.4333 183.369 17.3698 183.356 17.3064C183.246 16.7898 183.119 16.2479 182.755 15.8329ZM190.469 24.9111C189.909 26.4742 190.812 27.7939 191.71 29.1053C192.713 30.5718 193.709 32.028 192.645 33.8028C194.712 32.9475 195.694 30.3731 194.839 28.3238C194.294 27.0267 192.985 26.3219 191.773 25.6697C191.308 25.4193 190.857 25.1766 190.469 24.9111ZM184.406 28.6371C184.033 28.798 183.678 28.9927 183.356 29.2383C184.092 28.9673 184.863 28.8149 185.634 28.798C185.792 28.7876 185.951 28.7801 186.111 28.7725L186.111 28.7725H186.111C186.344 28.7614 186.579 28.7503 186.819 28.7302C187.243 28.7048 187.658 28.6201 188.056 28.4762C188.479 28.3322 188.86 28.0951 189.173 27.7818C189.487 27.46 189.715 27.0535 189.817 26.6132C189.91 26.1898 189.902 25.7579 189.783 25.3514C189.665 24.9449 189.453 24.5639 189.156 24.259C189.3 24.6147 189.385 24.9957 189.419 25.3853C189.444 25.7409 189.394 26.1051 189.275 26.4438C189.156 26.7656 188.97 27.0535 188.716 27.2906C188.454 27.5277 188.157 27.714 187.827 27.8411C187.374 28.0268 186.862 28.1011 186.328 28.1786C186.083 28.2142 185.833 28.2504 185.583 28.2983C185.176 28.3746 184.787 28.4846 184.406 28.6371ZM190.845 35.1266L190.845 35.1267C190.758 35.1965 190.669 35.2683 190.571 35.3356C190.435 35.4203 190.3 35.4965 190.156 35.5643C189.859 35.7082 189.529 35.7845 189.199 35.7845C188.301 35.7675 187.658 35.0985 187.285 34.3364C187.186 34.1349 187.099 33.927 187.011 33.7192L187.011 33.7192L187.011 33.7192L187.011 33.7192C186.874 33.3942 186.738 33.0693 186.557 32.7698C186.125 32.0669 185.388 31.4995 184.525 31.6011C184.169 31.6435 183.839 31.8044 183.644 32.1092C183.127 32.9052 183.872 34.0231 184.812 33.8706C184.889 33.8622 184.973 33.8368 185.05 33.8029C185.126 33.769 185.194 33.7267 185.253 33.6759C185.388 33.5658 185.481 33.4218 185.541 33.2609C185.6 33.0915 185.617 32.9137 185.583 32.7359C185.541 32.5496 185.439 32.3887 185.278 32.2871C185.456 32.3717 185.6 32.5242 185.676 32.7105C185.752 32.9052 185.769 33.1085 185.727 33.3117C185.693 33.5234 185.6 33.7182 185.456 33.8791C185.38 33.9638 185.295 34.0315 185.202 34.0908C185.109 34.1501 185.007 34.2009 184.906 34.2348C184.694 34.311 184.465 34.3279 184.245 34.3025C183.932 34.2602 183.635 34.1331 183.39 33.9299C183.215 33.791 183.065 33.624 182.915 33.4573L182.915 33.4573C182.819 33.3496 182.722 33.2421 182.619 33.1424C182.314 32.829 181.959 32.5665 181.569 32.3717C181.298 32.2532 181.01 32.1685 180.722 32.1092C180.586 32.0771 180.442 32.0603 180.305 32.0442L180.305 32.0442L180.282 32.0415C180.277 32.0409 180.271 32.0399 180.263 32.0387C180.251 32.0368 180.235 32.0342 180.217 32.0311L180.217 32.0311H180.217C180.097 32.0109 179.874 31.9735 179.833 32.0076C180.29 31.5842 180.79 31.2116 181.324 30.8898C181.874 30.568 182.458 30.314 183.068 30.1446C183.703 29.9668 184.372 29.916 185.024 29.9922C185.363 30.0345 185.693 30.1192 186.006 30.2462C186.337 30.3817 186.642 30.568 186.904 30.8051C187.167 31.0507 187.378 31.3471 187.531 31.6773C187.666 31.9822 187.768 32.304 187.836 32.6343C187.871 32.8132 187.898 33.0105 187.925 33.2147C188.048 34.1315 188.19 35.1894 189.25 35.3695C189.318 35.3864 189.385 35.3949 189.453 35.3949L189.665 35.4034C189.809 35.3949 189.953 35.3695 190.097 35.3441L190.097 35.3441C190.376 35.2764 190.664 35.1747 190.943 35.0477C190.911 35.0735 190.878 35.0999 190.845 35.1266ZM183.381 33.9382C183.153 33.7604 182.95 33.5486 182.772 33.32C182.966 33.5402 183.17 33.7434 183.381 33.9382Z" fill="white"/>
<path d="M264 44C275.046 44 284 35.0457 284 24C284 12.9543 275.046 4 264 4C252.954 4 244 12.9543 244 24C244 35.0457 252.954 44 264 44Z" fill="black"/>
<path opacity="0.6" fill-rule="evenodd" clip-rule="evenodd" d="M254.963 30.7047C254.366 30.3391 254 29.6882 254 28.9891V25.0856C254 24.9362 254.04 24.7922 254.115 24.6641C254.347 24.2638 254.862 24.1278 255.262 24.3626L264.072 29.4987C264.587 29.8002 264.905 30.3499 264.905 30.9475V34.9924C264.905 35.1764 264.854 35.3605 264.758 35.518C264.467 35.9929 263.848 36.1423 263.373 35.8515L254.963 30.7047ZM268.096 23.2926C268.611 23.5941 268.928 24.1438 268.928 24.7414V32.9485C268.928 33.1914 268.797 33.4155 268.587 33.5329L266.658 34.6188C266.634 34.6322 266.607 34.6428 266.58 34.6509V30.0937C266.58 29.504 266.271 28.9571 265.764 28.6529L258.026 24.0237V18.8796C258.026 18.7302 258.066 18.5861 258.141 18.458C258.373 18.0578 258.888 17.9217 259.288 18.1565L268.096 23.2926ZM271.951 17.2307C272.469 17.5295 272.786 18.0845 272.786 18.6822V30.67C272.786 30.9155 272.65 31.1422 272.434 31.2596L270.606 32.2468V23.901C270.606 23.3114 270.297 22.767 269.793 22.4628L261.884 17.719V12.839C261.884 12.6896 261.924 12.5455 261.996 12.4174C262.228 12.0172 262.743 11.8811 263.144 12.1133L271.951 17.2307Z" fill="white"/>
<path d="M344 44C355.046 44 364 35.0457 364 24C364 12.9543 355.046 4 344 4C332.954 4 324 12.9543 324 24C324 35.0457 332.954 44 344 44Z" fill="black"/>
<g opacity="0.6">
<path d="M344 12V19.4726L348.88 27.2232L355.959 30.9919C356.023 30.8898 356.014 30.749 355.916 30.5943L350.136 21.4135L344.355 12.2327C344.257 12.0775 344.128 12 344 12Z" fill="white"/>
<path d="M332.04 30.9919L339.12 27.2234L344 19.4726V12C343.871 12 343.743 12.0775 343.645 12.2325L337.864 21.4135L332.083 30.5941C331.986 30.749 331.977 30.8896 332.04 30.9919Z" fill="white"/>
<path d="M355.959 30.9916L348.88 27.2231H339.119L332.04 30.9916C332.104 31.094 332.242 31.1577 332.437 31.1577H355.563C355.758 31.1577 355.895 31.094 355.959 30.9916Z" fill="white"/>
</g>
<path d="M424 44C435.046 44 444 35.0457 444 24C444 12.9543 435.046 4 424 4C412.954 4 404 12.9543 404 24C404 35.0457 412.954 44 424 44Z" fill="black"/>
<path opacity="0.6" d="M420.333 37.8334C420.333 38.3334 420 38.5001 419.5 38.5001C413.333 36.5001 409 30.8334 409 24.1667C409 17.5001 413.333 11.8334 419.5 9.83339C420 9.66673 420.333 10.0001 420.333 10.5001V11.6667C420.333 12.0001 420.167 12.3334 419.833 12.5001C415 14.3334 411.667 18.8334 411.667 24.1667C411.667 29.5001 415.167 34.1667 419.833 35.8334C420.167 36.0001 420.333 36.3334 420.333 36.6667V37.8334Z" fill="white"/>
<path opacity="0.6" d="M425.333 33.6665C425.333 33.9998 424.999 34.3332 424.666 34.3332H423.333C422.999 34.3332 422.666 33.9998 422.666 33.6665V31.6665C419.999 31.3332 418.666 29.8332 418.166 27.6665C418.166 27.3332 418.333 26.9998 418.666 26.9998H420.166C420.499 26.9998 420.666 27.1665 420.833 27.4998C421.166 28.6665 421.833 29.6665 423.999 29.6665C425.666 29.6665 426.833 28.8332 426.833 27.4998C426.833 26.1665 426.166 25.6665 423.833 25.3332C420.333 24.8332 418.666 23.8332 418.666 20.9998C418.666 18.8332 420.333 17.1665 422.666 16.8332V14.8332C422.666 14.4998 422.999 14.1665 423.333 14.1665H424.666C424.999 14.1665 425.333 14.4998 425.333 14.8332V16.8332C427.333 17.1665 428.666 18.3332 428.999 20.1665C428.999 20.4998 428.833 20.8332 428.499 20.8332H427.166C426.833 20.8332 426.666 20.6665 426.499 20.3332C426.166 19.1665 425.333 18.6665 423.833 18.6665C422.166 18.6665 421.333 19.4998 421.333 20.6665C421.333 21.8332 421.833 22.4998 424.333 22.8332C427.833 23.3332 429.499 24.3332 429.499 27.1665C429.499 29.3332 427.833 31.1665 425.333 31.6665V33.6665Z" fill="white"/>
<path opacity="0.6" d="M428.499 38.5002C427.999 38.6668 427.666 38.3335 427.666 37.8335V36.6668C427.666 36.3335 427.833 36.0002 428.166 35.8335C432.999 34.0002 436.333 29.5002 436.333 24.1668C436.333 18.8335 432.833 14.1668 428.166 12.5002C427.833 12.3335 427.666 12.0002 427.666 11.6668V10.5002C427.666 10.0002 427.999 9.8335 428.499 9.8335C434.499 11.8335 438.999 17.5002 438.999 24.1668C438.999 30.8335 434.666 36.5002 428.499 38.5002Z" fill="white"/>
<path fill-rule="evenodd" clip-rule="evenodd" d="M504 4C515.044 4 524 12.956 524 24C524 35.044 515.044 44 504 44C492.956 44 484 35.044 484 24C484 12.956 492.956 4 504 4Z" fill="black"/>
<path opacity="0.6" fill-rule="evenodd" clip-rule="evenodd" d="M512.401 21.336L506.805 22.82L505.557 17.012L507.221 16.636L507.877 19.388C507.877 19.388 509.389 16.908 507.373 14.34C506.217 13.0559 505.652 12.968 504.395 12.7727L504.289 12.756C503.117 12.588 500.393 12.984 499.581 16.164C499.237 18.212 499.625 19.728 502.265 21.712L502.117 23.92C502.117 23.92 499.169 21.844 498.409 20.388C497.821 19.236 496.813 16.96 498.633 13.792C499.613 12.208 501.545 10.688 504.949 10.848C506.661 10.92 510.841 13.012 510.193 17.9C510.081 18.816 509.605 20.036 509.605 20.036L511.901 19.524L512.401 21.336ZM503.176 32.432V15.792H504.988V32.432H503.176ZM502.813 37.1322C506.209 37.3802 508.181 35.9122 509.205 34.3562C511.105 31.2402 510.157 28.9362 509.605 27.7642C508.885 26.2882 505.993 24.1362 505.993 24.1362L505.785 26.3402C508.369 28.3962 508.717 29.9242 508.321 31.9602C507.425 35.1162 504.689 35.4442 503.525 35.2442C503.486 35.2371 503.448 35.2302 503.41 35.2234C502.16 34.9952 501.599 34.893 500.481 33.5802C498.537 30.9562 500.113 28.5202 500.113 28.5202L500.697 31.2922L502.373 30.9602L501.277 25.1202L495.641 26.4562L496.093 28.2762L498.401 27.8282C498.401 27.8282 497.893 29.0322 497.757 29.9442C496.981 34.8122 501.101 37.0162 502.813 37.1322Z" fill="white"/>
<circle cx="584" cy="24" r="20" fill="black"/>
<path opacity="0.6" fill-rule="evenodd" clip-rule="evenodd" d="M585.891 23.2853H596V23.3463L580.211 32.9776L588.047 26.7134L585.891 23.2853ZM579.995 14V33.1047L572 26.7133L579.995 14Z" fill="white"/>
<path d="M664 44C675.046 44 684 35.0457 684 24C684 12.9543 675.046 4 664 4C652.954 4 644 12.9543 644 24C644 35.0457 652.954 44 664 44Z" fill="black"/>
<path opacity="0.6" d="M667.685 12C663.464 12 659.878 15.2471 659.426 19.4259C655.247 19.8776 652 23.4635 652 27.6847C652 32.2729 655.727 36 660.315 36C664.536 36 668.136 32.7529 668.574 28.5741C672.753 28.1224 676 24.5365 676 20.3153C676 15.7271 672.273 12 667.685 12ZM674.052 21.2471C673.844 22.6105 673.206 23.8718 672.231 24.8471C671.255 25.8223 669.994 26.4604 668.631 26.6682V21.2471H674.052ZM653.948 26.7529C654.153 25.3869 654.79 24.1224 655.766 23.1444C656.741 22.1664 658.004 21.5263 659.369 21.3176V26.7388H653.948V26.7529ZM666.682 28.6306C666.457 30.1578 665.69 31.553 664.521 32.5613C663.352 33.5695 661.859 34.1236 660.315 34.1224C657.111 34.1224 654.414 31.7788 653.948 28.6306H666.682ZM666.753 21.2471V26.7388H661.247V21.2471H666.753ZM674.052 19.3694H661.318C661.543 17.8422 662.31 16.447 663.479 15.4387C664.648 14.4305 666.141 13.8764 667.685 13.8776C670.889 13.8776 673.586 16.2212 674.052 19.3694Z" fill="white"/>
</g>
</svg>
