<svg width="688" height="48" viewBox="0 0 688 48" fill="none" xmlns="http://www.w3.org/2000/svg">
<g opacity="0.12">
<path d="M22.4757 28.4458C23.973 28.8729 27.2453 29.8066 27.7656 27.5483C28.2987 25.2392 25.125 24.4699 23.5764 24.0945C23.4034 24.0526 23.2507 24.0156 23.1256 23.9819L22.118 28.3454C22.2207 28.373 22.341 28.4073 22.4757 28.4458Z" fill="#591818"/>
<path d="M23.8876 22.0696C25.1359 22.4294 27.8589 23.2144 28.3332 21.1618C28.8175 19.0624 26.1711 18.4295 24.8786 18.1204C24.7332 18.0857 24.6049 18.055 24.5002 18.0268L23.5866 21.9844C23.6729 22.0077 23.7741 22.0369 23.8876 22.0696Z" fill="#591818"/>
<path fill-rule="evenodd" clip-rule="evenodd" d="M44 24C44 35.0457 35.0457 44 24 44C12.9543 44 4 35.0457 4 24C4 12.9543 12.9543 4 24 4C35.0457 4 44 12.9543 44 24ZM28.2799 16.6391C30.5967 17.5012 32.2911 18.7935 31.9582 21.1974C31.7172 22.9572 30.8141 23.8091 29.6152 24.1078C31.2615 25.0337 32.0993 26.4536 31.3012 28.9151C30.3108 31.9722 27.9579 32.2303 24.8289 31.5906L24.0695 34.8781L22.2345 34.3841L22.984 31.1406C22.5084 31.013 22.0223 30.8775 21.5217 30.7308L20.7696 33.9895L18.9367 33.4955L19.6961 30.2017C19.5248 30.1544 19.3524 30.1058 19.1789 30.0569C18.9181 29.9834 18.6546 29.9092 18.3879 29.837L16 29.194L16.911 26.925C16.911 26.925 18.263 27.3134 18.2447 27.2846C18.7642 27.4235 18.9947 27.0577 19.0856 26.8138L20.2856 21.6169C20.3306 21.6286 20.3747 21.6405 20.4172 21.652C20.4384 21.6578 20.4592 21.6634 20.4795 21.6688C20.4064 21.6372 20.34 21.6169 20.2888 21.6028L21.1448 17.893C21.1673 17.4718 21.033 16.9406 20.2898 16.7401C20.3186 16.7192 18.9571 16.3822 18.9571 16.3822L19.4452 14.2651L21.9758 14.9476L21.9737 14.9578C22.3542 15.06 22.7462 15.1571 23.1455 15.2553L23.8976 12L25.7315 12.494L24.9946 15.6855C25.4869 15.8069 25.9824 15.9294 26.4648 16.0593L27.1964 12.8886L29.0314 13.3826L28.2799 16.6391Z" fill="#591818"/>
<path fill-rule="evenodd" clip-rule="evenodd" d="M124 24C124 35.0457 115.046 44 104 44C92.9543 44 84 35.0457 84 24C84 12.9543 92.9543 4 104 4C115.046 4 124 12.9543 124 24ZM96.0001 24.2226L104 28.5764L112 24.2226L104 12L96.0001 24.2226ZM96 25.6199L104 29.9716L112 25.6199L104 35.9998L96 25.6199Z" fill="#591818"/>
<path fill-rule="evenodd" clip-rule="evenodd" d="M184 44C195.046 44 204 35.0457 204 24C204 12.9543 195.046 4 184 4C172.954 4 164 12.9543 164 24C164 35.0457 172.954 44 184 44ZM182.052 20.5753C182.162 20.4229 182.238 20.2535 182.289 20.0757C182.331 19.9063 182.34 19.72 182.323 19.5337L182.306 19.4067L182.238 19.322C181.899 18.9224 181.561 18.5444 181.222 18.1664L181.221 18.1654C181.137 18.0712 181.052 17.977 180.968 17.8824L177.132 13.6398L172 8L176.818 13.9108L179.232 16.8578L180.426 18.3397C180.583 18.5387 180.743 18.7398 180.904 18.941L180.905 18.9419C181.066 19.1427 181.226 19.3435 181.383 19.5422C181.442 19.6099 181.467 19.7031 181.467 19.7962C181.467 19.8894 181.434 19.9825 181.374 20.0503C181.324 20.118 181.247 20.1688 181.171 20.2027C181.086 20.2366 181.002 20.2535 180.917 20.2535C180.824 20.2535 180.739 20.2366 180.663 20.1942C180.578 20.1604 180.511 20.1011 180.46 20.0334L175.701 14.1649L179.02 20.1096C179.079 20.2112 179.096 20.3297 179.079 20.4483C179.063 20.5669 179.003 20.6769 178.919 20.7532C178.758 20.9056 178.614 21.0834 178.512 21.2782C178.351 21.5746 178.25 21.9048 178.199 22.2351C178.167 22.427 178.145 22.6155 178.125 22.7902C178.113 22.8929 178.101 22.9909 178.089 23.0819C177.945 24.0812 177.293 25.0889 176.674 25.8595C176.602 25.9494 176.528 26.0395 176.453 26.1302C175.992 26.6891 175.51 27.2734 175.379 28.002C175.235 28.8064 175.396 29.6533 175.743 30.39C175.874 30.67 176.041 30.9225 176.208 31.1745C176.268 31.2654 176.328 31.3565 176.387 31.4485C176.42 31.4993 176.886 32.2953 176.683 32.3292C178.758 32.0074 180.24 31.0675 180.417 30.1783C180.635 29.0823 179.974 28.6457 179.373 28.249C179.157 28.1062 178.948 27.9685 178.792 27.8072C178.461 27.4685 178.216 27.1467 178.165 26.664C178.094 26.0442 178.328 25.5743 178.586 25.0576C178.634 24.9601 178.684 24.8608 178.732 24.7586C178.969 24.2759 179.122 23.7594 179.19 23.2259C179.2 23.102 179.206 22.986 179.211 22.8759C179.22 22.7075 179.228 22.5529 179.249 22.4045C179.257 22.3028 179.274 22.2097 179.3 22.1165C179.35 21.9302 179.461 21.7609 179.613 21.6423C179.765 21.5153 179.952 21.4475 180.146 21.4391C180.214 21.4391 180.282 21.4306 180.35 21.4221C180.663 21.3883 180.959 21.3036 181.247 21.185C181.569 21.058 181.84 20.8463 182.052 20.5753ZM194.525 22.0739C194.441 21.9216 194.356 21.7862 194.255 21.6508C193.967 21.2613 193.552 20.9818 193.078 20.8548C192.764 20.7701 192.442 20.7193 192.121 20.7024C191.897 20.6852 191.674 20.6758 191.448 20.6662L191.447 20.6662C191.339 20.6616 191.231 20.657 191.121 20.6516C190.444 20.6177 189.75 20.5415 189.072 20.3552C188.903 20.3044 188.733 20.2535 188.573 20.1943C188.554 20.1869 188.536 20.1796 188.518 20.1722C188.495 20.1626 188.472 20.1531 188.45 20.1435C188.409 20.1265 188.369 20.1096 188.327 20.0927C188.242 20.0588 188.158 20.0165 188.073 19.9741C187.751 19.7963 187.463 19.5846 187.192 19.339C186.726 18.9104 186.353 18.4284 185.985 17.9522C185.939 17.8921 185.892 17.8321 185.846 17.7724C185.456 17.2389 185.041 16.7223 184.601 16.2311C184.161 15.7485 183.652 15.3505 183.077 15.0371C182.484 14.7407 181.84 14.5544 181.18 14.4952C181.866 14.4189 182.56 14.5036 183.204 14.7407C183.856 14.9948 184.457 15.3759 184.965 15.8585C185.295 16.1719 185.609 16.5021 185.897 16.8493C188.047 16.4259 189.792 16.7985 191.13 17.5353L191.164 17.5522C191.587 17.7808 191.994 18.0603 192.358 18.3821C192.417 18.4329 192.476 18.4837 192.527 18.5345C192.815 18.797 193.078 19.0765 193.323 19.3813L193.34 19.4067C194.128 20.406 194.525 21.4472 194.525 22.0739ZM192.442 18.4498C192.47 18.4752 192.498 18.5006 192.527 18.526C192.501 18.5041 192.472 18.4772 192.442 18.4498C192.415 18.4242 192.386 18.3981 192.358 18.3736C192.387 18.399 192.415 18.4244 192.442 18.4498ZM187.581 20.3636C187.243 22.9585 189.524 23.8843 191.702 24.7688C193.612 25.544 195.443 26.2875 195.364 28.0951C196.211 26.9942 196.575 24.005 194.085 22.4637C193.03 21.8113 191.821 21.6396 190.695 21.4796C189.453 21.3031 188.31 21.1407 187.581 20.3636ZM184.16 22.1502C184.711 23.1156 183.483 23.412 182.907 23.4713C182.035 23.5559 181.857 23.0563 182.026 22.4212C182.086 22.1926 182.204 21.9893 182.382 21.8369C182.56 21.6845 182.772 21.5913 183.009 21.5659C183.237 21.549 183.466 21.5913 183.669 21.6929C183.872 21.7946 184.042 21.9555 184.16 22.1502ZM181.29 15.1216C181.84 15.1978 182.399 15.418 182.755 15.8329C183.119 16.2479 183.246 16.7898 183.356 17.3064C183.369 17.3699 183.382 17.4335 183.396 17.4972C183.464 17.8333 183.534 18.1717 183.669 18.492C183.718 18.6121 183.782 18.7217 183.845 18.8321C183.88 18.8929 183.916 18.9539 183.949 19.017C183.979 19.0752 184.021 19.1306 184.064 19.1866C184.126 19.2692 184.189 19.353 184.22 19.4489C184.228 19.4743 184.237 19.4997 184.228 19.5166C184.228 19.542 184.22 19.5674 184.203 19.5844C184.008 19.7961 183.491 19.559 183.297 19.4658C182.958 19.2964 182.661 19.0678 182.407 18.7884C181.628 17.9161 181.222 16.6713 181.247 15.5365C181.256 15.3926 181.264 15.2571 181.29 15.1216ZM191.71 29.1053C190.812 27.7939 189.909 26.4742 190.469 24.9111C190.857 25.1766 191.308 25.4193 191.773 25.6697C192.985 26.3219 194.294 27.0267 194.839 28.3238C195.694 30.3731 194.712 32.9475 192.645 33.8027C193.709 32.028 192.713 30.5718 191.71 29.1053ZM183.356 29.2383C183.678 28.9927 184.033 28.798 184.406 28.6371C184.787 28.4846 185.176 28.3746 185.583 28.2983C185.833 28.2504 186.083 28.2142 186.328 28.1786C186.862 28.1011 187.374 28.0268 187.827 27.8411C188.157 27.714 188.454 27.5277 188.716 27.2906C188.97 27.0535 189.156 26.7656 189.275 26.4438C189.394 26.1051 189.444 25.7409 189.419 25.3853C189.385 24.9957 189.3 24.6147 189.156 24.259C189.453 24.5639 189.665 24.9449 189.783 25.3514C189.902 25.7579 189.91 26.1898 189.817 26.6132C189.715 27.0535 189.487 27.46 189.173 27.7818C188.86 28.0951 188.479 28.3322 188.056 28.4762C187.658 28.6201 187.243 28.7048 186.819 28.7302C186.579 28.7503 186.344 28.7614 186.111 28.7725C185.951 28.7801 185.792 28.7876 185.634 28.798C184.863 28.8149 184.092 28.9673 183.356 29.2383ZM190.845 35.1267C190.878 35.1 190.911 35.0735 190.943 35.0477C190.664 35.1747 190.376 35.2764 190.097 35.3441C189.953 35.3695 189.809 35.3949 189.665 35.4034L189.453 35.3949C189.385 35.3949 189.318 35.3864 189.25 35.3695C188.19 35.1894 188.048 34.1315 187.925 33.2147C187.898 33.0105 187.871 32.8132 187.836 32.6343C187.768 32.304 187.666 31.9822 187.531 31.6773C187.378 31.3471 187.167 31.0507 186.904 30.8051C186.642 30.568 186.337 30.3817 186.006 30.2462C185.693 30.1192 185.363 30.0345 185.024 29.9922C184.372 29.916 183.703 29.9668 183.068 30.1446C182.458 30.314 181.874 30.568 181.324 30.8898C180.79 31.2116 180.29 31.5842 179.833 32.0076C179.874 31.9735 180.097 32.0109 180.217 32.0311C180.246 32.0359 180.269 32.0399 180.282 32.0415L180.305 32.0442C180.442 32.0602 180.586 32.0771 180.722 32.1092C181.01 32.1685 181.298 32.2532 181.569 32.3717C181.959 32.5665 182.314 32.829 182.619 33.1424C182.722 33.2421 182.819 33.3496 182.915 33.4573C183.065 33.6239 183.215 33.791 183.39 33.9299C183.635 34.1331 183.932 34.2602 184.245 34.3025C184.465 34.3279 184.694 34.311 184.906 34.2348C185.007 34.2009 185.109 34.1501 185.202 34.0908C185.295 34.0315 185.38 33.9638 185.456 33.8791C185.6 33.7182 185.693 33.5234 185.727 33.3117C185.769 33.1085 185.752 32.9052 185.676 32.7105C185.6 32.5242 185.456 32.3717 185.278 32.2871C185.439 32.3887 185.541 32.5496 185.583 32.7359C185.617 32.9137 185.6 33.0915 185.541 33.2609C185.481 33.4218 185.388 33.5658 185.253 33.6759C185.194 33.7267 185.126 33.769 185.05 33.8029C184.973 33.8368 184.889 33.8622 184.812 33.8706C183.872 34.0231 183.127 32.9052 183.644 32.1092C183.839 31.8044 184.169 31.6435 184.525 31.6011C185.388 31.4995 186.125 32.0669 186.557 32.7698C186.738 33.0694 186.874 33.3941 187.011 33.7192C187.099 33.927 187.186 34.1349 187.285 34.3364C187.658 35.0985 188.301 35.7675 189.199 35.7845C189.529 35.7845 189.859 35.7082 190.156 35.5643C190.3 35.4965 190.435 35.4203 190.571 35.3356C190.669 35.2683 190.758 35.1965 190.845 35.1267ZM183.381 33.9382C183.153 33.7604 182.95 33.5486 182.772 33.32C182.966 33.5402 183.17 33.7434 183.381 33.9382Z" fill="#591818"/>
<path fill-rule="evenodd" clip-rule="evenodd" d="M284 24C284 35.0457 275.046 44 264 44C252.954 44 244 35.0457 244 24C244 12.9543 252.954 4 264 4C275.046 4 284 12.9543 284 24ZM254 28.9891C254 29.6882 254.366 30.3391 254.963 30.7047L263.373 35.8515C263.848 36.1423 264.467 35.9929 264.758 35.518C264.854 35.3605 264.905 35.1764 264.905 34.9924V30.9475C264.905 30.3499 264.587 29.8002 264.072 29.4987L255.262 24.3626C254.862 24.1278 254.347 24.2638 254.115 24.6641C254.04 24.7922 254 24.9362 254 25.0856V28.9891ZM268.928 24.7414C268.928 24.1438 268.611 23.5941 268.096 23.2926L259.288 18.1565C258.888 17.9217 258.373 18.0578 258.141 18.458C258.066 18.5861 258.026 18.7302 258.026 18.8796V24.0237L265.764 28.6529C266.271 28.9571 266.58 29.504 266.58 30.0937V34.6509C266.607 34.6428 266.634 34.6322 266.658 34.6188L268.587 33.5329C268.797 33.4155 268.928 33.1914 268.928 32.9485V24.7414ZM272.786 18.6822C272.786 18.0845 272.469 17.5295 271.951 17.2307L263.144 12.1133C262.743 11.8811 262.228 12.0172 261.996 12.4174C261.924 12.5455 261.884 12.6896 261.884 12.839V17.719L269.793 22.4628C270.297 22.767 270.606 23.3114 270.606 23.901V32.2468L272.434 31.2596C272.65 31.1422 272.786 30.9155 272.786 30.67V18.6822Z" fill="#591818"/>
<path d="M339.12 27.2231L344 19.4729L348.88 27.2232L339.12 27.2231Z" fill="#591818"/>
<path fill-rule="evenodd" clip-rule="evenodd" d="M364 24C364 35.0457 355.046 44 344 44C332.954 44 324 35.0457 324 24C324 12.9543 332.954 4 344 4C355.046 4 364 12.9543 364 24ZM332.04 30.9915C331.977 30.8893 331.986 30.7488 332.083 30.5941L343.645 12.2325C343.743 12.0776 343.871 12.0002 344 12C344.128 12.0002 344.257 12.0776 344.355 12.2327L355.916 30.5943C356.014 30.749 356.023 30.8898 355.959 30.9919C355.895 31.0942 355.758 31.1577 355.563 31.1577H332.437C332.242 31.1577 332.104 31.0939 332.04 30.9915Z" fill="#591818"/>
<path fill-rule="evenodd" clip-rule="evenodd" d="M444 24C444 35.0457 435.046 44 424 44C412.954 44 404 35.0457 404 24C404 12.9543 412.954 4 424 4C435.046 4 444 12.9543 444 24ZM419.5 38.5001C420 38.5001 420.333 38.3334 420.333 37.8334V36.6667C420.333 36.3334 420.167 36.0001 419.833 35.8334C415.167 34.1667 411.667 29.5001 411.667 24.1667C411.667 18.8334 415 14.3334 419.833 12.5001C420.167 12.3334 420.333 12.0001 420.333 11.6667V10.5001C420.333 10.0001 420 9.66673 419.5 9.83339C413.333 11.8334 409 17.5001 409 24.1667C409 30.8334 413.333 36.5001 419.5 38.5001ZM424.666 34.3332C424.999 34.3332 425.333 33.9998 425.333 33.6665V31.6665C427.833 31.1665 429.499 29.3332 429.499 27.1665C429.499 24.3332 427.833 23.3332 424.333 22.8332C421.833 22.4998 421.333 21.8332 421.333 20.6665C421.333 19.4998 422.166 18.6665 423.833 18.6665C425.333 18.6665 426.166 19.1665 426.499 20.3332C426.666 20.6665 426.833 20.8332 427.166 20.8332H428.499C428.833 20.8332 428.999 20.4998 428.999 20.1665C428.666 18.3332 427.333 17.1665 425.333 16.8332V14.8332C425.333 14.4998 424.999 14.1665 424.666 14.1665H423.333C422.999 14.1665 422.666 14.4998 422.666 14.8332V16.8332C420.333 17.1665 418.666 18.8332 418.666 20.9998C418.666 23.8332 420.333 24.8332 423.833 25.3332C426.166 25.6665 426.833 26.1665 426.833 27.4998C426.833 28.8332 425.666 29.6665 423.999 29.6665C421.833 29.6665 421.166 28.6665 420.833 27.4998C420.666 27.1665 420.499 26.9998 420.166 26.9998H418.666C418.333 26.9998 418.166 27.3332 418.166 27.6665C418.666 29.8332 419.999 31.3332 422.666 31.6665V33.6665C422.666 33.9998 422.999 34.3332 423.333 34.3332H424.666ZM428.499 38.5002C427.999 38.6668 427.666 38.3335 427.666 37.8335V36.6668C427.666 36.3335 427.833 36.0002 428.166 35.8335C432.999 34.0002 436.333 29.5002 436.333 24.1668C436.333 18.8335 432.833 14.1668 428.166 12.5002C427.833 12.3335 427.666 12.0002 427.666 11.6668V10.5002C427.666 10.0002 427.999 9.8335 428.499 9.8335C434.499 11.8335 438.999 17.5002 438.999 24.1668C438.999 30.8335 434.666 36.5002 428.499 38.5002Z" fill="#591818"/>
<path fill-rule="evenodd" clip-rule="evenodd" d="M524 24C524 12.956 515.044 4 504 4C492.956 4 484 12.956 484 24C484 35.044 492.956 44 504 44C515.044 44 524 35.044 524 24ZM506.805 22.82L512.401 21.336L511.901 19.524L509.605 20.036C509.605 20.036 510.081 18.816 510.193 17.9C510.841 13.012 506.661 10.92 504.949 10.848C501.545 10.688 499.613 12.208 498.633 13.792C496.813 16.96 497.821 19.236 498.409 20.388C499.169 21.844 502.117 23.92 502.117 23.92L502.265 21.712C499.625 19.728 499.237 18.212 499.581 16.164C500.393 12.984 503.117 12.588 504.289 12.756L504.395 12.7727C505.652 12.968 506.217 13.0559 507.373 14.34C509.389 16.908 507.877 19.388 507.877 19.388L507.221 16.636L505.557 17.012L506.805 22.82ZM503.176 15.792V32.432H504.988V15.792H503.176ZM509.205 34.3562C508.181 35.9122 506.209 37.3802 502.813 37.1322C501.101 37.0162 496.981 34.8122 497.757 29.9442C497.893 29.0322 498.401 27.8282 498.401 27.8282L496.093 28.2762L495.641 26.4562L501.277 25.1202L502.373 30.9602L500.697 31.2922L500.113 28.5202C500.113 28.5202 498.537 30.9562 500.481 33.5802C501.599 34.893 502.16 34.9952 503.41 35.2234L503.525 35.2442C504.689 35.4442 507.425 35.1162 508.321 31.9602C508.717 29.9242 508.369 28.3962 505.785 26.3402L505.993 24.1362C505.993 24.1362 508.885 26.2882 509.605 27.7642C510.157 28.9362 511.105 31.2402 509.205 34.3562Z" fill="#591818"/>
<path fill-rule="evenodd" clip-rule="evenodd" d="M584 44C595.046 44 604 35.0457 604 24C604 12.9543 595.046 4 584 4C572.954 4 564 12.9543 564 24C564 35.0457 572.954 44 584 44ZM596 23.2853H585.891L588.047 26.7134L580.211 32.9776L596 23.3463V23.2853ZM579.995 33.1047V14L572 26.7134L579.995 33.1047Z" fill="#591818"/>
<path d="M672.231 24.8471C673.206 23.8718 673.844 22.6105 674.052 21.2471H668.631V26.6682C669.994 26.4604 671.255 25.8223 672.231 24.8471Z" fill="#591818"/>
<path d="M653.95 26.7388C654.158 25.3782 654.794 24.1191 655.766 23.1444C656.741 22.1664 658.004 21.5263 659.369 21.3176V26.7388H653.95Z" fill="#591818"/>
<path d="M664.521 32.5613C665.69 31.553 666.457 30.1578 666.682 28.6306H653.948C654.414 31.7788 657.111 34.1224 660.315 34.1224C661.859 34.1236 663.352 33.5695 664.521 32.5613Z" fill="#591818"/>
<path d="M666.753 26.7388V21.2471H661.247V26.7388H666.753Z" fill="#591818"/>
<path d="M661.318 19.3694H674.052C673.586 16.2212 670.889 13.8776 667.685 13.8776C666.141 13.8764 664.648 14.4305 663.479 15.4387C662.31 16.447 661.543 17.8422 661.318 19.3694Z" fill="#591818"/>
<path fill-rule="evenodd" clip-rule="evenodd" d="M684 24C684 35.0457 675.046 44 664 44C652.954 44 644 35.0457 644 24C644 12.9543 652.954 4 664 4C675.046 4 684 12.9543 684 24ZM659.426 19.4259C659.878 15.2471 663.464 12 667.685 12C672.273 12 676 15.7271 676 20.3153C676 24.5365 672.753 28.1224 668.574 28.5741C668.136 32.7529 664.536 36 660.315 36C655.727 36 652 32.2729 652 27.6847C652 23.4635 655.247 19.8776 659.426 19.4259Z" fill="#591818"/>
</g>
</svg>
