<svg xmlns="http://www.w3.org/2000/svg" width="32" height="32" viewBox="0 0 32 32" fill="none">
  <circle cx="16" cy="16" r="16" fill="#F3F7F9"/>
  <path d="M14.1869 7.73812C15.029 8.23193 15.7723 8.86609 16.1881 9.76535L19.598 7.73812L23.5745 9.6458L24.479 13.1337L16.3389 23.275L14.6027 24.928L8.1156 16.9802C7.78292 16.6008 7.45545 16.1693 7.13837 15.6911C6.80569 15.2181 6.5354 14.7191 6.33267 14.1941C6.10916 13.6691 6 13.1545 6 12.6451C6 11.4859 6.21832 10.4879 6.66535 9.6458C7.09159 8.80372 7.70495 8.15396 8.49505 7.69134C9.29035 7.23391 10.226 7 11.3072 7C12.3728 7 13.3292 7.24951 14.1869 7.73812Z" fill="#F9347B"/>
  <path d="M14.8156 25.2399C15.0547 25.4738 15.351 25.5933 15.6992 25.5933L24.5099 25.4686C24.8634 25.4686 25.1856 25.4218 25.3936 25.1099C25.6639 24.7045 24.9465 23.1503 24.0005 23.0411C23.0597 22.9268 20.4139 22.9216 18.9064 22.7864C18.7869 22.776 18.7557 22.6045 18.7973 22.4901C18.9064 22.1678 23.2936 16.975 23.2936 16.975C23.6262 16.5956 23.9537 16.1641 24.2708 15.6911C24.6035 15.2129 24.8738 14.7139 25.0817 14.1889C25.3 13.6639 25.4144 13.1493 25.4144 12.6399C25.4144 11.4807 25.1908 10.4827 24.7438 9.6406C24.3176 8.79852 23.7042 8.14876 22.9141 7.69134C22.1188 7.22871 21.1832 7 20.102 7C19.0416 7 18.0799 7.24431 17.2223 7.73812C16.3802 8.22673 15.6369 8.86609 15.221 9.76015C14.9767 10.2852 14.8364 11.1376 14.9767 11.7146C15.0963 12.1876 15.2158 12.3072 15.5745 12.4267C15.9332 12.5463 16.0475 12.2864 16.1671 11.7146C16.2866 11.1428 16.4842 10.4983 16.7648 10.046C17.1235 9.47426 17.7837 9.05322 18.3139 8.8557C18.7609 8.68936 19.5042 8.54901 20.102 8.61659C21.1676 8.73614 21.9213 9.1156 22.4775 9.76015C23.0389 10.4047 23.4703 11.4755 23.3455 12.2864L23.3403 12.3124C23.2676 12.8114 23.1636 13.4923 22.9141 13.9758C22.6594 14.4696 21.8849 15.4416 21.4067 15.9978L14.8156 23.5245C14.5973 23.748 14.4829 24.0287 14.4829 24.3822C14.4829 24.7149 14.5973 25.0008 14.8156 25.2399Z" fill="black"/>
  <path d="M8.28692 18.7423C8.28692 18.6852 8.28692 18.4824 8.28692 18.1446C8.30251 17.7859 8.30771 17.3857 8.30771 16.9438C8.3233 16.4864 8.3233 16.0394 8.30771 15.6131C8.30771 15.1713 8.29211 14.8282 8.26612 14.5839C8.23494 14.272 8.22974 13.9913 8.24533 13.747C8.27132 13.5079 8.28692 13.2324 8.28692 12.9361C8.28692 12.7334 8.29211 12.5567 8.30771 12.4007C8.3233 12.2292 8.35969 12.0837 8.41687 11.9693C8.47404 11.8394 8.56241 11.751 8.69236 11.6938C8.82231 11.621 9.00944 11.5847 9.24855 11.5847C9.47726 11.5847 9.70078 11.6626 9.9139 11.8186C10.1426 11.9797 10.2778 12.1928 10.3193 12.4631L10.6416 16.7255L10.7092 22.173L13.5785 22.0847C13.6773 22.0847 13.8228 22.1367 14.0099 22.2354C14.2075 22.3186 14.3062 22.4277 14.3062 22.5577C14.3062 22.672 14.2594 22.7708 14.1555 22.854C14.0567 22.9268 13.9372 22.9943 13.7916 23.0515C13.6669 23.0931 13.5265 23.1295 13.3862 23.1555C13.2562 23.1711 13.1627 23.1763 13.1055 23.1763C12.9911 23.1919 12.8196 23.2074 12.5909 23.223C12.3622 23.223 12.1231 23.223 11.8632 23.223C11.624 23.223 11.3849 23.223 11.1562 23.223C10.9275 23.223 10.756 23.223 10.6416 23.223C10.5013 23.2906 10.3297 23.3218 10.127 23.3062C9.92949 23.2906 9.76316 23.2854 9.6384 23.2854H8.97306C8.8587 23.2854 8.72875 23.2542 8.5884 23.197C8.45845 23.1295 8.35969 23.0515 8.28692 22.9631V18.7423Z" fill="black"/>
</svg>
