<svg width="140" height="22" viewBox="0 0 140 22" fill="none" xmlns="http://www.w3.org/2000/svg">
<path fill-rule="evenodd" clip-rule="evenodd" d="M30.0167 11.0263C30.0167 7.7029 32.6647 5.01514 36.3828 5.01514C40.1009 5.01514 42.7489 7.72106 42.7489 11.0263C42.7489 14.3497 40.1009 17.0374 36.3828 17.0374C32.6647 17.0374 30.0167 14.3497 30.0167 11.0263ZM33.6441 11.0263C33.6441 12.6244 34.7868 13.932 36.401 13.932C38.0152 13.932 39.1578 12.6244 39.1578 11.0263C39.1578 9.42816 38.0152 8.1206 36.401 8.1206C34.7868 8.1206 33.6441 9.42816 33.6441 11.0263ZM75.7767 5.32465H72.1492V16.7477H75.7767V5.32465ZM92.8072 13.8417C91.193 13.8417 90.0504 15.1493 90.0504 16.7474H95.5822C95.5641 15.1493 94.4214 13.8417 92.8072 13.8417ZM53.3771 6.55884C52.5791 5.56001 51.4183 5.01519 49.8948 5.01519C46.7208 5.01519 44.2904 7.70296 44.2904 11.0263C44.2904 14.3497 46.7208 17.0375 49.8948 17.0375C51.4002 17.0375 52.5609 16.4745 53.3771 15.4757V16.7288H57.0045V5.30576H53.3771V6.55884ZM50.6565 13.932C49.0423 13.932 47.8997 12.6245 47.8997 11.0263C47.8997 9.42822 49.0423 8.12065 50.6565 8.12065C52.2707 8.12065 53.3771 9.42822 53.3771 11.0263C53.3771 12.6245 52.2707 13.932 50.6565 13.932ZM102.003 5.01519C103.526 5.01519 104.687 5.56001 105.485 6.55884V5.30576H109.112V16.7288H105.485V15.4757C104.669 16.4745 103.508 17.0375 102.003 17.0375C98.8288 17.0375 96.3984 14.3497 96.3984 11.0263C96.3984 7.70296 98.8288 5.01519 102.003 5.01519ZM100.008 11.0263C100.008 12.6245 101.15 13.932 102.764 13.932C104.379 13.932 105.485 12.6245 105.485 11.0263C105.485 9.42822 104.379 8.12065 102.764 8.12065C101.15 8.12065 100.008 9.42822 100.008 11.0263ZM119.269 5.01519C117.764 5.01519 116.603 5.56001 115.787 6.55884V5.32393H112.16V19.9069H115.787V15.4939C116.585 16.4927 117.746 17.0557 119.269 17.0557C122.443 17.0557 124.874 14.3679 124.874 11.0445C124.874 7.72112 122.461 5.01519 119.269 5.01519ZM118.526 13.932C116.911 13.932 115.805 12.6245 115.805 11.0263C115.805 9.42822 116.911 8.12065 118.526 8.12065C120.14 8.12065 121.282 9.42822 121.282 11.0263C121.282 12.6245 120.14 13.932 118.526 13.932ZM130.913 6.55884C131.729 5.56001 132.89 5.01519 134.396 5.01519C137.57 5.01519 140 7.72112 140 11.0445C140 14.3679 137.57 17.0557 134.396 17.0557C132.872 17.0557 131.711 16.4927 130.913 15.4939V19.9069H127.286V5.32393H130.913V6.55884ZM130.913 11.0263C130.913 12.6245 132.02 13.932 133.634 13.932C135.248 13.932 136.409 12.6245 136.391 11.0263C136.391 9.42822 135.248 8.12065 133.634 8.12065C132.02 8.12065 130.913 9.42822 130.913 11.0263ZM63.1532 8.17575C63.1532 7.66725 63.6247 7.30404 64.4591 7.30404C65.4022 7.30404 66.0007 7.90335 66.0007 8.77505H69.5193C69.356 6.59578 68.286 5.05213 64.4591 5.05213C60.614 5.05213 59.5802 7.06796 59.5802 8.43C59.5802 10.9807 62.0075 11.6784 63.9103 12.2254C65.137 12.578 66.1458 12.8679 66.1458 13.5513C66.1458 14.2959 65.6017 14.6228 64.5679 14.6228C63.4252 14.6228 62.8267 13.8782 62.863 13.0428H59.29C59.562 16.0211 61.2669 17.0381 64.4046 17.0381C68.7938 17.0381 69.6644 14.9678 69.6644 13.4242C69.6751 10.9588 67.4048 10.2776 65.5425 9.71872C64.2495 9.33075 63.1532 9.00177 63.1532 8.17575ZM83.3577 7.30404C82.5234 7.30404 82.0518 7.66725 82.0518 8.17575C82.0518 9.00209 83.149 9.331 84.4438 9.71917C86.3077 10.2779 88.5811 10.9595 88.5811 13.4242C88.5811 14.9678 87.7106 17.0381 83.3214 17.0381C80.1837 17.0381 78.4788 16.0211 78.2067 13.0428H81.7616C81.7253 13.8782 82.3239 14.6228 83.4665 14.6228C84.5003 14.6228 85.0444 14.2959 85.0444 13.5513C85.0444 12.8679 84.0357 12.578 82.809 12.2254C80.9061 11.6784 78.4788 10.9807 78.4788 8.43C78.4788 7.06796 79.5308 5.05213 83.3577 5.05213C87.1846 5.05213 88.2547 6.59578 88.4179 8.77505H84.8993C84.8993 7.90335 84.3008 7.30404 83.3577 7.30404Z" fill="#25273D"/>
<path fill-rule="evenodd" clip-rule="evenodd" d="M0 8.82958C0.997538 4.28943 5.0421 0.875244 9.88469 0.875244C15.4709 0.875244 20.0052 5.39723 19.9689 10.9907C19.9689 12.1711 19.7694 13.2971 19.4066 14.3504C18.8807 12.7886 17.9557 11.2994 16.7042 10.0827C15.743 9.13831 14.6185 8.37556 13.3851 7.84891C12.0611 7.26777 10.6283 6.9772 9.15921 6.9772C8.19795 6.9772 7.21855 7.12248 6.27542 7.41305C6.20287 7.44938 6.14846 7.46753 6.07591 7.4857C7.23668 5.90572 9.03225 4.59816 11.4263 4.16231C6.92835 3.8899 2.84752 5.45171 0 8.82958ZM0.616746 15.0774C1.77752 11.8448 5.2417 8.81203 9.1593 8.81203C14.274 8.81203 17.847 13.0071 18.119 16.8572C18.1009 16.8935 18.1009 16.9117 18.1009 16.9298C16.3416 19.3633 13.5122 20.9978 10.3201 21.1249C10.6465 18.5461 11.8436 15.3862 12.7504 14.4418C10.6828 15.8039 8.90538 17.9286 7.40001 20.8343C6.31178 20.5619 5.29611 20.1079 4.37112 19.5086C5.22356 16.6574 6.87403 13.9333 8.08921 12.5531C6.45688 13.0071 3.89955 15.5678 2.37604 17.8015C1.65056 17.0025 1.05204 16.0763 0.616746 15.0774Z" fill="url(#paint0_radial_701_7693)"/>
<defs>
<radialGradient id="paint0_radial_701_7693" cx="0" cy="0" r="1" gradientUnits="userSpaceOnUse" gradientTransform="translate(2.34342 3.22204) rotate(49.7264) scale(20.3007 112.904)">
<stop stop-color="#B67CFF"/>
<stop offset="0.616524" stop-color="#878BFC"/>
<stop offset="1" stop-color="#526EFF"/>
</radialGradient>
</defs>
</svg>
