<svg width="18" height="18" viewBox="0 0 18 18" fill="none" xmlns="http://www.w3.org/2000/svg">
  <path fill-rule="evenodd" clip-rule="evenodd" d="M0 6.77604C0.849771 2.90844 4.2952 0 8.42045 0C13.1792 0 17.0418 3.85213 17.0109 8.61702C17.0109 9.6226 16.8409 10.5818 16.5319 11.479C16.0838 10.1486 15.2959 8.88002 14.2298 7.8435C13.4109 7.03904 12.453 6.38928 11.4024 5.94064C10.2745 5.44559 9.05392 5.19806 7.80244 5.19806C6.98357 5.19806 6.14925 5.32182 5.34583 5.56935C5.28403 5.60029 5.23768 5.61576 5.17588 5.63123C6.1647 4.2853 7.69428 3.17144 9.73373 2.80015C5.90204 2.56809 2.42571 3.89854 0 6.77604ZM0.525456 12.0983C1.51428 9.34452 4.4653 6.76096 7.80258 6.76096C12.1596 6.76096 15.2033 10.3346 15.4351 13.6144C15.4196 13.6453 15.4196 13.6608 15.4196 13.6762C13.9209 15.7493 11.5107 17.1416 8.79141 17.2499C9.06952 15.0531 10.0892 12.3612 10.8618 11.5568C9.10042 12.7171 7.58628 14.5271 6.3039 17.0024C5.37688 16.7703 4.51165 16.3836 3.72368 15.873C4.44985 13.4442 5.85584 11.1236 6.89101 9.94786C5.50048 10.3346 3.32197 12.516 2.02414 14.4188C1.40613 13.7381 0.896265 12.9491 0.525456 12.0983Z" fill="white"/>
</svg>
