<svg width="126" height="33" viewBox="0 0 126 33" fill="none" xmlns="http://www.w3.org/2000/svg">
<path fill-rule="evenodd" clip-rule="evenodd" d="M26.7286 16.201C26.7286 13.3524 28.9984 11.0486 32.1853 11.0486C35.3722 11.0486 37.642 13.368 37.642 16.201C37.642 19.0496 35.3722 21.3534 32.1853 21.3534C28.9984 21.3534 26.7286 19.0496 26.7286 16.201ZM29.8378 16.201C29.8378 17.5708 30.8173 18.6916 32.2008 18.6916C33.5844 18.6916 34.5638 17.5708 34.5638 16.201C34.5638 14.8312 33.5844 13.7104 32.2008 13.7104C30.8173 13.7104 29.8378 14.8312 29.8378 16.201ZM65.9514 11.3137H62.8422V21.1049H65.9514V11.3137ZM80.5491 18.614C79.1655 18.614 78.1861 19.7348 78.1861 21.1046H82.9276C82.9121 19.7348 81.9327 18.614 80.5491 18.614ZM46.7518 12.3717C46.0678 11.5156 45.0729 11.0486 43.767 11.0486C41.0464 11.0486 38.9633 13.3524 38.9633 16.201C38.9633 19.0496 41.0464 21.3534 43.767 21.3534C45.0573 21.3534 46.0523 20.8709 46.7518 20.0148V21.0888H49.861V11.2977H46.7518V12.3717ZM44.4199 18.6916C43.0363 18.6916 42.0569 17.5709 42.0569 16.201C42.0569 14.8312 43.0363 13.7104 44.4199 13.7104C45.8035 13.7104 46.7518 14.8312 46.7518 16.201C46.7518 17.5709 45.8035 18.6916 44.4199 18.6916ZM88.4309 11.0486C89.7368 11.0486 90.7317 11.5156 91.4157 12.3717V11.2977H94.525V21.0888H91.4157V20.0148C90.7162 20.8709 89.7212 21.3534 88.4309 21.3534C85.7104 21.3534 83.6272 19.0496 83.6272 16.201C83.6272 13.3524 85.7104 11.0486 88.4309 11.0486ZM86.7208 16.201C86.7208 17.5709 87.7002 18.6916 89.0838 18.6916C90.4674 18.6916 91.4157 17.5709 91.4157 16.201C91.4157 14.8312 90.4674 13.7104 89.0838 13.7104C87.7002 13.7104 86.7208 14.8312 86.7208 16.201ZM103.231 11.0486C101.94 11.0486 100.946 11.5156 100.246 12.3717V11.3132H97.1367V23.8129H100.246V20.0303C100.93 20.8865 101.925 21.369 103.231 21.369C105.951 21.369 108.035 19.0652 108.035 16.2166C108.035 13.368 105.967 11.0486 103.231 11.0486ZM102.593 18.6916C101.21 18.6916 100.261 17.5709 100.261 16.201C100.261 14.8312 101.21 13.7104 102.593 13.7104C103.977 13.7104 104.956 14.8312 104.956 16.201C104.956 17.5709 103.977 18.6916 102.593 18.6916ZM113.211 12.3717C113.911 11.5156 114.906 11.0486 116.196 11.0486C118.917 11.0486 121 13.368 121 16.2166C121 19.0652 118.917 21.369 116.196 21.369C114.89 21.369 113.895 20.8865 113.211 20.0303V23.8129H110.102V11.3132H113.211V12.3717ZM113.211 16.201C113.211 17.5709 114.16 18.6916 115.543 18.6916C116.927 18.6916 117.922 17.5709 117.906 16.201C117.906 14.8312 116.927 13.7104 115.543 13.7104C114.16 13.7104 113.211 14.8312 113.211 16.201ZM55.1313 13.7576C55.1313 13.3218 55.5355 13.0104 56.2506 13.0104C57.059 13.0104 57.5721 13.5241 57.5721 14.2713H60.588C60.4481 12.4034 59.5309 11.0802 56.2506 11.0802C52.9549 11.0802 52.0688 12.8081 52.0688 13.9755C52.0688 16.1619 54.1493 16.7599 55.7803 17.2287C56.8318 17.5309 57.6964 17.7795 57.6964 18.3652C57.6964 19.0034 57.23 19.2836 56.3439 19.2836C55.3645 19.2836 54.8515 18.6454 54.8826 17.9294H51.82C52.0532 20.4822 53.5145 21.3539 56.204 21.3539C59.9661 21.3539 60.7124 19.5794 60.7124 18.2563C60.7215 16.1431 58.7756 15.5592 57.1793 15.0802C56.071 14.7476 55.1313 14.4656 55.1313 13.7576ZM72.4494 13.0104C71.7343 13.0104 71.3301 13.3218 71.3301 13.7576C71.3301 14.4659 72.2706 14.7478 73.3804 15.0805C74.978 15.5595 76.9267 16.1437 76.9267 18.2563C76.9267 19.5794 76.1805 21.3539 72.4184 21.3539C69.7289 21.3539 68.2676 20.4822 68.0344 17.9294H71.0814C71.0503 18.6454 71.5633 19.2836 72.5427 19.2836C73.4288 19.2836 73.8952 19.0034 73.8952 18.3652C73.8952 17.7795 73.0306 17.5309 71.9791 17.2287C70.3481 16.7599 68.2676 16.1619 68.2676 13.9755C68.2676 12.8081 69.1692 11.0802 72.4494 11.0802C75.7297 11.0802 76.6469 12.4034 76.7868 14.2713H73.7709C73.7709 13.5241 73.2578 13.0104 72.4494 13.0104Z" fill="#25273D"/>
<path fill-rule="evenodd" clip-rule="evenodd" d="M1 14.318C1.85503 10.4264 5.3218 7.5 9.4726 7.5C14.2608 7.5 18.1473 11.376 18.1162 16.1704C18.1162 17.1822 17.9452 18.1473 17.6343 19.0501C17.1834 17.7114 16.3906 16.435 15.3179 15.3921C14.494 14.5826 13.5301 13.9288 12.473 13.4774C11.3381 12.9793 10.11 12.7302 8.85075 12.7302C8.02681 12.7302 7.18733 12.8548 6.37893 13.1038C6.31675 13.135 6.27011 13.1505 6.20793 13.1661C7.20287 11.8118 8.74193 10.6911 10.794 10.3175C6.93859 10.084 3.44073 11.4227 1 14.318ZM1.52863 19.6733C2.52358 16.9025 5.49287 14.3029 8.85082 14.3029C13.2348 14.3029 16.2974 17.8987 16.5306 21.1988C16.515 21.2299 16.515 21.2455 16.515 21.261C15.0071 23.3469 12.5819 24.7479 9.84577 24.8568C10.1256 22.6464 11.1516 19.9379 11.9289 19.1284C10.1567 20.2959 8.63317 22.1172 7.34285 24.6078C6.41009 24.3743 5.53951 23.9851 4.74666 23.4714C5.47732 21.0275 6.89201 18.6926 7.9336 17.5096C6.53445 17.8987 4.34246 20.0936 3.03659 22.0082C2.41475 21.3233 1.90173 20.5294 1.52863 19.6733Z" fill="#25273D"/>
</svg>
