<svg width="32" height="34" viewBox="0 0 32 34" fill="none" xmlns="http://www.w3.org/2000/svg">
<path fill-rule="evenodd" clip-rule="evenodd" d="M0 13.5218C1.59853 6.24633 8.07984 0.775177 15.84 0.775177C24.7917 0.775177 32.0578 8.02154 31.9997 16.9849C31.9997 18.8765 31.6799 20.6809 31.0987 22.3688C30.2558 19.866 28.7735 17.4797 26.7681 15.5298C25.2277 14.0165 23.4257 12.7943 21.4494 11.9503C19.3277 11.019 17.0316 10.5534 14.6774 10.5534C13.137 10.5534 11.5675 10.7862 10.0562 11.2519C9.93995 11.3101 9.85276 11.3392 9.7365 11.3683C11.5966 8.8364 14.474 6.74106 18.3104 6.04262C11.1025 5.60609 4.56308 8.10885 0 13.5218ZM0.988281 23.5339C2.84839 18.3537 8.39965 13.4937 14.6775 13.4937C22.8736 13.4937 28.5993 20.2162 29.0352 26.3858C29.0062 26.444 29.0061 26.4732 29.0061 26.5023C26.1869 30.4019 21.6529 33.0211 16.5376 33.2248C17.0608 29.0923 18.979 24.0286 20.4322 22.5153C17.1189 24.6979 14.2706 28.1029 11.8583 32.7592C10.1144 32.3226 8.48684 31.5951 7.00456 30.6347C8.37058 26.0657 11.0154 21.7004 12.9627 19.4887C10.3469 20.2162 6.2489 24.3196 3.80751 27.8991C2.64494 26.6187 1.68582 25.1345 0.988281 23.5339Z" fill="url(#paint0_radial_1116_1919)"/>
<defs>
<radialGradient id="paint0_radial_1116_1919" cx="0" cy="0" r="1" gradientUnits="userSpaceOnUse" gradientTransform="translate(3.75527 4.53587) rotate(49.7265) scale(32.5315 180.926)">
<stop stop-color="#B67CFF"/>
<stop offset="0.616524" stop-color="#878BFC"/>
<stop offset="1" stop-color="#526EFF"/>
</radialGradient>
</defs>
</svg>
