<svg width="70" height="57" viewBox="0 0 70 57" fill="none" xmlns="http://www.w3.org/2000/svg">
<path fill-rule="evenodd" clip-rule="evenodd" d="M43.2481 52.2086C44.1 51.6113 44.1 50.3493 43.2481 49.7521L36.8611 45.2744C35.867 44.5775 34.5 45.2886 34.5 46.5026V55.458C34.5 56.6721 35.867 57.3832 36.8611 56.6863L43.2481 52.2086ZM25.5 53.7478C26.8807 53.7478 28 52.6285 28 51.2478C28 49.8671 26.8807 48.7478 25.5 48.7478C24.1193 48.7478 23 49.8671 23 51.2478C23 52.6285 24.1193 53.7478 25.5 53.7478ZM17 51.2478C17 52.6285 15.8807 53.7478 14.5 53.7478C13.1193 53.7478 12 52.6285 12 51.2478C12 49.8671 13.1193 48.7478 14.5 48.7478C15.8807 48.7478 17 49.8671 17 51.2478ZM2.5 53.7478C3.88071 53.7478 5 52.6285 5 51.2478C5 49.8671 3.88071 48.7478 2.5 48.7478C1.11929 48.7478 0 49.8671 0 51.2478C0 52.6285 1.11929 53.7478 2.5 53.7478Z" fill="url(#paint0_linear_2484_13255)"/>
<path fill-rule="evenodd" clip-rule="evenodd" d="M69.2481 29.2086C70.1 28.6113 70.1 27.3493 69.2481 26.7521L62.8611 22.2744C61.867 21.5775 60.5 22.2886 60.5 23.5026V32.458C60.5 33.6721 61.867 34.3832 62.8611 33.6863L69.2481 29.2086ZM51.5 30.7478C52.8807 30.7478 54 29.6285 54 28.2478C54 26.8671 52.8807 25.7478 51.5 25.7478C50.1193 25.7478 49 26.8671 49 28.2478C49 29.6285 50.1193 30.7478 51.5 30.7478ZM43 28.2478C43 29.6285 41.8807 30.7478 40.5 30.7478C39.1193 30.7478 38 29.6285 38 28.2478C38 26.8671 39.1193 25.7478 40.5 25.7478C41.8807 25.7478 43 26.8671 43 28.2478ZM28.5 30.7478C29.8807 30.7478 31 29.6285 31 28.2478C31 26.8671 29.8807 25.7478 28.5 25.7478C27.1193 25.7478 26 26.8671 26 28.2478C26 29.6285 27.1193 30.7478 28.5 30.7478Z" fill="url(#paint1_linear_2484_13255)"/>
<path fill-rule="evenodd" clip-rule="evenodd" d="M43.2481 7.20856C44.1 6.61131 44.1 5.34933 43.2481 4.75209L36.8611 0.274382C35.867 -0.422528 34.5 0.288585 34.5 1.50261V10.458C34.5 11.6721 35.867 12.3832 36.8611 11.6863L43.2481 7.20856ZM25.5 8.74779C26.8807 8.74779 28 7.62851 28 6.24779C28 4.86708 26.8807 3.74779 25.5 3.74779C24.1193 3.74779 23 4.86708 23 6.24779C23 7.62851 24.1193 8.74779 25.5 8.74779ZM17 6.2478C17 7.62851 15.8807 8.7478 14.5 8.7478C13.1193 8.7478 12 7.62851 12 6.2478C12 4.86709 13.1193 3.7478 14.5 3.7478C15.8807 3.7478 17 4.86709 17 6.2478ZM2.5 8.7478C3.88071 8.7478 5 7.62851 5 6.2478C5 4.86709 3.88071 3.7478 2.5 3.7478C1.11929 3.7478 0 4.86709 0 6.2478C0 7.62851 1.11929 8.7478 2.5 8.7478Z" fill="url(#paint2_linear_2484_13255)"/>
<defs>
<linearGradient id="paint0_linear_2484_13255" x1="43.887" y1="56.9606" x2="35.0352" y2="37.5378" gradientUnits="userSpaceOnUse">
<stop stop-color="#17344F"/>
<stop offset="1" stop-color="#899EB0"/>
</linearGradient>
<linearGradient id="paint1_linear_2484_13255" x1="69.887" y1="33.9606" x2="61.0352" y2="14.5378" gradientUnits="userSpaceOnUse">
<stop stop-color="#17344F"/>
<stop offset="1" stop-color="#899EB0"/>
</linearGradient>
<linearGradient id="paint2_linear_2484_13255" x1="43.887" y1="11.9606" x2="35.0352" y2="-7.46219" gradientUnits="userSpaceOnUse">
<stop stop-color="#17344F"/>
<stop offset="1" stop-color="#899EB0"/>
</linearGradient>
</defs>
</svg>
