<svg width="121" height="120" viewBox="0 0 121 120" fill="none" xmlns="http://www.w3.org/2000/svg">
  <path fill-rule="evenodd" clip-rule="evenodd" d="M27 109C26.3351 109 25.6808 108.957 25.0396 108.873C24.492 108.802 23.9901 109.188 23.9187 109.735C23.8472 110.283 24.2333 110.785 24.7809 110.856C25.5076 110.951 26.2484 111 27 111H29.4167C29.969 111 30.4167 110.552 30.4167 110C30.4167 109.448 29.969 109 29.4167 109H27ZM38.0833 110C38.0833 110.552 38.531 111 39.0833 111H43.9167C44.469 111 44.9167 110.552 44.9167 110C44.9167 109.448 44.469 109 43.9167 109H39.0833C38.531 109 38.0833 109.448 38.0833 110ZM52.5833 110C52.5833 110.552 53.0311 111 53.5833 111H58.4167C58.969 111 59.4167 110.552 59.4167 110C59.4167 109.448 58.969 109 58.4167 109H53.5833C53.0311 109 52.5833 109.448 52.5833 110ZM67.0833 110C67.0833 110.552 67.5311 111 68.0833 111H72.9167C73.469 111 73.9167 110.552 73.9167 110C73.9167 109.448 73.469 109 72.9167 109H68.0833C67.5311 109 67.0833 109.448 67.0833 110ZM81.5833 110C81.5833 110.552 82.0311 111 82.5833 111H85C85.7516 111 86.4924 110.951 87.2191 110.856C87.7667 110.785 88.1528 110.283 88.0814 109.735C88.0099 109.188 87.508 108.802 86.9604 108.873C86.3192 108.957 85.6649 109 85 109H82.5833C82.0311 109 81.5833 109.448 81.5833 110ZM18.0524 107.304C18.3889 106.866 18.3067 106.238 17.8688 105.901C16.8293 105.103 15.8973 104.171 15.0985 103.131C14.762 102.693 14.1342 102.611 13.6963 102.948C13.2584 103.284 13.1762 103.912 13.5127 104.35C14.4174 105.527 15.4728 106.583 16.6501 107.487C17.088 107.824 17.7159 107.742 18.0524 107.304ZM93.9476 107.304C94.2841 107.742 94.912 107.824 95.3499 107.487C96.5272 106.583 97.5826 105.527 98.4873 104.35C98.8238 103.912 98.7416 103.284 98.3037 102.948C97.8658 102.611 97.238 102.693 96.9015 103.131C96.1027 104.171 95.1707 105.103 94.1312 105.901C93.6933 106.238 93.6111 106.866 93.9476 107.304ZM11.2646 97.0813C11.8122 97.0099 12.1983 96.508 12.1268 95.9604C12.0432 95.3192 12 94.6649 12 94V91.5833C12 91.031 11.5523 90.5833 11 90.5833C10.4477 90.5833 10 91.031 10 91.5833V94C10 94.7516 10.0488 95.4924 10.1436 96.2191C10.2151 96.7667 10.7169 97.1528 11.2646 97.0813ZM100.735 97.0813C101.283 97.1528 101.785 96.7667 101.856 96.2191C101.951 95.4924 102 94.7516 102 94V91.5833C102 91.031 101.552 90.5833 101 90.5833C100.448 90.5833 100 91.031 100 91.5833V94C100 94.6649 99.9568 95.3192 99.8732 95.9604C99.8017 96.508 100.188 97.0099 100.735 97.0813ZM101 82.9167C101.552 82.9167 102 82.469 102 81.9167V77.0833C102 76.531 101.552 76.0833 101 76.0833C100.448 76.0833 100 76.531 100 77.0833V81.9167C100 82.469 100.448 82.9167 101 82.9167ZM11 82.9167C11.5523 82.9167 12 82.4689 12 81.9167V77.0833C12 76.531 11.5523 76.0833 11 76.0833C10.4477 76.0833 10 76.531 10 77.0833V81.9167C10 82.4689 10.4477 82.9167 11 82.9167ZM11 68.4167C11.5523 68.4167 12 67.969 12 67.4167V62.5833C12 62.031 11.5523 61.5833 11 61.5833C10.4477 61.5833 10 62.031 10 62.5833V67.4167C10 67.969 10.4477 68.4167 11 68.4167ZM101 68.4167C101.552 68.4167 102 67.9689 102 67.4167V62.5833C102 62.031 101.552 61.5833 101 61.5833C100.448 61.5833 100 62.031 100 62.5833V67.4167C100 67.9689 100.448 68.4167 101 68.4167ZM11 53.9167C11.5523 53.9167 12 53.4689 12 52.9167V48.0833C12 47.531 11.5523 47.0833 11 47.0833C10.4477 47.0833 10 47.531 10 48.0833V52.9167C10 53.4689 10.4477 53.9167 11 53.9167ZM101 53.9167C101.552 53.9167 102 53.469 102 52.9167V48.0833C102 47.531 101.552 47.0833 101 47.0833C100.448 47.0833 100 47.531 100 48.0833V52.9167C100 53.469 100.448 53.9167 101 53.9167ZM11 39.4167C11.5523 39.4167 12 38.9689 12 38.4167V36C12 35.3351 12.0432 34.6808 12.1268 34.0396C12.1983 33.492 11.8122 32.9901 11.2646 32.9186C10.7169 32.8472 10.2151 33.2333 10.1436 33.7809C10.0488 34.5076 10 35.2484 10 36V38.4167C10 38.9689 10.4477 39.4167 11 39.4167ZM13.6963 27.0524C14.1342 27.3889 14.762 27.3067 15.0985 26.8688C15.8973 25.8293 16.8293 24.8973 17.8688 24.0985C18.3067 23.762 18.3889 23.1342 18.0524 22.6963C17.7159 22.2584 17.088 22.1762 16.6501 22.5127C15.4728 23.4174 14.4174 24.4728 13.5127 25.6501C13.1762 26.088 13.2584 26.7159 13.6963 27.0524ZM23.9187 20.2646C23.9901 20.8122 24.492 21.1983 25.0396 21.1268C25.6808 21.0432 26.3351 21 27 21H29.4167C29.969 21 30.4167 20.5523 30.4167 20C30.4167 19.4477 29.969 19 29.4167 19H27C26.2484 19 25.5076 19.0488 24.7809 19.1436C24.2333 19.2151 23.8472 19.7169 23.9187 20.2646ZM38.0833 20C38.0833 20.5523 38.5311 21 39.0833 21H43.9167C44.469 21 44.9167 20.5523 44.9167 20C44.9167 19.4477 44.469 19 43.9167 19H39.0833C38.5311 19 38.0833 19.4477 38.0833 20ZM52.5833 20C52.5833 20.5523 53.031 21 53.5833 21H58.4167C58.969 21 59.4167 20.5523 59.4167 20C59.4167 19.4477 58.969 19 58.4167 19H53.5833C53.031 19 52.5833 19.4477 52.5833 20ZM67.0833 20C67.0833 20.5523 67.5311 21 68.0833 21H72.9167C73.469 21 73.9167 20.5523 73.9167 20C73.9167 19.4477 73.469 19 72.9167 19H68.0833C67.5311 19 67.0833 19.4477 67.0833 20Z" fill="#E6E9EB"/>
  <rect x="60.4141" y="73.6582" width="6" height="22" rx="3" transform="rotate(-45 60.4141 73.6582)" fill="#E6E9EB"/>
  <path fill-rule="evenodd" clip-rule="evenodd" d="M61.1208 70.122C65.8071 65.4357 65.8071 57.8377 61.1208 53.1514C56.4345 48.4651 48.8365 48.4651 44.1502 53.1514C39.464 57.8377 39.464 65.4357 44.1502 70.122C48.8365 74.8083 56.4345 74.8083 61.1208 70.122ZM65.3635 74.3646C72.3929 67.3352 72.3929 55.9382 65.3635 48.9088C58.334 41.8794 46.937 41.8794 39.9076 48.9088C32.8782 55.9382 32.8782 67.3352 39.9076 74.3646C46.937 81.3941 58.334 81.3941 65.3635 74.3646Z" fill="#B6BDC2"/>
  <circle cx="95" cy="26" r="17" fill="#B6BDC2"/>
  <path d="M95 17C93.8954 17 93 17.8954 93 19V27C93 28.1046 93.8954 29 95 29C96.1046 29 97 28.1046 97 27V19C97 17.8954 96.1046 17 95 17Z" fill="white"/>
  <path d="M95 35C96.1046 35 97 34.1046 97 33C97 31.8954 96.1046 31 95 31C93.8954 31 93 31.8954 93 33C93 34.1046 93.8954 35 95 35Z" fill="white"/>
</svg>
