<svg width="202" height="80" viewBox="0 0 202 80" fill="none" xmlns="http://www.w3.org/2000/svg">
<g filter="url(#filter0_d_1940_19064)">
<circle cx="40.9792" cy="40" r="32" fill="white"/>
<circle cx="40.9792" cy="40" r="32" fill="url(#paint0_linear_1940_19064)"/>
<circle cx="40.9792" cy="40" r="31.5" stroke="url(#paint1_radial_1940_19064)" stroke-opacity="0.2"/>
</g>
<path fill-rule="evenodd" clip-rule="evenodd" d="M27.0662 36.943C28.4276 30.7464 33.9478 26.0867 40.5571 26.0867C48.1813 26.0867 54.3697 32.2584 54.3202 39.8925C54.3202 41.5036 54.0479 43.0403 53.5529 44.4779C52.835 42.3463 51.5725 40.3139 49.8645 38.6532C48.5526 37.3643 47.0178 36.3233 45.3346 35.6045C43.5275 34.8114 41.572 34.4148 39.5669 34.4148C38.2549 34.4148 36.9182 34.6131 35.631 35.0096C35.532 35.0592 35.4577 35.084 35.3587 35.1088C36.943 32.9524 39.3936 31.1678 42.6611 30.5729C36.5222 30.2012 30.9525 32.3327 27.0662 36.943ZM27.908 45.4705C29.4922 41.0585 34.2202 36.9193 39.5671 36.9193C46.5477 36.9193 51.4242 42.6449 51.7955 47.8995C51.7708 47.9491 51.7707 47.9739 51.7707 47.9986C49.3696 51.32 45.508 53.5507 41.1513 53.7242C41.5969 50.2046 43.2306 45.8918 44.4683 44.603C41.6464 46.4619 39.2205 49.3619 37.1659 53.3276C35.6807 52.9558 34.2945 52.3362 33.032 51.5183C34.1955 47.6269 36.4481 43.9089 38.1066 42.0252C35.8787 42.6449 32.3884 46.1397 30.3091 49.1884C29.3189 48.0978 28.5021 46.8337 27.908 45.4705Z" fill="url(#paint2_radial_1940_19064)"/>
<path fill-rule="evenodd" clip-rule="evenodd" d="M94.9897 33.9896C94.4039 34.5754 94.4039 35.5251 94.9897 36.1109L98.8787 40L94.9897 43.8891C94.4039 44.4749 94.4039 45.4246 94.9897 46.0104C95.5754 46.5962 96.5252 46.5962 97.111 46.0104L101 42.1213L104.889 46.0104C105.475 46.5962 106.425 46.5962 107.01 46.0104C107.596 45.4246 107.596 44.4749 107.01 43.8891L103.121 40L107.01 36.1109C107.596 35.5251 107.596 34.5754 107.01 33.9896C106.425 33.4038 105.475 33.4038 104.889 33.9896L101 37.8787L97.111 33.9896C96.5252 33.4038 95.5754 33.4038 94.9897 33.9896Z" fill="#EAEAEA"/>
<g filter="url(#filter1_d_1940_19064)">
<circle cx="161.021" cy="40" r="32" fill="url(#paint3_linear_1940_19064)"/>
<circle cx="161.021" cy="40" r="31.5" stroke="#F5B5FF"/>
</g>
<path fill-rule="evenodd" clip-rule="evenodd" d="M156.32 34.4585L153.841 29.3748C153.611 28.8838 153.841 28.3638 154.389 28.2483L171.942 24.0311C172.49 23.8867 172.922 24.2622 172.922 24.811V31.339C172.922 31.6856 172.663 32.0322 172.317 32.1189L158.338 35.4695C157.588 35.6428 156.954 36.4227 156.954 37.2026L156.926 42.8063C156.926 43.384 156.464 43.9906 155.888 44.1061L151.622 45.0882C150.729 45.2904 149.979 44.7127 149.979 43.7884V38.3291C149.979 37.7514 150.44 37.1737 151.017 37.0293L155.6 35.9606C156.32 35.8161 156.637 35.1229 156.32 34.4585ZM150.613 47.89L160.096 45.6947C160.931 45.4925 161.306 44.7126 160.931 43.9327L158.741 39.3978C158.395 38.6757 158.741 37.9247 159.519 37.7514L171.999 34.7762C172.547 34.6318 172.979 35.0073 172.979 35.5561V41.593C172.979 42.2285 172.461 42.864 171.855 43.0084L163.208 45.0881C162.373 45.2614 161.998 46.0702 162.373 46.8501L164.765 51.7894C164.995 52.2805 164.765 52.8004 164.217 52.9159L150.988 55.9777C150.44 56.0933 150.008 55.7467 150.008 55.1978V48.6698C150.008 48.3232 150.267 47.9766 150.613 47.89Z" fill="black"/>
<defs>
<filter id="filter0_d_1940_19064" x="0.979248" y="0" width="80" height="80" filterUnits="userSpaceOnUse" color-interpolation-filters="sRGB">
<feFlood flood-opacity="0" result="BackgroundImageFix"/>
<feColorMatrix in="SourceAlpha" type="matrix" values="0 0 0 0 0 0 0 0 0 0 0 0 0 0 0 0 0 0 127 0" result="hardAlpha"/>
<feOffset/>
<feGaussianBlur stdDeviation="4"/>
<feComposite in2="hardAlpha" operator="out"/>
<feColorMatrix type="matrix" values="0 0 0 0 0 0 0 0 0 0 0 0 0 0 0 0 0 0 0.1 0"/>
<feBlend mode="normal" in2="BackgroundImageFix" result="effect1_dropShadow_1940_19064"/>
<feBlend mode="normal" in="SourceGraphic" in2="effect1_dropShadow_1940_19064" result="shape"/>
</filter>
<filter id="filter1_d_1940_19064" x="121.021" y="0" width="80" height="80" filterUnits="userSpaceOnUse" color-interpolation-filters="sRGB">
<feFlood flood-opacity="0" result="BackgroundImageFix"/>
<feColorMatrix in="SourceAlpha" type="matrix" values="0 0 0 0 0 0 0 0 0 0 0 0 0 0 0 0 0 0 127 0" result="hardAlpha"/>
<feOffset/>
<feGaussianBlur stdDeviation="4"/>
<feComposite in2="hardAlpha" operator="out"/>
<feColorMatrix type="matrix" values="0 0 0 0 0 0 0 0 0 0 0 0 0 0 0 0 0 0 0.1 0"/>
<feBlend mode="normal" in2="BackgroundImageFix" result="effect1_dropShadow_1940_19064"/>
<feBlend mode="normal" in="SourceGraphic" in2="effect1_dropShadow_1940_19064" result="shape"/>
</filter>
<linearGradient id="paint0_linear_1940_19064" x1="9.82581" y1="8" x2="36.8235" y2="84.1173" gradientUnits="userSpaceOnUse">
<stop stop-color="#F0F3FD"/>
<stop offset="1" stop-color="#FCF0FD"/>
</linearGradient>
<radialGradient id="paint1_radial_1940_19064" cx="0" cy="0" r="1" gradientUnits="userSpaceOnUse" gradientTransform="translate(16.0904 22.2222) rotate(40.8335) scale(63.4406 195.486)">
<stop stop-color="#FFCCEB"/>
<stop offset="0.473958" stop-color="#BFC6FF"/>
<stop offset="1" stop-color="#96E4D2"/>
</radialGradient>
<radialGradient id="paint2_radial_1940_19064" cx="0" cy="0" r="1" gradientUnits="userSpaceOnUse" gradientTransform="translate(30.2645 29.2897) rotate(49.7267) scale(27.7072 154.095)">
<stop stop-color="#B67CFF"/>
<stop offset="0.616524" stop-color="#878BFC"/>
<stop offset="1" stop-color="#526EFF"/>
</radialGradient>
<linearGradient id="paint3_linear_1940_19064" x1="132.238" y1="9.05263" x2="158.981" y2="85.1962" gradientUnits="userSpaceOnUse">
<stop stop-color="#F5B5FF"/>
<stop offset="1" stop-color="#FBDEFF"/>
</linearGradient>
</defs>
</svg>
