<svg width="280" height="180" viewBox="0 0 280 180" fill="none" xmlns="http://www.w3.org/2000/svg">
<rect width="280" height="180" fill="white"/>
<path fill-rule="evenodd" clip-rule="evenodd" d="M160 90.5C160 92.433 158.433 94 156.5 94C154.567 94 153 92.433 153 90.5C153 88.567 154.567 87 156.5 87C158.433 87 160 88.567 160 90.5ZM177 90.5C177 92.433 175.433 94 173.5 94C171.567 94 170 92.433 170 90.5C170 88.567 171.567 87 173.5 87C175.433 87 177 88.567 177 90.5ZM190.5 94C192.433 94 194 92.433 194 90.5C194 88.567 192.433 87 190.5 87C188.567 87 187 88.567 187 90.5C187 92.433 188.567 94 190.5 94Z" fill="url(#paint0_linear_605_5797)"/>
<rect x="45.25" y="130" width="10" height="20" rx="5" fill="url(#paint1_radial_605_5797)"/>
<rect x="107.25" y="130" width="10" height="20" rx="5" fill="url(#paint2_radial_605_5797)"/>
<rect x="25.25" y="30" width="112" height="112" rx="12" fill="url(#paint3_radial_605_5797)"/>
<rect x="32.25" y="37" width="98" height="98" rx="8" fill="url(#paint4_linear_605_5797)"/>
<rect x="32.25" y="37" width="98" height="98" rx="8" fill="url(#paint5_radial_605_5797)"/>
<rect x="32.25" y="37" width="98" height="98" rx="8" fill="url(#paint6_radial_605_5797)"/>
<rect opacity="0.5" x="39.25" y="43" width="6" height="6" rx="3" fill="url(#paint7_radial_605_5797)"/>
<rect opacity="0.5" x="48.25" y="43" width="6" height="6" rx="3" fill="url(#paint8_radial_605_5797)"/>
<rect opacity="0.5" x="57.25" y="43" width="6" height="6" rx="3" fill="url(#paint9_radial_605_5797)"/>
<line x1="72.5635" y1="94.4855" x2="89.735" y2="77.314" stroke="url(#paint10_radial_605_5797)" stroke-width="4" stroke-linecap="round"/>
<line x1="73.0784" y1="77" x2="90.25" y2="94.1716" stroke="url(#paint11_radial_605_5797)" stroke-width="4" stroke-linecap="round"/>
<g filter="url(#filter0_d_605_5797)">
<circle cx="81.25" cy="86" r="24" stroke="url(#paint12_radial_605_5797)" stroke-width="8"/>
</g>
<circle cx="81.25" cy="86" r="6" fill="url(#paint13_radial_605_5797)"/>
<rect x="127.25" y="50" width="6" height="15" rx="2" fill="url(#paint14_linear_605_5797)"/>
<rect x="127.25" y="107" width="6" height="15" rx="2" fill="url(#paint15_linear_605_5797)"/>
<g filter="url(#filter1_d_605_5797)">
<g filter="url(#filter2_d_605_5797)">
<circle cx="232" cy="91" r="22" fill="#575CFE"/>
</g>
<path fill-rule="evenodd" clip-rule="evenodd" d="M241.07 82.4438C241.847 83.1072 241.938 84.2737 241.274 85.0491L229.866 98.3534C229.513 98.7648 228.998 99.0012 228.455 99C227.912 98.9988 227.398 98.7603 227.047 98.3473L222.158 92.5952C221.496 91.8169 221.592 90.6508 222.372 89.9907C223.152 89.3307 224.321 89.4265 224.982 90.2049L228.465 94.3026L238.459 82.6466C239.124 81.8711 240.293 81.7803 241.07 82.4438Z" fill="white"/>
</g>
<defs>
<filter id="filter0_d_605_5797" x="45.25" y="51" width="72" height="72" filterUnits="userSpaceOnUse" color-interpolation-filters="sRGB">
<feFlood flood-opacity="0" result="BackgroundImageFix"/>
<feColorMatrix in="SourceAlpha" type="matrix" values="0 0 0 0 0 0 0 0 0 0 0 0 0 0 0 0 0 0 127 0" result="hardAlpha"/>
<feOffset dy="1"/>
<feGaussianBlur stdDeviation="4"/>
<feColorMatrix type="matrix" values="0 0 0 0 0.145098 0 0 0 0 0.152941 0 0 0 0 0.239216 0 0 0 0.1 0"/>
<feBlend mode="normal" in2="BackgroundImageFix" result="effect1_dropShadow_605_5797"/>
<feBlend mode="normal" in="SourceGraphic" in2="effect1_dropShadow_605_5797" result="shape"/>
</filter>
<filter id="filter1_d_605_5797" x="202" y="61" width="60" height="60" filterUnits="userSpaceOnUse" color-interpolation-filters="sRGB">
<feFlood flood-opacity="0" result="BackgroundImageFix"/>
<feColorMatrix in="SourceAlpha" type="matrix" values="0 0 0 0 0 0 0 0 0 0 0 0 0 0 0 0 0 0 127 0" result="hardAlpha"/>
<feOffset/>
<feGaussianBlur stdDeviation="4"/>
<feColorMatrix type="matrix" values="0 0 0 0 0 0 0 0 0 0 0 0 0 0 0 0 0 0 0.08 0"/>
<feBlend mode="normal" in2="BackgroundImageFix" result="effect1_dropShadow_605_5797"/>
<feBlend mode="normal" in="SourceGraphic" in2="effect1_dropShadow_605_5797" result="shape"/>
</filter>
<filter id="filter2_d_605_5797" x="206" y="65" width="52" height="52" filterUnits="userSpaceOnUse" color-interpolation-filters="sRGB">
<feFlood flood-opacity="0" result="BackgroundImageFix"/>
<feColorMatrix in="SourceAlpha" type="matrix" values="0 0 0 0 0 0 0 0 0 0 0 0 0 0 0 0 0 0 127 0" result="hardAlpha"/>
<feOffset/>
<feGaussianBlur stdDeviation="2"/>
<feComposite in2="hardAlpha" operator="out"/>
<feColorMatrix type="matrix" values="0 0 0 0 0 0 0 0 0 0 0 0 0 0 0 0 0 0 0.1 0"/>
<feBlend mode="normal" in2="BackgroundImageFix" result="effect1_dropShadow_605_5797"/>
<feBlend mode="normal" in="SourceGraphic" in2="effect1_dropShadow_605_5797" result="shape"/>
</filter>
<linearGradient id="paint0_linear_605_5797" x1="195.641" y1="90.3754" x2="152.999" y2="90.2853" gradientUnits="userSpaceOnUse">
<stop stop-color="#25273D"/>
<stop offset="1" stop-color="#787A9B" stop-opacity="0.4"/>
</linearGradient>
<radialGradient id="paint1_radial_605_5797" cx="0" cy="0" r="1" gradientUnits="userSpaceOnUse" gradientTransform="translate(46.3611 134.444) rotate(59.9476) scale(14.9763 40.4344)">
<stop stop-color="#FFCCEB"/>
<stop offset="0.473958" stop-color="#BFC6FF"/>
<stop offset="1" stop-color="#96E4D2"/>
</radialGradient>
<radialGradient id="paint2_radial_605_5797" cx="0" cy="0" r="1" gradientUnits="userSpaceOnUse" gradientTransform="translate(108.361 134.444) rotate(59.9476) scale(14.9763 40.4344)">
<stop stop-color="#FFCCEB"/>
<stop offset="0.473958" stop-color="#BFC6FF"/>
<stop offset="1" stop-color="#96E4D2"/>
</radialGradient>
<radialGradient id="paint3_radial_605_5797" cx="0" cy="0" r="1" gradientUnits="userSpaceOnUse" gradientTransform="translate(37.6944 54.8889) rotate(40.8335) scale(111.021 342.101)">
<stop stop-color="#FFF0F9"/>
<stop offset="0.510417" stop-color="#DFE2FF"/>
<stop offset="1" stop-color="#BEF4E7"/>
</radialGradient>
<linearGradient id="paint4_linear_605_5797" x1="76.3113" y1="135" x2="77.0859" y2="37.0046" gradientUnits="userSpaceOnUse">
<stop stop-color="#F2EDFF"/>
<stop offset="0.40625" stop-color="#F6EEF9"/>
<stop offset="1" stop-color="#FCEFF1"/>
</linearGradient>
<radialGradient id="paint5_radial_605_5797" cx="0" cy="0" r="1" gradientUnits="userSpaceOnUse" gradientTransform="translate(33.25 37) rotate(38.1915) scale(123.418 333.148)">
<stop stop-color="#BFFFF0"/>
<stop offset="0.336378" stop-color="#FEFFC7" stop-opacity="0"/>
</radialGradient>
<radialGradient id="paint6_radial_605_5797" cx="0" cy="0" r="1" gradientUnits="userSpaceOnUse" gradientTransform="translate(33.25 37) rotate(38.1915) scale(123.418 333.148)">
<stop offset="0.666667" stop-color="#FEFFC7" stop-opacity="0"/>
<stop offset="1" stop-color="#CEFFE6" stop-opacity="0.767746"/>
</radialGradient>
<radialGradient id="paint7_radial_605_5797" cx="0" cy="0" r="1" gradientUnits="userSpaceOnUse" gradientTransform="translate(39.9167 44.3333) rotate(40.8335) scale(5.94756 18.3268)">
<stop stop-color="#FFCCEB"/>
<stop offset="0.473958" stop-color="#BFC6FF"/>
<stop offset="1" stop-color="#96E4D2"/>
</radialGradient>
<radialGradient id="paint8_radial_605_5797" cx="0" cy="0" r="1" gradientUnits="userSpaceOnUse" gradientTransform="translate(48.9167 44.3333) rotate(40.8335) scale(5.94756 18.3268)">
<stop stop-color="#FFCCEB"/>
<stop offset="0.473958" stop-color="#BFC6FF"/>
<stop offset="1" stop-color="#96E4D2"/>
</radialGradient>
<radialGradient id="paint9_radial_605_5797" cx="0" cy="0" r="1" gradientUnits="userSpaceOnUse" gradientTransform="translate(57.9167 44.3333) rotate(40.8335) scale(5.94756 18.3268)">
<stop stop-color="#FFCCEB"/>
<stop offset="0.473958" stop-color="#BFC6FF"/>
<stop offset="1" stop-color="#96E4D2"/>
</radialGradient>
<radialGradient id="paint10_radial_605_5797" cx="0" cy="0" r="1" gradientUnits="userSpaceOnUse" gradientTransform="translate(79.3379 82.9118) rotate(46.9818) scale(6.01401 17.4791)">
<stop stop-color="#FFCCEB"/>
<stop offset="0.473958" stop-color="#BFC6FF"/>
<stop offset="1" stop-color="#96E4D2"/>
</radialGradient>
<radialGradient id="paint11_radial_605_5797" cx="0" cy="0" r="1" gradientUnits="userSpaceOnUse" gradientTransform="translate(84.6522 83.7745) rotate(136.982) scale(6.01401 17.4791)">
<stop stop-color="#FFCCEB"/>
<stop offset="0.473958" stop-color="#BFC6FF"/>
<stop offset="1" stop-color="#96E4D2"/>
</radialGradient>
<radialGradient id="paint12_radial_605_5797" cx="0" cy="0" r="1" gradientUnits="userSpaceOnUse" gradientTransform="translate(62.5833 72.6667) rotate(40.8335) scale(47.5805 146.615)">
<stop stop-color="#FFCCEB"/>
<stop offset="0.473958" stop-color="#BFC6FF"/>
<stop offset="1" stop-color="#96E4D2"/>
</radialGradient>
<radialGradient id="paint13_radial_605_5797" cx="0" cy="0" r="1" gradientUnits="userSpaceOnUse" gradientTransform="translate(76.5833 82.6667) rotate(40.8335) scale(11.8951 36.6537)">
<stop stop-color="#FFCCEB"/>
<stop offset="0.473958" stop-color="#BFC6FF"/>
<stop offset="1" stop-color="#96E4D2"/>
</radialGradient>
<linearGradient id="paint14_linear_605_5797" x1="132.25" y1="52.5" x2="126.371" y2="52.8865" gradientUnits="userSpaceOnUse">
<stop stop-color="#FFCCEB"/>
<stop offset="0.447917" stop-color="#BFC6FF"/>
<stop offset="1" stop-color="#96E4D2"/>
</linearGradient>
<linearGradient id="paint15_linear_605_5797" x1="133.25" y1="117" x2="127.25" y2="117" gradientUnits="userSpaceOnUse">
<stop stop-color="#FFCCEB"/>
<stop offset="0.447917" stop-color="#FFCCEB"/>
<stop offset="1" stop-color="#96E4D2"/>
</linearGradient>
</defs>
</svg>
