<svg width="165" height="161" viewBox="0 0 165 161" fill="none" xmlns="http://www.w3.org/2000/svg">
<rect x="20" y="141" width="10" height="20" rx="5" fill="url(#paint0_radial_64_37300)"/>
<rect x="82" y="141" width="10" height="20" rx="5" fill="url(#paint1_radial_64_37300)"/>
<rect y="41" width="112" height="112" rx="12" fill="url(#paint2_radial_64_37300)"/>
<g style="mix-blend-mode:overlay" opacity="0.7">
<rect x="7" y="48" width="98" height="98" rx="8" fill="url(#paint3_linear_64_37300)"/>
</g>
<g style="mix-blend-mode:overlay" opacity="0.5">
<rect x="14" y="54" width="6" height="6" rx="3" fill="black"/>
</g>
<g style="mix-blend-mode:overlay" opacity="0.5">
<rect x="23" y="54" width="6" height="6" rx="3" fill="black"/>
</g>
<g style="mix-blend-mode:overlay" opacity="0.5">
<rect x="32" y="54" width="6" height="6" rx="3" fill="black"/>
</g>
<line x1="47.3135" y1="105.486" x2="64.485" y2="88.3145" stroke="url(#paint4_radial_64_37300)" stroke-width="4" stroke-linecap="round"/>
<line x1="47.8284" y1="88" x2="65" y2="105.172" stroke="url(#paint5_radial_64_37300)" stroke-width="4" stroke-linecap="round"/>
<g filter="url(#filter0_d_64_37300)">
<circle cx="56" cy="97" r="24" stroke="url(#paint6_radial_64_37300)" stroke-width="8"/>
</g>
<circle cx="56" cy="97" r="6" fill="url(#paint7_radial_64_37300)"/>
<rect x="102" y="61" width="6" height="15" rx="2" fill="url(#paint8_linear_64_37300)"/>
<rect x="102" y="118" width="6" height="15" rx="2" fill="url(#paint9_linear_64_37300)"/>
<g filter="url(#filter1_d_64_37300)">
<circle cx="119.5" cy="44.5" r="37.5" fill="white"/>
</g>
<path d="M99.466 32.4092C99.3061 31.4801 99.8016 30.5605 100.669 30.1924L119.67 22.1358C120.169 21.9242 120.732 21.9242 121.231 22.1358L140.231 30.1924C141.099 30.5605 141.594 31.4801 141.435 32.4092C140.85 35.8086 139.567 44.0374 139.567 50.7899C139.567 59.2155 124.723 65.7925 121.196 67.2363C120.715 67.433 120.192 67.4203 119.721 67.2018C116.223 65.5794 101.334 58.2356 101.334 50.7899C101.334 44.0374 100.051 35.8087 99.466 32.4092Z" fill="url(#paint10_radial_64_37300)"/>
<g style="mix-blend-mode:overlay" opacity="0.3">
<path d="M101.84 32.9477L120.45 24.9941L139.06 32.9477C139.06 32.9477 137.08 42.5022 137.08 49.9484C137.08 57.0472 124.436 62.7092 121.198 64.0428C120.718 64.2404 120.186 64.2267 119.715 64.008C116.499 62.5129 103.82 56.2208 103.82 49.9484C103.82 42.5022 101.84 32.9477 101.84 32.9477Z" fill="url(#paint11_linear_64_37300)"/>
</g>
<g style="mix-blend-mode:multiply">
<path fill-rule="evenodd" clip-rule="evenodd" d="M127.695 38.8739C128.253 39.3512 128.319 40.1903 127.841 40.7482L119.653 50.3191C119.4 50.615 119.029 50.785 118.64 50.7842C118.25 50.7833 117.881 50.6117 117.629 50.3147L114.12 46.1767C113.645 45.6168 113.714 44.7779 114.274 44.3031C114.834 43.8282 115.672 43.8972 116.147 44.4571L118.647 47.4049L125.821 39.0198C126.298 38.462 127.138 38.3967 127.695 38.8739Z" fill="url(#paint12_radial_64_37300)"/>
</g>
<defs>
<filter id="filter0_d_64_37300" x="20" y="62" width="72" height="72" filterUnits="userSpaceOnUse" color-interpolation-filters="sRGB">
<feFlood flood-opacity="0" result="BackgroundImageFix"/>
<feColorMatrix in="SourceAlpha" type="matrix" values="0 0 0 0 0 0 0 0 0 0 0 0 0 0 0 0 0 0 127 0" result="hardAlpha"/>
<feOffset dy="1"/>
<feGaussianBlur stdDeviation="4"/>
<feColorMatrix type="matrix" values="0 0 0 0 0.145098 0 0 0 0 0.152941 0 0 0 0 0.239216 0 0 0 0.1 0"/>
<feBlend mode="normal" in2="BackgroundImageFix" result="effect1_dropShadow_64_37300"/>
<feBlend mode="normal" in="SourceGraphic" in2="effect1_dropShadow_64_37300" result="shape"/>
</filter>
<filter id="filter1_d_64_37300" x="74" y="0" width="91" height="91" filterUnits="userSpaceOnUse" color-interpolation-filters="sRGB">
<feFlood flood-opacity="0" result="BackgroundImageFix"/>
<feColorMatrix in="SourceAlpha" type="matrix" values="0 0 0 0 0 0 0 0 0 0 0 0 0 0 0 0 0 0 127 0" result="hardAlpha"/>
<feOffset dy="1"/>
<feGaussianBlur stdDeviation="4"/>
<feColorMatrix type="matrix" values="0 0 0 0 0.145098 0 0 0 0 0.152941 0 0 0 0 0.239216 0 0 0 0.1 0"/>
<feBlend mode="normal" in2="BackgroundImageFix" result="effect1_dropShadow_64_37300"/>
<feBlend mode="normal" in="SourceGraphic" in2="effect1_dropShadow_64_37300" result="shape"/>
</filter>
<radialGradient id="paint0_radial_64_37300" cx="0" cy="0" r="1" gradientUnits="userSpaceOnUse" gradientTransform="translate(21.1111 145.444) rotate(59.9476) scale(14.9763 40.4344)">
<stop stop-color="#FFCCEB"/>
<stop offset="0.473958" stop-color="#BFC6FF"/>
<stop offset="1" stop-color="#96E4D2"/>
</radialGradient>
<radialGradient id="paint1_radial_64_37300" cx="0" cy="0" r="1" gradientUnits="userSpaceOnUse" gradientTransform="translate(83.1111 145.444) rotate(59.9476) scale(14.9763 40.4344)">
<stop stop-color="#FFCCEB"/>
<stop offset="0.473958" stop-color="#BFC6FF"/>
<stop offset="1" stop-color="#96E4D2"/>
</radialGradient>
<radialGradient id="paint2_radial_64_37300" cx="0" cy="0" r="1" gradientUnits="userSpaceOnUse" gradientTransform="translate(12.4444 65.8889) rotate(40.8335) scale(111.021 342.101)">
<stop stop-color="#FFE7F5"/>
<stop offset="0.510417" stop-color="#BFC6FF"/>
<stop offset="1" stop-color="#BAF0E3"/>
</radialGradient>
<linearGradient id="paint3_linear_64_37300" x1="7" y1="87.9737" x2="105" y2="101.513" gradientUnits="userSpaceOnUse">
<stop/>
<stop offset="1" stop-opacity="0.3"/>
</linearGradient>
<radialGradient id="paint4_radial_64_37300" cx="0" cy="0" r="1" gradientUnits="userSpaceOnUse" gradientTransform="translate(54.0879 93.9123) rotate(46.9818) scale(6.01401 17.4791)">
<stop stop-color="#FFCCEB"/>
<stop offset="0.473958" stop-color="#BFC6FF"/>
<stop offset="1" stop-color="#96E4D2"/>
</radialGradient>
<radialGradient id="paint5_radial_64_37300" cx="0" cy="0" r="1" gradientUnits="userSpaceOnUse" gradientTransform="translate(59.4022 94.7745) rotate(136.982) scale(6.01401 17.4791)">
<stop stop-color="#FFCCEB"/>
<stop offset="0.473958" stop-color="#BFC6FF"/>
<stop offset="1" stop-color="#96E4D2"/>
</radialGradient>
<radialGradient id="paint6_radial_64_37300" cx="0" cy="0" r="1" gradientUnits="userSpaceOnUse" gradientTransform="translate(37.3333 83.6667) rotate(40.8335) scale(47.5805 146.615)">
<stop stop-color="#FFCCEB"/>
<stop offset="0.473958" stop-color="#BFC6FF"/>
<stop offset="1" stop-color="#96E4D2"/>
</radialGradient>
<radialGradient id="paint7_radial_64_37300" cx="0" cy="0" r="1" gradientUnits="userSpaceOnUse" gradientTransform="translate(51.3333 93.6667) rotate(40.8335) scale(11.8951 36.6537)">
<stop stop-color="#FFCCEB"/>
<stop offset="0.473958" stop-color="#BFC6FF"/>
<stop offset="1" stop-color="#96E4D2"/>
</radialGradient>
<linearGradient id="paint8_linear_64_37300" x1="107" y1="63.5" x2="101.121" y2="63.8865" gradientUnits="userSpaceOnUse">
<stop stop-color="#FFCCEB"/>
<stop offset="0.447917" stop-color="#BFC6FF"/>
<stop offset="1" stop-color="#96E4D2"/>
</linearGradient>
<linearGradient id="paint9_linear_64_37300" x1="108" y1="128" x2="102" y2="128" gradientUnits="userSpaceOnUse">
<stop stop-color="#FFCCEB"/>
<stop offset="0.447917" stop-color="#BFC6FF"/>
<stop offset="1" stop-color="#96E4D2"/>
</linearGradient>
<radialGradient id="paint10_radial_64_37300" cx="0" cy="0" r="1" gradientUnits="userSpaceOnUse" gradientTransform="translate(103.908 31.9664) rotate(42.8925) scale(43.5457 135.247)">
<stop stop-color="#FFCCEB"/>
<stop offset="0.473958" stop-color="#BFC6FF"/>
<stop offset="1" stop-color="#96E4D2"/>
</radialGradient>
<linearGradient id="paint11_linear_64_37300" x1="120.45" y1="26.9615" x2="120.45" y2="63.3575" gradientUnits="userSpaceOnUse">
<stop offset="0.473958" stop-color="white" stop-opacity="0.8"/>
<stop offset="1" stop-color="white" stop-opacity="0"/>
</linearGradient>
<radialGradient id="paint12_radial_64_37300" cx="0" cy="0" r="1" gradientUnits="userSpaceOnUse" gradientTransform="translate(115.399 41.2724) rotate(36.3593) scale(13.3703 39.7592)">
<stop stop-color="#FFCCEB"/>
<stop offset="0.473958" stop-color="#BFC6FF"/>
<stop offset="1" stop-color="#96E4D2"/>
</radialGradient>
</defs>
</svg>
