<svg width="76" height="80" viewBox="0 0 76 80" fill="none" xmlns="http://www.w3.org/2000/svg">
<g filter="url(#filter0_d_5322_39211)">
<path opacity="0.9" d="M8.12059 23.8297C7.80724 21.9652 8.80148 20.115 10.5438 19.3809L36.0015 8.65441C36.9947 8.23595 38.1147 8.23595 39.1078 8.65441L64.5656 19.3809C66.3079 20.115 67.3021 21.9652 66.9888 23.8297C66.1105 29.0559 64.519 39.7502 64.519 48.6251C64.519 59.8766 45.5115 68.7762 39.4135 71.3418C38.2241 71.8422 36.8967 71.8078 35.7303 71.2559C29.6698 68.3886 10.5903 58.5717 10.5904 48.6251C10.5905 39.7502 8.99894 29.0559 8.12059 23.8297Z" fill="url(#paint0_radial_5322_39211)"/>
<g style="mix-blend-mode:overlay" opacity="0.3">
<path d="M11.9486 24.9723C11.7775 24.0447 12.2639 23.1218 13.1285 22.7447L37.5553 12.0898L61.9822 22.7447C62.8467 23.1218 63.3332 24.0447 63.1621 24.9723C62.4462 28.8532 60.7072 39.1453 60.7072 47.548C60.7072 57.0829 44.9783 64.7936 39.4494 67.2094C38.2382 67.7387 36.8874 67.7049 35.6999 67.1244C30.206 64.4387 14.4034 55.9808 14.4035 47.548C14.4035 39.1453 12.6645 28.8532 11.9486 24.9723Z" fill="url(#paint1_linear_5322_39211)"/>
</g>
<g style="mix-blend-mode:multiply">
<path d="M30.7366 40.2875L35.6457 46.1832L47.1002 32.5469" stroke="url(#paint2_radial_5322_39211)" stroke-width="3" stroke-linecap="round" stroke-linejoin="round"/>
</g>
</g>
<defs>
<filter id="filter0_d_5322_39211" x="0.0632324" y="0.34082" width="74.9829" height="79.3535" filterUnits="userSpaceOnUse" color-interpolation-filters="sRGB">
<feFlood flood-opacity="0" result="BackgroundImageFix"/>
<feColorMatrix in="SourceAlpha" type="matrix" values="0 0 0 0 0 0 0 0 0 0 0 0 0 0 0 0 0 0 127 0" result="hardAlpha"/>
<feOffset/>
<feGaussianBlur stdDeviation="4"/>
<feComposite in2="hardAlpha" operator="out"/>
<feColorMatrix type="matrix" values="0 0 0 0 0 0 0 0 0 0 0 0 0 0 0 0 0 0 0.1 0"/>
<feBlend mode="normal" in2="BackgroundImageFix" result="effect1_dropShadow_5322_39211"/>
<feBlend mode="normal" in="SourceGraphic" in2="effect1_dropShadow_5322_39211" result="shape"/>
</filter>
<radialGradient id="paint0_radial_5322_39211" cx="0" cy="0" r="1" gradientUnits="userSpaceOnUse" gradientTransform="translate(14.2214 22.2424) rotate(42.7107) scale(61.2422 190.117)">
<stop stop-color="#FFCCEB"/>
<stop offset="0.473958" stop-color="#BFC6FF"/>
<stop offset="1" stop-color="#96E4D2"/>
</radialGradient>
<linearGradient id="paint1_linear_5322_39211" x1="37.5553" y1="14.8853" x2="37.5553" y2="66.6012" gradientUnits="userSpaceOnUse">
<stop offset="0.473958" stop-color="white"/>
<stop offset="1" stop-color="white" stop-opacity="0"/>
</linearGradient>
<radialGradient id="paint2_radial_5322_39211" cx="0" cy="0" r="1" gradientUnits="userSpaceOnUse" gradientTransform="translate(32.5548 35.5772) rotate(35.7601) scale(15.124 44.6719)">
<stop stop-color="#FFCCEB"/>
<stop offset="0.473958" stop-color="#BFC6FF"/>
<stop offset="1" stop-color="#96E4D2"/>
</radialGradient>
</defs>
</svg>
