<svg width="72" height="36" viewBox="0 0 72 36" fill="none" xmlns="http://www.w3.org/2000/svg">
<rect width="72" height="36" rx="18" fill="#FFEBC4"/>
<circle cx="21" cy="18" r="13" fill="url(#paint0_linear_10173_72726)"/>
<path fill-rule="evenodd" clip-rule="evenodd" d="M16.2432 12.1865H21.1438C24.1247 12.1865 26.3843 13.724 27.2249 15.9612H28.7515V17.3134H27.5464C27.57 17.5271 27.582 17.7448 27.582 17.966V17.9992C27.582 18.2482 27.5668 18.493 27.5369 18.7327H28.7515V20.085H27.1958C26.3331 22.291 24.091 23.8139 21.1438 23.8139H16.2432V20.085H14.5403V18.7327H16.2432V17.3134H14.5403V15.9612H16.2432V12.1865ZM17.6132 20.085V22.6008H21.1438C23.3225 22.6008 24.9412 21.5932 25.6947 20.085H17.6132ZM26.1144 18.7327H17.6132V17.3134H26.1166C26.1481 17.5368 26.1642 17.7657 26.1642 17.9992V18.0324C26.1642 18.2712 26.1474 18.5051 26.1144 18.7327ZM21.1438 13.3975C23.3326 13.3975 24.9561 14.4318 25.7051 15.9612H17.6132V13.3975H21.1438Z" fill="white"/>
<path d="M42.544 23.6392C41.8414 23.6392 41.215 23.5099 40.6648 23.2514C40.1179 22.9929 39.6837 22.6366 39.3622 22.1825C39.0407 21.7285 38.8733 21.2081 38.8601 20.6214H40.9482C40.9714 21.0159 41.1371 21.3357 41.4453 21.581C41.7536 21.8262 42.1198 21.9489 42.544 21.9489C42.8821 21.9489 43.1804 21.8743 43.4389 21.7251C43.7008 21.5727 43.9046 21.3622 44.0504 21.0938C44.1996 20.822 44.2741 20.5104 44.2741 20.1591C44.2741 19.8011 44.1979 19.4863 44.0455 19.2145C43.8963 18.9427 43.6892 18.7306 43.424 18.5781C43.1589 18.4257 42.8556 18.3478 42.5142 18.3445C42.2159 18.3445 41.9259 18.4058 41.6442 18.5284C41.3658 18.651 41.1487 18.8184 40.9929 19.0305L39.0788 18.6875L39.5611 13.3182H45.7855V15.0781H41.3359L41.0724 17.6286H41.1321C41.3111 17.3767 41.5812 17.1679 41.9425 17.0021C42.3037 16.8364 42.7081 16.7536 43.1555 16.7536C43.7687 16.7536 44.3156 16.8977 44.7962 17.1861C45.2768 17.4744 45.6562 17.8705 45.9347 18.3743C46.2131 18.8748 46.3506 19.4515 46.3473 20.1044C46.3506 20.7905 46.1915 21.4003 45.87 21.9339C45.5518 22.4643 45.1061 22.8819 44.5327 23.1868C43.9626 23.4884 43.2997 23.6392 42.544 23.6392ZM53.4219 21.5909V21.054C53.4219 20.6463 53.508 20.2718 53.6804 19.9304C53.8561 19.5857 54.1096 19.3106 54.4411 19.1051C54.7758 18.8963 55.1835 18.7919 55.6641 18.7919C56.1513 18.7919 56.5606 18.8946 56.892 19.1001C57.2268 19.3056 57.4787 19.5807 57.6477 19.9254C57.8201 20.2668 57.9062 20.643 57.9062 21.054V21.5909C57.9062 21.9986 57.8201 22.3748 57.6477 22.7195C57.4754 23.0608 57.2218 23.3343 56.8871 23.5398C56.5523 23.7486 56.1446 23.853 55.6641 23.853C55.1768 23.853 54.7675 23.7486 54.4361 23.5398C54.1046 23.3343 53.8527 23.0608 53.6804 22.7195C53.508 22.3748 53.4219 21.9986 53.4219 21.5909ZM54.8686 21.054V21.5909C54.8686 21.8262 54.925 22.0483 55.0376 22.2571C55.1536 22.4659 55.3625 22.5703 55.6641 22.5703C55.9657 22.5703 56.1712 22.4676 56.2805 22.2621C56.3932 22.0566 56.4496 21.8329 56.4496 21.5909V21.054C56.4496 20.812 56.3965 20.5866 56.2905 20.3778C56.1844 20.169 55.9756 20.0646 55.6641 20.0646C55.3658 20.0646 55.1586 20.169 55.0426 20.3778C54.9266 20.5866 54.8686 20.812 54.8686 21.054ZM48.1967 15.7642V15.2273C48.1967 14.8163 48.2846 14.4401 48.4602 14.0987C48.6359 13.754 48.8894 13.4789 49.2209 13.2734C49.5556 13.0679 49.96 12.9652 50.4339 12.9652C50.9245 12.9652 51.3355 13.0679 51.6669 13.2734C51.9983 13.4789 52.2502 13.754 52.4226 14.0987C52.5949 14.4401 52.6811 14.8163 52.6811 15.2273V15.7642C52.6811 16.1752 52.5933 16.5514 52.4176 16.8928C52.2453 17.2341 51.9917 17.5076 51.657 17.7131C51.3255 17.9152 50.9179 18.0163 50.4339 18.0163C49.95 18.0163 49.5407 17.9136 49.206 17.7081C48.8745 17.4993 48.6226 17.2259 48.4503 16.8878C48.2813 16.5464 48.1967 16.1719 48.1967 15.7642ZM49.6534 15.2273V15.7642C49.6534 16.0062 49.7098 16.2299 49.8224 16.4354C49.9384 16.6409 50.1423 16.7436 50.4339 16.7436C50.7389 16.7436 50.946 16.6409 51.0554 16.4354C51.1681 16.2299 51.2244 16.0062 51.2244 15.7642V15.2273C51.2244 14.9853 51.1714 14.7599 51.0653 14.5511C50.9593 14.3423 50.7488 14.2379 50.4339 14.2379C50.139 14.2379 49.9351 14.344 49.8224 14.5561C49.7098 14.7682 49.6534 14.992 49.6534 15.2273ZM48.853 23.5L55.853 13.3182H57.1555L50.1555 23.5H48.853Z" fill="#594F3D"/>
<defs>
<linearGradient id="paint0_linear_10173_72726" x1="21" y1="1.31667" x2="21" y2="33.73" gradientUnits="userSpaceOnUse">
<stop stop-color="#F9A606"/>
<stop offset="1" stop-color="#FBCC5F"/>
</linearGradient>
</defs>
</svg>
