<svg width="243" height="160" viewBox="0 0 243 160" fill="none" xmlns="http://www.w3.org/2000/svg">
<rect width="240" height="160" fill="#FFE1E1"/>
<rect width="240" height="160" fill="white"/>
<circle r="37.9999" transform="matrix(-1 0 0 1 198 88.0001)" fill="url(#paint0_linear_9020_55069)"/>
<mask id="mask0_9020_55069" style="mask-type:alpha" maskUnits="userSpaceOnUse" x="160" y="50" width="77" height="76">
<circle r="37.9999" transform="matrix(1 0 0 -1 198 88.0001)" fill="url(#paint1_linear_9020_55069)"/>
</mask>
<g mask="url(#mask0_9020_55069)">
<path fill-rule="evenodd" clip-rule="evenodd" d="M198 86.908C201.964 86.908 205.178 83.6944 205.178 79.7302C205.178 75.766 201.964 72.5524 198 72.5524C194.036 72.5524 190.822 75.766 190.822 79.7302C190.822 83.6944 194.036 86.908 198 86.908ZM198 102.631C209.326 102.631 218.508 100.129 218.508 96.1545C218.508 90.7577 209.326 88.9588 198 88.9588C186.674 88.9588 177.492 90.3979 177.492 96.1545C177.492 100.129 186.674 102.631 198 102.631Z" fill="url(#paint2_radial_9020_55069)"/>
</g>
<circle r="38.0001" transform="matrix(-1 0 0 1 41.9999 88.0003)" fill="white"/>
<circle r="38.0001" transform="matrix(-1 0 0 1 41.9999 88.0003)" fill="url(#paint3_linear_9020_55069)"/>
<mask id="mask1_9020_55069" style="mask-type:alpha" maskUnits="userSpaceOnUse" x="4" y="50" width="76" height="77">
<circle r="38.0001" transform="matrix(1 0 0 -1 42.0001 88.0001)" fill="white"/>
<circle r="38.0001" transform="matrix(1 0 0 -1 42.0001 88.0001)" fill="url(#paint4_linear_9020_55069)"/>
</mask>
<g mask="url(#mask1_9020_55069)">
<path fill-rule="evenodd" clip-rule="evenodd" d="M42 86.9088C45.9593 86.9088 49.169 83.6991 49.169 79.7398C49.169 75.7804 45.9593 72.5707 42 72.5707C38.0406 72.5707 34.8309 75.7804 34.8309 79.7398C34.8309 83.6991 38.0406 86.9088 42 86.9088ZM41.9998 102.612C53.3123 102.612 62.4828 100.113 62.4828 96.1441C62.4828 90.7539 53.3123 88.9571 41.9998 88.9571C30.6874 88.9571 21.5168 90.3945 21.5168 96.1441C21.5168 100.113 30.6874 102.612 41.9998 102.612Z" fill="url(#paint5_linear_9020_55069)"/>
</g>
<g filter="url(#filter0_d_9020_55069)">
<circle cx="73" cy="117" r="15" fill="#575CFE"/>
</g>
<path d="M68 117L71 121L78 113" stroke="white" stroke-width="2.5" stroke-linecap="round" stroke-linejoin="round"/>
<g filter="url(#filter1_d_9020_55069)">
<circle cx="225" cy="117" r="15" fill="#25273D"/>
</g>
<path d="M224.045 119.511V119.318C224.049 118.655 224.108 118.127 224.222 117.733C224.339 117.339 224.509 117.021 224.733 116.778C224.956 116.536 225.225 116.316 225.54 116.119C225.775 115.968 225.985 115.811 226.17 115.648C226.356 115.485 226.504 115.305 226.614 115.108C226.723 114.907 226.778 114.684 226.778 114.437C226.778 114.176 226.716 113.947 226.591 113.75C226.466 113.553 226.297 113.402 226.085 113.295C225.877 113.189 225.646 113.136 225.392 113.136C225.146 113.136 224.913 113.191 224.693 113.301C224.473 113.407 224.294 113.566 224.153 113.778C224.013 113.987 223.937 114.246 223.926 114.557H221.608C221.627 113.799 221.809 113.174 222.153 112.682C222.498 112.186 222.955 111.816 223.523 111.574C224.091 111.328 224.718 111.205 225.403 111.205C226.157 111.205 226.824 111.33 227.403 111.58C227.983 111.826 228.437 112.184 228.767 112.653C229.097 113.123 229.261 113.689 229.261 114.352C229.261 114.795 229.187 115.189 229.04 115.534C228.896 115.875 228.693 116.178 228.432 116.443C228.17 116.705 227.862 116.941 227.506 117.153C227.206 117.331 226.96 117.517 226.767 117.71C226.578 117.903 226.436 118.127 226.341 118.381C226.25 118.634 226.203 118.947 226.199 119.318V119.511H224.045ZM225.17 123.148C224.792 123.148 224.468 123.015 224.199 122.75C223.934 122.481 223.803 122.159 223.807 121.784C223.803 121.413 223.934 121.095 224.199 120.83C224.468 120.564 224.792 120.432 225.17 120.432C225.53 120.432 225.847 120.564 226.119 120.83C226.392 121.095 226.53 121.413 226.534 121.784C226.53 122.034 226.464 122.263 226.335 122.472C226.21 122.676 226.045 122.841 225.841 122.966C225.636 123.087 225.413 123.148 225.17 123.148Z" fill="white"/>
<circle cx="107" cy="90.0002" r="3" fill="#EDEDFF"/>
<circle cx="120" cy="90.0002" r="3" fill="#D8D9FE"/>
<circle cx="133" cy="90.0002" r="3" fill="#878BFC"/>
<rect x="91" y="28" width="64" height="32" rx="16" fill="#FFEBC4"/>
<circle cx="108" cy="44" r="13" fill="url(#paint6_linear_9020_55069)"/>
<path fill-rule="evenodd" clip-rule="evenodd" d="M103.243 38.1863H108.144C111.125 38.1863 113.384 39.7238 114.225 41.961H115.751V43.3133H114.546C114.57 43.5269 114.582 43.7446 114.582 43.9658V43.999C114.582 44.248 114.567 44.4928 114.537 44.7326H115.751V46.0848H114.196C113.333 48.2909 111.091 49.8137 108.144 49.8137H103.243V46.0848H101.54V44.7326H103.243V43.3133H101.54V41.961H103.243V38.1863ZM104.613 46.0848V48.6006H108.144C110.323 48.6006 111.941 47.593 112.695 46.0848H104.613ZM113.114 44.7326H104.613V43.3133H113.117C113.148 43.5366 113.164 43.7655 113.164 43.999V44.0322C113.164 44.2711 113.147 44.5049 113.114 44.7326ZM108.144 39.3974C110.333 39.3974 111.956 40.4316 112.705 41.961H104.613V39.3974H108.144Z" fill="white"/>
<path d="M129.544 49.6392C128.841 49.6392 128.215 49.5099 127.665 49.2514C127.118 48.9929 126.684 48.6366 126.362 48.1825C126.041 47.7285 125.873 47.2081 125.86 46.6214H127.948C127.971 47.0159 128.137 47.3357 128.445 47.581C128.754 47.8262 129.12 47.9489 129.544 47.9489C129.882 47.9489 130.18 47.8743 130.439 47.7251C130.701 47.5727 130.905 47.3622 131.05 47.0938C131.2 46.822 131.274 46.5104 131.274 46.1591C131.274 45.8011 131.198 45.4863 131.045 45.2145C130.896 44.9427 130.689 44.7306 130.424 44.5781C130.159 44.4257 129.856 44.3478 129.514 44.3445C129.216 44.3445 128.926 44.4058 128.644 44.5284C128.366 44.651 128.149 44.8184 127.993 45.0305L126.079 44.6875L126.561 39.3182H132.786V41.0781H128.336L128.072 43.6286H128.132C128.311 43.3767 128.581 43.1679 128.942 43.0021C129.304 42.8364 129.708 42.7536 130.156 42.7536C130.769 42.7536 131.316 42.8977 131.796 43.1861C132.277 43.4744 132.656 43.8705 132.935 44.3743C133.213 44.8748 133.351 45.4515 133.347 46.1044C133.351 46.7905 133.192 47.4003 132.87 47.9339C132.552 48.4643 132.106 48.8819 131.533 49.1868C130.963 49.4884 130.3 49.6392 129.544 49.6392ZM140.422 47.5909V47.054C140.422 46.6463 140.508 46.2718 140.68 45.9304C140.856 45.5857 141.11 45.3106 141.441 45.1051C141.776 44.8963 142.183 44.7919 142.664 44.7919C143.151 44.7919 143.561 44.8946 143.892 45.1001C144.227 45.3056 144.479 45.5807 144.648 45.9254C144.82 46.2668 144.906 46.643 144.906 47.054V47.5909C144.906 47.9986 144.82 48.3748 144.648 48.7195C144.475 49.0608 144.222 49.3343 143.887 49.5398C143.552 49.7486 143.145 49.853 142.664 49.853C142.177 49.853 141.768 49.7486 141.436 49.5398C141.105 49.3343 140.853 49.0608 140.68 48.7195C140.508 48.3748 140.422 47.9986 140.422 47.5909ZM141.869 47.054V47.5909C141.869 47.8262 141.925 48.0483 142.038 48.2571C142.154 48.4659 142.362 48.5703 142.664 48.5703C142.966 48.5703 143.171 48.4676 143.281 48.2621C143.393 48.0566 143.45 47.8329 143.45 47.5909V47.054C143.45 46.812 143.397 46.5866 143.29 46.3778C143.184 46.169 142.976 46.0646 142.664 46.0646C142.366 46.0646 142.159 46.169 142.043 46.3778C141.927 46.5866 141.869 46.812 141.869 47.054ZM135.197 41.7642V41.2273C135.197 40.8163 135.285 40.4401 135.46 40.0987C135.636 39.754 135.889 39.4789 136.221 39.2734C136.556 39.0679 136.96 38.9652 137.434 38.9652C137.924 38.9652 138.335 39.0679 138.667 39.2734C138.998 39.4789 139.25 39.754 139.423 40.0987C139.595 40.4401 139.681 40.8163 139.681 41.2273V41.7642C139.681 42.1752 139.593 42.5514 139.418 42.8928C139.245 43.2341 138.992 43.5076 138.657 43.7131C138.326 43.9152 137.918 44.0163 137.434 44.0163C136.95 44.0163 136.541 43.9136 136.206 43.7081C135.875 43.4993 135.623 43.2259 135.45 42.8878C135.281 42.5464 135.197 42.1719 135.197 41.7642ZM136.653 41.2273V41.7642C136.653 42.0062 136.71 42.2299 136.822 42.4354C136.938 42.6409 137.142 42.7436 137.434 42.7436C137.739 42.7436 137.946 42.6409 138.055 42.4354C138.168 42.2299 138.224 42.0062 138.224 41.7642V41.2273C138.224 40.9853 138.171 40.7599 138.065 40.5511C137.959 40.3423 137.749 40.2379 137.434 40.2379C137.139 40.2379 136.935 40.344 136.822 40.5561C136.71 40.7682 136.653 40.992 136.653 41.2273ZM135.853 49.5L142.853 39.3182H144.156L137.156 49.5H135.853Z" fill="#594F3D"/>
<defs>
<filter id="filter0_d_9020_55069" x="55" y="99.0002" width="36" height="36" filterUnits="userSpaceOnUse" color-interpolation-filters="sRGB">
<feFlood flood-opacity="0" result="BackgroundImageFix"/>
<feColorMatrix in="SourceAlpha" type="matrix" values="0 0 0 0 0 0 0 0 0 0 0 0 0 0 0 0 0 0 127 0" result="hardAlpha"/>
<feOffset/>
<feGaussianBlur stdDeviation="1.5"/>
<feComposite in2="hardAlpha" operator="out"/>
<feColorMatrix type="matrix" values="0 0 0 0 0 0 0 0 0 0 0 0 0 0 0 0 0 0 0.2 0"/>
<feBlend mode="normal" in2="BackgroundImageFix" result="effect1_dropShadow_9020_55069"/>
<feBlend mode="normal" in="SourceGraphic" in2="effect1_dropShadow_9020_55069" result="shape"/>
</filter>
<filter id="filter1_d_9020_55069" x="207" y="99.0002" width="36" height="36" filterUnits="userSpaceOnUse" color-interpolation-filters="sRGB">
<feFlood flood-opacity="0" result="BackgroundImageFix"/>
<feColorMatrix in="SourceAlpha" type="matrix" values="0 0 0 0 0 0 0 0 0 0 0 0 0 0 0 0 0 0 127 0" result="hardAlpha"/>
<feOffset/>
<feGaussianBlur stdDeviation="1.5"/>
<feComposite in2="hardAlpha" operator="out"/>
<feColorMatrix type="matrix" values="0 0 0 0 0 0 0 0 0 0 0 0 0 0 0 0 0 0 0.2 0"/>
<feBlend mode="normal" in2="BackgroundImageFix" result="effect1_dropShadow_9020_55069"/>
<feBlend mode="normal" in="SourceGraphic" in2="effect1_dropShadow_9020_55069" result="shape"/>
</filter>
<linearGradient id="paint0_linear_9020_55069" x1="6" y1="65.5" x2="65" y2="10" gradientUnits="userSpaceOnUse">
<stop stop-color="#CEFFE6"/>
<stop offset="0.482962" stop-color="#F2EDFF"/>
<stop offset="1" stop-color="#FCEFF1"/>
</linearGradient>
<linearGradient id="paint1_linear_9020_55069" x1="34.1698" y1="75.9997" x2="34.7706" y2="0.00356399" gradientUnits="userSpaceOnUse">
<stop stop-color="#F2EDFF"/>
<stop offset="0.572917" stop-color="#FCEFF1"/>
<stop offset="0.947917" stop-color="#CEFFE6"/>
</linearGradient>
<radialGradient id="paint2_radial_9020_55069" cx="0" cy="0" r="1" gradientUnits="userSpaceOnUse" gradientTransform="translate(182.05 79.2365) rotate(32.3643) scale(36.4192 102.565)">
<stop stop-color="#FFB4E1"/>
<stop offset="0.473958" stop-color="#A2ABFF"/>
<stop offset="1" stop-color="#92DBC9"/>
</radialGradient>
<linearGradient id="paint3_linear_9020_55069" x1="1.00529" y1="1.13295e-07" x2="33.0651" y2="90.3894" gradientUnits="userSpaceOnUse">
<stop stop-color="#F0F3FD"/>
<stop offset="1" stop-color="#FCF0FD"/>
</linearGradient>
<linearGradient id="paint4_linear_9020_55069" x1="1.00529" y1="1.13295e-07" x2="33.0651" y2="90.3894" gradientUnits="userSpaceOnUse">
<stop stop-color="#F0F3FD"/>
<stop offset="1" stop-color="#FCF0FD"/>
</linearGradient>
<linearGradient id="paint5_linear_9020_55069" x1="21.5168" y1="72.5707" x2="48.3112" y2="111.787" gradientUnits="userSpaceOnUse">
<stop stop-color="#2A30EE"/>
<stop offset="1" stop-color="#A4A6FF"/>
</linearGradient>
<linearGradient id="paint6_linear_9020_55069" x1="108" y1="27.3167" x2="108" y2="59.73" gradientUnits="userSpaceOnUse">
<stop stop-color="#F9A606"/>
<stop offset="1" stop-color="#FBCC5F"/>
</linearGradient>
</defs>
</svg>
