<svg width="281" height="168" viewBox="0 0 281 168" fill="none" xmlns="http://www.w3.org/2000/svg">
<mask id="mask0_64_41870" style="mask-type:alpha" maskUnits="userSpaceOnUse" x="0" y="0" width="281" height="160">
<rect x="0.5" y="0.5" width="280" height="159" rx="15.5" fill="white" stroke="#EAEAEA"/>
</mask>
<g mask="url(#mask0_64_41870)">
<circle opacity="0.05" cx="140.5" cy="80.5" r="117.5" fill="url(#paint0_linear_64_41870)"/>
<circle opacity="0.05" cx="140.5" cy="80.5" r="97.5" fill="url(#paint1_linear_64_41870)"/>
<circle opacity="0.05" cx="140.5" cy="80.5" r="70.5" fill="url(#paint2_linear_64_41870)"/>
<g filter="url(#filter0_d_64_41870)">
<circle cx="140.5" cy="80.5" r="52.5" fill="url(#paint3_linear_64_41870)"/>
</g>
<path opacity="0.6" d="M117.289 67.5603C116.983 65.6998 117.973 63.8562 119.709 63.1202L141.086 54.0557C141.585 53.8441 142.149 53.8441 142.648 54.0557L164.024 63.1202C165.76 63.8562 166.75 65.6998 166.445 67.5603C165.697 72.1192 164.457 80.7611 164.457 87.9765C164.457 98.4261 145.135 106.47 142.23 107.62C141.989 107.715 141.747 107.709 141.511 107.602C138.631 106.3 119.277 97.2045 119.277 87.9765C119.277 80.7611 118.037 72.1193 117.289 67.5603Z" fill="url(#paint4_linear_64_41870)"/>
<g style="mix-blend-mode:overlay" opacity="0.25">
<path d="M120.185 68.4941C120.011 67.5583 120.504 66.6239 121.379 66.2499L141.866 57.4941L162.353 66.2499C163.228 66.6239 163.721 67.5583 163.547 68.4941C162.911 71.9179 161.517 80.1921 161.517 86.9826C161.517 95.4782 146.193 102.232 142.609 103.696C142.129 103.892 141.609 103.879 141.138 103.662C137.584 102.021 122.215 94.4896 122.215 86.9826C122.215 80.1922 120.821 71.9179 120.185 68.4941Z" fill="white"/>
</g>
<path fill-rule="evenodd" clip-rule="evenodd" d="M150.428 73.8939C151.087 74.4578 151.164 75.4494 150.6 76.1086L140.924 87.4186C140.624 87.7683 140.187 87.9692 139.727 87.9682C139.266 87.9672 138.83 87.7644 138.532 87.4134L134.385 82.5235C133.824 81.8619 133.905 80.8706 134.567 80.3095C135.229 79.7484 136.22 79.8299 136.781 80.4915L139.735 83.975L148.213 74.0663C148.777 73.4071 149.768 73.3299 150.428 73.8939Z" fill="url(#paint5_linear_64_41870)"/>
</g>
<defs>
<filter id="filter0_d_64_41870" x="80" y="21" width="121" height="121" filterUnits="userSpaceOnUse" color-interpolation-filters="sRGB">
<feFlood flood-opacity="0" result="BackgroundImageFix"/>
<feColorMatrix in="SourceAlpha" type="matrix" values="0 0 0 0 0 0 0 0 0 0 0 0 0 0 0 0 0 0 127 0" result="hardAlpha"/>
<feOffset dy="1"/>
<feGaussianBlur stdDeviation="4"/>
<feComposite in2="hardAlpha" operator="out"/>
<feColorMatrix type="matrix" values="0 0 0 0 0 0 0 0 0 0 0 0 0 0 0 0 0 0 0.2 0"/>
<feBlend mode="normal" in2="BackgroundImageFix" result="effect1_dropShadow_64_41870"/>
<feBlend mode="normal" in="SourceGraphic" in2="effect1_dropShadow_64_41870" result="shape"/>
</filter>
<linearGradient id="paint0_linear_64_41870" x1="258" y1="135.5" x2="40.5" y2="38" gradientUnits="userSpaceOnUse">
<stop stop-color="#F55252"/>
<stop offset="0.635417" stop-color="#FFB0E1"/>
<stop offset="1" stop-color="#F57952"/>
</linearGradient>
<linearGradient id="paint1_linear_64_41870" x1="238" y1="126.138" x2="57.5213" y2="45.234" gradientUnits="userSpaceOnUse">
<stop stop-color="#F55252"/>
<stop offset="0.635417" stop-color="#FFB0E1"/>
<stop offset="1" stop-color="#F57952"/>
</linearGradient>
<linearGradient id="paint2_linear_64_41870" x1="211" y1="113.5" x2="80.5" y2="55" gradientUnits="userSpaceOnUse">
<stop stop-color="#F55252"/>
<stop offset="0.635417" stop-color="#FFB0E1"/>
<stop offset="1" stop-color="#F57952"/>
</linearGradient>
<linearGradient id="paint3_linear_64_41870" x1="193" y1="105.074" x2="95.8191" y2="61.5106" gradientUnits="userSpaceOnUse">
<stop stop-color="#F55252"/>
<stop offset="0.635417" stop-color="#FA95D3"/>
<stop offset="1" stop-color="#F57952"/>
</linearGradient>
<linearGradient id="paint4_linear_64_41870" x1="167" y1="93.3896" x2="119.404" y2="73.5422" gradientUnits="userSpaceOnUse">
<stop stop-color="white"/>
<stop offset="1" stop-color="white" stop-opacity="0.3"/>
</linearGradient>
<linearGradient id="paint5_linear_64_41870" x1="151.013" y1="73.5599" x2="133.76" y2="83.8295" gradientUnits="userSpaceOnUse">
<stop stop-color="#F55252"/>
<stop offset="0.635417" stop-color="#FF68C6"/>
<stop offset="1" stop-color="#F57952"/>
</linearGradient>
</defs>
</svg>
