<svg width="272" height="160" viewBox="0 0 272 160" fill="none" xmlns="http://www.w3.org/2000/svg">
<g id="Graphic">
<g id="Group 1810">
<g id="Group 1812">
<g id="Network">
<g id="Ellipse 233" filter="url(#filter0_d_2440_457)">
<circle cx="49" cy="80" r="41" fill="url(#paint0_linear_2440_457)"/>
<circle cx="49" cy="80" r="40.5" stroke="url(#paint1_linear_2440_457)" stroke-opacity="0.2"/>
</g>
<g id="Group 1811">
<circle id="Ellipse 266" opacity="0.5" cx="49" cy="80" r="22" stroke="url(#paint2_linear_2440_457)" stroke-width="2" stroke-linecap="round" stroke-dasharray="4 8"/>
<circle id="Ellipse 234" cx="49.5" cy="58.5" r="6.5" fill="url(#paint3_radial_2440_457)"/>
<circle id="Ellipse 235" cx="71" cy="81" r="5" fill="url(#paint4_radial_2440_457)"/>
<circle id="Ellipse 236" cx="34" cy="95" r="9" fill="url(#paint5_radial_2440_457)"/>
</g>
</g>
<g id="ETH">
<g id="Ellipse 233_2" filter="url(#filter1_d_2440_457)">
<circle cx="223" cy="80" r="41" fill="url(#paint6_linear_2440_457)"/>
</g>
<path id="Union" fill-rule="evenodd" clip-rule="evenodd" d="M208.576 86.7094C209.755 87.5699 211.268 88.0001 213.114 88.0001C215.349 88.0001 217.133 87.4853 218.468 86.4559C219.802 85.411 220.741 83.8361 221.284 81.731C221.61 80.4404 221.889 79.1113 222.122 77.7437C222.2 77.252 222.238 76.8449 222.238 76.5222C222.238 75.4466 221.967 74.5247 221.424 73.7564C220.881 72.9728 220.136 72.3889 219.189 72.0048C218.243 71.6053 217.172 71.4055 215.977 71.4055C211.586 71.4055 208.863 73.5183 207.808 77.7437C207.435 79.2956 207.148 80.6247 206.946 81.731C206.869 82.2227 206.83 82.6376 206.83 82.9756C206.83 84.589 207.412 85.8336 208.576 86.7094ZM215.651 83.9206C215.046 84.4276 214.309 84.6812 213.44 84.6812C211.951 84.6812 211.206 83.9743 211.206 82.5607C211.206 82.2227 211.237 81.9 211.299 81.5928C211.578 80.1023 211.858 78.8424 212.137 77.8129C212.401 76.768 212.835 75.9921 213.44 75.485C214.061 74.978 214.806 74.7244 215.675 74.7244C217.149 74.7244 217.886 75.4236 217.886 76.8218C217.886 77.1598 217.855 77.4902 217.793 77.8129C217.607 78.8885 217.335 80.1484 216.978 81.5928C216.714 82.6376 216.272 83.4135 215.651 83.9206ZM224.205 87.6083C224.298 87.7158 224.43 87.7696 224.6 87.7696H227.766C227.921 87.7696 228.068 87.7158 228.208 87.6083C228.348 87.5007 228.433 87.3625 228.464 87.1934L229.535 82.1459H232.677C234.71 82.1459 236.308 81.7234 237.472 80.8783C238.651 80.0331 239.435 78.7271 239.823 76.9601C239.916 76.5452 239.962 76.1457 239.962 75.7616C239.962 74.4248 239.435 73.403 238.38 72.6962C237.34 71.9894 235.959 71.636 234.236 71.636H228.045C227.89 71.636 227.743 71.6898 227.603 71.7973C227.463 71.9049 227.378 72.0432 227.347 72.2122L224.135 87.1934C224.104 87.3471 224.127 87.4853 224.205 87.6083ZM234.539 78.4352C234.058 78.7886 233.492 78.9653 232.84 78.9653H230.163L231.048 74.8397H233.841C234.477 74.8397 234.927 74.9626 235.191 75.2084C235.455 75.4389 235.587 75.777 235.587 76.2225C235.587 76.4223 235.563 76.6528 235.517 76.914C235.362 77.5747 235.036 78.0818 234.539 78.4352Z" fill="#FEFEFE"/>
</g>
<g id="Arrows">
<path id="Polygon 1" opacity="0.3" d="M124.765 79.0491C125.389 79.5295 125.389 80.4705 124.765 80.9509L118.932 85.441C118.143 86.0484 117 85.4859 117 84.4901L117 75.5099C117 74.5141 118.143 73.9516 118.932 74.559L124.765 79.0491Z" fill="#17344F"/>
<path id="Polygon 2" opacity="0.5" d="M140.765 79.0491C141.389 79.5295 141.389 80.4705 140.765 80.9509L134.932 85.441C134.143 86.0484 133 85.4859 133 84.4901L133 75.5099C133 74.5141 134.143 73.9516 134.932 74.559L140.765 79.0491Z" fill="#17344F"/>
<path id="Polygon 3" d="M156.765 79.0491C157.389 79.5295 157.389 80.4705 156.765 80.9509L150.932 85.441C150.143 86.0484 149 85.4859 149 84.4901L149 75.5099C149 74.5141 150.143 73.9516 150.932 74.559L156.765 79.0491Z" fill="#17344F"/>
</g>
</g>
</g>
</g>
<defs>
<filter id="filter0_d_2440_457" x="0" y="31" width="98" height="98" filterUnits="userSpaceOnUse" color-interpolation-filters="sRGB">
<feFlood flood-opacity="0" result="BackgroundImageFix"/>
<feColorMatrix in="SourceAlpha" type="matrix" values="0 0 0 0 0 0 0 0 0 0 0 0 0 0 0 0 0 0 127 0" result="hardAlpha"/>
<feOffset/>
<feGaussianBlur stdDeviation="4"/>
<feComposite in2="hardAlpha" operator="out"/>
<feColorMatrix type="matrix" values="0 0 0 0 0 0 0 0 0 0 0 0 0 0 0 0 0 0 0.1 0"/>
<feBlend mode="normal" in2="BackgroundImageFix" result="effect1_dropShadow_2440_457"/>
<feBlend mode="normal" in="SourceGraphic" in2="effect1_dropShadow_2440_457" result="shape"/>
</filter>
<filter id="filter1_d_2440_457" x="174" y="31" width="98" height="98" filterUnits="userSpaceOnUse" color-interpolation-filters="sRGB">
<feFlood flood-opacity="0" result="BackgroundImageFix"/>
<feColorMatrix in="SourceAlpha" type="matrix" values="0 0 0 0 0 0 0 0 0 0 0 0 0 0 0 0 0 0 127 0" result="hardAlpha"/>
<feOffset/>
<feGaussianBlur stdDeviation="4"/>
<feComposite in2="hardAlpha" operator="out"/>
<feColorMatrix type="matrix" values="0 0 0 0 0 0 0 0 0 0 0 0 0 0 0 0 0 0 0.1 0"/>
<feBlend mode="normal" in2="BackgroundImageFix" result="effect1_dropShadow_2440_457"/>
<feBlend mode="normal" in="SourceGraphic" in2="effect1_dropShadow_2440_457" result="shape"/>
</filter>
<linearGradient id="paint0_linear_2440_457" x1="47.9067" y1="39" x2="45.9393" y2="137.857" gradientUnits="userSpaceOnUse">
<stop stop-color="#EBFAFF"/>
<stop offset="0.583333" stop-color="#FFE7D8"/>
<stop offset="1" stop-color="#FFCFA3"/>
</linearGradient>
<linearGradient id="paint1_linear_2440_457" x1="20.8125" y1="148.333" x2="113.752" y2="65.7207" gradientUnits="userSpaceOnUse">
<stop stop-color="#FC845B"/>
<stop offset="0.453125" stop-color="#E7A77F"/>
<stop offset="1" stop-color="#00A7D9"/>
</linearGradient>
<linearGradient id="paint2_linear_2440_457" x1="49" y1="58" x2="49" y2="102" gradientUnits="userSpaceOnUse">
<stop stop-color="#FB855C"/>
<stop offset="1" stop-color="#FBA85C"/>
</linearGradient>
<radialGradient id="paint3_radial_2440_457" cx="0" cy="0" r="1" gradientUnits="userSpaceOnUse" gradientTransform="translate(47 63.5) rotate(-51.953) scale(14.6031 21.9132)">
<stop stop-color="#FC845B"/>
<stop offset="1" stop-color="#00A7D9"/>
</radialGradient>
<radialGradient id="paint4_radial_2440_457" cx="0" cy="0" r="1" gradientUnits="userSpaceOnUse" gradientTransform="translate(69.0769 84.8462) rotate(-51.953) scale(11.2331 16.8563)">
<stop stop-color="#FC845B"/>
<stop offset="1" stop-color="#00A7D9"/>
</radialGradient>
<radialGradient id="paint5_radial_2440_457" cx="0" cy="0" r="1" gradientUnits="userSpaceOnUse" gradientTransform="translate(30.5385 101.923) rotate(-51.953) scale(20.2197 30.3413)">
<stop stop-color="#FC845B"/>
<stop offset="1" stop-color="#00A7D9"/>
</radialGradient>
<linearGradient id="paint6_linear_2440_457" x1="182" y1="80" x2="264" y2="80" gradientUnits="userSpaceOnUse">
<stop stop-color="#FF0420"/>
<stop offset="1" stop-color="#FF6C7D"/>
</linearGradient>
</defs>
</svg>
