<svg width="592" height="315" viewBox="0 0 592 315" fill="none" xmlns="http://www.w3.org/2000/svg">
<rect width="592" height="315" rx="8" fill="white"/>
<path d="M66 99H310" stroke="#EAEAEA" stroke-width="2" stroke-linecap="round" stroke-linejoin="round" stroke-dasharray="2 8"/>
<path d="M65.9062 141C65.9062 141 90.9062 130.5 108.906 112C126.906 93.5003 122.581 68 145.609 68C168.637 68 161.603 129.405 193.127 127C211.135 125.627 218.83 111.221 236.875 112C252.916 112.693 259.126 127.942 275.155 127C295.397 125.812 317.536 99.0003 317.536 99.0003V159C317.536 159 325.63 107.974 344.656 127C366.656 149 372.221 99.0003 372.221 99.0003V159C372.221 159 392.221 152.843 409.564 135.5C426.906 118.158 426.906 99.0003 426.906 99.0003V159C442.403 153.221 431.986 122 456.696 122C481.407 122 480.906 99.0003 480.906 99.0003V159" stroke="#5FC4B9" stroke-width="2" stroke-linejoin="round"/>
<path d="M65.9062 193H483.906" stroke="#E49F6C" stroke-width="2" stroke-linecap="round" stroke-linejoin="round"/>
<path d="M65.9062 267H483.906" stroke="#E48062" stroke-width="2" stroke-linecap="round" stroke-linejoin="round"/>
<path d="M65.9062 279H483.906" stroke="#EAEAEA" stroke-width="2" stroke-linecap="round" stroke-linejoin="round" stroke-dasharray="2 8"/>
<path d="M196 39L475 39" stroke="#EAEAEA" stroke-width="2" stroke-linecap="round" stroke-linejoin="round" stroke-dasharray="2 8"/>
<path d="M65.6094 39H111.609" stroke="#EAEAEA" stroke-width="2" stroke-linecap="round" stroke-linejoin="round" stroke-dasharray="2 8"/>
<path d="M65 159H310" stroke="#EAEAEA" stroke-width="2" stroke-linecap="round" stroke-linejoin="round" stroke-dasharray="2 8"/>
<path d="M65.9062 219H483.906" stroke="#EAEAEA" stroke-width="2" stroke-linecap="round" stroke-linejoin="round" stroke-dasharray="2 8"/>
<circle cx="144.766" cy="68" r="3" fill="#17344F"/>
<path d="M365 99H324" stroke="#B6BDC2" stroke-width="2" stroke-dasharray="2 8"/>
<path d="M364.906 159H322.906" stroke="#B6BDC2" stroke-width="2" stroke-dasharray="2 8"/>
<path d="M420.906 99H377.906" stroke="#B6BDC2" stroke-width="2" stroke-dasharray="2 8"/>
<path d="M421 159L381 159" stroke="#B6BDC2" stroke-width="2" stroke-dasharray="2 8"/>
<path d="M474.906 99H431.906" stroke="#B6BDC2" stroke-width="2" stroke-dasharray="2 8"/>
<path d="M474.906 159H431.906" stroke="#B6BDC2" stroke-width="2" stroke-dasharray="2 8"/>
<circle cx="317.906" cy="99" r="3" fill="#17344F"/>
<circle cx="371.906" cy="99" r="3" fill="#17344F"/>
<circle cx="426.906" cy="99" r="3" fill="#17344F"/>
<circle cx="454.906" cy="99" r="3" fill="#17344F"/>
<circle cx="318" cy="159" r="3" fill="#575CFE"/>
<circle cx="371.906" cy="159" r="3" fill="#575CFE"/>
<circle cx="426.906" cy="159" r="3" fill="#575CFE"/>
<circle cx="480.906" cy="159" r="3" fill="#575CFE"/>
<path d="M118.789 35H120.563L122.938 40.7969H123.031L125.406 35H127.18V43H125.789V37.5039H125.715L123.504 42.9766H122.465L120.254 37.4922H120.18V43H118.789V35ZM128.695 43V37H130.109V43H128.695ZM129.406 36.1484C129.182 36.1484 128.99 36.0742 128.828 35.9258C128.667 35.7747 128.586 35.5937 128.586 35.3828C128.586 35.1693 128.667 34.9883 128.828 34.8398C128.99 34.6888 129.182 34.6133 129.406 34.6133C129.633 34.6133 129.826 34.6888 129.984 34.8398C130.146 34.9883 130.227 35.1693 130.227 35.3828C130.227 35.5937 130.146 35.7747 129.984 35.9258C129.826 36.0742 129.633 36.1484 129.406 36.1484ZM132.978 39.4844V43H131.563V37H132.915V38.0195H132.985C133.123 37.6836 133.343 37.4167 133.646 37.2187C133.95 37.0208 134.326 36.9219 134.774 36.9219C135.188 36.9219 135.549 37.0104 135.856 37.1875C136.166 37.3646 136.406 37.6211 136.575 37.957C136.747 38.293 136.832 38.7005 136.829 39.1797V43H135.415V39.3984C135.415 38.9974 135.311 38.6836 135.103 38.457C134.897 38.2305 134.612 38.1172 134.247 38.1172C134 38.1172 133.78 38.1719 133.587 38.2812C133.397 38.388 133.247 38.543 133.138 38.7461C133.031 38.9492 132.978 39.1953 132.978 39.4844ZM138.267 43V37H139.681V43H138.267ZM138.978 36.1484C138.754 36.1484 138.561 36.0742 138.399 35.9258C138.238 35.7747 138.157 35.5937 138.157 35.3828C138.157 35.1693 138.238 34.9883 138.399 34.8398C138.561 34.6888 138.754 34.6133 138.978 34.6133C139.204 34.6133 139.397 34.6888 139.556 34.8398C139.717 34.9883 139.798 35.1693 139.798 35.3828C139.798 35.5937 139.717 35.7747 139.556 35.9258C139.397 36.0742 139.204 36.1484 138.978 36.1484ZM141.135 43V37H142.486V38.0195H142.557C142.682 37.6758 142.889 37.4076 143.178 37.2148C143.467 37.0195 143.812 36.9219 144.213 36.9219C144.619 36.9219 144.962 37.0208 145.24 37.2187C145.521 37.4141 145.719 37.681 145.834 38.0195H145.896C146.029 37.6862 146.253 37.4206 146.568 37.2227C146.886 37.0221 147.262 36.9219 147.697 36.9219C148.249 36.9219 148.7 37.0964 149.049 37.4453C149.398 37.7943 149.572 38.3034 149.572 38.9727V43H148.154V39.1914C148.154 38.819 148.055 38.5469 147.857 38.375C147.66 38.2005 147.417 38.1133 147.131 38.1133C146.79 38.1133 146.523 38.2201 146.33 38.4336C146.14 38.6445 146.045 38.9193 146.045 39.2578V43H144.658V39.1328C144.658 38.8229 144.564 38.5755 144.377 38.3906C144.192 38.2057 143.95 38.1133 143.65 38.1133C143.447 38.1133 143.262 38.1654 143.096 38.2695C142.929 38.3711 142.796 38.5156 142.697 38.7031C142.598 38.888 142.549 39.1042 142.549 39.3516V43H141.135ZM154.831 40.4766V37H156.245V43H154.874V41.9336H154.812C154.676 42.2695 154.453 42.5443 154.144 42.7578C153.836 42.9714 153.457 43.0781 153.007 43.0781C152.614 43.0781 152.266 42.9909 151.964 42.8164C151.664 42.6393 151.43 42.3828 151.261 42.0469C151.091 41.7083 151.007 41.2995 151.007 40.8203V37H152.421V40.6016C152.421 40.9818 152.525 41.2839 152.733 41.5078C152.942 41.7318 153.215 41.8437 153.554 41.8437C153.762 41.8437 153.964 41.793 154.159 41.6914C154.354 41.5898 154.515 41.4388 154.64 41.2383C154.767 41.0352 154.831 40.7812 154.831 40.4766ZM157.699 43V37H159.051V38.0195H159.121C159.246 37.6758 159.453 37.4076 159.742 37.2148C160.031 37.0195 160.376 36.9219 160.777 36.9219C161.184 36.9219 161.526 37.0208 161.805 37.2187C162.086 37.4141 162.284 37.681 162.398 38.0195H162.461C162.594 37.6862 162.818 37.4206 163.133 37.2227C163.451 37.0221 163.827 36.9219 164.262 36.9219C164.814 36.9219 165.264 37.0964 165.613 37.4453C165.962 37.7943 166.137 38.3034 166.137 38.9727V43H164.719V39.1914C164.719 38.819 164.62 38.5469 164.422 38.375C164.224 38.2005 163.982 38.1133 163.695 38.1133C163.354 38.1133 163.087 38.2201 162.895 38.4336C162.704 38.6445 162.609 38.9193 162.609 39.2578V43H161.223V39.1328C161.223 38.8229 161.129 38.5755 160.941 38.3906C160.757 38.2057 160.514 38.1133 160.215 38.1133C160.012 38.1133 159.827 38.1654 159.66 38.2695C159.493 38.3711 159.361 38.5156 159.262 38.7031C159.163 38.888 159.113 39.1042 159.113 39.3516V43H157.699ZM173.296 37V38.0937H169.847V37H173.296ZM170.698 35.5625H172.112V41.1953C172.112 41.3854 172.141 41.5313 172.198 41.6328C172.258 41.7318 172.336 41.7995 172.433 41.8359C172.529 41.8724 172.636 41.8906 172.753 41.8906C172.841 41.8906 172.922 41.8841 172.995 41.8711C173.071 41.8581 173.128 41.8464 173.167 41.8359L173.405 42.9414C173.33 42.9674 173.222 42.9961 173.081 43.0273C172.943 43.0586 172.774 43.0768 172.573 43.082C172.219 43.0924 171.9 43.0391 171.616 42.9219C171.332 42.8021 171.107 42.6172 170.94 42.3672C170.776 42.1172 170.696 41.8047 170.698 41.4297V35.5625ZM176.205 43.1211C175.825 43.1211 175.482 43.0534 175.178 42.918C174.876 42.7799 174.636 42.5768 174.459 42.3086C174.285 42.0404 174.197 41.7096 174.197 41.3164C174.197 40.9779 174.26 40.6979 174.385 40.4766C174.51 40.2552 174.68 40.0781 174.896 39.9453C175.113 39.8125 175.356 39.7122 175.627 39.6445C175.9 39.5742 176.183 39.5234 176.475 39.4922C176.826 39.4557 177.111 39.4232 177.33 39.3945C177.549 39.3633 177.708 39.3164 177.807 39.2539C177.908 39.1888 177.959 39.0885 177.959 38.9531V38.9297C177.959 38.6354 177.872 38.4076 177.697 38.2461C177.523 38.0846 177.271 38.0039 176.943 38.0039C176.597 38.0039 176.322 38.0794 176.119 38.2305C175.919 38.3815 175.783 38.5599 175.713 38.7656L174.393 38.5781C174.497 38.2135 174.669 37.9089 174.908 37.6641C175.148 37.4167 175.441 37.2318 175.787 37.1094C176.133 36.9844 176.516 36.9219 176.936 36.9219C177.225 36.9219 177.512 36.9557 177.799 37.0234C178.085 37.0911 178.347 37.2031 178.584 37.3594C178.821 37.513 179.011 37.7227 179.154 37.9883C179.3 38.2539 179.373 38.5859 179.373 38.9844V43H178.014V42.1758H177.967C177.881 42.3424 177.76 42.4987 177.604 42.6445C177.45 42.7878 177.256 42.9036 177.021 42.9922C176.79 43.0781 176.518 43.1211 176.205 43.1211ZM176.572 42.082C176.856 42.082 177.102 42.026 177.311 41.9141C177.519 41.7995 177.679 41.6484 177.791 41.4609C177.906 41.2734 177.963 41.069 177.963 40.8477V40.1406C177.919 40.1771 177.843 40.2109 177.736 40.2422C177.632 40.2734 177.515 40.3008 177.385 40.3242C177.255 40.3477 177.126 40.3685 176.998 40.3867C176.87 40.4049 176.76 40.4206 176.666 40.4336C176.455 40.4622 176.266 40.5091 176.1 40.5742C175.933 40.6393 175.801 40.7305 175.705 40.8477C175.609 40.9622 175.561 41.1107 175.561 41.293C175.561 41.5534 175.656 41.75 175.846 41.8828C176.036 42.0156 176.278 42.082 176.572 42.082ZM182.084 41.1172L182.08 39.4102H182.307L184.463 37H186.115L183.463 39.9531H183.17L182.084 41.1172ZM180.795 43V35H182.209V43H180.795ZM184.561 43L182.607 40.2695L183.561 39.2734L186.252 43H184.561ZM189.467 43.1172C188.865 43.1172 188.346 42.9922 187.908 42.7422C187.473 42.4896 187.139 42.1328 186.904 41.6719C186.67 41.2083 186.553 40.6628 186.553 40.0352C186.553 39.418 186.67 38.8763 186.904 38.4102C187.141 37.9414 187.472 37.5768 187.896 37.3164C188.321 37.0534 188.82 36.9219 189.393 36.9219C189.762 36.9219 190.111 36.9818 190.439 37.1016C190.77 37.2187 191.062 37.401 191.314 37.6484C191.57 37.8958 191.77 38.2109 191.916 38.5937C192.062 38.974 192.135 39.4271 192.135 39.9531V40.3867H187.217V39.4336H190.779C190.777 39.1628 190.718 38.9219 190.604 38.7109C190.489 38.4974 190.329 38.3294 190.123 38.207C189.92 38.0846 189.683 38.0234 189.412 38.0234C189.123 38.0234 188.869 38.0937 188.65 38.2344C188.432 38.3724 188.261 38.5547 188.139 38.7812C188.019 39.0052 187.958 39.2513 187.955 39.5195V40.3516C187.955 40.7005 188.019 41 188.146 41.25C188.274 41.4974 188.452 41.6875 188.682 41.8203C188.911 41.9505 189.179 42.0156 189.486 42.0156C189.692 42.0156 189.878 41.987 190.045 41.9297C190.212 41.8698 190.356 41.7826 190.479 41.668C190.601 41.5534 190.693 41.4115 190.756 41.2422L192.076 41.3906C191.993 41.7396 191.834 42.0443 191.6 42.3047C191.368 42.5625 191.071 42.763 190.709 42.9062C190.347 43.0469 189.933 43.1172 189.467 43.1172ZM118.727 61.25V53H120.117V53.9922H120.199C120.272 53.8464 120.375 53.6914 120.508 53.5273C120.641 53.3607 120.82 53.2187 121.047 53.1016C121.273 52.9818 121.563 52.9219 121.914 52.9219C122.378 52.9219 122.796 53.0404 123.168 53.2773C123.543 53.5117 123.84 53.8594 124.059 54.3203C124.28 54.7786 124.391 55.3411 124.391 56.0078C124.391 56.6667 124.283 57.2266 124.066 57.6875C123.85 58.1484 123.556 58.5 123.184 58.7422C122.811 58.9844 122.389 59.1055 121.918 59.1055C121.574 59.1055 121.289 59.0482 121.063 58.9336C120.836 58.819 120.654 58.681 120.516 58.5195C120.38 58.3555 120.275 58.2005 120.199 58.0547H120.141V61.25H118.727ZM120.113 56C120.113 56.388 120.168 56.7279 120.277 57.0195C120.389 57.3112 120.549 57.5391 120.758 57.7031C120.969 57.8646 121.224 57.9453 121.523 57.9453C121.836 57.9453 122.098 57.862 122.309 57.6953C122.52 57.526 122.678 57.2956 122.785 57.0039C122.895 56.7096 122.949 56.375 122.949 56C122.949 55.6276 122.896 55.2969 122.789 55.0078C122.682 54.7187 122.523 54.4922 122.313 54.3281C122.102 54.1641 121.839 54.082 121.523 54.082C121.221 54.082 120.965 54.1615 120.754 54.3203C120.543 54.4792 120.383 54.7018 120.273 54.9883C120.167 55.2747 120.113 55.612 120.113 56ZM125.602 59V53H126.973V54H127.035C127.145 53.6536 127.332 53.3867 127.598 53.1992C127.866 53.0091 128.172 52.9141 128.516 52.9141C128.594 52.9141 128.681 52.918 128.777 52.9258C128.876 52.931 128.958 52.9401 129.023 52.9531V54.2539C128.964 54.2331 128.868 54.2148 128.738 54.1992C128.611 54.181 128.487 54.1719 128.367 54.1719C128.109 54.1719 127.878 54.2279 127.672 54.3398C127.469 54.4492 127.309 54.6016 127.191 54.7969C127.074 54.9922 127.016 55.2174 127.016 55.4727V59H125.602ZM132.333 59.1172C131.747 59.1172 131.239 58.9883 130.81 58.7305C130.38 58.4727 130.047 58.112 129.81 57.6484C129.575 57.1849 129.458 56.6432 129.458 56.0234C129.458 55.4036 129.575 54.8607 129.81 54.3945C130.047 53.9284 130.38 53.5664 130.81 53.3086C131.239 53.0508 131.747 52.9219 132.333 52.9219C132.919 52.9219 133.427 53.0508 133.856 53.3086C134.286 53.5664 134.618 53.9284 134.853 54.3945C135.09 54.8607 135.208 55.4036 135.208 56.0234C135.208 56.6432 135.09 57.1849 134.853 57.6484C134.618 58.112 134.286 58.4727 133.856 58.7305C133.427 58.9883 132.919 59.1172 132.333 59.1172ZM132.341 57.9844C132.659 57.9844 132.924 57.8971 133.138 57.7227C133.351 57.5456 133.51 57.3086 133.614 57.0117C133.721 56.7148 133.774 56.3841 133.774 56.0195C133.774 55.6523 133.721 55.3203 133.614 55.0234C133.51 54.724 133.351 54.4857 133.138 54.3086C132.924 54.1315 132.659 54.043 132.341 54.043C132.015 54.043 131.744 54.1315 131.528 54.3086C131.315 54.4857 131.155 54.724 131.048 55.0234C130.944 55.3203 130.892 55.6523 130.892 56.0195C130.892 56.3841 130.944 56.7148 131.048 57.0117C131.155 57.3086 131.315 57.5456 131.528 57.7227C131.744 57.8971 132.015 57.9844 132.341 57.9844ZM139.447 53V54.0937H135.9V53H139.447ZM136.787 59V52.4336C136.787 52.0299 136.87 51.694 137.037 51.4258C137.206 51.1576 137.433 50.957 137.717 50.8242C138.001 50.6914 138.316 50.625 138.662 50.625C138.907 50.625 139.124 50.6445 139.314 50.6836C139.505 50.7227 139.645 50.7578 139.736 50.7891L139.455 51.8828C139.395 51.8646 139.32 51.8464 139.229 51.8281C139.137 51.8073 139.036 51.7969 138.924 51.7969C138.661 51.7969 138.475 51.8607 138.365 51.9883C138.258 52.1133 138.205 52.293 138.205 52.5273V59H136.787ZM140.555 59V53H141.969V59H140.555ZM141.266 52.1484C141.042 52.1484 140.849 52.0742 140.688 51.9258C140.526 51.7747 140.445 51.5937 140.445 51.3828C140.445 51.1693 140.526 50.9883 140.688 50.8398C140.849 50.6888 141.042 50.6133 141.266 50.6133C141.492 50.6133 141.685 50.6888 141.844 50.8398C142.005 50.9883 142.086 51.1693 142.086 51.3828C142.086 51.5937 142.005 51.7747 141.844 51.9258C141.685 52.0742 141.492 52.1484 141.266 52.1484ZM146.419 53V54.0937H142.97V53H146.419ZM143.821 51.5625H145.235V57.1953C145.235 57.3854 145.264 57.5313 145.321 57.6328C145.381 57.7318 145.459 57.7995 145.556 57.8359C145.652 57.8724 145.759 57.8906 145.876 57.8906C145.965 57.8906 146.045 57.8841 146.118 57.8711C146.194 57.8581 146.251 57.8464 146.29 57.8359L146.528 58.9414C146.453 58.9674 146.345 58.9961 146.204 59.0273C146.066 59.0586 145.897 59.0768 145.696 59.082C145.342 59.0924 145.023 59.0391 144.739 58.9219C144.455 58.8021 144.23 58.6172 144.063 58.3672C143.899 58.1172 143.819 57.8047 143.821 57.4297V51.5625ZM150.393 59V51H151.842V57.7852H155.365V59H150.393ZM155.251 52.2148V51H161.634V52.2148H159.161V59H157.724V52.2148H155.251ZM163.935 51L166.017 57.2969H166.099L168.177 51H169.771L166.95 59H165.161L162.345 51H163.935Z" fill="#596F78"/>
<path d="M13.3267 43V35.7273H14.6442V41.8956H17.8473V43H13.3267ZM21.3132 43.1065C20.7805 43.1065 20.3189 42.9893 19.9283 42.755C19.5376 42.5206 19.2346 42.1927 19.0192 41.7713C18.8061 41.3499 18.6996 40.8575 18.6996 40.294C18.6996 39.7306 18.8061 39.237 19.0192 38.8132C19.2346 38.3894 19.5376 38.0604 19.9283 37.826C20.3189 37.5916 20.7805 37.4744 21.3132 37.4744C21.8459 37.4744 22.3075 37.5916 22.6982 37.826C23.0888 38.0604 23.3906 38.3894 23.6037 38.8132C23.8191 39.237 23.9268 39.7306 23.9268 40.294C23.9268 40.8575 23.8191 41.3499 23.6037 41.7713C23.3906 42.1927 23.0888 42.5206 22.6982 42.755C22.3075 42.9893 21.8459 43.1065 21.3132 43.1065ZM21.3203 42.0767C21.6091 42.0767 21.8506 41.9974 22.0447 41.8388C22.2389 41.6778 22.3833 41.4624 22.478 41.1925C22.575 40.9226 22.6236 40.6219 22.6236 40.2905C22.6236 39.9567 22.575 39.6548 22.478 39.3849C22.3833 39.1127 22.2389 38.8961 22.0447 38.7351C21.8506 38.5741 21.6091 38.4936 21.3203 38.4936C21.0244 38.4936 20.7782 38.5741 20.5817 38.7351C20.3875 38.8961 20.242 39.1127 20.1449 39.3849C20.0502 39.6548 20.0028 39.9567 20.0028 40.2905C20.0028 40.6219 20.0502 40.9226 20.1449 41.1925C20.242 41.4624 20.3875 41.6778 20.5817 41.8388C20.7782 41.9974 21.0244 42.0767 21.3203 42.0767ZM25.9874 43L24.4462 37.5455H25.7566L26.7154 41.3807H26.7651L27.7452 37.5455H29.0414L30.0215 41.3594H30.0748L31.0194 37.5455H32.3333L30.7885 43H29.4498L28.427 39.3139H28.3525L27.3297 43H25.9874ZM35.7681 43V35.7273H37.0856V41.8956H40.2887V43H35.7681ZM40.1848 36.8317V35.7273H45.9874V36.8317H43.7395V43H42.4327V36.8317H40.1848ZM48.079 35.7273L49.9718 41.4517H50.0463L51.9355 35.7273H53.3844L50.8205 43H49.1941L46.6337 35.7273H48.079Z" fill="#B6BDC2"/>
<path d="M12.9185 283V275.727H14.236V278.806H17.606V275.727H18.927V283H17.606V279.911H14.236V283H12.9185ZM20.3031 283V277.545H21.5886V283H20.3031ZM20.9494 276.771C20.7458 276.771 20.5706 276.704 20.4238 276.569C20.277 276.432 20.2037 276.267 20.2037 276.075C20.2037 275.881 20.277 275.717 20.4238 275.582C20.5706 275.444 20.7458 275.376 20.9494 275.376C21.1554 275.376 21.3306 275.444 21.475 275.582C21.6217 275.717 21.6951 275.881 21.6951 276.075C21.6951 276.267 21.6217 276.432 21.475 276.569C21.3306 276.704 21.1554 276.771 20.9494 276.771ZM25.2827 285.159C24.821 285.159 24.4245 285.096 24.093 284.971C23.7616 284.848 23.4953 284.682 23.294 284.474C23.0928 284.265 22.9531 284.035 22.875 283.781L24.0327 283.501C24.0848 283.607 24.1605 283.713 24.2599 283.817C24.3594 283.923 24.4931 284.011 24.6612 284.08C24.8317 284.151 25.0459 284.186 25.304 284.186C25.6686 284.186 25.9704 284.097 26.2095 283.92C26.4486 283.745 26.5682 283.456 26.5682 283.053V282.02H26.5043C26.438 282.152 26.3409 282.289 26.2131 282.428C26.0876 282.568 25.9207 282.685 25.7124 282.78C25.5064 282.875 25.2472 282.922 24.9347 282.922C24.5156 282.922 24.1357 282.824 23.7947 282.627C23.4562 282.428 23.1863 282.132 22.9851 281.739C22.7862 281.344 22.6868 280.849 22.6868 280.255C22.6868 279.656 22.7862 279.151 22.9851 278.739C23.1863 278.324 23.4574 278.011 23.7983 277.798C24.1392 277.582 24.5192 277.474 24.9382 277.474C25.2578 277.474 25.5206 277.529 25.7266 277.638C25.9349 277.744 26.1006 277.873 26.2237 278.025C26.3468 278.174 26.4403 278.315 26.5043 278.447H26.5753V277.545H27.843V283.089C27.843 283.555 27.7318 283.941 27.5092 284.246C27.2867 284.552 26.9825 284.78 26.5966 284.932C26.2107 285.083 25.7727 285.159 25.2827 285.159ZM25.2933 281.913C25.5656 281.913 25.7976 281.847 25.9893 281.714C26.1811 281.582 26.3267 281.391 26.4261 281.143C26.5256 280.894 26.5753 280.596 26.5753 280.248C26.5753 279.905 26.5256 279.604 26.4261 279.346C26.3291 279.088 26.1847 278.888 25.9929 278.746C25.8035 278.601 25.5703 278.529 25.2933 278.529C25.0069 278.529 24.7678 278.604 24.576 278.753C24.3842 278.902 24.2398 279.107 24.1428 279.367C24.0457 279.625 23.9972 279.919 23.9972 280.248C23.9972 280.582 24.0457 280.874 24.1428 281.125C24.2422 281.374 24.3878 281.568 24.5795 281.707C24.7737 281.845 25.0116 281.913 25.2933 281.913ZM30.446 279.804V283H29.1605V275.727H30.4176V278.472H30.4815C30.6094 278.165 30.8071 277.922 31.0746 277.744C31.3445 277.564 31.6877 277.474 32.1044 277.474C32.4832 277.474 32.8134 277.554 33.0952 277.712C33.3769 277.871 33.5947 278.103 33.7486 278.408C33.9048 278.714 33.983 279.087 33.983 279.527V283H32.6974V279.726C32.6974 279.359 32.6027 279.074 32.4134 278.87C32.2263 278.664 31.9635 278.561 31.625 278.561C31.3977 278.561 31.1941 278.611 31.0142 278.71C30.8366 278.807 30.697 278.948 30.5952 279.133C30.4957 279.317 30.446 279.541 30.446 279.804ZM37.8306 283V275.727H39.1481V281.896H42.3512V283H37.8306ZM42.2473 276.832V275.727H48.0499V276.832H45.802V283H44.4952V276.832H42.2473ZM50.1415 275.727L52.0343 281.452H52.1088L53.998 275.727H55.4469L52.883 283H51.2566L48.6962 275.727H50.1415Z" fill="#B6BDC2"/>
<path d="M267.789 172V164H269.238V170.785H272.762V172H267.789ZM272.647 165.215V164H279.03V165.215H276.558V172H275.12V165.215H272.647ZM281.331 164L283.413 170.297H283.495L285.573 164H287.167L284.347 172H282.558L279.741 164H281.331ZM292.613 172.121C292.233 172.121 291.891 172.053 291.586 171.918C291.284 171.78 291.044 171.577 290.867 171.309C290.693 171.04 290.605 170.71 290.605 170.316C290.605 169.978 290.668 169.698 290.793 169.477C290.918 169.255 291.089 169.078 291.305 168.945C291.521 168.812 291.764 168.712 292.035 168.645C292.309 168.574 292.591 168.523 292.883 168.492C293.234 168.456 293.52 168.423 293.738 168.395C293.957 168.363 294.116 168.316 294.215 168.254C294.316 168.189 294.367 168.089 294.367 167.953V167.93C294.367 167.635 294.28 167.408 294.105 167.246C293.931 167.085 293.68 167.004 293.352 167.004C293.005 167.004 292.73 167.079 292.527 167.23C292.327 167.382 292.191 167.56 292.121 167.766L290.801 167.578C290.905 167.214 291.077 166.909 291.316 166.664C291.556 166.417 291.849 166.232 292.195 166.109C292.542 165.984 292.924 165.922 293.344 165.922C293.633 165.922 293.921 165.956 294.207 166.023C294.493 166.091 294.755 166.203 294.992 166.359C295.229 166.513 295.419 166.723 295.563 166.988C295.708 167.254 295.781 167.586 295.781 167.984V172H294.422V171.176H294.375C294.289 171.342 294.168 171.499 294.012 171.645C293.858 171.788 293.664 171.904 293.43 171.992C293.198 172.078 292.926 172.121 292.613 172.121ZM292.98 171.082C293.264 171.082 293.51 171.026 293.719 170.914C293.927 170.799 294.087 170.648 294.199 170.461C294.314 170.273 294.371 170.069 294.371 169.848V169.141C294.327 169.177 294.251 169.211 294.145 169.242C294.04 169.273 293.923 169.301 293.793 169.324C293.663 169.348 293.534 169.368 293.406 169.387C293.279 169.405 293.168 169.421 293.074 169.434C292.863 169.462 292.674 169.509 292.508 169.574C292.341 169.639 292.21 169.73 292.113 169.848C292.017 169.962 291.969 170.111 291.969 170.293C291.969 170.553 292.064 170.75 292.254 170.883C292.444 171.016 292.686 171.082 292.98 171.082ZM300.242 166V167.094H296.695V166H300.242ZM297.582 172V165.434C297.582 165.03 297.665 164.694 297.832 164.426C298.001 164.158 298.228 163.957 298.512 163.824C298.796 163.691 299.111 163.625 299.457 163.625C299.702 163.625 299.919 163.645 300.109 163.684C300.299 163.723 300.44 163.758 300.531 163.789L300.25 164.883C300.19 164.865 300.115 164.846 300.023 164.828C299.932 164.807 299.831 164.797 299.719 164.797C299.456 164.797 299.27 164.861 299.16 164.988C299.053 165.113 299 165.293 299 165.527V172H297.582ZM304.346 166V167.094H300.896V166H304.346ZM301.748 164.562H303.162V170.195C303.162 170.385 303.191 170.531 303.248 170.633C303.308 170.732 303.386 170.799 303.482 170.836C303.579 170.872 303.686 170.891 303.803 170.891C303.891 170.891 303.972 170.884 304.045 170.871C304.12 170.858 304.178 170.846 304.217 170.836L304.455 171.941C304.38 171.967 304.271 171.996 304.131 172.027C303.993 172.059 303.824 172.077 303.623 172.082C303.269 172.092 302.95 172.039 302.666 171.922C302.382 171.802 302.157 171.617 301.99 171.367C301.826 171.117 301.745 170.805 301.748 170.43V164.562ZM308.12 172.117C307.519 172.117 306.999 171.992 306.562 171.742C306.127 171.49 305.792 171.133 305.558 170.672C305.323 170.208 305.206 169.663 305.206 169.035C305.206 168.418 305.323 167.876 305.558 167.41C305.795 166.941 306.125 166.577 306.55 166.316C306.974 166.053 307.473 165.922 308.046 165.922C308.416 165.922 308.765 165.982 309.093 166.102C309.424 166.219 309.715 166.401 309.968 166.648C310.223 166.896 310.424 167.211 310.569 167.594C310.715 167.974 310.788 168.427 310.788 168.953V169.387H305.87V168.434H309.433C309.43 168.163 309.371 167.922 309.257 167.711C309.142 167.497 308.982 167.329 308.776 167.207C308.573 167.085 308.336 167.023 308.065 167.023C307.776 167.023 307.522 167.094 307.304 167.234C307.085 167.372 306.914 167.555 306.792 167.781C306.672 168.005 306.611 168.251 306.608 168.52V169.352C306.608 169.701 306.672 170 306.8 170.25C306.927 170.497 307.106 170.687 307.335 170.82C307.564 170.951 307.832 171.016 308.14 171.016C308.345 171.016 308.532 170.987 308.698 170.93C308.865 170.87 309.009 170.783 309.132 170.668C309.254 170.553 309.347 170.411 309.409 170.242L310.729 170.391C310.646 170.74 310.487 171.044 310.253 171.305C310.021 171.562 309.724 171.763 309.362 171.906C309 172.047 308.586 172.117 308.12 172.117ZM311.984 172V166H313.355V167H313.418C313.527 166.654 313.715 166.387 313.98 166.199C314.249 166.009 314.555 165.914 314.898 165.914C314.977 165.914 315.064 165.918 315.16 165.926C315.259 165.931 315.341 165.94 315.406 165.953V167.254C315.346 167.233 315.251 167.215 315.121 167.199C314.993 167.181 314.87 167.172 314.75 167.172C314.492 167.172 314.26 167.228 314.055 167.34C313.852 167.449 313.691 167.602 313.574 167.797C313.457 167.992 313.398 168.217 313.398 168.473V172H311.984ZM270.383 188.117C269.781 188.117 269.262 187.992 268.824 187.742C268.389 187.49 268.055 187.133 267.82 186.672C267.586 186.208 267.469 185.663 267.469 185.035C267.469 184.418 267.586 183.876 267.82 183.41C268.057 182.941 268.388 182.577 268.813 182.316C269.237 182.053 269.736 181.922 270.309 181.922C270.678 181.922 271.027 181.982 271.355 182.102C271.686 182.219 271.978 182.401 272.23 182.648C272.486 182.896 272.686 183.211 272.832 183.594C272.978 183.974 273.051 184.427 273.051 184.953V185.387H268.133V184.434H271.695C271.693 184.163 271.634 183.922 271.52 183.711C271.405 183.497 271.245 183.329 271.039 183.207C270.836 183.085 270.599 183.023 270.328 183.023C270.039 183.023 269.785 183.094 269.566 183.234C269.348 183.372 269.177 183.555 269.055 183.781C268.935 184.005 268.874 184.251 268.871 184.52V185.352C268.871 185.701 268.935 186 269.062 186.25C269.19 186.497 269.368 186.687 269.598 186.82C269.827 186.951 270.095 187.016 270.402 187.016C270.608 187.016 270.794 186.987 270.961 186.93C271.128 186.87 271.272 186.783 271.395 186.668C271.517 186.553 271.609 186.411 271.672 186.242L272.992 186.391C272.909 186.74 272.75 187.044 272.516 187.305C272.284 187.562 271.987 187.763 271.625 187.906C271.263 188.047 270.849 188.117 270.383 188.117ZM275.274 182L276.485 184.215L277.716 182H279.212L277.403 185L279.243 188H277.755L276.485 185.84L275.228 188H273.728L275.556 185L273.774 182H275.274ZM282.736 188.117C282.135 188.117 281.615 187.992 281.178 187.742C280.743 187.49 280.408 187.133 280.174 186.672C279.939 186.208 279.822 185.663 279.822 185.035C279.822 184.418 279.939 183.876 280.174 183.41C280.411 182.941 280.742 182.577 281.166 182.316C281.59 182.053 282.089 181.922 282.662 181.922C283.032 181.922 283.381 181.982 283.709 182.102C284.04 182.219 284.331 182.401 284.584 182.648C284.839 182.896 285.04 183.211 285.186 183.594C285.331 183.974 285.404 184.427 285.404 184.953V185.387H280.486V184.434H284.049C284.046 184.163 283.988 183.922 283.873 183.711C283.758 183.497 283.598 183.329 283.393 183.207C283.189 183.085 282.952 183.023 282.682 183.023C282.393 183.023 282.139 183.094 281.92 183.234C281.701 183.372 281.531 183.555 281.408 183.781C281.288 184.005 281.227 184.251 281.225 184.52V185.352C281.225 185.701 281.288 186 281.416 186.25C281.544 186.497 281.722 186.687 281.951 186.82C282.18 186.951 282.449 187.016 282.756 187.016C282.962 187.016 283.148 186.987 283.314 186.93C283.481 186.87 283.626 186.783 283.748 186.668C283.87 186.553 283.963 186.411 284.025 186.242L285.346 186.391C285.262 186.74 285.104 187.044 284.869 187.305C284.637 187.562 284.34 187.763 283.979 187.906C283.617 188.047 283.202 188.117 282.736 188.117ZM289.218 188.117C288.619 188.117 288.104 187.986 287.675 187.723C287.248 187.46 286.918 187.096 286.687 186.633C286.457 186.167 286.343 185.63 286.343 185.023C286.343 184.414 286.46 183.876 286.694 183.41C286.929 182.941 287.259 182.577 287.687 182.316C288.116 182.053 288.624 181.922 289.21 181.922C289.697 181.922 290.128 182.012 290.503 182.191C290.881 182.368 291.181 182.62 291.405 182.945C291.629 183.268 291.757 183.646 291.788 184.078H290.437C290.382 183.789 290.252 183.548 290.046 183.355C289.843 183.16 289.571 183.062 289.229 183.062C288.94 183.062 288.687 183.141 288.468 183.297C288.249 183.451 288.078 183.672 287.956 183.961C287.836 184.25 287.776 184.596 287.776 185C287.776 185.409 287.836 185.76 287.956 186.055C288.076 186.346 288.244 186.572 288.46 186.73C288.679 186.887 288.935 186.965 289.229 186.965C289.438 186.965 289.624 186.926 289.788 186.848C289.955 186.767 290.094 186.651 290.206 186.5C290.318 186.349 290.395 186.165 290.437 185.949H291.788C291.754 186.374 291.629 186.75 291.413 187.078C291.197 187.404 290.903 187.659 290.53 187.844C290.158 188.026 289.72 188.117 289.218 188.117ZM296.773 185.477V182H298.188V188H296.816V186.934H296.754C296.618 187.27 296.396 187.544 296.086 187.758C295.779 187.971 295.4 188.078 294.949 188.078C294.556 188.078 294.208 187.991 293.906 187.816C293.607 187.639 293.372 187.383 293.203 187.047C293.034 186.708 292.949 186.299 292.949 185.82V182H294.363V185.602C294.363 185.982 294.467 186.284 294.676 186.508C294.884 186.732 295.158 186.844 295.496 186.844C295.704 186.844 295.906 186.793 296.102 186.691C296.297 186.59 296.457 186.439 296.582 186.238C296.71 186.035 296.773 185.781 296.773 185.477ZM302.638 182V183.094H299.188V182H302.638ZM300.04 180.562H301.454V186.195C301.454 186.385 301.483 186.531 301.54 186.633C301.6 186.732 301.678 186.799 301.774 186.836C301.871 186.872 301.978 186.891 302.095 186.891C302.183 186.891 302.264 186.884 302.337 186.871C302.412 186.858 302.47 186.846 302.509 186.836L302.747 187.941C302.672 187.967 302.563 187.996 302.423 188.027C302.285 188.059 302.116 188.077 301.915 188.082C301.561 188.092 301.242 188.039 300.958 187.922C300.674 187.802 300.449 187.617 300.282 187.367C300.118 187.117 300.037 186.805 300.04 186.43V180.562ZM303.82 188V182H305.234V188H303.82ZM304.531 181.148C304.307 181.148 304.115 181.074 303.953 180.926C303.792 180.775 303.711 180.594 303.711 180.383C303.711 180.169 303.792 179.988 303.953 179.84C304.115 179.689 304.307 179.613 304.531 179.613C304.758 179.613 304.951 179.689 305.109 179.84C305.271 179.988 305.352 180.169 305.352 180.383C305.352 180.594 305.271 180.775 305.109 180.926C304.951 181.074 304.758 181.148 304.531 181.148ZM309.306 188.117C308.72 188.117 308.212 187.988 307.782 187.73C307.353 187.473 307.019 187.112 306.782 186.648C306.548 186.185 306.431 185.643 306.431 185.023C306.431 184.404 306.548 183.861 306.782 183.395C307.019 182.928 307.353 182.566 307.782 182.309C308.212 182.051 308.72 181.922 309.306 181.922C309.892 181.922 310.399 182.051 310.829 182.309C311.259 182.566 311.591 182.928 311.825 183.395C312.062 183.861 312.181 184.404 312.181 185.023C312.181 185.643 312.062 186.185 311.825 186.648C311.591 187.112 311.259 187.473 310.829 187.73C310.399 187.988 309.892 188.117 309.306 188.117ZM309.313 186.984C309.631 186.984 309.897 186.897 310.11 186.723C310.324 186.546 310.483 186.309 310.587 186.012C310.694 185.715 310.747 185.384 310.747 185.02C310.747 184.652 310.694 184.32 310.587 184.023C310.483 183.724 310.324 183.486 310.11 183.309C309.897 183.132 309.631 183.043 309.313 183.043C308.988 183.043 308.717 183.132 308.501 183.309C308.287 183.486 308.127 183.724 308.021 184.023C307.916 184.32 307.864 184.652 307.864 185.02C307.864 185.384 307.916 185.715 308.021 186.012C308.127 186.309 308.287 186.546 308.501 186.723C308.717 186.897 308.988 186.984 309.313 186.984ZM314.795 184.484V188H313.381V182H314.732V183.02H314.803C314.941 182.684 315.161 182.417 315.463 182.219C315.768 182.021 316.144 181.922 316.592 181.922C317.006 181.922 317.367 182.01 317.674 182.187C317.984 182.365 318.223 182.621 318.393 182.957C318.564 183.293 318.649 183.701 318.646 184.18V188H317.232V184.398C317.232 183.997 317.128 183.684 316.92 183.457C316.714 183.23 316.429 183.117 316.064 183.117C315.817 183.117 315.597 183.172 315.404 183.281C315.214 183.388 315.064 183.543 314.955 183.746C314.848 183.949 314.795 184.195 314.795 184.484Z" fill="#17344F"/>
<path d="M512.695 116V108H514.145V114.785H517.668V116H512.695ZM517.554 109.215V108H523.937V109.215H521.464V116H520.026V109.215H517.554ZM526.237 108L528.319 114.297H528.401L530.479 108H532.073L529.253 116H527.464L524.647 108H526.237ZM514.379 132L512.121 124H513.68L515.121 129.879H515.195L516.734 124H518.152L519.695 129.883H519.766L521.207 124H522.766L520.508 132H519.078L517.477 126.387H517.414L515.809 132H514.379ZM523.708 132V126H525.122V132H523.708ZM524.419 125.148C524.195 125.148 524.002 125.074 523.841 124.926C523.679 124.775 523.599 124.594 523.599 124.383C523.599 124.169 523.679 123.988 523.841 123.84C524.002 123.689 524.195 123.613 524.419 123.613C524.646 123.613 524.838 123.689 524.997 123.84C525.159 123.988 525.239 124.169 525.239 124.383C525.239 124.594 525.159 124.775 524.997 124.926C524.838 125.074 524.646 125.148 524.419 125.148ZM529.572 126V127.094H526.123V126H529.572ZM526.975 124.562H528.389V130.195C528.389 130.385 528.417 130.531 528.475 130.633C528.535 130.732 528.613 130.799 528.709 130.836C528.805 130.872 528.912 130.891 529.029 130.891C529.118 130.891 529.199 130.884 529.271 130.871C529.347 130.858 529.404 130.846 529.443 130.836L529.682 131.941C529.606 131.967 529.498 131.996 529.357 132.027C529.219 132.059 529.05 132.077 528.85 132.082C528.495 132.092 528.176 132.039 527.893 131.922C527.609 131.802 527.383 131.617 527.217 131.367C527.053 131.117 526.972 130.805 526.975 130.43V124.562ZM532.298 128.484V132H530.884V124H532.267V127.02H532.337C532.478 126.681 532.695 126.414 532.989 126.219C533.286 126.021 533.664 125.922 534.122 125.922C534.539 125.922 534.902 126.009 535.212 126.184C535.522 126.358 535.761 126.613 535.931 126.949C536.103 127.285 536.188 127.695 536.188 128.18V132H534.774V128.398C534.774 127.995 534.67 127.681 534.462 127.457C534.256 127.23 533.967 127.117 533.595 127.117C533.345 127.117 533.121 127.172 532.923 127.281C532.728 127.388 532.574 127.543 532.462 127.746C532.353 127.949 532.298 128.195 532.298 128.484ZM539.856 132.105C539.385 132.105 538.963 131.984 538.591 131.742C538.218 131.5 537.924 131.148 537.708 130.687C537.492 130.227 537.384 129.667 537.384 129.008C537.384 128.341 537.493 127.779 537.712 127.32C537.933 126.859 538.231 126.512 538.606 126.277C538.981 126.04 539.399 125.922 539.86 125.922C540.212 125.922 540.501 125.982 540.728 126.102C540.954 126.219 541.134 126.361 541.267 126.527C541.399 126.691 541.502 126.846 541.575 126.992H541.634V124H543.052V132H541.661V131.055H541.575C541.502 131.201 541.397 131.355 541.259 131.52C541.121 131.681 540.938 131.819 540.712 131.934C540.485 132.048 540.2 132.105 539.856 132.105ZM540.251 130.945C540.55 130.945 540.806 130.865 541.017 130.703C541.228 130.539 541.388 130.311 541.497 130.02C541.606 129.728 541.661 129.388 541.661 129C541.661 128.612 541.606 128.275 541.497 127.988C541.39 127.702 541.231 127.479 541.021 127.32C540.812 127.161 540.556 127.082 540.251 127.082C539.936 127.082 539.673 127.164 539.462 127.328C539.251 127.492 539.092 127.719 538.985 128.008C538.879 128.297 538.825 128.628 538.825 129C538.825 129.375 538.879 129.71 538.985 130.004C539.095 130.296 539.255 130.526 539.466 130.695C539.679 130.862 539.941 130.945 540.251 130.945ZM544.559 132V126H545.93V127H545.992C546.102 126.654 546.289 126.387 546.555 126.199C546.823 126.009 547.129 125.914 547.473 125.914C547.551 125.914 547.638 125.918 547.734 125.926C547.833 125.931 547.915 125.94 547.98 125.953V127.254C547.921 127.233 547.826 127.215 547.695 127.199C547.568 127.181 547.444 127.172 547.324 127.172C547.066 127.172 546.835 127.228 546.629 127.34C546.426 127.449 546.266 127.602 546.148 127.797C546.031 127.992 545.973 128.217 545.973 128.473V132H544.559ZM550.539 132.121C550.159 132.121 549.816 132.053 549.512 131.918C549.21 131.78 548.97 131.577 548.793 131.309C548.618 131.04 548.531 130.71 548.531 130.316C548.531 129.978 548.594 129.698 548.719 129.477C548.844 129.255 549.014 129.078 549.23 128.945C549.447 128.812 549.69 128.712 549.961 128.645C550.234 128.574 550.517 128.523 550.809 128.492C551.16 128.456 551.445 128.423 551.664 128.395C551.883 128.363 552.042 128.316 552.141 128.254C552.242 128.189 552.293 128.089 552.293 127.953V127.93C552.293 127.635 552.206 127.408 552.031 127.246C551.857 127.085 551.605 127.004 551.277 127.004C550.931 127.004 550.656 127.079 550.453 127.23C550.253 127.382 550.117 127.56 550.047 127.766L548.727 127.578C548.831 127.214 549.003 126.909 549.242 126.664C549.482 126.417 549.775 126.232 550.121 126.109C550.467 125.984 550.85 125.922 551.27 125.922C551.559 125.922 551.846 125.956 552.133 126.023C552.419 126.091 552.681 126.203 552.918 126.359C553.155 126.513 553.345 126.723 553.488 126.988C553.634 127.254 553.707 127.586 553.707 127.984V132H552.348V131.176H552.301C552.215 131.342 552.094 131.499 551.938 131.645C551.784 131.788 551.59 131.904 551.355 131.992C551.124 132.078 550.852 132.121 550.539 132.121ZM550.906 131.082C551.19 131.082 551.436 131.026 551.645 130.914C551.853 130.799 552.013 130.648 552.125 130.461C552.24 130.273 552.297 130.069 552.297 129.848V129.141C552.253 129.177 552.177 129.211 552.07 129.242C551.966 129.273 551.849 129.301 551.719 129.324C551.589 129.348 551.46 129.368 551.332 129.387C551.204 129.405 551.094 129.421 551 129.434C550.789 129.462 550.6 129.509 550.434 129.574C550.267 129.639 550.135 129.73 550.039 129.848C549.943 129.962 549.895 130.111 549.895 130.293C549.895 130.553 549.99 130.75 550.18 130.883C550.37 131.016 550.612 131.082 550.906 131.082ZM556.367 132L554.672 126H556.113L557.168 130.219H557.223L558.301 126H559.727L560.805 130.195H560.863L561.902 126H563.348L561.648 132H560.176L559.051 127.945H558.969L557.844 132H556.367ZM517.043 142.199C517.007 141.858 516.853 141.592 516.582 141.402C516.314 141.212 515.965 141.117 515.535 141.117C515.233 141.117 514.974 141.163 514.758 141.254C514.542 141.345 514.376 141.469 514.262 141.625C514.147 141.781 514.089 141.96 514.086 142.16C514.086 142.327 514.124 142.471 514.199 142.594C514.277 142.716 514.383 142.82 514.516 142.906C514.648 142.99 514.796 143.06 514.957 143.117C515.118 143.174 515.281 143.223 515.445 143.262L516.195 143.449C516.497 143.52 516.788 143.615 517.066 143.734C517.348 143.854 517.599 144.005 517.82 144.188C518.044 144.37 518.221 144.59 518.352 144.848C518.482 145.105 518.547 145.408 518.547 145.754C518.547 146.223 518.427 146.635 518.188 146.992C517.948 147.346 517.602 147.624 517.148 147.824C516.698 148.022 516.152 148.121 515.512 148.121C514.889 148.121 514.349 148.025 513.891 147.832C513.435 147.639 513.078 147.358 512.82 146.988C512.565 146.618 512.427 146.168 512.406 145.637H513.832C513.853 145.915 513.939 146.147 514.09 146.332C514.241 146.517 514.438 146.655 514.68 146.746C514.924 146.837 515.198 146.883 515.5 146.883C515.815 146.883 516.091 146.836 516.328 146.742C516.568 146.646 516.755 146.513 516.891 146.344C517.026 146.172 517.095 145.971 517.098 145.742C517.095 145.534 517.034 145.362 516.914 145.227C516.794 145.089 516.626 144.974 516.41 144.883C516.197 144.789 515.947 144.706 515.66 144.633L514.75 144.398C514.091 144.229 513.57 143.973 513.188 143.629C512.807 143.283 512.617 142.823 512.617 142.25C512.617 141.779 512.745 141.366 513 141.012C513.258 140.658 513.608 140.383 514.051 140.187C514.493 139.99 514.995 139.891 515.555 139.891C516.122 139.891 516.62 139.99 517.047 140.187C517.477 140.383 517.814 140.655 518.059 141.004C518.303 141.35 518.43 141.749 518.438 142.199H517.043ZM522.772 142V143.094H519.323V142H522.772ZM520.175 140.562H521.589V146.195C521.589 146.385 521.618 146.531 521.675 146.633C521.735 146.732 521.813 146.799 521.909 146.836C522.006 146.872 522.112 146.891 522.229 146.891C522.318 146.891 522.399 146.884 522.472 146.871C522.547 146.858 522.604 146.846 522.644 146.836L522.882 147.941C522.806 147.967 522.698 147.996 522.558 148.027C522.42 148.059 522.25 148.077 522.05 148.082C521.696 148.092 521.377 148.039 521.093 147.922C520.809 147.802 520.584 147.617 520.417 147.367C520.253 147.117 520.172 146.805 520.175 146.43V140.562ZM526.547 148.117C525.945 148.117 525.426 147.992 524.988 147.742C524.553 147.49 524.219 147.133 523.984 146.672C523.75 146.208 523.633 145.663 523.633 145.035C523.633 144.418 523.75 143.876 523.984 143.41C524.221 142.941 524.552 142.577 524.977 142.316C525.401 142.053 525.9 141.922 526.473 141.922C526.842 141.922 527.191 141.982 527.52 142.102C527.85 142.219 528.142 142.401 528.395 142.648C528.65 142.896 528.85 143.211 528.996 143.594C529.142 143.974 529.215 144.427 529.215 144.953V145.387H524.297V144.434H527.859C527.857 144.163 527.798 143.922 527.684 143.711C527.569 143.497 527.409 143.329 527.203 143.207C527 143.085 526.763 143.023 526.492 143.023C526.203 143.023 525.949 143.094 525.73 143.234C525.512 143.372 525.341 143.555 525.219 143.781C525.099 144.005 525.038 144.251 525.035 144.52V145.352C525.035 145.701 525.099 146 525.227 146.25C525.354 146.497 525.533 146.687 525.762 146.82C525.991 146.951 526.259 147.016 526.566 147.016C526.772 147.016 526.958 146.987 527.125 146.93C527.292 146.87 527.436 146.783 527.559 146.668C527.681 146.553 527.773 146.411 527.836 146.242L529.156 146.391C529.073 146.74 528.914 147.044 528.68 147.305C528.448 147.562 528.151 147.763 527.789 147.906C527.427 148.047 527.013 148.117 526.547 148.117ZM530.411 150.25V142H531.802V142.992H531.884C531.957 142.846 532.06 142.691 532.192 142.527C532.325 142.361 532.505 142.219 532.731 142.102C532.958 141.982 533.247 141.922 533.599 141.922C534.062 141.922 534.48 142.04 534.853 142.277C535.228 142.512 535.524 142.859 535.743 143.32C535.965 143.779 536.075 144.341 536.075 145.008C536.075 145.667 535.967 146.227 535.751 146.687C535.535 147.148 535.241 147.5 534.868 147.742C534.496 147.984 534.074 148.105 533.603 148.105C533.259 148.105 532.974 148.048 532.747 147.934C532.521 147.819 532.338 147.681 532.2 147.52C532.065 147.355 531.959 147.201 531.884 147.055H531.825V150.25H530.411ZM531.798 145C531.798 145.388 531.853 145.728 531.962 146.02C532.074 146.311 532.234 146.539 532.442 146.703C532.653 146.865 532.909 146.945 533.208 146.945C533.521 146.945 533.782 146.862 533.993 146.695C534.204 146.526 534.363 146.296 534.47 146.004C534.579 145.71 534.634 145.375 534.634 145C534.634 144.628 534.58 144.297 534.474 144.008C534.367 143.719 534.208 143.492 533.997 143.328C533.786 143.164 533.523 143.082 533.208 143.082C532.906 143.082 532.649 143.161 532.438 143.32C532.228 143.479 532.067 143.702 531.958 143.988C531.851 144.275 531.798 144.612 531.798 145Z" fill="#575CFE"/>
<path d="M513.164 251V243H514.613V249.785H518.137V251H513.164ZM519.332 251V245H520.746V251H519.332ZM520.043 244.148C519.819 244.148 519.626 244.074 519.465 243.926C519.303 243.775 519.223 243.594 519.223 243.383C519.223 243.169 519.303 242.988 519.465 242.84C519.626 242.689 519.819 242.613 520.043 242.613C520.27 242.613 520.462 242.689 520.621 242.84C520.783 242.988 520.863 243.169 520.863 243.383C520.863 243.594 520.783 243.775 520.621 243.926C520.462 244.074 520.27 244.148 520.043 244.148ZM526.204 253.25V250.055H526.146C526.073 250.201 525.967 250.355 525.829 250.52C525.691 250.681 525.509 250.819 525.282 250.934C525.056 251.048 524.771 251.105 524.427 251.105C523.955 251.105 523.534 250.984 523.161 250.742C522.789 250.5 522.494 250.148 522.278 249.687C522.062 249.227 521.954 248.667 521.954 248.008C521.954 247.341 522.063 246.779 522.282 246.32C522.504 245.859 522.802 245.512 523.177 245.277C523.552 245.04 523.97 244.922 524.431 244.922C524.782 244.922 525.071 244.982 525.298 245.102C525.524 245.219 525.704 245.361 525.837 245.527C525.97 245.691 526.073 245.846 526.146 245.992H526.231V245H527.622V253.25H526.204ZM524.821 249.945C525.121 249.945 525.376 249.865 525.587 249.703C525.798 249.539 525.958 249.311 526.067 249.02C526.177 248.728 526.231 248.388 526.231 248C526.231 247.612 526.177 247.275 526.067 246.988C525.961 246.702 525.802 246.479 525.591 246.32C525.382 246.161 525.126 246.082 524.821 246.082C524.506 246.082 524.243 246.164 524.032 246.328C523.821 246.492 523.662 246.719 523.556 247.008C523.449 247.297 523.396 247.628 523.396 248C523.396 248.375 523.449 248.71 523.556 249.004C523.665 249.296 523.825 249.526 524.036 249.695C524.25 249.862 524.511 249.945 524.821 249.945ZM532.899 248.477V245H534.313V251H532.942V249.934H532.88C532.744 250.27 532.522 250.544 532.212 250.758C531.905 250.971 531.526 251.078 531.075 251.078C530.682 251.078 530.334 250.991 530.032 250.816C529.733 250.639 529.498 250.383 529.329 250.047C529.16 249.708 529.075 249.299 529.075 248.82V245H530.489V248.602C530.489 248.982 530.593 249.284 530.802 249.508C531.01 249.732 531.284 249.844 531.622 249.844C531.83 249.844 532.032 249.793 532.228 249.691C532.423 249.59 532.583 249.439 532.708 249.238C532.836 249.035 532.899 248.781 532.899 248.477ZM535.768 251V245H537.182V251H535.768ZM536.479 244.148C536.255 244.148 536.062 244.074 535.9 243.926C535.739 243.775 535.658 243.594 535.658 243.383C535.658 243.169 535.739 242.988 535.9 242.84C536.062 242.689 536.255 242.613 536.479 242.613C536.705 242.613 536.898 242.689 537.057 242.84C537.218 242.988 537.299 243.169 537.299 243.383C537.299 243.594 537.218 243.775 537.057 243.926C536.898 244.074 536.705 244.148 536.479 244.148ZM540.862 251.105C540.391 251.105 539.969 250.984 539.597 250.742C539.224 250.5 538.93 250.148 538.714 249.687C538.498 249.227 538.39 248.667 538.39 248.008C538.39 247.341 538.499 246.779 538.718 246.32C538.939 245.859 539.237 245.512 539.612 245.277C539.987 245.04 540.405 244.922 540.866 244.922C541.218 244.922 541.507 244.982 541.733 245.102C541.96 245.219 542.14 245.361 542.272 245.527C542.405 245.691 542.508 245.846 542.581 245.992H542.64V243H544.058V251H542.667V250.055H542.581C542.508 250.201 542.403 250.355 542.265 250.52C542.127 250.681 541.944 250.819 541.718 250.934C541.491 251.048 541.206 251.105 540.862 251.105ZM541.257 249.945C541.556 249.945 541.812 249.865 542.022 249.703C542.233 249.539 542.394 249.311 542.503 249.02C542.612 248.728 542.667 248.388 542.667 248C542.667 247.612 542.612 247.275 542.503 246.988C542.396 246.702 542.237 246.479 542.026 246.32C541.818 246.161 541.562 246.082 541.257 246.082C540.942 246.082 540.679 246.164 540.468 246.328C540.257 246.492 540.098 246.719 539.991 247.008C539.884 247.297 539.831 247.628 539.831 248C539.831 248.375 539.884 248.71 539.991 249.004C540.101 249.296 540.261 249.526 540.472 249.695C540.685 249.862 540.947 249.945 541.257 249.945ZM547.291 251.121C546.911 251.121 546.568 251.053 546.264 250.918C545.962 250.78 545.722 250.577 545.545 250.309C545.37 250.04 545.283 249.71 545.283 249.316C545.283 248.978 545.346 248.698 545.471 248.477C545.596 248.255 545.766 248.078 545.982 247.945C546.199 247.812 546.442 247.712 546.713 247.645C546.986 247.574 547.269 247.523 547.561 247.492C547.912 247.456 548.197 247.423 548.416 247.395C548.635 247.363 548.794 247.316 548.893 247.254C548.994 247.189 549.045 247.089 549.045 246.953V246.93C549.045 246.635 548.958 246.408 548.783 246.246C548.609 246.085 548.357 246.004 548.029 246.004C547.683 246.004 547.408 246.079 547.205 246.23C547.005 246.382 546.869 246.56 546.799 246.766L545.479 246.578C545.583 246.214 545.755 245.909 545.994 245.664C546.234 245.417 546.527 245.232 546.873 245.109C547.219 244.984 547.602 244.922 548.021 244.922C548.311 244.922 548.598 244.956 548.885 245.023C549.171 245.091 549.433 245.203 549.67 245.359C549.907 245.513 550.097 245.723 550.24 245.988C550.386 246.254 550.459 246.586 550.459 246.984V251H549.1V250.176H549.053C548.967 250.342 548.846 250.499 548.689 250.645C548.536 250.788 548.342 250.904 548.107 250.992C547.876 251.078 547.604 251.121 547.291 251.121ZM547.658 250.082C547.942 250.082 548.188 250.026 548.396 249.914C548.605 249.799 548.765 249.648 548.877 249.461C548.992 249.273 549.049 249.069 549.049 248.848V248.141C549.005 248.177 548.929 248.211 548.822 248.242C548.718 248.273 548.601 248.301 548.471 248.324C548.34 248.348 548.212 248.368 548.084 248.387C547.956 248.405 547.846 248.421 547.752 248.434C547.541 248.462 547.352 248.509 547.186 248.574C547.019 248.639 546.887 248.73 546.791 248.848C546.695 248.962 546.646 249.111 546.646 249.293C546.646 249.553 546.742 249.75 546.932 249.883C547.122 250.016 547.364 250.082 547.658 250.082ZM554.877 245V246.094H551.428V245H554.877ZM552.279 243.562H553.693V249.195C553.693 249.385 553.722 249.531 553.779 249.633C553.839 249.732 553.917 249.799 554.014 249.836C554.11 249.872 554.217 249.891 554.334 249.891C554.423 249.891 554.503 249.884 554.576 249.871C554.652 249.858 554.709 249.846 554.748 249.836L554.986 250.941C554.911 250.967 554.803 250.996 554.662 251.027C554.524 251.059 554.355 251.077 554.154 251.082C553.8 251.092 553.481 251.039 553.197 250.922C552.913 250.802 552.688 250.617 552.521 250.367C552.357 250.117 552.277 249.805 552.279 249.43V243.562ZM556.06 251V245H557.474V251H556.06ZM556.771 244.148C556.547 244.148 556.354 244.074 556.192 243.926C556.031 243.775 555.95 243.594 555.95 243.383C555.95 243.169 556.031 242.988 556.192 242.84C556.354 242.689 556.547 242.613 556.771 242.613C556.997 242.613 557.19 242.689 557.349 242.84C557.51 242.988 557.591 243.169 557.591 243.383C557.591 243.594 557.51 243.775 557.349 243.926C557.19 244.074 556.997 244.148 556.771 244.148ZM561.545 251.117C560.959 251.117 560.451 250.988 560.021 250.73C559.592 250.473 559.258 250.112 559.021 249.648C558.787 249.185 558.67 248.643 558.67 248.023C558.67 247.404 558.787 246.861 559.021 246.395C559.258 245.928 559.592 245.566 560.021 245.309C560.451 245.051 560.959 244.922 561.545 244.922C562.131 244.922 562.639 245.051 563.068 245.309C563.498 245.566 563.83 245.928 564.064 246.395C564.301 246.861 564.42 247.404 564.42 248.023C564.42 248.643 564.301 249.185 564.064 249.648C563.83 250.112 563.498 250.473 563.068 250.73C562.639 250.988 562.131 251.117 561.545 251.117ZM561.553 249.984C561.87 249.984 562.136 249.897 562.35 249.723C562.563 249.546 562.722 249.309 562.826 249.012C562.933 248.715 562.986 248.384 562.986 248.02C562.986 247.652 562.933 247.32 562.826 247.023C562.722 246.724 562.563 246.486 562.35 246.309C562.136 246.132 561.87 246.043 561.553 246.043C561.227 246.043 560.956 246.132 560.74 246.309C560.527 246.486 560.367 246.724 560.26 247.023C560.156 247.32 560.104 247.652 560.104 248.02C560.104 248.384 560.156 248.715 560.26 249.012C560.367 249.309 560.527 249.546 560.74 249.723C560.956 249.897 561.227 249.984 561.553 249.984ZM567.034 247.484V251H565.62V245H566.972V246.02H567.042C567.18 245.684 567.4 245.417 567.702 245.219C568.007 245.021 568.383 244.922 568.831 244.922C569.245 244.922 569.606 245.01 569.913 245.187C570.223 245.365 570.463 245.621 570.632 245.957C570.804 246.293 570.888 246.701 570.886 247.18V251H569.472V247.398C569.472 246.997 569.368 246.684 569.159 246.457C568.953 246.23 568.668 246.117 568.304 246.117C568.056 246.117 567.836 246.172 567.644 246.281C567.453 246.388 567.304 246.543 567.194 246.746C567.088 246.949 567.034 247.195 567.034 247.484ZM512.812 260.215V259H519.195V260.215H516.723V267H515.285V260.215H512.812ZM521.777 263.484V267H520.363V259H521.746V262.02H521.816C521.957 261.681 522.174 261.414 522.469 261.219C522.766 261.021 523.143 260.922 523.602 260.922C524.018 260.922 524.382 261.009 524.691 261.184C525.001 261.358 525.241 261.613 525.41 261.949C525.582 262.285 525.668 262.695 525.668 263.18V267H524.254V263.398C524.254 262.995 524.15 262.681 523.941 262.457C523.736 262.23 523.447 262.117 523.074 262.117C522.824 262.117 522.6 262.172 522.402 262.281C522.207 262.388 522.053 262.543 521.941 262.746C521.832 262.949 521.777 263.195 521.777 263.484ZM527.109 267V261H528.48V262H528.543C528.652 261.654 528.84 261.387 529.105 261.199C529.374 261.009 529.68 260.914 530.023 260.914C530.102 260.914 530.189 260.918 530.285 260.926C530.384 260.931 530.466 260.94 530.531 260.953V262.254C530.471 262.233 530.376 262.215 530.246 262.199C530.118 262.181 529.995 262.172 529.875 262.172C529.617 262.172 529.385 262.228 529.18 262.34C528.977 262.449 528.816 262.602 528.699 262.797C528.582 262.992 528.523 263.217 528.523 263.473V267H527.109ZM533.88 267.117C533.278 267.117 532.759 266.992 532.321 266.742C531.886 266.49 531.552 266.133 531.317 265.672C531.083 265.208 530.966 264.663 530.966 264.035C530.966 263.418 531.083 262.876 531.317 262.41C531.554 261.941 531.885 261.577 532.31 261.316C532.734 261.053 533.233 260.922 533.806 260.922C534.175 260.922 534.524 260.982 534.853 261.102C535.183 261.219 535.475 261.401 535.728 261.648C535.983 261.896 536.183 262.211 536.329 262.594C536.475 262.974 536.548 263.427 536.548 263.953V264.387H531.63V263.434H535.192C535.19 263.163 535.131 262.922 535.017 262.711C534.902 262.497 534.742 262.329 534.536 262.207C534.333 262.085 534.096 262.023 533.825 262.023C533.536 262.023 533.282 262.094 533.063 262.234C532.845 262.372 532.674 262.555 532.552 262.781C532.432 263.005 532.371 263.251 532.368 263.52V264.352C532.368 264.701 532.432 265 532.56 265.25C532.687 265.497 532.866 265.687 533.095 265.82C533.324 265.951 533.592 266.016 533.899 266.016C534.105 266.016 534.291 265.987 534.458 265.93C534.625 265.87 534.769 265.783 534.892 265.668C535.014 265.553 535.106 265.411 535.169 265.242L536.489 265.391C536.406 265.74 536.247 266.044 536.013 266.305C535.781 266.562 535.484 266.763 535.122 266.906C534.76 267.047 534.346 267.117 533.88 267.117ZM542.486 262.586L541.197 262.727C541.161 262.596 541.097 262.474 541.006 262.359C540.917 262.245 540.798 262.152 540.646 262.082C540.495 262.012 540.311 261.977 540.092 261.977C539.798 261.977 539.55 262.04 539.35 262.168C539.152 262.296 539.054 262.461 539.057 262.664C539.054 262.839 539.118 262.98 539.248 263.09C539.381 263.199 539.6 263.289 539.904 263.359L540.928 263.578C541.495 263.701 541.917 263.895 542.193 264.16C542.472 264.426 542.613 264.773 542.615 265.203C542.613 265.581 542.502 265.914 542.283 266.203C542.067 266.49 541.766 266.714 541.381 266.875C540.995 267.036 540.553 267.117 540.053 267.117C539.318 267.117 538.727 266.964 538.279 266.656C537.831 266.346 537.564 265.915 537.479 265.363L538.857 265.23C538.92 265.501 539.053 265.706 539.256 265.844C539.459 265.982 539.723 266.051 540.049 266.051C540.385 266.051 540.654 265.982 540.857 265.844C541.063 265.706 541.166 265.535 541.166 265.332C541.166 265.16 541.1 265.018 540.967 264.906C540.837 264.794 540.633 264.708 540.357 264.648L539.334 264.434C538.758 264.314 538.333 264.112 538.057 263.828C537.781 263.542 537.644 263.18 537.646 262.742C537.644 262.372 537.744 262.052 537.947 261.781C538.153 261.508 538.438 261.297 538.803 261.148C539.17 260.997 539.593 260.922 540.072 260.922C540.775 260.922 541.329 261.072 541.732 261.371C542.139 261.671 542.39 262.076 542.486 262.586ZM545.195 263.484V267H543.781V259H545.164V262.02H545.234C545.375 261.681 545.592 261.414 545.887 261.219C546.184 261.021 546.561 260.922 547.02 260.922C547.436 260.922 547.799 261.009 548.109 261.184C548.419 261.358 548.659 261.613 548.828 261.949C549 262.285 549.086 262.695 549.086 263.18V267H547.672V263.398C547.672 262.995 547.568 262.681 547.359 262.457C547.154 262.23 546.865 262.117 546.492 262.117C546.242 262.117 546.018 262.172 545.82 262.281C545.625 262.388 545.471 262.543 545.359 262.746C545.25 262.949 545.195 263.195 545.195 263.484ZM553.145 267.117C552.559 267.117 552.051 266.988 551.621 266.73C551.191 266.473 550.858 266.112 550.621 265.648C550.387 265.185 550.27 264.643 550.27 264.023C550.27 263.404 550.387 262.861 550.621 262.395C550.858 261.928 551.191 261.566 551.621 261.309C552.051 261.051 552.559 260.922 553.145 260.922C553.73 260.922 554.238 261.051 554.668 261.309C555.098 261.566 555.43 261.928 555.664 262.395C555.901 262.861 556.02 263.404 556.02 264.023C556.02 264.643 555.901 265.185 555.664 265.648C555.43 266.112 555.098 266.473 554.668 266.73C554.238 266.988 553.73 267.117 553.145 267.117ZM553.152 265.984C553.47 265.984 553.736 265.897 553.949 265.723C554.163 265.546 554.322 265.309 554.426 265.012C554.533 264.715 554.586 264.384 554.586 264.02C554.586 263.652 554.533 263.32 554.426 263.023C554.322 262.724 554.163 262.486 553.949 262.309C553.736 262.132 553.47 262.043 553.152 262.043C552.827 262.043 552.556 262.132 552.34 262.309C552.126 262.486 551.966 262.724 551.859 263.023C551.755 263.32 551.703 263.652 551.703 264.02C551.703 264.384 551.755 264.715 551.859 265.012C551.966 265.309 552.126 265.546 552.34 265.723C552.556 265.897 552.827 265.984 553.152 265.984ZM558.634 259V267H557.22V259H558.634ZM562.314 267.105C561.843 267.105 561.421 266.984 561.049 266.742C560.676 266.5 560.382 266.148 560.166 265.687C559.95 265.227 559.842 264.667 559.842 264.008C559.842 263.341 559.951 262.779 560.17 262.32C560.391 261.859 560.689 261.512 561.064 261.277C561.439 261.04 561.857 260.922 562.318 260.922C562.67 260.922 562.959 260.982 563.186 261.102C563.412 261.219 563.592 261.361 563.725 261.527C563.857 261.691 563.96 261.846 564.033 261.992H564.092V259H565.51V267H564.119V266.055H564.033C563.96 266.201 563.855 266.355 563.717 266.52C563.579 266.681 563.396 266.819 563.17 266.934C562.943 267.048 562.658 267.105 562.314 267.105ZM562.709 265.945C563.008 265.945 563.264 265.865 563.475 265.703C563.686 265.539 563.846 265.311 563.955 265.02C564.064 264.728 564.119 264.388 564.119 264C564.119 263.612 564.064 263.275 563.955 262.988C563.848 262.702 563.689 262.479 563.479 262.32C563.27 262.161 563.014 262.082 562.709 262.082C562.394 262.082 562.131 262.164 561.92 262.328C561.709 262.492 561.55 262.719 561.443 263.008C561.337 263.297 561.283 263.628 561.283 264C561.283 264.375 561.337 264.71 561.443 265.004C561.553 265.296 561.713 265.526 561.924 265.695C562.137 265.862 562.399 265.945 562.709 265.945Z" fill="#D94A1E"/>
<path d="M517.512 183.199C517.475 182.858 517.322 182.592 517.051 182.402C516.783 182.212 516.434 182.117 516.004 182.117C515.702 182.117 515.443 182.163 515.227 182.254C515.01 182.345 514.845 182.469 514.73 182.625C514.616 182.781 514.557 182.96 514.555 183.16C514.555 183.327 514.592 183.471 514.668 183.594C514.746 183.716 514.852 183.82 514.984 183.906C515.117 183.99 515.264 184.06 515.426 184.117C515.587 184.174 515.75 184.223 515.914 184.262L516.664 184.449C516.966 184.52 517.257 184.615 517.535 184.734C517.816 184.854 518.068 185.005 518.289 185.188C518.513 185.37 518.69 185.59 518.82 185.848C518.951 186.105 519.016 186.408 519.016 186.754C519.016 187.223 518.896 187.635 518.656 187.992C518.417 188.346 518.07 188.624 517.617 188.824C517.167 189.022 516.621 189.121 515.98 189.121C515.358 189.121 514.818 189.025 514.359 188.832C513.904 188.639 513.547 188.358 513.289 187.988C513.034 187.618 512.896 187.168 512.875 186.637H514.301C514.322 186.915 514.408 187.147 514.559 187.332C514.71 187.517 514.906 187.655 515.148 187.746C515.393 187.837 515.667 187.883 515.969 187.883C516.284 187.883 516.56 187.836 516.797 187.742C517.036 187.646 517.224 187.513 517.359 187.344C517.495 187.172 517.564 186.971 517.566 186.742C517.564 186.534 517.503 186.362 517.383 186.227C517.263 186.089 517.095 185.974 516.879 185.883C516.665 185.789 516.415 185.706 516.129 185.633L515.219 185.398C514.56 185.229 514.039 184.973 513.656 184.629C513.276 184.283 513.086 183.823 513.086 183.25C513.086 182.779 513.214 182.366 513.469 182.012C513.727 181.658 514.077 181.383 514.52 181.187C514.962 180.99 515.464 180.891 516.023 180.891C516.591 180.891 517.089 180.99 517.516 181.187C517.945 181.383 518.283 181.655 518.527 182.004C518.772 182.35 518.898 182.749 518.906 183.199H517.512ZM523.241 183V184.094H519.792V183H523.241ZM520.644 181.562H522.058V187.195C522.058 187.385 522.086 187.531 522.144 187.633C522.203 187.732 522.282 187.799 522.378 187.836C522.474 187.872 522.581 187.891 522.698 187.891C522.787 187.891 522.868 187.884 522.94 187.871C523.016 187.858 523.073 187.846 523.112 187.836L523.351 188.941C523.275 188.967 523.167 188.996 523.026 189.027C522.888 189.059 522.719 189.077 522.519 189.082C522.164 189.092 521.845 189.039 521.562 188.922C521.278 188.802 521.052 188.617 520.886 188.367C520.722 188.117 520.641 187.805 520.644 187.43V181.562ZM526.977 189.117C526.391 189.117 525.883 188.988 525.453 188.73C525.023 188.473 524.69 188.112 524.453 187.648C524.219 187.185 524.102 186.643 524.102 186.023C524.102 185.404 524.219 184.861 524.453 184.395C524.69 183.928 525.023 183.566 525.453 183.309C525.883 183.051 526.391 182.922 526.977 182.922C527.563 182.922 528.07 183.051 528.5 183.309C528.93 183.566 529.262 183.928 529.496 184.395C529.733 184.861 529.852 185.404 529.852 186.023C529.852 186.643 529.733 187.185 529.496 187.648C529.262 188.112 528.93 188.473 528.5 188.73C528.07 188.988 527.563 189.117 526.977 189.117ZM526.984 187.984C527.302 187.984 527.568 187.897 527.781 187.723C527.995 187.546 528.154 187.309 528.258 187.012C528.365 186.715 528.418 186.384 528.418 186.02C528.418 185.652 528.365 185.32 528.258 185.023C528.154 184.724 527.995 184.486 527.781 184.309C527.568 184.132 527.302 184.043 526.984 184.043C526.659 184.043 526.388 184.132 526.172 184.309C525.958 184.486 525.798 184.724 525.691 185.023C525.587 185.32 525.535 185.652 525.535 186.02C525.535 186.384 525.587 186.715 525.691 187.012C525.798 187.309 525.958 187.546 526.172 187.723C526.388 187.897 526.659 187.984 526.984 187.984ZM531.052 191.25V183H532.442V183.992H532.524C532.597 183.846 532.7 183.691 532.833 183.527C532.966 183.361 533.146 183.219 533.372 183.102C533.599 182.982 533.888 182.922 534.239 182.922C534.703 182.922 535.121 183.04 535.493 183.277C535.868 183.512 536.165 183.859 536.384 184.32C536.605 184.779 536.716 185.341 536.716 186.008C536.716 186.667 536.608 187.227 536.392 187.687C536.175 188.148 535.881 188.5 535.509 188.742C535.136 188.984 534.715 189.105 534.243 189.105C533.899 189.105 533.614 189.048 533.388 188.934C533.161 188.819 532.979 188.681 532.841 188.52C532.705 188.355 532.6 188.201 532.524 188.055H532.466V191.25H531.052ZM532.438 186C532.438 186.388 532.493 186.728 532.603 187.02C532.715 187.311 532.875 187.539 533.083 187.703C533.294 187.865 533.549 187.945 533.849 187.945C534.161 187.945 534.423 187.862 534.634 187.695C534.845 187.526 535.004 187.296 535.11 187.004C535.22 186.71 535.274 186.375 535.274 186C535.274 185.628 535.221 185.297 535.114 185.008C535.007 184.719 534.849 184.492 534.638 184.328C534.427 184.164 534.164 184.082 533.849 184.082C533.547 184.082 533.29 184.161 533.079 184.32C532.868 184.479 532.708 184.702 532.599 184.988C532.492 185.275 532.438 185.612 532.438 186ZM540.718 189V181H542.167V187.785H545.69V189H540.718ZM549.503 189.117C548.917 189.117 548.409 188.988 547.979 188.73C547.55 188.473 547.216 188.112 546.979 187.648C546.745 187.185 546.628 186.643 546.628 186.023C546.628 185.404 546.745 184.861 546.979 184.395C547.216 183.928 547.55 183.566 547.979 183.309C548.409 183.051 548.917 182.922 549.503 182.922C550.089 182.922 550.597 183.051 551.026 183.309C551.456 183.566 551.788 183.928 552.022 184.395C552.259 184.861 552.378 185.404 552.378 186.023C552.378 186.643 552.259 187.185 552.022 187.648C551.788 188.112 551.456 188.473 551.026 188.73C550.597 188.988 550.089 189.117 549.503 189.117ZM549.511 187.984C549.828 187.984 550.094 187.897 550.308 187.723C550.521 187.546 550.68 187.309 550.784 187.012C550.891 186.715 550.944 186.384 550.944 186.02C550.944 185.652 550.891 185.32 550.784 185.023C550.68 184.724 550.521 184.486 550.308 184.309C550.094 184.132 549.828 184.043 549.511 184.043C549.185 184.043 548.914 184.132 548.698 184.309C548.485 184.486 548.325 184.724 548.218 185.023C548.114 185.32 548.062 185.652 548.062 186.02C548.062 186.384 548.114 186.715 548.218 187.012C548.325 187.309 548.485 187.546 548.698 187.723C548.914 187.897 549.185 187.984 549.511 187.984ZM558.32 184.586L557.031 184.727C556.995 184.596 556.931 184.474 556.84 184.359C556.751 184.245 556.632 184.152 556.48 184.082C556.329 184.012 556.145 183.977 555.926 183.977C555.632 183.977 555.384 184.04 555.184 184.168C554.986 184.296 554.888 184.461 554.891 184.664C554.888 184.839 554.952 184.98 555.082 185.09C555.215 185.199 555.434 185.289 555.738 185.359L556.762 185.578C557.329 185.701 557.751 185.895 558.027 186.16C558.306 186.426 558.447 186.773 558.449 187.203C558.447 187.581 558.336 187.914 558.117 188.203C557.901 188.49 557.6 188.714 557.215 188.875C556.829 189.036 556.387 189.117 555.887 189.117C555.152 189.117 554.561 188.964 554.113 188.656C553.665 188.346 553.398 187.915 553.313 187.363L554.691 187.23C554.754 187.501 554.887 187.706 555.09 187.844C555.293 187.982 555.557 188.051 555.883 188.051C556.219 188.051 556.488 187.982 556.691 187.844C556.897 187.706 557 187.535 557 187.332C557 187.16 556.934 187.018 556.801 186.906C556.671 186.794 556.467 186.708 556.191 186.648L555.168 186.434C554.592 186.314 554.167 186.112 553.891 185.828C553.615 185.542 553.478 185.18 553.48 184.742C553.478 184.372 553.578 184.052 553.781 183.781C553.987 183.508 554.272 183.297 554.637 183.148C555.004 182.997 555.427 182.922 555.906 182.922C556.609 182.922 557.163 183.072 557.566 183.371C557.973 183.671 558.224 184.076 558.32 184.586ZM564.357 184.586L563.068 184.727C563.032 184.596 562.968 184.474 562.877 184.359C562.788 184.245 562.669 184.152 562.518 184.082C562.367 184.012 562.182 183.977 561.963 183.977C561.669 183.977 561.421 184.04 561.221 184.168C561.023 184.296 560.925 184.461 560.928 184.664C560.925 184.839 560.989 184.98 561.119 185.09C561.252 185.199 561.471 185.289 561.775 185.359L562.799 185.578C563.367 185.701 563.788 185.895 564.064 186.16C564.343 186.426 564.484 186.773 564.486 187.203C564.484 187.581 564.373 187.914 564.154 188.203C563.938 188.49 563.637 188.714 563.252 188.875C562.867 189.036 562.424 189.117 561.924 189.117C561.189 189.117 560.598 188.964 560.15 188.656C559.702 188.346 559.436 187.915 559.35 187.363L560.729 187.23C560.791 187.501 560.924 187.706 561.127 187.844C561.33 187.982 561.594 188.051 561.92 188.051C562.256 188.051 562.525 187.982 562.729 187.844C562.934 187.706 563.037 187.535 563.037 187.332C563.037 187.16 562.971 187.018 562.838 186.906C562.708 186.794 562.505 186.708 562.229 186.648L561.205 186.434C560.63 186.314 560.204 186.112 559.928 185.828C559.652 185.542 559.515 185.18 559.518 184.742C559.515 184.372 559.615 184.052 559.818 183.781C560.024 183.508 560.309 183.297 560.674 183.148C561.041 182.997 561.464 182.922 561.943 182.922C562.646 182.922 563.2 183.072 563.604 183.371C564.01 183.671 564.261 184.076 564.357 184.586ZM513.164 205V197H514.613V203.785H518.137V205H513.164ZM518.022 198.215V197H524.405V198.215H521.933V205H520.495V198.215H518.022ZM526.706 197L528.788 203.297H528.87L530.948 197H532.542L529.722 205H527.933L525.116 197H526.706Z" fill="#D8762D"/>
<path d="M256.437 83.2148V82H262.82V83.2148H260.348V90H258.91V83.2148H256.437ZM263.365 90V84H264.736V85H264.799C264.908 84.6536 265.096 84.3867 265.361 84.1992C265.63 84.0091 265.936 83.9141 266.279 83.9141C266.357 83.9141 266.445 83.918 266.541 83.9258C266.64 83.931 266.722 83.9401 266.787 83.9531V85.2539C266.727 85.2331 266.632 85.2148 266.502 85.1992C266.374 85.181 266.251 85.1719 266.131 85.1719C265.873 85.1719 265.641 85.2279 265.436 85.3398C265.232 85.4492 265.072 85.6016 264.955 85.7969C264.838 85.9922 264.779 86.2174 264.779 86.4727V90H263.365ZM267.727 90V84H269.141V90H267.727ZM268.438 83.1484C268.214 83.1484 268.021 83.0742 267.859 82.9258C267.698 82.7747 267.617 82.5937 267.617 82.3828C267.617 82.1693 267.698 81.9883 267.859 81.8398C268.021 81.6888 268.214 81.6133 268.438 81.6133C268.664 81.6133 268.857 81.6888 269.016 81.8398C269.177 81.9883 269.258 82.1693 269.258 82.3828C269.258 82.5937 269.177 82.7747 269.016 82.9258C268.857 83.0742 268.664 83.1484 268.438 83.1484ZM273.204 92.375C272.696 92.375 272.26 92.306 271.896 92.168C271.531 92.0326 271.238 91.8503 271.017 91.6211C270.795 91.3919 270.642 91.138 270.556 90.8594L271.829 90.5508C271.886 90.668 271.97 90.7839 272.079 90.8984C272.188 91.0156 272.336 91.112 272.521 91.1875C272.708 91.2656 272.944 91.3047 273.228 91.3047C273.629 91.3047 273.961 91.207 274.224 91.0117C274.487 90.819 274.618 90.5013 274.618 90.0586V88.9219H274.548C274.475 89.0677 274.368 89.2174 274.228 89.3711C274.09 89.5247 273.906 89.6536 273.677 89.7578C273.45 89.862 273.165 89.9141 272.821 89.9141C272.36 89.9141 271.942 89.806 271.567 89.5898C271.195 89.3711 270.898 89.0456 270.677 88.6133C270.458 88.1784 270.349 87.6341 270.349 86.9805C270.349 86.3216 270.458 85.7656 270.677 85.3125C270.898 84.8568 271.196 84.5117 271.571 84.2773C271.946 84.0404 272.364 83.9219 272.825 83.9219C273.177 83.9219 273.466 83.9818 273.692 84.1016C273.922 84.2187 274.104 84.3607 274.239 84.5273C274.375 84.6914 274.478 84.8464 274.548 84.9922H274.626V84H276.021V90.0977C276.021 90.6107 275.898 91.0352 275.653 91.3711C275.409 91.707 275.074 91.9583 274.649 92.125C274.225 92.2917 273.743 92.375 273.204 92.375ZM273.216 88.8047C273.515 88.8047 273.771 88.7318 273.981 88.5859C274.192 88.4401 274.353 88.2305 274.462 87.957C274.571 87.6836 274.626 87.3555 274.626 86.9727C274.626 86.5951 274.571 86.2643 274.462 85.9805C274.355 85.6966 274.196 85.4766 273.985 85.3203C273.777 85.1615 273.521 85.082 273.216 85.082C272.901 85.082 272.638 85.1641 272.427 85.3281C272.216 85.4922 272.057 85.7174 271.95 86.0039C271.843 86.2878 271.79 86.6107 271.79 86.9727C271.79 87.3398 271.843 87.6615 271.95 87.9375C272.06 88.2109 272.22 88.4245 272.431 88.5781C272.644 88.7292 272.906 88.8047 273.216 88.8047ZM280.079 92.375C279.571 92.375 279.135 92.306 278.771 92.168C278.406 92.0326 278.113 91.8503 277.892 91.6211C277.67 91.3919 277.517 91.138 277.431 90.8594L278.704 90.5508C278.761 90.668 278.845 90.7839 278.954 90.8984C279.063 91.0156 279.211 91.112 279.396 91.1875C279.583 91.2656 279.819 91.3047 280.103 91.3047C280.504 91.3047 280.836 91.207 281.099 91.0117C281.362 90.819 281.493 90.5013 281.493 90.0586V88.9219H281.423C281.35 89.0677 281.243 89.2174 281.103 89.3711C280.965 89.5247 280.781 89.6536 280.552 89.7578C280.325 89.862 280.04 89.9141 279.696 89.9141C279.235 89.9141 278.817 89.806 278.442 89.5898C278.07 89.3711 277.773 89.0456 277.552 88.6133C277.333 88.1784 277.224 87.6341 277.224 86.9805C277.224 86.3216 277.333 85.7656 277.552 85.3125C277.773 84.8568 278.071 84.5117 278.446 84.2773C278.821 84.0404 279.239 83.9219 279.7 83.9219C280.052 83.9219 280.341 83.9818 280.567 84.1016C280.797 84.2187 280.979 84.3607 281.114 84.5273C281.25 84.6914 281.353 84.8464 281.423 84.9922H281.501V84H282.896V90.0977C282.896 90.6107 282.773 91.0352 282.528 91.3711C282.284 91.707 281.949 91.9583 281.524 92.125C281.1 92.2917 280.618 92.375 280.079 92.375ZM280.091 88.8047C280.39 88.8047 280.646 88.7318 280.856 88.5859C281.067 88.4401 281.228 88.2305 281.337 87.957C281.446 87.6836 281.501 87.3555 281.501 86.9727C281.501 86.5951 281.446 86.2643 281.337 85.9805C281.23 85.6966 281.071 85.4766 280.86 85.3203C280.652 85.1615 280.396 85.082 280.091 85.082C279.776 85.082 279.513 85.1641 279.302 85.3281C279.091 85.4922 278.932 85.7174 278.825 86.0039C278.718 86.2878 278.665 86.6107 278.665 86.9727C278.665 87.3398 278.718 87.6615 278.825 87.9375C278.935 88.2109 279.095 88.4245 279.306 88.5781C279.519 88.7292 279.781 88.8047 280.091 88.8047ZM287.001 90.1172C286.399 90.1172 285.88 89.9922 285.442 89.7422C285.007 89.4896 284.673 89.1328 284.438 88.6719C284.204 88.2083 284.087 87.6628 284.087 87.0352C284.087 86.418 284.204 85.8763 284.438 85.4102C284.675 84.9414 285.006 84.5768 285.431 84.3164C285.855 84.0534 286.354 83.9219 286.927 83.9219C287.297 83.9219 287.646 83.9818 287.974 84.1016C288.304 84.2187 288.596 84.401 288.849 84.6484C289.104 84.8958 289.304 85.2109 289.45 85.5937C289.596 85.974 289.669 86.4271 289.669 86.9531V87.3867H284.751V86.4336H288.313C288.311 86.1628 288.252 85.9219 288.138 85.7109C288.023 85.4974 287.863 85.3294 287.657 85.207C287.454 85.0846 287.217 85.0234 286.946 85.0234C286.657 85.0234 286.403 85.0937 286.185 85.2344C285.966 85.3724 285.795 85.5547 285.673 85.7812C285.553 86.0052 285.492 86.2513 285.489 86.5195V87.3516C285.489 87.7005 285.553 88 285.681 88.25C285.808 88.4974 285.987 88.6875 286.216 88.8203C286.445 88.9505 286.713 89.0156 287.021 89.0156C287.226 89.0156 287.412 88.987 287.579 88.9297C287.746 88.8698 287.89 88.7826 288.013 88.668C288.135 88.5534 288.228 88.4115 288.29 88.2422L289.61 88.3906C289.527 88.7396 289.368 89.0443 289.134 89.3047C288.902 89.5625 288.605 89.763 288.243 89.9062C287.881 90.0469 287.467 90.1172 287.001 90.1172ZM290.865 90V84H292.236V85H292.299C292.408 84.6536 292.596 84.3867 292.861 84.1992C293.13 84.0091 293.436 83.9141 293.779 83.9141C293.857 83.9141 293.945 83.918 294.041 83.9258C294.14 83.931 294.222 83.9401 294.287 83.9531V85.2539C294.227 85.2331 294.132 85.2148 294.002 85.1992C293.874 85.181 293.751 85.1719 293.631 85.1719C293.373 85.1719 293.141 85.2279 292.936 85.3398C292.732 85.4492 292.572 85.6016 292.455 85.7969C292.338 85.9922 292.279 86.2174 292.279 86.4727V90H290.865ZM298.018 90V82H299.467V88.7852H302.99V90H298.018ZM302.876 83.2148V82H309.259V83.2148H306.786V90H305.349V83.2148H302.876ZM311.56 82L313.642 88.2969H313.724L315.802 82H317.396L314.575 90H312.786L309.97 82H311.56Z" fill="#596F78"/>
<path d="M488.156 99H493.656V159H486.656" stroke="#C3C9FC" stroke-width="2" stroke-dasharray="2 8"/>
</svg>
