<svg width="517" height="268" viewBox="0 0 517 268" fill="none" xmlns="http://www.w3.org/2000/svg">
<path d="M2.29688 129C2.29688 129 27.2969 118.5 45.2969 100C63.2969 81.5003 59.972 56 83 56C109.5 56 97.9934 117.405 129.517 115C147.526 113.627 155.221 99.2212 173.265 100C189.306 100.693 195.517 115.942 211.545 115C231.788 113.812 253.926 87.0003 253.926 87.0003V147C253.926 147 262.02 95.9739 281.047 115C303.047 137 308.612 87.0003 308.612 87.0003V147C308.612 147 328.612 140.843 345.954 123.5C363.297 106.158 363.297 87.0003 363.297 87.0003V147C378.794 141.221 368.376 110 393.087 110C417.797 110 417.297 87.0003 417.297 87.0003V147" stroke="#5FC4B9" stroke-width="2" stroke-linejoin="round"/>
<path d="M2.29688 177H420.297" stroke="#E49F6C" stroke-width="2" stroke-linecap="round" stroke-linejoin="round"/>
<path d="M2.29688 255H420.297" stroke="#E48062" stroke-width="2" stroke-linecap="round" stroke-linejoin="round"/>
<path d="M2.29688 267H420.297" stroke="#EAEAEA" stroke-width="2" stroke-linecap="round" stroke-linejoin="round" stroke-dasharray="2 8"/>
<path d="M157.047 27L420.047 27" stroke="#EAEAEA" stroke-width="2" stroke-linecap="round" stroke-linejoin="round" stroke-dasharray="2 8"/>
<path d="M2.04688 27H17.0469" stroke="#EAEAEA" stroke-width="2" stroke-linecap="round" stroke-linejoin="round" stroke-dasharray="2 8"/>
<path d="M2.04688 87H248.047" stroke="#EAEAEA" stroke-width="2" stroke-linecap="round" stroke-linejoin="round" stroke-dasharray="2 8"/>
<path d="M1.76562 147H193.766" stroke="#EAEAEA" stroke-width="2" stroke-linecap="round" stroke-linejoin="round" stroke-dasharray="2 8"/>
<path d="M234.766 147L244.766 147" stroke="#EAEAEA" stroke-width="2" stroke-linecap="round" stroke-linejoin="round" stroke-dasharray="2 8"/>
<path d="M2.29688 207H420.297" stroke="#EAEAEA" stroke-width="2" stroke-linecap="round" stroke-linejoin="round" stroke-dasharray="2 8"/>
<circle cx="82" cy="56" r="3" fill="#17344F"/>
<path d="M293.297 87H260.297" stroke="#B6BDC2" stroke-width="2" stroke-dasharray="2 8"/>
<path d="M301.297 147H259.297" stroke="#B6BDC2" stroke-width="2" stroke-dasharray="2 8"/>
<path d="M357.297 87H314.297" stroke="#B6BDC2" stroke-width="2" stroke-dasharray="2 8"/>
<path d="M357.297 147H322.297" stroke="#B6BDC2" stroke-width="2" stroke-dasharray="2 8"/>
<path d="M411.297 87H368.297" stroke="#B6BDC2" stroke-width="2" stroke-dasharray="2 8"/>
<path d="M411.297 147H368.297" stroke="#B6BDC2" stroke-width="2" stroke-dasharray="2 8"/>
<circle cx="254.297" cy="87" r="3" fill="#17344F"/>
<circle cx="308.297" cy="87" r="3" fill="#17344F"/>
<circle cx="363.297" cy="87" r="3" fill="#17344F"/>
<circle cx="417.297" cy="87" r="3" fill="#17344F"/>
<circle cx="254.297" cy="147" r="3" fill="#575CFE"/>
<circle cx="308.297" cy="147" r="3" fill="#575CFE"/>
<circle cx="363.297" cy="147" r="3" fill="#575CFE"/>
<circle cx="417.297" cy="147" r="3" fill="#575CFE"/>
<path d="M29.5352 22V30H28.0859V22H29.5352ZM32.4561 26.4844V30H31.042V24H32.3936V25.0195H32.4639C32.6019 24.6836 32.8219 24.4167 33.124 24.2187C33.4287 24.0208 33.805 23.9219 34.2529 23.9219C34.667 23.9219 35.0277 24.0104 35.335 24.1875C35.6449 24.3646 35.8844 24.6211 36.0537 24.957C36.2256 25.293 36.3102 25.7005 36.3076 26.1797V30H34.8936V26.3984C34.8936 25.9974 34.7894 25.6836 34.5811 25.457C34.3753 25.2305 34.0902 25.1172 33.7256 25.1172C33.4782 25.1172 33.2581 25.1719 33.0654 25.2812C32.8753 25.388 32.7256 25.543 32.6162 25.7461C32.5094 25.9492 32.4561 26.1953 32.4561 26.4844ZM37.7451 30V24H39.1592V30H37.7451ZM38.4561 23.1484C38.2321 23.1484 38.0394 23.0742 37.8779 22.9258C37.7165 22.7747 37.6357 22.5937 37.6357 22.3828C37.6357 22.1693 37.7165 21.9883 37.8779 21.8398C38.0394 21.6888 38.2321 21.6133 38.4561 21.6133C38.6826 21.6133 38.8753 21.6888 39.0342 21.8398C39.1956 21.9883 39.2764 22.1693 39.2764 22.3828C39.2764 22.5937 39.1956 22.7747 39.0342 22.9258C38.8753 23.0742 38.6826 23.1484 38.4561 23.1484ZM43.6094 24V25.0937H40.1602V24H43.6094ZM41.0117 22.5625H42.4258V28.1953C42.4258 28.3854 42.4544 28.5313 42.5117 28.6328C42.5716 28.7318 42.6497 28.7995 42.7461 28.8359C42.8424 28.8724 42.9492 28.8906 43.0664 28.8906C43.1549 28.8906 43.2357 28.8841 43.3086 28.8711C43.3841 28.8581 43.4414 28.8464 43.4805 28.8359L43.7188 29.9414C43.6432 29.9674 43.5352 29.9961 43.3945 30.0273C43.2565 30.0586 43.0872 30.0768 42.8867 30.082C42.5326 30.0924 42.2135 30.0391 41.9297 29.9219C41.6458 29.8021 41.4206 29.6172 41.2539 29.3672C41.0898 29.1172 41.0091 28.8047 41.0117 28.4297V22.5625ZM44.792 30V24H46.2061V30H44.792ZM45.5029 23.1484C45.279 23.1484 45.0863 23.0742 44.9248 22.9258C44.7633 22.7747 44.6826 22.5937 44.6826 22.3828C44.6826 22.1693 44.7633 21.9883 44.9248 21.8398C45.0863 21.6888 45.279 21.6133 45.5029 21.6133C45.7295 21.6133 45.9222 21.6888 46.0811 21.8398C46.2425 21.9883 46.3232 22.1693 46.3232 22.3828C46.3232 22.5937 46.2425 22.7747 46.0811 22.9258C45.9222 23.0742 45.7295 23.1484 45.5029 23.1484ZM49.3867 30.1211C49.0065 30.1211 48.6641 30.0534 48.3594 29.918C48.0573 29.7799 47.8177 29.5768 47.6406 29.3086C47.4661 29.0404 47.3789 28.7096 47.3789 28.3164C47.3789 27.9779 47.4414 27.6979 47.5664 27.4766C47.6914 27.2552 47.862 27.0781 48.0781 26.9453C48.2943 26.8125 48.5378 26.7122 48.8086 26.6445C49.082 26.5742 49.3646 26.5234 49.6563 26.4922C50.0078 26.4557 50.293 26.4232 50.5117 26.3945C50.7305 26.3633 50.8893 26.3164 50.9883 26.2539C51.0898 26.1888 51.1406 26.0885 51.1406 25.9531V25.9297C51.1406 25.6354 51.0534 25.4076 50.8789 25.2461C50.7044 25.0846 50.4531 25.0039 50.125 25.0039C49.7786 25.0039 49.5039 25.0794 49.3008 25.2305C49.1003 25.3815 48.9648 25.5599 48.8945 25.7656L47.5742 25.5781C47.6784 25.2135 47.8503 24.9089 48.0898 24.6641C48.3294 24.4167 48.6224 24.2318 48.9687 24.1094C49.3151 23.9844 49.6979 23.9219 50.1172 23.9219C50.4063 23.9219 50.694 23.9557 50.9805 24.0234C51.2669 24.0911 51.5286 24.2031 51.7656 24.3594C52.0026 24.513 52.1927 24.7227 52.3359 24.9883C52.4818 25.2539 52.5547 25.5859 52.5547 25.9844V30H51.1953V29.1758H51.1484C51.0625 29.3424 50.9414 29.4987 50.7852 29.6445C50.6315 29.7878 50.4375 29.9036 50.2031 29.9922C49.9714 30.0781 49.6992 30.1211 49.3867 30.1211ZM49.7539 29.082C50.0378 29.082 50.2839 29.026 50.4922 28.9141C50.7005 28.7995 50.8607 28.6484 50.9727 28.4609C51.0872 28.2734 51.1445 28.069 51.1445 27.8477V27.1406C51.1003 27.1771 51.0247 27.2109 50.918 27.2422C50.8138 27.2734 50.6966 27.3008 50.5664 27.3242C50.4362 27.3477 50.3073 27.3685 50.1797 27.3867C50.0521 27.4049 49.9414 27.4206 49.8477 27.4336C49.6367 27.4622 49.4479 27.5091 49.2813 27.5742C49.1146 27.6393 48.9831 27.7305 48.8867 27.8477C48.7904 27.9622 48.7422 28.1107 48.7422 28.293C48.7422 28.5534 48.8372 28.75 49.0273 28.8828C49.2174 29.0156 49.4596 29.082 49.7539 29.082ZM55.3906 22V30H53.9766V22H55.3906ZM59.2842 23.2148V22H65.667V23.2148H63.1943V30H61.7568V23.2148H59.2842ZM66.2119 30V24H67.583V25H67.6455C67.7549 24.6536 67.9424 24.3867 68.208 24.1992C68.4762 24.0091 68.7822 23.9141 69.126 23.9141C69.2041 23.9141 69.2913 23.918 69.3877 23.9258C69.4867 23.931 69.5687 23.9401 69.6338 23.9531V25.2539C69.5739 25.2331 69.4788 25.2148 69.3486 25.1992C69.221 25.181 69.0973 25.1719 68.9775 25.1719C68.7197 25.1719 68.488 25.2279 68.2822 25.3398C68.0791 25.4492 67.9189 25.6016 67.8018 25.7969C67.6846 25.9922 67.626 26.2174 67.626 26.4727V30H66.2119ZM70.5732 30V24H71.9873V30H70.5732ZM71.2842 23.1484C71.0602 23.1484 70.8675 23.0742 70.7061 22.9258C70.5446 22.7747 70.4639 22.5937 70.4639 22.3828C70.4639 22.1693 70.5446 21.9883 70.7061 21.8398C70.8675 21.6888 71.0602 21.6133 71.2842 21.6133C71.5107 21.6133 71.7035 21.6888 71.8623 21.8398C72.0238 21.9883 72.1045 22.1693 72.1045 22.3828C72.1045 22.5937 72.0238 22.7747 71.8623 22.9258C71.7035 23.0742 71.5107 23.1484 71.2842 23.1484ZM76.0508 32.375C75.543 32.375 75.1068 32.306 74.7422 32.168C74.3776 32.0326 74.0846 31.8503 73.8633 31.6211C73.6419 31.3919 73.4883 31.138 73.4023 30.8594L74.6758 30.5508C74.7331 30.668 74.8164 30.7839 74.9258 30.8984C75.0352 31.0156 75.1823 31.112 75.3672 31.1875C75.5547 31.2656 75.7904 31.3047 76.0742 31.3047C76.4753 31.3047 76.8073 31.207 77.0703 31.0117C77.3333 30.819 77.4648 30.5013 77.4648 30.0586V28.9219H77.3945C77.3216 29.0677 77.2148 29.2174 77.0742 29.3711C76.9362 29.5247 76.7526 29.6536 76.5234 29.7578C76.2969 29.862 76.0117 29.9141 75.668 29.9141C75.207 29.9141 74.7891 29.806 74.4141 29.5898C74.0417 29.3711 73.7448 29.0456 73.5234 28.6133C73.3047 28.1784 73.1953 27.6341 73.1953 26.9805C73.1953 26.3216 73.3047 25.7656 73.5234 25.3125C73.7448 24.8568 74.043 24.5117 74.418 24.2773C74.793 24.0404 75.2109 23.9219 75.6719 23.9219C76.0234 23.9219 76.3125 23.9818 76.5391 24.1016C76.7682 24.2187 76.9505 24.3607 77.0859 24.5273C77.2214 24.6914 77.3242 24.8464 77.3945 24.9922H77.4727V24H78.8672V30.0977C78.8672 30.6107 78.7448 31.0352 78.5 31.3711C78.2552 31.707 77.9206 31.9583 77.4961 32.125C77.0716 32.2917 76.5898 32.375 76.0508 32.375ZM76.0625 28.8047C76.362 28.8047 76.6172 28.7318 76.8281 28.5859C77.0391 28.4401 77.1992 28.2305 77.3086 27.957C77.418 27.6836 77.4727 27.3555 77.4727 26.9727C77.4727 26.5951 77.418 26.2643 77.3086 25.9805C77.2018 25.6966 77.043 25.4766 76.832 25.3203C76.6237 25.1615 76.3672 25.082 76.0625 25.082C75.7474 25.082 75.4844 25.1641 75.2734 25.3281C75.0625 25.4922 74.9036 25.7174 74.7969 26.0039C74.6901 26.2878 74.6367 26.6107 74.6367 26.9727C74.6367 27.3398 74.6901 27.6615 74.7969 27.9375C74.9063 28.2109 75.0664 28.4245 75.2773 28.5781C75.4909 28.7292 75.7526 28.8047 76.0625 28.8047ZM82.9258 32.375C82.418 32.375 81.9818 32.306 81.6172 32.168C81.2526 32.0326 80.9596 31.8503 80.7383 31.6211C80.5169 31.3919 80.3633 31.138 80.2773 30.8594L81.5508 30.5508C81.6081 30.668 81.6914 30.7839 81.8008 30.8984C81.9102 31.0156 82.0573 31.112 82.2422 31.1875C82.4297 31.2656 82.6654 31.3047 82.9492 31.3047C83.3503 31.3047 83.6823 31.207 83.9453 31.0117C84.2083 30.819 84.3398 30.5013 84.3398 30.0586V28.9219H84.2695C84.1966 29.0677 84.0898 29.2174 83.9492 29.3711C83.8112 29.5247 83.6276 29.6536 83.3984 29.7578C83.1719 29.862 82.8867 29.9141 82.543 29.9141C82.082 29.9141 81.6641 29.806 81.2891 29.5898C80.9167 29.3711 80.6198 29.0456 80.3984 28.6133C80.1797 28.1784 80.0703 27.6341 80.0703 26.9805C80.0703 26.3216 80.1797 25.7656 80.3984 25.3125C80.6198 24.8568 80.918 24.5117 81.293 24.2773C81.668 24.0404 82.0859 23.9219 82.5469 23.9219C82.8984 23.9219 83.1875 23.9818 83.4141 24.1016C83.6432 24.2187 83.8255 24.3607 83.9609 24.5273C84.0964 24.6914 84.1992 24.8464 84.2695 24.9922H84.3477V24H85.7422V30.0977C85.7422 30.6107 85.6198 31.0352 85.375 31.3711C85.1302 31.707 84.7956 31.9583 84.3711 32.125C83.9466 32.2917 83.4648 32.375 82.9258 32.375ZM82.9375 28.8047C83.237 28.8047 83.4922 28.7318 83.7031 28.5859C83.9141 28.4401 84.0742 28.2305 84.1836 27.957C84.293 27.6836 84.3477 27.3555 84.3477 26.9727C84.3477 26.5951 84.293 26.2643 84.1836 25.9805C84.0768 25.6966 83.918 25.4766 83.707 25.3203C83.4987 25.1615 83.2422 25.082 82.9375 25.082C82.6224 25.082 82.3594 25.1641 82.1484 25.3281C81.9375 25.4922 81.7786 25.7174 81.6719 26.0039C81.5651 26.2878 81.5117 26.6107 81.5117 26.9727C81.5117 27.3398 81.5651 27.6615 81.6719 27.9375C81.7813 28.2109 81.9414 28.4245 82.1523 28.5781C82.3659 28.7292 82.6276 28.8047 82.9375 28.8047ZM89.8477 30.1172C89.2461 30.1172 88.7266 29.9922 88.2891 29.7422C87.8542 29.4896 87.5195 29.1328 87.2852 28.6719C87.0508 28.2083 86.9336 27.6628 86.9336 27.0352C86.9336 26.418 87.0508 25.8763 87.2852 25.4102C87.5221 24.9414 87.8529 24.5768 88.2773 24.3164C88.7018 24.0534 89.2005 23.9219 89.7734 23.9219C90.1432 23.9219 90.4922 23.9818 90.8203 24.1016C91.151 24.2187 91.4427 24.401 91.6953 24.6484C91.9505 24.8958 92.151 25.2109 92.2969 25.5937C92.4427 25.974 92.5156 26.4271 92.5156 26.9531V27.3867H87.5977V26.4336H91.1602C91.1576 26.1628 91.099 25.9219 90.9844 25.7109C90.8698 25.4974 90.7096 25.3294 90.5039 25.207C90.3008 25.0846 90.0638 25.0234 89.793 25.0234C89.5039 25.0234 89.25 25.0937 89.0313 25.2344C88.8125 25.3724 88.6419 25.5547 88.5195 25.7812C88.3997 26.0052 88.3385 26.2513 88.3359 26.5195V27.3516C88.3359 27.7005 88.3997 28 88.5273 28.25C88.6549 28.4974 88.8333 28.6875 89.0625 28.8203C89.2917 28.9505 89.5599 29.0156 89.8672 29.0156C90.0729 29.0156 90.2591 28.987 90.4258 28.9297C90.5924 28.8698 90.737 28.7826 90.8594 28.668C90.9818 28.5534 91.0742 28.4115 91.1367 28.2422L92.457 28.3906C92.3737 28.7396 92.2148 29.0443 91.9805 29.3047C91.7487 29.5625 91.4518 29.763 91.0898 29.9062C90.7279 30.0469 90.3138 30.1172 89.8477 30.1172ZM93.7119 30V24H95.083V25H95.1455C95.2549 24.6536 95.4424 24.3867 95.708 24.1992C95.9762 24.0091 96.2822 23.9141 96.626 23.9141C96.7041 23.9141 96.7913 23.918 96.8877 23.9258C96.9867 23.931 97.0687 23.9401 97.1338 23.9531V25.2539C97.0739 25.2331 96.9788 25.2148 96.8486 25.1992C96.721 25.181 96.5973 25.1719 96.4775 25.1719C96.2197 25.1719 95.988 25.2279 95.7822 25.3398C95.5791 25.4492 95.4189 25.6016 95.3018 25.7969C95.1846 25.9922 95.126 26.2174 95.126 26.4727V30H93.7119ZM100.864 30V22H102.313V28.7852H105.837V30H100.864ZM105.723 23.2148V22H112.105V23.2148H109.633V30H108.195V23.2148H105.723ZM114.406 22L116.488 28.2969H116.57L118.648 22H120.242L117.422 30H115.633L112.816 22H114.406ZM28.0859 46V38H29.5V40.9922H29.5586C29.6315 40.8464 29.7344 40.6914 29.8672 40.5273C30 40.3607 30.1797 40.2187 30.4063 40.1016C30.6328 39.9818 30.9219 39.9219 31.2734 39.9219C31.737 39.9219 32.1549 40.0404 32.5273 40.2773C32.9023 40.5117 33.1992 40.8594 33.418 41.3203C33.6393 41.7786 33.75 42.3411 33.75 43.0078C33.75 43.6667 33.6419 44.2266 33.4258 44.6875C33.2096 45.1484 32.9154 45.5 32.543 45.7422C32.1706 45.9844 31.7487 46.1055 31.2773 46.1055C30.9336 46.1055 30.6484 46.0482 30.4219 45.9336C30.1953 45.819 30.013 45.681 29.875 45.5195C29.7396 45.3555 29.6341 45.2005 29.5586 45.0547H29.4766V46H28.0859ZM29.4727 43C29.4727 43.388 29.5273 43.7279 29.6367 44.0195C29.7487 44.3112 29.9089 44.5391 30.1172 44.7031C30.3281 44.8646 30.5833 44.9453 30.8828 44.9453C31.1953 44.9453 31.457 44.862 31.668 44.6953C31.8789 44.526 32.0378 44.2956 32.1445 44.0039C32.2539 43.7096 32.3086 43.375 32.3086 43C32.3086 42.6276 32.2552 42.2969 32.1484 42.0078C32.0417 41.7187 31.8828 41.4922 31.6719 41.3281C31.4609 41.1641 31.1979 41.082 30.8828 41.082C30.5807 41.082 30.3242 41.1615 30.1133 41.3203C29.9023 41.4792 29.7422 41.7018 29.6328 41.9883C29.526 42.2747 29.4727 42.612 29.4727 43ZM36.6787 46.1211C36.2985 46.1211 35.9561 46.0534 35.6514 45.918C35.3493 45.7799 35.1097 45.5768 34.9326 45.3086C34.7581 45.0404 34.6709 44.7096 34.6709 44.3164C34.6709 43.9779 34.7334 43.6979 34.8584 43.4766C34.9834 43.2552 35.154 43.0781 35.3701 42.9453C35.5863 42.8125 35.8298 42.7122 36.1006 42.6445C36.374 42.5742 36.6566 42.5234 36.9482 42.4922C37.2998 42.4557 37.585 42.4232 37.8037 42.3945C38.0225 42.3633 38.1813 42.3164 38.2803 42.2539C38.3818 42.1888 38.4326 42.0885 38.4326 41.9531V41.9297C38.4326 41.6354 38.3454 41.4076 38.1709 41.2461C37.9964 41.0846 37.7451 41.0039 37.417 41.0039C37.0706 41.0039 36.7959 41.0794 36.5928 41.2305C36.3923 41.3815 36.2568 41.5599 36.1865 41.7656L34.8662 41.5781C34.9704 41.2135 35.1423 40.9089 35.3818 40.6641C35.6214 40.4167 35.9144 40.2318 36.2607 40.1094C36.6071 39.9844 36.9899 39.9219 37.4092 39.9219C37.6982 39.9219 37.986 39.9557 38.2725 40.0234C38.5589 40.0911 38.8206 40.2031 39.0576 40.3594C39.2946 40.513 39.4847 40.7227 39.6279 40.9883C39.7738 41.2539 39.8467 41.5859 39.8467 41.9844V46H38.4873V45.1758H38.4404C38.3545 45.3424 38.2334 45.4987 38.0771 45.6445C37.9235 45.7878 37.7295 45.9036 37.4951 45.9922C37.2633 46.0781 36.9912 46.1211 36.6787 46.1211ZM37.0459 45.082C37.3298 45.082 37.5758 45.026 37.7842 44.9141C37.9925 44.7995 38.1527 44.6484 38.2646 44.4609C38.3792 44.2734 38.4365 44.069 38.4365 43.8477V43.1406C38.3923 43.1771 38.3167 43.2109 38.21 43.2422C38.1058 43.2734 37.9886 43.3008 37.8584 43.3242C37.7282 43.3477 37.5993 43.3685 37.4717 43.3867C37.3441 43.4049 37.2334 43.4206 37.1396 43.4336C36.9287 43.4622 36.7399 43.5091 36.5732 43.5742C36.4066 43.6393 36.2751 43.7305 36.1787 43.8477C36.0824 43.9622 36.0342 44.1107 36.0342 44.293C36.0342 44.5534 36.1292 44.75 36.3193 44.8828C36.5094 45.0156 36.7516 45.082 37.0459 45.082ZM46.0107 41.5859L44.7217 41.7266C44.6852 41.5964 44.6214 41.474 44.5303 41.3594C44.4417 41.2448 44.3219 41.1523 44.1709 41.082C44.0199 41.0117 43.835 40.9766 43.6162 40.9766C43.3219 40.9766 43.0745 41.0404 42.874 41.168C42.6761 41.2956 42.5785 41.4609 42.5811 41.6641C42.5785 41.8385 42.6423 41.9805 42.7725 42.0898C42.9053 42.1992 43.124 42.2891 43.4287 42.3594L44.4521 42.5781C45.0199 42.7005 45.4417 42.8945 45.7178 43.1602C45.9964 43.4258 46.137 43.7734 46.1396 44.2031C46.137 44.5807 46.0264 44.9141 45.8076 45.2031C45.5915 45.4896 45.2907 45.7135 44.9053 45.875C44.5199 46.0365 44.0771 46.1172 43.5771 46.1172C42.8428 46.1172 42.2516 45.9635 41.8037 45.6562C41.3558 45.3464 41.0889 44.9154 41.0029 44.3633L42.3818 44.2305C42.4443 44.5013 42.5771 44.7057 42.7803 44.8437C42.9834 44.9818 43.2477 45.0508 43.5732 45.0508C43.9092 45.0508 44.1787 44.9818 44.3818 44.8437C44.5876 44.7057 44.6904 44.5352 44.6904 44.332C44.6904 44.1602 44.624 44.0182 44.4912 43.9062C44.361 43.7943 44.1579 43.7083 43.8818 43.6484L42.8584 43.4336C42.2829 43.3138 41.8571 43.112 41.5811 42.8281C41.305 42.5417 41.1683 42.1797 41.1709 41.7422C41.1683 41.3724 41.2686 41.0521 41.4717 40.7812C41.6774 40.5078 41.9626 40.2969 42.3271 40.1484C42.6943 39.9974 43.1175 39.9219 43.5967 39.9219C44.2998 39.9219 44.8532 40.0716 45.2568 40.3711C45.6631 40.6706 45.9144 41.0755 46.0107 41.5859ZM49.9619 46.1172C49.3604 46.1172 48.8408 45.9922 48.4033 45.7422C47.9684 45.4896 47.6338 45.1328 47.3994 44.6719C47.165 44.2083 47.0479 43.6628 47.0479 43.0352C47.0479 42.418 47.165 41.8763 47.3994 41.4102C47.6364 40.9414 47.9671 40.5768 48.3916 40.3164C48.8161 40.0534 49.3148 39.9219 49.8877 39.9219C50.2575 39.9219 50.6064 39.9818 50.9346 40.1016C51.2653 40.2187 51.557 40.401 51.8096 40.6484C52.0648 40.8958 52.2653 41.2109 52.4111 41.5937C52.557 41.974 52.6299 42.4271 52.6299 42.9531V43.3867H47.7119V42.4336H51.2744C51.2718 42.1628 51.2132 41.9219 51.0986 41.7109C50.984 41.4974 50.8239 41.3294 50.6182 41.207C50.415 41.0846 50.1781 41.0234 49.9072 41.0234C49.6182 41.0234 49.3643 41.0937 49.1455 41.2344C48.9268 41.3724 48.7562 41.5547 48.6338 41.7812C48.514 42.0052 48.4528 42.2513 48.4502 42.5195V43.3516C48.4502 43.7005 48.514 44 48.6416 44.25C48.7692 44.4974 48.9476 44.6875 49.1768 44.8203C49.4059 44.9505 49.6742 45.0156 49.9814 45.0156C50.1872 45.0156 50.3734 44.987 50.54 44.9297C50.7067 44.8698 50.8512 44.7826 50.9736 44.668C51.096 44.5534 51.1885 44.4115 51.251 44.2422L52.5713 44.3906C52.488 44.7396 52.3291 45.0443 52.0947 45.3047C51.863 45.5625 51.5661 45.763 51.2041 45.9062C50.8421 46.0469 50.4281 46.1172 49.9619 46.1172ZM56.0527 46.1055C55.5814 46.1055 55.1595 45.9844 54.7871 45.7422C54.4147 45.5 54.1204 45.1484 53.9043 44.6875C53.6882 44.2266 53.5801 43.6667 53.5801 43.0078C53.5801 42.3411 53.6895 41.7786 53.9082 41.3203C54.1296 40.8594 54.4277 40.5117 54.8027 40.2773C55.1777 40.0404 55.5957 39.9219 56.0566 39.9219C56.4082 39.9219 56.6973 39.9818 56.9238 40.1016C57.1504 40.2187 57.3301 40.3607 57.4629 40.5273C57.5957 40.6914 57.6986 40.8464 57.7715 40.9922H57.8301V38H59.248V46H57.8574V45.0547H57.7715C57.6986 45.2005 57.5931 45.3555 57.4551 45.5195C57.3171 45.681 57.1348 45.819 56.9082 45.9336C56.6816 46.0482 56.3965 46.1055 56.0527 46.1055ZM56.4473 44.9453C56.7467 44.9453 57.002 44.8646 57.2129 44.7031C57.4238 44.5391 57.584 44.3112 57.6934 44.0195C57.8027 43.7279 57.8574 43.388 57.8574 43C57.8574 42.612 57.8027 42.2747 57.6934 41.9883C57.5866 41.7018 57.4277 41.4792 57.2168 41.3203C57.0085 41.1615 56.752 41.082 56.4473 41.082C56.1322 41.082 55.8691 41.1641 55.6582 41.3281C55.4473 41.4922 55.2884 41.7187 55.1816 42.0078C55.0749 42.2969 55.0215 42.6276 55.0215 43C55.0215 43.375 55.0749 43.7096 55.1816 44.0039C55.291 44.2956 55.4512 44.526 55.6621 44.6953C55.8757 44.862 56.1374 44.9453 56.4473 44.9453ZM66.1006 46.1172C65.5146 46.1172 65.0068 45.9883 64.5771 45.7305C64.1475 45.4727 63.8141 45.112 63.5771 44.6484C63.3428 44.1849 63.2256 43.6432 63.2256 43.0234C63.2256 42.4036 63.3428 41.8607 63.5771 41.3945C63.8141 40.9284 64.1475 40.5664 64.5771 40.3086C65.0068 40.0508 65.5146 39.9219 66.1006 39.9219C66.6865 39.9219 67.1943 40.0508 67.624 40.3086C68.0537 40.5664 68.3857 40.9284 68.6201 41.3945C68.8571 41.8607 68.9756 42.4036 68.9756 43.0234C68.9756 43.6432 68.8571 44.1849 68.6201 44.6484C68.3857 45.112 68.0537 45.4727 67.624 45.7305C67.1943 45.9883 66.6865 46.1172 66.1006 46.1172ZM66.1084 44.9844C66.4261 44.9844 66.6917 44.8971 66.9053 44.7227C67.1188 44.5456 67.2777 44.3086 67.3818 44.0117C67.4886 43.7148 67.542 43.3841 67.542 43.0195C67.542 42.6523 67.4886 42.3203 67.3818 42.0234C67.2777 41.724 67.1188 41.4857 66.9053 41.3086C66.6917 41.1315 66.4261 41.043 66.1084 41.043C65.7829 41.043 65.512 41.1315 65.2959 41.3086C65.0824 41.4857 64.9222 41.724 64.8154 42.0234C64.7113 42.3203 64.6592 42.6523 64.6592 43.0195C64.6592 43.3841 64.7113 43.7148 64.8154 44.0117C64.9222 44.3086 65.0824 44.5456 65.2959 44.7227C65.512 44.8971 65.7829 44.9844 66.1084 44.9844ZM71.5898 42.4844V46H70.1758V40H71.5273V41.0195H71.5977C71.7357 40.6836 71.9557 40.4167 72.2578 40.2187C72.5625 40.0208 72.9388 39.9219 73.3867 39.9219C73.8008 39.9219 74.1615 40.0104 74.4688 40.1875C74.7786 40.3646 75.0182 40.6211 75.1875 40.957C75.3594 41.293 75.444 41.7005 75.4414 42.1797V46H74.0273V42.3984C74.0273 41.9974 73.9232 41.6836 73.7148 41.457C73.5091 41.2305 73.224 41.1172 72.8594 41.1172C72.612 41.1172 72.3919 41.1719 72.1992 41.2812C72.0091 41.388 71.8594 41.543 71.75 41.7461C71.6432 41.9492 71.5898 42.1953 71.5898 42.4844ZM82.2246 46.1172C81.6257 46.1172 81.1113 45.9857 80.6816 45.7227C80.2546 45.4596 79.9251 45.0964 79.6934 44.6328C79.4642 44.1667 79.3496 43.6302 79.3496 43.0234C79.3496 42.4141 79.4668 41.8763 79.7012 41.4102C79.9355 40.9414 80.2663 40.5768 80.6934 40.3164C81.123 40.0534 81.6309 39.9219 82.2168 39.9219C82.7038 39.9219 83.1348 40.0117 83.5098 40.1914C83.8874 40.3685 84.1882 40.6198 84.4121 40.9453C84.6361 41.2682 84.7637 41.6458 84.7949 42.0781H83.4434C83.3887 41.7891 83.2585 41.5482 83.0527 41.3555C82.8496 41.1602 82.5775 41.0625 82.2363 41.0625C81.9473 41.0625 81.6934 41.1406 81.4746 41.2969C81.2559 41.4505 81.0853 41.6719 80.9629 41.9609C80.8431 42.25 80.7832 42.5964 80.7832 43C80.7832 43.4089 80.8431 43.7604 80.9629 44.0547C81.0827 44.3464 81.2507 44.5716 81.4668 44.7305C81.6855 44.8867 81.9421 44.9648 82.2363 44.9648C82.4447 44.9648 82.6309 44.9258 82.7949 44.8477C82.9616 44.7669 83.1009 44.651 83.2129 44.5C83.3249 44.349 83.4017 44.1654 83.4434 43.9492H84.7949C84.7611 44.3737 84.6361 44.75 84.4199 45.0781C84.2038 45.4036 83.9095 45.6589 83.5371 45.8437C83.1647 46.026 82.7272 46.1172 82.2246 46.1172ZM87.3701 42.4844V46H85.9561V38H87.3389V41.0195H87.4092C87.5498 40.681 87.7673 40.4141 88.0615 40.2187C88.3584 40.0208 88.736 39.9219 89.1943 39.9219C89.611 39.9219 89.9743 40.0091 90.2842 40.1836C90.5941 40.3581 90.8337 40.6133 91.0029 40.9492C91.1748 41.2852 91.2607 41.6953 91.2607 42.1797V46H89.8467V42.3984C89.8467 41.9948 89.7425 41.681 89.5342 41.457C89.3285 41.2305 89.0394 41.1172 88.667 41.1172C88.417 41.1172 88.193 41.1719 87.9951 41.2812C87.7998 41.388 87.6462 41.543 87.5342 41.7461C87.4248 41.9492 87.3701 42.1953 87.3701 42.4844ZM95.3193 46.1172C94.7334 46.1172 94.2256 45.9883 93.7959 45.7305C93.3662 45.4727 93.0329 45.112 92.7959 44.6484C92.5615 44.1849 92.4443 43.6432 92.4443 43.0234C92.4443 42.4036 92.5615 41.8607 92.7959 41.3945C93.0329 40.9284 93.3662 40.5664 93.7959 40.3086C94.2256 40.0508 94.7334 39.9219 95.3193 39.9219C95.9053 39.9219 96.4131 40.0508 96.8428 40.3086C97.2725 40.5664 97.6045 40.9284 97.8389 41.3945C98.0758 41.8607 98.1943 42.4036 98.1943 43.0234C98.1943 43.6432 98.0758 44.1849 97.8389 44.6484C97.6045 45.112 97.2725 45.4727 96.8428 45.7305C96.4131 45.9883 95.9053 46.1172 95.3193 46.1172ZM95.3271 44.9844C95.6449 44.9844 95.9105 44.8971 96.124 44.7227C96.3376 44.5456 96.4964 44.3086 96.6006 44.0117C96.7074 43.7148 96.7607 43.3841 96.7607 43.0195C96.7607 42.6523 96.7074 42.3203 96.6006 42.0234C96.4964 41.724 96.3376 41.4857 96.124 41.3086C95.9105 41.1315 95.6449 41.043 95.3271 41.043C95.0016 41.043 94.7308 41.1315 94.5146 41.3086C94.3011 41.4857 94.141 41.724 94.0342 42.0234C93.93 42.3203 93.8779 42.6523 93.8779 43.0195C93.8779 43.3841 93.93 43.7148 94.0342 44.0117C94.141 44.3086 94.3011 44.5456 94.5146 44.7227C94.7308 44.8971 95.0016 44.9844 95.3271 44.9844ZM104.137 41.5859L102.848 41.7266C102.811 41.5964 102.747 41.474 102.656 41.3594C102.568 41.2448 102.448 41.1523 102.297 41.082C102.146 41.0117 101.961 40.9766 101.742 40.9766C101.448 40.9766 101.201 41.0404 101 41.168C100.802 41.2956 100.704 41.4609 100.707 41.6641C100.704 41.8385 100.768 41.9805 100.898 42.0898C101.031 42.1992 101.25 42.2891 101.555 42.3594L102.578 42.5781C103.146 42.7005 103.568 42.8945 103.844 43.1602C104.122 43.4258 104.263 43.7734 104.266 44.2031C104.263 44.5807 104.152 44.9141 103.934 45.2031C103.717 45.4896 103.417 45.7135 103.031 45.875C102.646 46.0365 102.203 46.1172 101.703 46.1172C100.969 46.1172 100.378 45.9635 99.9297 45.6562C99.4818 45.3464 99.2148 44.9154 99.1289 44.3633L100.508 44.2305C100.57 44.5013 100.703 44.7057 100.906 44.8437C101.109 44.9818 101.374 45.0508 101.699 45.0508C102.035 45.0508 102.305 44.9818 102.508 44.8437C102.714 44.7057 102.816 44.5352 102.816 44.332C102.816 44.1602 102.75 44.0182 102.617 43.9062C102.487 43.7943 102.284 43.7083 102.008 43.6484L100.984 43.4336C100.409 43.3138 99.9831 43.112 99.707 42.8281C99.431 42.5417 99.2943 42.1797 99.2969 41.7422C99.2943 41.3724 99.3945 41.0521 99.5977 40.7812C99.8034 40.5078 100.089 40.2969 100.453 40.1484C100.82 39.9974 101.243 39.9219 101.723 39.9219C102.426 39.9219 102.979 40.0716 103.383 40.3711C103.789 40.6706 104.04 41.0755 104.137 41.5859ZM108.088 46.1172C107.486 46.1172 106.967 45.9922 106.529 45.7422C106.094 45.4896 105.76 45.1328 105.525 44.6719C105.291 44.2083 105.174 43.6628 105.174 43.0352C105.174 42.418 105.291 41.8763 105.525 41.4102C105.762 40.9414 106.093 40.5768 106.518 40.3164C106.942 40.0534 107.441 39.9219 108.014 39.9219C108.383 39.9219 108.732 39.9818 109.061 40.1016C109.391 40.2187 109.683 40.401 109.936 40.6484C110.191 40.8958 110.391 41.2109 110.537 41.5937C110.683 41.974 110.756 42.4271 110.756 42.9531V43.3867H105.838V42.4336H109.4C109.398 42.1628 109.339 41.9219 109.225 41.7109C109.11 41.4974 108.95 41.3294 108.744 41.207C108.541 41.0846 108.304 41.0234 108.033 41.0234C107.744 41.0234 107.49 41.0937 107.271 41.2344C107.053 41.3724 106.882 41.5547 106.76 41.7812C106.64 42.0052 106.579 42.2513 106.576 42.5195V43.3516C106.576 43.7005 106.64 44 106.768 44.25C106.895 44.4974 107.074 44.6875 107.303 44.8203C107.532 44.9505 107.8 45.0156 108.107 45.0156C108.313 45.0156 108.499 44.987 108.666 44.9297C108.833 44.8698 108.977 44.7826 109.1 44.668C109.222 44.5534 109.314 44.4115 109.377 44.2422L110.697 44.3906C110.614 44.7396 110.455 45.0443 110.221 45.3047C109.989 45.5625 109.692 45.763 109.33 45.9062C108.968 46.0469 108.554 46.1172 108.088 46.1172ZM113.366 42.4844V46H111.952V40H113.304V41.0195H113.374C113.512 40.6836 113.732 40.4167 114.034 40.2187C114.339 40.0208 114.715 39.9219 115.163 39.9219C115.577 39.9219 115.938 40.0104 116.245 40.1875C116.555 40.3646 116.795 40.6211 116.964 40.957C117.136 41.293 117.22 41.7005 117.218 42.1797V46H115.804V42.3984C115.804 41.9974 115.7 41.6836 115.491 41.457C115.285 41.2305 115 41.1172 114.636 41.1172C114.388 41.1172 114.168 41.1719 113.976 41.2812C113.785 41.388 113.636 41.543 113.526 41.7461C113.42 41.9492 113.366 42.1953 113.366 42.4844ZM121.384 48.25V40H122.774V40.9922H122.856C122.929 40.8464 123.032 40.6914 123.165 40.5273C123.298 40.3607 123.478 40.2187 123.704 40.1016C123.931 39.9818 124.22 39.9219 124.571 39.9219C125.035 39.9219 125.453 40.0404 125.825 40.2773C126.2 40.5117 126.497 40.8594 126.716 41.3203C126.937 41.7786 127.048 42.3411 127.048 43.0078C127.048 43.6667 126.94 44.2266 126.724 44.6875C126.507 45.1484 126.213 45.5 125.841 45.7422C125.468 45.9844 125.047 46.1055 124.575 46.1055C124.231 46.1055 123.946 46.0482 123.72 45.9336C123.493 45.819 123.311 45.681 123.173 45.5195C123.037 45.3555 122.932 45.2005 122.856 45.0547H122.798V48.25H121.384ZM122.771 43C122.771 43.388 122.825 43.7279 122.935 44.0195C123.047 44.3112 123.207 44.5391 123.415 44.7031C123.626 44.8646 123.881 44.9453 124.181 44.9453C124.493 44.9453 124.755 44.862 124.966 44.6953C125.177 44.526 125.336 44.2956 125.442 44.0039C125.552 43.7096 125.606 43.375 125.606 43C125.606 42.6276 125.553 42.2969 125.446 42.0078C125.34 41.7187 125.181 41.4922 124.97 41.3281C124.759 41.1641 124.496 41.082 124.181 41.082C123.879 41.082 123.622 41.1615 123.411 41.3203C123.2 41.4792 123.04 41.7018 122.931 41.9883C122.824 42.2747 122.771 42.612 122.771 43ZM128.259 46V40H129.63V41H129.692C129.802 40.6536 129.989 40.3867 130.255 40.1992C130.523 40.0091 130.829 39.9141 131.173 39.9141C131.251 39.9141 131.338 39.918 131.435 39.9258C131.534 39.931 131.616 39.9401 131.681 39.9531V41.2539C131.621 41.2331 131.526 41.2148 131.396 41.1992C131.268 41.181 131.144 41.1719 131.024 41.1719C130.767 41.1719 130.535 41.2279 130.329 41.3398C130.126 41.4492 129.966 41.6016 129.849 41.7969C129.731 41.9922 129.673 42.2174 129.673 42.4727V46H128.259ZM132.62 46V40H134.034V46H132.62ZM133.331 39.1484C133.107 39.1484 132.914 39.0742 132.753 38.9258C132.591 38.7747 132.511 38.5937 132.511 38.3828C132.511 38.1693 132.591 37.9883 132.753 37.8398C132.914 37.6888 133.107 37.6133 133.331 37.6133C133.558 37.6133 133.75 37.6888 133.909 37.8398C134.071 37.9883 134.151 38.1693 134.151 38.3828C134.151 38.5937 134.071 38.7747 133.909 38.9258C133.75 39.0742 133.558 39.1484 133.331 39.1484ZM138.105 46.1172C137.507 46.1172 136.992 45.9857 136.563 45.7227C136.135 45.4596 135.806 45.0964 135.574 44.6328C135.345 44.1667 135.23 43.6302 135.23 43.0234C135.23 42.4141 135.348 41.8763 135.582 41.4102C135.816 40.9414 136.147 40.5768 136.574 40.3164C137.004 40.0534 137.512 39.9219 138.098 39.9219C138.585 39.9219 139.016 40.0117 139.391 40.1914C139.768 40.3685 140.069 40.6198 140.293 40.9453C140.517 41.2682 140.645 41.6458 140.676 42.0781H139.324C139.27 41.7891 139.139 41.5482 138.934 41.3555C138.73 41.1602 138.458 41.0625 138.117 41.0625C137.828 41.0625 137.574 41.1406 137.355 41.2969C137.137 41.4505 136.966 41.6719 136.844 41.9609C136.724 42.25 136.664 42.5964 136.664 43C136.664 43.4089 136.724 43.7604 136.844 44.0547C136.964 44.3464 137.132 44.5716 137.348 44.7305C137.566 44.8867 137.823 44.9648 138.117 44.9648C138.326 44.9648 138.512 44.9258 138.676 44.8477C138.842 44.7669 138.982 44.651 139.094 44.5C139.206 44.349 139.283 44.1654 139.324 43.9492H140.676C140.642 44.3737 140.517 44.75 140.301 45.0781C140.085 45.4036 139.79 45.6589 139.418 45.8437C139.046 46.026 138.608 46.1172 138.105 46.1172ZM144.493 46.1172C143.892 46.1172 143.372 45.9922 142.935 45.7422C142.5 45.4896 142.165 45.1328 141.931 44.6719C141.696 44.2083 141.579 43.6628 141.579 43.0352C141.579 42.418 141.696 41.8763 141.931 41.4102C142.168 40.9414 142.498 40.5768 142.923 40.3164C143.347 40.0534 143.846 39.9219 144.419 39.9219C144.789 39.9219 145.138 39.9818 145.466 40.1016C145.797 40.2187 146.088 40.401 146.341 40.6484C146.596 40.8958 146.797 41.2109 146.942 41.5937C147.088 41.974 147.161 42.4271 147.161 42.9531V43.3867H142.243V42.4336H145.806C145.803 42.1628 145.744 41.9219 145.63 41.7109C145.515 41.4974 145.355 41.3294 145.149 41.207C144.946 41.0846 144.709 41.0234 144.438 41.0234C144.149 41.0234 143.896 41.0937 143.677 41.2344C143.458 41.3724 143.287 41.5547 143.165 41.7812C143.045 42.0052 142.984 42.2513 142.981 42.5195V43.3516C142.981 43.7005 143.045 44 143.173 44.25C143.3 44.4974 143.479 44.6875 143.708 44.8203C143.937 44.9505 144.205 45.0156 144.513 45.0156C144.718 45.0156 144.905 44.987 145.071 44.9297C145.238 44.8698 145.382 44.7826 145.505 44.668C145.627 44.5534 145.72 44.4115 145.782 44.2422L147.103 44.3906C147.019 44.7396 146.86 45.0443 146.626 45.3047C146.394 45.5625 146.097 45.763 145.735 45.9062C145.373 46.0469 144.959 46.1172 144.493 46.1172Z" fill="#596F78"/>
<path d="M28.435 11.2457V9.88388L32.4467 3.54545H33.5824V5.48438H32.8899L30.1893 9.76385V9.83771H35.7891V11.2457H28.435ZM32.9453 13V10.8303L32.9638 10.2209V3.54545H34.5795V13H32.9453ZM40.7587 13.18C39.9985 13.18 39.3461 12.9877 38.8013 12.603C38.2596 12.2152 37.8426 11.6566 37.5502 10.9272C37.2609 10.1947 37.1163 9.31297 37.1163 8.28196C37.1194 7.25095 37.2656 6.37382 37.5549 5.65057C37.8472 4.92424 38.2643 4.37026 38.8059 3.98864C39.3507 3.60701 40.0016 3.41619 40.7587 3.41619C41.5158 3.41619 42.1667 3.60701 42.7115 3.98864C43.2562 4.37026 43.6732 4.92424 43.9625 5.65057C44.2549 6.37689 44.4011 7.25402 44.4011 8.28196C44.4011 9.31605 44.2549 10.1993 43.9625 10.9318C43.6732 11.6612 43.2562 12.2183 42.7115 12.603C42.1698 12.9877 41.5189 13.18 40.7587 13.18ZM40.7587 11.7351C41.3496 11.7351 41.8159 11.4442 42.1575 10.8626C42.5022 10.2778 42.6745 9.41761 42.6745 8.28196C42.6745 7.53101 42.5961 6.90009 42.4391 6.3892C42.2821 5.87831 42.0605 5.49361 41.7743 5.23509C41.4881 4.97348 41.1496 4.84268 40.7587 4.84268C40.1709 4.84268 39.7061 5.13506 39.3645 5.71981C39.0229 6.30149 38.8506 7.15554 38.8475 8.28196C38.8444 9.03598 38.9198 9.66998 39.0737 10.1839C39.2306 10.6979 39.4522 11.0857 39.7385 11.3473C40.0247 11.6058 40.3648 11.7351 40.7587 11.7351ZM50.99 11.2273V10.7287C50.99 10.3625 51.0669 10.0254 51.2208 9.71768C51.3778 9.40992 51.6055 9.16217 51.904 8.97443C52.2026 8.78669 52.5642 8.69283 52.9889 8.69283C53.4259 8.69283 53.7922 8.78669 54.0876 8.97443C54.3831 9.15909 54.6062 9.4053 54.757 9.71307C54.9109 10.0208 54.9878 10.3594 54.9878 10.7287V11.2273C54.9878 11.5935 54.9109 11.9305 54.757 12.2383C54.6031 12.546 54.3769 12.7938 54.0784 12.9815C53.7829 13.1693 53.4198 13.2631 52.9889 13.2631C52.558 13.2631 52.1933 13.1693 51.8948 12.9815C51.5963 12.7938 51.3701 12.546 51.2162 12.2383C51.0654 11.9305 50.99 11.5935 50.99 11.2273ZM52.1949 10.7287V11.2273C52.1949 11.4704 52.2533 11.6935 52.3703 11.8967C52.4872 12.0998 52.6934 12.2013 52.9889 12.2013C53.2874 12.2013 53.4921 12.1013 53.6029 11.9013C53.7168 11.6982 53.7737 11.4735 53.7737 11.2273V10.7287C53.7737 10.4825 53.7198 10.2578 53.6121 10.0547C53.5044 9.84848 53.2967 9.74538 52.9889 9.74538C52.6996 9.74538 52.4949 9.84848 52.3749 10.0547C52.2549 10.2578 52.1949 10.4825 52.1949 10.7287ZM46.1842 5.81676V5.31818C46.1842 4.94886 46.2627 4.61032 46.4197 4.30256C46.5766 3.99479 46.8044 3.74858 47.1029 3.56392C47.4014 3.37618 47.7631 3.28231 48.1878 3.28231C48.6217 3.28231 48.9864 3.37618 49.2819 3.56392C49.5804 3.74858 49.8051 3.99479 49.9559 4.30256C50.1067 4.61032 50.1821 4.94886 50.1821 5.31818V5.81676C50.1821 6.18608 50.1051 6.52462 49.9513 6.83239C49.8005 7.13707 49.5758 7.38175 49.2773 7.56641C48.9787 7.75107 48.6156 7.84339 48.1878 7.84339C47.7538 7.84339 47.3876 7.75107 47.089 7.56641C46.7936 7.38175 46.5689 7.13553 46.415 6.82777C46.2612 6.52 46.1842 6.183 46.1842 5.81676ZM47.3983 5.31818V5.81676C47.3983 6.06297 47.4553 6.28764 47.5692 6.49077C47.6861 6.69081 47.8923 6.79084 48.1878 6.79084C48.4832 6.79084 48.6863 6.69081 48.7971 6.49077C48.911 6.28764 48.968 6.06297 48.968 5.81676V5.31818C48.968 5.07197 48.9141 4.8473 48.8064 4.64418C48.6987 4.43797 48.4925 4.33487 48.1878 4.33487C47.8954 4.33487 47.6907 4.43797 47.5738 4.64418C47.4568 4.85038 47.3983 5.07505 47.3983 5.31818ZM46.7105 13L53.2105 3.54545H54.3646L47.8646 13H46.7105Z" fill="#17344F"/>
<path d="M197.893 57.1293C197.277 57.1293 196.726 57.0138 196.24 56.783C195.754 56.5491 195.368 56.229 195.081 55.8228C194.798 55.4165 194.647 54.9518 194.629 54.4286H196.291C196.322 54.8164 196.489 55.1334 196.794 55.3796C197.099 55.6228 197.465 55.7443 197.893 55.7443C198.228 55.7443 198.527 55.6674 198.788 55.5135C199.05 55.3596 199.256 55.1457 199.407 54.8718C199.558 54.5979 199.632 54.2855 199.629 53.9347C199.632 53.5777 199.556 53.2607 199.402 52.9837C199.248 52.7067 199.038 52.4897 198.77 52.3327C198.502 52.1727 198.194 52.0927 197.847 52.0927C197.563 52.0896 197.285 52.1419 197.011 52.2496C196.737 52.3574 196.52 52.4989 196.36 52.6744L194.814 52.4205L195.308 47.5455H200.792V48.9766H196.725L196.452 51.4833H196.508C196.683 51.2771 196.931 51.1063 197.251 50.9709C197.571 50.8324 197.922 50.7631 198.304 50.7631C198.876 50.7631 199.387 50.8986 199.836 51.1694C200.286 51.4371 200.64 51.8065 200.898 52.2773C201.157 52.7482 201.286 53.2868 201.286 53.8931C201.286 54.5179 201.141 55.0749 200.852 55.5643C200.566 56.0505 200.167 56.4337 199.656 56.7138C199.148 56.9908 198.561 57.1293 197.893 57.1293ZM206.327 57.18C205.567 57.18 204.914 56.9877 204.37 56.603C203.828 56.2152 203.411 55.6566 203.119 54.9272C202.829 54.1947 202.685 53.313 202.685 52.282C202.688 51.2509 202.834 50.3738 203.123 49.6506C203.416 48.9242 203.833 48.3703 204.374 47.9886C204.919 47.607 205.57 47.4162 206.327 47.4162C207.084 47.4162 207.735 47.607 208.28 47.9886C208.825 48.3703 209.242 48.9242 209.531 49.6506C209.823 50.3769 209.969 51.254 209.969 52.282C209.969 53.3161 209.823 54.1993 209.531 54.9318C209.242 55.6612 208.825 56.2183 208.28 56.603C207.738 56.9877 207.087 57.18 206.327 57.18ZM206.327 55.7351C206.918 55.7351 207.384 55.4442 207.726 54.8626C208.071 54.2778 208.243 53.4176 208.243 52.282C208.243 51.531 208.164 50.9001 208.007 50.3892C207.85 49.8783 207.629 49.4936 207.343 49.2351C207.056 48.9735 206.718 48.8427 206.327 48.8427C205.739 48.8427 205.275 49.1351 204.933 49.7198C204.591 50.3015 204.419 51.1555 204.416 52.282C204.413 53.036 204.488 53.67 204.642 54.1839C204.799 54.6979 205.021 55.0857 205.307 55.3473C205.593 55.6058 205.933 55.7351 206.327 55.7351ZM216.558 55.2273V54.7287C216.558 54.3625 216.635 54.0254 216.789 53.7177C216.946 53.4099 217.174 53.1622 217.472 52.9744C217.771 52.7867 218.133 52.6928 218.557 52.6928C218.994 52.6928 219.361 52.7867 219.656 52.9744C219.951 53.1591 220.175 53.4053 220.325 53.7131C220.479 54.0208 220.556 54.3594 220.556 54.7287V55.2273C220.556 55.5935 220.479 55.9305 220.325 56.2383C220.171 56.546 219.945 56.7938 219.647 56.9815C219.351 57.1693 218.988 57.2631 218.557 57.2631C218.126 57.2631 217.762 57.1693 217.463 56.9815C217.165 56.7938 216.938 56.546 216.785 56.2383C216.634 55.9305 216.558 55.5935 216.558 55.2273ZM217.763 54.7287V55.2273C217.763 55.4704 217.822 55.6935 217.939 55.8967C218.056 56.0998 218.262 56.2013 218.557 56.2013C218.856 56.2013 219.06 56.1013 219.171 55.9013C219.285 55.6982 219.342 55.4735 219.342 55.2273V54.7287C219.342 54.4825 219.288 54.2578 219.18 54.0547C219.073 53.8485 218.865 53.7454 218.557 53.7454C218.268 53.7454 218.063 53.8485 217.943 54.0547C217.823 54.2578 217.763 54.4825 217.763 54.7287ZM211.753 49.8168V49.3182C211.753 48.9489 211.831 48.6103 211.988 48.3026C212.145 47.9948 212.373 47.7486 212.671 47.5639C212.97 47.3762 213.331 47.2823 213.756 47.2823C214.19 47.2823 214.555 47.3762 214.85 47.5639C215.149 47.7486 215.373 47.9948 215.524 48.3026C215.675 48.6103 215.75 48.9489 215.75 49.3182V49.8168C215.75 50.1861 215.674 50.5246 215.52 50.8324C215.369 51.1371 215.144 51.3817 214.846 51.5664C214.547 51.7511 214.184 51.8434 213.756 51.8434C213.322 51.8434 212.956 51.7511 212.657 51.5664C212.362 51.3817 212.137 51.1355 211.983 50.8278C211.83 50.52 211.753 50.183 211.753 49.8168ZM212.967 49.3182V49.8168C212.967 50.063 213.024 50.2876 213.138 50.4908C213.254 50.6908 213.461 50.7908 213.756 50.7908C214.052 50.7908 214.255 50.6908 214.366 50.4908C214.479 50.2876 214.536 50.063 214.536 49.8168V49.3182C214.536 49.072 214.482 48.8473 214.375 48.6442C214.267 48.438 214.061 48.3349 213.756 48.3349C213.464 48.3349 213.259 48.438 213.142 48.6442C213.025 48.8504 212.967 49.075 212.967 49.3182ZM212.279 57L218.779 47.5455H219.933L213.433 57H212.279Z" fill="#17344F"/>
<path d="M206.299 148.129C205.683 148.129 205.133 148.014 204.646 147.783C204.16 147.549 203.774 147.229 203.488 146.823C203.204 146.417 203.054 145.952 203.035 145.429H204.697C204.728 145.816 204.896 146.133 205.2 146.38C205.505 146.623 205.871 146.744 206.299 146.744C206.634 146.744 206.933 146.667 207.195 146.513C207.456 146.36 207.662 146.146 207.813 145.872C207.964 145.598 208.038 145.286 208.035 144.935C208.038 144.578 207.962 144.261 207.809 143.984C207.655 143.707 207.444 143.49 207.176 143.333C206.908 143.173 206.601 143.093 206.253 143.093C205.97 143.09 205.691 143.142 205.417 143.25C205.143 143.357 204.926 143.499 204.766 143.674L203.22 143.42L203.714 138.545H209.198V139.977H205.131L204.859 142.483H204.914C205.089 142.277 205.337 142.106 205.657 141.971C205.977 141.832 206.328 141.763 206.71 141.763C207.282 141.763 207.793 141.899 208.243 142.169C208.692 142.437 209.046 142.806 209.304 143.277C209.563 143.748 209.692 144.287 209.692 144.893C209.692 145.518 209.547 146.075 209.258 146.564C208.972 147.051 208.573 147.434 208.062 147.714C207.555 147.991 206.967 148.129 206.299 148.129ZM214.526 148.129C213.91 148.129 213.359 148.014 212.873 147.783C212.387 147.549 212 147.229 211.714 146.823C211.431 146.417 211.28 145.952 211.262 145.429H212.924C212.954 145.816 213.122 146.133 213.427 146.38C213.732 146.623 214.098 146.744 214.526 146.744C214.861 146.744 215.16 146.667 215.421 146.513C215.683 146.36 215.889 146.146 216.04 145.872C216.191 145.598 216.264 145.286 216.261 144.935C216.264 144.578 216.189 144.261 216.035 143.984C215.881 143.707 215.67 143.49 215.403 143.333C215.135 143.173 214.827 143.093 214.479 143.093C214.196 143.09 213.918 143.142 213.644 143.25C213.37 143.357 213.153 143.499 212.993 143.674L211.446 143.42L211.94 138.545H217.425V139.977H213.358L213.085 142.483H213.141C213.316 142.277 213.564 142.106 213.884 141.971C214.204 141.832 214.555 141.763 214.936 141.763C215.509 141.763 216.02 141.899 216.469 142.169C216.918 142.437 217.272 142.806 217.531 143.277C217.789 143.748 217.919 144.287 217.919 144.893C217.919 145.518 217.774 146.075 217.485 146.564C217.199 147.051 216.8 147.434 216.289 147.714C215.781 147.991 215.193 148.129 214.526 148.129ZM224.52 146.227V145.729C224.52 145.362 224.597 145.025 224.751 144.718C224.908 144.41 225.136 144.162 225.434 143.974C225.733 143.787 226.094 143.693 226.519 143.693C226.956 143.693 227.322 143.787 227.618 143.974C227.913 144.159 228.136 144.405 228.287 144.713C228.441 145.021 228.518 145.359 228.518 145.729V146.227C228.518 146.594 228.441 146.931 228.287 147.238C228.133 147.546 227.907 147.794 227.609 147.982C227.313 148.169 226.95 148.263 226.519 148.263C226.088 148.263 225.724 148.169 225.425 147.982C225.127 147.794 224.9 147.546 224.746 147.238C224.596 146.931 224.52 146.594 224.52 146.227ZM225.725 145.729V146.227C225.725 146.47 225.784 146.694 225.901 146.897C226.018 147.1 226.224 147.201 226.519 147.201C226.818 147.201 227.022 147.101 227.133 146.901C227.247 146.698 227.304 146.473 227.304 146.227V145.729C227.304 145.482 227.25 145.258 227.142 145.055C227.035 144.848 226.827 144.745 226.519 144.745C226.23 144.745 226.025 144.848 225.905 145.055C225.785 145.258 225.725 145.482 225.725 145.729ZM219.714 140.817V140.318C219.714 139.949 219.793 139.61 219.95 139.303C220.107 138.995 220.335 138.749 220.633 138.564C220.932 138.376 221.293 138.282 221.718 138.282C222.152 138.282 222.517 138.376 222.812 138.564C223.111 138.749 223.335 138.995 223.486 139.303C223.637 139.61 223.712 139.949 223.712 140.318V140.817C223.712 141.186 223.635 141.525 223.482 141.832C223.331 142.137 223.106 142.382 222.808 142.566C222.509 142.751 222.146 142.843 221.718 142.843C221.284 142.843 220.918 142.751 220.619 142.566C220.324 142.382 220.099 142.136 219.945 141.828C219.791 141.52 219.714 141.183 219.714 140.817ZM220.929 140.318V140.817C220.929 141.063 220.986 141.288 221.099 141.491C221.216 141.691 221.423 141.791 221.718 141.791C222.013 141.791 222.217 141.691 222.327 141.491C222.441 141.288 222.498 141.063 222.498 140.817V140.318C222.498 140.072 222.444 139.847 222.337 139.644C222.229 139.438 222.023 139.335 221.718 139.335C221.426 139.335 221.221 139.438 221.104 139.644C220.987 139.85 220.929 140.075 220.929 140.318ZM220.241 148L226.741 138.545H227.895L221.395 148H220.241Z" fill="#575CFE"/>
<path d="M4.875 193.109C4.49219 193.107 4.11849 193.04 3.75391 192.91C3.38932 192.777 3.0612 192.562 2.76953 192.266C2.47786 191.966 2.24609 191.569 2.07422 191.074C1.90234 190.577 1.81771 189.961 1.82031 189.227C1.82031 188.542 1.89323 187.931 2.03906 187.395C2.1849 186.858 2.39453 186.405 2.66797 186.035C2.94141 185.663 3.27083 185.379 3.65625 185.184C4.04427 184.988 4.47786 184.891 4.95703 184.891C5.45964 184.891 5.90495 184.99 6.29297 185.187C6.68359 185.385 6.9987 185.656 7.23828 186C7.47786 186.341 7.6263 186.727 7.68359 187.156H6.25781C6.1849 186.849 6.03516 186.604 5.80859 186.422C5.58464 186.237 5.30078 186.145 4.95703 186.145C4.40234 186.145 3.97526 186.385 3.67578 186.867C3.37891 187.349 3.22917 188.01 3.22656 188.852H3.28125C3.40885 188.622 3.57422 188.426 3.77734 188.262C3.98047 188.098 4.20964 187.971 4.46484 187.883C4.72266 187.792 4.99479 187.746 5.28125 187.746C5.75 187.746 6.17057 187.858 6.54297 188.082C6.91797 188.306 7.21484 188.615 7.43359 189.008C7.65234 189.398 7.76042 189.846 7.75781 190.352C7.76042 190.878 7.64062 191.35 7.39844 191.77C7.15625 192.186 6.81901 192.514 6.38672 192.754C5.95443 192.993 5.45052 193.112 4.875 193.109ZM4.86719 191.937C5.15104 191.937 5.40495 191.868 5.62891 191.73C5.85286 191.592 6.02995 191.406 6.16016 191.172C6.29036 190.937 6.35417 190.674 6.35156 190.383C6.35417 190.096 6.29167 189.837 6.16406 189.605C6.03906 189.374 5.86589 189.19 5.64453 189.055C5.42318 188.919 5.17057 188.852 4.88672 188.852C4.67578 188.852 4.47917 188.892 4.29688 188.973C4.11458 189.053 3.95573 189.165 3.82031 189.309C3.6849 189.449 3.57813 189.613 3.5 189.801C3.42448 189.986 3.38542 190.184 3.38281 190.395C3.38542 190.673 3.45052 190.93 3.57813 191.164C3.70573 191.398 3.88151 191.586 4.10547 191.727C4.32943 191.867 4.58333 191.937 4.86719 191.937ZM12.0352 193.152C11.3919 193.152 10.8398 192.99 10.3789 192.664C9.92057 192.336 9.56771 191.863 9.32031 191.246C9.07552 190.626 8.95313 189.88 8.95313 189.008C8.95573 188.135 9.07943 187.393 9.32422 186.781C9.57161 186.167 9.92448 185.698 10.3828 185.375C10.8438 185.052 11.3945 184.891 12.0352 184.891C12.6758 184.891 13.2266 185.052 13.6875 185.375C14.1484 185.698 14.5013 186.167 14.7461 186.781C14.9935 187.396 15.1172 188.138 15.1172 189.008C15.1172 189.883 14.9935 190.63 14.7461 191.25C14.5013 191.867 14.1484 192.339 13.6875 192.664C13.2292 192.99 12.6784 193.152 12.0352 193.152ZM12.0352 191.93C12.5352 191.93 12.9297 191.684 13.2188 191.191C13.5104 190.697 13.6563 189.969 13.6563 189.008C13.6563 188.372 13.5898 187.839 13.457 187.406C13.3242 186.974 13.1367 186.648 12.8945 186.43C12.6523 186.208 12.3659 186.098 12.0352 186.098C11.5378 186.098 11.1445 186.345 10.8555 186.84C10.5664 187.332 10.4206 188.055 10.418 189.008C10.4154 189.646 10.4792 190.182 10.6094 190.617C10.7422 191.052 10.9297 191.38 11.1719 191.602C11.4141 191.82 11.7018 191.93 12.0352 191.93ZM20.6924 191.5V191.078C20.6924 190.768 20.7575 190.483 20.8877 190.223C21.0205 189.962 21.2132 189.753 21.4658 189.594C21.7184 189.435 22.0244 189.355 22.3838 189.355C22.7536 189.355 23.0635 189.435 23.3135 189.594C23.5635 189.75 23.7523 189.958 23.8799 190.219C24.0101 190.479 24.0752 190.766 24.0752 191.078V191.5C24.0752 191.81 24.0101 192.095 23.8799 192.355C23.7497 192.616 23.5583 192.826 23.3057 192.984C23.0557 193.143 22.7484 193.223 22.3838 193.223C22.0192 193.223 21.7106 193.143 21.458 192.984C21.2054 192.826 21.014 192.616 20.8838 192.355C20.7562 192.095 20.6924 191.81 20.6924 191.5ZM21.7119 191.078V191.5C21.7119 191.706 21.7614 191.895 21.8604 192.066C21.9593 192.238 22.1338 192.324 22.3838 192.324C22.6364 192.324 22.8096 192.24 22.9033 192.07C22.9997 191.898 23.0479 191.708 23.0479 191.5V191.078C23.0479 190.87 23.0023 190.68 22.9111 190.508C22.82 190.333 22.6442 190.246 22.3838 190.246C22.139 190.246 21.9658 190.333 21.8643 190.508C21.7627 190.68 21.7119 190.87 21.7119 191.078ZM16.626 186.922V186.5C16.626 186.187 16.6924 185.901 16.8252 185.641C16.958 185.38 17.1507 185.172 17.4033 185.016C17.6559 184.857 17.9619 184.777 18.3213 184.777C18.6885 184.777 18.9971 184.857 19.2471 185.016C19.4997 185.172 19.6898 185.38 19.8174 185.641C19.945 185.901 20.0088 186.187 20.0088 186.5V186.922C20.0088 187.234 19.9437 187.521 19.8135 187.781C19.6859 188.039 19.4958 188.246 19.2432 188.402C18.9906 188.559 18.6833 188.637 18.3213 188.637C17.9541 188.637 17.6442 188.559 17.3916 188.402C17.1416 188.246 16.9515 188.038 16.8213 187.777C16.6911 187.517 16.626 187.232 16.626 186.922ZM17.6533 186.5V186.922C17.6533 187.13 17.7015 187.32 17.7979 187.492C17.8968 187.661 18.0713 187.746 18.3213 187.746C18.5713 187.746 18.7432 187.661 18.8369 187.492C18.9333 187.32 18.9814 187.13 18.9814 186.922V186.5C18.9814 186.292 18.9359 186.102 18.8447 185.93C18.7536 185.755 18.5791 185.668 18.3213 185.668C18.0739 185.668 17.9007 185.755 17.8018 185.93C17.7028 186.104 17.6533 186.294 17.6533 186.5ZM17.0713 193L22.5713 185H23.5479L18.0479 193H17.0713Z" fill="#D8762D"/>
<path d="M6.32031 247.109C5.73958 247.109 5.22396 247.012 4.77344 246.816C4.32552 246.621 3.97396 246.354 3.71875 246.016C3.46615 245.674 3.34115 245.288 3.34375 244.855C3.34115 244.52 3.41406 244.211 3.5625 243.93C3.71094 243.648 3.91146 243.414 4.16406 243.227C4.41927 243.036 4.70313 242.915 5.01563 242.863V242.809C4.60417 242.717 4.27083 242.508 4.01563 242.18C3.76302 241.849 3.63802 241.467 3.64062 241.035C3.63802 240.624 3.7526 240.257 3.98438 239.934C4.21615 239.611 4.53385 239.357 4.9375 239.172C5.34115 238.984 5.80208 238.891 6.32031 238.891C6.83333 238.891 7.29036 238.984 7.69141 239.172C8.09505 239.357 8.41276 239.611 8.64453 239.934C8.87891 240.257 8.99609 240.624 8.99609 241.035C8.99609 241.467 8.86719 241.849 8.60938 242.18C8.35417 242.508 8.02474 242.717 7.62109 242.809V242.863C7.93359 242.915 8.21484 243.036 8.46484 243.227C8.71745 243.414 8.91797 243.648 9.06641 243.93C9.21745 244.211 9.29297 244.52 9.29297 244.855C9.29297 245.288 9.16536 245.674 8.91016 246.016C8.65495 246.354 8.30339 246.621 7.85547 246.816C7.41016 247.012 6.89844 247.109 6.32031 247.109ZM6.32031 245.992C6.61979 245.992 6.88021 245.941 7.10156 245.84C7.32292 245.736 7.49479 245.59 7.61719 245.402C7.73958 245.215 7.80208 244.999 7.80469 244.754C7.80208 244.499 7.73568 244.273 7.60547 244.078C7.47786 243.88 7.30208 243.725 7.07813 243.613C6.85677 243.501 6.60417 243.445 6.32031 243.445C6.03385 243.445 5.77865 243.501 5.55469 243.613C5.33073 243.725 5.15365 243.88 5.02344 244.078C4.89583 244.273 4.83333 244.499 4.83594 244.754C4.83333 244.999 4.89323 245.215 5.01563 245.402C5.13802 245.587 5.3099 245.732 5.53125 245.836C5.75521 245.94 6.01823 245.992 6.32031 245.992ZM6.32031 242.348C6.5651 242.348 6.78125 242.298 6.96875 242.199C7.15885 242.1 7.30859 241.962 7.41797 241.785C7.52734 241.608 7.58333 241.404 7.58594 241.172C7.58333 240.943 7.52865 240.742 7.42188 240.57C7.3151 240.396 7.16667 240.262 6.97656 240.168C6.78646 240.072 6.56771 240.023 6.32031 240.023C6.06771 240.023 5.84505 240.072 5.65234 240.168C5.46224 240.262 5.3138 240.396 5.20703 240.57C5.10286 240.742 5.05208 240.943 5.05469 241.172C5.05208 241.404 5.10417 241.608 5.21094 241.785C5.32031 241.96 5.47005 242.098 5.66016 242.199C5.85286 242.298 6.07292 242.348 6.32031 242.348ZM13.5342 247.152C12.891 247.152 12.3389 246.99 11.8779 246.664C11.4196 246.336 11.0667 245.863 10.8193 245.246C10.5745 244.626 10.4521 243.88 10.4521 243.008C10.4548 242.135 10.5785 241.393 10.8232 240.781C11.0706 240.167 11.4235 239.698 11.8818 239.375C12.3428 239.052 12.8936 238.891 13.5342 238.891C14.1748 238.891 14.7256 239.052 15.1865 239.375C15.6475 239.698 16.0003 240.167 16.2451 240.781C16.4925 241.396 16.6162 242.138 16.6162 243.008C16.6162 243.883 16.4925 244.63 16.2451 245.25C16.0003 245.867 15.6475 246.339 15.1865 246.664C14.7282 246.99 14.1774 247.152 13.5342 247.152ZM13.5342 245.93C14.0342 245.93 14.4287 245.684 14.7178 245.191C15.0094 244.697 15.1553 243.969 15.1553 243.008C15.1553 242.372 15.0889 241.839 14.9561 241.406C14.8232 240.974 14.6357 240.648 14.3936 240.43C14.1514 240.208 13.8649 240.098 13.5342 240.098C13.0368 240.098 12.6436 240.345 12.3545 240.84C12.0654 241.332 11.9196 242.055 11.917 243.008C11.9144 243.646 11.9782 244.182 12.1084 244.617C12.2412 245.052 12.4287 245.38 12.6709 245.602C12.9131 245.82 13.2008 245.93 13.5342 245.93ZM22.1914 245.5V245.078C22.1914 244.768 22.2565 244.483 22.3867 244.223C22.5195 243.962 22.7122 243.753 22.9648 243.594C23.2174 243.435 23.5234 243.355 23.8828 243.355C24.2526 243.355 24.5625 243.435 24.8125 243.594C25.0625 243.75 25.2513 243.958 25.3789 244.219C25.5091 244.479 25.5742 244.766 25.5742 245.078V245.5C25.5742 245.81 25.5091 246.095 25.3789 246.355C25.2487 246.616 25.0573 246.826 24.8047 246.984C24.5547 247.143 24.2474 247.223 23.8828 247.223C23.5182 247.223 23.2096 247.143 22.957 246.984C22.7044 246.826 22.513 246.616 22.3828 246.355C22.2552 246.095 22.1914 245.81 22.1914 245.5ZM23.2109 245.078V245.5C23.2109 245.706 23.2604 245.895 23.3594 246.066C23.4583 246.238 23.6328 246.324 23.8828 246.324C24.1354 246.324 24.3086 246.24 24.4023 246.07C24.4987 245.898 24.5469 245.708 24.5469 245.5V245.078C24.5469 244.87 24.5013 244.68 24.4102 244.508C24.319 244.333 24.1432 244.246 23.8828 244.246C23.638 244.246 23.4648 244.333 23.3633 244.508C23.2617 244.68 23.2109 244.87 23.2109 245.078ZM18.125 240.922V240.5C18.125 240.187 18.1914 239.901 18.3242 239.641C18.457 239.38 18.6497 239.172 18.9023 239.016C19.1549 238.857 19.4609 238.777 19.8203 238.777C20.1875 238.777 20.4961 238.857 20.7461 239.016C20.9987 239.172 21.1888 239.38 21.3164 239.641C21.444 239.901 21.5078 240.187 21.5078 240.5V240.922C21.5078 241.234 21.4427 241.521 21.3125 241.781C21.1849 242.039 20.9948 242.246 20.7422 242.402C20.4896 242.559 20.1823 242.637 19.8203 242.637C19.4531 242.637 19.1432 242.559 18.8906 242.402C18.6406 242.246 18.4505 242.038 18.3203 241.777C18.1901 241.517 18.125 241.232 18.125 240.922ZM19.1523 240.5V240.922C19.1523 241.13 19.2005 241.32 19.2969 241.492C19.3958 241.661 19.5703 241.746 19.8203 241.746C20.0703 241.746 20.2422 241.661 20.3359 241.492C20.4323 241.32 20.4805 241.13 20.4805 240.922V240.5C20.4805 240.292 20.4349 240.102 20.3438 239.93C20.2526 239.755 20.0781 239.668 19.8203 239.668C19.5729 239.668 19.3997 239.755 19.3008 239.93C19.2018 240.104 19.1523 240.294 19.1523 240.5ZM18.5703 247L24.0703 239H25.0469L19.5469 247H18.5703Z" fill="#D94A1E"/>
<path d="M209.66 157V165H208.371L204.602 159.551H204.535V165H203.086V157H204.383L208.148 162.453H208.219V157H209.66ZM213.833 165.117C213.231 165.117 212.712 164.992 212.274 164.742C211.84 164.49 211.505 164.133 211.271 163.672C211.036 163.208 210.919 162.663 210.919 162.035C210.919 161.418 211.036 160.876 211.271 160.41C211.507 159.941 211.838 159.577 212.263 159.316C212.687 159.053 213.186 158.922 213.759 158.922C214.129 158.922 214.478 158.982 214.806 159.102C215.136 159.219 215.428 159.401 215.681 159.648C215.936 159.896 216.136 160.211 216.282 160.594C216.428 160.974 216.501 161.427 216.501 161.953V162.387H211.583V161.434H215.146C215.143 161.163 215.084 160.922 214.97 160.711C214.855 160.497 214.695 160.329 214.489 160.207C214.286 160.085 214.049 160.023 213.778 160.023C213.489 160.023 213.235 160.094 213.017 160.234C212.798 160.372 212.627 160.555 212.505 160.781C212.385 161.005 212.324 161.251 212.321 161.52V162.352C212.321 162.701 212.385 163 212.513 163.25C212.64 163.497 212.819 163.687 213.048 163.82C213.277 163.951 213.545 164.016 213.853 164.016C214.058 164.016 214.244 163.987 214.411 163.93C214.578 163.87 214.722 163.783 214.845 163.668C214.967 163.553 215.06 163.411 215.122 163.242L216.442 163.391C216.359 163.74 216.2 164.044 215.966 164.305C215.734 164.562 215.437 164.763 215.075 164.906C214.713 165.047 214.299 165.117 213.833 165.117ZM218.903 165L217.208 159H218.649L219.704 163.219H219.759L220.837 159H222.263L223.341 163.195H223.399L224.438 159H225.884L224.185 165H222.712L221.587 160.945H221.505L220.38 165H218.903ZM229.662 165V157H231.111V163.785H234.635V165H229.662ZM234.521 158.215V157H240.903V158.215H238.431V165H236.993V158.215H234.521ZM243.204 157L245.286 163.297H245.368L247.446 157H249.04L246.22 165H244.431L241.614 157H243.204Z" fill="#17344F"/>
<path d="M449.086 104V96H450.535V102.785H454.059V104H449.086ZM453.944 97.2148V96H460.327V97.2148H457.854V104H456.417V97.2148H453.944ZM462.628 96L464.71 102.297H464.792L466.87 96H468.464L465.644 104H463.854L461.038 96H462.628ZM450.77 120L448.512 112H450.07L451.512 117.879H451.586L453.125 112H454.543L456.086 117.883H456.156L457.598 112H459.156L456.898 120H455.469L453.867 114.387H453.805L452.199 120H450.77ZM460.099 120V114H461.513V120H460.099ZM460.81 113.148C460.586 113.148 460.393 113.074 460.231 112.926C460.07 112.775 459.989 112.594 459.989 112.383C459.989 112.169 460.07 111.988 460.231 111.84C460.393 111.689 460.586 111.613 460.81 111.613C461.036 111.613 461.229 111.689 461.388 111.84C461.549 111.988 461.63 112.169 461.63 112.383C461.63 112.594 461.549 112.775 461.388 112.926C461.229 113.074 461.036 113.148 460.81 113.148ZM465.963 114V115.094H462.514V114H465.963ZM463.365 112.562H464.779V118.195C464.779 118.385 464.808 118.531 464.865 118.633C464.925 118.732 465.003 118.799 465.1 118.836C465.196 118.872 465.303 118.891 465.42 118.891C465.508 118.891 465.589 118.884 465.662 118.871C465.738 118.858 465.795 118.846 465.834 118.836L466.072 119.941C465.997 119.967 465.889 119.996 465.748 120.027C465.61 120.059 465.441 120.077 465.24 120.082C464.886 120.092 464.567 120.039 464.283 119.922C463.999 119.802 463.774 119.617 463.607 119.367C463.443 119.117 463.363 118.805 463.365 118.43V112.562ZM468.688 116.484V120H467.274V112H468.657V115.02H468.728C468.868 114.681 469.086 114.414 469.38 114.219C469.677 114.021 470.054 113.922 470.513 113.922C470.929 113.922 471.293 114.009 471.603 114.184C471.912 114.358 472.152 114.613 472.321 114.949C472.493 115.285 472.579 115.695 472.579 116.18V120H471.165V116.398C471.165 115.995 471.061 115.681 470.853 115.457C470.647 115.23 470.358 115.117 469.985 115.117C469.735 115.117 469.511 115.172 469.313 115.281C469.118 115.388 468.965 115.543 468.853 115.746C468.743 115.949 468.688 116.195 468.688 116.484ZM476.247 120.105C475.776 120.105 475.354 119.984 474.981 119.742C474.609 119.5 474.315 119.148 474.099 118.687C473.882 118.227 473.774 117.667 473.774 117.008C473.774 116.341 473.884 115.779 474.103 115.32C474.324 114.859 474.622 114.512 474.997 114.277C475.372 114.04 475.79 113.922 476.251 113.922C476.603 113.922 476.892 113.982 477.118 114.102C477.345 114.219 477.524 114.361 477.657 114.527C477.79 114.691 477.893 114.846 477.966 114.992H478.024V112H479.442V120H478.052V119.055H477.966C477.893 119.201 477.787 119.355 477.649 119.52C477.511 119.681 477.329 119.819 477.103 119.934C476.876 120.048 476.591 120.105 476.247 120.105ZM476.642 118.945C476.941 118.945 477.196 118.865 477.407 118.703C477.618 118.539 477.778 118.311 477.888 118.02C477.997 117.728 478.052 117.388 478.052 117C478.052 116.612 477.997 116.275 477.888 115.988C477.781 115.702 477.622 115.479 477.411 115.32C477.203 115.161 476.946 115.082 476.642 115.082C476.326 115.082 476.063 115.164 475.853 115.328C475.642 115.492 475.483 115.719 475.376 116.008C475.269 116.297 475.216 116.628 475.216 117C475.216 117.375 475.269 117.71 475.376 118.004C475.485 118.296 475.646 118.526 475.856 118.695C476.07 118.862 476.332 118.945 476.642 118.945ZM480.949 120V114H482.32V115H482.383C482.492 114.654 482.68 114.387 482.945 114.199C483.214 114.009 483.52 113.914 483.863 113.914C483.941 113.914 484.029 113.918 484.125 113.926C484.224 113.931 484.306 113.94 484.371 113.953V115.254C484.311 115.233 484.216 115.215 484.086 115.199C483.958 115.181 483.835 115.172 483.715 115.172C483.457 115.172 483.225 115.228 483.02 115.34C482.816 115.449 482.656 115.602 482.539 115.797C482.422 115.992 482.363 116.217 482.363 116.473V120H480.949ZM486.93 120.121C486.549 120.121 486.207 120.053 485.902 119.918C485.6 119.78 485.361 119.577 485.184 119.309C485.009 119.04 484.922 118.71 484.922 118.316C484.922 117.978 484.984 117.698 485.109 117.477C485.234 117.255 485.405 117.078 485.621 116.945C485.837 116.812 486.081 116.712 486.352 116.645C486.625 116.574 486.908 116.523 487.199 116.492C487.551 116.456 487.836 116.423 488.055 116.395C488.273 116.363 488.432 116.316 488.531 116.254C488.633 116.189 488.684 116.089 488.684 115.953V115.93C488.684 115.635 488.596 115.408 488.422 115.246C488.247 115.085 487.996 115.004 487.668 115.004C487.322 115.004 487.047 115.079 486.844 115.23C486.643 115.382 486.508 115.56 486.438 115.766L485.117 115.578C485.221 115.214 485.393 114.909 485.633 114.664C485.872 114.417 486.165 114.232 486.512 114.109C486.858 113.984 487.241 113.922 487.66 113.922C487.949 113.922 488.237 113.956 488.523 114.023C488.81 114.091 489.072 114.203 489.309 114.359C489.546 114.513 489.736 114.723 489.879 114.988C490.025 115.254 490.098 115.586 490.098 115.984V120H488.738V119.176H488.691C488.605 119.342 488.484 119.499 488.328 119.645C488.174 119.788 487.98 119.904 487.746 119.992C487.514 120.078 487.242 120.121 486.93 120.121ZM487.297 119.082C487.581 119.082 487.827 119.026 488.035 118.914C488.243 118.799 488.404 118.648 488.516 118.461C488.63 118.273 488.688 118.069 488.688 117.848V117.141C488.643 117.177 488.568 117.211 488.461 117.242C488.357 117.273 488.24 117.301 488.109 117.324C487.979 117.348 487.85 117.368 487.723 117.387C487.595 117.405 487.484 117.421 487.391 117.434C487.18 117.462 486.991 117.509 486.824 117.574C486.658 117.639 486.526 117.73 486.43 117.848C486.333 117.962 486.285 118.111 486.285 118.293C486.285 118.553 486.38 118.75 486.57 118.883C486.76 119.016 487.003 119.082 487.297 119.082ZM492.758 120L491.063 114H492.504L493.559 118.219H493.613L494.691 114H496.117L497.195 118.195H497.254L498.293 114H499.738L498.039 120H496.566L495.441 115.945H495.359L494.234 120H492.758ZM453.434 130.199C453.397 129.858 453.243 129.592 452.973 129.402C452.704 129.212 452.355 129.117 451.926 129.117C451.624 129.117 451.365 129.163 451.148 129.254C450.932 129.345 450.767 129.469 450.652 129.625C450.538 129.781 450.479 129.96 450.477 130.16C450.477 130.327 450.514 130.471 450.59 130.594C450.668 130.716 450.773 130.82 450.906 130.906C451.039 130.99 451.186 131.06 451.348 131.117C451.509 131.174 451.672 131.223 451.836 131.262L452.586 131.449C452.888 131.52 453.178 131.615 453.457 131.734C453.738 131.854 453.99 132.005 454.211 132.188C454.435 132.37 454.612 132.59 454.742 132.848C454.872 133.105 454.938 133.408 454.938 133.754C454.938 134.223 454.818 134.635 454.578 134.992C454.339 135.346 453.992 135.624 453.539 135.824C453.089 136.022 452.543 136.121 451.902 136.121C451.28 136.121 450.74 136.025 450.281 135.832C449.826 135.639 449.469 135.358 449.211 134.988C448.956 134.618 448.818 134.168 448.797 133.637H450.223C450.243 133.915 450.329 134.147 450.48 134.332C450.632 134.517 450.828 134.655 451.07 134.746C451.315 134.837 451.589 134.883 451.891 134.883C452.206 134.883 452.482 134.836 452.719 134.742C452.958 134.646 453.146 134.513 453.281 134.344C453.417 134.172 453.486 133.971 453.488 133.742C453.486 133.534 453.424 133.362 453.305 133.227C453.185 133.089 453.017 132.974 452.801 132.883C452.587 132.789 452.337 132.706 452.051 132.633L451.141 132.398C450.482 132.229 449.961 131.973 449.578 131.629C449.198 131.283 449.008 130.823 449.008 130.25C449.008 129.779 449.135 129.366 449.391 129.012C449.648 128.658 449.999 128.383 450.441 128.187C450.884 127.99 451.385 127.891 451.945 127.891C452.513 127.891 453.01 127.99 453.438 128.187C453.867 128.383 454.204 128.655 454.449 129.004C454.694 129.35 454.82 129.749 454.828 130.199H453.434ZM459.163 130V131.094H455.714V130H459.163ZM456.565 128.562H457.979V134.195C457.979 134.385 458.008 134.531 458.065 134.633C458.125 134.732 458.203 134.799 458.3 134.836C458.396 134.872 458.503 134.891 458.62 134.891C458.709 134.891 458.789 134.884 458.862 134.871C458.938 134.858 458.995 134.846 459.034 134.836L459.272 135.941C459.197 135.967 459.089 135.996 458.948 136.027C458.81 136.059 458.641 136.077 458.44 136.082C458.086 136.092 457.767 136.039 457.483 135.922C457.2 135.802 456.974 135.617 456.808 135.367C456.644 135.117 456.563 134.805 456.565 134.43V128.562ZM462.937 136.117C462.336 136.117 461.816 135.992 461.379 135.742C460.944 135.49 460.609 135.133 460.375 134.672C460.141 134.208 460.023 133.663 460.023 133.035C460.023 132.418 460.141 131.876 460.375 131.41C460.612 130.941 460.943 130.577 461.367 130.316C461.792 130.053 462.29 129.922 462.863 129.922C463.233 129.922 463.582 129.982 463.91 130.102C464.241 130.219 464.533 130.401 464.785 130.648C465.04 130.896 465.241 131.211 465.387 131.594C465.533 131.974 465.605 132.427 465.605 132.953V133.387H460.688V132.434H464.25C464.247 132.163 464.189 131.922 464.074 131.711C463.96 131.497 463.799 131.329 463.594 131.207C463.391 131.085 463.154 131.023 462.883 131.023C462.594 131.023 462.34 131.094 462.121 131.234C461.902 131.372 461.732 131.555 461.609 131.781C461.49 132.005 461.428 132.251 461.426 132.52V133.352C461.426 133.701 461.49 134 461.617 134.25C461.745 134.497 461.923 134.687 462.152 134.82C462.382 134.951 462.65 135.016 462.957 135.016C463.163 135.016 463.349 134.987 463.516 134.93C463.682 134.87 463.827 134.783 463.949 134.668C464.072 134.553 464.164 134.411 464.227 134.242L465.547 134.391C465.464 134.74 465.305 135.044 465.07 135.305C464.839 135.562 464.542 135.763 464.18 135.906C463.818 136.047 463.404 136.117 462.937 136.117ZM466.802 138.25V130H468.192V130.992H468.274C468.347 130.846 468.45 130.691 468.583 130.527C468.716 130.361 468.896 130.219 469.122 130.102C469.349 129.982 469.638 129.922 469.989 129.922C470.453 129.922 470.871 130.04 471.243 130.277C471.618 130.512 471.915 130.859 472.134 131.32C472.355 131.779 472.466 132.341 472.466 133.008C472.466 133.667 472.358 134.227 472.142 134.687C471.925 135.148 471.631 135.5 471.259 135.742C470.886 135.984 470.465 136.105 469.993 136.105C469.649 136.105 469.364 136.048 469.138 135.934C468.911 135.819 468.729 135.681 468.591 135.52C468.455 135.355 468.35 135.201 468.274 135.055H468.216V138.25H466.802ZM468.188 133C468.188 133.388 468.243 133.728 468.353 134.02C468.465 134.311 468.625 134.539 468.833 134.703C469.044 134.865 469.299 134.945 469.599 134.945C469.911 134.945 470.173 134.862 470.384 134.695C470.595 134.526 470.754 134.296 470.86 134.004C470.97 133.71 471.024 133.375 471.024 133C471.024 132.628 470.971 132.297 470.864 132.008C470.757 131.719 470.599 131.492 470.388 131.328C470.177 131.164 469.914 131.082 469.599 131.082C469.297 131.082 469.04 131.161 468.829 131.32C468.618 131.479 468.458 131.702 468.349 131.988C468.242 132.275 468.188 132.612 468.188 133Z" fill="#575CFE"/>
<path d="M449.555 239V231H451.004V237.785H454.527V239H449.555ZM455.723 239V233H457.137V239H455.723ZM456.434 232.148C456.21 232.148 456.017 232.074 455.855 231.926C455.694 231.775 455.613 231.594 455.613 231.383C455.613 231.169 455.694 230.988 455.855 230.84C456.017 230.689 456.21 230.613 456.434 230.613C456.66 230.613 456.853 230.689 457.012 230.84C457.173 230.988 457.254 231.169 457.254 231.383C457.254 231.594 457.173 231.775 457.012 231.926C456.853 232.074 456.66 232.148 456.434 232.148ZM462.595 241.25V238.055H462.536C462.463 238.201 462.358 238.355 462.22 238.52C462.082 238.681 461.899 238.819 461.673 238.934C461.446 239.048 461.161 239.105 460.817 239.105C460.346 239.105 459.924 238.984 459.552 238.742C459.179 238.5 458.885 238.148 458.669 237.687C458.453 237.227 458.345 236.667 458.345 236.008C458.345 235.341 458.454 234.779 458.673 234.32C458.894 233.859 459.192 233.512 459.567 233.277C459.942 233.04 460.36 232.922 460.821 232.922C461.173 232.922 461.462 232.982 461.688 233.102C461.915 233.219 462.095 233.361 462.228 233.527C462.36 233.691 462.463 233.846 462.536 233.992H462.622V233H464.013V241.25H462.595ZM461.212 237.945C461.511 237.945 461.767 237.865 461.978 237.703C462.188 237.539 462.349 237.311 462.458 237.02C462.567 236.728 462.622 236.388 462.622 236C462.622 235.612 462.567 235.275 462.458 234.988C462.351 234.702 462.192 234.479 461.981 234.32C461.773 234.161 461.517 234.082 461.212 234.082C460.897 234.082 460.634 234.164 460.423 234.328C460.212 234.492 460.053 234.719 459.946 235.008C459.84 235.297 459.786 235.628 459.786 236C459.786 236.375 459.84 236.71 459.946 237.004C460.056 237.296 460.216 237.526 460.427 237.695C460.64 237.862 460.902 237.945 461.212 237.945ZM469.29 236.477V233H470.704V239H469.333V237.934H469.271C469.135 238.27 468.912 238.544 468.603 238.758C468.295 238.971 467.916 239.078 467.466 239.078C467.073 239.078 466.725 238.991 466.423 238.816C466.123 238.639 465.889 238.383 465.72 238.047C465.55 237.708 465.466 237.299 465.466 236.82V233H466.88V236.602C466.88 236.982 466.984 237.284 467.192 237.508C467.401 237.732 467.674 237.844 468.013 237.844C468.221 237.844 468.423 237.793 468.618 237.691C468.813 237.59 468.974 237.439 469.099 237.238C469.226 237.035 469.29 236.781 469.29 236.477ZM472.158 239V233H473.572V239H472.158ZM472.869 232.148C472.645 232.148 472.452 232.074 472.291 231.926C472.13 231.775 472.049 231.594 472.049 231.383C472.049 231.169 472.13 230.988 472.291 230.84C472.452 230.689 472.645 230.613 472.869 230.613C473.096 230.613 473.288 230.689 473.447 230.84C473.609 230.988 473.689 231.169 473.689 231.383C473.689 231.594 473.609 231.775 473.447 231.926C473.288 232.074 473.096 232.148 472.869 232.148ZM477.253 239.105C476.782 239.105 476.36 238.984 475.987 238.742C475.615 238.5 475.321 238.148 475.104 237.687C474.888 237.227 474.78 236.667 474.78 236.008C474.78 235.341 474.89 234.779 475.108 234.32C475.33 233.859 475.628 233.512 476.003 233.277C476.378 233.04 476.796 232.922 477.257 232.922C477.608 232.922 477.897 232.982 478.124 233.102C478.351 233.219 478.53 233.361 478.663 233.527C478.796 233.691 478.899 233.846 478.972 233.992H479.03V231H480.448V239H479.058V238.055H478.972C478.899 238.201 478.793 238.355 478.655 238.52C478.517 238.681 478.335 238.819 478.108 238.934C477.882 239.048 477.597 239.105 477.253 239.105ZM477.647 237.945C477.947 237.945 478.202 237.865 478.413 237.703C478.624 237.539 478.784 237.311 478.894 237.02C479.003 236.728 479.058 236.388 479.058 236C479.058 235.612 479.003 235.275 478.894 234.988C478.787 234.702 478.628 234.479 478.417 234.32C478.209 234.161 477.952 234.082 477.647 234.082C477.332 234.082 477.069 234.164 476.858 234.328C476.647 234.492 476.489 234.719 476.382 235.008C476.275 235.297 476.222 235.628 476.222 236C476.222 236.375 476.275 236.71 476.382 237.004C476.491 237.296 476.651 237.526 476.862 237.695C477.076 237.862 477.338 237.945 477.647 237.945ZM483.682 239.121C483.301 239.121 482.959 239.053 482.654 238.918C482.352 238.78 482.113 238.577 481.936 238.309C481.761 238.04 481.674 237.71 481.674 237.316C481.674 236.978 481.736 236.698 481.861 236.477C481.986 236.255 482.157 236.078 482.373 235.945C482.589 235.812 482.833 235.712 483.104 235.645C483.377 235.574 483.66 235.523 483.951 235.492C484.303 235.456 484.588 235.423 484.807 235.395C485.025 235.363 485.184 235.316 485.283 235.254C485.385 235.189 485.436 235.089 485.436 234.953V234.93C485.436 234.635 485.348 234.408 485.174 234.246C484.999 234.085 484.748 234.004 484.42 234.004C484.074 234.004 483.799 234.079 483.596 234.23C483.395 234.382 483.26 234.56 483.189 234.766L481.869 234.578C481.973 234.214 482.145 233.909 482.385 233.664C482.624 233.417 482.917 233.232 483.264 233.109C483.61 232.984 483.993 232.922 484.412 232.922C484.701 232.922 484.989 232.956 485.275 233.023C485.562 233.091 485.824 233.203 486.061 233.359C486.298 233.513 486.488 233.723 486.631 233.988C486.777 234.254 486.85 234.586 486.85 234.984V239H485.49V238.176H485.443C485.357 238.342 485.236 238.499 485.08 238.645C484.926 238.788 484.732 238.904 484.498 238.992C484.266 239.078 483.994 239.121 483.682 239.121ZM484.049 238.082C484.333 238.082 484.579 238.026 484.787 237.914C484.995 237.799 485.156 237.648 485.268 237.461C485.382 237.273 485.439 237.069 485.439 236.848V236.141C485.395 236.177 485.32 236.211 485.213 236.242C485.109 236.273 484.992 236.301 484.861 236.324C484.731 236.348 484.602 236.368 484.475 236.387C484.347 236.405 484.236 236.421 484.143 236.434C483.932 236.462 483.743 236.509 483.576 236.574C483.41 236.639 483.278 236.73 483.182 236.848C483.085 236.962 483.037 237.111 483.037 237.293C483.037 237.553 483.132 237.75 483.322 237.883C483.512 238.016 483.755 238.082 484.049 238.082ZM491.268 233V234.094H487.818V233H491.268ZM488.67 231.562H490.084V237.195C490.084 237.385 490.113 237.531 490.17 237.633C490.23 237.732 490.308 237.799 490.404 237.836C490.501 237.872 490.607 237.891 490.725 237.891C490.813 237.891 490.894 237.884 490.967 237.871C491.042 237.858 491.1 237.846 491.139 237.836L491.377 238.941C491.301 238.967 491.193 238.996 491.053 239.027C490.915 239.059 490.745 239.077 490.545 239.082C490.191 239.092 489.872 239.039 489.588 238.922C489.304 238.802 489.079 238.617 488.912 238.367C488.748 238.117 488.667 237.805 488.67 237.43V231.562ZM492.45 239V233H493.864V239H492.45ZM493.161 232.148C492.937 232.148 492.744 232.074 492.583 231.926C492.422 231.775 492.341 231.594 492.341 231.383C492.341 231.169 492.422 230.988 492.583 230.84C492.744 230.689 492.937 230.613 493.161 230.613C493.388 230.613 493.58 230.689 493.739 230.84C493.901 230.988 493.981 231.169 493.981 231.383C493.981 231.594 493.901 231.775 493.739 231.926C493.58 232.074 493.388 232.148 493.161 232.148ZM497.936 239.117C497.35 239.117 496.842 238.988 496.412 238.73C495.982 238.473 495.649 238.112 495.412 237.648C495.178 237.185 495.061 236.643 495.061 236.023C495.061 235.404 495.178 234.861 495.412 234.395C495.649 233.928 495.982 233.566 496.412 233.309C496.842 233.051 497.35 232.922 497.936 232.922C498.521 232.922 499.029 233.051 499.459 233.309C499.889 233.566 500.221 233.928 500.455 234.395C500.692 234.861 500.811 235.404 500.811 236.023C500.811 236.643 500.692 237.185 500.455 237.648C500.221 238.112 499.889 238.473 499.459 238.73C499.029 238.988 498.521 239.117 497.936 239.117ZM497.943 237.984C498.261 237.984 498.527 237.897 498.74 237.723C498.954 237.546 499.113 237.309 499.217 237.012C499.324 236.715 499.377 236.384 499.377 236.02C499.377 235.652 499.324 235.32 499.217 235.023C499.113 234.724 498.954 234.486 498.74 234.309C498.527 234.132 498.261 234.043 497.943 234.043C497.618 234.043 497.347 234.132 497.131 234.309C496.917 234.486 496.757 234.724 496.65 235.023C496.546 235.32 496.494 235.652 496.494 236.02C496.494 236.384 496.546 236.715 496.65 237.012C496.757 237.309 496.917 237.546 497.131 237.723C497.347 237.897 497.618 237.984 497.943 237.984ZM503.425 235.484V239H502.011V233H503.362V234.02H503.433C503.571 233.684 503.791 233.417 504.093 233.219C504.397 233.021 504.774 232.922 505.222 232.922C505.636 232.922 505.996 233.01 506.304 233.187C506.614 233.365 506.853 233.621 507.022 233.957C507.194 234.293 507.279 234.701 507.276 235.18V239H505.862V235.398C505.862 234.997 505.758 234.684 505.55 234.457C505.344 234.23 505.059 234.117 504.694 234.117C504.447 234.117 504.227 234.172 504.034 234.281C503.844 234.388 503.694 234.543 503.585 234.746C503.478 234.949 503.425 235.195 503.425 235.484ZM449.203 248.215V247H455.586V248.215H453.113V255H451.676V248.215H449.203ZM458.168 251.484V255H456.754V247H458.137V250.02H458.207C458.348 249.681 458.565 249.414 458.859 249.219C459.156 249.021 459.534 248.922 459.992 248.922C460.409 248.922 460.772 249.009 461.082 249.184C461.392 249.358 461.632 249.613 461.801 249.949C461.973 250.285 462.059 250.695 462.059 251.18V255H460.645V251.398C460.645 250.995 460.54 250.681 460.332 250.457C460.126 250.23 459.837 250.117 459.465 250.117C459.215 250.117 458.991 250.172 458.793 250.281C458.598 250.388 458.444 250.543 458.332 250.746C458.223 250.949 458.168 251.195 458.168 251.484ZM463.5 255V249H464.871V250H464.934C465.043 249.654 465.23 249.387 465.496 249.199C465.764 249.009 466.07 248.914 466.414 248.914C466.492 248.914 466.579 248.918 466.676 248.926C466.775 248.931 466.857 248.94 466.922 248.953V250.254C466.862 250.233 466.767 250.215 466.637 250.199C466.509 250.181 466.385 250.172 466.266 250.172C466.008 250.172 465.776 250.228 465.57 250.34C465.367 250.449 465.207 250.602 465.09 250.797C464.973 250.992 464.914 251.217 464.914 251.473V255H463.5ZM470.271 255.117C469.669 255.117 469.149 254.992 468.712 254.742C468.277 254.49 467.942 254.133 467.708 253.672C467.474 253.208 467.356 252.663 467.356 252.035C467.356 251.418 467.474 250.876 467.708 250.41C467.945 249.941 468.276 249.577 468.7 249.316C469.125 249.053 469.623 248.922 470.196 248.922C470.566 248.922 470.915 248.982 471.243 249.102C471.574 249.219 471.866 249.401 472.118 249.648C472.373 249.896 472.574 250.211 472.72 250.594C472.866 250.974 472.938 251.427 472.938 251.953V252.387H468.021V251.434H471.583C471.58 251.163 471.522 250.922 471.407 250.711C471.293 250.497 471.132 250.329 470.927 250.207C470.724 250.085 470.487 250.023 470.216 250.023C469.927 250.023 469.673 250.094 469.454 250.234C469.235 250.372 469.065 250.555 468.942 250.781C468.823 251.005 468.761 251.251 468.759 251.52V252.352C468.759 252.701 468.823 253 468.95 253.25C469.078 253.497 469.256 253.687 469.485 253.82C469.715 253.951 469.983 254.016 470.29 254.016C470.496 254.016 470.682 253.987 470.849 253.93C471.015 253.87 471.16 253.783 471.282 253.668C471.405 253.553 471.497 253.411 471.56 253.242L472.88 253.391C472.797 253.74 472.638 254.044 472.403 254.305C472.172 254.562 471.875 254.763 471.513 254.906C471.151 255.047 470.737 255.117 470.271 255.117ZM478.877 250.586L477.588 250.727C477.551 250.596 477.488 250.474 477.396 250.359C477.308 250.245 477.188 250.152 477.037 250.082C476.886 250.012 476.701 249.977 476.482 249.977C476.188 249.977 475.941 250.04 475.74 250.168C475.542 250.296 475.445 250.461 475.447 250.664C475.445 250.839 475.508 250.98 475.639 251.09C475.771 251.199 475.99 251.289 476.295 251.359L477.318 251.578C477.886 251.701 478.308 251.895 478.584 252.16C478.863 252.426 479.003 252.773 479.006 253.203C479.003 253.581 478.893 253.914 478.674 254.203C478.458 254.49 478.157 254.714 477.771 254.875C477.386 255.036 476.943 255.117 476.443 255.117C475.709 255.117 475.118 254.964 474.67 254.656C474.222 254.346 473.955 253.915 473.869 253.363L475.248 253.23C475.311 253.501 475.443 253.706 475.646 253.844C475.85 253.982 476.114 254.051 476.439 254.051C476.775 254.051 477.045 253.982 477.248 253.844C477.454 253.706 477.557 253.535 477.557 253.332C477.557 253.16 477.49 253.018 477.357 252.906C477.227 252.794 477.024 252.708 476.748 252.648L475.725 252.434C475.149 252.314 474.723 252.112 474.447 251.828C474.171 251.542 474.035 251.18 474.037 250.742C474.035 250.372 474.135 250.052 474.338 249.781C474.544 249.508 474.829 249.297 475.193 249.148C475.561 248.997 475.984 248.922 476.463 248.922C477.166 248.922 477.719 249.072 478.123 249.371C478.529 249.671 478.781 250.076 478.877 250.586ZM481.586 251.484V255H480.172V247H481.555V250.02H481.625C481.766 249.681 481.983 249.414 482.277 249.219C482.574 249.021 482.952 248.922 483.41 248.922C483.827 248.922 484.19 249.009 484.5 249.184C484.81 249.358 485.049 249.613 485.219 249.949C485.391 250.285 485.477 250.695 485.477 251.18V255H484.063V251.398C484.063 250.995 483.958 250.681 483.75 250.457C483.544 250.23 483.255 250.117 482.883 250.117C482.633 250.117 482.409 250.172 482.211 250.281C482.016 250.388 481.862 250.543 481.75 250.746C481.641 250.949 481.586 251.195 481.586 251.484ZM489.535 255.117C488.949 255.117 488.441 254.988 488.012 254.73C487.582 254.473 487.249 254.112 487.012 253.648C486.777 253.185 486.66 252.643 486.66 252.023C486.66 251.404 486.777 250.861 487.012 250.395C487.249 249.928 487.582 249.566 488.012 249.309C488.441 249.051 488.949 248.922 489.535 248.922C490.121 248.922 490.629 249.051 491.059 249.309C491.488 249.566 491.82 249.928 492.055 250.395C492.292 250.861 492.41 251.404 492.41 252.023C492.41 252.643 492.292 253.185 492.055 253.648C491.82 254.112 491.488 254.473 491.059 254.73C490.629 254.988 490.121 255.117 489.535 255.117ZM489.543 253.984C489.861 253.984 490.126 253.897 490.34 253.723C490.553 253.546 490.712 253.309 490.816 253.012C490.923 252.715 490.977 252.384 490.977 252.02C490.977 251.652 490.923 251.32 490.816 251.023C490.712 250.724 490.553 250.486 490.34 250.309C490.126 250.132 489.861 250.043 489.543 250.043C489.217 250.043 488.947 250.132 488.73 250.309C488.517 250.486 488.357 250.724 488.25 251.023C488.146 251.32 488.094 251.652 488.094 252.02C488.094 252.384 488.146 252.715 488.25 253.012C488.357 253.309 488.517 253.546 488.73 253.723C488.947 253.897 489.217 253.984 489.543 253.984ZM495.024 247V255H493.61V247H495.024ZM498.705 255.105C498.234 255.105 497.812 254.984 497.439 254.742C497.067 254.5 496.773 254.148 496.557 253.687C496.34 253.227 496.232 252.667 496.232 252.008C496.232 251.341 496.342 250.779 496.561 250.32C496.782 249.859 497.08 249.512 497.455 249.277C497.83 249.04 498.248 248.922 498.709 248.922C499.061 248.922 499.35 248.982 499.576 249.102C499.803 249.219 499.982 249.361 500.115 249.527C500.248 249.691 500.351 249.846 500.424 249.992H500.482V247H501.9V255H500.51V254.055H500.424C500.351 254.201 500.245 254.355 500.107 254.52C499.969 254.681 499.787 254.819 499.561 254.934C499.334 255.048 499.049 255.105 498.705 255.105ZM499.1 253.945C499.399 253.945 499.654 253.865 499.865 253.703C500.076 253.539 500.236 253.311 500.346 253.02C500.455 252.728 500.51 252.388 500.51 252C500.51 251.612 500.455 251.275 500.346 250.988C500.239 250.702 500.08 250.479 499.869 250.32C499.661 250.161 499.404 250.082 499.1 250.082C498.785 250.082 498.521 250.164 498.311 250.328C498.1 250.492 497.941 250.719 497.834 251.008C497.727 251.297 497.674 251.628 497.674 252C497.674 252.375 497.727 252.71 497.834 253.004C497.943 253.296 498.104 253.526 498.314 253.695C498.528 253.862 498.79 253.945 499.1 253.945Z" fill="#D94A1E"/>
<path d="M453.902 171.199C453.866 170.858 453.712 170.592 453.441 170.402C453.173 170.212 452.824 170.117 452.395 170.117C452.092 170.117 451.833 170.163 451.617 170.254C451.401 170.345 451.236 170.469 451.121 170.625C451.007 170.781 450.948 170.96 450.945 171.16C450.945 171.327 450.983 171.471 451.059 171.594C451.137 171.716 451.242 171.82 451.375 171.906C451.508 171.99 451.655 172.06 451.816 172.117C451.978 172.174 452.141 172.223 452.305 172.262L453.055 172.449C453.357 172.52 453.647 172.615 453.926 172.734C454.207 172.854 454.458 173.005 454.68 173.188C454.904 173.37 455.081 173.59 455.211 173.848C455.341 174.105 455.406 174.408 455.406 174.754C455.406 175.223 455.286 175.635 455.047 175.992C454.807 176.346 454.461 176.624 454.008 176.824C453.557 177.022 453.012 177.121 452.371 177.121C451.749 177.121 451.208 177.025 450.75 176.832C450.294 176.639 449.938 176.358 449.68 175.988C449.424 175.618 449.286 175.168 449.266 174.637H450.691C450.712 174.915 450.798 175.147 450.949 175.332C451.1 175.517 451.297 175.655 451.539 175.746C451.784 175.837 452.057 175.883 452.359 175.883C452.674 175.883 452.951 175.836 453.188 175.742C453.427 175.646 453.615 175.513 453.75 175.344C453.885 175.172 453.954 174.971 453.957 174.742C453.954 174.534 453.893 174.362 453.773 174.227C453.654 174.089 453.486 173.974 453.27 173.883C453.056 173.789 452.806 173.706 452.52 173.633L451.609 173.398C450.951 173.229 450.43 172.973 450.047 172.629C449.667 172.283 449.477 171.823 449.477 171.25C449.477 170.779 449.604 170.366 449.859 170.012C450.117 169.658 450.467 169.383 450.91 169.187C451.353 168.99 451.854 168.891 452.414 168.891C452.982 168.891 453.479 168.99 453.906 169.187C454.336 169.383 454.673 169.655 454.918 170.004C455.163 170.35 455.289 170.749 455.297 171.199H453.902ZM459.632 171V172.094H456.183V171H459.632ZM457.034 169.562H458.448V175.195C458.448 175.385 458.477 175.531 458.534 175.633C458.594 175.732 458.672 175.799 458.769 175.836C458.865 175.872 458.972 175.891 459.089 175.891C459.177 175.891 459.258 175.884 459.331 175.871C459.407 175.858 459.464 175.846 459.503 175.836L459.741 176.941C459.666 176.967 459.558 176.996 459.417 177.027C459.279 177.059 459.11 177.077 458.909 177.082C458.555 177.092 458.236 177.039 457.952 176.922C457.668 176.802 457.443 176.617 457.276 176.367C457.112 176.117 457.032 175.805 457.034 175.43V169.562ZM463.367 177.117C462.781 177.117 462.273 176.988 461.844 176.73C461.414 176.473 461.081 176.112 460.844 175.648C460.609 175.185 460.492 174.643 460.492 174.023C460.492 173.404 460.609 172.861 460.844 172.395C461.081 171.928 461.414 171.566 461.844 171.309C462.273 171.051 462.781 170.922 463.367 170.922C463.953 170.922 464.461 171.051 464.891 171.309C465.32 171.566 465.652 171.928 465.887 172.395C466.124 172.861 466.242 173.404 466.242 174.023C466.242 174.643 466.124 175.185 465.887 175.648C465.652 176.112 465.32 176.473 464.891 176.73C464.461 176.988 463.953 177.117 463.367 177.117ZM463.375 175.984C463.693 175.984 463.958 175.897 464.172 175.723C464.385 175.546 464.544 175.309 464.648 175.012C464.755 174.715 464.809 174.384 464.809 174.02C464.809 173.652 464.755 173.32 464.648 173.023C464.544 172.724 464.385 172.486 464.172 172.309C463.958 172.132 463.693 172.043 463.375 172.043C463.049 172.043 462.779 172.132 462.563 172.309C462.349 172.486 462.189 172.724 462.082 173.023C461.978 173.32 461.926 173.652 461.926 174.02C461.926 174.384 461.978 174.715 462.082 175.012C462.189 175.309 462.349 175.546 462.563 175.723C462.779 175.897 463.049 175.984 463.375 175.984ZM467.442 179.25V171H468.833V171.992H468.915C468.988 171.846 469.091 171.691 469.224 171.527C469.356 171.361 469.536 171.219 469.763 171.102C469.989 170.982 470.278 170.922 470.63 170.922C471.093 170.922 471.511 171.04 471.884 171.277C472.259 171.512 472.556 171.859 472.774 172.32C472.996 172.779 473.106 173.341 473.106 174.008C473.106 174.667 472.998 175.227 472.782 175.687C472.566 176.148 472.272 176.5 471.899 176.742C471.527 176.984 471.105 177.105 470.634 177.105C470.29 177.105 470.005 177.048 469.778 176.934C469.552 176.819 469.369 176.681 469.231 176.52C469.096 176.355 468.991 176.201 468.915 176.055H468.856V179.25H467.442ZM468.829 174C468.829 174.388 468.884 174.728 468.993 175.02C469.105 175.311 469.265 175.539 469.474 175.703C469.685 175.865 469.94 175.945 470.239 175.945C470.552 175.945 470.813 175.862 471.024 175.695C471.235 175.526 471.394 175.296 471.501 175.004C471.61 174.71 471.665 174.375 471.665 174C471.665 173.628 471.612 173.297 471.505 173.008C471.398 172.719 471.239 172.492 471.028 172.328C470.817 172.164 470.554 172.082 470.239 172.082C469.937 172.082 469.681 172.161 469.47 172.32C469.259 172.479 469.099 172.702 468.989 172.988C468.882 173.275 468.829 173.612 468.829 174ZM477.108 177V169H478.558V175.785H482.081V177H477.108ZM485.894 177.117C485.308 177.117 484.8 176.988 484.37 176.73C483.94 176.473 483.607 176.112 483.37 175.648C483.136 175.185 483.019 174.643 483.019 174.023C483.019 173.404 483.136 172.861 483.37 172.395C483.607 171.928 483.94 171.566 484.37 171.309C484.8 171.051 485.308 170.922 485.894 170.922C486.479 170.922 486.987 171.051 487.417 171.309C487.847 171.566 488.179 171.928 488.413 172.395C488.65 172.861 488.769 173.404 488.769 174.023C488.769 174.643 488.65 175.185 488.413 175.648C488.179 176.112 487.847 176.473 487.417 176.73C486.987 176.988 486.479 177.117 485.894 177.117ZM485.901 175.984C486.219 175.984 486.485 175.897 486.698 175.723C486.912 175.546 487.071 175.309 487.175 175.012C487.282 174.715 487.335 174.384 487.335 174.02C487.335 173.652 487.282 173.32 487.175 173.023C487.071 172.724 486.912 172.486 486.698 172.309C486.485 172.132 486.219 172.043 485.901 172.043C485.576 172.043 485.305 172.132 485.089 172.309C484.875 172.486 484.715 172.724 484.608 173.023C484.504 173.32 484.452 173.652 484.452 174.02C484.452 174.384 484.504 174.715 484.608 175.012C484.715 175.309 484.875 175.546 485.089 175.723C485.305 175.897 485.576 175.984 485.901 175.984ZM494.711 172.586L493.422 172.727C493.385 172.596 493.322 172.474 493.23 172.359C493.142 172.245 493.022 172.152 492.871 172.082C492.72 172.012 492.535 171.977 492.316 171.977C492.022 171.977 491.775 172.04 491.574 172.168C491.376 172.296 491.279 172.461 491.281 172.664C491.279 172.839 491.342 172.98 491.473 173.09C491.605 173.199 491.824 173.289 492.129 173.359L493.152 173.578C493.72 173.701 494.142 173.895 494.418 174.16C494.697 174.426 494.837 174.773 494.84 175.203C494.837 175.581 494.727 175.914 494.508 176.203C494.292 176.49 493.991 176.714 493.605 176.875C493.22 177.036 492.777 177.117 492.277 177.117C491.543 177.117 490.952 176.964 490.504 176.656C490.056 176.346 489.789 175.915 489.703 175.363L491.082 175.23C491.145 175.501 491.277 175.706 491.48 175.844C491.684 175.982 491.948 176.051 492.273 176.051C492.609 176.051 492.879 175.982 493.082 175.844C493.288 175.706 493.391 175.535 493.391 175.332C493.391 175.16 493.324 175.018 493.191 174.906C493.061 174.794 492.858 174.708 492.582 174.648L491.559 174.434C490.983 174.314 490.557 174.112 490.281 173.828C490.005 173.542 489.868 173.18 489.871 172.742C489.868 172.372 489.969 172.052 490.172 171.781C490.378 171.508 490.663 171.297 491.027 171.148C491.395 170.997 491.818 170.922 492.297 170.922C493 170.922 493.553 171.072 493.957 171.371C494.363 171.671 494.615 172.076 494.711 172.586ZM500.748 172.586L499.459 172.727C499.423 172.596 499.359 172.474 499.268 172.359C499.179 172.245 499.059 172.152 498.908 172.082C498.757 172.012 498.572 171.977 498.354 171.977C498.059 171.977 497.812 172.04 497.611 172.168C497.413 172.296 497.316 172.461 497.318 172.664C497.316 172.839 497.38 172.98 497.51 173.09C497.643 173.199 497.861 173.289 498.166 173.359L499.189 173.578C499.757 173.701 500.179 173.895 500.455 174.16C500.734 174.426 500.874 174.773 500.877 175.203C500.874 175.581 500.764 175.914 500.545 176.203C500.329 176.49 500.028 176.714 499.643 176.875C499.257 177.036 498.814 177.117 498.314 177.117C497.58 177.117 496.989 176.964 496.541 176.656C496.093 176.346 495.826 175.915 495.74 175.363L497.119 175.23C497.182 175.501 497.314 175.706 497.518 175.844C497.721 175.982 497.985 176.051 498.311 176.051C498.646 176.051 498.916 175.982 499.119 175.844C499.325 175.706 499.428 175.535 499.428 175.332C499.428 175.16 499.361 175.018 499.229 174.906C499.098 174.794 498.895 174.708 498.619 174.648L497.596 174.434C497.02 174.314 496.594 174.112 496.318 173.828C496.042 173.542 495.906 173.18 495.908 172.742C495.906 172.372 496.006 172.052 496.209 171.781C496.415 171.508 496.7 171.297 497.064 171.148C497.432 170.997 497.855 170.922 498.334 170.922C499.037 170.922 499.59 171.072 499.994 171.371C500.4 171.671 500.652 172.076 500.748 172.586ZM449.555 193V185H451.004V191.785H454.527V193H449.555ZM454.413 186.215V185H460.796V186.215H458.323V193H456.886V186.215H454.413ZM463.097 185L465.179 191.297H465.261L467.339 185H468.933L466.112 193H464.323L461.507 185H463.097Z" fill="#D8762D"/>
<path d="M194.328 67.2148V66H200.711V67.2148H198.238V74H196.801V67.2148H194.328ZM201.256 74V68H202.627V69H202.689C202.799 68.6536 202.986 68.3867 203.252 68.1992C203.52 68.0091 203.826 67.9141 204.17 67.9141C204.248 67.9141 204.335 67.918 204.432 67.9258C204.531 67.931 204.613 67.9401 204.678 67.9531V69.2539C204.618 69.2331 204.523 69.2148 204.393 69.1992C204.265 69.181 204.141 69.1719 204.021 69.1719C203.764 69.1719 203.532 69.2279 203.326 69.3398C203.123 69.4492 202.963 69.6016 202.846 69.7969C202.729 69.9922 202.67 70.2174 202.67 70.4727V74H201.256ZM205.617 74V68H207.031V74H205.617ZM206.328 67.1484C206.104 67.1484 205.911 67.0742 205.75 66.9258C205.589 66.7747 205.508 66.5937 205.508 66.3828C205.508 66.1693 205.589 65.9883 205.75 65.8398C205.911 65.6888 206.104 65.6133 206.328 65.6133C206.555 65.6133 206.747 65.6888 206.906 65.8398C207.068 65.9883 207.148 66.1693 207.148 66.3828C207.148 66.5937 207.068 66.7747 206.906 66.9258C206.747 67.0742 206.555 67.1484 206.328 67.1484ZM211.095 76.375C210.587 76.375 210.151 76.306 209.786 76.168C209.422 76.0326 209.129 75.8503 208.907 75.6211C208.686 75.3919 208.532 75.138 208.446 74.8594L209.72 74.5508C209.777 74.668 209.86 74.7839 209.97 74.8984C210.079 75.0156 210.226 75.112 210.411 75.1875C210.599 75.2656 210.834 75.3047 211.118 75.3047C211.519 75.3047 211.851 75.207 212.114 75.0117C212.377 74.819 212.509 74.5013 212.509 74.0586V72.9219H212.438C212.366 73.0677 212.259 73.2174 212.118 73.3711C211.98 73.5247 211.797 73.6536 211.567 73.7578C211.341 73.862 211.056 73.9141 210.712 73.9141C210.251 73.9141 209.833 73.806 209.458 73.5898C209.086 73.3711 208.789 73.0456 208.567 72.6133C208.349 72.1784 208.239 71.6341 208.239 70.9805C208.239 70.3216 208.349 69.7656 208.567 69.3125C208.789 68.8568 209.087 68.5117 209.462 68.2773C209.837 68.0404 210.255 67.9219 210.716 67.9219C211.067 67.9219 211.356 67.9818 211.583 68.1016C211.812 68.2187 211.994 68.3607 212.13 68.5273C212.265 68.6914 212.368 68.8464 212.438 68.9922H212.517V68H213.911V74.0977C213.911 74.6107 213.789 75.0352 213.544 75.3711C213.299 75.707 212.965 75.9583 212.54 76.125C212.116 76.2917 211.634 76.375 211.095 76.375ZM211.106 72.8047C211.406 72.8047 211.661 72.7318 211.872 72.5859C212.083 72.4401 212.243 72.2305 212.353 71.957C212.462 71.6836 212.517 71.3555 212.517 70.9727C212.517 70.5951 212.462 70.2643 212.353 69.9805C212.246 69.6966 212.087 69.4766 211.876 69.3203C211.668 69.1615 211.411 69.082 211.106 69.082C210.791 69.082 210.528 69.1641 210.317 69.3281C210.106 69.4922 209.948 69.7174 209.841 70.0039C209.734 70.2878 209.681 70.6107 209.681 70.9727C209.681 71.3398 209.734 71.6615 209.841 71.9375C209.95 72.2109 210.11 72.4245 210.321 72.5781C210.535 72.7292 210.797 72.8047 211.106 72.8047ZM217.97 76.375C217.462 76.375 217.026 76.306 216.661 76.168C216.297 76.0326 216.004 75.8503 215.782 75.6211C215.561 75.3919 215.407 75.138 215.321 74.8594L216.595 74.5508C216.652 74.668 216.735 74.7839 216.845 74.8984C216.954 75.0156 217.101 75.112 217.286 75.1875C217.474 75.2656 217.709 75.3047 217.993 75.3047C218.394 75.3047 218.726 75.207 218.989 75.0117C219.252 74.819 219.384 74.5013 219.384 74.0586V72.9219H219.313C219.241 73.0677 219.134 73.2174 218.993 73.3711C218.855 73.5247 218.672 73.6536 218.442 73.7578C218.216 73.862 217.931 73.9141 217.587 73.9141C217.126 73.9141 216.708 73.806 216.333 73.5898C215.961 73.3711 215.664 73.0456 215.442 72.6133C215.224 72.1784 215.114 71.6341 215.114 70.9805C215.114 70.3216 215.224 69.7656 215.442 69.3125C215.664 68.8568 215.962 68.5117 216.337 68.2773C216.712 68.0404 217.13 67.9219 217.591 67.9219C217.942 67.9219 218.231 67.9818 218.458 68.1016C218.687 68.2187 218.869 68.3607 219.005 68.5273C219.14 68.6914 219.243 68.8464 219.313 68.9922H219.392V68H220.786V74.0977C220.786 74.6107 220.664 75.0352 220.419 75.3711C220.174 75.707 219.84 75.9583 219.415 76.125C218.991 76.2917 218.509 76.375 217.97 76.375ZM217.981 72.8047C218.281 72.8047 218.536 72.7318 218.747 72.5859C218.958 72.4401 219.118 72.2305 219.228 71.957C219.337 71.6836 219.392 71.3555 219.392 70.9727C219.392 70.5951 219.337 70.2643 219.228 69.9805C219.121 69.6966 218.962 69.4766 218.751 69.3203C218.543 69.1615 218.286 69.082 217.981 69.082C217.666 69.082 217.403 69.1641 217.192 69.3281C216.981 69.4922 216.823 69.7174 216.716 70.0039C216.609 70.2878 216.556 70.6107 216.556 70.9727C216.556 71.3398 216.609 71.6615 216.716 71.9375C216.825 72.2109 216.985 72.4245 217.196 72.5781C217.41 72.7292 217.672 72.8047 217.981 72.8047ZM224.892 74.1172C224.29 74.1172 223.771 73.9922 223.333 73.7422C222.898 73.4896 222.563 73.1328 222.329 72.6719C222.095 72.2083 221.978 71.6628 221.978 71.0352C221.978 70.418 222.095 69.8763 222.329 69.4102C222.566 68.9414 222.897 68.5768 223.321 68.3164C223.746 68.0534 224.244 67.9219 224.817 67.9219C225.187 67.9219 225.536 67.9818 225.864 68.1016C226.195 68.2187 226.487 68.401 226.739 68.6484C226.994 68.8958 227.195 69.2109 227.341 69.5937C227.487 69.974 227.56 70.4271 227.56 70.9531V71.3867H222.642V70.4336H226.204C226.201 70.1628 226.143 69.9219 226.028 69.7109C225.914 69.4974 225.754 69.3294 225.548 69.207C225.345 69.0846 225.108 69.0234 224.837 69.0234C224.548 69.0234 224.294 69.0937 224.075 69.2344C223.856 69.3724 223.686 69.5547 223.563 69.7812C223.444 70.0052 223.382 70.2513 223.38 70.5195V71.3516C223.38 71.7005 223.444 72 223.571 72.25C223.699 72.4974 223.877 72.6875 224.106 72.8203C224.336 72.9505 224.604 73.0156 224.911 73.0156C225.117 73.0156 225.303 72.987 225.47 72.9297C225.636 72.8698 225.781 72.7826 225.903 72.668C226.026 72.5534 226.118 72.4115 226.181 72.2422L227.501 72.3906C227.418 72.7396 227.259 73.0443 227.024 73.3047C226.793 73.5625 226.496 73.763 226.134 73.9062C225.772 74.0469 225.358 74.1172 224.892 74.1172ZM228.756 74V68H230.127V69H230.189C230.299 68.6536 230.486 68.3867 230.752 68.1992C231.02 68.0091 231.326 67.9141 231.67 67.9141C231.748 67.9141 231.835 67.918 231.932 67.9258C232.031 67.931 232.113 67.9401 232.178 67.9531V69.2539C232.118 69.2331 232.023 69.2148 231.893 69.1992C231.765 69.181 231.641 69.1719 231.521 69.1719C231.264 69.1719 231.032 69.2279 230.826 69.3398C230.623 69.4492 230.463 69.6016 230.346 69.7969C230.229 69.9922 230.17 70.2174 230.17 70.4727V74H228.756ZM235.908 74V66H237.357V72.7852H240.881V74H235.908ZM240.767 67.2148V66H247.149V67.2148H244.677V74H243.239V67.2148H240.767ZM249.45 66L251.532 72.2969H251.614L253.692 66H255.286L252.466 74H250.677L247.86 66H249.45Z" fill="#596F78"/>
<path d="M424.547 87H430.047V147H423.047" stroke="#C3C9FC" stroke-width="2" stroke-dasharray="2 8"/>
</svg>
