<svg width="578" height="209" viewBox="0 0 578 209" fill="none" xmlns="http://www.w3.org/2000/svg">
<path d="M37.6495 53.2727V62H36.0685V54.8111H36.0174L33.9762 56.1151V54.6662L36.1452 53.2727H37.6495ZM41.2131 60.8068L41.1577 61.2756C41.1179 61.6335 41.0469 61.9972 40.9446 62.3665C40.8452 62.7386 40.7401 63.081 40.6293 63.3935C40.5185 63.706 40.429 63.9517 40.3608 64.1307H39.321C39.3608 63.9574 39.4148 63.7216 39.483 63.4233C39.554 63.125 39.6222 62.7898 39.6875 62.4176C39.7528 62.0455 39.7969 61.6676 39.8196 61.2841L39.8494 60.8068H41.2131ZM45.81 62.1662C45.1083 62.1662 44.506 61.9886 44.0032 61.6335C43.5032 61.2756 43.1183 60.7599 42.8484 60.0866C42.5813 59.4105 42.4478 58.5966 42.4478 57.6449C42.4506 56.6932 42.5856 55.8835 42.8526 55.2159C43.1225 54.5455 43.5075 54.0341 44.0075 53.6818C44.5103 53.3295 45.1112 53.1534 45.81 53.1534C46.5089 53.1534 47.1097 53.3295 47.6126 53.6818C48.1154 54.0341 48.5004 54.5455 48.7674 55.2159C49.0373 55.8864 49.1722 56.696 49.1722 57.6449C49.1722 58.5994 49.0373 59.4148 48.7674 60.0909C48.5004 60.7642 48.1154 61.2784 47.6126 61.6335C47.1126 61.9886 46.5117 62.1662 45.81 62.1662ZM45.81 60.8324C46.3555 60.8324 46.7859 60.5639 47.1012 60.027C47.4194 59.4872 47.5785 58.6932 47.5785 57.6449C47.5785 56.9517 47.506 56.3693 47.3612 55.8977C47.2163 55.4261 47.0117 55.071 46.7475 54.8324C46.4833 54.5909 46.1708 54.4702 45.81 54.4702C45.2674 54.4702 44.8384 54.7401 44.5231 55.2798C44.2077 55.8168 44.0487 56.6051 44.0458 57.6449C44.043 58.3409 44.1126 58.9261 44.2546 59.4006C44.3995 59.875 44.604 60.233 44.8683 60.4744C45.1325 60.7131 45.4464 60.8324 45.81 60.8324ZM53.8139 62.1662C53.1122 62.1662 52.5099 61.9886 52.0071 61.6335C51.5071 61.2756 51.1222 60.7599 50.8523 60.0866C50.5852 59.4105 50.4517 58.5966 50.4517 57.6449C50.4545 56.6932 50.5895 55.8835 50.8565 55.2159C51.1264 54.5455 51.5114 54.0341 52.0114 53.6818C52.5142 53.3295 53.1151 53.1534 53.8139 53.1534C54.5128 53.1534 55.1136 53.3295 55.6165 53.6818C56.1193 54.0341 56.5043 54.5455 56.7713 55.2159C57.0412 55.8864 57.1761 56.696 57.1761 57.6449C57.1761 58.5994 57.0412 59.4148 56.7713 60.0909C56.5043 60.7642 56.1193 61.2784 55.6165 61.6335C55.1165 61.9886 54.5156 62.1662 53.8139 62.1662ZM53.8139 60.8324C54.3594 60.8324 54.7898 60.5639 55.1051 60.027C55.4233 59.4872 55.5824 58.6932 55.5824 57.6449C55.5824 56.9517 55.5099 56.3693 55.3651 55.8977C55.2202 55.4261 55.0156 55.071 54.7514 54.8324C54.4872 54.5909 54.1747 54.4702 53.8139 54.4702C53.2713 54.4702 52.8423 54.7401 52.527 55.2798C52.2116 55.8168 52.0526 56.6051 52.0497 57.6449C52.0469 58.3409 52.1165 58.9261 52.2585 59.4006C52.4034 59.875 52.608 60.233 52.8722 60.4744C53.1364 60.7131 53.4503 60.8324 53.8139 60.8324ZM61.8178 62.1662C61.1161 62.1662 60.5138 61.9886 60.011 61.6335C59.511 61.2756 59.1261 60.7599 58.8562 60.0866C58.5891 59.4105 58.4556 58.5966 58.4556 57.6449C58.4585 56.6932 58.5934 55.8835 58.8604 55.2159C59.1303 54.5455 59.5153 54.0341 60.0153 53.6818C60.5181 53.3295 61.119 53.1534 61.8178 53.1534C62.5167 53.1534 63.1175 53.3295 63.6204 53.6818C64.1232 54.0341 64.5082 54.5455 64.7752 55.2159C65.0451 55.8864 65.18 56.696 65.18 57.6449C65.18 58.5994 65.0451 59.4148 64.7752 60.0909C64.5082 60.7642 64.1232 61.2784 63.6204 61.6335C63.1204 61.9886 62.5195 62.1662 61.8178 62.1662ZM61.8178 60.8324C62.3633 60.8324 62.7937 60.5639 63.109 60.027C63.4272 59.4872 63.5863 58.6932 63.5863 57.6449C63.5863 56.9517 63.5138 56.3693 63.369 55.8977C63.2241 55.4261 63.0195 55.071 62.7553 54.8324C62.4911 54.5909 62.1786 54.4702 61.8178 54.4702C61.2752 54.4702 60.8462 54.7401 60.5309 55.2798C60.2156 55.8168 60.0565 56.6051 60.0536 57.6449C60.0508 58.3409 60.1204 58.9261 60.2624 59.4006C60.4073 59.875 60.6119 60.233 60.8761 60.4744C61.1403 60.7131 61.4542 60.8324 61.8178 60.8324ZM72.6151 62H69.6577V53.2727H72.6747C73.5412 53.2727 74.2855 53.4474 74.9077 53.7969C75.5327 54.1435 76.0128 54.642 76.348 55.2926C76.6832 55.9432 76.8509 56.7216 76.8509 57.6278C76.8509 58.5369 76.6818 59.3182 76.3438 59.9716C76.0085 60.625 75.5241 61.1264 74.8906 61.4759C74.2599 61.8253 73.5014 62 72.6151 62ZM71.2386 60.6321H72.5384C73.1463 60.6321 73.6534 60.5213 74.0597 60.2997C74.4659 60.0753 74.7713 59.7415 74.9759 59.2983C75.1804 58.8523 75.2827 58.2955 75.2827 57.6278C75.2827 56.9602 75.1804 56.4062 74.9759 55.9659C74.7713 55.5227 74.4688 55.1918 74.0682 54.973C73.6705 54.7514 73.1761 54.6406 72.5852 54.6406H71.2386V60.6321ZM79.005 62H77.3175L80.3899 53.2727H82.3416L85.4183 62H83.7308L81.3999 55.0625H81.3317L79.005 62ZM79.0604 58.5781H83.6626V59.848H79.0604V58.5781ZM88.1488 53.2727V62H86.5678V53.2727H88.1488Z" fill="#575CFE"/>
<path d="M482.01 105.672C481.97 105.3 481.803 105.01 481.507 104.803C481.214 104.595 480.834 104.491 480.365 104.491C480.036 104.491 479.753 104.541 479.517 104.641C479.281 104.74 479.101 104.875 478.976 105.045C478.851 105.216 478.787 105.411 478.784 105.629C478.784 105.811 478.825 105.969 478.908 106.102C478.993 106.236 479.108 106.349 479.253 106.443C479.398 106.534 479.558 106.611 479.734 106.673C479.911 106.736 480.088 106.788 480.267 106.831L481.085 107.036C481.415 107.112 481.732 107.216 482.036 107.347C482.342 107.477 482.616 107.642 482.858 107.841C483.102 108.04 483.295 108.28 483.438 108.561C483.58 108.842 483.651 109.172 483.651 109.55C483.651 110.061 483.52 110.511 483.259 110.901C482.997 111.287 482.619 111.589 482.125 111.808C481.634 112.024 481.038 112.132 480.339 112.132C479.661 112.132 479.071 112.027 478.571 111.817C478.074 111.607 477.685 111.3 477.403 110.896C477.125 110.493 476.974 110.001 476.952 109.422H478.507C478.53 109.726 478.624 109.979 478.788 110.18C478.953 110.382 479.168 110.533 479.432 110.632C479.699 110.732 479.997 110.781 480.327 110.781C480.67 110.781 480.972 110.73 481.23 110.628C481.491 110.523 481.696 110.378 481.844 110.193C481.991 110.006 482.067 109.787 482.07 109.537C482.067 109.31 482 109.122 481.869 108.974C481.739 108.824 481.555 108.699 481.32 108.599C481.087 108.497 480.814 108.406 480.501 108.327L479.509 108.071C478.79 107.886 478.222 107.607 477.804 107.232C477.389 106.854 477.182 106.352 477.182 105.727C477.182 105.213 477.321 104.763 477.599 104.376C477.881 103.99 478.263 103.69 478.746 103.477C479.229 103.261 479.776 103.153 480.386 103.153C481.006 103.153 481.548 103.261 482.014 103.477C482.483 103.69 482.851 103.987 483.118 104.368C483.385 104.746 483.523 105.18 483.531 105.672H482.01ZM488.26 105.455V106.648H484.498V105.455H488.26ZM485.426 103.886H486.969V110.031C486.969 110.239 487 110.398 487.063 110.509C487.128 110.616 487.213 110.69 487.319 110.73C487.424 110.77 487.54 110.79 487.668 110.79C487.765 110.79 487.853 110.783 487.932 110.768C488.015 110.754 488.077 110.741 488.12 110.73L488.38 111.936C488.297 111.964 488.179 111.996 488.026 112.03C487.875 112.064 487.691 112.084 487.472 112.089C487.086 112.101 486.738 112.043 486.428 111.915C486.118 111.784 485.873 111.582 485.691 111.31C485.512 111.037 485.424 110.696 485.426 110.287V103.886ZM492.335 112.128C491.696 112.128 491.142 111.987 490.673 111.706C490.205 111.425 489.841 111.031 489.582 110.526C489.327 110.02 489.199 109.429 489.199 108.753C489.199 108.077 489.327 107.484 489.582 106.976C489.841 106.467 490.205 106.072 490.673 105.791C491.142 105.51 491.696 105.369 492.335 105.369C492.974 105.369 493.528 105.51 493.997 105.791C494.466 106.072 494.828 106.467 495.084 106.976C495.342 107.484 495.472 108.077 495.472 108.753C495.472 109.429 495.342 110.02 495.084 110.526C494.828 111.031 494.466 111.425 493.997 111.706C493.528 111.987 492.974 112.128 492.335 112.128ZM492.344 110.892C492.69 110.892 492.98 110.797 493.213 110.607C493.446 110.413 493.619 110.155 493.733 109.831C493.849 109.507 493.908 109.146 493.908 108.749C493.908 108.348 493.849 107.986 493.733 107.662C493.619 107.335 493.446 107.075 493.213 106.882C492.98 106.689 492.69 106.592 492.344 106.592C491.989 106.592 491.693 106.689 491.457 106.882C491.224 107.075 491.05 107.335 490.933 107.662C490.82 107.986 490.763 108.348 490.763 108.749C490.763 109.146 490.82 109.507 490.933 109.831C491.05 110.155 491.224 110.413 491.457 110.607C491.693 110.797 491.989 110.892 492.344 110.892ZM496.781 114.455V105.455H498.298V106.537H498.387C498.467 106.378 498.579 106.209 498.724 106.03C498.869 105.848 499.065 105.693 499.312 105.565C499.559 105.435 499.875 105.369 500.258 105.369C500.764 105.369 501.22 105.499 501.626 105.757C502.035 106.013 502.359 106.392 502.598 106.895C502.839 107.395 502.96 108.009 502.96 108.736C502.96 109.455 502.842 110.065 502.606 110.568C502.37 111.071 502.049 111.455 501.643 111.719C501.237 111.983 500.777 112.115 500.262 112.115C499.887 112.115 499.576 112.053 499.329 111.928C499.082 111.803 498.883 111.652 498.733 111.476C498.585 111.297 498.47 111.128 498.387 110.969H498.324V114.455H496.781ZM498.294 108.727C498.294 109.151 498.353 109.521 498.473 109.839C498.595 110.158 498.77 110.406 498.997 110.585C499.227 110.761 499.505 110.849 499.832 110.849C500.173 110.849 500.458 110.759 500.689 110.577C500.919 110.392 501.092 110.141 501.208 109.822C501.328 109.501 501.387 109.136 501.387 108.727C501.387 108.321 501.329 107.96 501.213 107.645C501.096 107.33 500.923 107.082 500.693 106.903C500.463 106.724 500.176 106.635 499.832 106.635C499.502 106.635 499.223 106.722 498.993 106.895C498.762 107.068 498.588 107.311 498.468 107.624C498.352 107.936 498.294 108.304 498.294 108.727ZM507.326 112V103.273H508.907V110.675H512.75V112H507.326ZM516.909 112.128C516.27 112.128 515.716 111.987 515.248 111.706C514.779 111.425 514.415 111.031 514.157 110.526C513.901 110.02 513.773 109.429 513.773 108.753C513.773 108.077 513.901 107.484 514.157 106.976C514.415 106.467 514.779 106.072 515.248 105.791C515.716 105.51 516.27 105.369 516.909 105.369C517.549 105.369 518.103 105.51 518.571 105.791C519.04 106.072 519.402 106.467 519.658 106.976C519.917 107.484 520.046 108.077 520.046 108.753C520.046 109.429 519.917 110.02 519.658 110.526C519.402 111.031 519.04 111.425 518.571 111.706C518.103 111.987 517.549 112.128 516.909 112.128ZM516.918 110.892C517.265 110.892 517.554 110.797 517.787 110.607C518.02 110.413 518.194 110.155 518.307 109.831C518.424 109.507 518.482 109.146 518.482 108.749C518.482 108.348 518.424 107.986 518.307 107.662C518.194 107.335 518.02 107.075 517.787 106.882C517.554 106.689 517.265 106.592 516.918 106.592C516.563 106.592 516.267 106.689 516.032 106.882C515.799 107.075 515.624 107.335 515.507 107.662C515.394 107.986 515.337 108.348 515.337 108.749C515.337 109.146 515.394 109.507 515.507 109.831C515.624 110.155 515.799 110.413 516.032 110.607C516.267 110.797 516.563 110.892 516.918 110.892ZM526.528 107.185L525.122 107.338C525.082 107.196 525.013 107.062 524.913 106.938C524.817 106.812 524.686 106.712 524.521 106.635C524.357 106.558 524.155 106.52 523.916 106.52C523.595 106.52 523.325 106.589 523.107 106.729C522.891 106.868 522.784 107.048 522.787 107.27C522.784 107.46 522.854 107.615 522.996 107.734C523.141 107.854 523.379 107.952 523.712 108.028L524.828 108.267C525.447 108.401 525.908 108.612 526.209 108.902C526.513 109.192 526.666 109.571 526.669 110.04C526.666 110.452 526.545 110.815 526.307 111.131C526.071 111.443 525.743 111.687 525.322 111.864C524.902 112.04 524.419 112.128 523.874 112.128C523.072 112.128 522.428 111.96 521.939 111.625C521.45 111.287 521.159 110.817 521.065 110.214L522.57 110.07C522.638 110.365 522.783 110.588 523.004 110.739C523.226 110.889 523.514 110.964 523.869 110.964C524.236 110.964 524.53 110.889 524.751 110.739C524.976 110.588 525.088 110.402 525.088 110.18C525.088 109.993 525.016 109.838 524.871 109.716C524.729 109.594 524.507 109.5 524.206 109.435L523.089 109.2C522.462 109.07 521.997 108.849 521.696 108.54C521.395 108.227 521.246 107.832 521.249 107.355C521.246 106.952 521.355 106.602 521.577 106.307C521.801 106.009 522.112 105.778 522.51 105.616C522.911 105.452 523.372 105.369 523.895 105.369C524.662 105.369 525.266 105.533 525.706 105.859C526.149 106.186 526.423 106.628 526.528 107.185ZM533.114 107.185L531.708 107.338C531.668 107.196 531.599 107.062 531.499 106.938C531.403 106.812 531.272 106.712 531.107 106.635C530.942 106.558 530.741 106.52 530.502 106.52C530.181 106.52 529.911 106.589 529.692 106.729C529.477 106.868 529.37 107.048 529.373 107.27C529.37 107.46 529.44 107.615 529.582 107.734C529.727 107.854 529.965 107.952 530.298 108.028L531.414 108.267C532.033 108.401 532.494 108.612 532.795 108.902C533.099 109.192 533.252 109.571 533.255 110.04C533.252 110.452 533.131 110.815 532.893 111.131C532.657 111.443 532.329 111.687 531.908 111.864C531.488 112.04 531.005 112.128 530.46 112.128C529.658 112.128 529.013 111.96 528.525 111.625C528.036 111.287 527.745 110.817 527.651 110.214L529.156 110.07C529.224 110.365 529.369 110.588 529.59 110.739C529.812 110.889 530.1 110.964 530.455 110.964C530.822 110.964 531.116 110.889 531.337 110.739C531.562 110.588 531.674 110.402 531.674 110.18C531.674 109.993 531.602 109.838 531.457 109.716C531.315 109.594 531.093 109.5 530.792 109.435L529.675 109.2C529.048 109.07 528.583 108.849 528.282 108.54C527.981 108.227 527.832 107.832 527.835 107.355C527.832 106.952 527.941 106.602 528.163 106.307C528.387 106.009 528.698 105.778 529.096 105.616C529.496 105.452 529.958 105.369 530.481 105.369C531.248 105.369 531.852 105.533 532.292 105.859C532.735 106.186 533.009 106.628 533.114 107.185ZM537.572 112V103.273H539.153V110.675H542.996V112H537.572ZM542.872 104.598V103.273H549.835V104.598H547.137V112H545.569V104.598H542.872ZM552.345 103.273L554.616 110.142H554.706L556.973 103.273H558.711L555.635 112H553.683L550.61 103.273H552.345Z" fill="#575CFE"/>
<path d="M428.5 170.5C401.053 169.501 412.93 139 388 139C363.07 139 365.045 206 306 206L211.135 178.218H137" stroke="#C3C9FC" stroke-width="2" stroke-linecap="round" stroke-dasharray="3.94 11.81"/>
<circle cx="426" cy="170" r="3" transform="rotate(-180 426 170)" fill="#17344F"/>
<circle cx="310" cy="206" r="3" transform="rotate(-180 310 206)" fill="#17344F"/>
<path d="M137 121V173" stroke="#B6BDC2" stroke-width="2" stroke-dasharray="2.62 7.87"/>
<path d="M231.091 35V26.2727H234.364C235.034 26.2727 235.597 26.3977 236.051 26.6477C236.509 26.8977 236.854 27.2415 237.087 27.679C237.323 28.1136 237.441 28.608 237.441 29.1619C237.441 29.7216 237.323 30.2187 237.087 30.6534C236.851 31.0881 236.503 31.4304 236.043 31.6804C235.583 31.9276 235.016 32.0511 234.343 32.0511H232.174V30.7514H234.13C234.522 30.7514 234.843 30.6832 235.093 30.5469C235.343 30.4105 235.527 30.223 235.647 29.9844C235.769 29.7457 235.83 29.4716 235.83 29.1619C235.83 28.8523 235.769 28.5795 235.647 28.3438C235.527 28.108 235.341 27.9247 235.088 27.794C234.838 27.6605 234.516 27.5938 234.121 27.5938H232.672V35H231.091ZM238.746 35V28.4545H240.241V29.5455H240.31C240.429 29.1676 240.634 28.8764 240.923 28.6719C241.216 28.4645 241.55 28.3608 241.925 28.3608C242.01 28.3608 242.105 28.3651 242.21 28.3736C242.318 28.3793 242.408 28.3892 242.479 28.4034V29.8224C242.413 29.7997 242.31 29.7798 242.168 29.7628C242.028 29.7429 241.893 29.733 241.763 29.733C241.482 29.733 241.229 29.794 241.004 29.9162C240.783 30.0355 240.608 30.2017 240.48 30.4148C240.352 30.6278 240.288 30.8736 240.288 31.152V35H238.746ZM243.504 35V28.4545H245.046V35H243.504ZM244.279 27.5256C244.035 27.5256 243.825 27.4446 243.648 27.2827C243.472 27.1179 243.384 26.9205 243.384 26.6903C243.384 26.4574 243.472 26.2599 243.648 26.098C243.825 25.9332 244.035 25.8509 244.279 25.8509C244.526 25.8509 244.737 25.9332 244.91 26.098C245.086 26.2599 245.174 26.4574 245.174 26.6903C245.174 26.9205 245.086 27.1179 244.91 27.2827C244.737 27.4446 244.526 27.5256 244.279 27.5256ZM249.488 35.1278C248.834 35.1278 248.273 34.9844 247.804 34.6974C247.338 34.4105 246.979 34.0142 246.726 33.5085C246.476 33 246.351 32.4148 246.351 31.7528C246.351 31.0881 246.479 30.5014 246.735 29.9929C246.99 29.4815 247.351 29.0838 247.817 28.7997C248.286 28.5128 248.84 28.3693 249.479 28.3693C250.01 28.3693 250.48 28.4673 250.89 28.6634C251.301 28.8565 251.63 29.1307 251.874 29.4858C252.118 29.8381 252.257 30.25 252.292 30.7216H250.817C250.757 30.4062 250.615 30.1435 250.391 29.9332C250.169 29.7202 249.873 29.6136 249.5 29.6136C249.185 29.6136 248.908 29.6989 248.669 29.8693C248.431 30.0369 248.245 30.2784 248.111 30.5938C247.98 30.9091 247.915 31.2869 247.915 31.7273C247.915 32.1733 247.98 32.5568 248.111 32.8778C248.242 33.196 248.425 33.4418 248.661 33.6151C248.9 33.7855 249.179 33.8707 249.5 33.8707C249.728 33.8707 249.931 33.8281 250.11 33.7429C250.292 33.6548 250.444 33.5284 250.566 33.3636C250.688 33.1989 250.772 32.9986 250.817 32.7628H252.292C252.255 33.2259 252.118 33.6364 251.882 33.9943C251.647 34.3494 251.326 34.6278 250.919 34.8295C250.513 35.0284 250.036 35.1278 249.488 35.1278ZM256.456 35.1278C255.8 35.1278 255.233 34.9915 254.756 34.7188C254.281 34.4432 253.916 34.054 253.661 33.5511C253.405 33.0455 253.277 32.4503 253.277 31.7656C253.277 31.0923 253.405 30.5014 253.661 29.9929C253.919 29.4815 254.28 29.0838 254.743 28.7997C255.206 28.5128 255.75 28.3693 256.375 28.3693C256.778 28.3693 257.159 28.4347 257.517 28.5653C257.878 28.6932 258.196 28.892 258.472 29.1619C258.75 29.4318 258.969 29.7756 259.128 30.1932C259.287 30.608 259.366 31.1023 259.366 31.6761V32.1491H254.001V31.1094H257.888C257.885 30.8139 257.821 30.5511 257.696 30.321C257.571 30.0881 257.396 29.9048 257.172 29.7713C256.95 29.6378 256.692 29.571 256.396 29.571C256.081 29.571 255.804 29.6477 255.565 29.8011C255.327 29.9517 255.141 30.1506 255.007 30.3977C254.876 30.642 254.81 30.9105 254.807 31.2031V32.1108C254.807 32.4915 254.876 32.8182 255.016 33.0909C255.155 33.3608 255.349 33.5682 255.599 33.7131C255.849 33.8551 256.142 33.9261 256.477 33.9261C256.702 33.9261 256.905 33.8949 257.087 33.8324C257.268 33.767 257.426 33.6719 257.56 33.5469C257.693 33.4219 257.794 33.267 257.862 33.0824L259.303 33.2443C259.212 33.625 259.038 33.9574 258.783 34.2415C258.53 34.5227 258.206 34.7415 257.811 34.8977C257.416 35.0511 256.964 35.1278 256.456 35.1278ZM266.917 28.4545V29.6477H263.154V28.4545H266.917ZM264.083 26.8864H265.625V33.0312C265.625 33.2386 265.657 33.3977 265.719 33.5085C265.784 33.6165 265.87 33.6903 265.975 33.7301C266.08 33.7699 266.196 33.7898 266.324 33.7898C266.421 33.7898 266.509 33.7827 266.588 33.7685C266.671 33.7543 266.733 33.7415 266.776 33.7301L267.036 34.9361C266.953 34.9645 266.836 34.9957 266.682 35.0298C266.532 35.0639 266.347 35.0838 266.128 35.0895C265.742 35.1009 265.394 35.0426 265.084 34.9148C264.775 34.7841 264.529 34.5824 264.347 34.3097C264.168 34.0369 264.08 33.696 264.083 33.2869V26.8864ZM270.991 35.1278C270.352 35.1278 269.798 34.9872 269.33 34.706C268.861 34.4247 268.497 34.0312 268.239 33.5256C267.983 33.0199 267.855 32.429 267.855 31.7528C267.855 31.0767 267.983 30.4844 268.239 29.9759C268.497 29.4673 268.861 29.0724 269.33 28.7912C269.798 28.5099 270.352 28.3693 270.991 28.3693C271.631 28.3693 272.185 28.5099 272.653 28.7912C273.122 29.0724 273.484 29.4673 273.74 29.9759C273.999 30.4844 274.128 31.0767 274.128 31.7528C274.128 32.429 273.999 33.0199 273.74 33.5256C273.484 34.0312 273.122 34.4247 272.653 34.706C272.185 34.9872 271.631 35.1278 270.991 35.1278ZM271 33.892C271.347 33.892 271.636 33.7969 271.869 33.6065C272.102 33.4134 272.276 33.1548 272.389 32.831C272.506 32.5071 272.564 32.1463 272.564 31.7486C272.564 31.348 272.506 30.9858 272.389 30.6619C272.276 30.3352 272.102 30.0753 271.869 29.8821C271.636 29.6889 271.347 29.5923 271 29.5923C270.645 29.5923 270.349 29.6889 270.114 29.8821C269.881 30.0753 269.706 30.3352 269.589 30.6619C269.476 30.9858 269.419 31.348 269.419 31.7486C269.419 32.1463 269.476 32.5071 269.589 32.831C269.706 33.1548 269.881 33.4134 270.114 33.6065C270.349 33.7969 270.645 33.892 271 33.892ZM283.587 30.1847L282.181 30.3381C282.141 30.196 282.071 30.0625 281.972 29.9375C281.875 29.8125 281.745 29.7116 281.58 29.6349C281.415 29.5582 281.213 29.5199 280.975 29.5199C280.654 29.5199 280.384 29.5895 280.165 29.7287C279.949 29.8679 279.843 30.0483 279.846 30.2699C279.843 30.4602 279.912 30.6151 280.054 30.7344C280.199 30.8537 280.438 30.9517 280.77 31.0284L281.887 31.267C282.506 31.4006 282.966 31.6122 283.267 31.902C283.571 32.1918 283.725 32.571 283.728 33.0398C283.725 33.4517 283.604 33.8153 283.365 34.1307C283.13 34.4432 282.801 34.6875 282.381 34.8636C281.961 35.0398 281.478 35.1278 280.932 35.1278C280.131 35.1278 279.486 34.9602 278.998 34.625C278.509 34.2869 278.218 33.8168 278.124 33.2145L279.628 33.0696C279.696 33.3651 279.841 33.5881 280.063 33.7386C280.284 33.8892 280.573 33.9645 280.928 33.9645C281.294 33.9645 281.588 33.8892 281.81 33.7386C282.034 33.5881 282.147 33.402 282.147 33.1804C282.147 32.9929 282.074 32.8381 281.929 32.7159C281.787 32.5937 281.566 32.5 281.265 32.4347L280.148 32.2003C279.52 32.0696 279.056 31.8494 278.755 31.5398C278.453 31.2273 278.304 30.8324 278.307 30.3551C278.304 29.9517 278.414 29.6023 278.635 29.3068C278.86 29.0085 279.171 28.7784 279.569 28.6165C279.969 28.4517 280.431 28.3693 280.953 28.3693C281.721 28.3693 282.324 28.5327 282.765 28.8594C283.208 29.1861 283.482 29.6278 283.587 30.1847ZM288.268 28.4545V29.6477H284.505V28.4545H288.268ZM285.434 26.8864H286.977V33.0312C286.977 33.2386 287.008 33.3977 287.071 33.5085C287.136 33.6165 287.221 33.6903 287.326 33.7301C287.431 33.7699 287.548 33.7898 287.676 33.7898C287.772 33.7898 287.86 33.7827 287.94 33.7685C288.022 33.7543 288.085 33.7415 288.127 33.7301L288.387 34.9361C288.305 34.9645 288.187 34.9957 288.034 35.0298C287.883 35.0639 287.699 35.0838 287.48 35.0895C287.093 35.1009 286.745 35.0426 286.436 34.9148C286.126 34.7841 285.88 34.5824 285.699 34.3097C285.52 34.0369 285.431 33.696 285.434 33.2869V26.8864ZM291.442 35.1321C291.027 35.1321 290.653 35.0582 290.321 34.9105C289.991 34.7599 289.73 34.5384 289.537 34.2457C289.347 33.9531 289.251 33.5923 289.251 33.1634C289.251 32.794 289.32 32.4886 289.456 32.2472C289.592 32.0057 289.778 31.8125 290.014 31.6676C290.25 31.5227 290.516 31.4134 290.811 31.3395C291.109 31.2628 291.418 31.2074 291.736 31.1733C292.119 31.1335 292.43 31.098 292.669 31.0668C292.908 31.0327 293.081 30.9815 293.189 30.9134C293.3 30.8423 293.355 30.733 293.355 30.5852V30.5597C293.355 30.2386 293.26 29.9901 293.07 29.8139C292.879 29.6378 292.605 29.5497 292.247 29.5497C291.869 29.5497 291.57 29.6321 291.348 29.7969C291.129 29.9616 290.982 30.1562 290.905 30.3807L289.464 30.1761C289.578 29.7784 289.766 29.446 290.027 29.179C290.288 28.9091 290.608 28.7074 290.986 28.5739C291.364 28.4375 291.781 28.3693 292.239 28.3693C292.554 28.3693 292.868 28.4062 293.18 28.4801C293.493 28.554 293.778 28.6761 294.037 28.8466C294.295 29.0142 294.503 29.2429 294.659 29.5327C294.818 29.8224 294.898 30.1847 294.898 30.6193V35H293.415V34.1009H293.364C293.27 34.2827 293.138 34.4531 292.967 34.6122C292.8 34.7685 292.588 34.8949 292.332 34.9915C292.08 35.0852 291.783 35.1321 291.442 35.1321ZM291.842 33.9986C292.152 33.9986 292.42 33.9375 292.648 33.8153C292.875 33.6903 293.05 33.5256 293.172 33.321C293.297 33.1165 293.359 32.8935 293.359 32.652V31.8807C293.311 31.9205 293.229 31.9574 293.112 31.9915C292.999 32.0256 292.871 32.0554 292.729 32.081C292.587 32.1065 292.446 32.1293 292.307 32.1491C292.168 32.169 292.047 32.1861 291.945 32.2003C291.714 32.2315 291.509 32.2827 291.327 32.3537C291.145 32.4247 291.001 32.5241 290.896 32.652C290.791 32.777 290.739 32.9389 290.739 33.1378C290.739 33.4219 290.842 33.6364 291.05 33.7812C291.257 33.9261 291.521 33.9986 291.842 33.9986ZM296.449 35V28.4545H297.945V29.5455H298.013C298.132 29.1676 298.337 28.8764 298.626 28.6719C298.919 28.4645 299.253 28.3608 299.628 28.3608C299.713 28.3608 299.808 28.3651 299.913 28.3736C300.021 28.3793 300.111 28.3892 300.182 28.4034V29.8224C300.116 29.7997 300.013 29.7798 299.871 29.7628C299.732 29.7429 299.597 29.733 299.466 29.733C299.185 29.733 298.932 29.794 298.707 29.9162C298.486 30.0355 298.311 30.2017 298.183 30.4148C298.055 30.6278 297.991 30.8736 297.991 31.152V35H296.449ZM304.827 28.4545V29.6477H301.064V28.4545H304.827ZM301.993 26.8864H303.536V33.0312C303.536 33.2386 303.567 33.3977 303.629 33.5085C303.695 33.6165 303.78 33.6903 303.885 33.7301C303.99 33.7699 304.107 33.7898 304.234 33.7898C304.331 33.7898 304.419 33.7827 304.499 33.7685C304.581 33.7543 304.643 33.7415 304.686 33.7301L304.946 34.9361C304.864 34.9645 304.746 34.9957 304.592 35.0298C304.442 35.0639 304.257 35.0838 304.038 35.0895C303.652 35.1009 303.304 35.0426 302.994 34.9148C302.685 34.7841 302.439 34.5824 302.257 34.3097C302.078 34.0369 301.99 33.696 301.993 33.2869V26.8864ZM312.362 28.4545V29.6477H308.599V28.4545H312.362ZM309.528 26.8864H311.071V33.0312C311.071 33.2386 311.102 33.3977 311.164 33.5085C311.23 33.6165 311.315 33.6903 311.42 33.7301C311.525 33.7699 311.642 33.7898 311.77 33.7898C311.866 33.7898 311.954 33.7827 312.034 33.7685C312.116 33.7543 312.179 33.7415 312.221 33.7301L312.481 34.9361C312.399 34.9645 312.281 34.9957 312.127 35.0298C311.977 35.0639 311.792 35.0838 311.574 35.0895C311.187 35.1009 310.839 35.0426 310.529 34.9148C310.22 34.7841 309.974 34.5824 309.792 34.3097C309.613 34.0369 309.525 33.696 309.528 33.2869V26.8864ZM315.536 35.1321C315.121 35.1321 314.747 35.0582 314.415 34.9105C314.085 34.7599 313.824 34.5384 313.631 34.2457C313.44 33.9531 313.345 33.5923 313.345 33.1634C313.345 32.794 313.413 32.4886 313.55 32.2472C313.686 32.0057 313.872 31.8125 314.108 31.6676C314.344 31.5227 314.609 31.4134 314.905 31.3395C315.203 31.2628 315.511 31.2074 315.83 31.1733C316.213 31.1335 316.524 31.098 316.763 31.0668C317.001 31.0327 317.175 30.9815 317.283 30.9134C317.393 30.8423 317.449 30.733 317.449 30.5852V30.5597C317.449 30.2386 317.354 29.9901 317.163 29.8139C316.973 29.6378 316.699 29.5497 316.341 29.5497C315.963 29.5497 315.663 29.6321 315.442 29.7969C315.223 29.9616 315.075 30.1562 314.999 30.3807L313.558 30.1761C313.672 29.7784 313.859 29.446 314.121 29.179C314.382 28.9091 314.702 28.7074 315.08 28.5739C315.457 28.4375 315.875 28.3693 316.332 28.3693C316.648 28.3693 316.962 28.4062 317.274 28.4801C317.587 28.554 317.872 28.6761 318.131 28.8466C318.389 29.0142 318.597 29.2429 318.753 29.5327C318.912 29.8224 318.991 30.1847 318.991 30.6193V35H317.509V34.1009H317.457C317.364 34.2827 317.232 34.4531 317.061 34.6122C316.893 34.7685 316.682 34.8949 316.426 34.9915C316.173 35.0852 315.876 35.1321 315.536 35.1321ZM315.936 33.9986C316.246 33.9986 316.514 33.9375 316.741 33.8153C316.969 33.6903 317.143 33.5256 317.266 33.321C317.391 33.1165 317.453 32.8935 317.453 32.652V31.8807C317.405 31.9205 317.322 31.9574 317.206 31.9915C317.092 32.0256 316.964 32.0554 316.822 32.081C316.68 32.1065 316.54 32.1293 316.401 32.1491C316.261 32.169 316.141 32.1861 316.038 32.2003C315.808 32.2315 315.602 32.2827 315.42 32.3537C315.239 32.4247 315.095 32.5241 314.99 32.652C314.885 32.777 314.832 32.9389 314.832 33.1378C314.832 33.4219 314.936 33.6364 315.143 33.7812C315.351 33.9261 315.615 33.9986 315.936 33.9986ZM321.949 32.946L321.945 31.0838H322.192L324.544 28.4545H326.347L323.453 31.6761H323.134L321.949 32.946ZM320.543 35V26.2727H322.085V35H320.543ZM324.651 35L322.52 32.0213L323.56 30.9347L326.496 35H324.651ZM327.375 35V28.4545H328.917V35H327.375ZM328.15 27.5256C327.906 27.5256 327.696 27.4446 327.52 27.2827C327.343 27.1179 327.255 26.9205 327.255 26.6903C327.255 26.4574 327.343 26.2599 327.52 26.098C327.696 25.9332 327.906 25.8509 328.15 25.8509C328.397 25.8509 328.608 25.9332 328.781 26.098C328.957 26.2599 329.045 26.4574 329.045 26.6903C329.045 26.9205 328.957 27.1179 328.781 27.2827C328.608 27.4446 328.397 27.5256 328.15 27.5256ZM332.046 31.1648V35H330.504V28.4545H331.978V29.5668H332.055C332.205 29.2003 332.445 28.9091 332.775 28.6932C333.107 28.4773 333.518 28.3693 334.006 28.3693C334.458 28.3693 334.852 28.4659 335.187 28.6591C335.525 28.8523 335.786 29.1321 335.971 29.4986C336.158 29.8651 336.251 30.3097 336.248 30.8324V35H334.705V31.071C334.705 30.6335 334.592 30.2912 334.364 30.044C334.14 29.7969 333.829 29.6733 333.431 29.6733C333.161 29.6733 332.921 29.733 332.711 29.8523C332.504 29.9687 332.34 30.1378 332.221 30.3594C332.104 30.581 332.046 30.8494 332.046 31.1648ZM340.663 37.5909C340.109 37.5909 339.633 37.5156 339.235 37.3651C338.837 37.2173 338.518 37.0185 338.276 36.7685C338.035 36.5185 337.867 36.2415 337.773 35.9375L339.163 35.6009C339.225 35.7287 339.316 35.8551 339.435 35.9801C339.555 36.108 339.715 36.2131 339.917 36.2955C340.121 36.3807 340.379 36.4233 340.688 36.4233C341.126 36.4233 341.488 36.3168 341.775 36.1037C342.062 35.8935 342.205 35.5469 342.205 35.0639V33.8239H342.129C342.049 33.983 341.933 34.1463 341.779 34.3139C341.629 34.4815 341.428 34.6222 341.178 34.7358C340.931 34.8494 340.62 34.9062 340.245 34.9062C339.742 34.9062 339.286 34.7884 338.877 34.5526C338.471 34.3139 338.147 33.9588 337.906 33.4872C337.667 33.0128 337.548 32.419 337.548 31.706C337.548 30.9872 337.667 30.3807 337.906 29.8864C338.147 29.3892 338.472 29.0128 338.881 28.7571C339.29 28.4986 339.746 28.3693 340.249 28.3693C340.633 28.3693 340.948 28.4347 341.195 28.5653C341.445 28.6932 341.644 28.848 341.792 29.0298C341.94 29.2088 342.052 29.3778 342.129 29.5369H342.214V28.4545H343.735V35.1065C343.735 35.6662 343.602 36.1293 343.335 36.4957C343.067 36.8622 342.702 37.1364 342.239 37.3182C341.776 37.5 341.251 37.5909 340.663 37.5909ZM340.675 33.696C341.002 33.696 341.281 33.6165 341.511 33.4574C341.741 33.2983 341.915 33.0696 342.035 32.7713C342.154 32.473 342.214 32.1151 342.214 31.6974C342.214 31.2855 342.154 30.9247 342.035 30.6151C341.918 30.3054 341.745 30.0653 341.515 29.8949C341.288 29.7216 341.008 29.6349 340.675 29.6349C340.332 29.6349 340.045 29.7244 339.815 29.9034C339.585 30.0824 339.411 30.3281 339.295 30.6406C339.178 30.9503 339.12 31.3026 339.12 31.6974C339.12 32.098 339.178 32.4489 339.295 32.75C339.414 33.0483 339.589 33.2812 339.819 33.4489C340.052 33.6136 340.337 33.696 340.675 33.696ZM348.293 37.4545V28.4545H349.81V29.5369H349.899C349.979 29.3778 350.091 29.2088 350.236 29.0298C350.381 28.848 350.577 28.6932 350.824 28.5653C351.071 28.4347 351.386 28.3693 351.77 28.3693C352.276 28.3693 352.732 28.4986 353.138 28.7571C353.547 29.0128 353.871 29.392 354.109 29.8949C354.351 30.3949 354.472 31.0085 354.472 31.7358C354.472 32.4545 354.354 33.0653 354.118 33.5682C353.882 34.071 353.561 34.4545 353.155 34.7188C352.749 34.983 352.288 35.1151 351.774 35.1151C351.399 35.1151 351.088 35.0526 350.841 34.9276C350.594 34.8026 350.395 34.652 350.244 34.4759C350.097 34.2969 349.982 34.1278 349.899 33.9688H349.835V37.4545H348.293ZM349.805 31.7273C349.805 32.1506 349.865 32.5213 349.984 32.8395C350.107 33.1577 350.281 33.4062 350.509 33.5852C350.739 33.7614 351.017 33.8494 351.344 33.8494C351.685 33.8494 351.97 33.7585 352.2 33.5767C352.43 33.392 352.604 33.1406 352.72 32.8224C352.839 32.5014 352.899 32.1364 352.899 31.7273C352.899 31.321 352.841 30.9602 352.724 30.6449C352.608 30.3295 352.435 30.0824 352.205 29.9034C351.974 29.7244 351.688 29.6349 351.344 29.6349C351.014 29.6349 350.734 29.7216 350.504 29.8949C350.274 30.0682 350.099 30.3111 349.98 30.6236C349.864 30.9361 349.805 31.304 349.805 31.7273ZM355.793 35V28.4545H357.288V29.5455H357.357C357.476 29.1676 357.68 28.8764 357.97 28.6719C358.263 28.4645 358.597 28.3608 358.972 28.3608C359.057 28.3608 359.152 28.3651 359.257 28.3736C359.365 28.3793 359.455 28.3892 359.526 28.4034V29.8224C359.46 29.7997 359.357 29.7798 359.214 29.7628C359.075 29.7429 358.94 29.733 358.81 29.733C358.528 29.733 358.276 29.794 358.051 29.9162C357.83 30.0355 357.655 30.2017 357.527 30.4148C357.399 30.6278 357.335 30.8736 357.335 31.152V35H355.793ZM363.136 35.1278C362.497 35.1278 361.943 34.9872 361.474 34.706C361.005 34.4247 360.642 34.0312 360.383 33.5256C360.127 33.0199 360 32.429 360 31.7528C360 31.0767 360.127 30.4844 360.383 29.9759C360.642 29.4673 361.005 29.0724 361.474 28.7912C361.943 28.5099 362.497 28.3693 363.136 28.3693C363.775 28.3693 364.329 28.5099 364.798 28.7912C365.267 29.0724 365.629 29.4673 365.885 29.9759C366.143 30.4844 366.272 31.0767 366.272 31.7528C366.272 32.429 366.143 33.0199 365.885 33.5256C365.629 34.0312 365.267 34.4247 364.798 34.706C364.329 34.9872 363.775 35.1278 363.136 35.1278ZM363.145 33.892C363.491 33.892 363.781 33.7969 364.014 33.6065C364.247 33.4134 364.42 33.1548 364.534 32.831C364.65 32.5071 364.708 32.1463 364.708 31.7486C364.708 31.348 364.65 30.9858 364.534 30.6619C364.42 30.3352 364.247 30.0753 364.014 29.8821C363.781 29.6889 363.491 29.5923 363.145 29.5923C362.789 29.5923 362.494 29.6889 362.258 29.8821C362.025 30.0753 361.85 30.3352 361.734 30.6619C361.62 30.9858 361.564 31.348 361.564 31.7486C361.564 32.1463 361.62 32.5071 361.734 32.831C361.85 33.1548 362.025 33.4134 362.258 33.6065C362.494 33.7969 362.789 33.892 363.145 33.892ZM370.897 28.4545V29.6477H367.028V28.4545H370.897ZM367.995 35V27.8366C367.995 27.3963 368.086 27.0298 368.268 26.7372C368.452 26.4446 368.7 26.2259 369.009 26.081C369.319 25.9361 369.663 25.8636 370.04 25.8636C370.308 25.8636 370.545 25.8849 370.752 25.9276C370.96 25.9702 371.113 26.0085 371.212 26.0426L370.906 27.2358C370.84 27.2159 370.758 27.196 370.658 27.1761C370.559 27.1534 370.448 27.142 370.326 27.142C370.039 27.142 369.836 27.2116 369.717 27.3509C369.6 27.4872 369.542 27.6832 369.542 27.9389V35H367.995ZM372.105 35V28.4545H373.648V35H372.105ZM372.881 27.5256C372.636 27.5256 372.426 27.4446 372.25 27.2827C372.074 27.1179 371.986 26.9205 371.986 26.6903C371.986 26.4574 372.074 26.2599 372.25 26.098C372.426 25.9332 372.636 25.8509 372.881 25.8509C373.128 25.8509 373.338 25.9332 373.511 26.098C373.688 26.2599 373.776 26.4574 373.776 26.6903C373.776 26.9205 373.688 27.1179 373.511 27.2827C373.338 27.4446 373.128 27.5256 372.881 27.5256ZM378.502 28.4545V29.6477H374.74V28.4545H378.502ZM375.669 26.8864H377.211V33.0312C377.211 33.2386 377.243 33.3977 377.305 33.5085C377.37 33.6165 377.456 33.6903 377.561 33.7301C377.666 33.7699 377.782 33.7898 377.91 33.7898C378.007 33.7898 378.095 33.7827 378.174 33.7685C378.257 33.7543 378.319 33.7415 378.362 33.7301L378.622 34.9361C378.539 34.9645 378.422 34.9957 378.268 35.0298C378.118 35.0639 377.933 35.0838 377.714 35.0895C377.328 35.1009 376.98 35.0426 376.67 34.9148C376.36 34.7841 376.115 34.5824 375.933 34.3097C375.754 34.0369 375.666 33.696 375.669 33.2869V26.8864Z" fill="#596F78"/>
<path d="M140 115C140 115 221.992 115 255.609 115C289.226 115 276.902 55.5799 312.184 56.6429C346.487 57.6763 333.502 115 364.659 115C395.816 115 412.215 1 486.008 1C559.801 1 568 79.7143 568 79.7143" stroke="#5FC4B9" stroke-width="2"/>
<path d="M568.213 80.1582L576.742 162.166" stroke="#A8A9B1" stroke-width="2" stroke-dasharray="3.94 11.81"/>
<circle cx="136.875" cy="115" r="3" fill="#1AAB9B"/>
<circle cx="388" cy="95" r="3" fill="#1AAB9B"/>
<circle cx="407" cy="63" r="3" fill="#1AAB9B"/>
<circle cx="421" cy="41" r="3" fill="#1AAB9B"/>
<circle cx="441" cy="18" r="3" fill="#1AAB9B"/>
<circle cx="469" cy="4" r="3" fill="#1AAB9B"/>
<circle opacity="0.1" cx="568.125" cy="80" r="9" fill="#575CFE"/>
<circle cx="568" cy="110" r="5" fill="#575CFE"/>
<path d="M8.52237 111.217H6.92862C6.88317 110.956 6.79936 110.724 6.6772 110.523C6.55504 110.318 6.40305 110.145 6.22124 110.003C6.03942 109.861 5.83203 109.754 5.59908 109.683C5.36896 109.609 5.12038 109.572 4.85334 109.572C4.37891 109.572 3.95845 109.692 3.59197 109.93C3.2255 110.166 2.93857 110.513 2.73118 110.97C2.52379 111.425 2.4201 111.98 2.4201 112.636C2.4201 113.304 2.52379 113.866 2.73118 114.324C2.94141 114.778 3.22834 115.122 3.59197 115.355C3.95845 115.585 4.37749 115.7 4.84908 115.7C5.11044 115.7 5.35476 115.666 5.58203 115.598C5.81214 115.527 6.01811 115.423 6.19993 115.287C6.38459 115.151 6.53942 114.983 6.66442 114.784C6.79226 114.585 6.88033 114.358 6.92862 114.102L8.52237 114.111C8.46271 114.526 8.33345 114.915 8.13459 115.278C7.93857 115.642 7.68146 115.963 7.36328 116.241C7.0451 116.517 6.67294 116.733 6.2468 116.889C5.82067 117.043 5.34766 117.119 4.82777 117.119C4.06072 117.119 3.37607 116.942 2.77379 116.587C2.17152 116.232 1.69709 115.719 1.3505 115.048C1.00391 114.378 0.830611 113.574 0.830611 112.636C0.830611 111.696 1.00533 110.892 1.35476 110.224C1.70419 109.554 2.18004 109.041 2.78232 108.686C3.38459 108.331 4.06641 108.153 4.82777 108.153C5.31357 108.153 5.76527 108.222 6.18288 108.358C6.6005 108.494 6.97266 108.695 7.29936 108.959C7.62607 109.22 7.89453 109.541 8.10476 109.922C8.31783 110.3 8.45703 110.732 8.52237 111.217ZM14.0739 114.247V110.455H15.6165V117H14.1207V115.837H14.0526C13.9048 116.203 13.6619 116.503 13.3239 116.736C12.9886 116.969 12.5753 117.085 12.0838 117.085C11.6548 117.085 11.2756 116.99 10.946 116.8C10.6193 116.607 10.3636 116.327 10.179 115.96C9.99432 115.591 9.90199 115.145 9.90199 114.622V110.455H11.4446V114.384C11.4446 114.798 11.5582 115.128 11.7855 115.372C12.0128 115.616 12.3111 115.739 12.6804 115.739C12.9077 115.739 13.1278 115.683 13.3409 115.572C13.554 115.462 13.7287 115.297 13.8651 115.078C14.0043 114.857 14.0739 114.58 14.0739 114.247ZM17.2028 117V110.455H18.6985V111.545H18.7667C18.886 111.168 19.0906 110.876 19.3803 110.672C19.6729 110.464 20.0067 110.361 20.3817 110.361C20.467 110.361 20.5621 110.365 20.6673 110.374C20.7752 110.379 20.8647 110.389 20.9357 110.403V111.822C20.8704 111.8 20.7667 111.78 20.6246 111.763C20.4854 111.743 20.3505 111.733 20.2198 111.733C19.9386 111.733 19.6857 111.794 19.4613 111.916C19.2397 112.036 19.065 112.202 18.9371 112.415C18.8093 112.628 18.7454 112.874 18.7454 113.152V117H17.2028ZM21.9606 117V110.455H23.4563V111.545H23.5245C23.6438 111.168 23.8484 110.876 24.1381 110.672C24.4308 110.464 24.7646 110.361 25.1396 110.361C25.2248 110.361 25.32 110.365 25.4251 110.374C25.533 110.379 25.6225 110.389 25.6935 110.403V111.822C25.6282 111.8 25.5245 111.78 25.3825 111.763C25.2433 111.743 25.1083 111.733 24.9776 111.733C24.6964 111.733 24.4435 111.794 24.2191 111.916C23.9975 112.036 23.8228 112.202 23.695 112.415C23.5671 112.628 23.5032 112.874 23.5032 113.152V117H21.9606ZM29.3466 117.128C28.6903 117.128 28.1236 116.991 27.6463 116.719C27.1719 116.443 26.8068 116.054 26.5511 115.551C26.2955 115.045 26.1676 114.45 26.1676 113.766C26.1676 113.092 26.2955 112.501 26.5511 111.993C26.8097 111.482 27.1705 111.084 27.6335 110.8C28.0966 110.513 28.6406 110.369 29.2656 110.369C29.669 110.369 30.0497 110.435 30.4077 110.565C30.7685 110.693 31.0866 110.892 31.3622 111.162C31.6406 111.432 31.8594 111.776 32.0185 112.193C32.1776 112.608 32.2571 113.102 32.2571 113.676V114.149H26.892V113.109H30.7784C30.7756 112.814 30.7116 112.551 30.5866 112.321C30.4616 112.088 30.2869 111.905 30.0625 111.771C29.8409 111.638 29.5824 111.571 29.2869 111.571C28.9716 111.571 28.6946 111.648 28.456 111.801C28.2173 111.952 28.0313 112.151 27.8977 112.398C27.767 112.642 27.7003 112.911 27.6974 113.203V114.111C27.6974 114.491 27.767 114.818 27.9062 115.091C28.0455 115.361 28.2401 115.568 28.4901 115.713C28.7401 115.855 29.0327 115.926 29.3679 115.926C29.5923 115.926 29.7955 115.895 29.9773 115.832C30.1591 115.767 30.3168 115.672 30.4503 115.547C30.5838 115.422 30.6847 115.267 30.7528 115.082L32.1932 115.244C32.1023 115.625 31.929 115.957 31.6733 116.241C31.4205 116.523 31.0966 116.741 30.7017 116.898C30.3068 117.051 29.8551 117.128 29.3466 117.128ZM35.1048 113.165V117H33.5621V110.455H35.0366V111.567H35.1133C35.2638 111.2 35.5039 110.909 35.8335 110.693C36.1658 110.477 36.5763 110.369 37.065 110.369C37.5167 110.369 37.9102 110.466 38.2454 110.659C38.5835 110.852 38.8448 111.132 39.0295 111.499C39.217 111.865 39.3093 112.31 39.3065 112.832V117H37.7638V113.071C37.7638 112.634 37.6502 112.291 37.4229 112.044C37.1985 111.797 36.8874 111.673 36.4897 111.673C36.2198 111.673 35.9798 111.733 35.7695 111.852C35.5621 111.969 35.3988 112.138 35.2795 112.359C35.163 112.581 35.1048 112.849 35.1048 113.165ZM44.1431 110.455V111.648H40.3803V110.455H44.1431ZM41.3093 108.886H42.8519V115.031C42.8519 115.239 42.8832 115.398 42.9457 115.509C43.011 115.616 43.0962 115.69 43.2013 115.73C43.3065 115.77 43.4229 115.79 43.5508 115.79C43.6474 115.79 43.7354 115.783 43.815 115.768C43.8974 115.754 43.9599 115.741 44.0025 115.73L44.2624 116.936C44.18 116.964 44.0621 116.996 43.9087 117.03C43.7582 117.064 43.5735 117.084 43.3548 117.089C42.9684 117.101 42.6204 117.043 42.3107 116.915C42.0011 116.784 41.7553 116.582 41.5735 116.31C41.3945 116.037 41.3065 115.696 41.3093 115.287V108.886ZM48.478 108.273H50.4126L53.0036 114.597H53.1058L55.6967 108.273H57.6314V117H56.1143V111.004H56.0334L53.6214 116.974H52.4879L50.076 110.991H49.995V117H48.478V108.273ZM61.1683 117.132C60.7536 117.132 60.38 117.058 60.0476 116.911C59.718 116.76 59.4567 116.538 59.2635 116.246C59.0732 115.953 58.978 115.592 58.978 115.163C58.978 114.794 59.0462 114.489 59.1825 114.247C59.3189 114.006 59.505 113.812 59.7408 113.668C59.9766 113.523 60.2422 113.413 60.5376 113.339C60.8359 113.263 61.1442 113.207 61.4624 113.173C61.8459 113.134 62.157 113.098 62.3956 113.067C62.6342 113.033 62.8075 112.982 62.9155 112.913C63.0263 112.842 63.0817 112.733 63.0817 112.585V112.56C63.0817 112.239 62.9865 111.99 62.7962 111.814C62.6058 111.638 62.3317 111.55 61.9737 111.55C61.5959 111.55 61.2962 111.632 61.0746 111.797C60.8558 111.962 60.7081 112.156 60.6314 112.381L59.1911 112.176C59.3047 111.778 59.4922 111.446 59.7536 111.179C60.0149 110.909 60.3345 110.707 60.7124 110.574C61.0902 110.438 61.5078 110.369 61.9652 110.369C62.2805 110.369 62.5945 110.406 62.907 110.48C63.2195 110.554 63.505 110.676 63.7635 110.847C64.022 111.014 64.2294 111.243 64.3857 111.533C64.5447 111.822 64.6243 112.185 64.6243 112.619V117H63.1413V116.101H63.0902C62.9964 116.283 62.8643 116.453 62.6939 116.612C62.5263 116.768 62.3146 116.895 62.0589 116.991C61.8061 117.085 61.5092 117.132 61.1683 117.132ZM61.5689 115.999C61.8786 115.999 62.147 115.937 62.3743 115.815C62.6016 115.69 62.7763 115.526 62.8984 115.321C63.0234 115.116 63.0859 114.893 63.0859 114.652V113.881C63.0376 113.92 62.9553 113.957 62.8388 113.991C62.7251 114.026 62.5973 114.055 62.4553 114.081C62.3132 114.107 62.1726 114.129 62.0334 114.149C61.8942 114.169 61.7734 114.186 61.6712 114.2C61.4411 114.232 61.2351 114.283 61.0533 114.354C60.8714 114.425 60.728 114.524 60.6229 114.652C60.5178 114.777 60.4652 114.939 60.4652 115.138C60.4652 115.422 60.5689 115.636 60.7763 115.781C60.9837 115.926 61.2479 115.999 61.5689 115.999ZM66.1754 117V110.455H67.6712V111.545H67.7393C67.8587 111.168 68.0632 110.876 68.353 110.672C68.6456 110.464 68.9794 110.361 69.3544 110.361C69.4396 110.361 69.5348 110.365 69.6399 110.374C69.7479 110.379 69.8374 110.389 69.9084 110.403V111.822C69.843 111.8 69.7393 111.78 69.5973 111.763C69.4581 111.743 69.3232 111.733 69.1925 111.733C68.9112 111.733 68.6584 111.794 68.4339 111.916C68.2124 112.036 68.0376 112.202 67.9098 112.415C67.782 112.628 67.718 112.874 67.718 113.152V117H66.1754ZM72.3395 114.946L72.3352 113.084H72.5824L74.9347 110.455H76.7372L73.8438 113.676H73.5241L72.3395 114.946ZM70.9332 117V108.273H72.4759V117H70.9332ZM75.0412 117L72.9105 114.021L73.9503 112.935L76.8864 117H75.0412ZM80.3935 117.128C79.7372 117.128 79.1705 116.991 78.6932 116.719C78.2188 116.443 77.8537 116.054 77.598 115.551C77.3423 115.045 77.2145 114.45 77.2145 113.766C77.2145 113.092 77.3423 112.501 77.598 111.993C77.8565 111.482 78.2173 111.084 78.6804 110.8C79.1435 110.513 79.6875 110.369 80.3125 110.369C80.7159 110.369 81.0966 110.435 81.4545 110.565C81.8153 110.693 82.1335 110.892 82.4091 111.162C82.6875 111.432 82.9063 111.776 83.0653 112.193C83.2244 112.608 83.304 113.102 83.304 113.676V114.149H77.9389V113.109H81.8253C81.8224 112.814 81.7585 112.551 81.6335 112.321C81.5085 112.088 81.3338 111.905 81.1094 111.771C80.8878 111.638 80.6293 111.571 80.3338 111.571C80.0185 111.571 79.7415 111.648 79.5028 111.801C79.2642 111.952 79.0781 112.151 78.9446 112.398C78.8139 112.642 78.7472 112.911 78.7443 113.203V114.111C78.7443 114.491 78.8139 114.818 78.9531 115.091C79.0923 115.361 79.2869 115.568 79.5369 115.713C79.7869 115.855 80.0795 115.926 80.4148 115.926C80.6392 115.926 80.8423 115.895 81.0241 115.832C81.206 115.767 81.3636 115.672 81.4972 115.547C81.6307 115.422 81.7315 115.267 81.7997 115.082L83.2401 115.244C83.1491 115.625 82.9759 115.957 82.7202 116.241C82.4673 116.523 82.1435 116.741 81.7486 116.898C81.3537 117.051 80.902 117.128 80.3935 117.128ZM87.8775 110.455V111.648H84.1147V110.455H87.8775ZM85.0437 108.886H86.5863V115.031C86.5863 115.239 86.6175 115.398 86.68 115.509C86.7454 115.616 86.8306 115.69 86.9357 115.73C87.0408 115.77 87.1573 115.79 87.2852 115.79C87.3817 115.79 87.4698 115.783 87.5494 115.768C87.6317 115.754 87.6942 115.741 87.7369 115.73L87.9968 116.936C87.9144 116.964 87.7965 116.996 87.6431 117.03C87.4925 117.064 87.3079 117.084 87.0891 117.089C86.7028 117.101 86.3548 117.043 86.0451 116.915C85.7354 116.784 85.4897 116.582 85.3079 116.31C85.1289 116.037 85.0408 115.696 85.0437 115.287V108.886ZM92.2124 117V108.273H95.4851C96.1555 108.273 96.718 108.398 97.1726 108.648C97.63 108.898 97.9751 109.241 98.2081 109.679C98.4439 110.114 98.5618 110.608 98.5618 111.162C98.5618 111.722 98.4439 112.219 98.2081 112.653C97.9723 113.088 97.6243 113.43 97.1641 113.68C96.7038 113.928 96.1371 114.051 95.4638 114.051H93.2947V112.751H95.2507C95.6428 112.751 95.9638 112.683 96.2138 112.547C96.4638 112.411 96.6484 112.223 96.7678 111.984C96.8899 111.746 96.951 111.472 96.951 111.162C96.951 110.852 96.8899 110.58 96.7678 110.344C96.6484 110.108 96.4624 109.925 96.2095 109.794C95.9595 109.661 95.6371 109.594 95.2422 109.594H93.7933V117H92.2124ZM99.8668 117V110.455H101.363V111.545H101.431C101.55 111.168 101.755 110.876 102.044 110.672C102.337 110.464 102.671 110.361 103.046 110.361C103.131 110.361 103.226 110.365 103.331 110.374C103.439 110.379 103.529 110.389 103.6 110.403V111.822C103.534 111.8 103.431 111.78 103.289 111.763C103.15 111.743 103.015 111.733 102.884 111.733C102.603 111.733 102.35 111.794 102.125 111.916C101.904 112.036 101.729 112.202 101.601 112.415C101.473 112.628 101.409 112.874 101.409 113.152V117H99.8668ZM104.625 117V110.455H106.167V117H104.625ZM105.4 109.526C105.156 109.526 104.946 109.445 104.77 109.283C104.593 109.118 104.505 108.92 104.505 108.69C104.505 108.457 104.593 108.26 104.77 108.098C104.946 107.933 105.156 107.851 105.4 107.851C105.647 107.851 105.858 107.933 106.031 108.098C106.207 108.26 106.295 108.457 106.295 108.69C106.295 108.92 106.207 109.118 106.031 109.283C105.858 109.445 105.647 109.526 105.4 109.526ZM110.609 117.128C109.955 117.128 109.394 116.984 108.925 116.697C108.46 116.411 108.1 116.014 107.847 115.509C107.597 115 107.472 114.415 107.472 113.753C107.472 113.088 107.6 112.501 107.856 111.993C108.112 111.482 108.472 111.084 108.938 110.8C109.407 110.513 109.961 110.369 110.6 110.369C111.131 110.369 111.602 110.467 112.011 110.663C112.423 110.857 112.751 111.131 112.995 111.486C113.239 111.838 113.379 112.25 113.413 112.722H111.938C111.879 112.406 111.737 112.143 111.512 111.933C111.29 111.72 110.994 111.614 110.621 111.614C110.306 111.614 110.029 111.699 109.79 111.869C109.552 112.037 109.366 112.278 109.232 112.594C109.102 112.909 109.036 113.287 109.036 113.727C109.036 114.173 109.102 114.557 109.232 114.878C109.363 115.196 109.546 115.442 109.782 115.615C110.021 115.786 110.3 115.871 110.621 115.871C110.849 115.871 111.052 115.828 111.231 115.743C111.413 115.655 111.565 115.528 111.687 115.364C111.809 115.199 111.893 114.999 111.938 114.763H113.413C113.376 115.226 113.239 115.636 113.004 115.994C112.768 116.349 112.447 116.628 112.04 116.83C111.634 117.028 111.157 117.128 110.609 117.128ZM117.577 117.128C116.921 117.128 116.354 116.991 115.877 116.719C115.402 116.443 115.037 116.054 114.782 115.551C114.526 115.045 114.398 114.45 114.398 113.766C114.398 113.092 114.526 112.501 114.782 111.993C115.04 111.482 115.401 111.084 115.864 110.8C116.327 110.513 116.871 110.369 117.496 110.369C117.9 110.369 118.28 110.435 118.638 110.565C118.999 110.693 119.317 110.892 119.593 111.162C119.871 111.432 120.09 111.776 120.249 112.193C120.408 112.608 120.488 113.102 120.488 113.676V114.149H115.123V113.109H119.009C119.006 112.814 118.942 112.551 118.817 112.321C118.692 112.088 118.517 111.905 118.293 111.771C118.071 111.638 117.813 111.571 117.517 111.571C117.202 111.571 116.925 111.648 116.686 111.801C116.448 111.952 116.262 112.151 116.128 112.398C115.998 112.642 115.931 112.911 115.928 113.203V114.111C115.928 114.491 115.998 114.818 116.137 115.091C116.276 115.361 116.471 115.568 116.721 115.713C116.971 115.855 117.263 115.926 117.598 115.926C117.823 115.926 118.026 115.895 118.208 115.832C118.39 115.767 118.547 115.672 118.681 115.547C118.814 115.422 118.915 115.267 118.983 115.082L120.424 115.244C120.333 115.625 120.159 115.957 119.904 116.241C119.651 116.523 119.327 116.741 118.932 116.898C118.537 117.051 118.086 117.128 117.577 117.128Z" fill="#596F78"/>
<path d="M59.6161 186.217H58.0224C57.9769 185.956 57.8931 185.724 57.771 185.523C57.6488 185.318 57.4968 185.145 57.315 185.003C57.1332 184.861 56.9258 184.754 56.6928 184.683C56.4627 184.609 56.2141 184.572 55.9471 184.572C55.4727 184.572 55.0522 184.692 54.6857 184.93C54.3192 185.166 54.0323 185.513 53.8249 185.97C53.6175 186.425 53.5138 186.98 53.5138 187.636C53.5138 188.304 53.6175 188.866 53.8249 189.324C54.0352 189.778 54.3221 190.122 54.6857 190.355C55.0522 190.585 55.4712 190.7 55.9428 190.7C56.2042 190.7 56.4485 190.666 56.6758 190.598C56.9059 190.527 57.1119 190.423 57.2937 190.287C57.4783 190.151 57.6332 189.983 57.7582 189.784C57.886 189.585 57.9741 189.358 58.0224 189.102L59.6161 189.111C59.5565 189.526 59.4272 189.915 59.2283 190.278C59.0323 190.642 58.7752 190.963 58.457 191.241C58.1388 191.517 57.7667 191.733 57.3406 191.889C56.9144 192.043 56.4414 192.119 55.9215 192.119C55.1545 192.119 54.4698 191.942 53.8675 191.587C53.2653 191.232 52.7908 190.719 52.4442 190.048C52.0977 189.378 51.9244 188.574 51.9244 187.636C51.9244 186.696 52.0991 185.892 52.4485 185.224C52.7979 184.554 53.2738 184.041 53.8761 183.686C54.4783 183.331 55.1602 183.153 55.9215 183.153C56.4073 183.153 56.859 183.222 57.2766 183.358C57.6942 183.494 58.0664 183.695 58.3931 183.959C58.7198 184.22 58.9883 184.541 59.1985 184.922C59.4116 185.3 59.5508 185.732 59.6161 186.217ZM65.1676 189.247V185.455H66.7102V192H65.2145V190.837H65.1463C64.9986 191.203 64.7557 191.503 64.4176 191.736C64.0824 191.969 63.669 192.085 63.1776 192.085C62.7486 192.085 62.3693 191.99 62.0398 191.8C61.7131 191.607 61.4574 191.327 61.2727 190.96C61.0881 190.591 60.9957 190.145 60.9957 189.622V185.455H62.5384V189.384C62.5384 189.798 62.652 190.128 62.8793 190.372C63.1065 190.616 63.4048 190.739 63.7741 190.739C64.0014 190.739 64.2216 190.683 64.4347 190.572C64.6477 190.462 64.8224 190.297 64.9588 190.078C65.098 189.857 65.1676 189.58 65.1676 189.247ZM68.2965 192V185.455H69.7923V186.545H69.8604C69.9798 186.168 70.1843 185.876 70.4741 185.672C70.7667 185.464 71.1005 185.361 71.4755 185.361C71.5607 185.361 71.6559 185.365 71.761 185.374C71.869 185.379 71.9585 185.389 72.0295 185.403V186.822C71.9641 186.8 71.8604 186.78 71.7184 186.763C71.5792 186.743 71.4442 186.733 71.3136 186.733C71.0323 186.733 70.7795 186.794 70.555 186.916C70.3335 187.036 70.1587 187.202 70.0309 187.415C69.9031 187.628 69.8391 187.874 69.8391 188.152V192H68.2965ZM73.0543 192V185.455H74.5501V186.545H74.6183C74.7376 186.168 74.9421 185.876 75.2319 185.672C75.5245 185.464 75.8583 185.361 76.2333 185.361C76.3185 185.361 76.4137 185.365 76.5188 185.374C76.6268 185.379 76.7163 185.389 76.7873 185.403V186.822C76.7219 186.8 76.6183 186.78 76.4762 186.763C76.337 186.743 76.2021 186.733 76.0714 186.733C75.7901 186.733 75.5373 186.794 75.3129 186.916C75.0913 187.036 74.9165 187.202 74.7887 187.415C74.6609 187.628 74.5969 187.874 74.5969 188.152V192H73.0543ZM80.4403 192.128C79.7841 192.128 79.2173 191.991 78.7401 191.719C78.2656 191.443 77.9006 191.054 77.6449 190.551C77.3892 190.045 77.2614 189.45 77.2614 188.766C77.2614 188.092 77.3892 187.501 77.6449 186.993C77.9034 186.482 78.2642 186.084 78.7273 185.8C79.1903 185.513 79.7344 185.369 80.3594 185.369C80.7628 185.369 81.1435 185.435 81.5014 185.565C81.8622 185.693 82.1804 185.892 82.456 186.162C82.7344 186.432 82.9531 186.776 83.1122 187.193C83.2713 187.608 83.3509 188.102 83.3509 188.676V189.149H77.9858V188.109H81.8722C81.8693 187.814 81.8054 187.551 81.6804 187.321C81.5554 187.088 81.3807 186.905 81.1562 186.771C80.9347 186.638 80.6761 186.571 80.3807 186.571C80.0653 186.571 79.7884 186.648 79.5497 186.801C79.3111 186.952 79.125 187.151 78.9915 187.398C78.8608 187.642 78.794 187.911 78.7912 188.203V189.111C78.7912 189.491 78.8608 189.818 79 190.091C79.1392 190.361 79.3338 190.568 79.5838 190.713C79.8338 190.855 80.1264 190.926 80.4616 190.926C80.6861 190.926 80.8892 190.895 81.071 190.832C81.2528 190.767 81.4105 190.672 81.544 190.547C81.6776 190.422 81.7784 190.267 81.8466 190.082L83.2869 190.244C83.196 190.625 83.0227 190.957 82.767 191.241C82.5142 191.523 82.1903 191.741 81.7955 191.898C81.4006 192.051 80.9489 192.128 80.4403 192.128ZM86.1985 188.165V192H84.6559V185.455H86.1303V186.567H86.207C86.3576 186.2 86.5977 185.909 86.9272 185.693C87.2596 185.477 87.6701 185.369 88.1587 185.369C88.6104 185.369 89.0039 185.466 89.3391 185.659C89.6772 185.852 89.9386 186.132 90.1232 186.499C90.3107 186.865 90.4031 187.31 90.4002 187.832V192H88.8576V188.071C88.8576 187.634 88.744 187.291 88.5167 187.044C88.2923 186.797 87.9812 186.673 87.5835 186.673C87.3136 186.673 87.0735 186.733 86.8633 186.852C86.6559 186.969 86.4925 187.138 86.3732 187.359C86.2567 187.581 86.1985 187.849 86.1985 188.165ZM95.2369 185.455V186.648H91.4741V185.455H95.2369ZM92.4031 183.886H93.9457V190.031C93.9457 190.239 93.9769 190.398 94.0394 190.509C94.1048 190.616 94.19 190.69 94.2951 190.73C94.4002 190.77 94.5167 190.79 94.6445 190.79C94.7411 190.79 94.8292 190.783 94.9087 190.768C94.9911 190.754 95.0536 190.741 95.0962 190.73L95.3562 191.936C95.2738 191.964 95.1559 191.996 95.0025 192.03C94.8519 192.064 94.6673 192.084 94.4485 192.089C94.0621 192.101 93.7141 192.043 93.4045 191.915C93.0948 191.784 92.8491 191.582 92.6673 191.31C92.4883 191.037 92.4002 190.696 92.4031 190.287V183.886ZM99.5717 192V183.273H101.153V190.675H104.996V192H99.5717ZM104.872 184.598V183.273H111.835V184.598H109.137V192H107.569V184.598H104.872ZM114.345 183.273L116.616 190.142H116.706L118.973 183.273H120.711L117.635 192H115.683L112.61 183.273H114.345Z" fill="#596F78"/>
<path d="M390.212 184.598V183.273H397.175V184.598H394.477V192H392.909V184.598H390.212ZM397.769 192V185.455H399.265V186.545H399.333C399.452 186.168 399.657 185.876 399.947 185.672C400.239 185.464 400.573 185.361 400.948 185.361C401.033 185.361 401.129 185.365 401.234 185.374C401.342 185.379 401.431 185.389 401.502 185.403V186.822C401.437 186.8 401.333 186.78 401.191 186.763C401.052 186.743 400.917 186.733 400.786 186.733C400.505 186.733 400.252 186.794 400.028 186.916C399.806 187.036 399.631 187.202 399.504 187.415C399.376 187.628 399.312 187.874 399.312 188.152V192H397.769ZM402.527 192V185.455H404.07V192H402.527ZM403.303 184.526C403.058 184.526 402.848 184.445 402.672 184.283C402.496 184.118 402.408 183.92 402.408 183.69C402.408 183.457 402.496 183.26 402.672 183.098C402.848 182.933 403.058 182.851 403.303 182.851C403.55 182.851 403.76 182.933 403.933 183.098C404.109 183.26 404.197 183.457 404.197 183.69C404.197 183.92 404.109 184.118 403.933 184.283C403.76 184.445 403.55 184.526 403.303 184.526ZM408.502 194.591C407.949 194.591 407.473 194.516 407.075 194.365C406.677 194.217 406.358 194.018 406.116 193.768C405.875 193.518 405.707 193.241 405.613 192.938L407.002 192.601C407.065 192.729 407.156 192.855 407.275 192.98C407.395 193.108 407.555 193.213 407.757 193.295C407.961 193.381 408.218 193.423 408.528 193.423C408.966 193.423 409.328 193.317 409.615 193.104C409.902 192.893 410.045 192.547 410.045 192.064V190.824H409.968C409.889 190.983 409.772 191.146 409.619 191.314C409.468 191.482 409.268 191.622 409.018 191.736C408.771 191.849 408.46 191.906 408.085 191.906C407.582 191.906 407.126 191.788 406.717 191.553C406.311 191.314 405.987 190.959 405.745 190.487C405.507 190.013 405.387 189.419 405.387 188.706C405.387 187.987 405.507 187.381 405.745 186.886C405.987 186.389 406.312 186.013 406.721 185.757C407.13 185.499 407.586 185.369 408.089 185.369C408.473 185.369 408.788 185.435 409.035 185.565C409.285 185.693 409.484 185.848 409.632 186.03C409.779 186.209 409.892 186.378 409.968 186.537H410.054V185.455H411.575V192.107C411.575 192.666 411.441 193.129 411.174 193.496C410.907 193.862 410.542 194.136 410.079 194.318C409.616 194.5 409.091 194.591 408.502 194.591ZM408.515 190.696C408.842 190.696 409.12 190.616 409.35 190.457C409.581 190.298 409.755 190.07 409.875 189.771C409.994 189.473 410.054 189.115 410.054 188.697C410.054 188.286 409.994 187.925 409.875 187.615C409.758 187.305 409.585 187.065 409.355 186.895C409.127 186.722 408.848 186.635 408.515 186.635C408.172 186.635 407.885 186.724 407.654 186.903C407.424 187.082 407.251 187.328 407.135 187.641C407.018 187.95 406.96 188.303 406.96 188.697C406.96 189.098 407.018 189.449 407.135 189.75C407.254 190.048 407.429 190.281 407.659 190.449C407.892 190.614 408.177 190.696 408.515 190.696ZM416.002 194.591C415.449 194.591 414.973 194.516 414.575 194.365C414.177 194.217 413.858 194.018 413.616 193.768C413.375 193.518 413.207 193.241 413.113 192.938L414.502 192.601C414.565 192.729 414.656 192.855 414.775 192.98C414.895 193.108 415.055 193.213 415.257 193.295C415.461 193.381 415.718 193.423 416.028 193.423C416.466 193.423 416.828 193.317 417.115 193.104C417.402 192.893 417.545 192.547 417.545 192.064V190.824H417.468C417.389 190.983 417.272 191.146 417.119 191.314C416.968 191.482 416.768 191.622 416.518 191.736C416.271 191.849 415.96 191.906 415.585 191.906C415.082 191.906 414.626 191.788 414.217 191.553C413.811 191.314 413.487 190.959 413.245 190.487C413.007 190.013 412.887 189.419 412.887 188.706C412.887 187.987 413.007 187.381 413.245 186.886C413.487 186.389 413.812 186.013 414.221 185.757C414.63 185.499 415.086 185.369 415.589 185.369C415.973 185.369 416.288 185.435 416.535 185.565C416.785 185.693 416.984 185.848 417.132 186.03C417.279 186.209 417.392 186.378 417.468 186.537H417.554V185.455H419.075V192.107C419.075 192.666 418.941 193.129 418.674 193.496C418.407 193.862 418.042 194.136 417.579 194.318C417.116 194.5 416.591 194.591 416.002 194.591ZM416.015 190.696C416.342 190.696 416.62 190.616 416.85 190.457C417.081 190.298 417.255 190.07 417.375 189.771C417.494 189.473 417.554 189.115 417.554 188.697C417.554 188.286 417.494 187.925 417.375 187.615C417.258 187.305 417.085 187.065 416.855 186.895C416.627 186.722 416.348 186.635 416.015 186.635C415.672 186.635 415.385 186.724 415.154 186.903C414.924 187.082 414.751 187.328 414.635 187.641C414.518 187.95 414.46 188.303 414.46 188.697C414.46 189.098 414.518 189.449 414.635 189.75C414.754 190.048 414.929 190.281 415.159 190.449C415.392 190.614 415.677 190.696 416.015 190.696ZM423.554 192.128C422.897 192.128 422.331 191.991 421.853 191.719C421.379 191.443 421.014 191.054 420.758 190.551C420.502 190.045 420.375 189.45 420.375 188.766C420.375 188.092 420.502 187.501 420.758 186.993C421.017 186.482 421.377 186.084 421.841 185.8C422.304 185.513 422.848 185.369 423.473 185.369C423.876 185.369 424.257 185.435 424.615 185.565C424.975 185.693 425.294 185.892 425.569 186.162C425.848 186.432 426.066 186.776 426.225 187.193C426.385 187.608 426.464 188.102 426.464 188.676V189.149H421.099V188.109H424.985C424.983 187.814 424.919 187.551 424.794 187.321C424.669 187.088 424.494 186.905 424.27 186.771C424.048 186.638 423.789 186.571 423.494 186.571C423.179 186.571 422.902 186.648 422.663 186.801C422.424 186.952 422.238 187.151 422.105 187.398C421.974 187.642 421.907 187.911 421.904 188.203V189.111C421.904 189.491 421.974 189.818 422.113 190.091C422.252 190.361 422.447 190.568 422.697 190.713C422.947 190.855 423.24 190.926 423.575 190.926C423.799 190.926 424.002 190.895 424.184 190.832C424.366 190.767 424.524 190.672 424.657 190.547C424.791 190.422 424.892 190.267 424.96 190.082L426.4 190.244C426.309 190.625 426.136 190.957 425.88 191.241C425.627 191.523 425.304 191.741 424.909 191.898C424.514 192.051 424.062 192.128 423.554 192.128ZM427.769 192V185.455H429.265V186.545H429.333C429.452 186.168 429.657 185.876 429.947 185.672C430.239 185.464 430.573 185.361 430.948 185.361C431.033 185.361 431.129 185.365 431.234 185.374C431.342 185.379 431.431 185.389 431.502 185.403V186.822C431.437 186.8 431.333 186.78 431.191 186.763C431.052 186.743 430.917 186.733 430.786 186.733C430.505 186.733 430.252 186.794 430.028 186.916C429.806 187.036 429.631 187.202 429.504 187.415C429.376 187.628 429.312 187.874 429.312 188.152V192H427.769ZM435.572 192V183.273H437.153V190.675H440.996V192H435.572ZM440.872 184.598V183.273H447.835V184.598H445.137V192H443.569V184.598H440.872ZM450.345 183.273L452.616 190.142H452.706L454.973 183.273H456.711L453.635 192H451.683L448.61 183.273H450.345Z" fill="#596F78"/>
<line x1="309.5" y1="200" x2="309.5" y2="60" stroke="#B6BDC2" stroke-dasharray="9 9"/>
<path d="M464.5 170.5L464.071 170.757L464.457 171.4L464.902 170.797L464.5 170.5ZM505.054 170.274C504.929 170.52 505.028 170.821 505.274 170.946C505.52 171.071 505.821 170.972 505.946 170.726L505.054 170.274ZM542 120L541.83 119.53C541.778 119.549 541.729 119.576 541.685 119.612L542 120ZM555.773 115.026L555.603 114.556L555.773 115.026ZM563.431 110.597L563.754 110.979L563.431 110.597ZM527.641 131.642L527.326 131.254L527.641 131.642ZM466.712 167.505L466.31 167.208L466.712 167.505ZM505.057 170.732C505.185 170.976 505.487 171.071 505.732 170.943C505.976 170.815 506.071 170.513 505.943 170.268L505.057 170.732ZM426.563 170.258C426.429 170.499 426.516 170.804 426.758 170.937C426.999 171.071 427.304 170.984 427.437 170.742L426.563 170.258ZM464.114 169.857L463.686 170.115L464.114 169.857ZM429.472 167.702C429.644 167.486 429.61 167.172 429.394 166.999C429.179 166.826 428.864 166.861 428.691 167.077L429.472 167.702ZM434.432 162.061C434.195 162.202 434.118 162.51 434.26 162.746C434.402 162.983 434.709 163.06 434.946 162.918L434.432 162.061ZM441.746 160.334C442.017 160.282 442.195 160.02 442.143 159.749C442.091 159.478 441.829 159.3 441.558 159.352L441.746 160.334ZM449.179 159.22C448.906 159.178 448.651 159.364 448.608 159.637C448.566 159.91 448.752 160.166 449.025 160.208L449.179 159.22ZM455.911 162.555C456.153 162.689 456.457 162.601 456.59 162.36C456.724 162.118 456.636 161.814 456.395 161.68L455.911 162.555ZM462.306 166.495C462.126 166.285 461.81 166.261 461.6 166.441C461.391 166.621 461.367 166.937 461.547 167.147L462.306 166.495ZM463.782 170.275C463.924 170.512 464.231 170.589 464.468 170.447C464.705 170.305 464.782 169.998 464.64 169.761L463.782 170.275ZM464.832 170.082C464.69 169.845 464.383 169.769 464.146 169.911C463.91 170.053 463.833 170.36 463.975 170.597L464.832 170.082ZM465.455 170.048C465.619 169.826 465.572 169.513 465.35 169.349C465.128 169.185 464.815 169.232 464.651 169.454L465.455 170.048ZM465.757 167.957C465.593 168.179 465.64 168.492 465.862 168.656C466.084 168.82 466.397 168.773 466.561 168.551L465.757 167.957ZM469.605 164.948C469.803 164.755 469.808 164.439 469.616 164.241C469.423 164.042 469.107 164.038 468.909 164.23L469.605 164.948ZM475.41 159.788C475.158 159.902 475.047 160.199 475.162 160.45C475.276 160.701 475.573 160.812 475.824 160.698L475.41 159.788ZM483.113 158.779C483.388 158.755 483.591 158.512 483.567 158.237C483.542 157.962 483.299 157.759 483.024 157.783L483.113 158.779ZM490.874 158.389C490.606 158.323 490.334 158.486 490.268 158.754C490.201 159.022 490.365 159.293 490.633 159.36L490.874 158.389ZM497.541 162.375C497.771 162.526 498.082 162.462 498.233 162.232C498.385 162.001 498.321 161.691 498.09 161.539L497.541 162.375ZM503.832 166.927C503.666 166.706 503.352 166.662 503.132 166.829C502.911 166.995 502.868 167.309 503.034 167.529L503.832 166.927ZM507.895 166.883C508.019 166.637 507.921 166.336 507.675 166.211C507.428 166.086 507.128 166.185 507.003 166.431L507.895 166.883ZM510.9 158.745C510.775 158.991 510.873 159.292 511.12 159.417C511.366 159.542 511.667 159.443 511.792 159.197L510.9 158.745ZM515.689 151.511C515.814 151.264 515.715 150.963 515.469 150.839C515.223 150.714 514.922 150.812 514.797 151.058L515.689 151.511ZM518.694 143.372C518.569 143.619 518.668 143.919 518.914 144.044C519.16 144.169 519.461 144.071 519.586 143.824L518.694 143.372ZM522.817 137.751C522.967 137.519 522.901 137.21 522.669 137.06C522.437 136.91 522.128 136.976 521.978 137.208L522.817 137.751ZM525.338 133.047C525.143 133.243 525.143 133.559 525.339 133.754C525.534 133.949 525.851 133.949 526.046 133.754L525.338 133.047ZM531.546 129.12C531.76 128.946 531.793 128.631 531.619 128.417C531.445 128.202 531.131 128.169 530.916 128.343L531.546 129.12ZM538.095 122.522C537.881 122.696 537.848 123.011 538.022 123.225C538.196 123.44 538.511 123.473 538.725 123.299L538.095 122.522ZM545.613 119.227C545.873 119.133 546.007 118.846 545.914 118.587C545.82 118.327 545.533 118.193 545.273 118.286L545.613 119.227ZM552.16 115.799C551.9 115.893 551.766 116.18 551.86 116.44C551.953 116.699 552.24 116.834 552.5 116.74L552.16 115.799ZM558.039 114.633C558.289 114.516 558.398 114.219 558.281 113.968C558.165 113.718 557.867 113.609 557.617 113.726L558.039 114.633ZM561.384 111.547C561.158 111.706 561.104 112.018 561.263 112.244C561.422 112.47 561.734 112.524 561.96 112.365L561.384 111.547ZM564.521 110.33C564.732 110.151 564.758 109.836 564.58 109.625C564.401 109.414 564.086 109.388 563.875 109.566L564.521 110.33ZM565.41 108.268C565.199 108.446 565.173 108.761 565.351 108.972C565.529 109.183 565.845 109.209 566.056 109.031L565.41 108.268ZM427.437 170.742C428.045 169.645 428.727 168.631 429.472 167.702L428.691 167.077C427.911 168.051 427.198 169.111 426.563 170.258L427.437 170.742ZM434.946 162.918C437.062 161.651 439.369 160.788 441.746 160.334L441.558 159.352C439.07 159.828 436.652 160.731 434.432 162.061L434.946 162.918ZM449.025 160.208C451.416 160.58 453.752 161.362 455.911 162.555L456.395 161.68C454.13 160.428 451.682 159.609 449.179 159.22L449.025 160.208ZM461.547 167.147C462.324 168.05 463.04 169.039 463.686 170.115L464.543 169.6C463.869 168.476 463.119 167.441 462.306 166.495L461.547 167.147ZM463.686 170.115L463.782 170.275L464.64 169.761L464.543 169.6L463.686 170.115ZM463.975 170.597L464.071 170.757L464.929 170.243L464.832 170.082L463.975 170.597ZM464.902 170.797L465.455 170.048L464.651 169.454L464.098 170.203L464.902 170.797ZM466.561 168.551L467.114 167.802L466.31 167.208L465.757 167.957L466.561 168.551ZM467.114 167.802C467.884 166.759 468.718 165.808 469.605 164.948L468.909 164.23C467.982 165.129 467.112 166.121 466.31 167.208L467.114 167.802ZM475.824 160.698C478.149 159.639 480.617 159.002 483.113 158.779L483.024 157.783C480.418 158.016 477.839 158.681 475.41 159.788L475.824 160.698ZM490.633 159.36C493.065 159.963 495.407 160.971 497.541 162.375L498.09 161.539C495.859 160.072 493.413 159.019 490.874 158.389L490.633 159.36ZM503.034 167.529C503.778 168.515 504.456 169.583 505.057 170.732L505.943 170.268C505.317 169.071 504.609 167.957 503.832 166.927L503.034 167.529ZM505.946 170.726L507.895 166.883L507.003 166.431L505.054 170.274L505.946 170.726ZM511.792 159.197L515.689 151.511L514.797 151.058L510.9 158.745L511.792 159.197ZM519.586 143.824L521.535 139.981L520.643 139.529L518.694 143.372L519.586 143.824ZM521.535 139.981C521.924 139.214 522.352 138.47 522.817 137.751L521.978 137.208C521.493 137.956 521.048 138.731 520.643 139.529L521.535 139.981ZM526.046 133.754C526.651 133.147 527.288 132.572 527.956 132.031L527.326 131.254C526.631 131.817 525.968 132.416 525.338 133.047L526.046 133.754ZM527.956 132.031L531.546 129.12L530.916 128.343L527.326 131.254L527.956 132.031ZM538.725 123.299L542.315 120.388L541.685 119.612L538.095 122.522L538.725 123.299ZM542.17 120.47L545.613 119.227L545.273 118.286L541.83 119.53L542.17 120.47ZM552.5 116.74L555.943 115.497L555.603 114.556L552.16 115.799L552.5 116.74ZM555.943 115.497C556.655 115.239 557.354 114.951 558.039 114.633L557.617 113.726C556.959 114.032 556.288 114.309 555.603 114.556L555.943 115.497ZM561.96 112.365C562.577 111.93 563.176 111.468 563.754 110.979L563.108 110.215C562.552 110.685 561.977 111.13 561.384 111.547L561.96 112.365ZM563.754 110.979L564.521 110.33L563.875 109.566L563.108 110.215L563.754 110.979ZM566.056 109.031L566.823 108.382L566.177 107.618L565.41 108.268L566.056 109.031Z" fill="#C3C9FC"/>
</svg>
