<svg width="578" height="259" viewBox="0 0 578 259" fill="none" xmlns="http://www.w3.org/2000/svg">
<path d="M121.75 125.5C121.75 125.5 139.275 125.5 172.892 125.5C206.509 125.5 214.75 81.5 229.467 67.1429C232.515 64.1689 235.771 61.8417 239.25 60.0208C252.565 53.051 269.136 53.5 289.75 53.5C315.75 53.5 381.957 2.5 455.75 2.5C542.25 2.5 565.75 67.1429 565.75 67.1429" stroke="#5FC4B9" stroke-width="2"/>
<path d="M565.75 67.1428L576.25 96" stroke="#B6BDC2" stroke-width="2" stroke-dasharray="2 8"/>
<circle cx="239.75" cy="60.5" r="3" fill="#17344F"/>
<path d="M239.75 67.5V115.5" stroke="#B6BDC2" stroke-width="2" stroke-dasharray="2 8"/>
<path d="M300.75 59.5V107.5" stroke="#B6BDC2" stroke-width="2" stroke-dasharray="2 8"/>
<path d="M300.75 128.5V176.5" stroke="#B6BDC2" stroke-width="2" stroke-dasharray="2 8"/>
<path d="M345.75 118.5L345.75 157.5" stroke="#B6BDC2" stroke-width="2" stroke-dasharray="2 8"/>
<path d="M388.75 100.5L388.75 139.5" stroke="#B6BDC2" stroke-width="2" stroke-dasharray="2 8"/>
<path d="M433.75 84.5L433.75 128.5" stroke="#B6BDC2" stroke-width="2" stroke-dasharray="2 8"/>
<path d="M345.75 40.5V88.5" stroke="#B6BDC2" stroke-width="2" stroke-dasharray="2 8"/>
<path d="M388.75 22.5V70.5" stroke="#B6BDC2" stroke-width="2" stroke-dasharray="2 8"/>
<path d="M434.75 11.5V59.5" stroke="#B6BDC2" stroke-width="2" stroke-dasharray="2 8"/>
<path d="M121.75 179.5H239.75V123.5H300.75V114.5H345.75V94.5H388.75V77.5H434.25V67.5H577.25" stroke="#EBEDFE" stroke-width="2" stroke-linejoin="round"/>
<circle cx="239.75" cy="123.5" r="3" fill="#575CFE"/>
<circle cx="300.75" cy="114.5" r="3" fill="#575CFE"/>
<circle cx="345.75" cy="94.5" r="3" fill="#575CFE"/>
<circle cx="388.75" cy="77.5" r="3" fill="#575CFE"/>
<circle cx="433.75" cy="67.5" r="3" fill="#575CFE"/>
<circle cx="565.75" cy="67.5" r="3" fill="#575CFE"/>
<path d="M121.75 248.5H239.75V192.5H300.75V183.5H345.75V163.5H388.75V146.5H434.25V136.5H577.25" stroke="#FFEEE9" stroke-width="2" stroke-linejoin="round"/>
<circle cx="239.75" cy="192.5" r="3" fill="#D94A1E"/>
<circle cx="300.75" cy="183.5" r="3" fill="#D94A1E"/>
<circle cx="345.75" cy="163.5" r="3" fill="#D94A1E"/>
<circle cx="388.75" cy="146.5" r="3" fill="#D94A1E"/>
<circle cx="433.75" cy="136.5" r="3" fill="#D94A1E"/>
<circle cx="300.75" cy="51.5" r="3" fill="#17344F"/>
<circle cx="345.75" cy="32.5" r="3" fill="#17344F"/>
<circle cx="388.75" cy="14.5" r="3" fill="#17344F"/>
<circle cx="434.75" cy="3.5" r="3" fill="#17344F"/>
<path d="M10.0497 113.717H8.45597C8.41051 113.456 8.3267 113.224 8.20455 113.023C8.08239 112.818 7.9304 112.645 7.74858 112.503C7.56676 112.361 7.35938 112.254 7.12642 112.183C6.89631 112.109 6.64773 112.072 6.38068 112.072C5.90625 112.072 5.4858 112.192 5.11932 112.43C4.75284 112.666 4.46591 113.013 4.25852 113.47C4.05114 113.925 3.94744 114.48 3.94744 115.136C3.94744 115.804 4.05114 116.366 4.25852 116.824C4.46875 117.278 4.75568 117.622 5.11932 117.855C5.4858 118.085 5.90483 118.2 6.37642 118.2C6.63778 118.2 6.8821 118.166 7.10938 118.098C7.33949 118.027 7.54545 117.923 7.72727 117.787C7.91193 117.651 8.06676 117.483 8.19176 117.284C8.3196 117.085 8.40767 116.858 8.45597 116.602L10.0497 116.611C9.99006 117.026 9.8608 117.415 9.66193 117.778C9.46591 118.142 9.20881 118.463 8.89062 118.741C8.57244 119.017 8.20028 119.233 7.77415 119.389C7.34801 119.543 6.875 119.619 6.35511 119.619C5.58807 119.619 4.90341 119.442 4.30114 119.087C3.69886 118.732 3.22443 118.219 2.87784 117.548C2.53125 116.878 2.35795 116.074 2.35795 115.136C2.35795 114.196 2.53267 113.392 2.8821 112.724C3.23153 112.054 3.70739 111.541 4.30966 111.186C4.91193 110.831 5.59375 110.653 6.35511 110.653C6.84091 110.653 7.29261 110.722 7.71023 110.858C8.12784 110.994 8.5 111.195 8.8267 111.459C9.15341 111.72 9.42188 112.041 9.6321 112.422C9.84517 112.8 9.98438 113.232 10.0497 113.717ZM15.6012 116.747V112.955H17.1438V119.5H15.6481V118.337H15.5799C15.4322 118.703 15.1893 119.003 14.8512 119.236C14.516 119.469 14.1026 119.585 13.6112 119.585C13.1822 119.585 12.8029 119.49 12.4734 119.3C12.1467 119.107 11.891 118.827 11.7063 118.46C11.5217 118.091 11.4293 117.645 11.4293 117.122V112.955H12.9719V116.884C12.9719 117.298 13.0856 117.628 13.3129 117.872C13.5401 118.116 13.8384 118.239 14.2077 118.239C14.435 118.239 14.6552 118.183 14.8683 118.072C15.0813 117.962 15.256 117.797 15.3924 117.578C15.5316 117.357 15.6012 117.08 15.6012 116.747ZM18.7301 119.5V112.955H20.2259V114.045H20.294C20.4134 113.668 20.6179 113.376 20.9077 113.172C21.2003 112.964 21.5341 112.861 21.9091 112.861C21.9943 112.861 22.0895 112.865 22.1946 112.874C22.3026 112.879 22.392 112.889 22.4631 112.903V114.322C22.3977 114.3 22.294 114.28 22.152 114.263C22.0128 114.243 21.8778 114.233 21.7472 114.233C21.4659 114.233 21.2131 114.294 20.9886 114.416C20.767 114.536 20.5923 114.702 20.4645 114.915C20.3366 115.128 20.2727 115.374 20.2727 115.652V119.5H18.7301ZM23.4879 119.5V112.955H24.9837V114.045H25.0518C25.1712 113.668 25.3757 113.376 25.6655 113.172C25.9581 112.964 26.2919 112.861 26.6669 112.861C26.7521 112.861 26.8473 112.865 26.9524 112.874C27.0604 112.879 27.1499 112.889 27.2209 112.903V114.322C27.1555 114.3 27.0518 114.28 26.9098 114.263C26.7706 114.243 26.6357 114.233 26.505 114.233C26.2237 114.233 25.9709 114.294 25.7464 114.416C25.5249 114.536 25.3501 114.702 25.2223 114.915C25.0945 115.128 25.0305 115.374 25.0305 115.652V119.5H23.4879ZM30.8739 119.628C30.2177 119.628 29.6509 119.491 29.1737 119.219C28.6992 118.943 28.3342 118.554 28.0785 118.051C27.8228 117.545 27.695 116.95 27.695 116.266C27.695 115.592 27.8228 115.001 28.0785 114.493C28.337 113.982 28.6978 113.584 29.1609 113.3C29.6239 113.013 30.168 112.869 30.793 112.869C31.1964 112.869 31.5771 112.935 31.935 113.065C32.2958 113.193 32.614 113.392 32.8896 113.662C33.168 113.932 33.3867 114.276 33.5458 114.693C33.7049 115.108 33.7844 115.602 33.7844 116.176V116.649H28.4194V115.609H32.3058C32.3029 115.314 32.239 115.051 32.114 114.821C31.989 114.588 31.8143 114.405 31.5898 114.271C31.3683 114.138 31.1097 114.071 30.8143 114.071C30.4989 114.071 30.2219 114.148 29.9833 114.301C29.7447 114.452 29.5586 114.651 29.4251 114.898C29.2944 115.142 29.2276 115.411 29.2248 115.703V116.611C29.2248 116.991 29.2944 117.318 29.4336 117.591C29.5728 117.861 29.7674 118.068 30.0174 118.213C30.2674 118.355 30.56 118.426 30.8952 118.426C31.1197 118.426 31.3228 118.395 31.5046 118.332C31.6864 118.267 31.8441 118.172 31.9776 118.047C32.1112 117.922 32.212 117.767 32.2802 117.582L33.7205 117.744C33.6296 118.125 33.4563 118.457 33.2006 118.741C32.9478 119.023 32.6239 119.241 32.229 119.398C31.8342 119.551 31.3825 119.628 30.8739 119.628ZM36.6321 115.665V119.5H35.0895V112.955H36.5639V114.067H36.6406C36.7912 113.7 37.0313 113.409 37.3608 113.193C37.6932 112.977 38.1037 112.869 38.5923 112.869C39.044 112.869 39.4375 112.966 39.7727 113.159C40.1108 113.352 40.3722 113.632 40.5568 113.999C40.7443 114.365 40.8366 114.81 40.8338 115.332V119.5H39.2912V115.571C39.2912 115.134 39.1776 114.791 38.9503 114.544C38.7259 114.297 38.4148 114.173 38.017 114.173C37.7472 114.173 37.5071 114.233 37.2969 114.352C37.0895 114.469 36.9261 114.638 36.8068 114.859C36.6903 115.081 36.6321 115.349 36.6321 115.665ZM45.6705 112.955V114.148H41.9077V112.955H45.6705ZM42.8366 111.386H44.3793V117.531C44.3793 117.739 44.4105 117.898 44.473 118.009C44.5384 118.116 44.6236 118.19 44.7287 118.23C44.8338 118.27 44.9503 118.29 45.0781 118.29C45.1747 118.29 45.2628 118.283 45.3423 118.268C45.4247 118.254 45.4872 118.241 45.5298 118.23L45.7898 119.436C45.7074 119.464 45.5895 119.496 45.4361 119.53C45.2855 119.564 45.1009 119.584 44.8821 119.589C44.4957 119.601 44.1477 119.543 43.8381 119.415C43.5284 119.284 43.2827 119.082 43.1009 118.81C42.9219 118.537 42.8338 118.196 42.8366 117.787V111.386ZM57.4755 113.717H55.8817C55.8363 113.456 55.7525 113.224 55.6303 113.023C55.5082 112.818 55.3562 112.645 55.1744 112.503C54.9925 112.361 54.7852 112.254 54.5522 112.183C54.3221 112.109 54.0735 112.072 53.8065 112.072C53.332 112.072 52.9116 112.192 52.5451 112.43C52.1786 112.666 51.8917 113.013 51.6843 113.47C51.4769 113.925 51.3732 114.48 51.3732 115.136C51.3732 115.804 51.4769 116.366 51.6843 116.824C51.8945 117.278 52.1815 117.622 52.5451 117.855C52.9116 118.085 53.3306 118.2 53.8022 118.2C54.0636 118.2 54.3079 118.166 54.5352 118.098C54.7653 118.027 54.9712 117.923 55.1531 117.787C55.3377 117.651 55.4925 117.483 55.6175 117.284C55.7454 117.085 55.8335 116.858 55.8817 116.602L57.4755 116.611C57.4158 117.026 57.2866 117.415 57.0877 117.778C56.8917 118.142 56.6346 118.463 56.3164 118.741C55.9982 119.017 55.6261 119.233 55.1999 119.389C54.7738 119.543 54.3008 119.619 53.7809 119.619C53.0138 119.619 52.3292 119.442 51.7269 119.087C51.1246 118.732 50.6502 118.219 50.3036 117.548C49.957 116.878 49.7837 116.074 49.7837 115.136C49.7837 114.196 49.9585 113.392 50.3079 112.724C50.6573 112.054 51.1332 111.541 51.7354 111.186C52.3377 110.831 53.0195 110.653 53.7809 110.653C54.2667 110.653 54.7184 110.722 55.136 110.858C55.5536 110.994 55.9258 111.195 56.2525 111.459C56.5792 111.72 56.8477 112.041 57.0579 112.422C57.271 112.8 57.4102 113.232 57.4755 113.717ZM61.7102 119.628C61.071 119.628 60.517 119.487 60.0483 119.206C59.5795 118.925 59.2159 118.531 58.9574 118.026C58.7017 117.52 58.5739 116.929 58.5739 116.253C58.5739 115.577 58.7017 114.984 58.9574 114.476C59.2159 113.967 59.5795 113.572 60.0483 113.291C60.517 113.01 61.071 112.869 61.7102 112.869C62.3494 112.869 62.9034 113.01 63.3722 113.291C63.8409 113.572 64.2031 113.967 64.4588 114.476C64.7173 114.984 64.8466 115.577 64.8466 116.253C64.8466 116.929 64.7173 117.52 64.4588 118.026C64.2031 118.531 63.8409 118.925 63.3722 119.206C62.9034 119.487 62.3494 119.628 61.7102 119.628ZM61.7188 118.392C62.0653 118.392 62.3551 118.297 62.5881 118.107C62.821 117.913 62.9943 117.655 63.108 117.331C63.2244 117.007 63.2827 116.646 63.2827 116.249C63.2827 115.848 63.2244 115.486 63.108 115.162C62.9943 114.835 62.821 114.575 62.5881 114.382C62.3551 114.189 62.0653 114.092 61.7188 114.092C61.3636 114.092 61.0682 114.189 60.8324 114.382C60.5994 114.575 60.4247 114.835 60.3082 115.162C60.1946 115.486 60.1378 115.848 60.1378 116.249C60.1378 116.646 60.1946 117.007 60.3082 117.331C60.4247 117.655 60.5994 117.913 60.8324 118.107C61.0682 118.297 61.3636 118.392 61.7188 118.392ZM67.6985 110.773V119.5H66.1559V110.773H67.6985ZM70.8274 110.773V119.5H69.2848V110.773H70.8274ZM74.2972 119.632C73.8825 119.632 73.5089 119.558 73.1765 119.411C72.8469 119.26 72.5856 119.038 72.3924 118.746C72.2021 118.453 72.1069 118.092 72.1069 117.663C72.1069 117.294 72.1751 116.989 72.3114 116.747C72.4478 116.506 72.6339 116.312 72.8697 116.168C73.1055 116.023 73.3711 115.913 73.6665 115.839C73.9648 115.763 74.2731 115.707 74.5913 115.673C74.9748 115.634 75.2859 115.598 75.5245 115.567C75.7631 115.533 75.9364 115.482 76.0444 115.413C76.1552 115.342 76.2106 115.233 76.2106 115.085V115.06C76.2106 114.739 76.1154 114.49 75.9251 114.314C75.7347 114.138 75.4606 114.05 75.1026 114.05C74.7248 114.05 74.4251 114.132 74.2035 114.297C73.9847 114.462 73.837 114.656 73.7603 114.881L72.32 114.676C72.4336 114.278 72.6211 113.946 72.8825 113.679C73.1438 113.409 73.4634 113.207 73.8413 113.074C74.2191 112.938 74.6367 112.869 75.0941 112.869C75.4094 112.869 75.7234 112.906 76.0359 112.98C76.3484 113.054 76.6339 113.176 76.8924 113.347C77.1509 113.514 77.3583 113.743 77.5146 114.033C77.6737 114.322 77.7532 114.685 77.7532 115.119V119.5H76.2702V118.601H76.2191C76.1254 118.783 75.9933 118.953 75.8228 119.112C75.6552 119.268 75.4435 119.395 75.1879 119.491C74.935 119.585 74.6381 119.632 74.2972 119.632ZM74.6978 118.499C75.0075 118.499 75.2759 118.437 75.5032 118.315C75.7305 118.19 75.9052 118.026 76.0273 117.821C76.1523 117.616 76.2148 117.393 76.2148 117.152V116.381C76.1665 116.42 76.0842 116.457 75.9677 116.491C75.854 116.526 75.7262 116.555 75.5842 116.581C75.4421 116.607 75.3015 116.629 75.1623 116.649C75.0231 116.669 74.9023 116.686 74.8001 116.7C74.57 116.732 74.364 116.783 74.1822 116.854C74.0004 116.925 73.8569 117.024 73.7518 117.152C73.6467 117.277 73.5941 117.439 73.5941 117.638C73.5941 117.922 73.6978 118.136 73.9052 118.281C74.1126 118.426 74.3768 118.499 74.6978 118.499ZM82.5728 112.955V114.148H78.81V112.955H82.5728ZM79.739 111.386H81.2816V117.531C81.2816 117.739 81.3129 117.898 81.3754 118.009C81.4407 118.116 81.5259 118.19 81.631 118.23C81.7362 118.27 81.8526 118.29 81.9805 118.29C82.0771 118.29 82.1651 118.283 82.2447 118.268C82.3271 118.254 82.3896 118.241 82.4322 118.23L82.6921 119.436C82.6097 119.464 82.4918 119.496 82.3384 119.53C82.1879 119.564 82.0032 119.584 81.7844 119.589C81.3981 119.601 81.0501 119.543 80.7404 119.415C80.4308 119.284 80.185 119.082 80.0032 118.81C79.8242 118.537 79.7362 118.196 79.739 117.787V111.386ZM86.6903 119.628C86.0341 119.628 85.4673 119.491 84.9901 119.219C84.5156 118.943 84.1506 118.554 83.8949 118.051C83.6392 117.545 83.5114 116.95 83.5114 116.266C83.5114 115.592 83.6392 115.001 83.8949 114.493C84.1534 113.982 84.5142 113.584 84.9773 113.3C85.4403 113.013 85.9844 112.869 86.6094 112.869C87.0128 112.869 87.3935 112.935 87.7514 113.065C88.1122 113.193 88.4304 113.392 88.706 113.662C88.9844 113.932 89.2031 114.276 89.3622 114.693C89.5213 115.108 89.6009 115.602 89.6009 116.176V116.649H84.2358V115.609H88.1222C88.1193 115.314 88.0554 115.051 87.9304 114.821C87.8054 114.588 87.6307 114.405 87.4062 114.271C87.1847 114.138 86.9261 114.071 86.6307 114.071C86.3153 114.071 86.0384 114.148 85.7997 114.301C85.5611 114.452 85.375 114.651 85.2415 114.898C85.1108 115.142 85.044 115.411 85.0412 115.703V116.611C85.0412 116.991 85.1108 117.318 85.25 117.591C85.3892 117.861 85.5838 118.068 85.8338 118.213C86.0838 118.355 86.3764 118.426 86.7116 118.426C86.9361 118.426 87.1392 118.395 87.321 118.332C87.5028 118.267 87.6605 118.172 87.794 118.047C87.9276 117.922 88.0284 117.767 88.0966 117.582L89.5369 117.744C89.446 118.125 89.2727 118.457 89.017 118.741C88.7642 119.023 88.4403 119.241 88.0455 119.398C87.6506 119.551 87.1989 119.628 86.6903 119.628ZM90.9059 119.5V112.955H92.4016V114.045H92.4698C92.5891 113.668 92.7937 113.376 93.0835 113.172C93.3761 112.964 93.7099 112.861 94.0849 112.861C94.1701 112.861 94.2653 112.865 94.3704 112.874C94.4783 112.879 94.5678 112.889 94.6388 112.903V114.322C94.5735 114.3 94.4698 114.28 94.3278 114.263C94.1886 114.243 94.0536 114.233 93.9229 114.233C93.6417 114.233 93.3888 114.294 93.1644 114.416C92.9428 114.536 92.7681 114.702 92.6403 114.915C92.5124 115.128 92.4485 115.374 92.4485 115.652V119.5H90.9059ZM97.43 119.632C97.0153 119.632 96.6417 119.558 96.3093 119.411C95.9798 119.26 95.7184 119.038 95.5252 118.746C95.3349 118.453 95.2397 118.092 95.2397 117.663C95.2397 117.294 95.3079 116.989 95.4442 116.747C95.5806 116.506 95.7667 116.312 96.0025 116.168C96.2383 116.023 96.5039 115.913 96.7994 115.839C97.0977 115.763 97.4059 115.707 97.7241 115.673C98.1076 115.634 98.4187 115.598 98.6573 115.567C98.896 115.533 99.0692 115.482 99.1772 115.413C99.288 115.342 99.3434 115.233 99.3434 115.085V115.06C99.3434 114.739 99.2482 114.49 99.0579 114.314C98.8675 114.138 98.5934 114.05 98.2354 114.05C97.8576 114.05 97.5579 114.132 97.3363 114.297C97.1175 114.462 96.9698 114.656 96.8931 114.881L95.4528 114.676C95.5664 114.278 95.7539 113.946 96.0153 113.679C96.2766 113.409 96.5962 113.207 96.9741 113.074C97.3519 112.938 97.7695 112.869 98.2269 112.869C98.5423 112.869 98.8562 112.906 99.1687 112.98C99.4812 113.054 99.7667 113.176 100.025 113.347C100.284 113.514 100.491 113.743 100.647 114.033C100.806 114.322 100.886 114.685 100.886 115.119V119.5H99.4031V118.601H99.3519C99.2582 118.783 99.1261 118.953 98.9556 119.112C98.788 119.268 98.5763 119.395 98.3207 119.491C98.0678 119.585 97.771 119.632 97.43 119.632ZM97.8306 118.499C98.1403 118.499 98.4087 118.437 98.636 118.315C98.8633 118.19 99.038 118.026 99.1602 117.821C99.2852 117.616 99.3477 117.393 99.3477 117.152V116.381C99.2994 116.42 99.217 116.457 99.1005 116.491C98.9869 116.526 98.859 116.555 98.717 116.581C98.5749 116.607 98.4343 116.629 98.2951 116.649C98.1559 116.669 98.0352 116.686 97.9329 116.7C97.7028 116.732 97.4968 116.783 97.315 116.854C97.1332 116.925 96.9897 117.024 96.8846 117.152C96.7795 117.277 96.7269 117.439 96.7269 117.638C96.7269 117.922 96.8306 118.136 97.038 118.281C97.2454 118.426 97.5096 118.499 97.8306 118.499ZM103.98 110.773V119.5H102.437V110.773H103.98ZM35.228 130.773H37.1626L39.7536 137.097H39.8558L42.4467 130.773H44.3814V139.5H42.8643V133.504H42.7834L40.3714 139.474H39.2379L36.826 133.491H36.745V139.5H35.228V130.773ZM47.9183 139.632C47.5036 139.632 47.13 139.558 46.7976 139.411C46.468 139.26 46.2067 139.038 46.0135 138.746C45.8232 138.453 45.728 138.092 45.728 137.663C45.728 137.294 45.7962 136.989 45.9325 136.747C46.0689 136.506 46.255 136.312 46.4908 136.168C46.7266 136.023 46.9922 135.913 47.2876 135.839C47.5859 135.763 47.8942 135.707 48.2124 135.673C48.5959 135.634 48.907 135.598 49.1456 135.567C49.3842 135.533 49.5575 135.482 49.6655 135.413C49.7763 135.342 49.8317 135.233 49.8317 135.085V135.06C49.8317 134.739 49.7365 134.49 49.5462 134.314C49.3558 134.138 49.0817 134.05 48.7237 134.05C48.3459 134.05 48.0462 134.132 47.8246 134.297C47.6058 134.462 47.4581 134.656 47.3814 134.881L45.9411 134.676C46.0547 134.278 46.2422 133.946 46.5036 133.679C46.7649 133.409 47.0845 133.207 47.4624 133.074C47.8402 132.938 48.2578 132.869 48.7152 132.869C49.0305 132.869 49.3445 132.906 49.657 132.98C49.9695 133.054 50.255 133.176 50.5135 133.347C50.772 133.514 50.9794 133.743 51.1357 134.033C51.2947 134.322 51.3743 134.685 51.3743 135.119V139.5H49.8913V138.601H49.8402C49.7464 138.783 49.6143 138.953 49.4439 139.112C49.2763 139.268 49.0646 139.395 48.8089 139.491C48.5561 139.585 48.2592 139.632 47.9183 139.632ZM48.3189 138.499C48.6286 138.499 48.897 138.437 49.1243 138.315C49.3516 138.19 49.5263 138.026 49.6484 137.821C49.7734 137.616 49.8359 137.393 49.8359 137.152V136.381C49.7876 136.42 49.7053 136.457 49.5888 136.491C49.4751 136.526 49.3473 136.555 49.2053 136.581C49.0632 136.607 48.9226 136.629 48.7834 136.649C48.6442 136.669 48.5234 136.686 48.4212 136.7C48.1911 136.732 47.9851 136.783 47.8033 136.854C47.6214 136.925 47.478 137.024 47.3729 137.152C47.2678 137.277 47.2152 137.439 47.2152 137.638C47.2152 137.922 47.3189 138.136 47.5263 138.281C47.7337 138.426 47.9979 138.499 48.3189 138.499ZM52.9254 139.5V132.955H54.4212V134.045H54.4893C54.6087 133.668 54.8132 133.376 55.103 133.172C55.3956 132.964 55.7294 132.861 56.1044 132.861C56.1896 132.861 56.2848 132.865 56.3899 132.874C56.4979 132.879 56.5874 132.889 56.6584 132.903V134.322C56.593 134.3 56.4893 134.28 56.3473 134.263C56.2081 134.243 56.0732 134.233 55.9425 134.233C55.6612 134.233 55.4084 134.294 55.1839 134.416C54.9624 134.536 54.7876 134.702 54.6598 134.915C54.532 135.128 54.468 135.374 54.468 135.652V139.5H52.9254ZM59.0895 137.446L59.0852 135.584H59.3324L61.6847 132.955H63.4872L60.5938 136.176H60.2741L59.0895 137.446ZM57.6832 139.5V130.773H59.2259V139.5H57.6832ZM61.7912 139.5L59.6605 136.521L60.7003 135.435L63.6364 139.5H61.7912ZM67.1435 139.628C66.4872 139.628 65.9205 139.491 65.4432 139.219C64.9688 138.943 64.6037 138.554 64.348 138.051C64.0923 137.545 63.9645 136.95 63.9645 136.266C63.9645 135.592 64.0923 135.001 64.348 134.493C64.6065 133.982 64.9673 133.584 65.4304 133.3C65.8935 133.013 66.4375 132.869 67.0625 132.869C67.4659 132.869 67.8466 132.935 68.2045 133.065C68.5653 133.193 68.8835 133.392 69.1591 133.662C69.4375 133.932 69.6563 134.276 69.8153 134.693C69.9744 135.108 70.054 135.602 70.054 136.176V136.649H64.6889V135.609H68.5753C68.5724 135.314 68.5085 135.051 68.3835 134.821C68.2585 134.588 68.0838 134.405 67.8594 134.271C67.6378 134.138 67.3793 134.071 67.0838 134.071C66.7685 134.071 66.4915 134.148 66.2528 134.301C66.0142 134.452 65.8281 134.651 65.6946 134.898C65.5639 135.142 65.4972 135.411 65.4943 135.703V136.611C65.4943 136.991 65.5639 137.318 65.7031 137.591C65.8423 137.861 66.0369 138.068 66.2869 138.213C66.5369 138.355 66.8295 138.426 67.1648 138.426C67.3892 138.426 67.5923 138.395 67.7741 138.332C67.956 138.267 68.1136 138.172 68.2472 138.047C68.3807 137.922 68.4815 137.767 68.5497 137.582L69.9901 137.744C69.8991 138.125 69.7259 138.457 69.4702 138.741C69.2173 139.023 68.8935 139.241 68.4986 139.398C68.1037 139.551 67.652 139.628 67.1435 139.628ZM74.6275 132.955V134.148H70.8647V132.955H74.6275ZM71.7937 131.386H73.3363V137.531C73.3363 137.739 73.3675 137.898 73.43 138.009C73.4954 138.116 73.5806 138.19 73.6857 138.23C73.7908 138.27 73.9073 138.29 74.0352 138.29C74.1317 138.29 74.2198 138.283 74.2994 138.268C74.3817 138.254 74.4442 138.241 74.4869 138.23L74.7468 139.436C74.6644 139.464 74.5465 139.496 74.3931 139.53C74.2425 139.564 74.0579 139.584 73.8391 139.589C73.4528 139.601 73.1048 139.543 72.7951 139.415C72.4854 139.284 72.2397 139.082 72.0579 138.81C71.8789 138.537 71.7908 138.196 71.7937 137.787V131.386ZM78.9624 139.5V130.773H82.2351C82.9055 130.773 83.468 130.898 83.9226 131.148C84.38 131.398 84.7251 131.741 84.9581 132.179C85.1939 132.614 85.3118 133.108 85.3118 133.662C85.3118 134.222 85.1939 134.719 84.9581 135.153C84.7223 135.588 84.3743 135.93 83.9141 136.18C83.4538 136.428 82.8871 136.551 82.2138 136.551H80.0447V135.251H82.0007C82.3928 135.251 82.7138 135.183 82.9638 135.047C83.2138 134.911 83.3984 134.723 83.5178 134.484C83.6399 134.246 83.701 133.972 83.701 133.662C83.701 133.352 83.6399 133.08 83.5178 132.844C83.3984 132.608 83.2124 132.425 82.9595 132.294C82.7095 132.161 82.3871 132.094 81.9922 132.094H80.5433V139.5H78.9624ZM86.6168 139.5V132.955H88.1126V134.045H88.1808C88.3001 133.668 88.5046 133.376 88.7944 133.172C89.087 132.964 89.4208 132.861 89.7958 132.861C89.881 132.861 89.9762 132.865 90.0813 132.874C90.1893 132.879 90.2788 132.889 90.3498 132.903V134.322C90.2844 134.3 90.1808 134.28 90.0387 134.263C89.8995 134.243 89.7646 134.233 89.6339 134.233C89.3526 134.233 89.0998 134.294 88.8754 134.416C88.6538 134.536 88.479 134.702 88.3512 134.915C88.2234 135.128 88.1594 135.374 88.1594 135.652V139.5H86.6168ZM91.3746 139.5V132.955H92.9173V139.5H91.3746ZM92.1502 132.026C91.9059 132.026 91.6957 131.945 91.5195 131.783C91.3434 131.618 91.2553 131.42 91.2553 131.19C91.2553 130.957 91.3434 130.76 91.5195 130.598C91.6957 130.433 91.9059 130.351 92.1502 130.351C92.3974 130.351 92.6076 130.433 92.7809 130.598C92.957 130.76 93.0451 130.957 93.0451 131.19C93.0451 131.42 92.957 131.618 92.7809 131.783C92.6076 131.945 92.3974 132.026 92.1502 132.026ZM97.3587 139.628C96.7053 139.628 96.1442 139.484 95.6754 139.197C95.2095 138.911 94.8501 138.514 94.5973 138.009C94.3473 137.5 94.2223 136.915 94.2223 136.253C94.2223 135.588 94.3501 135.001 94.6058 134.493C94.8615 133.982 95.2223 133.584 95.6882 133.3C96.157 133.013 96.7109 132.869 97.3501 132.869C97.8814 132.869 98.3516 132.967 98.7607 133.163C99.1726 133.357 99.5007 133.631 99.745 133.986C99.9893 134.338 100.129 134.75 100.163 135.222H98.6882C98.6286 134.906 98.4865 134.643 98.2621 134.433C98.0405 134.22 97.7436 134.114 97.3714 134.114C97.0561 134.114 96.7791 134.199 96.5405 134.369C96.3018 134.537 96.1158 134.778 95.9822 135.094C95.8516 135.409 95.7862 135.787 95.7862 136.227C95.7862 136.673 95.8516 137.057 95.9822 137.378C96.1129 137.696 96.2962 137.942 96.532 138.115C96.7706 138.286 97.0504 138.371 97.3714 138.371C97.5987 138.371 97.8018 138.328 97.9808 138.243C98.1626 138.155 98.3146 138.028 98.4368 137.864C98.5589 137.699 98.6428 137.499 98.6882 137.263H100.163C100.126 137.726 99.9893 138.136 99.7536 138.494C99.5178 138.849 99.1967 139.128 98.7905 139.33C98.3842 139.528 97.907 139.628 97.3587 139.628ZM104.327 139.628C103.671 139.628 103.104 139.491 102.627 139.219C102.152 138.943 101.787 138.554 101.532 138.051C101.276 137.545 101.148 136.95 101.148 136.266C101.148 135.592 101.276 135.001 101.532 134.493C101.79 133.982 102.151 133.584 102.614 133.3C103.077 133.013 103.621 132.869 104.246 132.869C104.65 132.869 105.03 132.935 105.388 133.065C105.749 133.193 106.067 133.392 106.343 133.662C106.621 133.932 106.84 134.276 106.999 134.693C107.158 135.108 107.238 135.602 107.238 136.176V136.649H101.873V135.609H105.759C105.756 135.314 105.692 135.051 105.567 134.821C105.442 134.588 105.267 134.405 105.043 134.271C104.821 134.138 104.563 134.071 104.267 134.071C103.952 134.071 103.675 134.148 103.436 134.301C103.198 134.452 103.012 134.651 102.878 134.898C102.748 135.142 102.681 135.411 102.678 135.703V136.611C102.678 136.991 102.748 137.318 102.887 137.591C103.026 137.861 103.221 138.068 103.471 138.213C103.721 138.355 104.013 138.426 104.348 138.426C104.573 138.426 104.776 138.395 104.958 138.332C105.14 138.267 105.297 138.172 105.431 138.047C105.564 137.922 105.665 137.767 105.733 137.582L107.174 137.744C107.083 138.125 106.909 138.457 106.654 138.741C106.401 139.023 106.077 139.241 105.682 139.398C105.287 139.551 104.836 139.628 104.327 139.628Z" fill="#596F78"/>
<path d="M110.192 44.7727V53.5H108.611V44.7727H110.192ZM113.378 49.6648V53.5H111.836V46.9545H113.31V48.0668H113.387C113.537 47.7003 113.777 47.4091 114.107 47.1932C114.439 46.9773 114.85 46.8693 115.338 46.8693C115.79 46.8693 116.184 46.9659 116.519 47.1591C116.857 47.3523 117.118 47.6321 117.303 47.9986C117.49 48.3651 117.583 48.8097 117.58 49.3324V53.5H116.037V49.571C116.037 49.1335 115.924 48.7912 115.696 48.544C115.472 48.2969 115.161 48.1733 114.763 48.1733C114.493 48.1733 114.253 48.233 114.043 48.3523C113.836 48.4687 113.672 48.6378 113.553 48.8594C113.436 49.081 113.378 49.3494 113.378 49.6648ZM119.148 53.5V46.9545H120.691V53.5H119.148ZM119.924 46.0256C119.679 46.0256 119.469 45.9446 119.293 45.7827C119.117 45.6179 119.029 45.4205 119.029 45.1903C119.029 44.9574 119.117 44.7599 119.293 44.598C119.469 44.4332 119.679 44.3509 119.924 44.3509C120.171 44.3509 120.381 44.4332 120.554 44.598C120.73 44.7599 120.819 44.9574 120.819 45.1903C120.819 45.4205 120.73 45.6179 120.554 45.7827C120.381 45.9446 120.171 46.0256 119.924 46.0256ZM125.545 46.9545V48.1477H121.783V46.9545H125.545ZM122.712 45.3864H124.254V51.5312C124.254 51.7386 124.286 51.8977 124.348 52.0085C124.413 52.1165 124.499 52.1903 124.604 52.2301C124.709 52.2699 124.825 52.2898 124.953 52.2898C125.05 52.2898 125.138 52.2827 125.217 52.2685C125.3 52.2543 125.362 52.2415 125.405 52.2301L125.665 53.4361C125.582 53.4645 125.464 53.4957 125.311 53.5298C125.161 53.5639 124.976 53.5838 124.757 53.5895C124.371 53.6009 124.023 53.5426 123.713 53.4148C123.403 53.2841 123.158 53.0824 122.976 52.8097C122.797 52.5369 122.709 52.196 122.712 51.7869V45.3864ZM126.836 53.5V46.9545H128.378V53.5H126.836ZM127.611 46.0256C127.367 46.0256 127.157 45.9446 126.98 45.7827C126.804 45.6179 126.716 45.4205 126.716 45.1903C126.716 44.9574 126.804 44.7599 126.98 44.598C127.157 44.4332 127.367 44.3509 127.611 44.3509C127.858 44.3509 128.069 44.4332 128.242 44.598C128.418 44.7599 128.506 44.9574 128.506 45.1903C128.506 45.4205 128.418 45.6179 128.242 45.7827C128.069 45.9446 127.858 46.0256 127.611 46.0256ZM131.848 53.6321C131.433 53.6321 131.06 53.5582 130.727 53.4105C130.398 53.2599 130.136 53.0384 129.943 52.7457C129.753 52.4531 129.658 52.0923 129.658 51.6634C129.658 51.294 129.726 50.9886 129.862 50.7472C129.999 50.5057 130.185 50.3125 130.42 50.1676C130.656 50.0227 130.922 49.9134 131.217 49.8395C131.516 49.7628 131.824 49.7074 132.142 49.6733C132.526 49.6335 132.837 49.598 133.075 49.5668C133.314 49.5327 133.487 49.4815 133.595 49.4134C133.706 49.3423 133.761 49.233 133.761 49.0852V49.0597C133.761 48.7386 133.666 48.4901 133.476 48.3139C133.286 48.1378 133.011 48.0497 132.653 48.0497C132.276 48.0497 131.976 48.1321 131.754 48.2969C131.536 48.4616 131.388 48.6562 131.311 48.8807L129.871 48.6761C129.984 48.2784 130.172 47.946 130.433 47.679C130.695 47.4091 131.014 47.2074 131.392 47.0739C131.77 46.9375 132.188 46.8693 132.645 46.8693C132.96 46.8693 133.274 46.9062 133.587 46.9801C133.899 47.054 134.185 47.1761 134.443 47.3466C134.702 47.5142 134.909 47.7429 135.065 48.0327C135.224 48.3224 135.304 48.6847 135.304 49.1193V53.5H133.821V52.6009H133.77C133.676 52.7827 133.544 52.9531 133.374 53.1122C133.206 53.2685 132.994 53.3949 132.739 53.4915C132.486 53.5852 132.189 53.6321 131.848 53.6321ZM132.249 52.4986C132.558 52.4986 132.827 52.4375 133.054 52.3153C133.281 52.1903 133.456 52.0256 133.578 51.821C133.703 51.6165 133.766 51.3935 133.766 51.152V50.3807C133.717 50.4205 133.635 50.4574 133.518 50.4915C133.405 50.5256 133.277 50.5554 133.135 50.581C132.993 50.6065 132.852 50.6293 132.713 50.6491C132.574 50.669 132.453 50.6861 132.351 50.7003C132.121 50.7315 131.915 50.7827 131.733 50.8537C131.551 50.9247 131.408 51.0241 131.303 51.152C131.197 51.277 131.145 51.4389 131.145 51.6378C131.145 51.9219 131.249 52.1364 131.456 52.2812C131.663 52.4261 131.928 52.4986 132.249 52.4986ZM138.398 44.7727V53.5H136.855V44.7727H138.398ZM146.229 46.9545V48.1477H142.466V46.9545H146.229ZM143.395 45.3864H144.938V51.5312C144.938 51.7386 144.969 51.8977 145.032 52.0085C145.097 52.1165 145.182 52.1903 145.287 52.2301C145.392 52.2699 145.509 52.2898 145.637 52.2898C145.733 52.2898 145.821 52.2827 145.901 52.2685C145.983 52.2543 146.046 52.2415 146.088 52.2301L146.348 53.4361C146.266 53.4645 146.148 53.4957 145.995 53.5298C145.844 53.5639 145.659 53.5838 145.441 53.5895C145.054 53.6009 144.706 53.5426 144.397 53.4148C144.087 53.2841 143.841 53.0824 143.659 52.8097C143.48 52.5369 143.392 52.196 143.395 51.7869V45.3864ZM149.403 53.6321C148.988 53.6321 148.614 53.5582 148.282 53.4105C147.952 53.2599 147.691 53.0384 147.498 52.7457C147.308 52.4531 147.212 52.0923 147.212 51.6634C147.212 51.294 147.281 50.9886 147.417 50.7472C147.553 50.5057 147.739 50.3125 147.975 50.1676C148.211 50.0227 148.477 49.9134 148.772 49.8395C149.07 49.7628 149.379 49.7074 149.697 49.6733C150.08 49.6335 150.391 49.598 150.63 49.5668C150.869 49.5327 151.042 49.4815 151.15 49.4134C151.261 49.3423 151.316 49.233 151.316 49.0852V49.0597C151.316 48.7386 151.221 48.4901 151.031 48.3139C150.84 48.1378 150.566 48.0497 150.208 48.0497C149.83 48.0497 149.531 48.1321 149.309 48.2969C149.09 48.4616 148.942 48.6562 148.866 48.8807L147.425 48.6761C147.539 48.2784 147.727 47.946 147.988 47.679C148.249 47.4091 148.569 47.2074 148.947 47.0739C149.325 46.9375 149.742 46.8693 150.2 46.8693C150.515 46.8693 150.829 46.9062 151.141 46.9801C151.454 47.054 151.739 47.1761 151.998 47.3466C152.256 47.5142 152.464 47.7429 152.62 48.0327C152.779 48.3224 152.859 48.6847 152.859 49.1193V53.5H151.376V52.6009H151.325C151.231 52.7827 151.099 52.9531 150.928 53.1122C150.761 53.2685 150.549 53.3949 150.293 53.4915C150.04 53.5852 149.744 53.6321 149.403 53.6321ZM149.803 52.4986C150.113 52.4986 150.381 52.4375 150.609 52.3153C150.836 52.1903 151.011 52.0256 151.133 51.821C151.258 51.6165 151.32 51.3935 151.32 51.152V50.3807C151.272 50.4205 151.19 50.4574 151.073 50.4915C150.96 50.5256 150.832 50.5554 150.69 50.581C150.548 50.6065 150.407 50.6293 150.268 50.6491C150.129 50.669 150.008 50.6861 149.906 50.7003C149.675 50.7315 149.469 50.7827 149.288 50.8537C149.106 50.9247 148.962 51.0241 148.857 51.152C148.752 51.277 148.7 51.4389 148.7 51.6378C148.7 51.9219 148.803 52.1364 149.011 52.2812C149.218 52.4261 149.482 52.4986 149.803 52.4986ZM155.816 51.446L155.812 49.5838H156.059L158.411 46.9545H160.214L157.32 50.1761H157.001L155.816 51.446ZM154.41 53.5V44.7727H155.952V53.5H154.41ZM158.518 53.5L156.387 50.5213L157.427 49.4347L160.363 53.5H158.518ZM163.87 53.6278C163.214 53.6278 162.647 53.4915 162.17 53.2188C161.695 52.9432 161.33 52.554 161.075 52.0511C160.819 51.5455 160.691 50.9503 160.691 50.2656C160.691 49.5923 160.819 49.0014 161.075 48.4929C161.333 47.9815 161.694 47.5838 162.157 47.2997C162.62 47.0128 163.164 46.8693 163.789 46.8693C164.192 46.8693 164.573 46.9347 164.931 47.0653C165.292 47.1932 165.61 47.392 165.886 47.6619C166.164 47.9318 166.383 48.2756 166.542 48.6932C166.701 49.108 166.781 49.6023 166.781 50.1761V50.6491H161.415V49.6094H165.302C165.299 49.3139 165.235 49.0511 165.11 48.821C164.985 48.5881 164.81 48.4048 164.586 48.2713C164.364 48.1378 164.106 48.071 163.81 48.071C163.495 48.071 163.218 48.1477 162.979 48.3011C162.741 48.4517 162.555 48.6506 162.421 48.8977C162.29 49.142 162.224 49.4105 162.221 49.7031V50.6108C162.221 50.9915 162.29 51.3182 162.43 51.5909C162.569 51.8608 162.763 52.0682 163.013 52.2131C163.263 52.3551 163.556 52.4261 163.891 52.4261C164.116 52.4261 164.319 52.3949 164.501 52.3324C164.683 52.267 164.84 52.1719 164.974 52.0469C165.107 51.9219 165.208 51.767 165.276 51.5824L166.717 51.7443C166.626 52.125 166.452 52.4574 166.197 52.7415C165.944 53.0227 165.62 53.2415 165.225 53.3977C164.83 53.5511 164.379 53.6278 163.87 53.6278ZM171.062 55.9545V46.9545H172.579V48.0369H172.669C172.748 47.8778 172.86 47.7088 173.005 47.5298C173.15 47.348 173.346 47.1932 173.593 47.0653C173.841 46.9347 174.156 46.8693 174.539 46.8693C175.045 46.8693 175.501 46.9986 175.907 47.2571C176.316 47.5128 176.64 47.892 176.879 48.3949C177.12 48.8949 177.241 49.5085 177.241 50.2358C177.241 50.9545 177.123 51.5653 176.887 52.0682C176.652 52.571 176.331 52.9545 175.924 53.2188C175.518 53.483 175.058 53.6151 174.544 53.6151C174.169 53.6151 173.858 53.5526 173.61 53.4276C173.363 53.3026 173.164 53.152 173.014 52.9759C172.866 52.7969 172.751 52.6278 172.669 52.4688H172.605V55.9545H171.062ZM172.575 50.2273C172.575 50.6506 172.635 51.0213 172.754 51.3395C172.876 51.6577 173.051 51.9062 173.278 52.0852C173.508 52.2614 173.787 52.3494 174.113 52.3494C174.454 52.3494 174.74 52.2585 174.97 52.0767C175.2 51.892 175.373 51.6406 175.49 51.3224C175.609 51.0014 175.669 50.6364 175.669 50.2273C175.669 49.821 175.61 49.4602 175.494 49.1449C175.377 48.8295 175.204 48.5824 174.974 48.4034C174.744 48.2244 174.457 48.1349 174.113 48.1349C173.784 48.1349 173.504 48.2216 173.274 48.3949C173.044 48.5682 172.869 48.8111 172.75 49.1236C172.633 49.4361 172.575 49.804 172.575 50.2273ZM178.562 53.5V46.9545H180.058V48.0455H180.126C180.245 47.6676 180.45 47.3764 180.74 47.1719C181.032 46.9645 181.366 46.8608 181.741 46.8608C181.826 46.8608 181.922 46.8651 182.027 46.8736C182.135 46.8793 182.224 46.8892 182.295 46.9034V48.3224C182.23 48.2997 182.126 48.2798 181.984 48.2628C181.845 48.2429 181.71 48.233 181.579 48.233C181.298 48.233 181.045 48.294 180.821 48.4162C180.599 48.5355 180.424 48.7017 180.297 48.9148C180.169 49.1278 180.105 49.3736 180.105 49.652V53.5H178.562ZM185.906 53.6278C185.266 53.6278 184.712 53.4872 184.244 53.206C183.775 52.9247 183.411 52.5312 183.153 52.0256C182.897 51.5199 182.769 50.929 182.769 50.2528C182.769 49.5767 182.897 48.9844 183.153 48.4759C183.411 47.9673 183.775 47.5724 184.244 47.2912C184.712 47.0099 185.266 46.8693 185.906 46.8693C186.545 46.8693 187.099 47.0099 187.567 47.2912C188.036 47.5724 188.398 47.9673 188.654 48.4759C188.913 48.9844 189.042 49.5767 189.042 50.2528C189.042 50.929 188.913 51.5199 188.654 52.0256C188.398 52.5312 188.036 52.9247 187.567 53.206C187.099 53.4872 186.545 53.6278 185.906 53.6278ZM185.914 52.392C186.261 52.392 186.55 52.2969 186.783 52.1065C187.016 51.9134 187.19 51.6548 187.303 51.331C187.42 51.0071 187.478 50.6463 187.478 50.2486C187.478 49.848 187.42 49.4858 187.303 49.1619C187.19 48.8352 187.016 48.5753 186.783 48.3821C186.55 48.1889 186.261 48.0923 185.914 48.0923C185.559 48.0923 185.263 48.1889 185.028 48.3821C184.795 48.5753 184.62 48.8352 184.504 49.1619C184.39 49.4858 184.333 49.848 184.333 50.2486C184.333 50.6463 184.39 51.0071 184.504 51.331C184.62 51.6548 184.795 51.9134 185.028 52.1065C185.263 52.2969 185.559 52.392 185.914 52.392ZM193.667 46.9545V48.1477H189.797V46.9545H193.667ZM190.765 53.5V46.3366C190.765 45.8963 190.855 45.5298 191.037 45.2372C191.222 44.9446 191.469 44.7259 191.779 44.581C192.088 44.4361 192.432 44.3636 192.81 44.3636C193.077 44.3636 193.314 44.3849 193.522 44.4276C193.729 44.4702 193.882 44.5085 193.982 44.5426L193.675 45.7358C193.61 45.7159 193.527 45.696 193.428 45.6761C193.328 45.6534 193.218 45.642 193.096 45.642C192.809 45.642 192.605 45.7116 192.486 45.8509C192.37 45.9872 192.311 46.1832 192.311 46.4389V53.5H190.765ZM194.875 53.5V46.9545H196.417V53.5H194.875ZM195.65 46.0256C195.406 46.0256 195.196 45.9446 195.02 45.7827C194.843 45.6179 194.755 45.4205 194.755 45.1903C194.755 44.9574 194.843 44.7599 195.02 44.598C195.196 44.4332 195.406 44.3509 195.65 44.3509C195.897 44.3509 196.108 44.4332 196.281 44.598C196.457 44.7599 196.545 44.9574 196.545 45.1903C196.545 45.4205 196.457 45.6179 196.281 45.7827C196.108 45.9446 195.897 46.0256 195.65 46.0256ZM201.272 46.9545V48.1477H197.509V46.9545H201.272ZM198.438 45.3864H199.981V51.5312C199.981 51.7386 200.012 51.8977 200.075 52.0085C200.14 52.1165 200.225 52.1903 200.33 52.2301C200.435 52.2699 200.552 52.2898 200.68 52.2898C200.776 52.2898 200.864 52.2827 200.944 52.2685C201.026 52.2543 201.089 52.2415 201.131 52.2301L201.391 53.4361C201.309 53.4645 201.191 53.4957 201.038 53.5298C200.887 53.5639 200.702 53.5838 200.484 53.5895C200.097 53.6009 199.749 53.5426 199.44 53.4148C199.13 53.2841 198.884 53.0824 198.702 52.8097C198.523 52.5369 198.435 52.196 198.438 51.7869V45.3864ZM205.539 55.9545V46.9545H207.056V48.0369H207.145C207.225 47.8778 207.337 47.7088 207.482 47.5298C207.627 47.348 207.823 47.1932 208.07 47.0653C208.317 46.9347 208.632 46.8693 209.016 46.8693C209.522 46.8693 209.978 46.9986 210.384 47.2571C210.793 47.5128 211.117 47.892 211.355 48.3949C211.597 48.8949 211.718 49.5085 211.718 50.2358C211.718 50.9545 211.6 51.5653 211.364 52.0682C211.128 52.571 210.807 52.9545 210.401 53.2188C209.995 53.483 209.534 53.6151 209.02 53.6151C208.645 53.6151 208.334 53.5526 208.087 53.4276C207.84 53.3026 207.641 53.152 207.49 52.9759C207.343 52.7969 207.228 52.6278 207.145 52.4688H207.081V55.9545H205.539ZM207.051 50.2273C207.051 50.6506 207.111 51.0213 207.23 51.3395C207.353 51.6577 207.527 51.9062 207.755 52.0852C207.985 52.2614 208.263 52.3494 208.59 52.3494C208.931 52.3494 209.216 52.2585 209.446 52.0767C209.676 51.892 209.85 51.6406 209.966 51.3224C210.086 51.0014 210.145 50.6364 210.145 50.2273C210.145 49.821 210.087 49.4602 209.971 49.1449C209.854 48.8295 209.681 48.5824 209.451 48.4034C209.221 48.2244 208.934 48.1349 208.59 48.1349C208.26 48.1349 207.98 48.2216 207.75 48.3949C207.52 48.5682 207.346 48.8111 207.226 49.1236C207.11 49.4361 207.051 49.804 207.051 50.2273ZM213.039 53.5V46.9545H214.534V48.0455H214.603C214.722 47.6676 214.926 47.3764 215.216 47.1719C215.509 46.9645 215.843 46.8608 216.218 46.8608C216.303 46.8608 216.398 46.8651 216.503 46.8736C216.611 46.8793 216.701 46.8892 216.772 46.9034V48.3224C216.706 48.2997 216.603 48.2798 216.461 48.2628C216.321 48.2429 216.186 48.233 216.056 48.233C215.775 48.233 215.522 48.294 215.297 48.4162C215.076 48.5355 214.901 48.7017 214.773 48.9148C214.645 49.1278 214.581 49.3736 214.581 49.652V53.5H213.039ZM217.797 53.5V46.9545H219.339V53.5H217.797ZM218.572 46.0256C218.328 46.0256 218.118 45.9446 217.941 45.7827C217.765 45.6179 217.677 45.4205 217.677 45.1903C217.677 44.9574 217.765 44.7599 217.941 44.598C218.118 44.4332 218.328 44.3509 218.572 44.3509C218.819 44.3509 219.029 44.4332 219.203 44.598C219.379 44.7599 219.467 44.9574 219.467 45.1903C219.467 45.4205 219.379 45.6179 219.203 45.7827C219.029 45.9446 218.819 46.0256 218.572 46.0256ZM223.781 53.6278C223.127 53.6278 222.566 53.4844 222.097 53.1974C221.631 52.9105 221.272 52.5142 221.019 52.0085C220.769 51.5 220.644 50.9148 220.644 50.2528C220.644 49.5881 220.772 49.0014 221.028 48.4929C221.283 47.9815 221.644 47.5838 222.11 47.2997C222.579 47.0128 223.133 46.8693 223.772 46.8693C224.303 46.8693 224.773 46.9673 225.183 47.1634C225.594 47.3565 225.923 47.6307 226.167 47.9858C226.411 48.3381 226.55 48.75 226.585 49.2216H225.11C225.05 48.9062 224.908 48.6435 224.684 48.4332C224.462 48.2202 224.165 48.1136 223.793 48.1136C223.478 48.1136 223.201 48.1989 222.962 48.3693C222.724 48.5369 222.538 48.7784 222.404 49.0938C222.273 49.4091 222.208 49.7869 222.208 50.2273C222.208 50.6733 222.273 51.0568 222.404 51.3778C222.535 51.696 222.718 51.9418 222.954 52.1151C223.192 52.2855 223.472 52.3707 223.793 52.3707C224.021 52.3707 224.224 52.3281 224.403 52.2429C224.585 52.1548 224.737 52.0284 224.859 51.8636C224.981 51.6989 225.065 51.4986 225.11 51.2628H226.585C226.548 51.7259 226.411 52.1364 226.175 52.4943C225.94 52.8494 225.619 53.1278 225.212 53.3295C224.806 53.5284 224.329 53.6278 223.781 53.6278ZM230.749 53.6278C230.093 53.6278 229.526 53.4915 229.049 53.2188C228.574 52.9432 228.209 52.554 227.953 52.0511C227.698 51.5455 227.57 50.9503 227.57 50.2656C227.57 49.5923 227.698 49.0014 227.953 48.4929C228.212 47.9815 228.573 47.5838 229.036 47.2997C229.499 47.0128 230.043 46.8693 230.668 46.8693C231.071 46.8693 231.452 46.9347 231.81 47.0653C232.171 47.1932 232.489 47.392 232.765 47.6619C233.043 47.9318 233.262 48.2756 233.421 48.6932C233.58 49.108 233.659 49.6023 233.659 50.1761V50.6491H228.294V49.6094H232.181C232.178 49.3139 232.114 49.0511 231.989 48.821C231.864 48.5881 231.689 48.4048 231.465 48.2713C231.243 48.1378 230.985 48.071 230.689 48.071C230.374 48.071 230.097 48.1477 229.858 48.3011C229.62 48.4517 229.434 48.6506 229.3 48.8977C229.169 49.142 229.103 49.4105 229.1 49.7031V50.6108C229.1 50.9915 229.169 51.3182 229.309 51.5909C229.448 51.8608 229.642 52.0682 229.892 52.2131C230.142 52.3551 230.435 52.4261 230.77 52.4261C230.995 52.4261 231.198 52.3949 231.38 52.3324C231.561 52.267 231.719 52.1719 231.853 52.0469C231.986 51.9219 232.087 51.767 232.155 51.5824L233.596 51.7443C233.505 52.125 233.331 52.4574 233.076 52.7415C232.823 53.0227 232.499 53.2415 232.104 53.3977C231.709 53.5511 231.257 53.6278 230.749 53.6278Z" fill="#17344F"/>
<path d="M57.9549 173.5H54.9975V164.773H58.0146C58.881 164.773 59.6254 164.947 60.2475 165.297C60.8725 165.643 61.3526 166.142 61.6879 166.793C62.0231 167.443 62.1907 168.222 62.1907 169.128C62.1907 170.037 62.0217 170.818 61.6836 171.472C61.3484 172.125 60.864 172.626 60.2305 172.976C59.5998 173.325 58.8413 173.5 57.9549 173.5ZM56.5785 172.132H57.8782C58.4862 172.132 58.9933 172.021 59.3995 171.8C59.8058 171.575 60.1112 171.241 60.3157 170.798C60.5202 170.352 60.6225 169.795 60.6225 169.128C60.6225 168.46 60.5202 167.906 60.3157 167.466C60.1112 167.023 59.8086 166.692 59.408 166.473C59.0103 166.251 58.516 166.141 57.9251 166.141H56.5785V172.132ZM64.5835 175.955C64.3732 175.955 64.1786 175.938 63.9996 175.903C63.8235 175.872 63.6829 175.835 63.5778 175.793L63.9357 174.591C64.1602 174.656 64.3604 174.688 64.5366 174.685C64.7127 174.682 64.8675 174.626 65.0011 174.518C65.1374 174.413 65.2525 174.237 65.3462 173.99L65.4783 173.636L63.1048 166.955H64.7411L66.2496 171.898H66.3178L67.8306 166.955H69.4712L66.8505 174.293C66.7283 174.639 66.5664 174.936 66.3647 175.183C66.163 175.433 65.9158 175.624 65.6232 175.754C65.3335 175.888 64.9869 175.955 64.5835 175.955ZM72.0813 169.665V173.5H70.5387V166.955H72.0131V168.067H72.0898C72.2404 167.7 72.4805 167.409 72.81 167.193C73.1424 166.977 73.5529 166.869 74.0415 166.869C74.4933 166.869 74.8867 166.966 75.2219 167.159C75.56 167.352 75.8214 167.632 76.006 167.999C76.1935 168.365 76.2859 168.81 76.283 169.332V173.5H74.7404V169.571C74.7404 169.134 74.6268 168.791 74.3995 168.544C74.1751 168.297 73.864 168.173 73.4663 168.173C73.1964 168.173 72.9563 168.233 72.7461 168.352C72.5387 168.469 72.3754 168.638 72.256 168.859C72.1396 169.081 72.0813 169.349 72.0813 169.665ZM79.7347 173.632C79.32 173.632 78.9464 173.558 78.614 173.411C78.2844 173.26 78.0231 173.038 77.8299 172.746C77.6396 172.453 77.5444 172.092 77.5444 171.663C77.5444 171.294 77.6126 170.989 77.7489 170.747C77.8853 170.506 78.0714 170.312 78.3072 170.168C78.543 170.023 78.8086 169.913 79.104 169.839C79.4023 169.763 79.7106 169.707 80.0288 169.673C80.4123 169.634 80.7234 169.598 80.962 169.567C81.2006 169.533 81.3739 169.482 81.4819 169.413C81.5927 169.342 81.6481 169.233 81.6481 169.085V169.06C81.6481 168.739 81.5529 168.49 81.3626 168.314C81.1722 168.138 80.8981 168.05 80.5401 168.05C80.1623 168.05 79.8626 168.132 79.641 168.297C79.4222 168.462 79.2745 168.656 79.1978 168.881L77.7575 168.676C77.8711 168.278 78.0586 167.946 78.32 167.679C78.5813 167.409 78.9009 167.207 79.2788 167.074C79.6566 166.938 80.0742 166.869 80.5316 166.869C80.8469 166.869 81.1609 166.906 81.4734 166.98C81.7859 167.054 82.0714 167.176 82.3299 167.347C82.5884 167.514 82.7958 167.743 82.9521 168.033C83.1112 168.322 83.1907 168.685 83.1907 169.119V173.5H81.7077V172.601H81.6566C81.5629 172.783 81.4308 172.953 81.2603 173.112C81.0927 173.268 80.881 173.395 80.6254 173.491C80.3725 173.585 80.0756 173.632 79.7347 173.632ZM80.1353 172.499C80.445 172.499 80.7134 172.437 80.9407 172.315C81.168 172.19 81.3427 172.026 81.4648 171.821C81.5898 171.616 81.6523 171.393 81.6523 171.152V170.381C81.604 170.42 81.5217 170.457 81.4052 170.491C81.2915 170.526 81.1637 170.555 81.0217 170.581C80.8796 170.607 80.739 170.629 80.5998 170.649C80.4606 170.669 80.3398 170.686 80.2376 170.7C80.0075 170.732 79.8015 170.783 79.6197 170.854C79.4379 170.925 79.2944 171.024 79.1893 171.152C79.0842 171.277 79.0316 171.439 79.0316 171.638C79.0316 171.922 79.1353 172.136 79.3427 172.281C79.5501 172.426 79.8143 172.499 80.1353 172.499ZM84.7418 173.5V166.955H86.2163V168.067H86.293C86.4293 167.692 86.6552 167.399 86.9705 167.189C87.2859 166.976 87.6623 166.869 88.0998 166.869C88.543 166.869 88.9165 166.977 89.2205 167.193C89.5273 167.406 89.7433 167.697 89.8683 168.067H89.9364C90.0813 167.703 90.3256 167.413 90.6694 167.197C91.016 166.979 91.4265 166.869 91.9009 166.869C92.5032 166.869 92.9947 167.06 93.3754 167.44C93.756 167.821 93.9464 168.376 93.9464 169.107V173.5H92.3995V169.345C92.3995 168.939 92.2915 168.642 92.0756 168.455C91.8597 168.264 91.5955 168.169 91.283 168.169C90.9109 168.169 90.6197 168.286 90.4094 168.518C90.2021 168.749 90.0984 169.048 90.0984 169.418V173.5H88.5856V169.281C88.5856 168.943 88.4833 168.673 88.2788 168.472C88.0771 168.27 87.8129 168.169 87.4862 168.169C87.2646 168.169 87.0629 168.226 86.881 168.339C86.6992 168.45 86.5543 168.608 86.4464 168.812C86.3384 169.014 86.2844 169.25 86.2844 169.52V173.5H84.7418ZM95.5114 173.5V166.955H97.054V173.5H95.5114ZM96.2869 166.026C96.0426 166.026 95.8324 165.945 95.6562 165.783C95.4801 165.618 95.392 165.42 95.392 165.19C95.392 164.957 95.4801 164.76 95.6562 164.598C95.8324 164.433 96.0426 164.351 96.2869 164.351C96.5341 164.351 96.7443 164.433 96.9176 164.598C97.0938 164.76 97.1818 164.957 97.1818 165.19C97.1818 165.42 97.0938 165.618 96.9176 165.783C96.7443 165.945 96.5341 166.026 96.2869 166.026ZM101.495 173.628C100.842 173.628 100.281 173.484 99.8121 173.197C99.3462 172.911 98.9869 172.514 98.734 172.009C98.484 171.5 98.359 170.915 98.359 170.253C98.359 169.588 98.4869 169.001 98.7425 168.493C98.9982 167.982 99.359 167.584 99.8249 167.3C100.294 167.013 100.848 166.869 101.487 166.869C102.018 166.869 102.488 166.967 102.897 167.163C103.309 167.357 103.637 167.631 103.882 167.986C104.126 168.338 104.265 168.75 104.299 169.222H102.825C102.765 168.906 102.623 168.643 102.399 168.433C102.177 168.22 101.88 168.114 101.508 168.114C101.193 168.114 100.916 168.199 100.677 168.369C100.439 168.537 100.252 168.778 100.119 169.094C99.9883 169.409 99.9229 169.787 99.9229 170.227C99.9229 170.673 99.9883 171.057 100.119 171.378C100.25 171.696 100.433 171.942 100.669 172.115C100.907 172.286 101.187 172.371 101.508 172.371C101.735 172.371 101.939 172.328 102.118 172.243C102.299 172.155 102.451 172.028 102.574 171.864C102.696 171.699 102.779 171.499 102.825 171.263H104.299C104.262 171.726 104.126 172.136 103.89 172.494C103.654 172.849 103.333 173.128 102.927 173.33C102.521 173.528 102.044 173.628 101.495 173.628ZM23.6232 187.172C23.5835 186.8 23.4158 186.51 23.1204 186.303C22.8278 186.095 22.4471 185.991 21.9783 185.991C21.6488 185.991 21.3661 186.041 21.1303 186.141C20.8945 186.24 20.7141 186.375 20.5891 186.545C20.4641 186.716 20.4002 186.911 20.3974 187.129C20.3974 187.311 20.4386 187.469 20.521 187.602C20.6062 187.736 20.7212 187.849 20.8661 187.943C21.011 188.034 21.1715 188.111 21.3477 188.173C21.5238 188.236 21.7013 188.288 21.8803 188.331L22.6985 188.536C23.0281 188.612 23.3448 188.716 23.6488 188.847C23.9556 188.977 24.2298 189.142 24.4712 189.341C24.7156 189.54 24.9087 189.78 25.0508 190.061C25.1928 190.342 25.2638 190.672 25.2638 191.05C25.2638 191.561 25.1332 192.011 24.8718 192.401C24.6104 192.787 24.2326 193.089 23.7383 193.308C23.2468 193.524 22.6516 193.632 21.9528 193.632C21.2738 193.632 20.6843 193.527 20.1843 193.317C19.6871 193.107 19.2979 192.8 19.0167 192.396C18.7383 191.993 18.5877 191.501 18.565 190.922H20.1204C20.1431 191.226 20.2369 191.479 20.4016 191.68C20.5664 191.882 20.7809 192.033 21.0451 192.132C21.3121 192.232 21.6104 192.281 21.94 192.281C22.2837 192.281 22.5849 192.23 22.8434 192.128C23.1048 192.023 23.3093 191.878 23.457 191.693C23.6048 191.506 23.68 191.287 23.6829 191.037C23.68 190.81 23.6133 190.622 23.4826 190.474C23.3519 190.324 23.1687 190.199 22.9329 190.099C22.6999 189.997 22.4272 189.906 22.1147 189.827L21.1218 189.571C20.4031 189.386 19.8349 189.107 19.4173 188.732C19.0025 188.354 18.7951 187.852 18.7951 187.227C18.7951 186.713 18.9343 186.263 19.2127 185.876C19.494 185.49 19.8761 185.19 20.359 184.977C20.842 184.761 21.3888 184.653 21.9996 184.653C22.619 184.653 23.1616 184.761 23.6275 184.977C24.0962 185.19 24.4641 185.487 24.7312 185.868C24.9982 186.246 25.136 186.68 25.1445 187.172H23.6232ZM29.8736 186.955V188.148H26.1108V186.955H29.8736ZM27.0398 185.386H28.5824V191.531C28.5824 191.739 28.6136 191.898 28.6761 192.009C28.7415 192.116 28.8267 192.19 28.9318 192.23C29.0369 192.27 29.1534 192.29 29.2812 192.29C29.3778 192.29 29.4659 192.283 29.5455 192.268C29.6278 192.254 29.6903 192.241 29.733 192.23L29.9929 193.436C29.9105 193.464 29.7926 193.496 29.6392 193.53C29.4886 193.564 29.304 193.584 29.0852 193.589C28.6989 193.601 28.3509 193.543 28.0412 193.415C27.7315 193.284 27.4858 193.082 27.304 192.81C27.125 192.537 27.0369 192.196 27.0398 191.787V185.386ZM33.9485 193.628C33.3093 193.628 32.7553 193.487 32.2866 193.206C31.8178 192.925 31.4542 192.531 31.1957 192.026C30.94 191.52 30.8121 190.929 30.8121 190.253C30.8121 189.577 30.94 188.984 31.1957 188.476C31.4542 187.967 31.8178 187.572 32.2866 187.291C32.7553 187.01 33.3093 186.869 33.9485 186.869C34.5877 186.869 35.1417 187.01 35.6104 187.291C36.0792 187.572 36.4414 187.967 36.6971 188.476C36.9556 188.984 37.0849 189.577 37.0849 190.253C37.0849 190.929 36.9556 191.52 36.6971 192.026C36.4414 192.531 36.0792 192.925 35.6104 193.206C35.1417 193.487 34.5877 193.628 33.9485 193.628ZM33.957 192.392C34.3036 192.392 34.5934 192.297 34.8263 192.107C35.0593 191.913 35.2326 191.655 35.3462 191.331C35.4627 191.007 35.521 190.646 35.521 190.249C35.521 189.848 35.4627 189.486 35.3462 189.162C35.2326 188.835 35.0593 188.575 34.8263 188.382C34.5934 188.189 34.3036 188.092 33.957 188.092C33.6019 188.092 33.3065 188.189 33.0707 188.382C32.8377 188.575 32.663 188.835 32.5465 189.162C32.4329 189.486 32.3761 189.848 32.3761 190.249C32.3761 190.646 32.4329 191.007 32.5465 191.331C32.663 191.655 32.8377 191.913 33.0707 192.107C33.3065 192.297 33.6019 192.392 33.957 192.392ZM38.3942 195.955V186.955H39.9112V188.037H40.0007C40.0803 187.878 40.1925 187.709 40.3374 187.53C40.4822 187.348 40.6783 187.193 40.9254 187.065C41.1726 186.935 41.4879 186.869 41.8714 186.869C42.3771 186.869 42.8331 186.999 43.2393 187.257C43.6484 187.513 43.9723 187.892 44.2109 188.395C44.4524 188.895 44.5732 189.509 44.5732 190.236C44.5732 190.955 44.4553 191.565 44.2195 192.068C43.9837 192.571 43.6626 192.955 43.2564 193.219C42.8501 193.483 42.3899 193.615 41.8757 193.615C41.5007 193.615 41.1896 193.553 40.9425 193.428C40.6953 193.303 40.4964 193.152 40.3459 192.976C40.1982 192.797 40.0831 192.628 40.0007 192.469H39.9368V195.955H38.3942ZM39.907 190.227C39.907 190.651 39.9666 191.021 40.0859 191.339C40.2081 191.658 40.3828 191.906 40.6101 192.085C40.8402 192.261 41.1186 192.349 41.4453 192.349C41.7862 192.349 42.0717 192.259 42.3018 192.077C42.532 191.892 42.7053 191.641 42.8217 191.322C42.9411 191.001 43.0007 190.636 43.0007 190.227C43.0007 189.821 42.9425 189.46 42.826 189.145C42.7095 188.83 42.5362 188.582 42.3061 188.403C42.076 188.224 41.7891 188.135 41.4453 188.135C41.1158 188.135 40.8359 188.222 40.6058 188.395C40.3757 188.568 40.201 188.811 40.0817 189.124C39.9652 189.436 39.907 189.804 39.907 190.227ZM48.9389 193.5V184.773H50.5199V192.175H54.3636V193.5H48.9389ZM58.5227 193.628C57.8835 193.628 57.3295 193.487 56.8608 193.206C56.392 192.925 56.0284 192.531 55.7699 192.026C55.5142 191.52 55.3864 190.929 55.3864 190.253C55.3864 189.577 55.5142 188.984 55.7699 188.476C56.0284 187.967 56.392 187.572 56.8608 187.291C57.3295 187.01 57.8835 186.869 58.5227 186.869C59.1619 186.869 59.7159 187.01 60.1847 187.291C60.6534 187.572 61.0156 187.967 61.2713 188.476C61.5298 188.984 61.6591 189.577 61.6591 190.253C61.6591 190.929 61.5298 191.52 61.2713 192.026C61.0156 192.531 60.6534 192.925 60.1847 193.206C59.7159 193.487 59.1619 193.628 58.5227 193.628ZM58.5312 192.392C58.8778 192.392 59.1676 192.297 59.4006 192.107C59.6335 191.913 59.8068 191.655 59.9205 191.331C60.0369 191.007 60.0952 190.646 60.0952 190.249C60.0952 189.848 60.0369 189.486 59.9205 189.162C59.8068 188.835 59.6335 188.575 59.4006 188.382C59.1676 188.189 58.8778 188.092 58.5312 188.092C58.1761 188.092 57.8807 188.189 57.6449 188.382C57.4119 188.575 57.2372 188.835 57.1207 189.162C57.0071 189.486 56.9503 189.848 56.9503 190.249C56.9503 190.646 57.0071 191.007 57.1207 191.331C57.2372 191.655 57.4119 191.913 57.6449 192.107C57.8807 192.297 58.1761 192.392 58.5312 192.392ZM68.1417 188.685L66.7354 188.838C66.6957 188.696 66.6261 188.562 66.5266 188.438C66.43 188.312 66.2994 188.212 66.1346 188.135C65.9698 188.058 65.7681 188.02 65.5295 188.02C65.2085 188.02 64.9386 188.089 64.7198 188.229C64.5039 188.368 64.3974 188.548 64.4002 188.77C64.3974 188.96 64.467 189.115 64.609 189.234C64.7539 189.354 64.9925 189.452 65.3249 189.528L66.4414 189.767C67.0607 189.901 67.521 190.112 67.8221 190.402C68.1261 190.692 68.2795 191.071 68.2823 191.54C68.2795 191.952 68.1587 192.315 67.9201 192.631C67.6843 192.943 67.3562 193.187 66.9357 193.364C66.5153 193.54 66.0323 193.628 65.4869 193.628C64.6857 193.628 64.0408 193.46 63.5522 193.125C63.0636 192.787 62.7724 192.317 62.6786 191.714L64.1829 191.57C64.2511 191.865 64.396 192.088 64.6175 192.239C64.8391 192.389 65.1275 192.464 65.4826 192.464C65.8491 192.464 66.1431 192.389 66.3647 192.239C66.5891 192.088 66.7013 191.902 66.7013 191.68C66.7013 191.493 66.6289 191.338 66.484 191.216C66.342 191.094 66.1204 191 65.8192 190.935L64.7028 190.7C64.0749 190.57 63.6104 190.349 63.3093 190.04C63.0082 189.727 62.859 189.332 62.8619 188.855C62.859 188.452 62.9684 188.102 63.19 187.807C63.4144 187.509 63.7255 187.278 64.1232 187.116C64.5238 186.952 64.9854 186.869 65.5082 186.869C66.2752 186.869 66.8789 187.033 67.3192 187.359C67.7624 187.686 68.0366 188.128 68.1417 188.685ZM74.7276 188.685L73.3214 188.838C73.2816 188.696 73.212 188.562 73.1126 188.438C73.016 188.312 72.8853 188.212 72.7205 188.135C72.5558 188.058 72.354 188.02 72.1154 188.02C71.7944 188.02 71.5245 188.089 71.3058 188.229C71.0898 188.368 70.9833 188.548 70.9862 188.77C70.9833 188.96 71.0529 189.115 71.195 189.234C71.3398 189.354 71.5785 189.452 71.9109 189.528L73.0273 189.767C73.6467 189.901 74.1069 190.112 74.408 190.402C74.712 190.692 74.8654 191.071 74.8683 191.54C74.8654 191.952 74.7447 192.315 74.506 192.631C74.2702 192.943 73.9421 193.187 73.5217 193.364C73.1012 193.54 72.6183 193.628 72.0728 193.628C71.2717 193.628 70.6268 193.46 70.1381 193.125C69.6495 192.787 69.3583 192.317 69.2646 191.714L70.7688 191.57C70.837 191.865 70.9819 192.088 71.2035 192.239C71.4251 192.389 71.7134 192.464 72.0685 192.464C72.435 192.464 72.729 192.389 72.9506 192.239C73.1751 192.088 73.2873 191.902 73.2873 191.68C73.2873 191.493 73.2148 191.338 73.07 191.216C72.9279 191.094 72.7063 191 72.4052 190.935L71.2887 190.7C70.6609 190.57 70.1964 190.349 69.8952 190.04C69.5941 189.727 69.445 189.332 69.4478 188.855C69.445 188.452 69.5543 188.102 69.7759 187.807C70.0004 187.509 70.3114 187.278 70.7092 187.116C71.1097 186.952 71.5714 186.869 72.0941 186.869C72.8612 186.869 73.4648 187.033 73.9052 187.359C74.3484 187.686 74.6225 188.128 74.7276 188.685ZM79.1168 195.955V186.955H80.6339V188.037H80.7234C80.8029 187.878 80.9151 187.709 81.06 187.53C81.2049 187.348 81.4009 187.193 81.6481 187.065C81.8952 186.935 82.2106 186.869 82.5941 186.869C83.0998 186.869 83.5558 186.999 83.962 187.257C84.3711 187.513 84.695 187.892 84.9336 188.395C85.1751 188.895 85.2958 189.509 85.2958 190.236C85.2958 190.955 85.1779 191.565 84.9421 192.068C84.7063 192.571 84.3853 192.955 83.979 193.219C83.5728 193.483 83.1126 193.615 82.5984 193.615C82.2234 193.615 81.9123 193.553 81.6651 193.428C81.418 193.303 81.2191 193.152 81.0685 192.976C80.9208 192.797 80.8058 192.628 80.7234 192.469H80.6594V195.955H79.1168ZM80.6296 190.227C80.6296 190.651 80.6893 191.021 80.8086 191.339C80.9308 191.658 81.1055 191.906 81.3327 192.085C81.5629 192.261 81.8413 192.349 82.168 192.349C82.5089 192.349 82.7944 192.259 83.0245 192.077C83.2546 191.892 83.4279 191.641 83.5444 191.322C83.6637 191.001 83.7234 190.636 83.7234 190.227C83.7234 189.821 83.6651 189.46 83.5487 189.145C83.4322 188.83 83.2589 188.582 83.0288 188.403C82.7987 188.224 82.5117 188.135 82.168 188.135C81.8384 188.135 81.5586 188.222 81.3285 188.395C81.0984 188.568 80.9237 188.811 80.8043 189.124C80.6879 189.436 80.6296 189.804 80.6296 190.227ZM86.6168 193.5V186.955H88.1126V188.045H88.1808C88.3001 187.668 88.5046 187.376 88.7944 187.172C89.087 186.964 89.4208 186.861 89.7958 186.861C89.881 186.861 89.9762 186.865 90.0813 186.874C90.1893 186.879 90.2788 186.889 90.3498 186.903V188.322C90.2844 188.3 90.1808 188.28 90.0387 188.263C89.8995 188.243 89.7646 188.233 89.6339 188.233C89.3526 188.233 89.0998 188.294 88.8754 188.416C88.6538 188.536 88.479 188.702 88.3512 188.915C88.2234 189.128 88.1594 189.374 88.1594 189.652V193.5H86.6168ZM91.3746 193.5V186.955H92.9173V193.5H91.3746ZM92.1502 186.026C91.9059 186.026 91.6957 185.945 91.5195 185.783C91.3434 185.618 91.2553 185.42 91.2553 185.19C91.2553 184.957 91.3434 184.76 91.5195 184.598C91.6957 184.433 91.9059 184.351 92.1502 184.351C92.3974 184.351 92.6076 184.433 92.7809 184.598C92.957 184.76 93.0451 184.957 93.0451 185.19C93.0451 185.42 92.957 185.618 92.7809 185.783C92.6076 185.945 92.3974 186.026 92.1502 186.026ZM97.3587 193.628C96.7053 193.628 96.1442 193.484 95.6754 193.197C95.2095 192.911 94.8501 192.514 94.5973 192.009C94.3473 191.5 94.2223 190.915 94.2223 190.253C94.2223 189.588 94.3501 189.001 94.6058 188.493C94.8615 187.982 95.2223 187.584 95.6882 187.3C96.157 187.013 96.7109 186.869 97.3501 186.869C97.8814 186.869 98.3516 186.967 98.7607 187.163C99.1726 187.357 99.5007 187.631 99.745 187.986C99.9893 188.338 100.129 188.75 100.163 189.222H98.6882C98.6286 188.906 98.4865 188.643 98.2621 188.433C98.0405 188.22 97.7436 188.114 97.3714 188.114C97.0561 188.114 96.7791 188.199 96.5405 188.369C96.3018 188.537 96.1158 188.778 95.9822 189.094C95.8516 189.409 95.7862 189.787 95.7862 190.227C95.7862 190.673 95.8516 191.057 95.9822 191.378C96.1129 191.696 96.2962 191.942 96.532 192.115C96.7706 192.286 97.0504 192.371 97.3714 192.371C97.5987 192.371 97.8018 192.328 97.9808 192.243C98.1626 192.155 98.3146 192.028 98.4368 191.864C98.5589 191.699 98.6428 191.499 98.6882 191.263H100.163C100.126 191.726 99.9893 192.136 99.7536 192.494C99.5178 192.849 99.1967 193.128 98.7905 193.33C98.3842 193.528 97.907 193.628 97.3587 193.628ZM104.327 193.628C103.671 193.628 103.104 193.491 102.627 193.219C102.152 192.943 101.787 192.554 101.532 192.051C101.276 191.545 101.148 190.95 101.148 190.266C101.148 189.592 101.276 189.001 101.532 188.493C101.79 187.982 102.151 187.584 102.614 187.3C103.077 187.013 103.621 186.869 104.246 186.869C104.65 186.869 105.03 186.935 105.388 187.065C105.749 187.193 106.067 187.392 106.343 187.662C106.621 187.932 106.84 188.276 106.999 188.693C107.158 189.108 107.238 189.602 107.238 190.176V190.649H101.873V189.609H105.759C105.756 189.314 105.692 189.051 105.567 188.821C105.442 188.588 105.267 188.405 105.043 188.271C104.821 188.138 104.563 188.071 104.267 188.071C103.952 188.071 103.675 188.148 103.436 188.301C103.198 188.452 103.012 188.651 102.878 188.898C102.748 189.142 102.681 189.411 102.678 189.703V190.611C102.678 190.991 102.748 191.318 102.887 191.591C103.026 191.861 103.221 192.068 103.471 192.213C103.721 192.355 104.013 192.426 104.348 192.426C104.573 192.426 104.776 192.395 104.958 192.332C105.14 192.267 105.297 192.172 105.431 192.047C105.564 191.922 105.665 191.767 105.733 191.582L107.174 191.744C107.083 192.125 106.909 192.457 106.654 192.741C106.401 193.023 106.077 193.241 105.682 193.398C105.287 193.551 104.836 193.628 104.327 193.628Z" fill="#596F78"/>
<path d="M11.3803 252.5V243.773H12.9613V251.175H16.805V252.5H11.3803ZM18.109 252.5V245.955H19.6516V252.5H18.109ZM18.8846 245.026C18.6403 245.026 18.43 244.945 18.2539 244.783C18.0778 244.618 17.9897 244.42 17.9897 244.19C17.9897 243.957 18.0778 243.76 18.2539 243.598C18.43 243.433 18.6403 243.351 18.8846 243.351C19.1317 243.351 19.342 243.433 19.5153 243.598C19.6914 243.76 19.7795 243.957 19.7795 244.19C19.7795 244.42 19.6914 244.618 19.5153 244.783C19.342 244.945 19.1317 245.026 18.8846 245.026ZM25.6058 254.955V251.469H25.5419C25.4624 251.628 25.3473 251.797 25.1967 251.976C25.0462 252.152 24.8473 252.303 24.6001 252.428C24.353 252.553 24.0419 252.615 23.6669 252.615C23.1527 252.615 22.6925 252.483 22.2862 252.219C21.88 251.955 21.5589 251.571 21.3232 251.068C21.0874 250.565 20.9695 249.955 20.9695 249.236C20.9695 248.509 21.0888 247.895 21.3274 247.395C21.5689 246.892 21.8942 246.513 22.3033 246.257C22.7124 245.999 23.1683 245.869 23.6712 245.869C24.0547 245.869 24.37 245.935 24.6172 246.065C24.8643 246.193 25.0604 246.348 25.2053 246.53C25.3501 246.709 25.4624 246.878 25.5419 247.037H25.6357V245.955H27.1527V254.955H25.6058ZM24.0973 251.349C24.424 251.349 24.7024 251.261 24.9325 251.085C25.1626 250.906 25.3374 250.658 25.4567 250.339C25.576 250.021 25.6357 249.651 25.6357 249.227C25.6357 248.804 25.576 248.436 25.4567 248.124C25.3402 247.811 25.1669 247.568 24.9368 247.395C24.7095 247.222 24.4297 247.135 24.0973 247.135C23.7536 247.135 23.4666 247.224 23.2365 247.403C23.0064 247.582 22.8331 247.83 22.7166 248.145C22.6001 248.46 22.5419 248.821 22.5419 249.227C22.5419 249.636 22.6001 250.001 22.7166 250.322C22.8359 250.641 23.0107 250.892 23.2408 251.077C23.4737 251.259 23.7592 251.349 24.0973 251.349ZM32.9098 249.747V245.955H34.4524V252.5H32.9567V251.337H32.8885C32.7408 251.703 32.4979 252.003 32.1598 252.236C31.8246 252.469 31.4112 252.585 30.9197 252.585C30.4908 252.585 30.1115 252.49 29.782 252.3C29.4553 252.107 29.1996 251.827 29.0149 251.46C28.8303 251.091 28.7379 250.645 28.7379 250.122V245.955H30.2805V249.884C30.2805 250.298 30.3942 250.628 30.6214 250.872C30.8487 251.116 31.147 251.239 31.5163 251.239C31.7436 251.239 31.9638 251.183 32.1768 251.072C32.3899 250.962 32.5646 250.797 32.701 250.578C32.8402 250.357 32.9098 250.08 32.9098 249.747ZM36.0387 252.5V245.955H37.5813V252.5H36.0387ZM36.8143 245.026C36.57 245.026 36.3597 244.945 36.1836 244.783C36.0075 244.618 35.9194 244.42 35.9194 244.19C35.9194 243.957 36.0075 243.76 36.1836 243.598C36.3597 243.433 36.57 243.351 36.8143 243.351C37.0614 243.351 37.2717 243.433 37.445 243.598C37.6211 243.76 37.7092 243.957 37.7092 244.19C37.7092 244.42 37.6211 244.618 37.445 244.783C37.2717 244.945 37.0614 245.026 36.8143 245.026ZM41.5966 252.615C41.0824 252.615 40.6222 252.483 40.2159 252.219C39.8097 251.955 39.4886 251.571 39.2528 251.068C39.017 250.565 38.8991 249.955 38.8991 249.236C38.8991 248.509 39.0185 247.895 39.2571 247.395C39.4986 246.892 39.8239 246.513 40.233 246.257C40.642 245.999 41.098 245.869 41.6009 245.869C41.9844 245.869 42.2997 245.935 42.5469 246.065C42.794 246.193 42.9901 246.348 43.1349 246.53C43.2798 246.709 43.392 246.878 43.4716 247.037H43.5355V243.773H45.0824V252.5H43.5653V251.469H43.4716C43.392 251.628 43.277 251.797 43.1264 251.976C42.9759 252.152 42.777 252.303 42.5298 252.428C42.2827 252.553 41.9716 252.615 41.5966 252.615ZM42.027 251.349C42.3537 251.349 42.6321 251.261 42.8622 251.085C43.0923 250.906 43.267 250.658 43.3864 250.339C43.5057 250.021 43.5653 249.651 43.5653 249.227C43.5653 248.804 43.5057 248.436 43.3864 248.124C43.2699 247.811 43.0966 247.568 42.8665 247.395C42.6392 247.222 42.3594 247.135 42.027 247.135C41.6832 247.135 41.3963 247.224 41.1662 247.403C40.9361 247.582 40.7628 247.83 40.6463 248.145C40.5298 248.46 40.4716 248.821 40.4716 249.227C40.4716 249.636 40.5298 250.001 40.6463 250.322C40.7656 250.641 40.9403 250.892 41.1705 251.077C41.4034 251.259 41.6889 251.349 42.027 251.349ZM48.6097 252.632C48.195 252.632 47.8214 252.558 47.489 252.411C47.1594 252.26 46.8981 252.038 46.7049 251.746C46.5146 251.453 46.4194 251.092 46.4194 250.663C46.4194 250.294 46.4876 249.989 46.6239 249.747C46.7603 249.506 46.9464 249.312 47.1822 249.168C47.418 249.023 47.6836 248.913 47.979 248.839C48.2773 248.763 48.5856 248.707 48.9038 248.673C49.2873 248.634 49.5984 248.598 49.837 248.567C50.0756 248.533 50.2489 248.482 50.3569 248.413C50.4677 248.342 50.5231 248.233 50.5231 248.085V248.06C50.5231 247.739 50.4279 247.49 50.2376 247.314C50.0472 247.138 49.7731 247.05 49.4151 247.05C49.0373 247.05 48.7376 247.132 48.516 247.297C48.2972 247.462 48.1495 247.656 48.0728 247.881L46.6325 247.676C46.7461 247.278 46.9336 246.946 47.195 246.679C47.4563 246.409 47.7759 246.207 48.1538 246.074C48.5316 245.938 48.9492 245.869 49.4066 245.869C49.7219 245.869 50.0359 245.906 50.3484 245.98C50.6609 246.054 50.9464 246.176 51.2049 246.347C51.4634 246.514 51.6708 246.743 51.8271 247.033C51.9862 247.322 52.0657 247.685 52.0657 248.119V252.5H50.5827V251.601H50.5316C50.4379 251.783 50.3058 251.953 50.1353 252.112C49.9677 252.268 49.756 252.395 49.5004 252.491C49.2475 252.585 48.9506 252.632 48.6097 252.632ZM49.0103 251.499C49.32 251.499 49.5884 251.437 49.8157 251.315C50.043 251.19 50.2177 251.026 50.3398 250.821C50.4648 250.616 50.5273 250.393 50.5273 250.152V249.381C50.479 249.42 50.3967 249.457 50.2802 249.491C50.1665 249.526 50.0387 249.555 49.8967 249.581C49.7546 249.607 49.614 249.629 49.4748 249.649C49.3356 249.669 49.2148 249.686 49.1126 249.7C48.8825 249.732 48.6765 249.783 48.4947 249.854C48.3129 249.925 48.1694 250.024 48.0643 250.152C47.9592 250.277 47.9066 250.439 47.9066 250.638C47.9066 250.922 48.0103 251.136 48.2177 251.281C48.4251 251.426 48.6893 251.499 49.0103 251.499ZM56.8853 245.955V247.148H53.1225V245.955H56.8853ZM54.0515 244.386H55.5941V250.531C55.5941 250.739 55.6254 250.898 55.6879 251.009C55.7532 251.116 55.8384 251.19 55.9435 251.23C56.0487 251.27 56.1651 251.29 56.293 251.29C56.3896 251.29 56.4776 251.283 56.5572 251.268C56.6396 251.254 56.7021 251.241 56.7447 251.23L57.0046 252.436C56.9222 252.464 56.8043 252.496 56.6509 252.53C56.5004 252.564 56.3157 252.584 56.0969 252.589C55.7106 252.601 55.3626 252.543 55.0529 252.415C54.7433 252.284 54.4975 252.082 54.3157 251.81C54.1367 251.537 54.0487 251.196 54.0515 250.787V244.386ZM58.1754 252.5V245.955H59.718V252.5H58.1754ZM58.951 245.026C58.7067 245.026 58.4964 244.945 58.3203 244.783C58.1442 244.618 58.0561 244.42 58.0561 244.19C58.0561 243.957 58.1442 243.76 58.3203 243.598C58.4964 243.433 58.7067 243.351 58.951 243.351C59.1982 243.351 59.4084 243.433 59.5817 243.598C59.7578 243.76 59.8459 243.957 59.8459 244.19C59.8459 244.42 59.7578 244.618 59.5817 244.783C59.4084 244.945 59.1982 245.026 58.951 245.026ZM64.1594 252.628C63.5202 252.628 62.9663 252.487 62.4975 252.206C62.0288 251.925 61.6651 251.531 61.4066 251.026C61.1509 250.52 61.0231 249.929 61.0231 249.253C61.0231 248.577 61.1509 247.984 61.4066 247.476C61.6651 246.967 62.0288 246.572 62.4975 246.291C62.9663 246.01 63.5202 245.869 64.1594 245.869C64.7987 245.869 65.3526 246.01 65.8214 246.291C66.2901 246.572 66.6523 246.967 66.908 247.476C67.1665 247.984 67.2958 248.577 67.2958 249.253C67.2958 249.929 67.1665 250.52 66.908 251.026C66.6523 251.531 66.2901 251.925 65.8214 252.206C65.3526 252.487 64.7987 252.628 64.1594 252.628ZM64.168 251.392C64.5146 251.392 64.8043 251.297 65.0373 251.107C65.2702 250.913 65.4435 250.655 65.5572 250.331C65.6737 250.007 65.7319 249.646 65.7319 249.249C65.7319 248.848 65.6737 248.486 65.5572 248.162C65.4435 247.835 65.2702 247.575 65.0373 247.382C64.8043 247.189 64.5146 247.092 64.168 247.092C63.8129 247.092 63.5174 247.189 63.2816 247.382C63.0487 247.575 62.8739 247.835 62.7575 248.162C62.6438 248.486 62.587 248.848 62.587 249.249C62.587 249.646 62.6438 250.007 62.7575 250.331C62.8739 250.655 63.0487 250.913 63.2816 251.107C63.5174 251.297 63.8129 251.392 64.168 251.392ZM70.1477 248.665V252.5H68.6051V245.955H70.0795V247.067H70.1562C70.3068 246.7 70.5469 246.409 70.8764 246.193C71.2088 245.977 71.6193 245.869 72.108 245.869C72.5597 245.869 72.9531 245.966 73.2884 246.159C73.6264 246.352 73.8878 246.632 74.0724 246.999C74.2599 247.365 74.3523 247.81 74.3494 248.332V252.5H72.8068V248.571C72.8068 248.134 72.6932 247.791 72.4659 247.544C72.2415 247.297 71.9304 247.173 71.5327 247.173C71.2628 247.173 71.0227 247.233 70.8125 247.352C70.6051 247.469 70.4418 247.638 70.3224 247.859C70.206 248.081 70.1477 248.349 70.1477 248.665ZM78.9624 252.5V243.773H82.2351C82.9055 243.773 83.468 243.898 83.9226 244.148C84.38 244.398 84.7251 244.741 84.9581 245.179C85.1939 245.614 85.3118 246.108 85.3118 246.662C85.3118 247.222 85.1939 247.719 84.9581 248.153C84.7223 248.588 84.3743 248.93 83.9141 249.18C83.4538 249.428 82.8871 249.551 82.2138 249.551H80.0447V248.251H82.0007C82.3928 248.251 82.7138 248.183 82.9638 248.047C83.2138 247.911 83.3984 247.723 83.5178 247.484C83.6399 247.246 83.701 246.972 83.701 246.662C83.701 246.352 83.6399 246.08 83.5178 245.844C83.3984 245.608 83.2124 245.425 82.9595 245.294C82.7095 245.161 82.3871 245.094 81.9922 245.094H80.5433V252.5H78.9624ZM86.6168 252.5V245.955H88.1126V247.045H88.1808C88.3001 246.668 88.5046 246.376 88.7944 246.172C89.087 245.964 89.4208 245.861 89.7958 245.861C89.881 245.861 89.9762 245.865 90.0813 245.874C90.1893 245.879 90.2788 245.889 90.3498 245.903V247.322C90.2844 247.3 90.1808 247.28 90.0387 247.263C89.8995 247.243 89.7646 247.233 89.6339 247.233C89.3526 247.233 89.0998 247.294 88.8754 247.416C88.6538 247.536 88.479 247.702 88.3512 247.915C88.2234 248.128 88.1594 248.374 88.1594 248.652V252.5H86.6168ZM91.3746 252.5V245.955H92.9173V252.5H91.3746ZM92.1502 245.026C91.9059 245.026 91.6957 244.945 91.5195 244.783C91.3434 244.618 91.2553 244.42 91.2553 244.19C91.2553 243.957 91.3434 243.76 91.5195 243.598C91.6957 243.433 91.9059 243.351 92.1502 243.351C92.3974 243.351 92.6076 243.433 92.7809 243.598C92.957 243.76 93.0451 243.957 93.0451 244.19C93.0451 244.42 92.957 244.618 92.7809 244.783C92.6076 244.945 92.3974 245.026 92.1502 245.026ZM97.3587 252.628C96.7053 252.628 96.1442 252.484 95.6754 252.197C95.2095 251.911 94.8501 251.514 94.5973 251.009C94.3473 250.5 94.2223 249.915 94.2223 249.253C94.2223 248.588 94.3501 248.001 94.6058 247.493C94.8615 246.982 95.2223 246.584 95.6882 246.3C96.157 246.013 96.7109 245.869 97.3501 245.869C97.8814 245.869 98.3516 245.967 98.7607 246.163C99.1726 246.357 99.5007 246.631 99.745 246.986C99.9893 247.338 100.129 247.75 100.163 248.222H98.6882C98.6286 247.906 98.4865 247.643 98.2621 247.433C98.0405 247.22 97.7436 247.114 97.3714 247.114C97.0561 247.114 96.7791 247.199 96.5405 247.369C96.3018 247.537 96.1158 247.778 95.9822 248.094C95.8516 248.409 95.7862 248.787 95.7862 249.227C95.7862 249.673 95.8516 250.057 95.9822 250.378C96.1129 250.696 96.2962 250.942 96.532 251.115C96.7706 251.286 97.0504 251.371 97.3714 251.371C97.5987 251.371 97.8018 251.328 97.9808 251.243C98.1626 251.155 98.3146 251.028 98.4368 250.864C98.5589 250.699 98.6428 250.499 98.6882 250.263H100.163C100.126 250.726 99.9893 251.136 99.7536 251.494C99.5178 251.849 99.1967 252.128 98.7905 252.33C98.3842 252.528 97.907 252.628 97.3587 252.628ZM104.327 252.628C103.671 252.628 103.104 252.491 102.627 252.219C102.152 251.943 101.787 251.554 101.532 251.051C101.276 250.545 101.148 249.95 101.148 249.266C101.148 248.592 101.276 248.001 101.532 247.493C101.79 246.982 102.151 246.584 102.614 246.3C103.077 246.013 103.621 245.869 104.246 245.869C104.65 245.869 105.03 245.935 105.388 246.065C105.749 246.193 106.067 246.392 106.343 246.662C106.621 246.932 106.84 247.276 106.999 247.693C107.158 248.108 107.238 248.602 107.238 249.176V249.649H101.873V248.609H105.759C105.756 248.314 105.692 248.051 105.567 247.821C105.442 247.588 105.267 247.405 105.043 247.271C104.821 247.138 104.563 247.071 104.267 247.071C103.952 247.071 103.675 247.148 103.436 247.301C103.198 247.452 103.012 247.651 102.878 247.898C102.748 248.142 102.681 248.411 102.678 248.703V249.611C102.678 249.991 102.748 250.318 102.887 250.591C103.026 250.861 103.221 251.068 103.471 251.213C103.721 251.355 104.013 251.426 104.348 251.426C104.573 251.426 104.776 251.395 104.958 251.332C105.14 251.267 105.297 251.172 105.431 251.047C105.564 250.922 105.665 250.767 105.733 250.582L107.174 250.744C107.083 251.125 106.909 251.457 106.654 251.741C106.401 252.023 106.077 252.241 105.682 252.398C105.287 252.551 104.836 252.628 104.327 252.628Z" fill="#596F78"/>
</svg>
