<svg width="32" height="32" viewBox="0 0 32 32" fill="none" xmlns="http://www.w3.org/2000/svg">
<circle cx="16" cy="16" r="16" fill="url(#paint0_linear_2108_106912)"/>
<path d="M18.4066 14.9771L19.9754 12.3151L24.2039 18.9012L24.2059 20.1651L24.1921 11.4676C24.1821 11.255 24.0692 11.0605 23.8891 10.9458L16.2762 6.56678C16.0981 6.47927 15.8723 6.4802 15.6945 6.5695C15.6705 6.58156 15.6479 6.59462 15.6264 6.60888L15.5999 6.62558L8.21029 10.9078L8.18159 10.9208C8.14473 10.9378 8.10747 10.9593 8.07247 10.9844C7.93239 11.0849 7.83932 11.2334 7.80922 11.4001C7.80471 11.4253 7.8014 11.4511 7.7998 11.477L7.81141 18.5646L11.7501 12.4599C12.246 11.6503 13.3264 11.3896 14.3294 11.4038L15.5065 11.4349L8.57066 22.558L9.38826 23.0288L16.4073 11.4462L19.5096 11.4349L12.5087 23.3098L15.4262 24.9878L15.7748 25.1883C15.9222 25.2482 16.096 25.2512 16.2447 25.1976L23.9646 20.7238L22.4887 21.579L18.4066 14.9771ZM19.0052 23.5978L16.0585 18.973L17.8572 15.9208L21.7271 22.0203L19.0052 23.5978Z" fill="#2D374B"/>
<path d="M16.0586 18.9731L19.0053 23.5978L21.7273 22.0204L17.8574 15.9208L16.0586 18.9731Z" fill="#28A0F0"/>
<path d="M24.2061 20.165L24.2041 18.9012L19.9756 12.3151L18.4067 14.977L22.4888 21.5789L23.9648 20.7237C24.1096 20.6062 24.1971 20.4336 24.2063 20.2474L24.2061 20.165Z" fill="#28A0F0"/>
<path d="M6.48639 21.357L8.57066 22.558L15.5065 11.4348L14.3294 11.4037C13.3264 11.3896 12.246 11.6503 11.7501 12.4598L7.8114 18.5645L6.48633 20.6005V21.357H6.48639Z" fill="white"/>
<path d="M19.51 11.4348L16.4077 11.4461L9.38867 23.0287L11.842 24.4413L12.5092 23.3097L19.51 11.4348Z" fill="white"/>
<path d="M25.5133 11.4189C25.4874 10.7701 25.1361 10.1761 24.5858 9.8303L16.8731 5.39495C16.3288 5.12083 15.6487 5.1205 15.1035 5.39475C15.0391 5.42723 7.60304 9.73988 7.60304 9.73988C7.50015 9.7892 7.40104 9.848 7.30777 9.91469C6.81653 10.2668 6.51709 10.8138 6.48633 11.4149V20.6006L7.8114 18.5646L7.7998 11.477C7.80139 11.4511 7.80464 11.4256 7.80921 11.4005C7.83911 11.2337 7.93225 11.0849 8.07246 10.9844C8.10746 10.9593 15.6705 6.5816 15.6945 6.56953C15.8723 6.48024 16.0982 6.47931 16.2762 6.56682L23.8891 10.9459C24.0692 11.0606 24.1821 11.2551 24.1921 11.4677V20.2475C24.1829 20.4337 24.1093 20.6062 23.9645 20.7238L22.4886 21.5791L21.7271 22.0204L19.0051 23.5978L16.2446 25.1976C16.0959 25.2513 15.9221 25.2483 15.7747 25.1883L12.5087 23.3098L11.8415 24.4413L14.7766 26.1312C14.8736 26.1864 14.9601 26.2353 15.0311 26.2752C15.141 26.3369 15.2158 26.378 15.2423 26.3908C15.4509 26.4921 15.751 26.5511 16.0215 26.5511C16.2695 26.5511 16.5113 26.5056 16.7401 26.4159L24.7579 21.7726C25.2182 21.416 25.4889 20.8783 25.5133 20.2958V11.4189Z" fill="#96BEDC"/>
<defs>
<linearGradient id="paint0_linear_2108_106912" x1="0" y1="16" x2="32" y2="16" gradientUnits="userSpaceOnUse">
<stop stop-color="#2D374B"/>
<stop offset="1" stop-color="#585C65"/>
</linearGradient>
</defs>
</svg>
