<svg width="32" height="32" viewBox="0 0 32 32" fill="none" xmlns="http://www.w3.org/2000/svg">
<circle cx="16" cy="16" r="16" fill="url(#paint0_linear_2108_106925)"/>
<path d="M12.0155 22.2004H9.32522C8.75992 22.2004 8.48069 22.2004 8.31041 22.0913C8.12653 21.9722 8.01414 21.7746 8.00052 21.5567C7.99031 21.3558 8.12993 21.1106 8.40916 20.6202L15.0517 8.91178C15.3344 8.4146 15.4774 8.166 15.6579 8.07407C15.852 7.97531 16.0836 7.97531 16.2777 8.07407C16.4582 8.166 16.6012 8.4146 16.8838 8.91178L18.2494 11.2956C18.5593 11.837 18.7159 12.1094 18.784 12.3955C18.8589 12.7054 18.8589 13.0323 18.784 13.3422C18.7159 13.6282 18.5627 13.9007 18.2528 14.4421L14.7636 20.61C14.4503 21.1583 14.2937 21.4341 14.0757 21.6417C13.8407 21.8665 13.5581 22.03 13.2482 22.122C12.9656 22.2004 12.6489 22.2004 12.0155 22.2004Z" fill="white"/>
<path d="M22.664 22.2003H18.8091C18.2404 22.2003 17.9543 22.2003 17.7874 22.0914C17.6036 21.9721 17.4912 21.7711 17.4776 21.5533C17.4673 21.3524 17.6104 21.1072 17.8964 20.6134L19.8204 17.3102C20.1031 16.8232 20.2462 16.5814 20.4232 16.4895C20.6173 16.3907 20.8455 16.3907 21.0396 16.4895C21.2202 16.5814 21.3597 16.8232 21.6458 17.3068L23.5767 20.61C23.8626 21.1038 24.0092 21.349 23.9989 21.5499C23.9887 21.7678 23.8728 21.9688 23.6891 22.0879C23.5187 22.2003 23.2326 22.2003 22.664 22.2003Z" fill="white"/>
<defs>
<linearGradient id="paint0_linear_2108_106925" x1="2.66667" y1="2.66667" x2="32" y2="32" gradientUnits="userSpaceOnUse">
<stop stop-color="#E84142"/>
<stop offset="1" stop-color="#FF6869"/>
</linearGradient>
</defs>
</svg>
