<svg width="32" height="32" viewBox="0 0 32 32" fill="none" xmlns="http://www.w3.org/2000/svg">
<circle cx="16" cy="16" r="16" fill="url(#paint0_linear_2108_106944)"/>
<path fill-rule="evenodd" clip-rule="evenodd" d="M8.26136 19.6516C8.87598 20.1001 9.66447 20.3243 10.6268 20.3243C11.7914 20.3243 12.7214 20.056 13.4169 19.5195C14.1124 18.9749 14.6016 18.1541 14.8847 17.057C15.0545 16.3844 15.2001 15.6917 15.3214 14.979C15.3619 14.7227 15.382 14.5105 15.382 14.3423C15.382 13.7818 15.2405 13.3013 14.9575 12.9009C14.6744 12.4925 14.2863 12.1882 13.7929 11.988C13.2996 11.7798 12.7416 11.6757 12.1189 11.6757C9.83026 11.6757 8.41097 12.7768 7.86105 14.979C7.66696 15.7878 7.51735 16.4805 7.41222 17.057C7.37178 17.3133 7.35156 17.5295 7.35156 17.7057C7.35156 18.5465 7.65483 19.1952 8.26136 19.6516ZM11.9491 18.1982C11.6337 18.4624 11.2495 18.5946 10.7967 18.5946C10.0203 18.5946 9.63212 18.2262 9.63212 17.4895C9.63212 17.3133 9.6483 17.1451 9.68065 16.985C9.82622 16.2082 9.97178 15.5515 10.1174 15.015C10.2548 14.4705 10.4813 14.0661 10.7967 13.8018C11.1202 13.5375 11.5083 13.4054 11.9612 13.4054C12.7295 13.4054 13.1136 13.7698 13.1136 14.4985C13.1136 14.6747 13.0975 14.8468 13.0651 15.015C12.968 15.5756 12.8265 16.2322 12.6405 16.985C12.503 17.5295 12.2726 17.9339 11.9491 18.1982ZM16.4065 20.1201C16.455 20.1762 16.5237 20.2042 16.6127 20.2042H18.2625C18.3434 20.2042 18.4202 20.1762 18.493 20.1201C18.5657 20.064 18.6102 19.992 18.6264 19.9039L19.1844 17.2732H20.822C21.8815 17.2732 22.7144 17.0531 23.321 16.6126C23.9356 16.1721 24.344 15.4915 24.5462 14.5706C24.5947 14.3543 24.619 14.1461 24.619 13.9459C24.619 13.2492 24.344 12.7167 23.7941 12.3483C23.2522 11.98 22.5325 11.7958 21.6348 11.7958H18.4081C18.3272 11.7958 18.2504 11.8238 18.1776 11.8799C18.1048 11.9359 18.0603 12.008 18.0441 12.0961L16.3701 19.9039C16.3539 19.984 16.3661 20.056 16.4065 20.1201ZM21.7925 15.3393C21.5418 15.5235 21.2466 15.6156 20.907 15.6156H19.5119L19.9729 13.4655H21.4286C21.7602 13.4655 21.9947 13.5295 22.1322 13.6576C22.2696 13.7778 22.3384 13.9539 22.3384 14.1862C22.3384 14.2903 22.3263 14.4104 22.302 14.5465C22.2211 14.8909 22.0513 15.1551 21.7925 15.3393Z" fill="white"/>
<defs>
<linearGradient id="paint0_linear_2108_106944" x1="6.19204e-09" y1="16" x2="32" y2="16" gradientUnits="userSpaceOnUse">
<stop stop-color="#FF0420"/>
<stop offset="1" stop-color="#FF6C7D"/>
</linearGradient>
</defs>
</svg>
