<svg width="32" height="32" viewBox="0 0 32 32" fill="none" xmlns="http://www.w3.org/2000/svg">
<circle cx="16" cy="16" r="16" fill="url(#paint0_linear_2108_106963)"/>
<path d="M20.0788 13.478C19.9249 13.393 19.7519 13.3484 19.576 13.3484C19.4002 13.3484 19.2272 13.393 19.0733 13.478L16.7689 14.7966L15.2015 15.6567L12.8971 16.9752C12.7432 17.0602 12.5702 17.1048 12.3944 17.1048C12.2185 17.1048 12.0456 17.0602 11.8916 16.9752L10.058 15.9426C9.91149 15.8581 9.78919 15.7373 9.70287 15.5918C9.61654 15.4463 9.5691 15.2811 9.56509 15.112V13.0763C9.56323 12.906 9.60822 12.7384 9.69515 12.592C9.78208 12.4455 9.9076 12.3257 10.058 12.2458L11.862 11.2427C12.016 11.1577 12.189 11.1131 12.3648 11.1131C12.5407 11.1131 12.7136 11.1577 12.8676 11.2427L14.6691 12.2458C14.8157 12.3303 14.938 12.4511 15.0243 12.5965C15.1106 12.742 15.1581 12.9072 15.1621 13.0763V14.3899L16.7394 13.5076V12.1891C16.7418 12.0187 16.697 11.8509 16.61 11.7043C16.523 11.5577 16.3972 11.4381 16.2465 11.3585L12.8971 9.46084C12.7428 9.37715 12.57 9.33331 12.3944 9.33331C12.2188 9.33331 12.046 9.37715 11.8916 9.46084L8.49301 11.3585C8.34226 11.4381 8.21643 11.5577 8.12944 11.7043C8.04245 11.8509 7.99769 12.0187 8.00011 12.1891V15.9993C7.99751 16.1701 8.04217 16.3382 8.12916 16.4852C8.21614 16.6322 8.34206 16.7523 8.49301 16.8323L11.8916 18.7226C12.0456 18.8076 12.2185 18.8522 12.3944 18.8522C12.5702 18.8522 12.7432 18.8076 12.8971 18.7226L15.2015 17.4336L16.7689 16.5439L19.0733 15.255C19.2272 15.17 19.4002 15.1254 19.576 15.1254C19.7519 15.1254 19.9249 15.17 20.0788 15.255L21.8829 16.258C22.0294 16.3426 22.1517 16.4634 22.238 16.6088C22.3243 16.7543 22.3718 16.9195 22.3758 17.0886V19.1243C22.3776 19.2946 22.3326 19.4622 22.2457 19.6086C22.1588 19.7551 22.0333 19.8749 21.8829 19.9548L20.0788 20.9875C19.9249 21.0725 19.7519 21.1171 19.576 21.1171C19.4002 21.1171 19.2272 21.0725 19.0733 20.9875L17.2717 19.9844C17.1252 19.8999 17.0029 19.7791 16.9166 19.6336C16.8302 19.4882 16.7828 19.323 16.7788 19.1539V17.8403L15.2113 18.7275V20.046C15.2089 20.2165 15.2537 20.3842 15.3407 20.5308C15.4277 20.6774 15.5535 20.7971 15.7043 20.8766L19.1029 22.7693C19.2572 22.853 19.43 22.8969 19.6056 22.8969C19.7812 22.8969 19.954 22.853 20.1084 22.7693L23.507 20.8717C23.6535 20.7871 23.7758 20.6663 23.8621 20.5209C23.9484 20.3754 23.9959 20.2102 23.9999 20.0411V16.2309C24.0025 16.0601 23.9578 15.892 23.8708 15.745C23.7839 15.5979 23.6579 15.4778 23.507 15.3979L20.0788 13.478Z" fill="white"/>
<defs>
<linearGradient id="paint0_linear_2108_106963" x1="5.79997" y1="4.59961" x2="23.2" y2="27.9996" gradientUnits="userSpaceOnUse">
<stop stop-color="#8247E5"/>
<stop offset="1" stop-color="#B993FA"/>
</linearGradient>
</defs>
</svg>
