<?xml version="1.0" standalone="no"?>
<!DOCTYPE svg PUBLIC "-//W3C//DTD SVG 20010904//EN"
 "http://www.w3.org/TR/2001/REC-SVG-20010904/DTD/svg10.dtd">
<svg version="1.0" xmlns="http://www.w3.org/2000/svg"
 width="512.000000pt" height="512.000000pt" viewBox="0 0 512.000000 512.000000"
 preserveAspectRatio="xMidYMid meet">
<metadata>
Created by potrace 1.14, written by Peter Selinger 2001-2017
</metadata>
<g transform="translate(0.000000,512.000000) scale(0.100000,-0.100000)"
fill="#000000" stroke="none">
<path d="M2517 5084 c-1 -1 -58 -4 -127 -8 -69 -3 -134 -8 -145 -10 -11 -2
-45 -7 -75 -11 -413 -51 -883 -259 -1225 -541 -413 -341 -703 -785 -840 -1287
-15 -54 -25 -101 -22 -103 2 -3 20 15 40 38 115 138 361 362 542 492 119 86
187 128 345 215 99 55 206 106 305 146 39 15 84 33 100 40 87 36 408 129 515
148 40 8 142 26 175 31 17 3 55 8 85 12 30 3 66 7 79 9 85 14 345 21 566 15
l70 -1 -130 -34 c-167 -43 -271 -82 -420 -155 -214 -104 -403 -240 -567 -407
-84 -84 -201 -223 -194 -230 1 -2 18 3 37 11 88 37 349 90 509 103 165 14 387
9 575 -13 164 -19 478 -102 620 -164 22 -9 60 -26 85 -36 74 -31 238 -117 340
-179 179 -108 383 -274 536 -435 63 -66 92 -99 174 -197 10 -12 54 -72 98
-135 123 -175 215 -346 301 -564 40 -100 40 -101 58 -39 1 6 12 42 23 80 79
269 109 581 87 890 -36 507 -228 990 -554 1395 -269 335 -666 617 -1081 769
-154 57 -382 113 -517 127 -27 4 -52 7 -55 9 -7 5 -308 23 -313 19z"/>
<path d="M2177 3104 c-1 -2 -20 -5 -42 -8 -217 -26 -425 -85 -625 -176 -270
-123 -483 -273 -711 -500 -170 -170 -312 -349 -407 -515 -40 -70 -129 -258
-146 -308 l-16 -48 45 -93 c83 -170 205 -359 331 -510 l58 -70 20 29 c357 495
796 939 1131 1145 74 46 214 114 254 123 23 6 23 5 -5 -26 -203 -221 -500
-707 -680 -1110 -90 -202 -214 -535 -214 -576 0 -18 117 -91 258 -161 115 -57
292 -125 400 -154 l91 -24 42 81 c127 245 340 571 513 787 216 269 508 545
723 683 l41 26 -53 -70 c-85 -114 -228 -408 -304 -629 -13 -36 -27 -74 -32
-85 -24 -54 -132 -447 -153 -555 -3 -14 -12 -61 -21 -104 -8 -44 -18 -102 -21
-130 -3 -28 -7 -57 -10 -65 -5 -16 82 -12 271 14 22 3 51 7 65 10 98 19 139
28 165 35 178 53 277 85 310 100 22 10 78 34 125 55 180 78 395 211 559 348
201 167 452 447 446 499 -18 161 -53 323 -96 450 -243 717 -853 1285 -1579
1468 -108 27 -186 41 -345 60 -61 7 -381 10 -388 4z"/>
</g>
</svg>
