<svg width="16" height="16" viewBox="0 0 16 16" fill="none" xmlns="http://www.w3.org/2000/svg">
    <g clip-path="url(#clip0)">
        <path d="M8.00146 1.02905V6.46619L11.2554 12.1056L15.9758 14.8477C16.0183 14.7734 16.0122 14.671 15.9471 14.5584L12.0927 7.87837L8.23824 1.19837C8.17293 1.08541 8.08708 1.02905 8.00146 1.02905Z"
              fill="#3A3A3A"/>
        <path d="M0.0269941 14.8482L4.74747 12.1062L8.00168 6.46667V1.02954C7.91571 1.02954 7.82998 1.0859 7.7649 1.19874L3.91022 7.87885L0.0555314 14.5587C-0.00930439 14.6715 -0.0153939 14.7738 0.0269941 14.8482"
              fill="#3A3A3A"/>
        <path d="M15.9758 14.8477L11.2554 12.1057H4.74733L0.0268555 14.8477C0.0696017 14.9222 0.161303 14.9685 0.291333 14.9685H15.7114C15.8415 14.9685 15.933 14.9222 15.9758 14.8477Z"
              fill="#3A3A3A"/>
    </g>
    <defs>
        <clipPath id="clip0">
            <rect width="16" height="13.9701" fill="white" transform="translate(0 1)"/>
        </clipPath>
    </defs>
</svg>
