<?xml version="1.0" encoding="utf-8"?>
<!-- Generator: Adobe Illustrator 22.1.0, SVG Export Plug-In . SVG Version: 6.00 Build 0)  -->
<svg version="1.1" id="Layer_1" xmlns="http://www.w3.org/2000/svg" xmlns:xlink="http://www.w3.org/1999/xlink" x="0px" y="0px"
	 viewBox="0 0 604 604" style="enable-background:new 0 0 604 604;" xml:space="preserve">
<style type="text/css">
	.st0{fill:#FFFFFF;stroke:#E3E3E3;stroke-width:4;stroke-miterlimit:10;}
</style>
<circle class="st0" cx="302" cy="302" r="300"/>
<path d="M479.9,252.5h-35.6c-19.6-54.4-72.3-91.7-141.8-91.7H188.2v91.7h-39.7v32.9h39.7v34.5h-39.7v32.9h39.7v90.6h114.3
	c68.7,0,121-37,141.1-90.6h36.3v-32.9h-28.3c0.7-5.8,1.1-11.8,1.1-17.8v-0.8c0-5.4-0.3-10.7-0.8-15.9H480v-32.9L479.9,252.5z
	 M220.2,190.1h82.3c51,0,88.9,25.1,106.4,62.3H220.2L220.2,190.1L220.2,190.1z M302.5,413.8h-82.3v-61.1h188.5
	C391.1,389.3,353.3,413.8,302.5,413.8z M419.6,302.8c0,5.8-0.4,11.5-1.2,17H220.2v-34.5h198.3c0.7,5.4,1.1,11,1.1,16.7V302.8z"/>
</svg>
