<svg width="16" height="16" viewBox="0 0 16 16" fill="none" xmlns="http://www.w3.org/2000/svg">
<path fill-rule="evenodd" clip-rule="evenodd" d="M1.91771 1H7.43519C10.7911 1 13.335 2.80371 14.2816 5.42839H16V7.01491H14.6436C14.6702 7.26573 14.6837 7.52127 14.6837 7.78091V7.81988C14.6837 8.1122 14.6666 8.39955 14.633 8.68099H16V10.2675H14.2488C13.2774 12.8556 10.7532 14.6421 7.43519 14.6421H1.91771V10.2675H0V8.68099H1.91771V7.01491H0V5.42839H1.91771V1ZM3.46017 10.2675V13.2189H7.43519C9.88793 13.2189 11.7102 12.0369 12.5587 10.2675H3.46017ZM13.0314 8.68099H3.46017V7.01491H13.0338C13.0694 7.27708 13.0875 7.54584 13.0875 7.81988V7.85885C13.0875 8.13922 13.0685 8.41371 13.0314 8.68099ZM7.43519 2.42087C9.89925 2.42087 11.7271 3.63414 12.5704 5.42839H3.46017V2.42087H7.43519Z" fill="#3A3A3A"/>
</svg>
