<svg width="26" height="26" viewBox="0 0 20 20" fill="none" xmlns="http://www.w3.org/2000/svg">
<path d="M8.1088 11.8598C8.52994 11.4289 9.08546 11.1562 9.68199 11.0856V9.34418C9.08656 9.27191 8.53558 8.99703 8.10928 8.57073L8.10921 8.57066C7.73115 8.19187 7.47382 7.70954 7.36971 7.1846C7.26559 6.65965 7.31937 6.11563 7.52424 5.62122C7.72911 5.12682 8.07589 4.70421 8.52079 4.40677C8.96569 4.10932 9.48875 3.95038 10.0239 3.95001L10.024 3.95001C10.6311 3.95001 11.2061 4.1534 11.6788 4.52179L10.024 16.48C9.29762 16.48 8.62214 16.2016 8.10928 15.6887L8.10916 15.6886C7.60249 15.1802 7.31799 14.4918 7.31799 13.774C7.31799 13.0564 7.60236 12.3681 8.1088 11.8598ZM8.1088 11.8598C8.10892 11.8597 8.10904 11.8595 8.10916 11.8594L8.17999 11.93L8.10846 11.8601C8.10857 11.86 8.10869 11.8599 8.1088 11.8598ZM12.0947 5.05473L12.1582 4.99121C12.1395 4.96717 12.1203 4.94341 12.1008 4.91995L12.024 4.98401L12.0947 5.05473ZM11.9396 8.56985L11.868 8.50001L11.9387 8.57073C11.9388 8.57058 11.939 8.57044 11.9391 8.5703C11.9393 8.57015 11.9394 8.57 11.9396 8.56985ZM10.2742 9.35368C10.3049 9.35115 10.3355 9.34809 10.366 9.3445V9.25401H10.266L10.2742 9.35368ZM10.366 11.176V11.0859C10.3356 11.0822 10.3051 11.079 10.2745 11.0764L10.266 11.176H10.366ZM11.9387 15.6887C11.9387 15.6887 11.9388 15.6887 11.9388 15.6886L11.868 15.618L11.9387 15.6887ZM11.4594 15.2072L11.4586 15.208C11.0801 15.5941 10.5681 15.802 10.024 15.802L10.0238 15.802C9.75724 15.8024 9.49321 15.7501 9.24692 15.6481C9.00076 15.5461 8.77719 15.3964 8.58909 15.2077C8.20881 14.8196 7.99399 14.3146 7.99399 13.772L7.99399 13.7719C7.99356 13.5053 8.04587 13.2412 8.14792 12.995C8.24996 12.7487 8.39972 12.525 8.58857 12.3369L8.5894 12.336C8.96788 11.9499 9.47979 11.742 10.0239 11.742C10.5704 11.744 11.0803 11.9501 11.4586 12.336C11.839 12.7241 12.054 13.2293 12.054 13.772V13.7722C12.0544 14.0388 12.0021 14.3028 11.9001 14.5491C11.798 14.7954 11.6483 15.019 11.4594 15.2072ZM10.024 8.69401L10.0238 8.69402C9.75724 8.69444 9.49321 8.64213 9.24692 8.54008C9.00077 8.43809 8.77722 8.28844 8.58912 8.09973C8.20883 7.71165 7.99399 7.2066 7.99399 6.66401L7.99399 6.66392C7.99373 6.39734 8.04613 6.13334 8.14818 5.88706C8.25022 5.64079 8.39989 5.41709 8.58861 5.22881L8.58862 5.22881L8.5894 5.22802C8.96789 4.84191 9.47984 4.63401 10.024 4.63401L10.0241 4.63401C10.2907 4.63359 10.5548 4.6859 10.801 4.78794C11.0473 4.88999 11.271 5.03975 11.4591 5.2286L11.4591 5.2286L11.46 5.22943C11.8461 5.60792 12.054 6.11987 12.054 6.66401V6.66418C12.0544 6.93076 12.0021 7.19479 11.9001 7.44108C11.798 7.68736 11.6483 7.91102 11.4594 8.09917L11.4584 8.10019C11.0801 8.48801 10.5703 8.69401 10.024 8.69401Z" fill="white" stroke="white" stroke-width="0.2"/>
</svg>
