<svg width="100%" height="100%" viewBox="0 0 16 16" fill="none" xmlns="http://www.w3.org/2000/svg">
<path d="M8 16C12.4183 16 16 12.4183 16 8C16 3.58172 12.4183 0 8 0C3.58172 0 0 3.58172 0 8C0 12.4183 3.58172 16 8 16Z" fill="white"/>
<path d="M7.99997 3.2666L7.1234 3.76601L4.73473 5.13395L3.85815 5.63335V10.3669L4.73473 10.8663L7.14531 12.2342L8.02188 12.7336L8.89846 12.2342L11.2652 10.8663L12.1418 10.3669V5.63335L11.2652 5.13395L8.87654 3.76601L7.99997 3.2666V3.2666ZM5.6113 9.36804V6.63217L7.99997 5.26423L10.3886 6.63217V9.36804L7.99997 10.736L5.6113 9.36804Z" fill="black"/>
</svg>
