<?xml version="1.0" encoding="UTF-8"?>
<svg xmlns="http://www.w3.org/2000/svg" width="100%" height="100%" viewBox="0 0 28 28" fill="currentColor">
  <path d="M14,0 C21.7319333,0 28,6.26813493 28,14 C28,21.7321121 21.7319333,28 14,28 C6.26794317,28 0,21.7321121 0,14 C0,6.26813493 6.26794317,0 14,0 Z M15.6337184,14.0035306 L20.6353709,10.2984241 L20.6353709,18.4435119 C20.6353709,18.4435119 20.6353709,18.9122902 21.1121208,18.9122902 C21.5888706,18.9122902 21.5887602,18.4435119 21.5887602,18.4435119 L21.5887602,9.38664753 C21.5887602,9.38664753 21.5041322,8.77833013 20.7728927,8.98558584 C20.7728927,8.98558584 14.8119007,13.3876474 14.8119007,13.3876474 C14.8119007,13.3876474 14.6924011,13.5634173 14.6803311,13.7889513 L14.6803311,18.4435119 C14.6803311,18.4435119 14.6803311,18.9122902 15.1570248,18.9122902 C15.6337184,18.9122902 15.6337184,18.4435119 15.6337184,18.4435119 L15.6337184,14.0035306 Z M12.3709101,14.0035306 L12.3709101,18.4435119 C12.3709101,18.4435119 12.3709101,18.9122902 12.8476038,18.9122902 C13.3242974,18.9122902 13.3242974,18.4435119 13.3242974,18.4435119 L13.3242974,13.7889513 C13.3122275,13.5634173 13.1927278,13.3876474 13.1927278,13.3876474 C13.1927278,13.3876474 7.23173586,8.98558584 7.23173586,8.98558584 C6.50049635,8.77833013 6.41586833,9.38664753 6.41586833,9.38664753 L6.41586833,18.4435119 C6.41586833,18.4435119 6.41575798,18.9122902 6.89250781,18.9122902 C7.36925765,18.9122902 7.36925765,18.4435119 7.36925765,18.4435119 L7.36925765,10.2984241 L12.3709101,14.0035306 Z"/>
</svg>
