<svg width="16" height="16" viewBox="0 0 16 16" fill="none" xmlns="http://www.w3.org/2000/svg">
<path d="M8 16C12.4183 16 16 12.4183 16 8C16 3.58172 12.4183 0 8 0C3.58172 0 0 3.58172 0 8C0 12.4183 3.58172 16 8 16Z" fill="white"/>
<path fill-rule="evenodd" clip-rule="evenodd" d="M5.89036 4.66098C6.07204 4.45393 6.23762 4.27723 6.3958 4.12926C3.72231 4.0425 4.50054 5.99002 3.62936 7.9692C2.62614 10.2486 3.7474 11.1172 5.4182 11.3879C5.1866 11.1124 4.99753 10.7973 4.85361 10.4572C3.77037 9.08295 4.20636 6.57922 5.89036 4.66098Z" fill="#1E2C37"/>
<path fill-rule="evenodd" clip-rule="evenodd" d="M12.3232 7.08887C12.0745 7.7949 11.6179 8.58716 10.9725 9.36691C10.4694 9.97448 9.91013 10.453 9.33287 10.7995C8.66555 11.2351 7.83768 11.4922 6.9121 11.4922C6.39399 11.4922 5.88459 11.4632 5.41797 11.3876C5.69366 11.7152 6.02877 11.9872 6.41855 12.1769C8.83562 13.3548 8.98825 11.1667 11.5455 10.0564C12.9816 9.43291 12.9869 8.21405 12.3232 7.08887Z" fill="#708390"/>
<path fill-rule="evenodd" clip-rule="evenodd" d="M9.33201 4.81185C9.68851 4.87731 10.0268 4.99547 10.3297 5.16792C11.1414 5.63072 11.8809 6.33888 12.3232 7.08883C12.7586 5.85293 12.5558 4.88131 11.603 4.7054C10.556 4.51245 9.73737 4.45045 8.95069 3.8969C7.9818 3.21509 7.13254 3.43996 6.39551 4.12923C6.44753 4.13083 6.50061 4.13322 6.55527 4.13642C7.57777 4.19709 8.55352 4.39775 9.33201 4.81185Z" fill="#1E2C37"/>
<path fill-rule="evenodd" clip-rule="evenodd" d="M5.89018 4.66087C4.20617 6.57911 3.77019 9.08284 4.85342 10.4571C4.367 9.30665 4.4008 7.87169 5.08633 6.72602C5.99897 5.20058 7.82954 4.53553 9.33212 4.81203C8.55363 4.39767 7.57787 4.19728 6.55564 4.13634C6.50072 4.13314 6.44764 4.13101 6.39561 4.12915C6.23743 4.27712 6.07186 4.45383 5.89018 4.66087Z" fill="#708390"/>
<path fill-rule="evenodd" clip-rule="evenodd" d="M10.3297 5.16809C10.0268 4.99537 9.68853 4.87748 9.33203 4.81201C10.3572 5.35731 11.0393 6.27358 11.0316 7.73302C11.0247 8.99925 10.3757 10.1183 9.33282 10.7996C9.91009 10.4531 10.4697 9.97461 10.9725 9.36704C11.6181 8.58729 12.0744 7.79503 12.3232 7.08899C11.8809 6.33905 11.1415 5.63062 10.3297 5.16809Z" fill="#31424E"/>
<path fill-rule="evenodd" clip-rule="evenodd" d="M9.16371 10.1056C8.00627 10.855 6.46302 10.5208 5.71649 9.35885C4.96995 8.19694 5.33912 6.70077 6.46012 5.8976C7.71368 4.99969 9.32136 5.35391 9.90734 6.64436C10.4788 7.9026 10.3209 9.35619 9.16371 10.1056ZM9.33245 4.81181C7.82987 4.53557 5.99931 5.20035 5.08667 6.72579C4.40113 7.87147 4.36707 9.30669 4.85375 10.4569C4.99768 10.797 5.18649 11.1124 5.41835 11.3878C5.88496 11.4634 6.39436 11.4921 6.91221 11.4921C7.83806 11.4921 8.66593 11.235 9.33298 10.7994C10.3761 10.1184 11.0252 8.99905 11.0318 7.73281C11.0397 6.27338 10.3573 5.3571 9.33245 4.81181Z" fill="black"/>
</svg>
