<svg width="16" height="16" viewBox="0 0 16 16" fill="none" xmlns="http://www.w3.org/2000/svg">
<path fill-rule="evenodd" clip-rule="evenodd" d="M4.44698 2.37583C4.75297 2.02712 5.03184 1.7295 5.29825 1.48029C0.795482 1.33417 2.1062 4.61424 0.638926 7.94765C-1.05072 11.7866 0.837735 13.2496 3.65174 13.7055C3.26169 13.2416 2.94324 12.7109 2.70084 12.138C0.876429 9.82344 1.61073 5.6066 4.44698 2.37583Z" fill="#1E2C37"/>
<path fill-rule="evenodd" clip-rule="evenodd" d="M15.2819 6.46533C14.863 7.65446 14.094 8.9888 13.007 10.3021C12.1597 11.3254 11.2177 12.1313 10.2454 12.7148C9.12154 13.4486 7.72721 13.8816 6.16832 13.8816C5.29569 13.8816 4.43775 13.8327 3.65186 13.7054C4.11619 14.2572 4.68059 14.7153 5.33706 15.0348C9.40796 17.0186 9.66504 13.3334 13.9721 11.4634C16.3907 10.4132 16.3996 8.3604 15.2819 6.46533Z" fill="#708390"/>
<path fill-rule="evenodd" clip-rule="evenodd" d="M10.2441 2.63021C10.8445 2.74047 11.4143 2.93948 11.9244 3.22993C13.2916 4.00938 14.5369 5.20209 15.2819 6.46517C16.0153 4.38364 15.6737 2.7472 14.069 2.45092C12.3056 2.12596 10.9268 2.02153 9.60185 1.08923C7.97002 -0.0591038 6.53967 0.319641 5.29834 1.48053C5.38596 1.48322 5.47536 1.48725 5.56742 1.49263C7.28954 1.59482 8.93293 1.93278 10.2441 2.63021Z" fill="#1E2C37"/>
<path fill-rule="evenodd" clip-rule="evenodd" d="M4.44713 2.37552C1.61089 5.60629 0.876584 9.82313 2.701 12.1377C1.88175 10.2001 1.93868 7.78329 3.09328 5.8537C4.63038 3.28451 7.71347 2.16441 10.2442 2.63011C8.933 1.93223 7.28961 1.59472 5.56793 1.49208C5.47542 1.4867 5.38603 1.48312 5.29841 1.47998C5.032 1.72919 4.75313 2.02681 4.44713 2.37552Z" fill="#708390"/>
<path fill-rule="evenodd" clip-rule="evenodd" d="M11.9245 3.23033C11.4143 2.93944 10.8446 2.74088 10.2441 2.63062C11.9707 3.54902 13.1195 5.09223 13.1066 7.55027C13.0951 9.68289 12.0018 11.5677 10.2455 12.7151C11.2177 12.1315 12.1602 11.3256 13.007 10.3023C14.0944 8.98905 14.863 7.6547 15.282 6.46558C14.537 5.2025 13.2916 4.00934 11.9245 3.23033Z" fill="#31424E"/>
<path fill-rule="evenodd" clip-rule="evenodd" d="M9.96028 11.5462C8.01089 12.8084 5.4117 12.2454 4.15436 10.2885C2.89702 8.33155 3.5188 5.81167 5.40681 4.45894C7.51809 2.94665 10.2258 3.54323 11.2127 5.71664C12.1752 7.83582 11.9092 10.284 9.96028 11.5462ZM10.2445 2.63021C7.71379 2.16496 4.6307 3.28461 3.0936 5.8538C1.939 7.78338 1.88163 10.2006 2.70132 12.1378C2.94372 12.7107 3.26172 13.2418 3.65223 13.7057C4.43812 13.833 5.29607 13.8814 6.16824 13.8814C7.72758 13.8814 9.12191 13.4484 10.2454 12.7147C12.0022 11.5677 13.0954 9.68249 13.1065 7.54986C13.1199 5.09183 11.9706 3.54861 10.2445 2.63021Z" fill="black"/>
</svg>
