<svg width="100%" height="100%" viewBox="0 0 20 20" fill="none" xmlns="http://www.w3.org/2000/svg">
<path d="M10 20C15.5228 20 20 15.5228 20 10C20 4.47715 15.5228 0 10 0C4.47715 0 0 4.47715 0 10C0 15.5228 4.47715 20 10 20Z"
      fill="#602A52"
      class="icon-background"
/>
<path fill-rule="evenodd" clip-rule="evenodd" d="M12.5503 10.195C12.3763 9.70993 12.066 9.28541 11.6565 8.97251L11.6521 8.96751C11.6088 8.93468 11.5644 8.90321 11.519 8.87313L11.5103 8.86688C11.4656 8.83756 11.4202 8.80943 11.374 8.78251L11.3615 8.77501C11.3163 8.74878 11.2698 8.72479 11.2221 8.70313L11.2084 8.69563C11.1597 8.67275 11.1105 8.65087 11.0609 8.63001L11.0446 8.62376C10.8841 8.5571 10.7175 8.50603 10.5471 8.47126C10.449 8.64926 10.3228 8.81029 10.1734 8.94813C10.5242 8.97613 10.8632 9.08825 11.1615 9.27501L11.1784 9.28501L11.2609 9.34126L11.2984 9.36751C11.3234 9.38626 11.3465 9.40501 11.3721 9.42376L11.414 9.45751C11.4365 9.47626 11.4571 9.49501 11.4784 9.51438L11.5209 9.55501L11.579 9.61376L11.6215 9.65938L11.6734 9.72001L11.714 9.77063L11.7609 9.83313C11.7765 9.85376 11.7871 9.87001 11.7996 9.88813C11.8121 9.90626 11.8284 9.93001 11.8415 9.95188L11.8778 10.0119C11.889 10.0319 11.9028 10.0544 11.914 10.0756C11.9265 10.0963 11.9365 10.1194 11.9478 10.1419C11.9584 10.1644 11.969 10.1831 11.9784 10.2044C11.9878 10.2269 12.0015 10.26 12.0121 10.2881C12.0715 10.4361 12.1134 10.5905 12.1371 10.7481L12.2053 11.0006C12.234 11.1056 12.4996 12.0356 13.1153 12.3488C13.8209 12.7106 14.7553 13.1575 15.1228 13.3344L10.269 16.1844V14.2313C10.269 13.9231 10.894 13.5625 11.1834 13.4356L11.2003 13.4263C11.2596 13.3969 11.319 13.365 11.3753 13.3313L11.3996 13.3188C11.5246 13.2431 11.6446 13.1581 11.7559 13.0644L11.7859 13.0375L11.8203 13.0069C11.8555 12.9753 11.8899 12.9427 11.9234 12.9094L11.9409 12.8925C11.9778 12.8556 12.0146 12.8206 12.0471 12.7775L12.0778 12.7425C12.1053 12.71 12.1315 12.6769 12.1571 12.6431L12.1796 12.615C12.2109 12.5738 12.2396 12.5313 12.2684 12.4881L12.2784 12.4756C12.3171 12.415 12.3515 12.3544 12.3878 12.2913C12.2517 12.1269 12.135 11.9474 12.0403 11.7563C12.0015 11.8644 11.9528 11.9694 11.8965 12.07C11.8728 12.1138 11.8478 12.1563 11.8228 12.1975L11.8115 12.2144C11.7879 12.2495 11.7633 12.2838 11.7378 12.3175L11.7153 12.3463C11.6898 12.3791 11.6631 12.411 11.6353 12.4419L11.6203 12.4594C11.4394 12.6569 11.2235 12.819 10.9834 12.9375L10.9378 12.9606C10.8146 13.015 9.72965 13.4963 9.72965 14.2281V16.1819L4.8609 13.3269C5.17402 13.1356 6.08902 12.6031 6.84152 12.3688C7.1359 12.2788 7.7609 12.6644 8.11527 12.9475L8.13652 12.9663C8.1834 13.01 8.23277 13.0519 8.28402 13.0913L8.30152 13.1069C8.41402 13.1969 8.53402 13.2775 8.65965 13.3488L8.74402 13.3944L8.7609 13.4031C8.84277 13.4444 8.92652 13.4819 9.01215 13.515L9.04965 13.5294L9.07465 13.5394C9.19777 13.5844 9.32465 13.6194 9.45277 13.6456C9.55277 13.4663 9.6834 13.3038 9.83777 13.1656C9.63238 13.1504 9.43016 13.1062 9.23715 13.0344L9.20402 13.0219L9.14027 12.9963L9.10777 12.9825L9.0459 12.9538C8.9026 12.8842 8.76741 12.7992 8.64277 12.7L8.44902 12.5275C8.27112 12.3743 8.07852 12.2391 7.87402 12.1238C7.39277 11.855 6.99027 11.7675 6.68152 11.8625C6.03777 12.0613 5.31277 12.4475 4.87027 12.7025L9.73152 4.12938V7.88376C9.73152 8.01688 9.53152 8.36438 8.8634 8.65938L8.81715 8.68438C8.75215 8.71563 8.68902 8.74938 8.62715 8.78563L8.61465 8.79188C8.40892 8.91307 8.22019 9.06103 8.0534 9.23188L8.04715 9.23813C7.98392 9.30316 7.92405 9.37138 7.86777 9.44251L7.8609 9.45188C7.83373 9.48656 7.80727 9.52177 7.78152 9.55751L7.77277 9.57001C7.74959 9.60372 7.72709 9.6379 7.70527 9.67251L7.69777 9.68313C7.6759 9.71876 7.65465 9.75438 7.63465 9.79126L7.62027 9.81688C7.60215 9.85188 7.58402 9.88938 7.5659 9.92188L7.55777 9.93876C7.54152 9.97188 7.52652 10.005 7.51215 10.0388L7.49652 10.0763C7.48215 10.1113 7.46902 10.1488 7.4559 10.1825L7.4434 10.22C7.43383 10.2468 7.42508 10.2739 7.41715 10.3013C7.41277 10.3163 7.40777 10.3306 7.40402 10.3463C7.36814 10.4718 7.34203 10.5999 7.3259 10.7294L7.31965 10.7875C7.31669 10.8139 7.3144 10.8404 7.31277 10.8669C7.31152 10.8938 7.31277 10.92 7.3084 10.9463C7.30402 10.9731 7.3084 10.9788 7.3084 10.9963V11.0556C7.3084 11.1869 7.3184 11.3181 7.3384 11.4488C7.54777 11.4998 7.75041 11.5754 7.94215 11.6738C7.88329 11.4851 7.85172 11.2889 7.8484 11.0913V11.0556C7.8484 11.0081 7.8484 10.9613 7.85402 10.9113V10.8738C7.85402 10.8331 7.86215 10.7919 7.86777 10.7513V10.7338C7.87402 10.6881 7.8834 10.6431 7.89402 10.5994L7.90152 10.565C7.9109 10.5275 7.92027 10.4913 7.93215 10.4544L7.93965 10.4306C7.95215 10.3875 7.96777 10.3456 7.98402 10.3038L7.99652 10.2756C8.01027 10.2413 8.02527 10.2069 8.0409 10.1725L8.05277 10.1463C8.07215 10.1056 8.0934 10.0663 8.11527 10.0269L8.12715 10.0075C8.14684 9.97361 8.16747 9.94026 8.18902 9.90751L8.20465 9.88438C8.23027 9.84688 8.25652 9.81188 8.28465 9.77313L8.28965 9.76688C8.31652 9.73251 8.34465 9.69938 8.3734 9.66688L8.38902 9.64813C8.5209 9.50313 8.67215 9.37626 8.83902 9.27126L9.06902 9.16501C9.19215 9.11063 10.2721 8.61626 10.2721 7.88376V4.12938L15.1715 12.7669C14.734 12.5563 13.9653 12.1844 13.3653 11.8794C13.0228 11.7044 12.789 11.0875 12.729 10.8663L12.6628 10.6069C12.6382 10.4677 12.6023 10.3308 12.5553 10.1975L12.5503 10.195V10.195ZM15.869 12.9138L10.469 3.39751C10.4213 3.31427 10.3524 3.24519 10.2693 3.19731C10.1862 3.14944 10.0918 3.12449 9.9959 3.12501C9.90018 3.12471 9.8061 3.14977 9.72322 3.19763C9.64033 3.24549 9.5716 3.31446 9.52402 3.39751L4.13027 12.9144C4.06238 13.0344 4.04464 13.1763 4.08093 13.3093C4.11722 13.4423 4.2046 13.5555 4.32402 13.6244L9.72215 16.7994C9.80635 16.8486 9.90212 16.8745 9.99965 16.8745C10.0972 16.8745 10.1929 16.8486 10.2771 16.7994L15.6746 13.6269C15.794 13.5581 15.8814 13.445 15.9178 13.3122C15.9542 13.1793 15.9367 13.0375 15.869 12.9175L15.8703 12.9138H15.869Z"
      fill="white"
      class="icon-content"
/>
</svg>
