<svg width="16" height="16" viewBox="0 0 16 16" fill="none" xmlns="http://www.w3.org/2000/svg">
<path d="M14.916 11.3936L8.55188 0.32099C8.49787 0.223932 8.4178 0.142853 8.32015 0.086344C8.2225 0.029835 8.11091 0 7.99721 0C7.8835 0 7.77192 0.029835 7.67427 0.086344C7.57662 0.142853 7.49655 0.223932 7.44254 0.32099L1.08083 11.3936C0.915402 11.6791 1.01028 12.0496 1.30708 12.2195L7.67852 15.9151C7.77935 15.9707 7.89336 16 8.00937 16C8.12538 16 8.2394 15.9707 8.34023 15.9151L14.7019 12.2266C14.9841 12.0496 15.0887 11.6791 14.916 11.3936V11.3936ZM10.1064 6.93102L9.95073 6.80358L9.941 6.79414C9.89145 6.75488 9.83946 6.71863 9.7853 6.68559L9.77557 6.67615C9.72448 6.64311 9.67096 6.60771 9.61014 6.57467C9.60041 6.57467 9.60041 6.56524 9.59311 6.56524C9.54202 6.5322 9.4812 6.50624 9.42768 6.48028C9.41795 6.48028 9.41795 6.47084 9.41065 6.47084C9.35956 6.44488 9.29874 6.42128 9.23793 6.39532C9.22819 6.39532 9.22819 6.38588 9.2209 6.38588C9.16981 6.36937 9.11629 6.34341 9.0652 6.32689C8.92455 6.27577 8.77968 6.2363 8.63216 6.20889C8.52026 6.41892 8.36213 6.60535 8.1894 6.76346C8.45944 6.77998 8.71974 6.84842 8.95329 6.94046C9.09143 6.99813 9.22481 7.06598 9.35226 7.14341C9.35562 7.14375 9.35887 7.14476 9.3618 7.14639C9.36474 7.14801 9.36729 7.15021 9.36929 7.15285C9.40335 7.16936 9.43011 7.19532 9.46417 7.22128C9.48046 7.23002 9.49523 7.24116 9.50796 7.25432C9.53946 7.27421 9.5688 7.29714 9.59554 7.32276C9.61257 7.33928 9.6296 7.34872 9.64663 7.36524C9.67339 7.39119 9.69772 7.40771 9.72448 7.43367L9.77557 7.48323L9.84612 7.55167L9.89721 7.60122C9.91564 7.62551 9.93597 7.64839 9.95803 7.66966C9.97506 7.68854 9.99208 7.71214 10.0091 7.72866L10.0602 7.80417C10.0772 7.83013 10.0943 7.84665 10.104 7.87261L10.1551 7.94813C10.1721 7.97408 10.1818 7.99768 10.1989 8.01656C10.2159 8.04252 10.2256 8.06612 10.2427 8.09208C10.2597 8.11804 10.2694 8.14164 10.2865 8.16759C10.2962 8.19355 10.3132 8.21715 10.3205 8.24311C10.3375 8.27615 10.3473 8.31155 10.3643 8.33515C10.4373 8.50758 10.4872 8.68842 10.5127 8.8732L10.5905 9.16818C10.6246 9.29562 10.9384 10.3717 11.6658 10.7351C12.5003 11.1552 13.6023 11.6791 14.0354 11.8797L8.31834 15.1977V12.9251C8.31834 12.5641 9.05547 12.1416 9.39362 12L9.41065 11.9906C9.4812 11.9576 9.54932 11.9222 9.61987 11.882L9.64663 11.8655C9.79474 11.7804 9.93405 11.6816 10.0626 11.5705C10.0724 11.5611 10.0894 11.554 10.0967 11.5375C10.1137 11.5281 10.1235 11.5115 10.1405 11.5045C10.1843 11.4714 10.2183 11.429 10.2621 11.3959L10.2792 11.3794C10.3242 11.3385 10.3649 11.2935 10.4008 11.2449C10.4105 11.2284 10.4276 11.2189 10.4348 11.2024C10.4689 11.1694 10.4957 11.1269 10.5297 11.0844C10.5395 11.075 10.5468 11.0584 10.5565 11.0514L10.6611 10.9003C10.6611 10.8909 10.6708 10.8909 10.6708 10.8838C10.7146 10.8154 10.7584 10.7399 10.8022 10.6738C10.6295 10.4708 10.4981 10.2537 10.3935 10.0508C10.3492 10.1755 10.2938 10.2963 10.2281 10.4118C10.2013 10.4614 10.1672 10.5133 10.1405 10.5629C10.1308 10.5723 10.1308 10.5794 10.1235 10.5794C10.0966 10.6203 10.0674 10.6597 10.0359 10.6974C10.0261 10.7068 10.0188 10.7233 10.0091 10.7304C9.98213 10.7702 9.95027 10.8067 9.91424 10.839C9.90451 10.8484 9.9045 10.8555 9.89721 10.8555C9.68799 11.082 9.43741 11.2756 9.15034 11.4101L9.09926 11.436C8.95086 11.495 7.67608 12.059 7.67608 12.9086V15.1812L1.9469 11.8726C2.31911 11.6531 3.39683 11.0301 4.28236 10.7611C4.63025 10.6526 5.36738 11.1056 5.78338 11.4337L5.81014 11.4596C5.86376 11.5119 5.92151 11.56 5.98287 11.6036L5.9999 11.6201C6.13127 11.7216 6.26994 11.8231 6.42564 11.8986L6.53025 11.9481C6.5336 11.9485 6.53685 11.9495 6.53978 11.9511C6.54272 11.9527 6.54527 11.9549 6.54728 11.9576C6.64215 12.0071 6.73703 12.0496 6.84164 12.0921C6.85581 12.0986 6.87044 12.1041 6.88543 12.1086C6.89516 12.1086 6.90246 12.118 6.91949 12.118C7.06789 12.1676 7.21386 12.2101 7.36226 12.2455C7.47416 12.0354 7.63959 11.849 7.81475 11.6909C7.57079 11.6748 7.3306 11.6239 7.10195 11.5399C7.09222 11.5304 7.07519 11.5304 7.06789 11.5233C7.04069 11.5153 7.01456 11.5043 6.99004 11.4903C6.98031 11.4809 6.96328 11.4809 6.95598 11.4738C6.92922 11.4643 6.90489 11.4478 6.88543 11.4407C6.7127 11.3558 6.55457 11.2638 6.40861 11.1458L6.18236 10.9428C5.97327 10.7645 5.74676 10.6065 5.50605 10.4708C4.94164 10.1593 4.46482 10.0579 4.0999 10.1688C3.34574 10.4048 2.48454 10.8508 1.96393 11.1458L7.68338 1.17763V5.54813C7.68338 5.69916 7.44983 6.1027 6.65918 6.4496L6.60809 6.47556C6.53025 6.5086 6.4597 6.55108 6.38185 6.59356L6.36482 6.60299C6.21515 6.69034 6.0728 6.78897 5.93908 6.89798C5.85484 6.96445 5.7767 7.03788 5.70554 7.11745L5.6958 7.12689C5.6189 7.1993 5.54888 7.27828 5.48659 7.36288L5.47685 7.37232C5.4428 7.41479 5.41603 7.45727 5.38198 7.49975C5.38198 7.50919 5.37225 7.50919 5.37225 7.51627C5.34548 7.55875 5.32116 7.59178 5.2944 7.63426C5.2944 7.6437 5.28467 7.6437 5.28467 7.65078L5.20682 7.77821C5.19709 7.78765 5.19709 7.79473 5.18979 7.81125C5.16303 7.85373 5.146 7.89621 5.12897 7.92925C5.12862 7.93251 5.12757 7.93566 5.12589 7.9385C5.12422 7.94134 5.12195 7.94382 5.11924 7.94577C5.10221 7.98824 5.08518 8.02128 5.06815 8.06376C5.06142 8.0775 5.05573 8.0917 5.05112 8.10624L5.00003 8.23367C4.99331 8.24741 4.98761 8.26161 4.983 8.27615C4.97491 8.30787 4.9635 8.33871 4.94894 8.36818C4.93921 8.3847 4.93921 8.40122 4.93191 8.41774C4.92218 8.46022 4.90515 8.5027 4.89785 8.53574C4.88812 8.55226 4.88812 8.57821 4.88082 8.59473C4.87109 8.62069 4.87109 8.65373 4.8638 8.67969C4.85406 8.70565 4.85406 8.72925 4.84677 8.75521C4.83703 8.78824 4.83703 8.82364 4.82974 8.85668C4.82974 8.88264 4.82 8.89916 4.82 8.92512C4.82 8.95816 4.81027 8.98411 4.81027 9.01715C4.81186 9.04813 4.80858 9.07917 4.80054 9.10919V9.23662C4.79951 9.38907 4.8109 9.54137 4.8346 9.69208C5.06085 9.74164 5.2944 9.83603 5.54741 9.95402C5.47685 9.73456 5.4428 9.50801 5.4355 9.27202V9.22954C5.43389 9.17352 5.43714 9.11748 5.44523 9.06199V9.01951C5.44523 8.96995 5.45496 8.92748 5.46226 8.87556V8.85904C5.47199 8.80948 5.47929 8.75756 5.48902 8.69857C5.48902 8.68205 5.49875 8.67261 5.49875 8.65609C5.50848 8.61361 5.52551 8.57114 5.53281 8.52866C5.53281 8.51922 5.54254 8.51214 5.54254 8.5027L5.59363 8.35167C5.60336 8.34223 5.60336 8.32571 5.61066 8.31863C5.62769 8.27615 5.64472 8.23367 5.66175 8.20063C5.67148 8.19119 5.67148 8.18411 5.67877 8.16759C5.70554 8.11804 5.72256 8.07556 5.75662 8.03308C5.76315 8.02498 5.76886 8.01629 5.77365 8.00712C5.80041 7.96464 5.81744 7.93161 5.8442 7.88913C5.85073 7.88103 5.85644 7.87234 5.86123 7.86317C5.89044 7.81904 5.92211 7.7765 5.95611 7.73574C5.95608 7.73449 5.95631 7.73325 5.95678 7.73209C5.95726 7.73093 5.95798 7.72987 5.95889 7.72899C5.9598 7.72811 5.96088 7.72741 5.96208 7.72695C5.96327 7.72649 5.96456 7.72627 5.96584 7.7263C5.9999 7.68382 6.02666 7.65078 6.06072 7.6083C6.06725 7.60021 6.07295 7.59151 6.07775 7.58234C6.23436 7.41454 6.41261 7.26702 6.60809 7.14341L6.87813 7.01597C7.02653 6.95698 8.29401 6.37644 8.29401 5.52453V1.17055L14.067 11.2236C13.5537 10.9806 12.6438 10.5416 11.9407 10.1877C11.532 9.9847 11.2644 9.26966 11.1866 9.00771L11.1087 8.70565C11.1087 8.54517 11.0649 8.3847 11.0139 8.22659C10.8306 7.72657 10.5181 7.28051 10.1064 6.93102" fill="black"/>
</svg>
