<svg width="16" height="16" viewBox="0 0 16 16" fill="none" xmlns="http://www.w3.org/2000/svg">
<path d="M8 16C12.4183 16 16 12.4183 16 8C16 3.58172 12.4183 0 8 0C3.58172 0 0 3.58172 0 8C0 12.4183 3.58172 16 8 16Z" fill="white"/>
<path d="M11.7801 12.5001H4.22C3.824 12.5001 3.5 12.1761 3.5 11.7801V4.22C3.5 3.824 3.824 3.5 4.22 3.5H11.7801C12.1761 3.5 12.5001 3.824 12.5001 4.22V11.7801C12.5001 12.1761 12.1761 12.5001 11.7801 12.5001Z" fill="#3A3A3A"/>
<path d="M5.25624 11.5937C5.23254 11.5937 5.21334 11.5721 5.21334 11.5484V10.3391C5.21334 10.3154 5.19414 10.2938 5.17044 10.2938H4.74354C4.71954 10.2938 4.69824 10.2746 4.69824 10.2509V10.0172C4.69824 9.99352 4.71984 9.97192 4.74354 9.97192H6.05755C6.08125 9.97192 6.10285 9.99322 6.10285 10.0172V10.2509C6.10285 10.2746 6.08125 10.2938 6.05755 10.2938H5.63305C5.60935 10.2938 5.58775 10.3151 5.58775 10.3391V11.5484C5.58775 11.5721 5.56855 11.5937 5.54485 11.5937H5.25624Z" fill="white"/>
<path d="M7.4146 10.0172C7.4146 9.99352 7.4338 9.97192 7.4575 9.97192H7.7437C7.7674 9.97192 7.789 9.99322 7.789 10.0172V10.8425C7.789 11.3315 7.5124 11.6153 7.0735 11.6153C6.637 11.6153 6.36279 11.3315 6.36279 10.8425V10.0172C6.36279 9.99352 6.38199 9.97192 6.40569 9.97192H6.6919C6.7156 9.97192 6.7372 9.99322 6.7372 10.0172V10.8542C6.7372 11.0951 6.8611 11.2667 7.0759 11.2667C7.2907 11.2667 7.4146 11.0951 7.4146 10.8542V10.0172V10.0172Z" fill="white"/>
<path d="M9.10344 10.5015C9.06534 10.5015 9.05334 10.4871 9.03894 10.4586C8.98884 10.3416 8.87904 10.2678 8.71224 10.2678C8.56193 10.2678 8.43563 10.3203 8.43563 10.4205C8.43563 10.5303 8.55263 10.5756 8.81004 10.6065C9.20124 10.6518 9.42534 10.7712 9.42534 11.0811C9.42534 11.4294 9.11994 11.613 8.72904 11.613C8.39033 11.613 8.09933 11.4483 8.05403 11.1027C8.04923 11.0694 8.06603 11.0574 8.09933 11.0574H8.36183C8.39513 11.0574 8.41433 11.0718 8.42393 11.0979C8.45963 11.2125 8.58143 11.3007 8.75784 11.3007C8.91294 11.3007 9.04884 11.2434 9.04884 11.1219C9.04884 10.9764 8.90574 10.9503 8.61954 10.9143C8.29043 10.8714 8.06153 10.776 8.06153 10.473C8.06153 10.17 8.32163 9.95312 8.72934 9.95312C9.09654 9.95312 9.35184 10.1511 9.40434 10.4469C9.41154 10.4802 9.40194 10.5018 9.36624 10.5018H9.10344V10.5015Z" fill="white"/>
<path d="M9.74993 11.5937C9.72623 11.5937 9.70703 11.5721 9.70703 11.5484V10.0172C9.70703 9.99352 9.72623 9.97192 9.74993 9.97192H10.3985C10.8803 9.97192 11.2547 10.3034 11.2547 10.7876C11.2547 11.2646 10.8851 11.5937 10.3985 11.5937H9.74993ZM10.3985 11.2715C10.6586 11.2715 10.8611 11.0663 10.8611 10.7825C10.8611 10.4987 10.6583 10.2935 10.3961 10.2935H10.1267C10.103 10.2935 10.0838 10.3148 10.0838 10.3388V11.2283C10.0838 11.252 10.103 11.2712 10.1267 11.2712H10.3985V11.2715Z" fill="white"/>
<path d="M12.2597 9.08015H3.73963C3.67363 9.08015 3.61963 9.02615 3.61963 8.96015V4.22012C3.61963 3.89012 3.88963 3.62012 4.21963 3.62012H11.7797C12.1097 3.62012 12.3797 3.89012 12.3797 4.22012V8.96015C12.3797 9.02615 12.3257 9.08015 12.2597 9.08015Z" fill="white"/>
<path d="M8.44129 8.10674H7.66129C7.61179 8.10674 7.57129 8.06624 7.57129 8.01674V4.71671C7.57129 4.66721 7.61179 4.62671 7.66129 4.62671H8.44129C8.49079 4.62671 8.53129 4.66721 8.53129 4.71671V8.01674C8.53129 8.06624 8.49079 8.10674 8.44129 8.10674Z" fill="#3A3A3A"/>
<path d="M9.76967 5.58672H6.22965C6.18015 5.58672 6.13965 5.54622 6.13965 5.49672V4.71671C6.13965 4.66721 6.18015 4.62671 6.22965 4.62671H9.76967C9.81917 4.62671 9.85968 4.66721 9.85968 4.71671V5.49672C9.85968 5.54622 9.81917 5.58672 9.76967 5.58672Z" fill="#3A3A3A"/>
</svg>
