<svg width="16" height="16" viewBox="0 0 16 16" fill="none" xmlns="http://www.w3.org/2000/svg">
<path d="M14.7201 16.0001H1.28001C0.576004 16.0001 0 15.4241 0 14.7201V1.28001C0 0.576004 0.576004 0 1.28001 0H14.7201C15.4241 0 16.0001 0.576004 16.0001 1.28001V14.7201C16.0001 15.4241 15.4241 16.0001 14.7201 16.0001Z" fill="#3A3A3A"/>
<path d="M3.12238 14.3891C3.08024 14.3891 3.04611 14.3507 3.04611 14.3086V12.1587C3.04611 12.1165 3.01198 12.0781 2.96984 12.0781H2.2109C2.16824 12.0781 2.13037 12.044 2.13037 12.0019V11.5864C2.13037 11.5443 2.16877 11.5059 2.2109 11.5059H4.54692C4.58905 11.5059 4.62745 11.5437 4.62745 11.5864V12.0019C4.62745 12.044 4.58905 12.0781 4.54692 12.0781H3.79225C3.75011 12.0781 3.71171 12.116 3.71171 12.1587V14.3086C3.71171 14.3507 3.67758 14.3891 3.63545 14.3891H3.12238Z" fill="white"/>
<path d="M6.95972 11.5864C6.95972 11.5443 6.99386 11.5059 7.03599 11.5059H7.54479C7.58693 11.5059 7.62533 11.5437 7.62533 11.5864V13.0536C7.62533 13.9229 7.13359 14.4275 6.35332 14.4275C5.57731 14.4275 5.08984 13.9229 5.08984 13.0536V11.5864C5.08984 11.5443 5.12398 11.5059 5.16611 11.5059H5.67491C5.71705 11.5059 5.75545 11.5437 5.75545 11.5864V13.0744C5.75545 13.5027 5.97572 13.8077 6.35759 13.8077C6.73946 13.8077 6.95972 13.5027 6.95972 13.0744V11.5864V11.5864Z" fill="white"/>
<path d="M9.96178 12.4474C9.89404 12.4474 9.87271 12.4218 9.84711 12.3711C9.75804 12.1631 9.56284 12.0319 9.26631 12.0319C8.9991 12.0319 8.77457 12.1252 8.77457 12.3034C8.77457 12.4986 8.98257 12.5791 9.44017 12.634C10.1356 12.7146 10.534 12.9268 10.534 13.4778C10.534 14.097 9.99111 14.4234 9.29617 14.4234C8.69403 14.4234 8.1767 14.1306 8.09616 13.5162C8.08763 13.457 8.1175 13.4356 8.1767 13.4356H8.64337C8.70257 13.4356 8.7367 13.4612 8.75377 13.5076C8.81723 13.7114 9.03377 13.8682 9.34737 13.8682C9.62311 13.8682 9.86471 13.7663 9.86471 13.5503C9.86471 13.2916 9.61031 13.2452 9.1015 13.1812C8.51643 13.105 8.10949 12.9354 8.10949 12.3967C8.10949 11.858 8.5719 11.4724 9.2967 11.4724C9.94951 11.4724 10.4034 11.8244 10.4967 12.3503C10.5095 12.4095 10.4924 12.4479 10.429 12.4479H9.96178V12.4474Z" fill="white"/>
<path d="M11.1104 14.3891C11.0683 14.3891 11.0342 14.3507 11.0342 14.3086V11.5864C11.0342 11.5443 11.0683 11.5059 11.1104 11.5059H12.2635C13.1201 11.5059 13.7857 12.0952 13.7857 12.956C13.7857 13.804 13.1286 14.3891 12.2635 14.3891H11.1104ZM12.2635 13.8163C12.7259 13.8163 13.0859 13.4515 13.0859 12.9469C13.0859 12.4424 12.7254 12.0776 12.2593 12.0776H11.7803C11.7382 12.0776 11.7041 12.1155 11.7041 12.1581V13.7395C11.7041 13.7816 11.7382 13.8157 11.7803 13.8157H12.2635V13.8163Z" fill="white"/>
<path d="M15.5735 9.92011H0.426714C0.30938 9.92011 0.213379 9.82411 0.213379 9.70677V1.28005C0.213379 0.693382 0.693382 0.213379 1.28005 0.213379H14.7201C15.3068 0.213379 15.7868 0.693382 15.7868 1.28005V9.70677C15.7868 9.82411 15.6908 9.92011 15.5735 9.92011Z" fill="white"/>
<path d="M8.78496 8.18989H7.39828C7.31028 8.18989 7.23828 8.11789 7.23828 8.02989V2.16318C7.23828 2.07517 7.31028 2.00317 7.39828 2.00317H8.78496C8.87296 2.00317 8.94496 2.07517 8.94496 2.16318V8.02989C8.94496 8.11789 8.87296 8.18989 8.78496 8.18989Z" fill="#3A3A3A"/>
<path d="M11.1458 3.70986H4.85238C4.76438 3.70986 4.69238 3.63786 4.69238 3.54986V2.16318C4.69238 2.07517 4.76438 2.00317 4.85238 2.00317H11.1458C11.2338 2.00317 11.3058 2.07517 11.3058 2.16318V3.54986C11.3058 3.63786 11.2338 3.70986 11.1458 3.70986Z" fill="#3A3A3A"/>
</svg>
