<svg width="16" height="16" viewBox="0 0 16 16" fill="none" xmlns="http://www.w3.org/2000/svg">
<path fill-rule="evenodd" clip-rule="evenodd" d="M16 8C16 12.4183 12.4183 16 8 16C3.58172 16 0 12.4183 0 8C0 3.58172 3.58172 0 8 0C12.4183 0 16 3.58172 16 8ZM6.2 13.8C6.4 13.8 6.53333 13.7334 6.53333 13.5334V13.0667C6.53333 12.9334 6.46667 12.8 6.33333 12.7334C4.46667 12.0667 3.06667 10.2 3.06667 8.06669C3.06667 5.93336 4.4 4.13336 6.33333 3.40002C6.46667 3.33336 6.53333 3.20002 6.53333 3.06669V2.60002C6.53333 2.40002 6.4 2.26669 6.2 2.33336C3.73333 3.13336 2 5.40002 2 8.06669C2 10.7334 3.73333 13 6.2 13.8ZM8.53327 11.8666C8.53327 11.9999 8.39994 12.1333 8.2666 12.1333H7.73327C7.59994 12.1333 7.4666 11.9999 7.4666 11.8666V11.0666C6.39993 10.9333 5.8666 10.3333 5.6666 9.4666C5.6666 9.33327 5.73327 9.19994 5.8666 9.19994H6.4666C6.59994 9.19994 6.6666 9.2666 6.73327 9.39994C6.8666 9.8666 7.13327 10.2666 7.99994 10.2666C8.6666 10.2666 9.13327 9.93327 9.13327 9.39994C9.13327 8.8666 8.8666 8.6666 7.93327 8.53327C6.53327 8.33327 5.8666 7.93327 5.8666 6.79994C5.8666 5.93327 6.53327 5.2666 7.4666 5.13327V4.33327C7.4666 4.19994 7.59994 4.0666 7.73327 4.0666H8.2666C8.39994 4.0666 8.53327 4.19994 8.53327 4.33327V5.13327C9.33327 5.2666 9.8666 5.73327 9.99994 6.4666C9.99994 6.59994 9.93327 6.73327 9.79994 6.73327H9.2666C9.13327 6.73327 9.0666 6.6666 8.99994 6.53327C8.8666 6.0666 8.53327 5.8666 7.93327 5.8666C7.2666 5.8666 6.93327 6.19994 6.93327 6.6666C6.93327 7.13327 7.13327 7.39994 8.13327 7.53327C9.53327 7.73327 10.1999 8.13327 10.1999 9.2666C10.1999 10.1333 9.53327 10.8666 8.53327 11.0666V11.8666ZM9.4666 13.5334C9.4666 13.7334 9.59994 13.8667 9.79994 13.8001C12.2666 13.0001 13.9999 10.7334 13.9999 8.06673C13.9999 5.40007 12.1999 3.1334 9.79994 2.3334C9.59994 2.3334 9.4666 2.40007 9.4666 2.60007V3.06673C9.4666 3.20006 9.53327 3.3334 9.6666 3.40006C11.5333 4.06673 12.9333 5.9334 12.9333 8.06673C12.9333 10.2001 11.5999 12.0001 9.6666 12.7334C9.53327 12.8001 9.4666 12.9334 9.4666 13.0667V13.5334Z" fill="black"/>
</svg>
