<svg width="100%" height="100%" viewBox="0 0 20 20" fill="none" xmlns="http://www.w3.org/2000/svg">
    <path d="M10 20C15.5228 20 20 15.5228 20 10C20 4.47715 15.5228 0 10 0C4.47715 0 0 4.47715 0 10C0 15.5228 4.47715 20 10 20Z"
          fill="#2775CA"
          class="icon-background"
    />
    <path fill-rule="evenodd" clip-rule="evenodd"
          d="M8.16667 16.9167C8.16667 17.1667 8 17.25 7.75 17.25C4.66667 16.25 2.5 13.4167 2.5 10.0834C2.5 6.75003 4.66667 3.9167 7.75 2.9167C8 2.83336 8.16667 3.00003 8.16667 3.25003V3.83336C8.16667 4.00003 8.08333 4.1667 7.91667 4.25003C5.5 5.1667 3.83333 7.4167 3.83333 10.0834C3.83333 12.75 5.58333 15.0834 7.91667 15.9167C8.08333 16 8.16667 16.1667 8.16667 16.3334V16.9167ZM10.6666 14.8333C10.6666 14.9999 10.4999 15.1666 10.3333 15.1666H9.66659C9.49992 15.1666 9.33325 14.9999 9.33325 14.8333V13.8333C7.99992 13.6666 7.33325 12.9166 7.08325 11.8333C7.08325 11.6666 7.16659 11.4999 7.33325 11.4999H8.08325C8.24992 11.4999 8.33325 11.5833 8.41659 11.7499C8.58325 12.3333 8.91659 12.8333 9.99992 12.8333C10.8333 12.8333 11.4166 12.4166 11.4166 11.7499C11.4166 11.0833 11.0833 10.8333 9.91659 10.6666C8.16659 10.4166 7.33325 9.91659 7.33325 8.49992C7.33325 7.41659 8.16659 6.58325 9.33325 6.41659V5.41659C9.33325 5.24992 9.49992 5.08325 9.66659 5.08325H10.3333C10.4999 5.08325 10.6666 5.24992 10.6666 5.41659V6.41659C11.6666 6.58325 12.3333 7.16659 12.4999 8.08325C12.4999 8.24992 12.4166 8.41659 12.2499 8.41659H11.5833C11.4166 8.41659 11.3333 8.33325 11.2499 8.16659C11.0833 7.58325 10.6666 7.33325 9.91659 7.33325C9.08325 7.33325 8.66659 7.74992 8.66659 8.33325C8.66659 8.91659 8.91659 9.24992 10.1666 9.41659C11.9166 9.66659 12.7499 10.1666 12.7499 11.5833C12.7499 12.6666 11.9166 13.5833 10.6666 13.8333V14.8333ZM11.8333 16.9167C11.8333 17.1667 11.9999 17.3334 12.2499 17.2501C15.3333 16.2501 17.4999 13.4167 17.4999 10.0834C17.4999 6.75008 15.2499 3.91675 12.2499 2.91675C11.9999 2.91675 11.8333 3.00008 11.8333 3.25008V3.83341C11.8333 4.00008 11.9166 4.16675 12.0833 4.25008C14.4166 5.08341 16.1666 7.41675 16.1666 10.0834C16.1666 12.7501 14.4999 15.0001 12.0833 15.9167C11.9166 16.0001 11.8333 16.1667 11.8333 16.3334V16.9167Z"
          fill="white"
          class="icon-content"
    />
</svg>
