<svg width="16" height="17" viewBox="0 0 16 17" fill="none" xmlns="http://www.w3.org/2000/svg">
<g clip-path="url(#clip0)">
<path fill-rule="evenodd" clip-rule="evenodd" d="M13.8678 3.54937L13.356 4.05387C15.8875 6.78257 15.8875 10.9646 13.356 13.6933L13.8678 14.1978C16.6854 11.1871 16.6854 6.54848 13.8678 3.5376V3.54937Z" fill="#3A3A3A"/>
<path fill-rule="evenodd" clip-rule="evenodd" d="M3.10145 3.59308C5.87001 1.09781 10.1131 1.09781 12.8817 3.59308L13.3935 3.08858C10.3387 0.311619 5.6325 0.311619 2.57764 3.08858L3.10145 3.59308Z" fill="#3A3A3A"/>
<path fill-rule="evenodd" clip-rule="evenodd" d="M2.62355 13.6984C0.095066 10.9704 0.095066 6.7921 2.62355 4.06407L2.11168 3.55957C-0.705846 6.57045 -0.705846 11.2089 2.11168 14.2198L2.62355 13.6984Z" fill="#3A3A3A"/>
<path fill-rule="evenodd" clip-rule="evenodd" d="M12.8765 14.1643C10.108 16.6596 5.8649 16.6596 3.09635 14.1643L2.58447 14.6688C5.63934 17.4458 10.3455 17.4458 13.4004 14.6688L12.8765 14.1643Z" fill="#3A3A3A"/>
<path fill-rule="evenodd" clip-rule="evenodd" d="M9.54958 7.5939C9.54109 8.60403 7.94344 8.48113 7.43554 8.48113L7.4505 6.70162C7.9584 6.70162 9.55841 6.54337 9.54958 7.5939ZM9.94393 10.3566C9.93465 11.461 8.02002 11.3347 7.40986 11.3347L7.42633 9.37509C8.03647 9.37678 9.95363 9.20337 9.94393 10.3566ZM11.2317 7.1949C11.1383 6.141 10.2209 5.78746 9.05777 5.67971L9.06998 4.22681H8.17008L8.15811 5.65109C7.92121 5.65109 7.67919 5.65109 7.4388 5.65951L7.45084 4.22681H6.55606L6.54378 5.68813H5.97111H4.72012L4.71212 6.63933C4.71212 6.63933 5.37692 6.62755 5.3666 6.63933C5.616 6.61222 5.84055 6.78496 5.87462 7.02991L5.84099 11.0317C5.82862 11.2053 5.67634 11.3371 5.50071 11.3265C5.49969 11.3265 5.49867 11.3265 5.49764 11.3263C5.50949 11.3364 4.84317 11.3263 4.84317 11.3263L4.65529 12.3886H5.82788H6.47213L6.45965 13.8735H7.35955L7.37185 12.4105H8.09108L8.07884 13.8668H8.98045L8.99278 12.3987C10.5138 12.3078 11.5771 11.9375 11.7218 10.5317C11.8387 9.40035 11.3044 8.89528 10.4454 8.69157C10.9708 8.42894 11.3036 7.96596 11.2317 7.1949Z" fill="#3A3A3A"/>
</g>
<defs>
<clipPath id="clip0">
<rect y="0.919922" width="16" height="16" fill="white"/>
</clipPath>
</defs>
</svg>
