<svg width="100%" height="100%" viewBox="0 0 16 16" fill="none" xmlns="http://www.w3.org/2000/svg">
<path d="M8 16C12.4183 16 16 12.4183 16 8C16 3.58172 12.4183 0 8 0C3.58172 0 0 3.58172 0 8C0 12.4183 3.58172 16 8 16Z" fill="white"/>
<g clip-path="url(#clip0)">
<path fill-rule="evenodd" clip-rule="evenodd" d="M11.6671 4.64359L11.3472 4.9589C12.9294 6.66434 12.9294 9.27809 11.3472 10.9835L11.6671 11.2988C13.428 9.41715 13.428 6.51803 11.6671 4.63623V4.64359Z" fill="#3A3A3A"/>
<path fill-rule="evenodd" clip-rule="evenodd" d="M4.93798 4.67073C6.66833 3.11118 9.32026 3.11118 11.0506 4.67073L11.3705 4.35541C9.46124 2.61981 6.51988 2.61981 4.6106 4.35541L4.93798 4.67073Z" fill="#3A3A3A"/>
<path fill-rule="evenodd" clip-rule="evenodd" d="M4.63941 10.9867C3.05911 9.28168 3.05911 6.67023 4.63941 4.96522L4.31949 4.6499C2.55854 6.5317 2.55854 9.43071 4.31949 11.3125L4.63941 10.9867Z" fill="#3A3A3A"/>
<path fill-rule="evenodd" clip-rule="evenodd" d="M11.0475 11.2776C9.31719 12.8371 6.66526 12.8371 4.93491 11.2776L4.61499 11.5929C6.52428 13.3285 9.46563 13.3285 11.3749 11.5929L11.0475 11.2776Z" fill="#3A3A3A"/>
<path fill-rule="evenodd" clip-rule="evenodd" d="M8.96846 7.17133C8.96315 7.80266 7.96462 7.72585 7.64719 7.72585L7.65653 6.61365C7.97397 6.61365 8.97398 6.51475 8.96846 7.17133ZM9.21493 8.89802C9.20913 9.58827 8.01248 9.50935 7.63113 9.50935L7.64142 8.28457C8.02276 8.28563 9.22099 8.17725 9.21493 8.89802ZM10.0198 6.92195C9.96142 6.26327 9.38806 6.0423 8.66108 5.97496L8.66871 5.06689H8.10627L8.09879 5.95707C7.95072 5.95707 7.79946 5.95707 7.64922 5.96233L7.65675 5.06689H7.09751L7.08983 5.98022H6.73192H5.95004L5.94505 6.57472C5.94505 6.57472 6.36055 6.56736 6.35409 6.57472C6.50997 6.55778 6.65031 6.66574 6.67161 6.81884L6.65059 9.31996C6.64286 9.42844 6.54768 9.51083 6.43791 9.5042C6.43727 9.5042 6.43664 9.5042 6.436 9.50409C6.4434 9.51041 6.02695 9.50409 6.02695 9.50409L5.90952 10.168H6.6424H7.04505L7.03725 11.0961H7.59969L7.60737 10.1817H8.0569L8.04925 11.0919H8.61275L8.62046 10.1744C9.57112 10.1175 10.2356 9.88605 10.3261 9.00745C10.3992 8.30036 10.0652 7.98469 9.52833 7.85737C9.85673 7.69323 10.0647 7.40387 10.0198 6.92195Z" fill="#3A3A3A"/>
</g>
<defs>
<clipPath id="clip0">
<rect x="3" y="3" width="10" height="10" fill="white"/>
</clipPath>
</defs>
</svg>
