<svg width="100%" height="100%" viewBox="0 0 20 20" fill="none" xmlns="http://www.w3.org/2000/svg">
<path d="M10 20C15.5228 20 20 15.5228 20 10C20 4.47715 15.5228 0 10 0C4.47715 0 0 4.47715 0 10C0 15.5228 4.47715 20 10 20Z" fill="white"/>
<path fill-rule="evenodd" clip-rule="evenodd" d="M9.74833 15.5C9.61333 15.486 9.47832 15.4735 9.34332 15.4575C8.61745 15.3709 7.91647 15.139 7.28224 14.7755C7.27274 14.7705 7.26424 14.763 7.24574 14.7505C8.34878 13.9255 9.44682 13.1055 10.5509 12.2805L10.8834 12.604C11.0684 12.785 11.2544 12.964 11.4359 13.1475C11.4809 13.1925 11.5134 13.192 11.5659 13.165C12.1158 12.8905 12.5856 12.479 12.93 11.97L12.9835 11.891C12.999 11.909 13.0135 11.9235 13.0255 11.9395C13.409 12.4505 13.792 12.9615 14.177 13.471C14.2105 13.515 14.2065 13.541 14.171 13.581C13.2795 14.594 12.1714 15.218 10.8359 15.4315C10.6679 15.4585 10.4974 15.4685 10.3279 15.487C10.3054 15.4895 10.2829 15.4955 10.2609 15.5H9.74833V15.5ZM10.2334 4.5C10.3264 4.5095 10.4199 4.5195 10.5134 4.528C11.3014 4.603 12.0384 4.8365 12.7249 5.228C12.7349 5.234 12.7434 5.241 12.7599 5.253L9.40082 7.6625C9.35632 7.6205 9.31332 7.5805 9.27082 7.539C9.03481 7.309 8.7978 7.0795 8.56329 6.8475C8.52579 6.8105 8.49729 6.8065 8.45029 6.83C7.8907 7.10615 7.41318 7.52401 7.06524 8.042L7.01523 8.117L5.78119 6.473C5.90569 6.341 6.0207 6.2095 6.1452 6.088C6.95673 5.2965 7.92027 4.793 9.03681 4.5905C9.25182 4.5515 9.47132 4.5385 9.68883 4.513C9.71333 4.5105 9.73783 4.5045 9.76184 4.5H10.2329H10.2334ZM5.22917 7.267L7.72676 10.541L7.22274 11.058C7.09724 11.1865 6.97273 11.3165 6.84473 11.443C6.80873 11.479 6.80723 11.5065 6.82923 11.5505C7.10499 12.1102 7.52274 12.5877 8.04077 12.9355C8.05827 12.9465 8.07577 12.958 8.09227 12.9705C8.09527 12.9725 8.09677 12.9775 8.10577 12.9945L6.47522 14.2175C5.50018 13.378 4.86766 12.3435 4.61365 11.089C4.34164 9.746 4.56215 8.477 5.22967 7.267H5.22917ZM12.3169 9.452L12.7759 8.9755C12.904 8.8425 13.03 8.708 13.161 8.5785C13.202 8.538 13.2015 8.5075 13.1775 8.4595C12.8999 7.8931 12.4772 7.41038 11.9524 7.0605C11.9339 7.048 11.9159 7.0345 11.8844 7.012L13.524 5.782C14.4525 6.577 15.069 7.557 15.352 8.7395C15.7056 10.2155 15.3905 11.6755 14.7785 12.7035L12.3169 9.452Z" fill="black"/>
</svg>
