<svg width="100%" height="100%" viewBox="0 0 24 24" fill="none" xmlns="http://www.w3.org/2000/svg">
    <path d="M12 22C17.5228 22 22 17.5228 22 12C22 6.47715 17.5228 2 12 2C6.47715 2 2 6.47715 2 12C2 17.5228 6.47715 22 12 22Z"
          fill="#3A3A3A"
          class="icon-background"
    />
    <path fill-rule="evenodd" clip-rule="evenodd"
          d="M11.7712 17C11.6485 16.9873 11.5257 16.9759 11.403 16.9614C10.7431 16.8827 10.1059 16.6718 9.52931 16.3414C9.52068 16.3368 9.51295 16.33 9.49613 16.3186C10.4989 15.5686 11.4971 14.8232 12.5008 14.0732L12.8031 14.3673C12.9713 14.5318 13.1404 14.6945 13.3054 14.8614C13.3463 14.9023 13.3758 14.9018 13.4235 14.8773C13.9234 14.6278 14.3505 14.2536 14.6636 13.7909L14.7122 13.7191C14.7263 13.7355 14.7395 13.7486 14.7504 13.7632C15.0991 14.2277 15.4473 14.6923 15.7973 15.1555C15.8277 15.1955 15.8241 15.2191 15.7918 15.2555C14.9813 16.1764 13.974 16.7436 12.7599 16.9377C12.6072 16.9623 12.4521 16.9714 12.2981 16.9882C12.2776 16.9905 12.2571 16.9959 12.2371 17H11.7712ZM12.2121 7C12.2967 7.00864 12.3817 7.01773 12.4667 7.02545C13.1831 7.09364 13.8531 7.30591 14.4772 7.66182C14.4863 7.66727 14.494 7.67364 14.509 7.68455L11.4553 9.875C11.4148 9.83682 11.3757 9.80045 11.3371 9.76273C11.1226 9.55364 10.9071 9.345 10.6939 9.13409C10.6598 9.10045 10.6339 9.09682 10.5912 9.11818C10.0825 9.36923 9.64834 9.7491 9.33203 10.22L9.28658 10.2882L8.16472 8.79364C8.2779 8.67364 8.38245 8.55409 8.49564 8.44364C9.23339 7.72409 10.1093 7.26636 11.1244 7.08227C11.3198 7.04682 11.5194 7.035 11.7171 7.01182C11.7394 7.00955 11.7617 7.00409 11.7835 7H12.2117H12.2121ZM7.66288 9.51545L9.93342 12.4918L9.47522 12.9618C9.36113 13.0786 9.24794 13.1968 9.13157 13.3118C9.09884 13.3445 9.09748 13.3695 9.11748 13.4095C9.36818 13.9183 9.74795 14.3525 10.2189 14.6686C10.2348 14.6786 10.2507 14.6891 10.2657 14.7005C10.2684 14.7023 10.2698 14.7068 10.278 14.7223L8.79565 15.8341C7.90925 15.0709 7.33423 14.1305 7.10332 12.99C6.85603 11.7691 7.0565 10.6155 7.66334 9.51545H7.66288ZM14.1063 11.5018L14.5236 11.0686C14.64 10.9477 14.7545 10.8255 14.8736 10.7077C14.9109 10.6709 14.9104 10.6432 14.8886 10.5995C14.6363 10.0846 14.252 9.6458 13.7749 9.32773C13.7581 9.31636 13.7417 9.30409 13.7131 9.28364L15.2036 8.16545C16.0477 8.88818 16.6082 9.77909 16.8655 10.8541C17.1869 12.1959 16.9005 13.5232 16.3441 14.4577L14.1063 11.5018Z"
          fill="white"
          class="icon-content"
    />
</svg>
