<svg width="16" height="16" viewBox="0 0 16 16" fill="none" xmlns="http://www.w3.org/2000/svg">
    <g clip-path="url(#clip0)">
        <path fill-rule="evenodd" clip-rule="evenodd"
              d="M7.63408 16C7.43771 15.9796 7.24134 15.9615 7.04497 15.9382C5.98916 15.8123 4.96955 15.4749 4.04704 14.9462C4.03322 14.9389 4.02086 14.928 3.99395 14.9098C5.59837 13.7098 7.19552 12.5171 8.8014 11.3171L9.28505 11.7876C9.55415 12.0509 9.82471 12.3113 10.0887 12.5782C10.1542 12.6436 10.2014 12.6429 10.2778 12.6036C11.0776 12.2044 11.7609 11.6058 12.2619 10.8655L12.3397 10.7505C12.3623 10.7767 12.3833 10.7978 12.4008 10.8211C12.9586 11.5644 13.5158 12.3076 14.0758 13.0487C14.1245 13.1127 14.1187 13.1505 14.067 13.2087C12.7703 14.6822 11.1586 15.5898 9.21596 15.9004C8.97158 15.9396 8.72358 15.9542 8.47702 15.9811C8.44429 15.9847 8.41156 15.9935 8.37956 16H7.63408ZM8.33956 0C8.47484 0.0138182 8.61084 0.0283638 8.74685 0.0407274C9.89307 0.149818 10.9651 0.489454 11.9637 1.05891C11.9782 1.06764 11.9906 1.07782 12.0146 1.09527L7.12861 4.6C7.06388 4.53891 7.00133 4.48073 6.93951 4.42036C6.59622 4.08582 6.25148 3.752 5.91038 3.41455C5.85583 3.36073 5.81438 3.35491 5.74601 3.38909C4.93207 3.79076 4.23749 4.39855 3.73139 5.152L3.65866 5.26109L1.86369 2.86982C2.04479 2.67782 2.21206 2.48655 2.39316 2.30982C3.57357 1.15855 4.97507 0.426182 6.59913 0.131637C6.91187 0.0749093 7.23116 0.056 7.54753 0.0189091C7.58317 0.0152727 7.61881 0.00654545 7.65372 0H8.33956ZM1.06075 4.02473L4.69361 8.78691L3.96049 9.53891C3.77794 9.72582 3.59684 9.91491 3.41065 10.0989C3.35829 10.1513 3.35611 10.1913 3.38811 10.2553C3.78922 11.0693 4.39685 11.764 5.15035 12.2698C5.17581 12.2858 5.20126 12.3025 5.22527 12.3207C5.22963 12.3236 5.23181 12.3309 5.2449 12.3556L2.87318 14.1345C1.45495 12.9135 0.534912 11.4087 0.165444 9.584C-0.230207 7.63055 0.0898046 5.78473 1.06075 4.02473ZM11.3702 7.20291L12.0379 6.50982C12.2241 6.31636 12.4073 6.12073 12.5979 5.93236C12.6575 5.87345 12.6568 5.82909 12.6219 5.75927C12.2182 4.93542 11.6034 4.23328 10.84 3.72436C10.8131 3.70618 10.7869 3.68655 10.7411 3.65382L13.1259 1.86473C14.4765 3.02109 15.3733 4.44655 15.7849 6.16655C16.2991 8.31346 15.8409 10.4371 14.9507 11.9324L11.3702 7.20291Z"
              fill="#3A3A3A"/>
    </g>
    <defs>
        <clipPath id="clip0">
            <rect width="16" height="16" fill="white"/>
        </clipPath>
    </defs>
</svg>
