<svg viewBox="0 0 26 26" fill="none" xmlns="http://www.w3.org/2000/svg">
  <circle cx="13" cy="13" r="13" fill="#F5F0F6"/>
  <path d="M18.6876 17.9312L14.4892 7.7808C14.2524 7.256 13.9004 7 13.4364 7H13.0652C12.6012 7 12.2492 7.256 12.0124 7.7808L10.1852 12.2032H8.8028C8.39 12.2064 8.054 12.5392 8.0508 12.9552V12.9648C8.054 13.3776 8.39 13.7136 8.8028 13.7168H9.5452L7.8012 17.9312C7.7692 18.024 7.75 18.12 7.75 18.2192C7.75 18.456 7.8236 18.6416 7.9548 18.7856C8.086 18.9296 8.2748 19 8.5116 19C8.6684 18.9968 8.8188 18.9488 8.9436 18.856C9.078 18.7632 9.1708 18.6288 9.2444 18.4752L11.1644 13.7136H12.4956C12.9084 13.7104 13.2444 13.3776 13.2476 12.9616V12.9424C13.2444 12.5296 12.9084 12.1936 12.4956 12.1904H11.7852L13.2508 8.5392L17.2444 18.472C17.318 18.6256 17.4108 18.76 17.5452 18.8528C17.67 18.9456 17.8236 18.9936 17.9772 18.9968C18.214 18.9968 18.3996 18.9264 18.534 18.7824C18.6684 18.6384 18.7388 18.4528 18.7388 18.216C18.742 18.12 18.726 18.0208 18.6876 17.9312Z" fill="url(#paint0_linear_108_967)"/>
  <defs>
    <linearGradient id="paint0_linear_108_967" x1="17.342" y1="9.23546" x2="8.57996" y2="15.9868" gradientUnits="userSpaceOnUse">
      <stop stop-color="#B6509E"/>
      <stop offset="1" stop-color="#2EBAC6"/>
    </linearGradient>
  </defs>
</svg>
