<svg viewBox="0.55 0 54.59 10.001" fill="none" xmlns="http://www.w3.org/2000/svg">
  <path fill-rule="evenodd" clip-rule="evenodd" d="M22.7548 9.34998L19.2675 0.889982C19.2399 0.812914 19.2253 0.731823 19.2241 0.649982C19.2174 0.477143 19.2784 0.308492 19.3942 0.179982C19.4541 0.118615 19.5264 0.0707951 19.6064 0.0397452C19.6863 0.0086953 19.772 -0.00486346 19.8576 -1.75207e-05C19.9871 0.00181547 20.1129 0.0437381 20.2177 0.119982C20.3267 0.201642 20.4119 0.310978 20.4644 0.436649L23.7817 8.71332L27.0989 0.436649C27.1524 0.310583 27.2387 0.201206 27.349 0.119982C27.4537 0.0437381 27.5795 0.00181547 27.709 -1.75207e-05C27.7941 -0.00438148 27.8791 0.00941301 27.9585 0.0404487C28.0378 0.0714843 28.1096 0.11905 28.1691 0.179982C28.2861 0.307972 28.3484 0.476682 28.3425 0.649982C28.3414 0.731823 28.3267 0.812914 28.2992 0.889982L24.8118 9.34998C24.7521 9.53581 24.6359 9.69835 24.4792 9.81489C24.3226 9.93143 24.1335 9.99614 23.9384 9.99998H23.6283C23.4331 9.99614 23.244 9.93143 23.0874 9.81489C22.9308 9.69835 22.8145 9.53581 22.7548 9.34998ZM29.8262 9.73994C29.7671 9.68047 29.7207 9.60963 29.6898 9.53172C29.6588 9.4538 29.644 9.37041 29.6462 9.2866V0.719938C29.6441 0.634142 29.6589 0.548769 29.6898 0.468697C29.7207 0.388625 29.767 0.315422 29.8262 0.253271C29.8843 0.191824 29.9547 0.143407 30.0329 0.111226C30.1111 0.0790457 30.1952 0.063836 30.2797 0.0666044H35.9474C36.0272 0.0646605 36.1065 0.0797033 36.1801 0.110736C36.2537 0.141768 36.3198 0.188081 36.3741 0.246604C36.432 0.301422 36.4779 0.367639 36.5089 0.441076C36.5398 0.514513 36.5553 0.593574 36.5542 0.673271C36.5565 0.75215 36.5415 0.830582 36.5104 0.903113C36.4794 0.975645 36.4328 1.04054 36.3741 1.09327C36.3175 1.14924 36.2503 1.19339 36.1765 1.22315C36.1027 1.25291 36.0236 1.26768 35.944 1.2666H30.9331V4.3866H35.4406C35.5204 4.38466 35.5998 4.3997 35.6733 4.43074C35.7469 4.46177 35.8131 4.50808 35.8674 4.5666C35.9246 4.62191 35.9701 4.68822 36.001 4.76154C36.0319 4.83486 36.0477 4.91369 36.0474 4.99327C36.0497 5.07215 36.0348 5.15058 36.0037 5.22311C35.9726 5.29565 35.9261 5.36054 35.8674 5.41327C35.8112 5.46884 35.7445 5.51276 35.6713 5.5425C35.5981 5.57225 35.5197 5.58724 35.4406 5.5866H30.9331V8.71994H35.944C36.0244 8.71752 36.1044 8.73233 36.1786 8.76337C36.2528 8.79442 36.3194 8.84099 36.3741 8.89994C36.4324 8.95514 36.4785 9.02189 36.5095 9.09594C36.5405 9.16998 36.5557 9.24968 36.5542 9.32994C36.5565 9.40882 36.5415 9.48725 36.5104 9.55978C36.4794 9.63231 36.4328 9.6972 36.3741 9.74994C36.3172 9.80531 36.2499 9.84884 36.1761 9.87802C36.1023 9.9072 36.0234 9.92145 35.944 9.91994H30.2797C30.1954 9.92607 30.1108 9.91306 30.0323 9.88189C29.9538 9.85072 29.8834 9.80219 29.8262 9.73994ZM16.5671 0.65L20.0578 9.11H20.0611C20.0917 9.18616 20.1053 9.26805 20.1011 9.35C20.1088 9.52238 20.049 9.69097 19.9344 9.82C19.8742 9.88181 19.8013 9.92988 19.7207 9.96095C19.6401 9.99201 19.5538 10.0053 19.4677 10C19.3381 9.99817 19.2123 9.95624 19.1076 9.88C18.9986 9.79834 18.9134 9.689 18.8609 9.56333L15.5436 1.28667L14.3167 4.32667H14.9102C15.0755 4.32841 15.2336 4.3951 15.3502 4.51234C15.4669 4.62958 15.5327 4.78797 15.5336 4.95333V4.97C15.5327 5.13536 15.4669 5.29375 15.3502 5.41099C15.2336 5.52823 15.0755 5.59492 14.9102 5.59667H13.8133L12.2163 9.56333C12.1638 9.689 12.0786 9.79834 11.9696 9.88C11.8649 9.95624 11.7391 9.99817 11.6095 10C11.5239 10.0048 11.4383 9.99129 11.3583 9.96024C11.2784 9.92919 11.206 9.88137 11.1461 9.82C11.0303 9.69149 10.9693 9.52284 10.9761 9.35C10.9772 9.26816 10.9919 9.18707 11.0194 9.11L12.4664 5.59667H11.8496C11.6842 5.59492 11.5261 5.52823 11.4095 5.41099C11.2929 5.29375 11.227 5.13536 11.2261 4.97V4.96333C11.227 4.79797 11.2929 4.63958 11.4095 4.52234C11.5261 4.4051 11.6842 4.33841 11.8496 4.33667H12.9998L14.5168 0.65C14.5765 0.464168 14.6927 0.301629 14.8494 0.185092C15.006 0.0685551 15.1951 0.00384388 15.3902 0H15.697C15.8916 0.00453027 16.0799 0.0695577 16.2359 0.186046C16.3918 0.302534 16.5076 0.464697 16.5671 0.65ZM9.63582 9.11L6.14851 0.65C6.08861 0.463638 5.97183 0.300719 5.81456 0.184133C5.65729 0.0675477 5.46744 0.0031543 5.27168 0H4.96495C4.76977 0.00384388 4.58066 0.0685551 4.42406 0.185092C4.26745 0.301629 4.15117 0.464168 4.09146 0.65L2.57451 4.33667H1.4243C1.25891 4.33841 1.10085 4.4051 0.984211 4.52234C0.867573 4.63958 0.801715 4.79797 0.80085 4.96333V4.97C0.801715 5.13536 0.867573 5.29375 0.984211 5.41099C1.10085 5.52823 1.25891 5.59492 1.4243 5.59667H2.04108L0.594145 9.11C0.566581 9.18707 0.551936 9.26816 0.550803 9.35C0.544022 9.52284 0.605035 9.69149 0.720835 9.82C0.78073 9.88137 0.853085 9.92919 0.933024 9.96024C1.01296 9.99129 1.09863 10.0048 1.18425 10C1.3138 9.99817 1.43959 9.95624 1.54432 9.88C1.65334 9.79834 1.73852 9.689 1.79103 9.56333L3.388 5.59667H4.49153C4.6575 5.59579 4.81641 5.52949 4.93377 5.41215C5.05112 5.29482 5.11744 5.13593 5.11832 4.97V4.95333C5.11744 4.7874 5.05112 4.62851 4.93377 4.51118C4.81641 4.39385 4.6575 4.32754 4.49153 4.32667H3.90142L5.11832 1.28667L8.4356 9.56333C8.48811 9.689 8.57329 9.79834 8.68231 9.88C8.78704 9.95624 8.91283 9.99817 9.04238 10C9.12855 10.0053 9.21486 9.99201 9.29541 9.96095C9.37596 9.92988 9.44886 9.88181 9.50913 9.82C9.62372 9.69097 9.68352 9.52238 9.67583 9.35C9.68003 9.26805 9.66638 9.18616 9.63582 9.11ZM54.5116 9.60531H49.4525C49.0209 9.60531 48.7797 9.3641 48.7797 9.00863C48.7797 8.72933 48.8622 8.57699 49.1732 8.26595L52.036 5.37142C53.2294 4.15267 53.5214 3.68295 53.5214 2.95296C53.5214 2.08334 52.8485 1.44857 51.9281 1.44857C51.0267 1.44857 50.4047 1.91195 50.0873 2.80697C49.9603 3.09261 49.7953 3.264 49.4462 3.264C49.0463 3.264 48.8178 3.01644 48.8178 2.66097C48.8178 2.55306 48.8305 2.45785 48.8558 2.36263C49.0526 1.39779 50.1127 0.274254 51.9345 0.274254C53.6864 0.274254 54.9242 1.35336 54.9242 2.8641C54.9242 3.90511 54.4354 4.64144 52.893 6.18392L50.7094 8.37386V8.4056H54.5116C54.8988 8.4056 55.14 8.64681 55.14 9.00863C55.14 9.3641 54.8988 9.60531 54.5116 9.60531ZM44.4963 9.02767C44.3185 9.51009 44.0266 9.72591 43.5568 9.72591C43.0681 9.72591 42.8015 9.52279 42.611 9.02767L40.6306 3.81625C40.5861 3.69564 40.5544 3.56234 40.5544 3.43539C40.5544 3.05453 40.8464 2.80697 41.2463 2.80697C41.5637 2.80697 41.7795 2.97836 41.8937 3.34652L43.5505 8.26595H43.5759L45.2326 3.33382C45.3469 2.97836 45.5627 2.80697 45.8737 2.80697C46.2673 2.80697 46.5466 3.06722 46.5466 3.42904C46.5466 3.54964 46.5212 3.68295 46.4767 3.7972L44.4963 9.02767Z" fill="url(#paint0_linear_4038_12293)"></path>
  <defs>
    <linearGradient id="paint0_linear_4038_12293" x1="48.1994" y1="1.8623" x2="45.0589" y2="16.2841" gradientUnits="userSpaceOnUse">
      <stop stop-color="#B6509E"></stop>
      <stop offset="1" stop-color="#2EBAC6"></stop>
    </linearGradient>
  </defs>
</svg>
