<svg viewBox="0.366 0 54.774 10.001" fill="none" xmlns="http://www.w3.org/2000/svg">
  <path fill-rule="evenodd" clip-rule="evenodd" d="M22.5707 9.34998L19.0834 0.889982C19.0558 0.812914 19.0412 0.731823 19.0401 0.649982C19.0333 0.477143 19.0943 0.308492 19.2101 0.179982C19.27 0.118615 19.3423 0.0707951 19.4223 0.0397452C19.5022 0.0086953 19.5879 -0.00486346 19.6735 -1.75209e-05C19.8031 0.00181547 19.9288 0.0437381 20.0336 0.119982C20.1426 0.201642 20.2278 0.310978 20.2803 0.436649L23.5976 8.71332L26.9149 0.436649C26.9683 0.310583 27.0547 0.201206 27.1649 0.119982C27.2696 0.0437381 27.3954 0.00181547 27.525 -1.75209e-05C27.61 -0.00438148 27.6951 0.00941301 27.7744 0.0404487C27.8537 0.0714843 27.9255 0.11905 27.9851 0.179982C28.1021 0.307972 28.1643 0.476682 28.1584 0.649982C28.1573 0.731823 28.1426 0.812914 28.1151 0.889982L24.6278 9.34998C24.5681 9.53581 24.4518 9.69835 24.2952 9.81489C24.1386 9.93143 23.9495 9.99614 23.7543 9.99998H23.4442C23.249 9.99614 23.0599 9.93143 22.9033 9.81489C22.7467 9.69835 22.6304 9.53581 22.5707 9.34998ZM29.6422 9.73994C29.5831 9.68047 29.5366 9.60963 29.5057 9.53172C29.4747 9.4538 29.4599 9.37041 29.4621 9.2866V0.719938C29.46 0.634142 29.4748 0.548769 29.5057 0.468697C29.5366 0.388625 29.583 0.315422 29.6422 0.253271C29.7002 0.191824 29.7706 0.143407 29.8488 0.111226C29.927 0.0790457 30.0111 0.063836 30.0956 0.0666044H35.7633C35.8431 0.0646605 35.9225 0.0797033 35.996 0.110736C36.0696 0.141768 36.1357 0.188081 36.19 0.246604C36.2479 0.301422 36.2938 0.367639 36.3248 0.441076C36.3558 0.514513 36.3712 0.593574 36.3701 0.673271C36.3724 0.75215 36.3575 0.830582 36.3264 0.903113C36.2953 0.975645 36.2488 1.04054 36.19 1.09327C36.1334 1.14924 36.0663 1.19339 35.9924 1.22315C35.9186 1.25291 35.8396 1.26768 35.76 1.2666H30.749V4.3866H35.2565C35.3364 4.38466 35.4157 4.3997 35.4893 4.43074C35.5628 4.46177 35.629 4.50808 35.6833 4.5666C35.7405 4.62191 35.786 4.68822 35.8169 4.76154C35.8479 4.83486 35.8636 4.91369 35.8633 4.99327C35.8656 5.07215 35.8507 5.15058 35.8196 5.22311C35.7885 5.29565 35.742 5.36054 35.6833 5.41327C35.6271 5.46884 35.5604 5.51276 35.4872 5.5425C35.414 5.57225 35.3356 5.58724 35.2565 5.5866H30.749V8.71994H35.76C35.8403 8.71752 35.9203 8.73233 35.9945 8.76337C36.0687 8.79442 36.1354 8.84099 36.19 8.89994C36.2483 8.95514 36.2945 9.02189 36.3255 9.09594C36.3565 9.16998 36.3717 9.24968 36.3701 9.32994C36.3724 9.40882 36.3575 9.48725 36.3264 9.55978C36.2953 9.63231 36.2488 9.6972 36.19 9.74994C36.1332 9.80531 36.0659 9.84884 35.992 9.87802C35.9182 9.9072 35.8393 9.92145 35.76 9.91994H30.0956C30.0113 9.92607 29.9268 9.91306 29.8482 9.88189C29.7697 9.85072 29.6993 9.80219 29.6422 9.73994ZM19.8737 9.11L16.3831 0.65C16.3235 0.464697 16.2077 0.302534 16.0518 0.186046C15.8959 0.0695577 15.7075 0.00453027 15.5129 -1.16415e-10H15.2062C15.011 0.00384388 14.8219 0.0685551 14.6653 0.185092C14.5087 0.301629 14.3924 0.464168 14.3327 0.65L12.8157 4.33667H11.6655C11.5001 4.33841 11.3421 4.4051 11.2254 4.52234C11.1088 4.63958 11.0429 4.79797 11.0421 4.96333V4.97C11.0429 5.13536 11.1088 5.29375 11.2254 5.41099C11.3421 5.52823 11.5001 5.59492 11.6655 5.59667H12.2823L10.8354 9.11C10.8078 9.18707 10.7931 9.26816 10.792 9.35C10.7852 9.52284 10.8462 9.69149 10.962 9.82C11.0219 9.88137 11.0943 9.92919 11.1742 9.96024C11.2542 9.99129 11.3398 10.0048 11.4255 10C11.555 9.99817 11.6808 9.95624 11.7855 9.88C11.8946 9.79834 11.9797 9.689 12.0322 9.56333L13.6292 5.59667H14.7261C14.8915 5.59492 15.0495 5.52823 15.1662 5.41099C15.2828 5.29375 15.3487 5.13536 15.3495 4.97V4.95333C15.3487 4.78797 15.2828 4.62958 15.1662 4.51234C15.0495 4.3951 14.8915 4.32841 14.7261 4.32667H14.1326L15.3595 1.28667L18.6768 9.56333C18.7293 9.689 18.8145 9.79834 18.9235 9.88C19.0283 9.95624 19.154 9.99817 19.2836 10C19.3698 10.0053 19.4561 9.99201 19.5366 9.96095C19.6172 9.92988 19.6901 9.88181 19.7503 9.82C19.8649 9.69097 19.9247 9.52238 19.917 9.35C19.9212 9.26805 19.9076 9.18616 19.877 9.11H19.8737ZM9.45174 9.11L5.96443 0.65C5.90453 0.463638 5.78774 0.300719 5.63047 0.184133C5.4732 0.0675477 5.28335 0.0031543 5.0876 -1.16415e-10H4.78087C4.58569 0.00384388 4.39658 0.0685551 4.23997 0.185092C4.08337 0.301629 3.96709 0.464168 3.90738 0.65L2.39043 4.33667H1.24022C1.07483 4.33841 0.916767 4.4051 0.800129 4.52234C0.683491 4.63958 0.617633 4.79797 0.616768 4.96333V4.97C0.617633 5.13536 0.683491 5.29375 0.800129 5.41099C0.916767 5.52823 1.07483 5.59492 1.24022 5.59667H1.857L0.410063 9.11C0.382498 9.18707 0.367854 9.26816 0.366721 9.35C0.35994 9.52284 0.420953 9.69149 0.536753 9.82C0.596648 9.88137 0.669003 9.92919 0.748942 9.96024C0.828882 9.99129 0.914549 10.0048 1.00017 10C1.12971 9.99817 1.2555 9.95624 1.36024 9.88C1.46926 9.79834 1.55444 9.689 1.60695 9.56333L3.20391 5.59667H4.30745C4.47341 5.59579 4.63233 5.52949 4.74969 5.41215C4.86704 5.29482 4.93336 5.13593 4.93423 4.97V4.95333C4.93336 4.7874 4.86704 4.62851 4.74969 4.51118C4.63233 4.39385 4.47341 4.32754 4.30745 4.32667H3.71734L4.93423 1.28667L8.25151 9.56333C8.30402 9.689 8.38921 9.79834 8.49823 9.88C8.60296 9.95624 8.72875 9.99817 8.85829 10C8.94446 10.0053 9.03077 9.99201 9.11133 9.96095C9.19188 9.92988 9.26478 9.88181 9.32505 9.82C9.43964 9.69097 9.49944 9.52238 9.49174 9.35C9.49595 9.26805 9.4823 9.18616 9.45174 9.11ZM55.14 7.04083C55.14 8.65314 53.7308 9.75128 51.8202 9.75128C50.3158 9.75128 49.2938 9.1673 48.786 8.24054C48.6591 8.00568 48.6019 7.78351 48.6019 7.55499C48.6019 7.17413 48.8432 6.92657 49.2431 6.92657C49.5477 6.92657 49.7255 7.06622 49.8715 7.3963C50.1825 8.12628 50.7792 8.56427 51.8265 8.56427C52.9374 8.56427 53.6864 7.9295 53.6928 7.04083C53.6991 5.99347 52.9437 5.40948 51.7186 5.40948H51.1093C50.7474 5.40948 50.5189 5.18732 50.5189 4.85724C50.5189 4.52716 50.7474 4.30499 51.1093 4.30499H51.6806C52.7279 4.30499 53.4389 3.68292 53.4389 2.83234C53.4389 1.98175 52.893 1.41681 51.8075 1.41681C50.8807 1.41681 50.3602 1.80402 50.0429 2.56573C49.8905 2.9339 49.7382 3.0672 49.4017 3.0672C49.0018 3.0672 48.786 2.83868 48.786 2.45782C48.786 2.21027 48.8368 2.00079 48.9574 1.76593C49.4144 0.858215 50.411 0.24884 51.8075 0.24884C53.6737 0.24884 54.8226 1.27081 54.8226 2.63556C54.8226 3.77814 54.0165 4.55255 52.893 4.78741V4.81915C54.2387 4.93976 55.14 5.75861 55.14 7.04083ZM44.3122 9.00226C44.1345 9.48468 43.8425 9.7005 43.3727 9.7005C42.884 9.7005 42.6174 9.49738 42.4269 9.00226L40.4465 3.79083C40.402 3.67023 40.3703 3.53693 40.3703 3.40997C40.3703 3.02911 40.6623 2.78156 41.0622 2.78156C41.3796 2.78156 41.5954 2.95294 41.7097 3.32111L43.3664 8.24054H43.3918L45.0485 3.30841C45.1628 2.95294 45.3786 2.78156 45.6896 2.78156C46.0832 2.78156 46.3625 3.04181 46.3625 3.40363C46.3625 3.52423 46.3371 3.65753 46.2927 3.77179L44.3122 9.00226Z" fill="url(#paint0_linear_4038_9725)"></path>
  <defs>
    <linearGradient id="paint0_linear_4038_9725" x1="48.176" y1="1.8623" x2="45.0451" y2="16.2884" gradientUnits="userSpaceOnUse">
      <stop stop-color="#B6509E"></stop>
      <stop offset="1" stop-color="#2EBAC6"></stop>
    </linearGradient>
  </defs>
</svg>
