<svg viewBox="0 0 26 26" fill="none" xmlns="http://www.w3.org/2000/svg">
  <circle cx="13" cy="13" r="13" fill="#F9EEFC"/>
  <path fill-rule="evenodd" clip-rule="evenodd" d="M12.9242 7.75C15.3144 7.75 17.6541 8.88642 19.9309 11.0531L19.9394 11.0614C20.1681 11.2901 20.3182 11.625 20.3182 11.9726C20.3182 12.0371 20.3054 12.0986 20.2823 12.1548C20.2479 12.4158 20.1358 12.6907 19.8994 12.8987C19.7614 13.0303 19.6233 13.1582 19.4848 13.2822C19.4767 13.2934 19.4679 13.3042 19.4586 13.3148C19.4219 13.3567 19.3794 13.3905 19.3334 13.4163C17.3252 15.1733 15.2727 16.1243 13.1767 16.1974C10.988 16.2737 8.8367 15.3901 6.72865 13.6317C6.67209 13.6834 6.61638 13.7363 6.56084 13.7918C6.55634 13.7963 6.55175 13.8007 6.54707 13.805C6.43695 13.9067 6.41304 14.1044 6.54868 14.2511L6.55236 14.2546C8.71908 16.3164 10.8349 17.2943 12.9003 17.2943C14.9656 17.2943 17.0814 16.3164 19.2482 14.2546C19.4393 14.0726 19.7418 14.0801 19.9237 14.2713C20.1056 14.4625 20.0981 14.7649 19.9069 14.9468C17.6301 17.1135 15.2904 18.2499 12.9003 18.2499C10.5271 18.2499 8.2038 17.1296 5.94231 14.993C5.89585 14.9618 5.84655 14.9175 5.80528 14.8557L5.7963 14.8417C5.3688 14.3222 5.40686 13.5646 5.89124 13.11C6.06491 12.9369 6.23725 12.7885 6.39623 12.6523C6.40309 12.6458 6.41011 12.6395 6.41726 12.6335C8.53864 10.7719 10.7041 9.79817 12.9121 9.79817C15.0077 9.79817 17.0648 10.6752 19.0823 12.3557C19.1373 12.3045 19.1923 12.2526 19.2474 12.2C19.2536 12.194 19.26 12.1883 19.2665 12.1827C19.3 12.154 19.3386 12.0891 19.3386 11.9721C19.3386 11.9406 19.3416 11.9097 19.3475 11.8799C19.331 11.8273 19.3022 11.7769 19.2668 11.7403C17.1019 9.68185 14.9879 8.7056 12.9242 8.7056C10.8589 8.7056 8.74306 9.68346 6.57634 11.7453C6.38518 11.9272 6.08275 11.9198 5.90083 11.7286C5.71892 11.5374 5.72642 11.235 5.91758 11.0531C8.19442 8.88642 10.5341 7.75 12.9242 7.75ZM18.3545 12.9941C16.4964 11.4775 14.6858 10.7538 12.9121 10.7538C11.1365 10.7538 9.32385 11.4792 7.46354 12.9993C9.40476 14.5842 11.2945 15.3068 13.1434 15.2424C14.8449 15.183 16.5805 14.4547 18.3545 12.9941ZM11.9563 12.9996C11.9563 12.4719 12.3841 12.044 12.9119 12.044C13.4396 12.044 13.8675 12.4719 13.8675 12.9996C13.8675 13.5274 13.4396 13.9552 12.9119 13.9552C12.3841 13.9552 11.9563 13.5274 11.9563 12.9996ZM12.9119 11.0884C11.8564 11.0884 11.0007 11.9441 11.0007 12.9996C11.0007 14.0552 11.8564 14.9108 12.9119 14.9108C13.9674 14.9108 14.8231 14.0552 14.8231 12.9996C14.8231 11.9441 13.9674 11.0884 12.9119 11.0884Z" fill="url(#paint0_linear_108_967)"/>
  <defs>
    <linearGradient id="paint0_linear_108_967" x1="5.5" y1="13" x2="20.3182" y2="13" gradientUnits="userSpaceOnUse">
      <stop stop-color="#F154DB"/>
      <stop offset="1" stop-color="#974EEA"/>
    </linearGradient>
  </defs>
</svg>
