<svg viewBox="0.361 0 58.779 14" fill="none" xmlns="http://www.w3.org/2000/svg">
  <path fill-rule="evenodd" clip-rule="evenodd" d="M19.6025 4.40411C16.5667 1.51522 13.4472 0 10.2603 0C7.07342 0 3.95389 1.51522 0.918105 4.40411C0.663224 4.64666 0.653226 5.0499 0.895774 5.30479C1.13832 5.55967 1.54157 5.56966 1.79645 5.32712C4.68541 2.57795 7.50655 1.27414 10.2603 1.27414C13.0118 1.27414 15.8306 2.5758 18.717 5.32034C18.7643 5.36916 18.8027 5.43644 18.8246 5.50652C18.8168 5.5463 18.8128 5.58742 18.8128 5.62947C18.8128 5.7855 18.7613 5.87205 18.7167 5.91026C18.708 5.91771 18.6995 5.9254 18.6912 5.9333C18.6178 6.00347 18.5444 6.07269 18.471 6.14098C15.781 3.90026 13.0382 2.7309 10.2442 2.7309C7.30007 2.7309 4.41284 4.02925 1.58433 6.5113C1.57479 6.51934 1.56544 6.52769 1.5563 6.53636C1.34432 6.71807 1.11454 6.91584 0.882979 7.14666C0.237144 7.75284 0.186401 8.76295 0.756396 9.45559C0.76026 9.46182 0.764249 9.46803 0.768366 9.4742C0.82339 9.55673 0.889122 9.61577 0.951068 9.65731C3.9664 12.5062 7.06416 13.9999 10.2283 13.9999C13.4152 13.9999 16.5348 12.4846 19.5706 9.59574C19.8254 9.35319 19.8354 8.94995 19.5929 8.69507C19.3503 8.44019 18.9471 8.43019 18.6922 8.67274C15.8033 11.4219 12.9821 12.7257 10.2283 12.7257C7.47457 12.7257 4.65344 11.4219 1.76448 8.67274L1.75957 8.66812C1.57871 8.47256 1.6106 8.20892 1.75742 8.0734C1.76366 8.06764 1.76978 8.06175 1.77578 8.05575C1.84983 7.9817 1.92412 7.91126 1.99953 7.84228C4.81026 10.1868 7.67871 11.3649 10.5969 11.2632C13.3916 11.1657 16.1283 9.89779 18.8059 7.55509C18.8672 7.52072 18.9238 7.47555 18.9728 7.41975C18.9852 7.40564 18.9969 7.39114 19.0078 7.3763C19.1923 7.21093 19.3766 7.04046 19.5606 6.86492C19.8758 6.5876 20.0252 6.22102 20.071 5.87303C20.1019 5.79817 20.119 5.71612 20.119 5.6301C20.119 5.16669 19.9188 4.72013 19.6138 4.41514L19.6025 4.40411ZM10.2442 4.00504C12.6091 4.00504 15.0232 4.97005 17.5007 6.99219C15.1354 8.93954 12.8212 9.9107 10.5525 9.9898C8.08738 10.0758 5.56767 9.11224 2.97939 6.999C5.45979 4.97221 7.87664 4.00504 10.2442 4.00504ZM10.2438 5.72538C9.54015 5.72538 8.9697 6.29583 8.9697 6.99951C8.9697 7.7032 9.54015 8.27365 10.2438 8.27365C10.9475 8.27365 11.518 7.7032 11.518 6.99951C11.518 6.29583 10.9475 5.72538 10.2438 5.72538ZM7.69556 6.99951C7.69556 5.59214 8.83646 4.45124 10.2438 4.45124C11.6512 4.45124 12.7921 5.59214 12.7921 6.99951C12.7921 8.40689 11.6512 9.54779 10.2438 9.54779C8.83646 9.54779 7.69556 8.40689 7.69556 6.99951ZM55.4451 2.06323C53.4126 2.06323 51.7501 3.72575 51.7501 5.75823V7.19118V11.1415C51.7501 11.5813 52.1066 11.9378 52.5464 11.9378C52.9862 11.9378 53.3427 11.5813 53.3427 11.1415V7.98752H57.5474V11.1415C57.5474 11.5813 57.9039 11.9378 58.3437 11.9378C58.7835 11.9378 59.1401 11.5813 59.1401 11.1415V7.19118V5.75823C59.1401 3.72576 57.4775 2.06323 55.4451 2.06323ZM57.5474 6.39484H53.3427V5.75823C53.3427 4.60537 54.2922 3.6559 55.4451 3.6559C56.5979 3.6559 57.5474 4.60536 57.5474 5.75823V6.39484ZM24.4195 5.75844C24.4195 3.72596 26.0821 2.06344 28.1145 2.06344C30.147 2.06344 31.8096 3.72596 31.8096 5.75844V11.1417C31.8096 11.5815 31.453 11.938 31.0132 11.938C30.5734 11.938 30.2169 11.5815 30.2169 11.1417V8.01942H26.0122V11.1417C26.0122 11.5815 25.6557 11.938 25.2159 11.938C24.7761 11.938 24.4195 11.5815 24.4195 11.1417V7.23676L24.4194 7.22308L24.4195 7.2094V5.75844ZM30.2169 5.75844V6.42674H26.0122V5.75844C26.0122 4.60557 26.9617 3.65611 28.1145 3.65611C29.2674 3.65611 30.2169 4.60557 30.2169 5.75844ZM46.3347 2.06323C44.3022 2.06323 42.6397 3.72576 42.6397 5.75823V11.1415C42.6397 11.5813 42.9962 11.9378 43.436 11.9378C43.8758 11.9378 44.2323 11.5813 44.2323 11.1415V5.75823C44.2323 4.60536 45.1818 3.6559 46.3347 3.6559C47.4875 3.6559 48.437 4.60536 48.437 5.75823V11.1415C48.437 11.5813 48.7935 11.9378 49.2333 11.9378C49.6731 11.9378 50.0297 11.5813 50.0297 11.1415V5.75823C50.0297 3.72575 48.3671 2.06323 46.3347 2.06323ZM40.1235 2.06323C40.5633 2.06323 40.9198 2.41976 40.9198 2.85957V8.2428C40.9198 10.2753 39.2573 11.9378 37.2248 11.9378C35.1924 11.9378 33.5298 10.2753 33.5298 8.2428V7.06422C33.5298 6.62442 33.8864 6.26789 34.3262 6.26789C34.766 6.26789 35.1225 6.62442 35.1225 7.06422V8.2428C35.1225 9.39567 36.072 10.3451 37.2248 10.3451C38.3777 10.3451 39.3272 9.39567 39.3272 8.2428V2.85957C39.3272 2.41976 39.6837 2.06323 40.1235 2.06323Z" fill="url(#paint0_linear_4038_12233)"></path>
  <defs>
    <linearGradient id="paint0_linear_4038_12233" x1="0.361328" y1="6.99993" x2="59.1401" y2="6.99993" gradientUnits="userSpaceOnUse">
      <stop stop-color="#F154DB"></stop>
      <stop offset="1" stop-color="#974EEA"></stop>
    </linearGradient>
  </defs>
</svg>
