<svg viewBox="0 0 72.616 10" fill="none" xmlns="http://www.w3.org/2000/svg">
  <path fill-rule="evenodd" clip-rule="evenodd" d="M1.52827 2.16927V10H0V0.893113C0 0.15781 0.84003 -0.261341 1.42755 0.18079L8.68684 5.64372C8.91065 5.81214 9.04228 6.07595 9.04228 6.35604V10H7.51401V6.67379L1.52827 2.16927ZM17.7025 2.16927V10H19.2308V0.893113C19.2308 0.15781 18.3907 -0.261341 17.8032 0.18079L10.5439 5.64372C10.3201 5.81214 10.1885 6.07595 10.1885 6.35604V10H11.7168V6.67379L17.7025 2.16927ZM25.6932 2.11777C25.6932 1.51461 26.1822 1.02565 26.7853 1.02565C27.1754 1.02565 27.5358 1.23365 27.7309 1.57134L30.0723 5.62301L32.4666 1.54023C32.6535 1.22148 32.9954 1.02565 33.3649 1.02565C33.9401 1.02565 34.4063 1.4919 34.4063 2.06704V8.97437H32.9879V3.04263L31.0645 6.16881C30.8466 6.52286 30.4607 6.73855 30.045 6.73855C29.6284 6.73855 29.2417 6.52189 29.0241 6.16655L27.1116 3.04263V8.97437H25.6932V2.11777ZM39.893 1.74694C40.0667 1.3114 40.4882 1.02565 40.9571 1.02565C41.4262 1.02565 41.8479 1.31171 42.0214 1.74759L44.8974 8.97437H43.4396L42.5446 6.93574H39.28L38.3851 8.97437H37.0117L39.893 1.74694ZM42.0493 5.63428L40.9123 2.66515L39.7697 5.63428H42.0493ZM52.1948 1.21469L48.7354 4.6934V1.73486C48.7354 1.34318 48.4179 1.02565 48.0262 1.02565C47.6345 1.02565 47.317 1.34318 47.317 1.73486V8.97437H48.7354V5.15539L52.5629 8.97437H54.4034L50.3565 4.85678L53.1019 2.12081C53.5068 1.71728 53.221 1.02565 52.6494 1.02565C52.4787 1.02565 52.3151 1.09369 52.1948 1.21469ZM58.007 8.97437C57.2989 8.97437 56.7249 8.40038 56.7249 7.69232V2.30771C56.7249 1.59965 57.2989 1.02565 58.007 1.02565H61.6831C62.044 1.02565 62.3366 1.31826 62.3366 1.6792C62.3366 2.04014 62.044 2.33275 61.6831 2.33275H58.1489V4.25394H61.3735C61.7345 4.25394 62.0271 4.54655 62.0271 4.90749C62.0271 5.26843 61.7345 5.56104 61.3735 5.56104H58.1489V7.7245H61.7117C62.0568 7.7245 62.3366 8.00429 62.3366 8.34944C62.3366 8.69458 62.0568 8.97437 61.7117 8.97437H58.007ZM71.8564 4.05112C71.9202 3.81825 71.9521 3.57411 71.9521 3.3187C71.9521 3.02197 71.9165 2.7553 71.8452 2.51867C71.7739 2.27828 71.6819 2.08109 71.5694 1.9271C71.4605 1.76934 71.3217 1.63225 71.1529 1.51581C70.9877 1.39938 70.8264 1.31111 70.6688 1.25102C70.5149 1.19092 70.3367 1.14397 70.1341 1.11016C69.9352 1.0726 69.7645 1.05007 69.6219 1.04256C69.483 1.03129 69.3292 1.02565 69.1603 1.02565H67.0371C66.329 1.02565 65.755 1.59965 65.755 2.30771V8.97437H67.1734V5.92725H68.5299L70.7701 8.97437H72.6163L70.2016 5.68498C70.5168 5.59108 70.7889 5.45962 71.0178 5.2906C71.2504 5.12158 71.4324 4.93003 71.5637 4.71593C71.6988 4.50184 71.7964 4.28024 71.8564 4.05112ZM67.1734 4.62016V2.32711H68.7438C69.8958 2.32711 70.4718 2.70083 70.4718 3.44828C70.4718 3.64735 70.4324 3.82013 70.3536 3.96661C70.2785 4.11309 70.181 4.22765 70.0609 4.31029C69.9446 4.39292 69.7945 4.45865 69.6106 4.50748C69.4267 4.55255 69.2485 4.5826 69.0759 4.59762C68.9033 4.61264 68.7044 4.62016 68.4793 4.62016H67.1734Z" fill="url(#paint0_linear_4038_7371)"></path>
  <defs>
    <linearGradient id="paint0_linear_4038_7371" x1="0" y1="0" x2="2.70294" y2="19.6278" gradientUnits="userSpaceOnUse">
      <stop stop-color="#2DC1B1"></stop>
      <stop offset="1" stop-color="#139D8D"></stop>
    </linearGradient>
  </defs>
</svg>
