<svg viewBox="0 0 26 26" fill="none" xmlns="http://www.w3.org/2000/svg">
  <circle cx="13" cy="13" r="13" fill="#D1DEFC"/>
  <g clip-path="url(#clip0_2_6)">
    <path d="M7.63477 15.7845V19.5272C7.63477 19.7576 7.83057 19.8533 7.89148 19.875C7.9524 19.9011 8.1569 19.9576 8.33964 19.7881L11.1828 17.0671C11.4249 16.8354 11.6586 16.5919 11.8342 16.3069C11.9168 16.173 11.9511 16.0975 11.9511 16.0975C12.1251 15.7454 12.1251 15.4064 11.9554 15.0673C11.7031 14.563 11.0591 14.0501 10.0888 13.5632L8.43101 14.4848C7.93935 14.763 7.63477 15.2542 7.63477 15.7845Z" fill="#00378A"/>
    <path d="M6 7.46008V11.3854C6 11.8766 6.33069 12.3113 6.80062 12.4504C8.40183 12.9111 11.1909 13.9022 11.8653 15.3585C11.9523 15.5497 12.0045 15.7367 12.022 15.9323C12.4702 15.1194 12.6747 14.1848 12.5789 13.2372C12.4483 11.894 11.7347 10.6725 10.6209 9.89437L6.64832 7.12537C6.5787 7.0732 6.49603 7.04712 6.41336 7.04712C6.34373 7.04712 6.28282 7.06016 6.21756 7.09494C6.08702 7.16883 6 7.30359 6 7.46008Z" fill="#1859F2"/>
    <path d="M18.2094 15.7845V19.5272C18.2094 19.7576 18.0136 19.8533 17.9526 19.875C17.8918 19.9011 17.6872 19.9576 17.5045 19.7881L14.5952 17.0039C14.3971 16.8143 14.208 16.6138 14.0588 16.3841C13.9407 16.2023 13.8931 16.0975 13.8931 16.0975C13.719 15.7454 13.719 15.4064 13.8886 15.0673C14.141 14.563 14.7851 14.0501 15.7553 13.5632L17.4131 14.4848C17.9092 14.763 18.2094 15.2542 18.2094 15.7845Z" fill="#00378A"/>
    <path d="M19.8467 7.45984V11.3851C19.8467 11.8763 19.5159 12.311 19.046 12.4501C17.4448 12.9109 14.6558 13.902 13.9814 15.3582C13.8943 15.5495 13.842 15.7364 13.8247 15.932C13.3765 15.1192 13.172 14.1846 13.2677 13.2369C13.3982 11.8937 14.1118 10.6722 15.2258 9.89412L19.1984 7.12512C19.268 7.07296 19.3506 7.04688 19.4333 7.04688C19.5029 7.04688 19.5639 7.05992 19.629 7.09469C19.7596 7.16859 19.8467 7.30335 19.8467 7.45984Z" fill="#1859F2"/>
  </g>
  <defs>
    <clipPath id="clip0_2_6">
      <rect width="14" height="13" fill="white" transform="translate(6 7)"/>
    </clipPath>
  </defs>
</svg>
