<svg viewBox="0 0 64 14" fill="none" xmlns="http://www.w3.org/2000/svg">
  <g clip-path="url(#clip0_2463_10336)">
    <path d="M1.57104 8.97675V12.5886C1.57104 12.8109 1.75922 12.9032 1.81776 12.9242C1.8763 12.9493 2.07284 13.0039 2.24846 12.8403L4.98082 10.2145C5.2135 9.99093 5.43808 9.75589 5.60682 9.48089C5.68626 9.3516 5.71919 9.27878 5.71919 9.27878C5.88648 8.939 5.88648 8.61178 5.72333 8.28458C5.4809 7.79798 4.86197 7.30297 3.92942 6.83313L2.33628 7.72248C1.86377 7.99095 1.57104 8.46498 1.57104 8.97675Z" fill="#00378A"/>
    <path d="M0 0.943687V4.73172C0 5.20574 0.317805 5.62523 0.769424 5.75946C2.30824 6.20414 4.98864 7.16057 5.6368 8.56588C5.72036 8.75045 5.77056 8.93085 5.7874 9.11961C6.21807 8.33515 6.41458 7.43325 6.3226 6.51875C6.19711 5.22252 5.51129 4.04374 4.44087 3.29285L0.623064 0.620676C0.556151 0.570336 0.476702 0.545166 0.397255 0.545166C0.330342 0.545166 0.2718 0.557751 0.20908 0.591311C0.0836264 0.662625 0 0.792671 0 0.943687Z" fill="#1859F2"/>
    <path d="M11.7336 8.97675V12.5886C11.7336 12.8109 11.5455 12.9032 11.4869 12.9242C11.4284 12.9493 11.2317 13.0039 11.0562 12.8403L8.26021 10.1534C8.0699 9.97051 7.88815 9.77706 7.74479 9.55537C7.63125 9.37989 7.58548 9.27878 7.58548 9.27878C7.41819 8.939 7.41819 8.61178 7.58119 8.28458C7.82377 7.79798 8.4427 7.30297 9.37508 6.83313L10.9683 7.72248C11.4451 7.99095 11.7336 8.46498 11.7336 8.97675Z" fill="#00378A"/>
    <path d="M13.3072 0.943077V4.7311C13.3072 5.20512 12.9894 5.62461 12.5377 5.75885C10.9989 6.20352 8.3186 7.15997 7.67044 8.56527C7.58671 8.74985 7.53651 8.93023 7.51984 9.11901C7.08915 8.33456 6.89264 7.43265 6.98462 6.51814C7.10997 5.2219 7.79579 4.04314 8.86637 3.29225L12.6842 0.620064C12.7511 0.569725 12.8305 0.544556 12.9099 0.544556C12.9768 0.544556 13.0354 0.557141 13.098 0.5907C13.2235 0.662014 13.3072 0.792058 13.3072 0.943077Z" fill="#1859F2"/>
    <path d="M19.7842 1.76172H21.2458L24.6331 9.59636H24.7335L28.1207 1.76172H29.5571V10.7945H28.4907V3.60591H28.3904L25.2855 10.7945H24.056L20.9509 3.60591H20.8505V10.7945H19.7842V1.76172Z" fill="#141414"/>
    <path d="M30.7349 7.60171C30.7349 5.44389 32.046 4.25208 33.9905 4.25208C35.9287 4.25208 37.246 5.44389 37.246 7.60171C37.246 9.75326 35.9287 10.9451 33.9905 10.9451C32.046 10.9451 30.7349 9.75326 30.7349 7.60171ZM31.8514 7.60171C31.8514 9.18244 32.7109 10.0418 33.9905 10.0418C35.2638 10.0418 36.1232 9.18244 36.1232 7.60171C36.1232 6.01471 35.2638 5.16162 33.9905 5.16162C32.7109 5.16162 31.8514 6.01471 31.8514 7.60171Z" fill="#141414"/>
    <path d="M38.3003 4.40253H39.3667V5.16781H39.467C39.6867 4.71617 40.0881 4.37744 41.0477 4.37744H41.9385V5.3309H41.0728C39.8748 5.3309 39.4043 5.98953 39.4043 7.28799V10.7944H38.3003V4.40253Z" fill="#141414"/>
    <path d="M42.7878 13.3036V4.40257H43.8668V5.28703H43.9671C44.4438 4.54685 45.2217 4.2583 46.1249 4.2583C47.7871 4.2583 49.0606 5.38739 49.0606 7.60166C49.0606 9.80966 47.7871 10.9388 46.1249 10.9388C45.2404 10.9388 44.4689 10.6565 43.9922 9.94766H43.8918V13.3036H42.7878ZM43.8542 7.60166C43.8542 9.15103 44.6822 10.0229 45.8991 10.0229C47.1222 10.0229 47.9504 9.15103 47.9504 7.60166C47.9504 6.04603 47.1222 5.17412 45.8991 5.17412C44.6822 5.17412 43.8542 6.04603 43.8542 7.60166Z" fill="#141414"/>
    <path d="M50.1177 1.76172H51.2217V5.19291H51.322C51.7799 4.51545 52.5389 4.25827 53.4359 4.25827C54.9226 4.25827 55.8635 5.011 55.8635 6.57291V10.7945H54.7595V6.67954C54.7595 5.63827 54.1886 5.18036 53.1913 5.18036C52.0999 5.18036 51.2217 5.82645 51.2217 7.22527V10.7945H50.1177V1.76172Z" fill="#141414"/>
    <path d="M56.8564 7.60171C56.8564 5.44389 58.1674 4.25208 60.1119 4.25208C62.0503 4.25208 63.3675 5.44389 63.3675 7.60171C63.3675 9.75326 62.0503 10.9451 60.1119 10.9451C58.1674 10.9451 56.8564 9.75326 56.8564 7.60171ZM57.973 7.60171C57.973 9.18244 58.8323 10.0418 60.1119 10.0418C61.3854 10.0418 62.2446 9.18244 62.2446 7.60171C62.2446 6.01471 61.3854 5.16162 60.1119 5.16162C58.8323 5.16162 57.973 6.01471 57.973 7.60171Z" fill="#141414"/>
  </g>
  <defs>
    <clipPath id="clip0_2463_10336">
      <rect width="64" height="12.9091" fill="white" transform="translate(0 0.545532)"/>
    </clipPath>
  </defs>
</svg>
