<svg width="32" height="32" viewBox="0 0 32 32" fill="none" xmlns="http://www.w3.org/2000/svg">
  <g clip-path="url(#clip0_15322_4492)">
    <path
      d="M16 29C23.1797 29 29 23.1797 29 16C29 8.8203 23.1797 3 16 3C8.8203 3 3 8.8203 3 16C3 23.1797 8.8203 29 16 29Z"
      fill="white" />
    <path
      d="M5.92503 19.2757C5.58183 18.2175 5.40503 17.1125 5.40503 15.9997L5.48303 15.9399L15.701 15.9607L16 15.9997L5.92503 19.2757Z"
      fill="url(#paint0_radial_15322_4492)" />
    <path
      d="M19.2734 26.075C17.6822 26.5924 15.9948 26.725 14.3412 26.4624L14.2632 26.3428L15.9636 16.1352L15.9974 16L19.2708 26.075H19.2734Z"
      fill="url(#paint1_radial_15322_4492)" />
    <path
      d="M26.5951 16C26.5951 17.1128 26.4209 18.2152 26.0777 19.2734H25.8489L16.0573 16.039L16.0027 16H26.5977L26.5951 16Z"
      fill="url(#paint2_radial_15322_4492)" />
    <path
      d="M7.43042 9.77288C7.75542 9.32308 8.11682 8.90188 8.50942 8.50928L8.59782 8.53528L15.9506 15.9167L16 15.9999L7.43042 9.77288Z"
      fill="url(#paint3_radial_15322_4492)" />
    <path
      d="M8.50952 8.5094C10.0903 6.9286 12.1339 5.886 14.3439 5.5376L14.3907 5.6156L16.0001 15.831V16L8.50952 8.5094Z"
      fill="url(#paint4_radial_15322_4492)" />
    <path d="M14.3413 5.5375C15.9923 5.2749 17.6823 5.4075 19.2735 5.9249L16.0001 15.9999L14.3413 5.5375Z"
      fill="url(#paint5_radial_15322_4492)" />
    <path d="M5.40503 16C5.40503 14.8872 5.57923 13.7848 5.92243 12.7266L15.9974 16H5.40503Z"
      fill="url(#paint6_radial_15322_4492)" />
    <path d="M22.227 7.43018C24.0366 8.74578 25.3834 10.5996 26.075 12.7264L16 15.9998L22.227 7.43018Z"
      fill="url(#paint7_radial_15322_4492)" />
    <path d="M9.77302 24.5696C8.87342 23.917 8.08302 23.124 7.43042 22.227L16 16L9.77302 24.5696Z"
      fill="url(#paint8_radial_15322_4492)" />
    <path d="M14.3438 26.4624C13.7952 26.3766 13.2544 26.2466 12.7266 26.075L16 16L14.3438 26.4624Z"
      fill="url(#paint9_radial_15322_4492)" />
    <path d="M26.075 19.2734C25.3834 21.4002 24.0366 23.2566 22.227 24.5696L16 16L26.075 19.2734Z"
      fill="url(#paint10_radial_15322_4492)" />
  </g>
  <defs>
    <radialGradient id="paint0_radial_15322_4492" cx="0" cy="0" r="1" gradientUnits="userSpaceOnUse"
      gradientTransform="translate(16.2182 16.1465) rotate(180) scale(14.2236)">
      <stop stop-color="#6D28FF" />
      <stop offset="1" stop-color="#F7A7F9" />
    </radialGradient>
    <radialGradient id="paint1_radial_15322_4492" cx="0" cy="0" r="1" gradientUnits="userSpaceOnUse"
      gradientTransform="translate(16.0761 16.4153) rotate(90) scale(10.9307)">
      <stop stop-color="#FFCD6B" />
      <stop offset="1" stop-color="#EB5EDF" />
    </radialGradient>
    <radialGradient id="paint2_radial_15322_4492" cx="0" cy="0" r="1" gradientUnits="userSpaceOnUse"
      gradientTransform="translate(16.0001 16) scale(10.8394)">
      <stop stop-color="#A273FF" />
      <stop offset="0.5" stop-color="#9FAEFF" />
      <stop offset="1" stop-color="#AAF2E1" />
    </radialGradient>
    <radialGradient id="paint3_radial_15322_4492" cx="0" cy="0" r="1" gradientUnits="userSpaceOnUse"
      gradientTransform="translate(16 15.9973) scale(11.6064)">
      <stop stop-color="#FFD2B9" />
      <stop offset="0.3" stop-color="#C99BED" />
      <stop offset="1" stop-color="#0075FF" />
    </radialGradient>
    <radialGradient id="paint4_radial_15322_4492" cx="0" cy="0" r="1" gradientUnits="userSpaceOnUse"
      gradientTransform="translate(16.0334 16.403) rotate(-99) scale(10.9351)">
      <stop stop-color="#F7A7F9" />
      <stop offset="1" stop-color="#00DDFB" />
    </radialGradient>
    <radialGradient id="paint5_radial_15322_4492" cx="0" cy="0" r="1" gradientUnits="userSpaceOnUse"
      gradientTransform="translate(15.7086 16.0417) rotate(-90) scale(10.9218)">
      <stop stop-color="#A273FF" />
      <stop offset="0.5" stop-color="#9FAEFF" />
      <stop offset="1" stop-color="#AAF2E1" />
    </radialGradient>
    <radialGradient id="paint6_radial_15322_4492" cx="0" cy="0" r="1" gradientUnits="userSpaceOnUse"
      gradientTransform="translate(15.9921 15.9918) rotate(-180) scale(10.9439)">
      <stop stop-color="#FFF3D0" />
      <stop offset="1" stop-color="#FFC044" />
    </radialGradient>
    <radialGradient id="paint7_radial_15322_4492" cx="0" cy="0" r="1" gradientUnits="userSpaceOnUse"
      gradientTransform="translate(16.0761 16.415) rotate(90) scale(10.9307)">
      <stop stop-color="#FFCD6B" />
      <stop offset="1" stop-color="#EB5EDF" />
    </radialGradient>
    <radialGradient id="paint8_radial_15322_4492" cx="0" cy="0" r="1" gradientUnits="userSpaceOnUse"
      gradientTransform="translate(15.9143 15.7335) rotate(114.2) scale(11.7042)">
      <stop stop-color="#FFD2B9" />
      <stop offset="0.3" stop-color="#C99BED" />
      <stop offset="1" stop-color="#0075FF" />
    </radialGradient>
    <radialGradient id="paint9_radial_15322_4492" cx="0" cy="0" r="1" gradientUnits="userSpaceOnUse"
      gradientTransform="translate(16.5765 16.0727) rotate(90) scale(10.9572)">
      <stop stop-color="#D4FAFF" />
      <stop offset="1" stop-color="#00DDFB" />
    </radialGradient>
    <radialGradient id="paint10_radial_15322_4492" cx="0" cy="0" r="1" gradientUnits="userSpaceOnUse"
      gradientTransform="translate(16.0026 16.0013) rotate(36) scale(10.8913)">
      <stop stop-color="#0075FF" />
      <stop offset="1" stop-color="#00DDFB" />
    </radialGradient>
    <clipPath id="clip0_15322_4492">
      <rect width="26" height="26" fill="white" transform="translate(3 3)" />
    </clipPath>
  </defs>
</svg>
