<svg xmlns="http://www.w3.org/2000/svg" xmlns:xlink="http://www.w3.org/1999/xlink" width="2790" height="830" fill="none"
  xmlns:v="https://vecta.io/nano">
  <path
    d="M278.264 806.644l-271.5-315.8c-5.1-5.9 1.8-14.5 8.7-10.7l182.6 99.1c8.6 4.7 15.3 12.3 18.7 21.5l73.5 199c2.6 7.2-6.9 12.9-12 6.9z"
    fill="url(#A)" />
  <path
    d="M317.465 734.045l-74.9-370.3a21.93 21.93 0 0 1 3-16l130.7-204.6c2.6-4.1 9-1.9 8.5 3l-58.2 587.5c-.4 5.3-8 5.6-9.1.4z"
    fill="url(#B)" />
  <path
    d="M382.364 624.944l143.7-209.1c4.9-7.1 13.5-10.8 22.1-9.5l91.9 13.9c5.9.9 7.9 8.4 3.2 12.1l-253.7 199.4c-4.5 3.5-10.4-2-7.2-6.8z"
    fill="url(#C)" />
  <path
    d="M403.864 481.645l73.5-464.7c.8-4.8 7.4-5.4 9-.8l65.2 189.8c1.9 5.7 1.5 11.9-1.3 17.2l-137.7 261.4c-2.5 4.6-9.6 2.301-8.7-2.899z"
    fill="url(#D)" />
  <path
    d="M88.764 389.945l16.4-116.7c.7-4.8 7.3-5.7 9.2-1.2l101.4 236.4c2 4.8-3.9 9-7.7 5.4l-113.2-106.4c-4.7-4.5-7.1-11.1-6.1-17.5z"
    fill="url(#E)" />
  <path
    d="M903.94 618.263c-27.477-8.242-49.456-19.232-65.94-32.969l24.726-56.322c16.485 12.364 35.717 21.979 59.074 30.221 23.35 8.242 46.7 12.364 70.05 12.364 28.85 0 49.46-4.121 64.57-13.737 13.74-9.616 20.6-21.979 20.6-35.716 0-10.99-4.12-20.606-12.36-27.474s-17.86-12.364-30.22-16.485-28.85-8.242-49.45-13.737c-28.85-6.868-53.58-13.737-71.44-20.605s-34.339-17.859-46.702-32.969c-13.737-15.111-19.232-35.716-19.232-60.443 0-21.979 5.495-41.211 17.858-59.07 10.99-17.858 28.848-31.595 52.196-41.211 23.36-10.989 52.21-15.11 85.17-15.11 23.36 0 46.71 2.748 70.06 9.616 23.36 5.495 42.59 13.737 59.07 24.727l-21.98 56.321c-16.48-9.616-34.34-17.858-53.57-21.979-17.86-5.495-35.72-8.242-53.58-8.242-28.84 0-49.45 4.121-63.19 13.737-13.73 9.616-20.6 21.979-20.6 38.464 0 10.989 4.12 20.605 12.36 27.474s17.86 12.363 30.22 16.484c12.37 4.121 28.85 8.242 49.46 13.737 28.84 6.869 52.2 13.737 70.05 20.606 17.86 6.868 34.35 17.857 48.08 32.968 13.74 15.111 19.24 34.343 19.24 59.069 0 21.979-5.5 41.211-17.86 57.696-10.99 17.858-28.85 31.595-52.2 41.211-23.36 10.989-52.2 15.111-86.55 15.111-31.59 0-60.44-5.495-87.91-13.737zm572.83-362.661c24.73 10.989 43.96 27.474 57.7 48.079 13.73 20.606 20.6 45.333 20.6 74.181s-6.87 52.2-20.6 72.806c-13.74 20.605-31.6 37.089-57.7 48.079-24.73 10.99-53.57 16.485-87.92 16.485h-87.91v111.269h-71.44V239.117h159.35c32.97 0 63.19 5.495 87.92 16.485zm-19.23 178.581c16.48-13.737 24.72-31.595 24.72-56.321s-8.24-43.959-24.72-56.323c-16.49-13.737-39.84-20.605-71.43-20.605h-83.8v153.854h83.8c31.59-1.373 54.94-8.242 71.43-20.605zm387.38 103.03h-193.69l-38.47 89.291h-74.18l174.46-387.384h70.06l174.46 387.384h-75.55zm-23.35-57.695l-72.81-168.965-72.8 168.965zm442.34 146.986l-78.3-112.644h-15.11-87.92v112.644h-71.43V239.12h159.35c32.97 0 63.19 5.495 87.92 16.485 24.72 10.989 43.95 27.474 57.69 48.079s20.61 45.333 20.61 74.18-6.87 53.575-20.61 75.554c-13.74 20.606-34.34 37.089-60.44 46.705l89.29 127.754zm-26.1-306.335c-16.48-13.737-39.84-20.606-71.43-20.606h-83.8v153.855h83.8c31.59 0 54.95-6.868 71.43-20.606s24.73-32.969 24.73-57.695c0-23.353-8.25-42.585-24.73-54.948zm315.93 144.236l-61.81 63.189v98.907h-71.44V239.117h71.44v197.814l190.94-197.814h81.05l-162.1 173.087 173.09 214.297h-83.8z"
    fill="#000" />
  <defs>
    <linearGradient id="A" x1="-52.043" y1="13.703" x2="208.32" y2="834.97" xlink:href="#F">
      <stop stop-color="#f78e1e" />
      <stop offset="1" stop-color="#f2a529" />
    </linearGradient>
    <linearGradient id="B" x1="294.623" y1="-47.028" x2="346.471" y2="774.794" xlink:href="#F">
      <stop stop-color="#f78e1e" />
      <stop offset="1" stop-color="#f2a529" />
    </linearGradient>
    <linearGradient id="C" x1="461.429" y1="104.536" x2="531.975" y2="675.77" xlink:href="#F">
      <stop stop-color="#f78e1e" />
      <stop offset="1" stop-color="#f2a529" />
    </linearGradient>
    <linearGradient id="D" x1="443.675" y1="-7.585" x2="522.784" y2="805.064" xlink:href="#F">
      <stop stop-color="#f78e1e" />
      <stop offset="1" stop-color="#f2a529" />
    </linearGradient>
    <linearGradient id="E" x1="11.133" y1="145.156" x2="328.917" y2="811.708" xlink:href="#F">
      <stop stop-color="#f78e1e" />
      <stop offset="1" stop-color="#f2a529" />
    </linearGradient>
    <linearGradient id="F" gradientUnits="userSpaceOnUse" />
  </defs>
</svg>