<svg width="26" height="26" viewBox="0 0 26 26" fill="none" xmlns="http://www.w3.org/2000/svg">
  <circle cx="13" cy="13" r="13" fill="#FFE8E9"/>
  <path d="M14.3179 13.3647H19.3315C19.5243 13.3647 19.5632 13.1021 19.3878 13.0219L14.3182 10.713V5.67979C14.3182 5.49192 14.0669 5.43028 13.9802 5.59694L11.8961 9.60987L9.58656 8.54914C9.36561 8.4599 9.22992 8.63982 9.3049 8.79444L10.6821 11.6353H5.66853C5.4757 11.6353 5.43684 11.8979 5.6122 11.9781L10.6818 14.2871V19.3202C10.6818 19.5081 10.9331 19.5697 11.0198 19.4031L13.1039 15.3901L15.4134 16.4509C15.6344 16.5401 15.7701 16.3602 15.6951 16.2056L14.3179 13.3647Z" fill="url(#paint0_linear_108_967)"/>
  <defs>
    <linearGradient id="paint0_linear_108_967" x1="16.7838" y1="9.21426" x2="7.75661" y2="16.1382" gradientUnits="userSpaceOnUse">
      <stop stop-color="#FA43BD"/>
      <stop offset="1" stop-color="#FFA930"/>
    </linearGradient>
  </defs>
</svg>
