<svg width="52" height="16" viewBox="0 0 52 16" fill="none" xmlns="http://www.w3.org/2000/svg">
  <g clip-path="url(#clip0_9692_109703)">
    <path d="M29.6021 8.66111C29.6021 10.0544 28.7877 11.1401 27.3944 11.1401C25.965 11.1401 25.1868 10.0906 25.1868 8.66111C25.1868 7.2135 26.0192 6.164 27.3944 6.164C28.7877 6.164 29.6021 7.26779 29.6021 8.66111ZM30.9954 8.66111C30.9954 6.56209 29.7649 4.95162 27.5935 4.95162C26.6888 4.95162 25.7658 5.34973 25.2954 6.12781V5.06021H23.9202V15.1391H25.2954V11.2306C25.7296 11.9906 26.6163 12.3525 27.5211 12.3525C29.7831 12.3525 30.9954 10.6877 30.9954 8.66111ZM47.7115 8.80587L50.2809 12.2439H52L48.7066 7.86492L51.7285 5.06021H49.9371L46.8068 7.93732V2.05643H45.4134V12.2439H46.8068V9.63824L47.7115 8.80587ZM37.6856 8.66111C37.6856 10.0182 36.9436 11.1401 35.4781 11.1401C34.0485 11.1401 33.2704 10.0906 33.2704 8.66111C33.2704 7.24969 34.0666 6.164 35.4781 6.164C36.799 6.164 37.6856 7.14112 37.6856 8.66111ZM37.5771 5.06021V6.01924C37.0703 5.34973 36.1656 4.95162 35.3151 4.95162C33.198 4.95162 31.8771 6.45352 31.8771 8.66111C31.8771 10.8144 33.1437 12.3525 35.3333 12.3525C36.2019 12.3525 37.2152 11.9906 37.5771 11.2668V12.2439H38.9522V5.06021H37.5771ZM42.5725 5.38592C42.2649 5.62115 42.0297 5.96496 41.8669 6.45352V5.06021H40.4915V12.2439H41.8669V9.00492C41.8669 8.13636 42.0115 7.46683 42.2649 6.99636C42.5362 6.5078 42.9887 6.25447 43.6039 6.25447H44.6533V5.06021H43.7849C43.2781 5.06021 42.8801 5.16878 42.5725 5.38592ZM22.7259 9.52967C22.7259 7.46683 21.1878 6.99636 19.4326 6.5078C18.4736 6.29066 17.044 6.00114 17.044 4.82495C17.044 3.84783 18.0755 3.46784 19.0707 3.46784C20.1926 3.46784 21.0792 4.10116 21.2059 5.22307H22.6535C22.563 3.35927 21.0973 2.165 19.0888 2.165C17.3155 2.165 15.5784 3.03356 15.5422 4.80686C15.5422 6.77922 17.0621 7.30397 18.8174 7.77444C19.6497 8.0097 21.2602 8.38969 21.2602 9.54776C21.2602 10.6335 20.1021 11.0497 19.0164 11.0497C17.6774 11.0497 16.7726 10.2354 16.6821 8.89635H15.1984C15.2707 10.8687 16.5917 12.3525 18.9983 12.3525C20.8983 12.3525 22.7259 11.5744 22.7259 9.52967Z" fill="#101014"/>
    <path d="M8.12672 8.10879H12.7473C12.9251 8.10879 12.9609 7.86681 12.7992 7.7929L8.12701 5.66491V1.02625C8.12701 0.853107 7.89543 0.796293 7.81552 0.949894L5.89472 4.64828L3.76625 3.67069C3.56261 3.58845 3.43756 3.75426 3.50666 3.89676L4.77593 6.51495H0.15532C-0.0223973 6.51495 -0.0582135 6.75693 0.103406 6.83084L4.77564 8.95886V13.5975C4.77564 13.7706 5.00721 13.8274 5.08712 13.6739L7.00793 9.97546L9.1364 10.953C9.34004 11.0353 9.46509 10.8695 9.39598 10.727L8.12672 8.10879Z" fill="url(#paint0_linear_9692_109703)"/>
  </g>
  <defs>
    <linearGradient id="paint0_linear_9692_109703" x1="10.3994" y1="4.28368" x2="2.07973" y2="10.6649" gradientUnits="userSpaceOnUse">
      <stop stop-color="#FA43BD"/>
      <stop offset="1" stop-color="#FFA930"/>
    </linearGradient>
    <clipPath id="clip0_9692_109703">
      <rect width="52" height="14.2786" fill="white" transform="translate(0 0.86055)"/>
    </clipPath>
  </defs>
</svg>
