<svg viewBox="0 0 483 394" fill="none" xmlns="http://www.w3.org/2000/svg">
<mask id="mask0_121_113" style="mask-type:luminance" maskUnits="userSpaceOnUse" x="0" y="0" width="483" height="394">
<path d="M474.442 8.34761L385.254 97.5358C375.213 107.577 362.954 114.874 349.614 118.961C341.529 121.442 333.049 122.726 324.438 122.726H158.337C149.726 122.726 141.247 121.442 133.162 118.961C119.822 114.874 107.562 107.577 97.5214 97.5358C67.7781 67.7918 38.0629 38.0772 8.3339 8.33324C5.56116 5.56115 2.77274 2.7734 0 0C0.62821 6.08619 1.532 12.6249 2.83152 19.5274C5.28297 32.7355 9.1221 47.3012 15.0764 62.5963C17.4691 68.77 20.0675 74.6812 22.8108 80.3292C29.7734 94.6605 37.7122 107.358 45.9736 118.538C61.5306 139.598 82.6344 155.36 106.467 164.554C122.142 170.596 138.985 173.808 156.206 173.808H326.569C343.791 173.808 360.634 170.596 376.308 164.554C400.141 155.36 421.245 139.598 436.803 118.538C445.048 107.372 453.003 94.6605 459.95 80.3436C462.709 74.6956 465.306 68.77 467.699 62.5963C473.654 47.3012 477.493 32.7355 479.945 19.5274C481.243 12.6249 482.148 6.08619 482.776 0C479.988 2.78776 477.215 5.56115 474.442 8.34761ZM18.5204 189.415L77.2058 248.115H170.101L123.661 294.555L159.782 330.677L242.344 248.115H403.716L462.432 189.415C442.481 169.479 410.139 169.465 390.188 189.415L382.585 197.034H98.3684L90.7502 189.415C80.7818 179.447 67.705 174.456 54.6425 174.456C41.5657 174.456 28.4889 179.447 18.5204 189.415ZM255.215 271.335L177.034 347.928L210.717 381.611C227.15 398.044 253.792 398.044 270.224 381.611L380.501 271.335H255.215Z" fill="white"/>
</mask>
<g mask="url(#mask0_121_113)">
<rect x="-0.911621" y="0.098999" width="484.601" height="393.738" fill="url(#paint0_linear_121_113)"/>
</g>
<defs>
<linearGradient id="paint0_linear_121_113" x1="-0.911618" y1="191.002" x2="483.689" y2="191.002" gradientUnits="userSpaceOnUse">
<stop offset="0.260417" stop-color="#4919F9"/>
<stop offset="0.713542" stop-color="#ED8620"/>
</linearGradient>
</defs>
</svg>
