<svg xmlns="http://www.w3.org/2000/svg" width="200" height="200" fill="none" viewBox="0 0 200 200">
  <path fill="#fff" fill-rule="evenodd" d="M45 87.8C50.5 62.8 72.8 44 99.5 44c30.8 0 55.8 24.9 55.6 55.7 0 6.5-1.1 12.7-3.1 18.5-2.9-8.6-8-16.8-14.9-23.5-5.3-5.2-11.5-9.4-18.3-12.3-7.3-3.2-15.2-4.8-23.3-4.8-5.3 0-10.7.8-15.9 2.4-.4.2-.7.3-1.1.4 6.4-8.7 16.3-15.9 29.5-18.3-24.8-1.5-47.3 7.1-63 25.7Zm3.4 34.403c6.4-17.8 25.5-34.5 47.1-34.5 28.2 0 47.9 23.1 49.4 44.3-.1.2-.1.3-.1.4-9.7 13.4-25.3 22.4-42.9 23.1 1.8-14.2 8.4-31.6 13.4-36.8-11.4 7.5-21.2 19.2-29.5 35.2-6-1.5-11.6-4-16.7-7.3 4.7-15.7 13.8-30.7 20.5-38.3-9 2.5-23.1 16.6-31.5 28.9-4-4.4-7.3-9.5-9.7-15Z" clip-rule="evenodd"/>
</svg>
