<svg xmlns="http://www.w3.org/2000/svg" width="245" height="188" fill="none" viewBox="0 0 245 188">
  <rect width="220" height="88" x="12" y="53" fill="#fff" opacity=".7" rx="44"/>
  <g filter="url(#a)">
    <path fill="url(#b)" d="M204.5 114c9.665 0 17.5-7.835 17.5-17.5S214.165 79 204.5 79 187 86.835 187 96.5s7.835 17.5 17.5 17.5Z"/>
    <path fill="#fff" d="M204.5 87.75v12.087l-5.833-3.175 5.833-8.912Zm0 0 5.833 8.912-5.833 3.175V87.75Zm0 13.104v4.396l-5.833-7.569 5.833 3.173Zm0 4.396v-4.396l5.833-3.173-5.833 7.569Z"/>
  </g>
  <g filter="url(#c)">
    <circle cx="179" cy="97" r="23" fill="url(#d)"/>
    <path fill="#fff" fill-rule="evenodd" d="M170.277 86.168h8.762c5.329 0 9.368 2.865 10.871 7.033h2.73v2.52h-2.155c.042.397.064.803.064 1.215v.062c0 .464-.027.92-.081 1.366h2.172v2.52h-2.782c-1.542 4.11-5.55 6.947-10.819 6.947h-8.762v-6.947h-3.044v-2.52h3.044V95.72h-3.044V93.2h3.044v-7.032Zm2.449 14.716v4.687h6.313c3.895 0 6.789-1.877 8.136-4.687h-14.449Zm15.199-2.52h-15.199V95.72h15.203c.056.416.085.843.085 1.278v.062c0 .445-.03.88-.089 1.304Zm-8.886-9.94c3.913 0 6.815 1.927 8.154 4.777h-14.467v-4.776h6.313Z" clip-rule="evenodd"/>
  </g>
  <path fill="url(#e)" fill-rule="evenodd" d="M126.769 91.355a1 1 0 0 1 0 1.659l-6.21 4.183a1 1 0 0 1-1.559-.83v-8.365a1 1 0 0 1 1.559-.83l6.21 4.183Zm-22.769.83a2 2 0 1 0-4-.001 2 2 0 0 0 4 0Zm9 0a2 2 0 1 0-4-.001 2 2 0 0 0 4 0Z" clip-rule="evenodd"/>
  <path fill="url(#f)" fill-rule="evenodd" d="M144.769 104.355a1 1 0 0 1 0 1.659l-6.21 4.183a1 1 0 0 1-1.559-.83v-8.365a1 1 0 0 1 1.559-.83l6.21 4.183Zm-31.769.83a2 2 0 1 0-3.999-.001 2 2 0 0 0 3.999.001Zm7-2a2 2 0 1 1 .001 3.999 2 2 0 0 1-.001-3.999Zm9 0a2 2 0 1 1 .001 3.999 2 2 0 0 1-.001-3.999Z" clip-rule="evenodd"/>
  <g filter="url(#g)">
    <path fill="url(#h)" d="M58 120c12.703 0 23-10.297 23-23S70.703 74 58 74 35 84.297 35 97s10.297 23 23 23Z"/>
    <path fill="#fff" d="M58 85.5v15.886l-7.667-4.173L58 85.5Zm0 0 7.666 11.713L58 101.386V85.5Zm0 17.223v5.777l-7.667-9.948L58 102.724Zm0 5.777v-5.777l7.667-4.17L58 108.5Z"/>
  </g>
  <g filter="url(#i)">
    <g filter="url(#j)">
      <circle cx="123" cy="53" r="21" fill="#575CFE"/>
    </g>
    <path fill="url(#k)" d="M130.785 56.441a8.513 8.513 0 0 0-9.146-11.843l.634 2.366a6.08 6.08 0 0 1 6.389 8.252l-1.624-.938.456 5.528 5.015-2.37-1.724-.995Z"/>
    <path fill="url(#l)" d="M130.785 56.441a8.513 8.513 0 0 0-9.146-11.843l.634 2.366a6.08 6.08 0 0 1 6.389 8.252l-1.624-.938.456 5.528 5.015-2.37-1.724-.995Z"/>
    <path fill="url(#m)" d="M130.785 56.441a8.513 8.513 0 0 0-9.146-11.843l.634 2.366a6.08 6.08 0 0 1 6.389 8.252l-1.624-.938.456 5.528 5.015-2.37-1.724-.995Z"/>
    <path fill="url(#n)" d="M118.745 60.37a8.511 8.511 0 0 1-3.529-10.812l-1.725-.995 5.015-2.37.456 5.528-1.624-.937a6.08 6.08 0 0 0 6.389 8.251l.634 2.366a8.475 8.475 0 0 1-5.616-1.03Z"/>
    <path fill="url(#o)" d="M118.745 60.37a8.511 8.511 0 0 1-3.529-10.812l-1.725-.995 5.015-2.37.456 5.528-1.624-.937a6.08 6.08 0 0 0 6.389 8.251l.634 2.366a8.475 8.475 0 0 1-5.616-1.03Z"/>
    <path fill="url(#p)" d="M118.745 60.37a8.511 8.511 0 0 1-3.529-10.812l-1.725-.995 5.015-2.37.456 5.528-1.624-.937a6.08 6.08 0 0 0 6.389 8.251l.634 2.366a8.475 8.475 0 0 1-5.616-1.03Z"/>
  </g>
  <g filter="url(#q)">
    <rect width="55" height="20" x="95" y="131" fill="#25273D" rx="10"/>
    <path fill="#fff" d="M106.358 145.909v-9.091h.582v9.091h-.582Zm1.545-6.09a.903.903 0 0 0-.366-.668c-.216-.158-.508-.238-.877-.238-.251 0-.463.036-.636.107a.895.895 0 0 0-.398.288.69.69 0 0 0-.135.419.603.603 0 0 0 .082.34.855.855 0 0 0 .252.253c.107.068.23.129.37.181.139.049.288.092.447.128l.653.156c.318.071.609.166.874.284.265.118.495.264.689.437.194.173.344.376.451.61.109.235.164.504.167.807-.003.445-.116.831-.341 1.157-.223.325-.545.577-.966.757-.419.177-.925.266-1.516.266-.588 0-1.099-.09-1.534-.27a2.244 2.244 0 0 1-1.016-.799c-.242-.355-.368-.794-.38-1.317h1.488c.016.243.086.447.209.61.126.161.293.283.501.366.211.081.449.121.714.121.26 0 .486-.038.678-.114a1.03 1.03 0 0 0 .451-.316.727.727 0 0 0 .16-.465.605.605 0 0 0-.146-.412 1.097 1.097 0 0 0-.419-.284 4.276 4.276 0 0 0-.671-.213l-.792-.199c-.613-.149-1.097-.382-1.452-.699-.355-.318-.532-.745-.529-1.282a1.907 1.907 0 0 1 .351-1.155c.239-.329.567-.586.984-.77.417-.185.89-.277 1.42-.277.54 0 1.011.092 1.414.277.405.184.719.441.944.77.225.329.341.711.348 1.144h-1.473Zm7.567 5.28c-.53 0-1.003-.091-1.417-.273a2.417 2.417 0 0 1-.976-.76 1.906 1.906 0 0 1-.366-1.122h1.548c.01.177.068.334.174.469.109.132.253.235.433.309.18.073.383.11.608.11.234 0 .441-.042.621-.125.18-.082.321-.197.423-.344a.875.875 0 0 0 .152-.508.85.85 0 0 0-.163-.515 1.045 1.045 0 0 0-.462-.355 1.794 1.794 0 0 0-.71-.128h-.678v-1.129h.678c.232 0 .437-.04.614-.121.18-.08.32-.192.42-.334a.868.868 0 0 0 .149-.504.868.868 0 0 0-.132-.479.865.865 0 0 0-.362-.327 1.18 1.18 0 0 0-.54-.117 1.4 1.4 0 0 0-.571.114.99.99 0 0 0-.416.316.83.83 0 0 0-.167.483h-1.474c.008-.42.127-.789.359-1.108.232-.32.545-.57.938-.75a3.162 3.162 0 0 1 1.338-.273c.502 0 .941.091 1.318.273.376.183.669.429.877.739.211.308.315.653.312 1.037.003.407-.124.747-.379 1.019a1.73 1.73 0 0 1-.991.518v.057c.535.069.942.255 1.221.558.282.3.422.677.419 1.129a1.77 1.77 0 0 1-.358 1.104c-.239.322-.57.576-.991.76-.421.185-.904.277-1.449.277Zm5.357-1.093-.039.39c-.031.313-.09.624-.178.934a9.532 9.532 0 0 1-.27.849c-.092.253-.166.452-.223.597h-.98c.035-.14.084-.335.145-.586.062-.249.12-.528.174-.838.055-.311.089-.627.103-.949l.018-.397h1.25Zm1.369.994v-1.108l2.589-2.397c.22-.213.405-.405.554-.575.151-.171.266-.338.344-.501.078-.166.117-.344.117-.536a.958.958 0 0 0-.543-.909 1.238 1.238 0 0 0-.572-.128c-.222 0-.416.045-.582.135a.93.93 0 0 0-.384.387c-.09.168-.135.368-.135.6h-1.459c0-.476.108-.889.323-1.239.216-.351.517-.622.906-.814.388-.191.835-.287 1.342-.287.521 0 .974.092 1.36.277.388.182.69.435.906.76.215.324.323.696.323 1.115 0 .274-.055.546-.164.813-.106.268-.297.565-.571.891-.275.325-.662.714-1.162 1.169l-1.061 1.04v.05h3.054V145h-5.185Zm9.15.16c-.61-.003-1.136-.153-1.576-.451-.438-.298-.776-.731-1.012-1.296-.235-.566-.351-1.247-.348-2.042 0-.793.117-1.469.351-2.028.237-.559.574-.984 1.012-1.275.441-.293.965-.44 1.573-.44.609 0 1.132.147 1.57.44.44.294.779.72 1.016 1.279.236.556.353 1.231.351 2.024 0 .798-.118 1.479-.355 2.045-.234.566-.571.998-1.009 1.296-.437.299-.962.448-1.573.448Zm0-1.275c.417 0 .75-.21.998-.629.249-.419.372-1.047.37-1.885 0-.552-.057-1.011-.171-1.378-.111-.367-.27-.643-.476-.828a1.04 1.04 0 0 0-.721-.277c-.414 0-.745.208-.994.622-.249.414-.374 1.035-.376 1.861 0 .558.055 1.025.166 1.399.114.372.274.651.48.838.206.185.447.277.724.277Zm6.885 1.275c-.611-.003-1.136-.153-1.577-.451-.438-.298-.775-.731-1.012-1.296-.234-.566-.35-1.247-.348-2.042 0-.793.117-1.469.352-2.028.237-.559.574-.984 1.012-1.275.44-.293.965-.44 1.573-.44.609 0 1.132.147 1.57.44.44.294.779.72 1.015 1.279.237.556.354 1.231.352 2.024 0 .798-.118 1.479-.355 2.045-.235.566-.571.998-1.009 1.296-.438.299-.962.448-1.573.448Zm0-1.275c.417 0 .749-.21.998-.629.249-.419.372-1.047.369-1.885 0-.552-.057-1.011-.17-1.378-.111-.367-.27-.643-.476-.828a1.042 1.042 0 0 0-.721-.277c-.414 0-.746.208-.994.622-.249.414-.374 1.035-.377 1.861 0 .558.056 1.025.167 1.399.114.372.274.651.48.838.206.185.447.277.724.277Z"/>
  </g>
  <defs>
    <linearGradient id="b" x1="188.242" x2="221.786" y1="96.501" y2="122.751" gradientUnits="userSpaceOnUse">
      <stop stop-color="#6580EB"/>
      <stop offset="1" stop-color="#8EA2F2"/>
    </linearGradient>
    <linearGradient id="d" x1="179" x2="179" y1="67.483" y2="124.83" gradientUnits="userSpaceOnUse">
      <stop stop-color="#F9A606"/>
      <stop offset="1" stop-color="#FBCC5F"/>
    </linearGradient>
    <linearGradient id="e" x1="125.549" x2="104.506" y1="92.369" y2="92.651" gradientUnits="userSpaceOnUse">
      <stop stop-color="#25273D"/>
      <stop offset="1" stop-color="#787A9B" stop-opacity=".4"/>
    </linearGradient>
    <linearGradient id="f" x1="143" x2="115" y1="105.369" y2="105.869" gradientUnits="userSpaceOnUse">
      <stop stop-color="#25273D"/>
      <stop offset="1" stop-color="#787A9B" stop-opacity=".4"/>
    </linearGradient>
    <linearGradient id="h" x1="36.632" x2="80.719" y1="97.001" y2="131.501" gradientUnits="userSpaceOnUse">
      <stop stop-color="#6580EB"/>
      <stop offset="1" stop-color="#8EA2F2"/>
    </linearGradient>
    <linearGradient id="k" x1="122.042" x2="122.162" y1="61.512" y2="44.488" gradientUnits="userSpaceOnUse">
      <stop stop-color="#F2EDFF"/>
      <stop offset=".406" stop-color="#F6EEF9"/>
      <stop offset="1" stop-color="#FCEFF1"/>
    </linearGradient>
    <linearGradient id="n" x1="122.042" x2="122.162" y1="61.512" y2="44.488" gradientUnits="userSpaceOnUse">
      <stop stop-color="#F2EDFF"/>
      <stop offset=".406" stop-color="#F6EEF9"/>
      <stop offset="1" stop-color="#FCEFF1"/>
    </linearGradient>
    <filter id="a" width="43" height="43" x="183" y="75" color-interpolation-filters="sRGB" filterUnits="userSpaceOnUse">
      <feFlood flood-opacity="0" result="BackgroundImageFix"/>
      <feColorMatrix in="SourceAlpha" result="hardAlpha" values="0 0 0 0 0 0 0 0 0 0 0 0 0 0 0 0 0 0 127 0"/>
      <feOffset/>
      <feGaussianBlur stdDeviation="2"/>
      <feComposite in2="hardAlpha" operator="out"/>
      <feColorMatrix values="0 0 0 0 0 0 0 0 0 0 0 0 0 0 0 0 0 0 0.15 0"/>
      <feBlend in2="BackgroundImageFix" result="effect1_dropShadow_308_136"/>
      <feBlend in="SourceGraphic" in2="effect1_dropShadow_308_136" result="shape"/>
    </filter>
    <filter id="c" width="54" height="54" x="152" y="70" color-interpolation-filters="sRGB" filterUnits="userSpaceOnUse">
      <feFlood flood-opacity="0" result="BackgroundImageFix"/>
      <feColorMatrix in="SourceAlpha" result="hardAlpha" values="0 0 0 0 0 0 0 0 0 0 0 0 0 0 0 0 0 0 127 0"/>
      <feOffset/>
      <feGaussianBlur stdDeviation="2"/>
      <feComposite in2="hardAlpha" operator="out"/>
      <feColorMatrix values="0 0 0 0 0 0 0 0 0 0 0 0 0 0 0 0 0 0 0.15 0"/>
      <feBlend in2="BackgroundImageFix" result="effect1_dropShadow_308_136"/>
      <feBlend in="SourceGraphic" in2="effect1_dropShadow_308_136" result="shape"/>
    </filter>
    <filter id="g" width="54" height="54" x="31" y="70" color-interpolation-filters="sRGB" filterUnits="userSpaceOnUse">
      <feFlood flood-opacity="0" result="BackgroundImageFix"/>
      <feColorMatrix in="SourceAlpha" result="hardAlpha" values="0 0 0 0 0 0 0 0 0 0 0 0 0 0 0 0 0 0 127 0"/>
      <feOffset/>
      <feGaussianBlur stdDeviation="2"/>
      <feComposite in2="hardAlpha" operator="out"/>
      <feColorMatrix values="0 0 0 0 0 0 0 0 0 0 0 0 0 0 0 0 0 0 0.15 0"/>
      <feBlend in2="BackgroundImageFix" result="effect1_dropShadow_308_136"/>
      <feBlend in="SourceGraphic" in2="effect1_dropShadow_308_136" result="shape"/>
    </filter>
    <filter id="i" width="50" height="50" x="98" y="29" color-interpolation-filters="sRGB" filterUnits="userSpaceOnUse">
      <feFlood flood-opacity="0" result="BackgroundImageFix"/>
      <feColorMatrix in="SourceAlpha" result="hardAlpha" values="0 0 0 0 0 0 0 0 0 0 0 0 0 0 0 0 0 0 127 0"/>
      <feOffset dy="1"/>
      <feGaussianBlur stdDeviation="2"/>
      <feComposite in2="hardAlpha" operator="out"/>
      <feColorMatrix values="0 0 0 0 0 0 0 0 0 0 0 0 0 0 0 0 0 0 0.1 0"/>
      <feBlend in2="BackgroundImageFix" result="effect1_dropShadow_308_136"/>
      <feBlend in="SourceGraphic" in2="effect1_dropShadow_308_136" result="shape"/>
    </filter>
    <filter id="j" width="50" height="50" x="98" y="28" color-interpolation-filters="sRGB" filterUnits="userSpaceOnUse">
      <feFlood flood-opacity="0" result="BackgroundImageFix"/>
      <feColorMatrix in="SourceAlpha" result="hardAlpha" values="0 0 0 0 0 0 0 0 0 0 0 0 0 0 0 0 0 0 127 0"/>
      <feOffset/>
      <feGaussianBlur stdDeviation="2"/>
      <feComposite in2="hardAlpha" operator="out"/>
      <feColorMatrix values="0 0 0 0 0 0 0 0 0 0 0 0 0 0 0 0 0 0 0.1 0"/>
      <feBlend in2="BackgroundImageFix" result="effect1_dropShadow_308_136"/>
      <feBlend in="SourceGraphic" in2="effect1_dropShadow_308_136" result="shape"/>
    </filter>
    <filter id="q" width="63" height="28" x="91" y="127" color-interpolation-filters="sRGB" filterUnits="userSpaceOnUse">
      <feFlood flood-opacity="0" result="BackgroundImageFix"/>
      <feColorMatrix in="SourceAlpha" result="hardAlpha" values="0 0 0 0 0 0 0 0 0 0 0 0 0 0 0 0 0 0 127 0"/>
      <feOffset/>
      <feGaussianBlur stdDeviation="2"/>
      <feComposite in2="hardAlpha" operator="out"/>
      <feColorMatrix values="0 0 0 0 0 0 0 0 0 0 0 0 0 0 0 0 0 0 0.1 0"/>
      <feBlend in2="BackgroundImageFix" result="effect1_dropShadow_308_136"/>
      <feBlend in="SourceGraphic" in2="effect1_dropShadow_308_136" result="shape"/>
    </filter>
    <radialGradient id="l" cx="0" cy="0" r="1" gradientTransform="matrix(18.82376 13.2556 -34.6631 49.22376 113.684 44.487)" gradientUnits="userSpaceOnUse">
      <stop stop-color="#BFFFF0"/>
      <stop offset=".336" stop-color="#FEFFC7" stop-opacity="0"/>
    </radialGradient>
    <radialGradient id="m" cx="0" cy="0" r="1" gradientTransform="matrix(18.82376 13.2556 -34.6631 49.22376 113.684 44.487)" gradientUnits="userSpaceOnUse">
      <stop offset=".667" stop-color="#FEFFC7" stop-opacity="0"/>
      <stop offset="1" stop-color="#CEFFE6" stop-opacity=".768"/>
    </radialGradient>
    <radialGradient id="o" cx="0" cy="0" r="1" gradientTransform="matrix(18.82376 13.2556 -34.6631 49.22376 113.684 44.487)" gradientUnits="userSpaceOnUse">
      <stop stop-color="#BFFFF0"/>
      <stop offset=".336" stop-color="#FEFFC7" stop-opacity="0"/>
    </radialGradient>
    <radialGradient id="p" cx="0" cy="0" r="1" gradientTransform="matrix(18.82376 13.2556 -34.6631 49.22376 113.684 44.487)" gradientUnits="userSpaceOnUse">
      <stop offset=".667" stop-color="#FEFFC7" stop-opacity="0"/>
      <stop offset="1" stop-color="#CEFFE6" stop-opacity=".768"/>
    </radialGradient>
  </defs>
</svg>
