<svg width="245" height="188" viewBox="0 0 245 188" fill="none" xmlns="http://www.w3.org/2000/svg">
<path d="M0 12C0 5.37258 5.37258 0 12 0H233C239.627 0 245 5.37258 245 12V176C245 182.627 239.627 188 233 188H12C5.37258 188 0 182.627 0 176V12Z" fill="url(#paint0_linear_1192_19413)"/>
<rect opacity="0.7" x="12" y="53" width="220" height="88" rx="44" fill="white"/>
<g filter="url(#filter0_d_1192_19413)">
<path d="M204.5 114C214.165 114 222 106.165 222 96.5C222 86.835 214.165 79 204.5 79C194.835 79 187 86.835 187 96.5C187 106.165 194.835 114 204.5 114Z" fill="url(#paint1_linear_1192_19413)"/>
<path d="M204.5 87.75V99.837L198.667 96.6624L204.5 87.75Z" fill="white"/>
<path d="M204.5 87.75L210.333 96.6624L204.5 99.837V87.75Z" fill="white"/>
<path d="M204.5 100.854V105.25L198.667 97.6813L204.5 100.854Z" fill="white"/>
<path d="M204.5 105.25V100.854L210.333 97.6813L204.5 105.25Z" fill="white"/>
</g>
<g filter="url(#filter1_d_1192_19413)">
<circle cx="179" cy="97" r="23" fill="url(#paint2_linear_1192_19413)"/>
<path fill-rule="evenodd" clip-rule="evenodd" d="M170.277 86.1682H179.039C184.368 86.1682 188.408 89.0327 189.91 93.2008H192.64V95.7201H190.485C190.527 96.1182 190.549 96.5238 190.549 96.9359V96.9978C190.549 97.4617 190.522 97.9177 190.468 98.3644H192.64V100.884H189.858C188.316 104.994 184.308 107.831 179.039 107.831H170.277V100.884H167.233V98.3644H170.277V95.7201H167.233V93.2008H170.277V86.1682ZM172.727 100.884V105.571H179.039C182.934 105.571 185.828 103.694 187.175 100.884H172.727ZM187.925 98.3644H172.727V95.7201H187.929C187.985 96.1362 188.014 96.5628 188.014 96.9978V97.0596C188.014 97.5046 187.984 97.9402 187.925 98.3644ZM179.039 88.4245C182.952 88.4245 185.854 90.3513 187.193 93.2008H172.727V88.4245H179.039Z" fill="white"/>
</g>
<path fill-rule="evenodd" clip-rule="evenodd" d="M126.769 91.3551C127.357 91.7515 127.357 92.6176 126.769 93.0139L120.559 97.1968C119.894 97.6442 119 97.1683 119 96.3674V88.0016C119 87.2008 119.894 86.7248 120.559 87.1722L126.769 91.3551ZM104 92.1846C104 91.08 103.105 90.1846 102 90.1846C100.895 90.1846 100 91.08 100 92.1846C100 93.2891 100.895 94.1846 102 94.1846C103.105 94.1846 104 93.2891 104 92.1846ZM113 92.1846C113 91.08 112.105 90.1846 111 90.1846C109.895 90.1846 109 91.08 109 92.1846C109 93.2891 109.895 94.1846 111 94.1846C112.105 94.1846 113 93.2891 113 92.1846Z" fill="url(#paint3_linear_1192_19413)"/>
<path fill-rule="evenodd" clip-rule="evenodd" d="M144.769 104.355C145.357 104.752 145.357 105.618 144.769 106.014L138.559 110.197C137.894 110.644 137 110.168 137 109.367V101.002C137 100.201 137.894 99.7248 138.559 100.172L144.769 104.355ZM113 105.185C113 104.08 112.105 103.185 111 103.185C109.895 103.185 109 104.08 109 105.185C109 106.289 109.895 107.185 111 107.185C112.105 107.185 113 106.289 113 105.185ZM120 103.185C121.105 103.185 122 104.08 122 105.185C122 106.289 121.105 107.185 120 107.185C118.895 107.185 118 106.289 118 105.185C118 104.08 118.895 103.185 120 103.185ZM129 103.185C130.105 103.185 131 104.08 131 105.185C131 106.289 130.105 107.185 129 107.185C127.895 107.185 127 106.289 127 105.185C127 104.08 127.895 103.185 129 103.185Z" fill="url(#paint4_linear_1192_19413)"/>
<g filter="url(#filter2_d_1192_19413)">
<path d="M58 120C70.7025 120 81 109.703 81 97C81 84.2975 70.7025 74 58 74C45.2975 74 35 84.2975 35 97C35 109.703 45.2975 120 58 120Z" fill="url(#paint5_linear_1192_19413)"/>
<path d="M57.9998 85.5V101.386L50.3333 97.2134L57.9998 85.5Z" fill="white"/>
<path d="M57.9998 85.5L65.6664 97.2134L57.9998 101.386V85.5Z" fill="white"/>
<path d="M57.9997 102.723V108.5L50.3333 98.5525L57.9997 102.723Z" fill="white"/>
<path d="M57.9997 108.5V102.723L65.6666 98.5525L57.9997 108.5Z" fill="white"/>
</g>
<g filter="url(#filter3_d_1192_19413)">
<g filter="url(#filter4_d_1192_19413)">
<circle cx="123" cy="53" r="21" fill="#575CFE"/>
</g>
<path d="M130.785 56.4412C132.526 52.5145 131.059 47.8255 127.255 45.6294C125.488 44.6092 123.507 44.2947 121.639 44.5985L122.273 46.9641C123.534 46.8111 124.854 47.0509 126.04 47.7352C128.679 49.2589 129.743 52.4627 128.662 55.2156L127.038 54.2781L127.494 59.8058L132.509 57.4368L130.785 56.4412Z" fill="url(#paint6_linear_1192_19413)"/>
<path d="M130.785 56.4412C132.526 52.5145 131.059 47.8255 127.255 45.6294C125.488 44.6092 123.507 44.2947 121.639 44.5985L122.273 46.9641C123.534 46.8111 124.854 47.0509 126.04 47.7352C128.679 49.2589 129.743 52.4627 128.662 55.2156L127.038 54.2781L127.494 59.8058L132.509 57.4368L130.785 56.4412Z" fill="url(#paint7_radial_1192_19413)"/>
<path d="M130.785 56.4412C132.526 52.5145 131.059 47.8255 127.255 45.6294C125.488 44.6092 123.507 44.2947 121.639 44.5985L122.273 46.9641C123.534 46.8111 124.854 47.0509 126.04 47.7352C128.679 49.2589 129.743 52.4627 128.662 55.2156L127.038 54.2781L127.494 59.8058L132.509 57.4368L130.785 56.4412Z" fill="url(#paint8_radial_1192_19413)"/>
<path d="M118.745 60.3701C114.941 58.174 113.474 53.485 115.216 49.5583L113.491 48.5627L118.506 46.1937L118.962 51.7214L117.338 50.7839C116.257 53.5368 117.321 56.7406 119.961 58.2643C121.146 58.9486 122.466 59.1884 123.727 59.0354L124.361 61.401C122.493 61.7048 120.512 61.3903 118.745 60.3701Z" fill="url(#paint9_linear_1192_19413)"/>
<path d="M118.745 60.3701C114.941 58.174 113.474 53.485 115.216 49.5583L113.491 48.5627L118.506 46.1937L118.962 51.7214L117.338 50.7839C116.257 53.5368 117.321 56.7406 119.961 58.2643C121.146 58.9486 122.466 59.1884 123.727 59.0354L124.361 61.401C122.493 61.7048 120.512 61.3903 118.745 60.3701Z" fill="url(#paint10_radial_1192_19413)"/>
<path d="M118.745 60.3701C114.941 58.174 113.474 53.485 115.216 49.5583L113.491 48.5627L118.506 46.1937L118.962 51.7214L117.338 50.7839C116.257 53.5368 117.321 56.7406 119.961 58.2643C121.146 58.9486 122.466 59.1884 123.727 59.0354L124.361 61.401C122.493 61.7048 120.512 61.3903 118.745 60.3701Z" fill="url(#paint11_radial_1192_19413)"/>
</g>
<g filter="url(#filter5_d_1192_19413)">
<rect x="95" y="131" width="55" height="20" rx="10" fill="#25273D" shape-rendering="crispEdges"/>
<path d="M106.358 145.909V136.818H106.94V145.909H106.358ZM107.903 139.819C107.874 139.532 107.752 139.31 107.537 139.151C107.321 138.993 107.029 138.913 106.66 138.913C106.409 138.913 106.197 138.949 106.024 139.02C105.851 139.089 105.719 139.184 105.626 139.308C105.536 139.431 105.491 139.57 105.491 139.727C105.487 139.857 105.514 139.97 105.573 140.067C105.635 140.165 105.719 140.249 105.825 140.32C105.932 140.388 106.055 140.449 106.195 140.501C106.334 140.55 106.483 140.593 106.642 140.629L107.295 140.785C107.613 140.856 107.904 140.951 108.169 141.069C108.434 141.187 108.664 141.333 108.858 141.506C109.052 141.679 109.202 141.882 109.309 142.116C109.418 142.351 109.473 142.62 109.476 142.923C109.473 143.368 109.36 143.754 109.135 144.08C108.912 144.405 108.59 144.657 108.169 144.837C107.75 145.014 107.244 145.103 106.653 145.103C106.065 145.103 105.554 145.013 105.119 144.833C104.685 144.653 104.347 144.387 104.103 144.034C103.861 143.679 103.735 143.24 103.723 142.717H105.211C105.227 142.96 105.297 143.164 105.42 143.327C105.546 143.488 105.713 143.61 105.921 143.693C106.132 143.774 106.37 143.814 106.635 143.814C106.895 143.814 107.121 143.776 107.313 143.7C107.507 143.625 107.658 143.519 107.764 143.384C107.871 143.249 107.924 143.094 107.924 142.919C107.924 142.756 107.875 142.618 107.778 142.507C107.684 142.396 107.544 142.301 107.359 142.223C107.177 142.145 106.953 142.074 106.688 142.01L105.896 141.811C105.283 141.662 104.799 141.429 104.444 141.112C104.089 140.794 103.912 140.367 103.915 139.83C103.912 139.389 104.03 139.004 104.266 138.675C104.505 138.346 104.833 138.089 105.25 137.905C105.667 137.72 106.14 137.628 106.67 137.628C107.21 137.628 107.681 137.72 108.084 137.905C108.489 138.089 108.803 138.346 109.028 138.675C109.253 139.004 109.369 139.386 109.376 139.819H107.903ZM115.47 145.099C114.94 145.099 114.467 145.008 114.053 144.826C113.641 144.641 113.316 144.388 113.077 144.066C112.84 143.742 112.718 143.368 112.711 142.944H114.259C114.269 143.121 114.327 143.278 114.433 143.413C114.542 143.545 114.686 143.648 114.866 143.722C115.046 143.795 115.249 143.832 115.474 143.832C115.708 143.832 115.915 143.79 116.095 143.707C116.275 143.625 116.416 143.51 116.518 143.363C116.619 143.216 116.67 143.047 116.67 142.855C116.67 142.661 116.616 142.489 116.507 142.34C116.4 142.189 116.247 142.07 116.045 141.985C115.847 141.9 115.61 141.857 115.335 141.857H114.657V140.728H115.335C115.567 140.728 115.772 140.688 115.949 140.607C116.129 140.527 116.269 140.415 116.369 140.273C116.468 140.129 116.518 139.961 116.518 139.769C116.518 139.587 116.474 139.427 116.386 139.29C116.301 139.15 116.18 139.041 116.024 138.963C115.87 138.885 115.69 138.846 115.484 138.846C115.276 138.846 115.085 138.884 114.913 138.96C114.74 139.033 114.601 139.138 114.497 139.276C114.393 139.413 114.337 139.574 114.33 139.759H112.856C112.864 139.339 112.983 138.97 113.215 138.651C113.447 138.331 113.76 138.081 114.153 137.901C114.548 137.719 114.994 137.628 115.491 137.628C115.993 137.628 116.432 137.719 116.809 137.901C117.185 138.084 117.478 138.33 117.686 138.64C117.897 138.948 118.001 139.293 117.998 139.677C118.001 140.084 117.874 140.424 117.619 140.696C117.365 140.968 117.035 141.141 116.628 141.214V141.271C117.163 141.34 117.57 141.526 117.849 141.829C118.131 142.129 118.271 142.506 118.268 142.958C118.271 143.372 118.151 143.741 117.91 144.062C117.671 144.384 117.34 144.638 116.919 144.822C116.498 145.007 116.015 145.099 115.47 145.099ZM120.827 144.006L120.788 144.396C120.757 144.709 120.698 145.02 120.61 145.33C120.525 145.643 120.435 145.926 120.34 146.179C120.248 146.432 120.174 146.631 120.117 146.776H119.137C119.172 146.636 119.221 146.441 119.282 146.19C119.344 145.941 119.402 145.662 119.456 145.352C119.511 145.041 119.545 144.725 119.559 144.403L119.577 144.006H120.827ZM122.196 145V143.892L124.785 141.495C125.005 141.282 125.19 141.09 125.339 140.92C125.49 140.749 125.605 140.582 125.683 140.419C125.761 140.253 125.8 140.075 125.8 139.883C125.8 139.67 125.752 139.486 125.655 139.332C125.558 139.176 125.425 139.057 125.257 138.974C125.089 138.888 124.898 138.846 124.685 138.846C124.463 138.846 124.269 138.891 124.103 138.981C123.937 139.071 123.809 139.2 123.719 139.368C123.629 139.536 123.584 139.736 123.584 139.968H122.125C122.125 139.492 122.233 139.079 122.448 138.729C122.664 138.378 122.965 138.107 123.354 137.915C123.742 137.724 124.189 137.628 124.696 137.628C125.217 137.628 125.67 137.72 126.056 137.905C126.444 138.087 126.746 138.34 126.962 138.665C127.177 138.989 127.285 139.361 127.285 139.78C127.285 140.054 127.23 140.326 127.121 140.593C127.015 140.861 126.824 141.158 126.55 141.484C126.275 141.809 125.888 142.198 125.388 142.653L124.327 143.693V143.743H127.381V145H122.196ZM131.346 145.16C130.736 145.157 130.21 145.007 129.77 144.709C129.332 144.411 128.994 143.978 128.758 143.413C128.523 142.847 128.407 142.166 128.41 141.371C128.41 140.578 128.527 139.902 128.761 139.343C128.998 138.784 129.335 138.359 129.773 138.068C130.214 137.775 130.738 137.628 131.346 137.628C131.955 137.628 132.478 137.775 132.916 138.068C133.356 138.362 133.695 138.788 133.932 139.347C134.168 139.903 134.285 140.578 134.283 141.371C134.283 142.169 134.165 142.85 133.928 143.416C133.694 143.982 133.357 144.414 132.919 144.712C132.482 145.011 131.957 145.16 131.346 145.16ZM131.346 143.885C131.763 143.885 132.096 143.675 132.344 143.256C132.593 142.837 132.716 142.209 132.714 141.371C132.714 140.819 132.657 140.36 132.543 139.993C132.432 139.626 132.273 139.35 132.067 139.165C131.864 138.981 131.623 138.888 131.346 138.888C130.932 138.888 130.601 139.096 130.352 139.51C130.103 139.924 129.978 140.545 129.976 141.371C129.976 141.929 130.031 142.396 130.142 142.77C130.256 143.142 130.416 143.421 130.622 143.608C130.828 143.793 131.069 143.885 131.346 143.885ZM138.231 145.16C137.62 145.157 137.095 145.007 136.654 144.709C136.216 144.411 135.879 143.978 135.642 143.413C135.408 142.847 135.292 142.166 135.294 141.371C135.294 140.578 135.411 139.902 135.646 139.343C135.883 138.784 136.22 138.359 136.658 138.068C137.098 137.775 137.623 137.628 138.231 137.628C138.84 137.628 139.363 137.775 139.801 138.068C140.241 138.362 140.58 138.788 140.816 139.347C141.053 139.903 141.17 140.578 141.168 141.371C141.168 142.169 141.05 142.85 140.813 143.416C140.578 143.982 140.242 144.414 139.804 144.712C139.366 145.011 138.842 145.16 138.231 145.16ZM138.231 143.885C138.648 143.885 138.98 143.675 139.229 143.256C139.478 142.837 139.601 142.209 139.598 141.371C139.598 140.819 139.541 140.36 139.428 139.993C139.317 139.626 139.158 139.35 138.952 139.165C138.748 138.981 138.508 138.888 138.231 138.888C137.817 138.888 137.485 139.096 137.237 139.51C136.988 139.924 136.863 140.545 136.86 141.371C136.86 141.929 136.916 142.396 137.027 142.77C137.141 143.142 137.301 143.421 137.507 143.608C137.713 143.793 137.954 143.885 138.231 143.885Z" fill="white"/>
</g>
<defs>
<filter id="filter0_d_1192_19413" x="183" y="75" width="43" height="43" filterUnits="userSpaceOnUse" color-interpolation-filters="sRGB">
<feFlood flood-opacity="0" result="BackgroundImageFix"/>
<feColorMatrix in="SourceAlpha" type="matrix" values="0 0 0 0 0 0 0 0 0 0 0 0 0 0 0 0 0 0 127 0" result="hardAlpha"/>
<feOffset/>
<feGaussianBlur stdDeviation="2"/>
<feComposite in2="hardAlpha" operator="out"/>
<feColorMatrix type="matrix" values="0 0 0 0 0 0 0 0 0 0 0 0 0 0 0 0 0 0 0.15 0"/>
<feBlend mode="normal" in2="BackgroundImageFix" result="effect1_dropShadow_1192_19413"/>
<feBlend mode="normal" in="SourceGraphic" in2="effect1_dropShadow_1192_19413" result="shape"/>
</filter>
<filter id="filter1_d_1192_19413" x="152" y="70" width="54" height="54" filterUnits="userSpaceOnUse" color-interpolation-filters="sRGB">
<feFlood flood-opacity="0" result="BackgroundImageFix"/>
<feColorMatrix in="SourceAlpha" type="matrix" values="0 0 0 0 0 0 0 0 0 0 0 0 0 0 0 0 0 0 127 0" result="hardAlpha"/>
<feOffset/>
<feGaussianBlur stdDeviation="2"/>
<feComposite in2="hardAlpha" operator="out"/>
<feColorMatrix type="matrix" values="0 0 0 0 0 0 0 0 0 0 0 0 0 0 0 0 0 0 0.15 0"/>
<feBlend mode="normal" in2="BackgroundImageFix" result="effect1_dropShadow_1192_19413"/>
<feBlend mode="normal" in="SourceGraphic" in2="effect1_dropShadow_1192_19413" result="shape"/>
</filter>
<filter id="filter2_d_1192_19413" x="31" y="70" width="54" height="54" filterUnits="userSpaceOnUse" color-interpolation-filters="sRGB">
<feFlood flood-opacity="0" result="BackgroundImageFix"/>
<feColorMatrix in="SourceAlpha" type="matrix" values="0 0 0 0 0 0 0 0 0 0 0 0 0 0 0 0 0 0 127 0" result="hardAlpha"/>
<feOffset/>
<feGaussianBlur stdDeviation="2"/>
<feComposite in2="hardAlpha" operator="out"/>
<feColorMatrix type="matrix" values="0 0 0 0 0 0 0 0 0 0 0 0 0 0 0 0 0 0 0.15 0"/>
<feBlend mode="normal" in2="BackgroundImageFix" result="effect1_dropShadow_1192_19413"/>
<feBlend mode="normal" in="SourceGraphic" in2="effect1_dropShadow_1192_19413" result="shape"/>
</filter>
<filter id="filter3_d_1192_19413" x="98" y="29" width="50" height="50" filterUnits="userSpaceOnUse" color-interpolation-filters="sRGB">
<feFlood flood-opacity="0" result="BackgroundImageFix"/>
<feColorMatrix in="SourceAlpha" type="matrix" values="0 0 0 0 0 0 0 0 0 0 0 0 0 0 0 0 0 0 127 0" result="hardAlpha"/>
<feOffset dy="1"/>
<feGaussianBlur stdDeviation="2"/>
<feComposite in2="hardAlpha" operator="out"/>
<feColorMatrix type="matrix" values="0 0 0 0 0 0 0 0 0 0 0 0 0 0 0 0 0 0 0.1 0"/>
<feBlend mode="normal" in2="BackgroundImageFix" result="effect1_dropShadow_1192_19413"/>
<feBlend mode="normal" in="SourceGraphic" in2="effect1_dropShadow_1192_19413" result="shape"/>
</filter>
<filter id="filter4_d_1192_19413" x="98" y="28" width="50" height="50" filterUnits="userSpaceOnUse" color-interpolation-filters="sRGB">
<feFlood flood-opacity="0" result="BackgroundImageFix"/>
<feColorMatrix in="SourceAlpha" type="matrix" values="0 0 0 0 0 0 0 0 0 0 0 0 0 0 0 0 0 0 127 0" result="hardAlpha"/>
<feOffset/>
<feGaussianBlur stdDeviation="2"/>
<feComposite in2="hardAlpha" operator="out"/>
<feColorMatrix type="matrix" values="0 0 0 0 0 0 0 0 0 0 0 0 0 0 0 0 0 0 0.1 0"/>
<feBlend mode="normal" in2="BackgroundImageFix" result="effect1_dropShadow_1192_19413"/>
<feBlend mode="normal" in="SourceGraphic" in2="effect1_dropShadow_1192_19413" result="shape"/>
</filter>
<filter id="filter5_d_1192_19413" x="91" y="127" width="63" height="28" filterUnits="userSpaceOnUse" color-interpolation-filters="sRGB">
<feFlood flood-opacity="0" result="BackgroundImageFix"/>
<feColorMatrix in="SourceAlpha" type="matrix" values="0 0 0 0 0 0 0 0 0 0 0 0 0 0 0 0 0 0 127 0" result="hardAlpha"/>
<feOffset/>
<feGaussianBlur stdDeviation="2"/>
<feComposite in2="hardAlpha" operator="out"/>
<feColorMatrix type="matrix" values="0 0 0 0 0 0 0 0 0 0 0 0 0 0 0 0 0 0 0.1 0"/>
<feBlend mode="normal" in2="BackgroundImageFix" result="effect1_dropShadow_1192_19413"/>
<feBlend mode="normal" in="SourceGraphic" in2="effect1_dropShadow_1192_19413" result="shape"/>
</filter>
<linearGradient id="paint0_linear_1192_19413" x1="12.3148" y1="3.09211" x2="75.4477" y2="237.341" gradientUnits="userSpaceOnUse">
<stop stop-color="#FFE6F5"/>
<stop offset="1" stop-color="#FFF2F6"/>
</linearGradient>
<linearGradient id="paint1_linear_1192_19413" x1="188.242" y1="96.5006" x2="221.786" y2="122.751" gradientUnits="userSpaceOnUse">
<stop stop-color="#6580EB"/>
<stop offset="1" stop-color="#8EA2F2"/>
</linearGradient>
<linearGradient id="paint2_linear_1192_19413" x1="179" y1="67.4833" x2="179" y2="124.83" gradientUnits="userSpaceOnUse">
<stop stop-color="#F9A606"/>
<stop offset="1" stop-color="#FBCC5F"/>
</linearGradient>
<linearGradient id="paint3_linear_1192_19413" x1="125.549" y1="92.3691" x2="104.506" y2="92.6515" gradientUnits="userSpaceOnUse">
<stop stop-color="#25273D"/>
<stop offset="1" stop-color="#787A9B" stop-opacity="0.4"/>
</linearGradient>
<linearGradient id="paint4_linear_1192_19413" x1="143" y1="105.369" x2="115" y2="105.869" gradientUnits="userSpaceOnUse">
<stop stop-color="#25273D"/>
<stop offset="1" stop-color="#787A9B" stop-opacity="0.4"/>
</linearGradient>
<linearGradient id="paint5_linear_1192_19413" x1="36.6324" y1="97.0008" x2="80.7187" y2="131.501" gradientUnits="userSpaceOnUse">
<stop stop-color="#6580EB"/>
<stop offset="1" stop-color="#8EA2F2"/>
</linearGradient>
<linearGradient id="paint6_linear_1192_19413" x1="122.042" y1="61.5117" x2="122.162" y2="44.4884" gradientUnits="userSpaceOnUse">
<stop stop-color="#F2EDFF"/>
<stop offset="0.40625" stop-color="#F6EEF9"/>
<stop offset="1" stop-color="#FCEFF1"/>
</linearGradient>
<radialGradient id="paint7_radial_1192_19413" cx="0" cy="0" r="1" gradientUnits="userSpaceOnUse" gradientTransform="translate(113.685 44.4878) rotate(35.1534) scale(23.0227 60.2039)">
<stop stop-color="#BFFFF0"/>
<stop offset="0.336378" stop-color="#FEFFC7" stop-opacity="0"/>
</radialGradient>
<radialGradient id="paint8_radial_1192_19413" cx="0" cy="0" r="1" gradientUnits="userSpaceOnUse" gradientTransform="translate(113.685 44.4878) rotate(35.1534) scale(23.0227 60.2039)">
<stop offset="0.666667" stop-color="#FEFFC7" stop-opacity="0"/>
<stop offset="1" stop-color="#CEFFE6" stop-opacity="0.767746"/>
</radialGradient>
<linearGradient id="paint9_linear_1192_19413" x1="122.042" y1="61.5117" x2="122.162" y2="44.4884" gradientUnits="userSpaceOnUse">
<stop stop-color="#F2EDFF"/>
<stop offset="0.40625" stop-color="#F6EEF9"/>
<stop offset="1" stop-color="#FCEFF1"/>
</linearGradient>
<radialGradient id="paint10_radial_1192_19413" cx="0" cy="0" r="1" gradientUnits="userSpaceOnUse" gradientTransform="translate(113.685 44.4878) rotate(35.1534) scale(23.0227 60.2039)">
<stop stop-color="#BFFFF0"/>
<stop offset="0.336378" stop-color="#FEFFC7" stop-opacity="0"/>
</radialGradient>
<radialGradient id="paint11_radial_1192_19413" cx="0" cy="0" r="1" gradientUnits="userSpaceOnUse" gradientTransform="translate(113.685 44.4878) rotate(35.1534) scale(23.0227 60.2039)">
<stop offset="0.666667" stop-color="#FEFFC7" stop-opacity="0"/>
<stop offset="1" stop-color="#CEFFE6" stop-opacity="0.767746"/>
</radialGradient>
</defs>
</svg>
