<svg width="220" height="107" viewBox="0 0 220 107" fill="none" xmlns="http://www.w3.org/2000/svg">
<rect opacity="0.7" y="19" width="220" height="88" rx="44" fill="white"/>
<g filter="url(#filter0_d_1578_19410)">
<path d="M192.5 80C202.165 80 210 72.165 210 62.5C210 52.835 202.165 45 192.5 45C182.835 45 175 52.835 175 62.5C175 72.165 182.835 80 192.5 80Z" fill="url(#paint0_linear_1578_19410)"/>
<path d="M192.5 53.75V65.837L186.667 62.6624L192.5 53.75Z" fill="white"/>
<path d="M192.5 53.75L198.333 62.6624L192.5 65.837V53.75Z" fill="white"/>
<path d="M192.5 66.8544V71.25L186.667 63.6813L192.5 66.8544Z" fill="white"/>
<path d="M192.5 71.25V66.8544L198.333 63.6813L192.5 71.25Z" fill="white"/>
</g>
<g filter="url(#filter1_d_1578_19410)">
<circle cx="167" cy="63" r="23" fill="url(#paint1_linear_1578_19410)"/>
<path fill-rule="evenodd" clip-rule="evenodd" d="M158.277 52.1682H167.039C172.368 52.1682 176.408 55.0327 177.91 59.2008H180.64V61.7201H178.485C178.527 62.1182 178.549 62.5238 178.549 62.9359V62.9978C178.549 63.4617 178.522 63.9177 178.468 64.3644H180.64V66.8837H177.858C176.316 70.9939 172.308 73.831 167.039 73.831H158.277V66.8837H155.233V64.3644H158.277V61.7201H155.233V59.2008H158.277V52.1682ZM160.727 66.8837V71.571H167.039C170.934 71.571 173.828 69.6937 175.175 66.8837H160.727ZM175.925 64.3644H160.727V61.7201H175.929C175.985 62.1362 176.014 62.5628 176.014 62.9978V63.0596C176.014 63.5046 175.984 63.9402 175.925 64.3644ZM167.039 54.4245C170.952 54.4245 173.854 56.3513 175.193 59.2008H160.727V54.4245H167.039Z" fill="white"/>
</g>
<path fill-rule="evenodd" clip-rule="evenodd" d="M114.769 57.3551C115.357 57.7515 115.357 58.6176 114.769 59.0139L108.559 63.1968C107.894 63.6442 107 63.1683 107 62.3674V54.0016C107 53.2008 107.894 52.7248 108.559 53.1722L114.769 57.3551ZM92 58.1846C92 57.08 91.1046 56.1846 90 56.1846C88.8954 56.1846 88 57.08 88 58.1846C88 59.2891 88.8954 60.1846 90 60.1846C91.1046 60.1846 92 59.2891 92 58.1846ZM101 58.1846C101 57.08 100.105 56.1846 99 56.1846C97.8954 56.1846 97 57.08 97 58.1846C97 59.2891 97.8954 60.1846 99 60.1846C100.105 60.1846 101 59.2891 101 58.1846Z" fill="url(#paint2_linear_1578_19410)"/>
<path fill-rule="evenodd" clip-rule="evenodd" d="M132.769 70.3551C133.357 70.7515 133.357 71.6176 132.769 72.0139L126.559 76.1968C125.894 76.6442 125 76.1683 125 75.3674V67.0016C125 66.2008 125.894 65.7248 126.559 66.1722L132.769 70.3551ZM101 71.1846C101 70.08 100.105 69.1846 99 69.1846C97.8954 69.1846 97 70.08 97 71.1846C97 72.2891 97.8954 73.1846 99 73.1846C100.105 73.1846 101 72.2891 101 71.1846ZM108 69.1846C109.105 69.1846 110 70.08 110 71.1846C110 72.2891 109.105 73.1846 108 73.1846C106.895 73.1846 106 72.2891 106 71.1846C106 70.08 106.895 69.1846 108 69.1846ZM117 69.1846C118.105 69.1846 119 70.08 119 71.1846C119 72.2891 118.105 73.1846 117 73.1846C115.895 73.1846 115 72.2891 115 71.1846C115 70.08 115.895 69.1846 117 69.1846Z" fill="url(#paint3_linear_1578_19410)"/>
<g filter="url(#filter2_d_1578_19410)">
<path d="M46 86C58.7025 86 69 75.7025 69 63C69 50.2975 58.7025 40 46 40C33.2975 40 23 50.2975 23 63C23 75.7025 33.2975 86 46 86Z" fill="url(#paint4_linear_1578_19410)"/>
<path d="M45.9998 51.5V67.3858L38.3333 63.2134L45.9998 51.5Z" fill="white"/>
<path d="M45.9998 51.5L53.6664 63.2134L45.9998 67.3858V51.5Z" fill="white"/>
<path d="M45.9997 68.7229V74.5L38.3333 64.5525L45.9997 68.7229Z" fill="white"/>
<path d="M45.9997 74.5V68.7229L53.6666 64.5525L45.9997 74.5Z" fill="white"/>
</g>
<g filter="url(#filter3_d_1578_19410)">
<rect x="47" y="4" width="127" height="28" rx="14" fill="#575CFE"/>
</g>
<path d="M59.7457 15.995V14.7273H65.7188V15.995H63.4922V22H61.9723V15.995H59.7457ZM67.4872 22.103C67.1392 22.103 66.8291 22.0426 66.5568 21.9219C66.2846 21.7988 66.0691 21.6177 65.9105 21.3786C65.7543 21.1371 65.6761 20.8364 65.6761 20.4766C65.6761 20.1735 65.7318 19.919 65.843 19.7131C65.9543 19.5071 66.1058 19.3414 66.2976 19.2159C66.4893 19.0904 66.7071 18.9957 66.951 18.9318C67.1972 18.8679 67.4553 18.8229 67.7251 18.7969C68.0424 18.7637 68.2981 18.733 68.4922 18.7045C68.6863 18.6738 68.8272 18.6288 68.9148 18.5696C69.0024 18.5104 69.0462 18.4228 69.0462 18.3068V18.2855C69.0462 18.0606 68.9751 17.8866 68.8331 17.7635C68.6934 17.6404 68.4946 17.5788 68.2365 17.5788C67.9643 17.5788 67.7476 17.6392 67.5866 17.7599C67.4257 17.8783 67.3191 18.0275 67.267 18.2074L65.8679 18.0938C65.9389 17.7623 66.0786 17.4759 66.2869 17.2344C66.4953 16.9905 66.764 16.8035 67.093 16.6733C67.4245 16.5407 67.808 16.4744 68.2436 16.4744C68.5466 16.4744 68.8366 16.5099 69.1136 16.581C69.393 16.652 69.6404 16.7621 69.8558 16.9112C70.0736 17.0604 70.2453 17.2521 70.3707 17.4865C70.4962 17.7185 70.5589 17.9967 70.5589 18.321V22H69.1243V21.2436H69.0817C68.9941 21.4141 68.8769 21.5644 68.7301 21.6946C68.5833 21.8224 68.407 21.9231 68.201 21.9964C67.995 22.0675 67.7571 22.103 67.4872 22.103ZM67.9205 21.0589C68.143 21.0589 68.3395 21.0152 68.5099 20.9276C68.6804 20.8376 68.8142 20.7169 68.9112 20.5653C69.0083 20.4138 69.0568 20.2422 69.0568 20.0504V19.4716C69.0095 19.5024 68.9444 19.5308 68.8615 19.5568C68.781 19.5805 68.6899 19.603 68.5881 19.6243C68.4863 19.6432 68.3845 19.661 68.2827 19.6776C68.1809 19.6918 68.0885 19.7048 68.0057 19.7166C67.8281 19.7427 67.6731 19.7841 67.5405 19.8409C67.4079 19.8977 67.3049 19.9747 67.2315 20.0717C67.1581 20.1664 67.1214 20.2848 67.1214 20.4268C67.1214 20.6328 67.196 20.7902 67.3452 20.8991C67.4967 21.0057 67.6884 21.0589 67.9205 21.0589ZM71.7326 22V16.5455H73.1992V17.4972H73.256C73.3555 17.1586 73.5224 16.9029 73.7567 16.7301C73.9911 16.5549 74.261 16.4673 74.5664 16.4673C74.6422 16.4673 74.7238 16.4721 74.8114 16.4815C74.899 16.491 74.976 16.504 75.0423 16.5206V17.8629C74.9712 17.8416 74.873 17.8227 74.7475 17.8061C74.622 17.7895 74.5072 17.7812 74.4031 17.7812C74.1805 17.7812 73.9817 17.8298 73.8065 17.9268C73.6336 18.0215 73.4963 18.1541 73.3945 18.3246C73.2951 18.495 73.2454 18.6915 73.2454 18.9141V22H71.7326ZM78.0279 24.1591C77.5378 24.1591 77.1176 24.0916 76.7672 23.9567C76.4192 23.8241 76.1422 23.643 75.9363 23.4134C75.7303 23.1837 75.5965 22.9257 75.535 22.6392L76.9341 22.451C76.9767 22.5599 77.0442 22.6617 77.1365 22.7564C77.2289 22.8511 77.3508 22.9268 77.5023 22.9837C77.6562 23.0429 77.8432 23.0724 78.0634 23.0724C78.3925 23.0724 78.6635 22.992 78.8766 22.831C79.092 22.6723 79.1998 22.406 79.1998 22.032V21.0341H79.1358C79.0695 21.1856 78.9701 21.3288 78.8375 21.4638C78.705 21.5987 78.5345 21.7088 78.3262 21.794C78.1178 21.8793 77.8693 21.9219 77.5804 21.9219C77.1709 21.9219 76.798 21.8272 76.4618 21.6378C76.128 21.446 75.8617 21.1536 75.6628 20.7607C75.4663 20.3653 75.3681 19.8658 75.3681 19.2621C75.3681 18.6442 75.4687 18.1281 75.6699 17.7138C75.8712 17.2995 76.1387 16.9893 76.4725 16.7834C76.8087 16.5774 77.1768 16.4744 77.5769 16.4744C77.8823 16.4744 78.138 16.5265 78.3439 16.6307C78.5499 16.7325 78.7156 16.8603 78.8411 17.0142C78.9689 17.1657 79.0672 17.3149 79.1358 17.4616H79.1926V16.5455H80.6948V22.0533C80.6948 22.5173 80.5811 22.9055 80.3539 23.218C80.1266 23.5305 79.8117 23.7649 79.4093 23.9212C79.0092 24.0798 78.5487 24.1591 78.0279 24.1591ZM78.0598 20.7855C78.3037 20.7855 78.5096 20.7251 78.6777 20.6044C78.8482 20.4813 78.9784 20.3061 79.0684 20.0788C79.1607 19.8492 79.2069 19.5746 79.2069 19.255C79.2069 18.9354 79.1619 18.6584 79.0719 18.424C78.9819 18.1873 78.8517 18.0038 78.6813 17.8736C78.5108 17.7434 78.3037 17.6783 78.0598 17.6783C77.8113 17.6783 77.6017 17.7457 77.4313 17.8807C77.2608 18.0133 77.1318 18.1979 77.0442 18.4347C76.9566 18.6714 76.9128 18.9448 76.9128 19.255C76.9128 19.5698 76.9566 19.8421 77.0442 20.0717C77.1342 20.299 77.2632 20.4754 77.4313 20.6009C77.6017 20.724 77.8113 20.7855 78.0598 20.7855ZM84.3844 22.1065C83.8233 22.1065 83.3404 21.9929 82.9355 21.7656C82.5331 21.536 82.223 21.2116 82.0051 20.7926C81.7873 20.3712 81.6784 19.8729 81.6784 19.2976C81.6784 18.7365 81.7873 18.2441 82.0051 17.8203C82.223 17.3965 82.5295 17.0663 82.9249 16.8295C83.3226 16.5928 83.789 16.4744 84.324 16.4744C84.6839 16.4744 85.0189 16.5324 85.329 16.6484C85.6415 16.7621 85.9138 16.9337 86.1458 17.1634C86.3801 17.393 86.5624 17.6818 86.6926 18.0298C86.8229 18.3755 86.888 18.7803 86.888 19.2443V19.6598H82.2821V18.7223H85.464C85.464 18.5045 85.4166 18.3116 85.3219 18.1435C85.2272 17.9754 85.0958 17.844 84.9277 17.7493C84.762 17.6522 84.5691 17.6037 84.3489 17.6037C84.1193 17.6037 83.9157 17.657 83.7381 17.7635C83.5629 17.8677 83.4256 18.0085 83.3262 18.1861C83.2267 18.3613 83.1758 18.5566 83.1735 18.772V19.6634C83.1735 19.9332 83.2232 20.1664 83.3226 20.3629C83.4244 20.5594 83.5676 20.7109 83.7523 20.8175C83.937 20.924 84.156 20.9773 84.4093 20.9773C84.5774 20.9773 84.7312 20.9536 84.8709 20.9062C85.0106 20.8589 85.1301 20.7879 85.2296 20.6932C85.329 20.5985 85.4048 20.4825 85.4569 20.3452L86.856 20.4375C86.785 20.7737 86.6394 21.0672 86.4192 21.3182C86.2014 21.5668 85.9197 21.7609 85.574 21.9006C85.2308 22.0379 84.8342 22.1065 84.3844 22.1065ZM90.7765 16.5455V17.6818H87.4917V16.5455H90.7765ZM88.2374 15.2386H89.7502V20.3239C89.7502 20.4635 89.7715 20.5724 89.8141 20.6506C89.8567 20.7263 89.9159 20.7796 89.9917 20.8104C90.0698 20.8411 90.1597 20.8565 90.2615 20.8565C90.3326 20.8565 90.4036 20.8506 90.4746 20.8388C90.5456 20.8246 90.6001 20.8139 90.638 20.8068L90.8759 21.9325C90.8001 21.9562 90.6936 21.9834 90.5563 22.0142C90.419 22.0473 90.2521 22.0675 90.0556 22.0746C89.691 22.0888 89.3714 22.0402 89.0968 21.929C88.8245 21.8177 88.6126 21.6449 88.4611 21.4105C88.3096 21.1761 88.235 20.8802 88.2374 20.5227V15.2386ZM94.1048 22V14.7273H96.9741C97.5257 14.7273 97.9956 14.8326 98.3839 15.0433C98.7721 15.2517 99.0681 15.5417 99.2717 15.9134C99.4776 16.2827 99.5806 16.7088 99.5806 17.1918C99.5806 17.6747 99.4764 18.1009 99.2681 18.4702C99.0598 18.8395 98.7579 19.1271 98.3626 19.3331C97.9696 19.5391 97.4937 19.642 96.935 19.642H95.1062V18.4098H96.6864C96.9824 18.4098 97.2262 18.3589 97.418 18.2571C97.6121 18.1529 97.7565 18.0097 97.8512 17.8274C97.9483 17.6428 97.9968 17.4309 97.9968 17.1918C97.9968 16.9503 97.9483 16.7396 97.8512 16.5597C97.7565 16.3774 97.6121 16.2365 97.418 16.1371C97.2238 16.0353 96.9776 15.9844 96.6793 15.9844H95.6424V22H94.1048ZM100.551 22V16.5455H102.018V17.4972H102.074C102.174 17.1586 102.341 16.9029 102.575 16.7301C102.809 16.5549 103.079 16.4673 103.385 16.4673C103.461 16.4673 103.542 16.4721 103.63 16.4815C103.717 16.491 103.794 16.504 103.861 16.5206V17.8629C103.79 17.8416 103.691 17.8227 103.566 17.8061C103.44 17.7895 103.326 17.7812 103.221 17.7812C102.999 17.7812 102.8 17.8298 102.625 17.9268C102.452 18.0215 102.315 18.1541 102.213 18.3246C102.113 18.495 102.064 18.6915 102.064 18.9141V22H100.551ZM104.643 22V16.5455H106.156V22H104.643ZM105.403 15.8423C105.178 15.8423 104.985 15.7678 104.824 15.6186C104.665 15.4671 104.586 15.286 104.586 15.0753C104.586 14.867 104.665 14.6882 104.824 14.5391C104.985 14.3875 105.178 14.3118 105.403 14.3118C105.628 14.3118 105.819 14.3875 105.978 14.5391C106.139 14.6882 106.219 14.867 106.219 15.0753C106.219 15.286 106.139 15.4671 105.978 15.6186C105.819 15.7678 105.628 15.8423 105.403 15.8423ZM109.832 22.1065C109.273 22.1065 108.793 21.9882 108.39 21.7514C107.99 21.5123 107.682 21.1809 107.467 20.7571C107.254 20.3333 107.147 19.8456 107.147 19.294C107.147 18.7353 107.255 18.2453 107.47 17.8239C107.688 17.4001 107.997 17.0698 108.397 16.8331C108.797 16.594 109.273 16.4744 109.825 16.4744C110.301 16.4744 110.717 16.5608 111.075 16.7337C111.432 16.9065 111.715 17.1491 111.923 17.4616C112.132 17.7741 112.247 18.1411 112.268 18.5625H110.84C110.8 18.2902 110.694 18.0713 110.521 17.9055C110.35 17.7375 110.127 17.6534 109.85 17.6534C109.615 17.6534 109.41 17.7173 109.235 17.8452C109.062 17.9706 108.927 18.1541 108.83 18.3956C108.733 18.6371 108.685 18.9295 108.685 19.2727C108.685 19.6207 108.732 19.9167 108.827 20.1605C108.924 20.4044 109.06 20.5902 109.235 20.718C109.41 20.8459 109.615 20.9098 109.85 20.9098C110.022 20.9098 110.177 20.8743 110.315 20.8033C110.454 20.7322 110.569 20.6293 110.659 20.4943C110.752 20.357 110.812 20.1925 110.84 20.0007H112.268C112.244 20.4174 112.131 20.7843 111.927 21.1016C111.726 21.4164 111.448 21.6626 111.093 21.8402C110.737 22.0178 110.317 22.1065 109.832 22.1065ZM115.722 22.1065C115.161 22.1065 114.678 21.9929 114.273 21.7656C113.871 21.536 113.561 21.2116 113.343 20.7926C113.125 20.3712 113.016 19.8729 113.016 19.2976C113.016 18.7365 113.125 18.2441 113.343 17.8203C113.561 17.3965 113.867 17.0663 114.263 16.8295C114.661 16.5928 115.127 16.4744 115.662 16.4744C116.022 16.4744 116.357 16.5324 116.667 16.6484C116.979 16.7621 117.252 16.9337 117.484 17.1634C117.718 17.393 117.9 17.6818 118.031 18.0298C118.161 18.3755 118.226 18.7803 118.226 19.2443V19.6598H113.62V18.7223H116.802C116.802 18.5045 116.754 18.3116 116.66 18.1435C116.565 17.9754 116.434 17.844 116.266 17.7493C116.1 17.6522 115.907 17.6037 115.687 17.6037C115.457 17.6037 115.254 17.657 115.076 17.7635C114.901 17.8677 114.763 18.0085 114.664 18.1861C114.565 18.3613 114.514 18.5566 114.511 18.772V19.6634C114.511 19.9332 114.561 20.1664 114.661 20.3629C114.762 20.5594 114.906 20.7109 115.09 20.8175C115.275 20.924 115.494 20.9773 115.747 20.9773C115.915 20.9773 116.069 20.9536 116.209 20.9062C116.348 20.8589 116.468 20.7879 116.567 20.6932C116.667 20.5985 116.743 20.4825 116.795 20.3452L118.194 20.4375C118.123 20.7737 117.977 21.0672 117.757 21.3182C117.539 21.5668 117.258 21.7609 116.912 21.9006C116.569 22.0379 116.172 22.1065 115.722 22.1065Z" fill="white"/>
<path d="M126.358 22.9091V13.8182H126.94V22.9091H126.358ZM127.903 16.8189C127.874 16.5324 127.752 16.3099 127.537 16.1513C127.321 15.9927 127.029 15.9134 126.66 15.9134C126.409 15.9134 126.197 15.9489 126.024 16.0199C125.851 16.0885 125.719 16.1844 125.626 16.3075C125.536 16.4306 125.491 16.5703 125.491 16.7266C125.487 16.8568 125.514 16.9704 125.573 17.0675C125.635 17.1645 125.719 17.2486 125.825 17.3196C125.932 17.3883 126.055 17.4486 126.195 17.5007C126.334 17.5504 126.483 17.593 126.642 17.6286L127.295 17.7848C127.613 17.8558 127.904 17.9505 128.169 18.0689C128.434 18.1873 128.664 18.3329 128.858 18.5057C129.052 18.6785 129.202 18.8821 129.309 19.1165C129.418 19.3509 129.473 19.6196 129.476 19.9226C129.473 20.3677 129.36 20.7536 129.135 21.0803C128.912 21.4046 128.59 21.6567 128.169 21.8366C127.75 22.0142 127.244 22.103 126.653 22.103C126.065 22.103 125.554 22.013 125.119 21.8331C124.685 21.6532 124.347 21.3868 124.103 21.0341C123.861 20.679 123.735 20.2398 123.723 19.7166H125.211C125.227 19.9605 125.297 20.1641 125.42 20.3274C125.546 20.4884 125.713 20.6103 125.921 20.6932C126.132 20.7737 126.37 20.8139 126.635 20.8139C126.895 20.8139 127.121 20.776 127.313 20.7003C127.507 20.6245 127.658 20.5192 127.764 20.3842C127.871 20.2493 127.924 20.0942 127.924 19.919C127.924 19.7557 127.875 19.6184 127.778 19.5071C127.684 19.3958 127.544 19.3011 127.359 19.223C127.177 19.1449 126.953 19.0739 126.688 19.0099L125.896 18.8111C125.283 18.6619 124.799 18.4287 124.444 18.1115C124.089 17.7943 123.912 17.367 123.915 16.8295C123.912 16.3892 124.03 16.0045 124.266 15.6754C124.505 15.3464 124.833 15.0895 125.25 14.9048C125.667 14.7202 126.14 14.6278 126.67 14.6278C127.21 14.6278 127.681 14.7202 128.084 14.9048C128.489 15.0895 128.803 15.3464 129.028 15.6754C129.253 16.0045 129.369 16.3857 129.376 16.8189H127.903ZM135.47 22.0994C134.94 22.0994 134.467 22.0083 134.053 21.826C133.641 21.6413 133.316 21.388 133.077 21.0661C132.84 20.7417 132.718 20.3677 132.711 19.9439H134.259C134.269 20.1214 134.327 20.2777 134.433 20.4126C134.542 20.5452 134.686 20.6482 134.866 20.7216C135.046 20.795 135.249 20.8317 135.474 20.8317C135.708 20.8317 135.915 20.7902 136.095 20.7074C136.275 20.6245 136.416 20.5097 136.518 20.3629C136.619 20.2161 136.67 20.0469 136.67 19.8551C136.67 19.661 136.616 19.4893 136.507 19.3402C136.4 19.1887 136.247 19.0703 136.045 18.9851C135.847 18.8999 135.61 18.8572 135.335 18.8572H134.657V17.728H135.335C135.567 17.728 135.772 17.6877 135.949 17.6072C136.129 17.5268 136.269 17.4155 136.369 17.2734C136.468 17.129 136.518 16.9609 136.518 16.7692C136.518 16.5869 136.474 16.4271 136.386 16.2898C136.301 16.1501 136.18 16.0412 136.024 15.9631C135.87 15.8849 135.69 15.8459 135.484 15.8459C135.276 15.8459 135.085 15.8838 134.913 15.9595C134.74 16.0329 134.601 16.1383 134.497 16.2756C134.393 16.4129 134.337 16.5739 134.33 16.7585H132.856C132.864 16.3395 132.983 15.9702 133.215 15.6506C133.447 15.331 133.76 15.0812 134.153 14.9013C134.548 14.719 134.994 14.6278 135.491 14.6278C135.993 14.6278 136.432 14.719 136.809 14.9013C137.185 15.0836 137.478 15.3298 137.686 15.6399C137.897 15.9477 138.001 16.2933 137.998 16.6768C138.001 17.084 137.874 17.4238 137.619 17.696C137.365 17.9683 137.035 18.1411 136.628 18.2145V18.2713C137.163 18.34 137.57 18.5258 137.849 18.8288C138.131 19.1295 138.271 19.5059 138.268 19.9581C138.271 20.3724 138.151 20.7405 137.91 21.0625C137.671 21.3845 137.34 21.6378 136.919 21.8224C136.498 22.0071 136.015 22.0994 135.47 22.0994ZM140.827 21.0057L140.788 21.3963C140.757 21.7088 140.698 22.0201 140.61 22.3303C140.525 22.6428 140.435 22.9257 140.34 23.179C140.248 23.4323 140.174 23.6312 140.117 23.7756H139.137C139.172 23.6359 139.221 23.4406 139.282 23.1896C139.344 22.9411 139.402 22.6617 139.456 22.3516C139.511 22.0414 139.545 21.7254 139.559 21.4034L139.577 21.0057H140.827ZM142.196 22V20.892L144.785 18.495C145.005 18.282 145.19 18.0902 145.339 17.9197C145.49 17.7493 145.605 17.5824 145.683 17.419C145.761 17.2533 145.8 17.0746 145.8 16.8828C145.8 16.6697 145.752 16.4863 145.655 16.3324C145.558 16.1761 145.425 16.0566 145.257 15.9737C145.089 15.8885 144.898 15.8459 144.685 15.8459C144.463 15.8459 144.269 15.8909 144.103 15.9808C143.937 16.0708 143.809 16.1998 143.719 16.3679C143.629 16.536 143.584 16.736 143.584 16.968H142.125C142.125 16.4922 142.233 16.0791 142.448 15.7287C142.664 15.3783 142.965 15.1072 143.354 14.9155C143.742 14.7237 144.189 14.6278 144.696 14.6278C145.217 14.6278 145.67 14.7202 146.056 14.9048C146.444 15.0871 146.746 15.3404 146.962 15.6648C147.177 15.9891 147.285 16.3608 147.285 16.7798C147.285 17.0545 147.23 17.3255 147.121 17.593C147.015 17.8606 146.824 18.1577 146.55 18.4844C146.275 18.8087 145.888 19.1982 145.388 19.6527L144.327 20.6932V20.7429H147.381V22H142.196ZM151.346 22.1598C150.736 22.1574 150.21 22.0071 149.77 21.7088C149.332 21.4105 148.994 20.9785 148.758 20.4126C148.523 19.8468 148.407 19.1662 148.41 18.3707C148.41 17.5777 148.527 16.9018 148.761 16.343C148.998 15.7843 149.335 15.3594 149.773 15.0682C150.214 14.7746 150.738 14.6278 151.346 14.6278C151.955 14.6278 152.478 14.7746 152.916 15.0682C153.356 15.3617 153.695 15.7879 153.932 16.3466C154.168 16.9029 154.285 17.5777 154.283 18.3707C154.283 19.1686 154.165 19.8504 153.928 20.4162C153.694 20.982 153.357 21.4141 152.919 21.7124C152.482 22.0107 151.957 22.1598 151.346 22.1598ZM151.346 20.8849C151.763 20.8849 152.096 20.6754 152.344 20.2564C152.593 19.8374 152.716 19.2088 152.714 18.3707C152.714 17.8191 152.657 17.3598 152.543 16.9929C152.432 16.6259 152.273 16.3501 152.067 16.1655C151.864 15.9808 151.623 15.8885 151.346 15.8885C150.932 15.8885 150.601 16.0956 150.352 16.5099C150.103 16.9242 149.978 17.5445 149.976 18.3707C149.976 18.9295 150.031 19.3958 150.142 19.7699C150.256 20.1416 150.416 20.4209 150.622 20.608C150.828 20.7926 151.069 20.8849 151.346 20.8849ZM158.231 22.1598C157.62 22.1574 157.095 22.0071 156.654 21.7088C156.216 21.4105 155.879 20.9785 155.642 20.4126C155.408 19.8468 155.292 19.1662 155.294 18.3707C155.294 17.5777 155.411 16.9018 155.646 16.343C155.883 15.7843 156.22 15.3594 156.658 15.0682C157.098 14.7746 157.623 14.6278 158.231 14.6278C158.84 14.6278 159.363 14.7746 159.801 15.0682C160.241 15.3617 160.58 15.7879 160.816 16.3466C161.053 16.9029 161.17 17.5777 161.168 18.3707C161.168 19.1686 161.05 19.8504 160.813 20.4162C160.578 20.982 160.242 21.4141 159.804 21.7124C159.366 22.0107 158.842 22.1598 158.231 22.1598ZM158.231 20.8849C158.648 20.8849 158.98 20.6754 159.229 20.2564C159.478 19.8374 159.601 19.2088 159.598 18.3707C159.598 17.8191 159.541 17.3598 159.428 16.9929C159.317 16.6259 159.158 16.3501 158.952 16.1655C158.748 15.9808 158.508 15.8885 158.231 15.8885C157.817 15.8885 157.485 16.0956 157.237 16.5099C156.988 16.9242 156.863 17.5445 156.86 18.3707C156.86 18.9295 156.916 19.3958 157.027 19.7699C157.141 20.1416 157.301 20.4209 157.507 20.608C157.713 20.7926 157.954 20.8849 158.231 20.8849Z" fill="white"/>
<defs>
<filter id="filter0_d_1578_19410" x="171" y="41" width="43" height="43" filterUnits="userSpaceOnUse" color-interpolation-filters="sRGB">
<feFlood flood-opacity="0" result="BackgroundImageFix"/>
<feColorMatrix in="SourceAlpha" type="matrix" values="0 0 0 0 0 0 0 0 0 0 0 0 0 0 0 0 0 0 127 0" result="hardAlpha"/>
<feOffset/>
<feGaussianBlur stdDeviation="2"/>
<feComposite in2="hardAlpha" operator="out"/>
<feColorMatrix type="matrix" values="0 0 0 0 0 0 0 0 0 0 0 0 0 0 0 0 0 0 0.15 0"/>
<feBlend mode="normal" in2="BackgroundImageFix" result="effect1_dropShadow_1578_19410"/>
<feBlend mode="normal" in="SourceGraphic" in2="effect1_dropShadow_1578_19410" result="shape"/>
</filter>
<filter id="filter1_d_1578_19410" x="140" y="36" width="54" height="54" filterUnits="userSpaceOnUse" color-interpolation-filters="sRGB">
<feFlood flood-opacity="0" result="BackgroundImageFix"/>
<feColorMatrix in="SourceAlpha" type="matrix" values="0 0 0 0 0 0 0 0 0 0 0 0 0 0 0 0 0 0 127 0" result="hardAlpha"/>
<feOffset/>
<feGaussianBlur stdDeviation="2"/>
<feComposite in2="hardAlpha" operator="out"/>
<feColorMatrix type="matrix" values="0 0 0 0 0 0 0 0 0 0 0 0 0 0 0 0 0 0 0.15 0"/>
<feBlend mode="normal" in2="BackgroundImageFix" result="effect1_dropShadow_1578_19410"/>
<feBlend mode="normal" in="SourceGraphic" in2="effect1_dropShadow_1578_19410" result="shape"/>
</filter>
<filter id="filter2_d_1578_19410" x="19" y="36" width="54" height="54" filterUnits="userSpaceOnUse" color-interpolation-filters="sRGB">
<feFlood flood-opacity="0" result="BackgroundImageFix"/>
<feColorMatrix in="SourceAlpha" type="matrix" values="0 0 0 0 0 0 0 0 0 0 0 0 0 0 0 0 0 0 127 0" result="hardAlpha"/>
<feOffset/>
<feGaussianBlur stdDeviation="2"/>
<feComposite in2="hardAlpha" operator="out"/>
<feColorMatrix type="matrix" values="0 0 0 0 0 0 0 0 0 0 0 0 0 0 0 0 0 0 0.15 0"/>
<feBlend mode="normal" in2="BackgroundImageFix" result="effect1_dropShadow_1578_19410"/>
<feBlend mode="normal" in="SourceGraphic" in2="effect1_dropShadow_1578_19410" result="shape"/>
</filter>
<filter id="filter3_d_1578_19410" x="43" y="0" width="135" height="36" filterUnits="userSpaceOnUse" color-interpolation-filters="sRGB">
<feFlood flood-opacity="0" result="BackgroundImageFix"/>
<feColorMatrix in="SourceAlpha" type="matrix" values="0 0 0 0 0 0 0 0 0 0 0 0 0 0 0 0 0 0 127 0" result="hardAlpha"/>
<feOffset/>
<feGaussianBlur stdDeviation="2"/>
<feComposite in2="hardAlpha" operator="out"/>
<feColorMatrix type="matrix" values="0 0 0 0 0 0 0 0 0 0 0 0 0 0 0 0 0 0 0.15 0"/>
<feBlend mode="normal" in2="BackgroundImageFix" result="effect1_dropShadow_1578_19410"/>
<feBlend mode="normal" in="SourceGraphic" in2="effect1_dropShadow_1578_19410" result="shape"/>
</filter>
<linearGradient id="paint0_linear_1578_19410" x1="176.242" y1="62.5006" x2="209.786" y2="88.7506" gradientUnits="userSpaceOnUse">
<stop stop-color="#6580EB"/>
<stop offset="1" stop-color="#8EA2F2"/>
</linearGradient>
<linearGradient id="paint1_linear_1578_19410" x1="167" y1="33.4833" x2="167" y2="90.83" gradientUnits="userSpaceOnUse">
<stop stop-color="#F9A606"/>
<stop offset="1" stop-color="#FBCC5F"/>
</linearGradient>
<linearGradient id="paint2_linear_1578_19410" x1="113.549" y1="58.3691" x2="92.5058" y2="58.6515" gradientUnits="userSpaceOnUse">
<stop stop-color="#25273D"/>
<stop offset="1" stop-color="#787A9B" stop-opacity="0.4"/>
</linearGradient>
<linearGradient id="paint3_linear_1578_19410" x1="131" y1="71.3691" x2="103" y2="71.8691" gradientUnits="userSpaceOnUse">
<stop stop-color="#25273D"/>
<stop offset="1" stop-color="#787A9B" stop-opacity="0.4"/>
</linearGradient>
<linearGradient id="paint4_linear_1578_19410" x1="24.6324" y1="63.0008" x2="68.7187" y2="97.5007" gradientUnits="userSpaceOnUse">
<stop stop-color="#6580EB"/>
<stop offset="1" stop-color="#8EA2F2"/>
</linearGradient>
</defs>
</svg>
