<svg width="224" height="148" viewBox="0 0 224 148" fill="none" xmlns="http://www.w3.org/2000/svg">
<rect opacity="0.7" x="12" width="199" height="148" rx="16" fill="white"/>
<rect opacity="0.3" x="27" y="72.2119" width="169" height="5" rx="2.5" fill="url(#paint0_radial_672_4823)"/>
<rect x="69" y="72.2119" width="85" height="5" rx="2.5" fill="url(#paint1_radial_672_4823)"/>
<circle cx="68.5" cy="74.7119" r="5.5" fill="url(#paint2_linear_672_4823)"/>
<circle cx="152.5" cy="74.7119" r="5.5" fill="url(#paint3_linear_672_4823)"/>
<g filter="url(#filter0_f_672_4823)">
<path d="M105.548 30C97.5135 30 91 36.5135 91 44.5484C91 52.5832 97.5135 59.0968 105.548 59.0968H106.834L110.683 64.5519C111.081 65.1164 111.919 65.1164 112.317 64.5519L116.166 59.0968H117.452C125.486 59.0968 132 52.5832 132 44.5484C132 36.5135 125.486 30 117.452 30H105.548Z" fill="black" fill-opacity="0.2"/>
</g>
<path d="M105.548 30C97.5135 30 91 36.5135 91 44.5484C91 52.5832 97.5135 59.0968 105.548 59.0968H106.834L110.683 64.5519C111.081 65.1164 111.919 65.1164 112.317 64.5519L116.166 59.0968H117.452C125.486 59.0968 132 52.5832 132 44.5484C132 36.5135 125.486 30 117.452 30H105.548Z" fill="url(#paint4_linear_672_4823)"/>
<path d="M105.453 48.4341V46.917L108.636 44.1301C108.875 43.9142 109.078 43.7168 109.245 43.5378C109.413 43.356 109.541 43.1741 109.629 42.9923C109.717 42.8077 109.761 42.6074 109.761 42.3915C109.761 42.15 109.708 41.944 109.603 41.7736C109.498 41.6003 109.353 41.4668 109.169 41.373C108.984 41.2793 108.772 41.2324 108.534 41.2324C108.292 41.2324 108.081 41.2821 107.899 41.3815C107.717 41.4781 107.575 41.6187 107.473 41.8034C107.373 41.9881 107.323 42.2125 107.323 42.4767H105.325C105.325 41.8829 105.458 41.3702 105.725 40.9383C105.992 40.5065 106.367 40.1741 106.85 39.9412C107.336 39.7054 107.9 39.5875 108.542 39.5875C109.204 39.5875 109.779 39.6983 110.268 39.9199C110.757 40.1415 111.134 40.4511 111.402 40.8489C111.671 41.2437 111.806 41.7025 111.806 42.2253C111.806 42.5577 111.74 42.8872 111.606 43.2139C111.473 43.5406 111.232 43.9014 110.886 44.2963C110.542 44.6912 110.054 45.1642 109.42 45.7153L108.376 46.6784V46.7338H111.913V48.4341H105.453ZM114.895 41.8886L115.973 44.0449L117.089 41.8886H119.19L117.362 45.1614L119.258 48.4341H117.175L115.973 46.2608L114.801 48.4341H112.687L114.588 45.1614L112.781 41.8886H114.895Z" fill="url(#paint5_linear_672_4823)"/>
<path d="M105.453 48.4341V46.917L108.636 44.1301C108.875 43.9142 109.078 43.7168 109.245 43.5378C109.413 43.356 109.541 43.1741 109.629 42.9923C109.717 42.8077 109.761 42.6074 109.761 42.3915C109.761 42.15 109.708 41.944 109.603 41.7736C109.498 41.6003 109.353 41.4668 109.169 41.373C108.984 41.2793 108.772 41.2324 108.534 41.2324C108.292 41.2324 108.081 41.2821 107.899 41.3815C107.717 41.4781 107.575 41.6187 107.473 41.8034C107.373 41.9881 107.323 42.2125 107.323 42.4767H105.325C105.325 41.8829 105.458 41.3702 105.725 40.9383C105.992 40.5065 106.367 40.1741 106.85 39.9412C107.336 39.7054 107.9 39.5875 108.542 39.5875C109.204 39.5875 109.779 39.6983 110.268 39.9199C110.757 40.1415 111.134 40.4511 111.402 40.8489C111.671 41.2437 111.806 41.7025 111.806 42.2253C111.806 42.5577 111.74 42.8872 111.606 43.2139C111.473 43.5406 111.232 43.9014 110.886 44.2963C110.542 44.6912 110.054 45.1642 109.42 45.7153L108.376 46.6784V46.7338H111.913V48.4341H105.453ZM114.895 41.8886L115.973 44.0449L117.089 41.8886H119.19L117.362 45.1614L119.258 48.4341H117.175L115.973 46.2608L114.801 48.4341H112.687L114.588 45.1614L112.781 41.8886H114.895Z" fill="url(#paint6_radial_672_4823)"/>
<path d="M105.453 48.4341V46.917L108.636 44.1301C108.875 43.9142 109.078 43.7168 109.245 43.5378C109.413 43.356 109.541 43.1741 109.629 42.9923C109.717 42.8077 109.761 42.6074 109.761 42.3915C109.761 42.15 109.708 41.944 109.603 41.7736C109.498 41.6003 109.353 41.4668 109.169 41.373C108.984 41.2793 108.772 41.2324 108.534 41.2324C108.292 41.2324 108.081 41.2821 107.899 41.3815C107.717 41.4781 107.575 41.6187 107.473 41.8034C107.373 41.9881 107.323 42.2125 107.323 42.4767H105.325C105.325 41.8829 105.458 41.3702 105.725 40.9383C105.992 40.5065 106.367 40.1741 106.85 39.9412C107.336 39.7054 107.9 39.5875 108.542 39.5875C109.204 39.5875 109.779 39.6983 110.268 39.9199C110.757 40.1415 111.134 40.4511 111.402 40.8489C111.671 41.2437 111.806 41.7025 111.806 42.2253C111.806 42.5577 111.74 42.8872 111.606 43.2139C111.473 43.5406 111.232 43.9014 110.886 44.2963C110.542 44.6912 110.054 45.1642 109.42 45.7153L108.376 46.6784V46.7338H111.913V48.4341H105.453ZM114.895 41.8886L115.973 44.0449L117.089 41.8886H119.19L117.362 45.1614L119.258 48.4341H117.175L115.973 46.2608L114.801 48.4341H112.687L114.588 45.1614L112.781 41.8886H114.895Z" fill="url(#paint7_radial_672_4823)"/>
<rect x="27" y="103" width="169" height="20" rx="10" fill="#EDEDFF"/>
<path d="M46.5085 109.682V115.5H45.4545V110.707H45.4205L44.0597 111.577V110.611L45.5057 109.682H46.5085ZM48.8381 111.136L49.7188 112.747L50.6136 111.136H51.7017L50.3864 113.318L51.7244 115.5H50.642L49.7188 113.929L48.804 115.5H47.7131L49.0426 113.318L47.7472 111.136H48.8381Z" fill="#878BFC"/>
<g filter="url(#filter1_d_672_4823)">
<rect x="69.25" y="103" width="42.25" height="20" rx="10" fill="#5C5FFE"/>
<path d="M85.8466 115.5V114.614L87.9176 112.696C88.0938 112.526 88.2415 112.372 88.3608 112.236C88.482 112.099 88.5739 111.966 88.6364 111.835C88.6989 111.703 88.7301 111.56 88.7301 111.406C88.7301 111.236 88.6913 111.089 88.6136 110.966C88.536 110.841 88.4299 110.745 88.2955 110.679C88.161 110.611 88.0085 110.577 87.8381 110.577C87.66 110.577 87.5047 110.613 87.3722 110.685C87.2396 110.757 87.1373 110.86 87.0653 110.994C86.9934 111.129 86.9574 111.289 86.9574 111.474H85.7898C85.7898 111.094 85.8759 110.763 86.0483 110.483C86.2206 110.203 86.4621 109.986 86.7727 109.832C87.0833 109.679 87.4413 109.602 87.8466 109.602C88.2633 109.602 88.6259 109.676 88.9347 109.824C89.2453 109.97 89.4867 110.172 89.6591 110.432C89.8314 110.691 89.9176 110.989 89.9176 111.324C89.9176 111.544 89.8741 111.76 89.7869 111.974C89.7017 112.188 89.5492 112.426 89.3295 112.688C89.1098 112.947 88.8002 113.259 88.4006 113.622L87.5511 114.455V114.494H89.9943V115.5H85.8466ZM91.9084 111.136L92.7095 112.662L93.5305 111.136H94.772L93.5078 113.318L94.8061 115.5H93.5703L92.7095 113.991L91.8629 115.5H90.6129L91.9084 113.318L90.6584 111.136H91.9084Z" fill="white"/>
</g>
<path d="M130.23 115.58C129.821 115.58 129.457 115.509 129.139 115.369C128.823 115.229 128.573 115.034 128.389 114.784C128.205 114.534 128.108 114.245 128.097 113.918H129.165C129.174 114.075 129.226 114.212 129.321 114.33C129.416 114.445 129.542 114.535 129.699 114.599C129.856 114.664 130.032 114.696 130.227 114.696C130.436 114.696 130.62 114.66 130.781 114.588C130.942 114.514 131.068 114.412 131.159 114.281C131.25 114.151 131.295 114 131.293 113.83C131.295 113.653 131.249 113.498 131.156 113.364C131.063 113.229 130.929 113.124 130.753 113.048C130.579 112.973 130.368 112.935 130.122 112.935H129.608V112.122H130.122C130.325 112.122 130.502 112.087 130.653 112.017C130.807 111.947 130.927 111.848 131.014 111.722C131.101 111.593 131.144 111.444 131.142 111.276C131.144 111.111 131.107 110.968 131.031 110.847C130.957 110.723 130.852 110.628 130.716 110.56C130.581 110.491 130.423 110.457 130.241 110.457C130.063 110.457 129.899 110.49 129.747 110.554C129.596 110.618 129.473 110.71 129.381 110.83C129.288 110.947 129.239 111.087 129.233 111.25H128.219C128.226 110.924 128.32 110.638 128.5 110.392C128.682 110.144 128.924 109.951 129.227 109.812C129.53 109.672 129.87 109.602 130.247 109.602C130.635 109.602 130.973 109.675 131.259 109.821C131.546 109.965 131.769 110.159 131.926 110.403C132.083 110.648 132.162 110.918 132.162 111.213C132.164 111.541 132.067 111.815 131.872 112.037C131.679 112.259 131.425 112.403 131.111 112.472V112.517C131.52 112.574 131.833 112.725 132.051 112.972C132.271 113.216 132.38 113.52 132.378 113.884C132.378 114.209 132.285 114.501 132.099 114.759C131.916 115.014 131.662 115.215 131.338 115.361C131.016 115.507 130.647 115.58 130.23 115.58ZM134.205 111.136L135.086 112.747L135.981 111.136H137.069L135.754 113.318L137.092 115.5H136.009L135.086 113.929L134.171 115.5H133.08L134.41 113.318L133.114 111.136H134.205Z" fill="#878BFC"/>
<path d="M170.287 114.42V113.582L172.756 109.682H173.455V110.875H173.028L171.366 113.509V113.554H174.812V114.42H170.287ZM173.062 115.5V114.165L173.074 113.79V109.682H174.068V115.5H173.062ZM176.572 111.136L177.453 112.747L178.348 111.136H179.436L178.121 113.318L179.459 115.5H178.376L177.453 113.929L176.538 115.5H175.447L176.777 113.318L175.482 111.136H176.572Z" fill="#878BFC"/>
<defs>
<filter id="filter0_f_672_4823" x="87" y="26" width="49" height="42.9753" filterUnits="userSpaceOnUse" color-interpolation-filters="sRGB">
<feFlood flood-opacity="0" result="BackgroundImageFix"/>
<feBlend mode="normal" in="SourceGraphic" in2="BackgroundImageFix" result="shape"/>
<feGaussianBlur stdDeviation="2" result="effect1_foregroundBlur_672_4823"/>
</filter>
<filter id="filter1_d_672_4823" x="65.25" y="99" width="50.25" height="28" filterUnits="userSpaceOnUse" color-interpolation-filters="sRGB">
<feFlood flood-opacity="0" result="BackgroundImageFix"/>
<feColorMatrix in="SourceAlpha" type="matrix" values="0 0 0 0 0 0 0 0 0 0 0 0 0 0 0 0 0 0 127 0" result="hardAlpha"/>
<feOffset/>
<feGaussianBlur stdDeviation="2"/>
<feComposite in2="hardAlpha" operator="out"/>
<feColorMatrix type="matrix" values="0 0 0 0 0 0 0 0 0 0 0 0 0 0 0 0 0 0 0.1 0"/>
<feBlend mode="normal" in2="BackgroundImageFix" result="effect1_dropShadow_672_4823"/>
<feBlend mode="normal" in="SourceGraphic" in2="effect1_dropShadow_672_4823" result="shape"/>
</filter>
<radialGradient id="paint0_radial_672_4823" cx="0" cy="0" r="1" gradientUnits="userSpaceOnUse" gradientTransform="translate(45.7778 73.323) rotate(1.46462) scale(126.791 20.1786)">
<stop stop-color="#FFCCEB"/>
<stop offset="0.473958" stop-color="#BFC6FF"/>
<stop offset="1" stop-color="#96E4D2"/>
</radialGradient>
<radialGradient id="paint1_radial_672_4823" cx="0" cy="0" r="1" gradientUnits="userSpaceOnUse" gradientTransform="translate(78.4444 73.323) rotate(2.91013) scale(63.8323 20.1592)">
<stop stop-color="#FFCCEB"/>
<stop offset="0.473958" stop-color="#BFC6FF"/>
<stop offset="1" stop-color="#96E4D2"/>
</radialGradient>
<linearGradient id="paint2_linear_672_4823" x1="74" y1="80.2119" x2="64.4975" y2="74.5295" gradientUnits="userSpaceOnUse">
<stop stop-color="#25273D"/>
<stop offset="1" stop-color="#8F91AB"/>
</linearGradient>
<linearGradient id="paint3_linear_672_4823" x1="147" y1="69.2119" x2="157.505" y2="80.4869" gradientUnits="userSpaceOnUse">
<stop stop-color="#2A30EE"/>
<stop offset="1" stop-color="#A4A6FF"/>
</linearGradient>
<linearGradient id="paint4_linear_672_4823" x1="91" y1="30" x2="123.621" y2="71.043" gradientUnits="userSpaceOnUse">
<stop stop-color="#2A30EE"/>
<stop offset="1" stop-color="#A4A6FF"/>
</linearGradient>
<linearGradient id="paint5_linear_672_4823" x1="111.389" y1="51.4341" x2="111.508" y2="36.4348" gradientUnits="userSpaceOnUse">
<stop stop-color="#F2EDFF"/>
<stop offset="0.40625" stop-color="#F6EEF9"/>
<stop offset="1" stop-color="#FCEFF1"/>
</linearGradient>
<radialGradient id="paint6_radial_672_4823" cx="0" cy="0" r="1" gradientUnits="userSpaceOnUse" gradientTransform="translate(104.798 36.4341) rotate(38.1915) scale(18.8905 50.9921)">
<stop stop-color="#BFFFF0"/>
<stop offset="0.336378" stop-color="#FEFFC7" stop-opacity="0"/>
</radialGradient>
<radialGradient id="paint7_radial_672_4823" cx="0" cy="0" r="1" gradientUnits="userSpaceOnUse" gradientTransform="translate(104.798 36.4341) rotate(38.1915) scale(18.8905 50.9921)">
<stop offset="0.666667" stop-color="#FEFFC7" stop-opacity="0"/>
<stop offset="1" stop-color="#CEFFE6" stop-opacity="0.767746"/>
</radialGradient>
</defs>
</svg>
