<svg width="199" height="145" viewBox="0 0 199 145" fill="none" xmlns="http://www.w3.org/2000/svg">
<rect opacity="0.5" x="0.5" y="29.5" width="198" height="115" rx="14.5" fill="url(#paint0_linear_2496_1456)" stroke="white"/>
<path d="M92 92L113 92" stroke="url(#paint1_linear_2496_1456)" stroke-width="2" stroke-linecap="round" stroke-dasharray="2 6"/>
<path d="M69 92L82 92" stroke="url(#paint2_linear_2496_1456)" stroke-width="2" stroke-linecap="round" stroke-dasharray="2 6"/>
<path d="M16 92L61 92" stroke="url(#paint3_linear_2496_1456)" stroke-width="2" stroke-linecap="round" stroke-dasharray="2 6"/>
<path d="M127 92L152 92" stroke="url(#paint4_linear_2496_1456)" stroke-width="2" stroke-linecap="round" stroke-dasharray="2 6"/>
<path d="M177 92L184 92" stroke="url(#paint5_linear_2496_1456)" stroke-width="2" stroke-linecap="round" stroke-dasharray="2 6"/>
<g opacity="0.55">
<path d="M18 105C42 105 32.515 119.5 51.5 119.5C65.6036 119.5 63.2316 82 76 82C88.7684 82 88.5 111 101 111C113.5 111 115 91 119 91C123 91 125 111 135.5 111C145 111 145.797 95.5174 154.5 93C161.253 91.0469 165.6 93 172 91C178.4 89 180.333 80.8333 180.5 77" stroke="black" stroke-width="2"/>
<path d="M18 105C42 105 32.515 119.5 51.5 119.5C65.6036 119.5 63.2316 82 76 82C88.7684 82 88.5 111 101 111C113.5 111 115 91 119 91C123 91 125 111 135.5 111C145 111 145.797 95.5174 154.5 93C161.253 91.0469 165.6 93 172 91C178.4 89 180.333 80.8333 180.5 77" stroke="url(#paint6_linear_2496_1456)" stroke-width="2"/>
</g>
<g opacity="0.3">
<circle cx="50" cy="119" r="7" fill="url(#paint7_linear_2496_1456)"/>
<circle cx="50" cy="119" r="7" fill="url(#paint8_linear_2496_1456)"/>
</g>
<circle cx="50" cy="119" r="4" fill="url(#paint9_linear_2496_1456)"/>
<circle cx="50" cy="119" r="4" fill="url(#paint10_linear_2496_1456)"/>
<circle cx="119" cy="92" r="3" fill="url(#paint11_linear_2496_1456)"/>
<circle cx="119" cy="92" r="3" fill="url(#paint12_linear_2496_1456)"/>
<circle cx="119" cy="92" r="3" fill="#FC855C"/>
<circle cx="135.5" cy="110.5" r="2.5" fill="#17344F"/>
<circle cx="101.5" cy="110.5" r="2.5" fill="#17344F"/>
<path d="M183 66H16" stroke="url(#paint13_linear_2496_1456)" stroke-width="2" stroke-linecap="round" stroke-dasharray="2 6"/>
<path d="M183 66H16" stroke="url(#paint14_linear_2496_1456)" stroke-width="2" stroke-linecap="round" stroke-dasharray="2 6"/>
<path d="M35 118H16" stroke="#6D7B85" stroke-width="2" stroke-linecap="round" stroke-dasharray="2 6"/>
<path d="M35 118H16" stroke="url(#paint15_linear_2496_1456)" stroke-width="2" stroke-linecap="round" stroke-dasharray="2 6"/>
<path d="M183 118H62" stroke="#6D7B85" stroke-width="2" stroke-linecap="round" stroke-dasharray="2 6"/>
<path d="M183 118H62" stroke="url(#paint16_linear_2496_1456)" stroke-width="2" stroke-linecap="round" stroke-dasharray="2 6"/>
<g filter="url(#filter0_d_2496_1456)">
<circle cx="100" cy="30" r="21" fill="url(#paint17_linear_2496_1456)"/>
<circle cx="100" cy="30" r="21" fill="url(#paint18_linear_2496_1456)"/>
<circle cx="100" cy="30" r="21" fill="url(#paint19_linear_2496_1456)"/>
<circle cx="100" cy="30" r="21.5" stroke="white"/>
</g>
<path d="M109 30C109 34.9706 104.971 39 100 39C95.0294 39 91 34.9706 91 30" stroke="white" stroke-width="3"/>
<path d="M100 31V22" stroke="white" stroke-width="3" stroke-linecap="round" stroke-linejoin="round"/>
<path d="M100 19L104.33 24.75H95.6699L100 19Z" fill="white"/>
<defs>
<filter id="filter0_d_2496_1456" x="70" y="0" width="60" height="60" filterUnits="userSpaceOnUse" color-interpolation-filters="sRGB">
<feFlood flood-opacity="0" result="BackgroundImageFix"/>
<feColorMatrix in="SourceAlpha" type="matrix" values="0 0 0 0 0 0 0 0 0 0 0 0 0 0 0 0 0 0 127 0" result="hardAlpha"/>
<feOffset/>
<feGaussianBlur stdDeviation="4"/>
<feComposite in2="hardAlpha" operator="out"/>
<feColorMatrix type="matrix" values="0 0 0 0 0 0 0 0 0 0 0 0 0 0 0 0 0 0 0.1 0"/>
<feBlend mode="normal" in2="BackgroundImageFix" result="effect1_dropShadow_2496_1456"/>
<feBlend mode="normal" in="SourceGraphic" in2="effect1_dropShadow_2496_1456" result="shape"/>
</filter>
<linearGradient id="paint0_linear_2496_1456" x1="0" y1="29" x2="100.938" y2="202.162" gradientUnits="userSpaceOnUse">
<stop offset="0.0265018" stop-color="#6FD9FF"/>
<stop offset="0.375" stop-color="#F2FCFF"/>
<stop offset="0.651042" stop-color="#FFE7D8"/>
<stop offset="1" stop-color="#FBB677"/>
</linearGradient>
<linearGradient id="paint1_linear_2496_1456" x1="111.718" y1="92.4822" x2="95.6597" y2="90.7577" gradientUnits="userSpaceOnUse">
<stop stop-color="#25273D"/>
<stop offset="1" stop-color="#787A9B" stop-opacity="0.4"/>
</linearGradient>
<linearGradient id="paint2_linear_2496_1456" x1="81.2066" y1="92.4822" x2="71.1951" y2="91.8167" gradientUnits="userSpaceOnUse">
<stop stop-color="#25273D"/>
<stop offset="1" stop-color="#787A9B" stop-opacity="0.4"/>
</linearGradient>
<linearGradient id="paint3_linear_2496_1456" x1="58.2535" y1="92.4822" x2="25.1959" y2="84.8752" gradientUnits="userSpaceOnUse">
<stop stop-color="#25273D"/>
<stop offset="1" stop-color="#787A9B" stop-opacity="0.4"/>
</linearGradient>
<linearGradient id="paint4_linear_2496_1456" x1="150.474" y1="92.4822" x2="131.447" y2="90.0498" gradientUnits="userSpaceOnUse">
<stop stop-color="#25273D"/>
<stop offset="1" stop-color="#787A9B" stop-opacity="0.4"/>
</linearGradient>
<linearGradient id="paint5_linear_2496_1456" x1="183.573" y1="92.4822" x2="178.165" y2="92.2886" gradientUnits="userSpaceOnUse">
<stop stop-color="#25273D"/>
<stop offset="1" stop-color="#787A9B" stop-opacity="0.4"/>
</linearGradient>
<linearGradient id="paint6_linear_2496_1456" x1="89" y1="55" x2="89" y2="105" gradientUnits="userSpaceOnUse">
<stop stop-color="#FB855C"/>
<stop offset="1" stop-color="#FBA85C"/>
</linearGradient>
<linearGradient id="paint7_linear_2496_1456" x1="50" y1="112" x2="50" y2="126" gradientUnits="userSpaceOnUse">
<stop stop-color="#FB855C"/>
<stop offset="1" stop-color="#FBA85C"/>
</linearGradient>
<linearGradient id="paint8_linear_2496_1456" x1="43" y1="112" x2="59.743" y2="120.753" gradientUnits="userSpaceOnUse">
<stop stop-color="#0689AD"/>
<stop offset="0.557292" stop-color="#E7A77F"/>
<stop offset="1" stop-color="#E97047"/>
</linearGradient>
<linearGradient id="paint9_linear_2496_1456" x1="50" y1="115" x2="50" y2="123" gradientUnits="userSpaceOnUse">
<stop stop-color="#FB855C"/>
<stop offset="1" stop-color="#FBA85C"/>
</linearGradient>
<linearGradient id="paint10_linear_2496_1456" x1="46" y1="115" x2="55.5674" y2="120.002" gradientUnits="userSpaceOnUse">
<stop stop-color="#0689AD"/>
<stop offset="0.557292" stop-color="#E7A77F"/>
<stop offset="1" stop-color="#E97047"/>
</linearGradient>
<linearGradient id="paint11_linear_2496_1456" x1="119" y1="89" x2="119" y2="95" gradientUnits="userSpaceOnUse">
<stop stop-color="#FB855C"/>
<stop offset="1" stop-color="#FBA85C"/>
</linearGradient>
<linearGradient id="paint12_linear_2496_1456" x1="116" y1="89" x2="123.176" y2="92.7513" gradientUnits="userSpaceOnUse">
<stop stop-color="#0689AD"/>
<stop offset="0.557292" stop-color="#E7A77F"/>
<stop offset="1" stop-color="#E97047"/>
</linearGradient>
<linearGradient id="paint13_linear_2496_1456" x1="172.808" y1="66.4822" x2="98.1075" y2="2.69021" gradientUnits="userSpaceOnUse">
<stop stop-color="#25273D"/>
<stop offset="1" stop-color="#787A9B" stop-opacity="0.4"/>
</linearGradient>
<linearGradient id="paint14_linear_2496_1456" x1="42.0937" y1="67.3333" x2="183" y2="66" gradientUnits="userSpaceOnUse">
<stop stop-color="#FC845B"/>
<stop offset="0.453125" stop-color="#E7A77F"/>
<stop offset="1" stop-color="#00A7D9"/>
</linearGradient>
<linearGradient id="paint15_linear_2496_1456" x1="35.1707" y1="118" x2="16.2275" y2="118" gradientUnits="userSpaceOnUse">
<stop stop-color="#FE665C"/>
<stop offset="1" stop-color="#FE965C"/>
</linearGradient>
<linearGradient id="paint16_linear_2496_1456" x1="184.087" y1="118" x2="63.4491" y2="118" gradientUnits="userSpaceOnUse">
<stop stop-color="#FE665C"/>
<stop offset="1" stop-color="#FE965C"/>
</linearGradient>
<linearGradient id="paint17_linear_2496_1456" x1="100" y1="9" x2="100" y2="51" gradientUnits="userSpaceOnUse">
<stop stop-color="#FB855C"/>
<stop offset="1" stop-color="#FBA85C"/>
</linearGradient>
<linearGradient id="paint18_linear_2496_1456" x1="118.586" y1="45.5557" x2="109.094" y2="-1.68169" gradientUnits="userSpaceOnUse">
<stop stop-color="#FC845B"/>
<stop offset="0.453125" stop-color="#E7A77F"/>
<stop offset="1" stop-color="#00A7D9"/>
</linearGradient>
<linearGradient id="paint19_linear_2496_1456" x1="100" y1="9" x2="100" y2="51" gradientUnits="userSpaceOnUse">
<stop stop-color="#FB855C"/>
<stop offset="1" stop-color="#FBA85C"/>
</linearGradient>
</defs>
</svg>
