<svg width="224" height="148" viewBox="0 0 224 148" fill="none" xmlns="http://www.w3.org/2000/svg">
<rect x="12" y="100" width="6" height="12" rx="3" fill="#878BFC"/>
<rect x="53" y="100" width="6" height="12" rx="3" fill="#878BFC"/>
<rect y="35" width="71" height="71" rx="10" fill="#D8D9FE"/>
<rect x="4" y="39" width="63" height="63" rx="6" fill="#EDEDFF"/>
<g opacity="0.5">
<path d="M9 45.7856C9 44.681 9.89543 43.7856 11 43.7856C12.1046 43.7856 13 44.681 13 45.7856C13 46.8902 12.1046 47.7856 11 47.7856C9.89543 47.7856 9 46.8902 9 45.7856Z" fill="#878BFC"/>
<path d="M16 45.7856C16 44.681 16.8954 43.7856 18 43.7856C19.1046 43.7856 20 44.681 20 45.7856C20 46.8902 19.1046 47.7856 18 47.7856C16.8954 47.7856 16 46.8902 16 45.7856Z" fill="#878BFC"/>
<path d="M23 45.7856C23 44.681 23.8954 43.7856 25 43.7856C26.1046 43.7856 27 44.681 27 45.7856C27 46.8902 26.1046 47.7856 25 47.7856C23.8954 47.7856 23 46.8902 23 45.7856Z" fill="#878BFC"/>
</g>
<g filter="url(#filter0_d_672_4867)">
<path fill-rule="evenodd" clip-rule="evenodd" d="M35.5 59.9999C28.5964 59.9999 23 65.5963 23 72.4999C23 79.4034 28.5964 84.9999 35.5 84.9999C42.4036 84.9999 48 79.4034 48 72.4999C48 65.5963 42.4036 59.9999 35.5 59.9999ZM19 72.4999C19 63.3872 26.3873 55.9999 35.5 55.9999C44.6127 55.9999 52 63.3872 52 72.4999C52 81.6126 44.6127 88.9999 35.5 88.9999C26.3873 88.9999 19 81.6126 19 72.4999Z" fill="url(#paint0_linear_672_4867)"/>
</g>
<path opacity="0.5" d="M42.2175 67.1965C42.6081 66.806 42.6081 66.1729 42.2175 65.7823C41.827 65.3918 41.1939 65.3918 40.8033 65.7823L35.5 71.0856L30.1967 65.7823C29.8062 65.3918 29.173 65.3918 28.7825 65.7823C28.392 66.1729 28.392 66.806 28.7825 67.1965L34.0858 72.4998L28.7825 77.8031C28.392 78.1937 28.392 78.8268 28.7825 79.2174C29.173 79.6079 29.8062 79.6079 30.1967 79.2174L35.5 73.9141L40.8033 79.2174C41.1939 79.6079 41.827 79.6079 42.2175 79.2174C42.6081 78.8268 42.6081 78.1937 42.2175 77.8031L36.9142 72.4998L42.2175 67.1965Z" fill="#878BFC"/>
<circle cx="35.5" cy="72.4999" r="2.5" fill="url(#paint1_linear_672_4867)"/>
<rect x="65" y="49" width="4" height="9" rx="2" fill="url(#paint2_linear_672_4867)"/>
<rect x="65" y="85" width="4" height="9" rx="2" fill="url(#paint3_linear_672_4867)"/>
<g filter="url(#filter1_d_672_4867)">
<g filter="url(#filter2_f_672_4867)">
<circle cx="119" cy="73" r="14" fill="black" fill-opacity="0.1"/>
</g>
<g filter="url(#filter3_d_672_4867)">
<circle cx="119" cy="73" r="14" fill="#575CFE"/>
</g>
<path d="M124.19 75.2942C125.351 72.6764 124.373 69.5504 121.837 68.0863C120.659 67.4062 119.338 67.1965 118.093 67.3991L118.515 68.9761C119.356 68.8741 120.236 69.034 121.026 69.4902C122.786 70.506 123.495 72.6419 122.774 74.4771L121.692 73.8521L121.996 77.5373L125.339 75.9579L124.19 75.2942Z" fill="url(#paint4_linear_672_4867)"/>
<path d="M124.19 75.2942C125.351 72.6764 124.373 69.5504 121.837 68.0863C120.659 67.4062 119.338 67.1965 118.093 67.3991L118.515 68.9761C119.356 68.8741 120.236 69.034 121.026 69.4902C122.786 70.506 123.495 72.6419 122.774 74.4771L121.692 73.8521L121.996 77.5373L125.339 75.9579L124.19 75.2942Z" fill="url(#paint5_radial_672_4867)"/>
<path d="M124.19 75.2942C125.351 72.6764 124.373 69.5504 121.837 68.0863C120.659 67.4062 119.338 67.1965 118.093 67.3991L118.515 68.9761C119.356 68.8741 120.236 69.034 121.026 69.4902C122.786 70.506 123.495 72.6419 122.774 74.4771L121.692 73.8521L121.996 77.5373L125.339 75.9579L124.19 75.2942Z" fill="url(#paint6_radial_672_4867)"/>
<path d="M116.163 77.9134C113.627 76.4494 112.649 73.3234 113.81 70.7056L112.661 70.0419L116.004 68.4625L116.308 72.1477L115.226 71.5227C114.505 73.3579 115.214 75.4938 116.974 76.5096C117.764 76.9658 118.644 77.1256 119.485 77.0237L119.907 78.6007C118.662 78.8033 117.341 78.5936 116.163 77.9134Z" fill="url(#paint7_linear_672_4867)"/>
<path d="M116.163 77.9134C113.627 76.4494 112.649 73.3234 113.81 70.7056L112.661 70.0419L116.004 68.4625L116.308 72.1477L115.226 71.5227C114.505 73.3579 115.214 75.4938 116.974 76.5096C117.764 76.9658 118.644 77.1256 119.485 77.0237L119.907 78.6007C118.662 78.8033 117.341 78.5936 116.163 77.9134Z" fill="url(#paint8_radial_672_4867)"/>
<path d="M116.163 77.9134C113.627 76.4494 112.649 73.3234 113.81 70.7056L112.661 70.0419L116.004 68.4625L116.308 72.1477L115.226 71.5227C114.505 73.3579 115.214 75.4938 116.974 76.5096C117.764 76.9658 118.644 77.1256 119.485 77.0237L119.907 78.6007C118.662 78.8033 117.341 78.5936 116.163 77.9134Z" fill="url(#paint9_radial_672_4867)"/>
</g>
<path fill-rule="evenodd" clip-rule="evenodd" d="M87 73.5C87 74.8807 85.8807 76 84.5 76C83.1193 76 82 74.8807 82 73.5C82 72.1193 83.1193 71 84.5 71C85.8807 71 87 72.1193 87 73.5ZM99 73.5C99 74.8807 97.8807 76 96.5 76C95.1193 76 94 74.8807 94 73.5C94 72.1193 95.1193 71 96.5 71C97.8807 71 99 72.1193 99 73.5ZM144 73.5C144 74.8807 142.881 76 141.5 76C140.119 76 139 74.8807 139 73.5C139 72.1193 140.119 71 141.5 71C142.881 71 144 72.1193 144 73.5ZM156 73.5C156 74.8807 154.881 76 153.5 76C152.119 76 151 74.8807 151 73.5C151 72.1193 152.119 71 153.5 71C154.881 71 156 72.1193 156 73.5Z" fill="url(#paint10_linear_672_4867)"/>
<circle opacity="0.1" cx="195.5" cy="72.5" r="28.5" fill="#FE665C"/>
<circle opacity="0.1" cx="195.5" cy="72.5" r="21.5" fill="#FE665C"/>
<g filter="url(#filter4_d_672_4867)">
<circle cx="195.5" cy="72.5" r="16.5" fill="#FE665C"/>
</g>
<path d="M191.611 66.4896C191.025 65.9038 190.075 65.9038 189.49 66.4896C188.904 67.0754 188.904 68.0251 189.49 68.6109L193.379 72.5L189.49 76.3891C188.904 76.9749 188.904 77.9246 189.49 78.5104C190.075 79.0962 191.025 79.0962 191.611 78.5104L195.5 74.6213L199.389 78.5104C199.975 79.0962 200.925 79.0962 201.51 78.5104C202.096 77.9246 202.096 76.9749 201.51 76.3891L197.621 72.5L201.51 68.6109C202.096 68.0251 202.096 67.0754 201.51 66.4896C200.925 65.9038 199.975 65.9038 199.389 66.4896L195.5 70.3787L191.611 66.4896Z" fill="white"/>
<defs>
<filter id="filter0_d_672_4867" x="11" y="48.9999" width="49" height="49" filterUnits="userSpaceOnUse" color-interpolation-filters="sRGB">
<feFlood flood-opacity="0" result="BackgroundImageFix"/>
<feColorMatrix in="SourceAlpha" type="matrix" values="0 0 0 0 0 0 0 0 0 0 0 0 0 0 0 0 0 0 127 0" result="hardAlpha"/>
<feOffset dy="1"/>
<feGaussianBlur stdDeviation="4"/>
<feColorMatrix type="matrix" values="0 0 0 0 0.145098 0 0 0 0 0.152941 0 0 0 0 0.239216 0 0 0 0.1 0"/>
<feBlend mode="normal" in2="BackgroundImageFix" result="effect1_dropShadow_672_4867"/>
<feBlend mode="normal" in="SourceGraphic" in2="effect1_dropShadow_672_4867" result="shape"/>
</filter>
<filter id="filter1_d_672_4867" x="101" y="56" width="36" height="36" filterUnits="userSpaceOnUse" color-interpolation-filters="sRGB">
<feFlood flood-opacity="0" result="BackgroundImageFix"/>
<feColorMatrix in="SourceAlpha" type="matrix" values="0 0 0 0 0 0 0 0 0 0 0 0 0 0 0 0 0 0 127 0" result="hardAlpha"/>
<feOffset dy="1"/>
<feGaussianBlur stdDeviation="2"/>
<feComposite in2="hardAlpha" operator="out"/>
<feColorMatrix type="matrix" values="0 0 0 0 0 0 0 0 0 0 0 0 0 0 0 0 0 0 0.1 0"/>
<feBlend mode="normal" in2="BackgroundImageFix" result="effect1_dropShadow_672_4867"/>
<feBlend mode="normal" in="SourceGraphic" in2="effect1_dropShadow_672_4867" result="shape"/>
</filter>
<filter id="filter2_f_672_4867" x="101" y="55" width="36" height="36" filterUnits="userSpaceOnUse" color-interpolation-filters="sRGB">
<feFlood flood-opacity="0" result="BackgroundImageFix"/>
<feBlend mode="normal" in="SourceGraphic" in2="BackgroundImageFix" result="shape"/>
<feGaussianBlur stdDeviation="2" result="effect1_foregroundBlur_672_4867"/>
</filter>
<filter id="filter3_d_672_4867" x="101" y="55" width="36" height="36" filterUnits="userSpaceOnUse" color-interpolation-filters="sRGB">
<feFlood flood-opacity="0" result="BackgroundImageFix"/>
<feColorMatrix in="SourceAlpha" type="matrix" values="0 0 0 0 0 0 0 0 0 0 0 0 0 0 0 0 0 0 127 0" result="hardAlpha"/>
<feOffset/>
<feGaussianBlur stdDeviation="2"/>
<feComposite in2="hardAlpha" operator="out"/>
<feColorMatrix type="matrix" values="0 0 0 0 0 0 0 0 0 0 0 0 0 0 0 0 0 0 0.1 0"/>
<feBlend mode="normal" in2="BackgroundImageFix" result="effect1_dropShadow_672_4867"/>
<feBlend mode="normal" in="SourceGraphic" in2="effect1_dropShadow_672_4867" result="shape"/>
</filter>
<filter id="filter4_d_672_4867" x="175" y="52" width="41" height="41" filterUnits="userSpaceOnUse" color-interpolation-filters="sRGB">
<feFlood flood-opacity="0" result="BackgroundImageFix"/>
<feColorMatrix in="SourceAlpha" type="matrix" values="0 0 0 0 0 0 0 0 0 0 0 0 0 0 0 0 0 0 127 0" result="hardAlpha"/>
<feOffset/>
<feGaussianBlur stdDeviation="2"/>
<feComposite in2="hardAlpha" operator="out"/>
<feColorMatrix type="matrix" values="0 0 0 0 0 0 0 0 0 0 0 0 0 0 0 0 0 0 0.15 0"/>
<feBlend mode="normal" in2="BackgroundImageFix" result="effect1_dropShadow_672_4867"/>
<feBlend mode="normal" in="SourceGraphic" in2="effect1_dropShadow_672_4867" result="shape"/>
</filter>
<linearGradient id="paint0_linear_672_4867" x1="19" y1="55.9999" x2="50.515" y2="89.8249" gradientUnits="userSpaceOnUse">
<stop stop-color="#2A30EE"/>
<stop offset="1" stop-color="#A4A6FF"/>
</linearGradient>
<linearGradient id="paint1_linear_672_4867" x1="33" y1="69.9999" x2="37.775" y2="75.1249" gradientUnits="userSpaceOnUse">
<stop stop-color="#2A30EE"/>
<stop offset="1" stop-color="#A4A6FF"/>
</linearGradient>
<linearGradient id="paint2_linear_672_4867" x1="65" y1="49" x2="71.6967" y2="52.1945" gradientUnits="userSpaceOnUse">
<stop stop-color="#2A30EE"/>
<stop offset="1" stop-color="#A4A6FF"/>
</linearGradient>
<linearGradient id="paint3_linear_672_4867" x1="65" y1="85" x2="71.6967" y2="88.1945" gradientUnits="userSpaceOnUse">
<stop stop-color="#2A30EE"/>
<stop offset="1" stop-color="#A4A6FF"/>
</linearGradient>
<linearGradient id="paint4_linear_672_4867" x1="118.361" y1="78.6745" x2="118.441" y2="67.3256" gradientUnits="userSpaceOnUse">
<stop stop-color="#F2EDFF"/>
<stop offset="0.40625" stop-color="#F6EEF9"/>
<stop offset="1" stop-color="#FCEFF1"/>
</linearGradient>
<radialGradient id="paint5_radial_672_4867" cx="0" cy="0" r="1" gradientUnits="userSpaceOnUse" gradientTransform="translate(112.79 67.3253) rotate(35.1534) scale(15.3485 40.1359)">
<stop stop-color="#BFFFF0"/>
<stop offset="0.336378" stop-color="#FEFFC7" stop-opacity="0"/>
</radialGradient>
<radialGradient id="paint6_radial_672_4867" cx="0" cy="0" r="1" gradientUnits="userSpaceOnUse" gradientTransform="translate(112.79 67.3253) rotate(35.1534) scale(15.3485 40.1359)">
<stop offset="0.666667" stop-color="#FEFFC7" stop-opacity="0"/>
<stop offset="1" stop-color="#CEFFE6" stop-opacity="0.767746"/>
</radialGradient>
<linearGradient id="paint7_linear_672_4867" x1="118.361" y1="78.6745" x2="118.441" y2="67.3256" gradientUnits="userSpaceOnUse">
<stop stop-color="#F2EDFF"/>
<stop offset="0.40625" stop-color="#F6EEF9"/>
<stop offset="1" stop-color="#FCEFF1"/>
</linearGradient>
<radialGradient id="paint8_radial_672_4867" cx="0" cy="0" r="1" gradientUnits="userSpaceOnUse" gradientTransform="translate(112.79 67.3253) rotate(35.1534) scale(15.3485 40.1359)">
<stop stop-color="#BFFFF0"/>
<stop offset="0.336378" stop-color="#FEFFC7" stop-opacity="0"/>
</radialGradient>
<radialGradient id="paint9_radial_672_4867" cx="0" cy="0" r="1" gradientUnits="userSpaceOnUse" gradientTransform="translate(112.79 67.3253) rotate(35.1534) scale(15.3485 40.1359)">
<stop offset="0.666667" stop-color="#FEFFC7" stop-opacity="0"/>
<stop offset="1" stop-color="#CEFFE6" stop-opacity="0.767746"/>
</radialGradient>
<linearGradient id="paint10_linear_672_4867" x1="158.962" y1="73.411" x2="82" y2="73" gradientUnits="userSpaceOnUse">
<stop stop-color="#25273D"/>
<stop offset="1" stop-color="#787A9B" stop-opacity="0.4"/>
</linearGradient>
</defs>
</svg>
