<svg width="199" height="145" viewBox="0 0 199 145" fill="none" xmlns="http://www.w3.org/2000/svg">
<rect opacity="0.5" x="0.5" y="29.5" width="198" height="115" rx="14.5" fill="url(#paint0_linear_2668_832)" stroke="white"/>
<g filter="url(#filter0_d_2668_832)">
<circle cx="100" cy="30" r="21" fill="url(#paint1_linear_2668_832)"/>
<circle cx="100" cy="30" r="21" fill="url(#paint2_linear_2668_832)"/>
<circle cx="100" cy="30" r="21" fill="url(#paint3_linear_2668_832)"/>
<circle cx="100" cy="30" r="21.5" stroke="white"/>
</g>
<path d="M107.785 33.4412C109.526 29.5145 108.059 24.8255 104.255 22.6294C102.488 21.6092 100.507 21.2947 98.6391 21.5985L99.273 23.9641C100.535 23.8111 101.854 24.0509 103.04 24.7352C105.679 26.2589 106.743 29.4627 105.662 32.2156L104.038 31.2781L104.494 36.8058L109.509 34.4368L107.785 33.4412Z" fill="white"/>
<path d="M95.7449 37.3701C91.9412 35.174 90.4741 30.485 92.2158 26.5583L90.4913 25.5627L95.5065 23.1937L95.9624 28.7214L94.3386 27.7839C93.2572 30.5368 94.3216 33.7406 96.9607 35.2643C98.146 35.9486 99.4659 36.1884 100.727 36.0354L101.361 38.401C99.493 38.7048 97.5121 38.3903 95.7449 37.3701Z" fill="white"/>
<g opacity="0.55">
<path d="M17 94C17 94 32.4768 94 42.5368 94C52.5967 94 53.97 61 68.0736 61C82.1771 61 80.842 87.5 93.6104 87.5C106.379 87.5 110.248 44 132.302 44C147.328 44 154.272 67.2068 157.172 82" stroke="black" stroke-width="2"/>
<path d="M17 94C17 94 32.4768 94 42.5368 94C52.5967 94 53.97 61 68.0736 61C82.1771 61 80.842 87.5 93.6104 87.5C106.379 87.5 110.248 44 132.302 44C147.328 44 154.272 67.2068 157.172 82" stroke="url(#paint4_linear_2668_832)" stroke-width="2"/>
</g>
<path d="M158 86.5L161 112" stroke="#F7BA95" stroke-width="2" stroke-dasharray="2 6"/>
<path d="M17 131C17 131 32.4768 131 42.5368 131C52.5967 131 53.97 98 68.0736 98C82.1771 98 80.842 98 93.6104 98C106.379 98 110.248 81 132.302 81H185" stroke="url(#paint5_linear_2668_832)" stroke-width="2" stroke-dasharray="2 6"/>
<circle cx="17" cy="94" r="3" fill="url(#paint6_linear_2668_832)"/>
<circle cx="17" cy="94" r="3" fill="url(#paint7_linear_2668_832)"/>
<circle cx="17" cy="94" r="3" fill="#FC855C"/>
<path d="M17 100.5V125" stroke="black" stroke-width="2" stroke-dasharray="2 6"/>
<path d="M17 100.5V125" stroke="url(#paint8_linear_2668_832)" stroke-width="2" stroke-dasharray="2 6"/>
<path d="M68 68V92.5" stroke="black" stroke-width="2" stroke-dasharray="2 6"/>
<path d="M68 68V92.5" stroke="url(#paint9_linear_2668_832)" stroke-width="2" stroke-dasharray="2 6"/>
<path d="M94 90L94 95" stroke="black" stroke-width="2" stroke-dasharray="2 6"/>
<path d="M94 90L94 95" stroke="url(#paint10_linear_2668_832)" stroke-width="2" stroke-dasharray="2 6"/>
<path d="M132 50V74.5" stroke="black" stroke-width="2" stroke-dasharray="2 6"/>
<path d="M132 50V74.5" stroke="url(#paint11_linear_2668_832)" stroke-width="2" stroke-dasharray="2 6"/>
<circle cx="17" cy="131" r="3" fill="#17344F"/>
<circle cx="94" cy="88" r="3" fill="url(#paint12_linear_2668_832)"/>
<circle cx="94" cy="88" r="3" fill="url(#paint13_linear_2668_832)"/>
<circle cx="94" cy="88" r="3" fill="#FC855C"/>
<circle cx="94" cy="99" r="3" fill="#17344F"/>
<circle cx="132" cy="44" r="3" fill="url(#paint14_linear_2668_832)"/>
<circle cx="132" cy="44" r="3" fill="url(#paint15_linear_2668_832)"/>
<circle cx="132" cy="44" r="3" fill="#FC855C"/>
<circle cx="132" cy="81" r="3" fill="#17344F"/>
<circle cx="68" cy="61" r="3" fill="url(#paint16_linear_2668_832)"/>
<circle cx="68" cy="61" r="3" fill="url(#paint17_linear_2668_832)"/>
<circle cx="68" cy="61" r="3" fill="#FC855C"/>
<circle cx="68" cy="98" r="3" fill="#17344F"/>
<g opacity="0.3">
<circle cx="157" cy="81" r="9" fill="url(#paint18_linear_2668_832)"/>
<circle cx="157" cy="81" r="9" fill="url(#paint19_linear_2668_832)"/>
</g>
<circle cx="157" cy="81" r="5" fill="url(#paint20_linear_2668_832)"/>
<circle cx="157" cy="81" r="5" fill="url(#paint21_linear_2668_832)"/>
<defs>
<filter id="filter0_d_2668_832" x="70" y="0" width="60" height="60" filterUnits="userSpaceOnUse" color-interpolation-filters="sRGB">
<feFlood flood-opacity="0" result="BackgroundImageFix"/>
<feColorMatrix in="SourceAlpha" type="matrix" values="0 0 0 0 0 0 0 0 0 0 0 0 0 0 0 0 0 0 127 0" result="hardAlpha"/>
<feOffset/>
<feGaussianBlur stdDeviation="4"/>
<feComposite in2="hardAlpha" operator="out"/>
<feColorMatrix type="matrix" values="0 0 0 0 0 0 0 0 0 0 0 0 0 0 0 0 0 0 0.1 0"/>
<feBlend mode="normal" in2="BackgroundImageFix" result="effect1_dropShadow_2668_832"/>
<feBlend mode="normal" in="SourceGraphic" in2="effect1_dropShadow_2668_832" result="shape"/>
</filter>
<linearGradient id="paint0_linear_2668_832" x1="0" y1="29" x2="100.938" y2="202.162" gradientUnits="userSpaceOnUse">
<stop offset="0.0265018" stop-color="#6FD9FF"/>
<stop offset="0.375" stop-color="#F2FCFF"/>
<stop offset="0.651042" stop-color="#FFE7D8"/>
<stop offset="1" stop-color="#FBB677"/>
</linearGradient>
<linearGradient id="paint1_linear_2668_832" x1="100" y1="9" x2="100" y2="51" gradientUnits="userSpaceOnUse">
<stop stop-color="#FB855C"/>
<stop offset="1" stop-color="#FBA85C"/>
</linearGradient>
<linearGradient id="paint2_linear_2668_832" x1="118.586" y1="45.5557" x2="109.094" y2="-1.68169" gradientUnits="userSpaceOnUse">
<stop stop-color="#FC845B"/>
<stop offset="0.453125" stop-color="#E7A77F"/>
<stop offset="1" stop-color="#00A7D9"/>
</linearGradient>
<linearGradient id="paint3_linear_2668_832" x1="100" y1="9" x2="100" y2="51" gradientUnits="userSpaceOnUse">
<stop stop-color="#FB855C"/>
<stop offset="1" stop-color="#FBA85C"/>
</linearGradient>
<linearGradient id="paint4_linear_2668_832" x1="88" y1="44" x2="88" y2="94" gradientUnits="userSpaceOnUse">
<stop stop-color="#FB855C"/>
<stop offset="1" stop-color="#FBA85C"/>
</linearGradient>
<linearGradient id="paint5_linear_2668_832" x1="174.746" y1="105.11" x2="44.8345" y2="102.878" gradientUnits="userSpaceOnUse">
<stop stop-color="#25273D"/>
<stop offset="1" stop-color="#787A9B" stop-opacity="0.4"/>
</linearGradient>
<linearGradient id="paint6_linear_2668_832" x1="17" y1="91" x2="17" y2="97" gradientUnits="userSpaceOnUse">
<stop stop-color="#FB855C"/>
<stop offset="1" stop-color="#FBA85C"/>
</linearGradient>
<linearGradient id="paint7_linear_2668_832" x1="14" y1="91" x2="21.1756" y2="94.7513" gradientUnits="userSpaceOnUse">
<stop stop-color="#0689AD"/>
<stop offset="0.557292" stop-color="#E7A77F"/>
<stop offset="1" stop-color="#E97047"/>
</linearGradient>
<linearGradient id="paint8_linear_2668_832" x1="17.5" y1="100.5" x2="17.5" y2="125" gradientUnits="userSpaceOnUse">
<stop stop-color="#FB855C"/>
<stop offset="1" stop-color="#FBA85C"/>
</linearGradient>
<linearGradient id="paint9_linear_2668_832" x1="68.5" y1="68" x2="68.5" y2="92.5" gradientUnits="userSpaceOnUse">
<stop stop-color="#FB855C"/>
<stop offset="1" stop-color="#FBA85C"/>
</linearGradient>
<linearGradient id="paint10_linear_2668_832" x1="94.5" y1="90" x2="94.5" y2="95" gradientUnits="userSpaceOnUse">
<stop stop-color="#FB855C"/>
<stop offset="1" stop-color="#FBA85C"/>
</linearGradient>
<linearGradient id="paint11_linear_2668_832" x1="132.5" y1="50" x2="132.5" y2="74.5" gradientUnits="userSpaceOnUse">
<stop stop-color="#FB855C"/>
<stop offset="1" stop-color="#FBA85C"/>
</linearGradient>
<linearGradient id="paint12_linear_2668_832" x1="94" y1="85" x2="94" y2="91" gradientUnits="userSpaceOnUse">
<stop stop-color="#FB855C"/>
<stop offset="1" stop-color="#FBA85C"/>
</linearGradient>
<linearGradient id="paint13_linear_2668_832" x1="91" y1="85" x2="98.1756" y2="88.7513" gradientUnits="userSpaceOnUse">
<stop stop-color="#0689AD"/>
<stop offset="0.557292" stop-color="#E7A77F"/>
<stop offset="1" stop-color="#E97047"/>
</linearGradient>
<linearGradient id="paint14_linear_2668_832" x1="132" y1="41" x2="132" y2="47" gradientUnits="userSpaceOnUse">
<stop stop-color="#FB855C"/>
<stop offset="1" stop-color="#FBA85C"/>
</linearGradient>
<linearGradient id="paint15_linear_2668_832" x1="129" y1="41" x2="136.176" y2="44.7513" gradientUnits="userSpaceOnUse">
<stop stop-color="#0689AD"/>
<stop offset="0.557292" stop-color="#E7A77F"/>
<stop offset="1" stop-color="#E97047"/>
</linearGradient>
<linearGradient id="paint16_linear_2668_832" x1="68" y1="58" x2="68" y2="64" gradientUnits="userSpaceOnUse">
<stop stop-color="#FB855C"/>
<stop offset="1" stop-color="#FBA85C"/>
</linearGradient>
<linearGradient id="paint17_linear_2668_832" x1="65" y1="58" x2="72.1756" y2="61.7513" gradientUnits="userSpaceOnUse">
<stop stop-color="#0689AD"/>
<stop offset="0.557292" stop-color="#E7A77F"/>
<stop offset="1" stop-color="#E97047"/>
</linearGradient>
<linearGradient id="paint18_linear_2668_832" x1="157" y1="72" x2="157" y2="90" gradientUnits="userSpaceOnUse">
<stop stop-color="#FB855C"/>
<stop offset="1" stop-color="#FBA85C"/>
</linearGradient>
<linearGradient id="paint19_linear_2668_832" x1="148" y1="72" x2="169.527" y2="83.2539" gradientUnits="userSpaceOnUse">
<stop stop-color="#0689AD"/>
<stop offset="0.557292" stop-color="#E7A77F"/>
<stop offset="1" stop-color="#E97047"/>
</linearGradient>
<linearGradient id="paint20_linear_2668_832" x1="157" y1="76" x2="157" y2="86" gradientUnits="userSpaceOnUse">
<stop stop-color="#FB855C"/>
<stop offset="1" stop-color="#FBA85C"/>
</linearGradient>
<linearGradient id="paint21_linear_2668_832" x1="152" y1="76" x2="163.959" y2="82.2522" gradientUnits="userSpaceOnUse">
<stop stop-color="#0689AD"/>
<stop offset="0.557292" stop-color="#E7A77F"/>
<stop offset="1" stop-color="#E97047"/>
</linearGradient>
</defs>
</svg>
