<svg width="245" height="188" viewBox="0 0 245 188" fill="none" xmlns="http://www.w3.org/2000/svg">
<path d="M0 12.0001C0 5.37264 5.37258 6.10352e-05 12 6.10352e-05H233C239.627 6.10352e-05 245 5.37264 245 12.0001V176C245 182.627 239.627 188 233 188H12C5.37258 188 0 182.627 0 176V12.0001Z" fill="url(#paint0_linear_5522_17811)"/>
<circle opacity="0.05" cx="122.5" cy="94.5001" r="87.5" fill="url(#paint1_linear_5522_17811)"/>
<circle opacity="0.05" cx="122.5" cy="94.5001" r="72.6064" fill="url(#paint2_linear_5522_17811)"/>
<circle opacity="0.05" cx="122.5" cy="94.5001" r="54.5" fill="url(#paint3_linear_5522_17811)"/>
<g filter="url(#filter0_d_5522_17811)">
<circle cx="122.5" cy="94.5" r="39.0957" fill="url(#paint4_linear_5522_17811)"/>
</g>
<path fill-rule="evenodd" clip-rule="evenodd" d="M120.03 79.4468C117.636 79.4468 115.778 81.5362 116.057 83.9141L117.894 99.5237C118.124 101.482 119.784 102.957 121.755 102.957C123.727 102.957 125.386 101.482 125.617 99.5237L127.453 83.9141C127.733 81.5362 125.875 79.4468 123.481 79.4468H120.03ZM121.755 112.638C123.665 112.638 125.213 111.09 125.213 109.181C125.213 107.271 123.665 105.723 121.755 105.723C119.846 105.723 118.298 107.271 118.298 109.181C118.298 111.09 119.846 112.638 121.755 112.638Z" fill="white"/>
<defs>
<filter id="filter0_d_5522_17811" x="75.4043" y="48.4043" width="94.1914" height="94.1915" filterUnits="userSpaceOnUse" color-interpolation-filters="sRGB">
<feFlood flood-opacity="0" result="BackgroundImageFix"/>
<feColorMatrix in="SourceAlpha" type="matrix" values="0 0 0 0 0 0 0 0 0 0 0 0 0 0 0 0 0 0 127 0" result="hardAlpha"/>
<feOffset dy="1"/>
<feGaussianBlur stdDeviation="4"/>
<feComposite in2="hardAlpha" operator="out"/>
<feColorMatrix type="matrix" values="0 0 0 0 0 0 0 0 0 0 0 0 0 0 0 0 0 0 0.06 0"/>
<feBlend mode="normal" in2="BackgroundImageFix" result="effect1_dropShadow_5522_17811"/>
<feBlend mode="normal" in="SourceGraphic" in2="effect1_dropShadow_5522_17811" result="shape"/>
</filter>
<linearGradient id="paint0_linear_5522_17811" x1="12.3148" y1="-4.32889" x2="77.9386" y2="234" gradientUnits="userSpaceOnUse">
<stop offset="0.0559211" stop-color="#FFEAEA"/>
<stop offset="1" stop-color="#FFF5EA"/>
</linearGradient>
<linearGradient id="paint1_linear_5522_17811" x1="210" y1="135.458" x2="48.0319" y2="62.8511" gradientUnits="userSpaceOnUse">
<stop stop-color="#F55252"/>
<stop offset="0.635417" stop-color="#FFB0E1"/>
<stop offset="1" stop-color="#F57952"/>
</linearGradient>
<linearGradient id="paint2_linear_5522_17811" x1="195.106" y1="128.486" x2="60.7073" y2="68.2382" gradientUnits="userSpaceOnUse">
<stop stop-color="#F55252"/>
<stop offset="0.635417" stop-color="#FFB0E1"/>
<stop offset="1" stop-color="#F57952"/>
</linearGradient>
<linearGradient id="paint3_linear_5522_17811" x1="177" y1="120.011" x2="76.117" y2="74.7873" gradientUnits="userSpaceOnUse">
<stop stop-color="#F55252"/>
<stop offset="0.635417" stop-color="#FFB0E1"/>
<stop offset="1" stop-color="#F57952"/>
</linearGradient>
<linearGradient id="paint4_linear_5522_17811" x1="161.596" y1="112.8" x2="89.2271" y2="80.359" gradientUnits="userSpaceOnUse">
<stop stop-color="#F77777"/>
<stop offset="0.635417" stop-color="#FBACDD"/>
<stop offset="1" stop-color="#F79070"/>
</linearGradient>
</defs>
</svg>
