<svg width="100" height="100" viewBox="0 0 100 100" fill="none" xmlns="http://www.w3.org/2000/svg">
<mask id="mask0_1370_17839" style="mask-type:alpha" maskUnits="userSpaceOnUse" x="0" y="0" width="100" height="100">
<path d="M99.5 50C99.5 77.3381 77.3381 99.5 50 99.5C22.6619 99.5 0.5 77.3381 0.5 50C0.5 22.6619 22.6619 0.5 50 0.5C77.3381 0.5 99.5 22.6619 99.5 50Z" fill="url(#paint0_linear_1370_17839)" stroke="white"/>
</mask>
<g mask="url(#mask0_1370_17839)">
<g opacity="0.3" filter="url(#filter0_f_1370_17839)">
<circle cx="37.9942" cy="37.9942" r="37.9942" transform="matrix(1 0 0 -1 -95.1697 121)" fill="#FD8072"/>
</g>
<g opacity="0.6" filter="url(#filter1_f_1370_17839)">
<ellipse cx="44.6111" cy="37.9942" rx="44.6111" ry="37.9942" transform="matrix(1 0 0 -1 -61.8713 55.2573)" fill="#FD8072"/>
</g>
<g filter="url(#filter2_f_1370_17839)">
<circle cx="37.9942" cy="37.9942" r="37.9942" transform="matrix(1 0 0 -1 -102 74.0409)" fill="#FFD7CE"/>
</g>
<g filter="url(#filter3_f_1370_17839)">
<ellipse cx="23.9064" cy="16.2222" rx="23.9064" ry="16.2222" transform="matrix(1 0 0 -1 -7.22803 92.8246)" fill="#6DD5FA"/>
</g>
<g filter="url(#filter4_f_1370_17839)">
<ellipse cx="45.2515" cy="43.117" rx="45.2515" ry="43.117" transform="matrix(1 0 0 -1 11.5557 61.2339)" fill="#FFE7D8"/>
</g>
<g filter="url(#filter5_f_1370_17839)">
<path d="M104.808 17.9392C104.808 7.09377 83.4628 20.5006 67.6675 35.869C51.8722 51.2375 36.314 41.0812 27.9656 55.5474C19.6171 70.0136 33.0884 83.6818 79.6207 64.8571C100.604 64.8571 104.808 28.7847 104.808 17.9392Z" fill="#FFDB7D"/>
</g>
</g>
<g filter="url(#filter6_d_1370_17839)">
<path d="M46.5 18.3094C48.9752 16.8803 52.0248 16.8803 54.5 18.3094L75.5118 30.4406C77.9871 31.8697 79.5118 34.5107 79.5118 37.3688V61.6312C79.5118 64.4893 77.9871 67.1303 75.5118 68.5594L54.5 80.6906C52.0248 82.1197 48.9752 82.1197 46.5 80.6906L25.4881 68.5594C23.0129 67.1303 21.4881 64.4893 21.4881 61.6312V37.3688C21.4881 34.5107 23.0129 31.8697 25.4881 30.4406L46.5 18.3094Z" fill="url(#paint1_linear_1370_17839)"/>
<path d="M46.75 18.7424C49.0705 17.4027 51.9295 17.4027 54.25 18.7424L75.2618 30.8736C77.5824 32.2134 79.0118 34.6893 79.0118 37.3688V61.6312C79.0118 64.3107 77.5824 66.7866 75.2618 68.1264L54.25 80.2576C51.9295 81.5973 49.0705 81.5973 46.75 80.2576L25.7381 68.1264C23.4176 66.7866 21.9881 64.3107 21.9881 61.6312V37.3688C21.9881 34.6893 23.4176 32.2134 25.7381 30.8736L46.75 18.7424Z" stroke="white"/>
</g>
<path opacity="0.5" fill-rule="evenodd" clip-rule="evenodd" d="M44.3415 50.5267C44.8217 50.6553 45.1067 51.149 44.978 51.6292C44.8493 52.1095 44.3557 52.3945 43.8755 52.2658L38.6581 50.8678C38.1779 50.7391 37.8929 50.2455 38.0216 49.7652C38.1502 49.285 38.6439 49 39.1241 49.1287L44.3415 50.5267ZM56.6627 50.5267C56.1824 50.6553 55.8974 51.149 56.0261 51.6292C56.1548 52.1095 56.6484 52.3945 57.1287 52.2658L62.346 50.8678C62.8262 50.7391 63.1112 50.2455 62.9825 49.7652C62.8539 49.285 62.3602 49 61.88 49.1287L56.6627 50.5267ZM56.6941 56.0976C56.6941 55.6004 57.0972 55.1974 57.5943 55.1974H62.9957C63.4929 55.1974 63.896 55.6004 63.896 56.0976C63.896 56.5948 63.4929 56.9978 62.9957 56.9978H57.5943C57.0972 56.9978 56.6941 56.5948 56.6941 56.0976ZM43.3016 55.1974C43.7988 55.1974 44.2018 55.6004 44.2018 56.0976C44.2018 56.5948 43.7988 56.9978 43.3016 56.9978L37.9002 56.9978C37.403 56.9978 37 56.5948 37 56.0976C37 55.6004 37.403 55.1974 37.9002 55.1974L43.3016 55.1974ZM55.343 59.5779C55.5916 59.1473 56.1421 58.9998 56.5727 59.2484L61.2505 61.949C61.681 62.1976 61.8286 62.7482 61.58 63.1788C61.3314 63.6094 60.7808 63.7569 60.3502 63.5083L55.6725 60.8076C55.2419 60.559 55.0944 60.0084 55.343 59.5779ZM44.1457 59.2484C44.5762 58.9998 45.1268 59.1473 45.3754 59.5779C45.624 60.0084 45.4765 60.559 45.0459 60.8076L40.3682 63.5083C39.9376 63.7569 39.387 63.6094 39.1384 63.1788C38.8898 62.7482 39.0374 62.1976 39.4679 61.949L44.1457 59.2484Z" fill="url(#paint2_linear_1370_17839)"/>
<path opacity="0.5" d="M52.1921 41.183C52.1921 37.7027 55.0135 34.8813 58.4938 34.8813" stroke="url(#paint3_linear_1370_17839)" stroke-width="2" stroke-linecap="round" stroke-linejoin="round"/>
<path opacity="0.5" d="M48.5911 41.183C48.5911 37.7027 45.7697 34.8813 42.2894 34.8813" stroke="url(#paint4_linear_1370_17839)" stroke-width="2" stroke-linecap="round" stroke-linejoin="round"/>
<path fill-rule="evenodd" clip-rule="evenodd" d="M42.2898 47.4846C42.2898 42.5128 45.9172 38.4823 50.3919 38.4823C54.8665 38.4823 58.494 42.5128 58.494 47.4846H42.2898ZM58.4948 48.8956H42.2907V57.8979C42.2907 62.3726 45.9181 66 50.3927 66C54.8674 66 58.4948 62.3726 58.4948 57.8979V48.8956Z" fill="url(#paint5_linear_1370_17839)"/>
<defs>
<filter id="filter0_f_1370_17839" x="-155.17" y="-14.9883" width="195.988" height="195.988" filterUnits="userSpaceOnUse" color-interpolation-filters="sRGB">
<feFlood flood-opacity="0" result="BackgroundImageFix"/>
<feBlend mode="normal" in="SourceGraphic" in2="BackgroundImageFix" result="shape"/>
<feGaussianBlur stdDeviation="30" result="effect1_foregroundBlur_1370_17839"/>
</filter>
<filter id="filter1_f_1370_17839" x="-121.871" y="-80.731" width="209.222" height="195.988" filterUnits="userSpaceOnUse" color-interpolation-filters="sRGB">
<feFlood flood-opacity="0" result="BackgroundImageFix"/>
<feBlend mode="normal" in="SourceGraphic" in2="BackgroundImageFix" result="shape"/>
<feGaussianBlur stdDeviation="30" result="effect1_foregroundBlur_1370_17839"/>
</filter>
<filter id="filter2_f_1370_17839" x="-162" y="-61.9474" width="195.988" height="195.988" filterUnits="userSpaceOnUse" color-interpolation-filters="sRGB">
<feFlood flood-opacity="0" result="BackgroundImageFix"/>
<feBlend mode="normal" in="SourceGraphic" in2="BackgroundImageFix" result="shape"/>
<feGaussianBlur stdDeviation="30" result="effect1_foregroundBlur_1370_17839"/>
</filter>
<filter id="filter3_f_1370_17839" x="-67.228" y="0.380127" width="167.813" height="152.444" filterUnits="userSpaceOnUse" color-interpolation-filters="sRGB">
<feFlood flood-opacity="0" result="BackgroundImageFix"/>
<feBlend mode="normal" in="SourceGraphic" in2="BackgroundImageFix" result="shape"/>
<feGaussianBlur stdDeviation="30" result="effect1_foregroundBlur_1370_17839"/>
</filter>
<filter id="filter4_f_1370_17839" x="-48.4443" y="-85" width="210.503" height="206.234" filterUnits="userSpaceOnUse" color-interpolation-filters="sRGB">
<feFlood flood-opacity="0" result="BackgroundImageFix"/>
<feBlend mode="normal" in="SourceGraphic" in2="BackgroundImageFix" result="shape"/>
<feGaussianBlur stdDeviation="30" result="effect1_foregroundBlur_1370_17839"/>
</filter>
<filter id="filter5_f_1370_17839" x="-34.3567" y="-45.9963" width="199.165" height="180.037" filterUnits="userSpaceOnUse" color-interpolation-filters="sRGB">
<feFlood flood-opacity="0" result="BackgroundImageFix"/>
<feBlend mode="normal" in="SourceGraphic" in2="BackgroundImageFix" result="shape"/>
<feGaussianBlur stdDeviation="30" result="effect1_foregroundBlur_1370_17839"/>
</filter>
<filter id="filter6_d_1370_17839" x="19.488" y="16.2375" width="62.0239" height="68.5249" filterUnits="userSpaceOnUse" color-interpolation-filters="sRGB">
<feFlood flood-opacity="0" result="BackgroundImageFix"/>
<feColorMatrix in="SourceAlpha" type="matrix" values="0 0 0 0 0 0 0 0 0 0 0 0 0 0 0 0 0 0 127 0" result="hardAlpha"/>
<feOffset dy="1"/>
<feGaussianBlur stdDeviation="1"/>
<feComposite in2="hardAlpha" operator="out"/>
<feColorMatrix type="matrix" values="0 0 0 0 0 0 0 0 0 0 0 0 0 0 0 0 0 0 0.05 0"/>
<feBlend mode="normal" in2="BackgroundImageFix" result="effect1_dropShadow_1370_17839"/>
<feBlend mode="normal" in="SourceGraphic" in2="effect1_dropShadow_1370_17839" result="shape"/>
</filter>
<linearGradient id="paint0_linear_1370_17839" x1="0" y1="0" x2="100" y2="100" gradientUnits="userSpaceOnUse">
<stop stop-color="#6DD5FA"/>
<stop offset="0.375" stop-color="#F2FCFF"/>
<stop offset="0.651042" stop-color="#FFE7D8"/>
<stop offset="1" stop-color="#FBB677"/>
</linearGradient>
<linearGradient id="paint1_linear_1370_17839" x1="17" y1="16" x2="84" y2="83" gradientUnits="userSpaceOnUse">
<stop stop-color="#6DD5FA"/>
<stop offset="0.375" stop-color="#F2FCFF"/>
<stop offset="0.651042" stop-color="#FFE7D8"/>
<stop offset="1" stop-color="#FBB677"/>
</linearGradient>
<linearGradient id="paint2_linear_1370_17839" x1="63.8966" y1="62.9445" x2="56.0212" y2="46.4387" gradientUnits="userSpaceOnUse">
<stop stop-color="#FC845B"/>
<stop offset="0.453125" stop-color="#E7A77F"/>
<stop offset="1" stop-color="#00A7D9"/>
</linearGradient>
<linearGradient id="paint3_linear_1370_17839" x1="58.4938" y1="40.8861" x2="54.1339" y2="35.9491" gradientUnits="userSpaceOnUse">
<stop stop-color="#FC845B"/>
<stop offset="0.453125" stop-color="#E7A77F"/>
<stop offset="1" stop-color="#00A7D9"/>
</linearGradient>
<linearGradient id="paint4_linear_1370_17839" x1="42.2894" y1="40.8861" x2="46.6493" y2="35.9491" gradientUnits="userSpaceOnUse">
<stop stop-color="#FC845B"/>
<stop offset="0.453125" stop-color="#E7A77F"/>
<stop offset="1" stop-color="#00A7D9"/>
</linearGradient>
<linearGradient id="paint5_linear_1370_17839" x1="58.4951" y1="64.7037" x2="40.783" y2="52.8928" gradientUnits="userSpaceOnUse">
<stop stop-color="#FC845B"/>
<stop offset="0.453125" stop-color="#E7A77F"/>
<stop offset="1" stop-color="#00A7D9"/>
</linearGradient>
</defs>
</svg>
