<svg width="100" height="100" viewBox="0 0 100 100" fill="none" xmlns="http://www.w3.org/2000/svg">
<path d="M100 50C100 77.6142 77.6142 100 50 100C22.3858 100 0 77.6142 0 50C0 22.3858 22.3858 0 50 0C77.6142 0 100 22.3858 100 50Z" fill="url(#paint0_linear_11790_79018)"/>
<path opacity="0.8" d="M31.215 33.1775C31.3262 32.8518 31.5249 32.5695 31.8075 32.3731C33.317 31.3242 38.9708 28 50 28C61.0292 28 66.683 31.3242 68.1925 32.3731C68.4751 32.5695 68.6738 32.8518 68.785 33.1775C69.8745 36.3685 75.5401 54.3273 68.6126 64.0196C64.6097 69.6199 54.952 73.9814 51.3684 75.458C50.4874 75.8211 49.5126 75.8211 48.6316 75.458C45.048 73.9814 35.3903 69.6199 31.3874 64.0196C24.4599 54.3273 30.1255 36.3685 31.215 33.1775Z" fill="white"/>
<path d="M33.2528 36.1568C33.3735 35.7578 33.6229 35.4253 33.9856 35.2197C35.5499 34.3332 40.5633 32 50.0001 32C59.4368 32 64.4502 34.3332 66.0145 35.2197C66.3773 35.4253 66.6266 35.7578 66.7473 36.1568C67.711 39.3425 71.8088 54.422 65.7663 62.6342C62.1992 67.4822 54.1016 70.6109 51.125 71.6332C50.3928 71.8847 49.6073 71.8847 48.8751 71.6333C45.8985 70.611 37.8008 67.4822 34.2336 62.6342C28.1911 54.422 32.2891 39.3425 33.2528 36.1568Z" fill="url(#paint1_linear_11790_79018)"/>
<path opacity="0.2" d="M33.2528 36.1568C32.2891 39.3425 28.1911 54.422 34.2336 62.6342C37.7455 67.407 45.6485 70.5135 48.733 71.5842C49.3646 71.8034 50.0001 71.3289 50.0001 70.6604V32C40.5633 32 35.5499 34.3332 33.9856 35.2197C33.6229 35.4253 33.3735 35.7578 33.2528 36.1568Z" fill="white"/>
<path d="M45 52L47.6316 55L55 47" stroke="white" stroke-width="3" stroke-linecap="round" stroke-linejoin="round"/>
<defs>
<linearGradient id="paint0_linear_11790_79018" x1="8" y1="13" x2="67" y2="100" gradientUnits="userSpaceOnUse">
<stop stop-color="#FDD7EB"/>
<stop offset="0.645833" stop-color="#FFE4D9"/>
<stop offset="1" stop-color="#D9FFE6"/>
</linearGradient>
<linearGradient id="paint1_linear_11790_79018" x1="31" y1="32" x2="69.2884" y2="71.0401" gradientUnits="userSpaceOnUse">
<stop stop-color="#2A30EE"/>
<stop offset="1" stop-color="#A4A6FF"/>
</linearGradient>
</defs>
</svg>
