<svg width="245" height="190" viewBox="0 0 245 190" fill="none" xmlns="http://www.w3.org/2000/svg">
<rect y="0.5" width="245" height="189" rx="16" fill="url(#paint0_linear_8043_172165)" fill-opacity="0.15"/>
<circle opacity="0.05" cx="166.531" cy="95.0801" r="73.7266" fill="url(#paint1_linear_8043_172165)"/>
<circle opacity="0.14" cx="166.531" cy="95.0802" r="54.1837" fill="url(#paint2_linear_8043_172165)"/>
<circle cx="166.532" cy="95.0807" r="31.7311" fill="url(#paint3_linear_8043_172165)"/>
<path d="M167.72 93.5751C172.644 94.6474 175.741 97.0843 175.741 101.032C175.741 105.955 171.071 108.733 165.232 108.733C159.85 108.733 155.535 106.052 154.672 101.52L161.221 100.399C161.526 102.494 163.201 103.567 165.232 103.567C167.364 103.567 168.634 102.641 168.634 101.373C168.634 100.009 167.263 99.3751 165.841 99.0826L162.795 98.4978C158.124 97.4255 155.078 94.9398 155.078 90.9432C155.078 86.1181 159.85 83.3887 165.232 83.3887C170.563 83.3887 174.269 86.1181 175.031 90.6995L168.481 91.7718C168.227 89.8222 166.907 88.6525 164.877 88.6525C163.15 88.6525 161.78 89.4323 161.78 90.797C161.78 92.113 162.897 92.6978 164.369 92.9903L167.72 93.5751Z" fill="#FFFBFD"/>
<path d="M180.057 104.713C177.72 104.713 175.826 106.531 175.826 108.774H184.288C184.288 106.531 182.394 104.713 180.057 104.713Z" fill="#FFFBFD"/>
<path fill-rule="evenodd" clip-rule="evenodd" d="M98.2023 95.9085C98.7907 95.5122 98.7907 94.6461 98.2023 94.2497L91.9923 90.0668C91.328 89.6194 90.4336 90.0954 90.4336 90.8962V99.262C90.4336 100.063 91.328 100.539 91.9923 100.091L98.2023 95.9085ZM75.4336 95.0791C75.4336 96.1837 74.5382 97.0791 73.4336 97.0791C72.329 97.0791 71.4336 96.1837 71.4336 95.0791C71.4336 93.9745 72.329 93.0791 73.4336 93.0791C74.5382 93.0791 75.4336 93.9745 75.4336 95.0791ZM84.4336 95.0791C84.4336 96.1837 83.5382 97.0791 82.4336 97.0791C81.329 97.0791 80.4336 96.1837 80.4336 95.0791C80.4336 93.9745 81.329 93.0791 82.4336 93.0791C83.5382 93.0791 84.4336 93.9745 84.4336 95.0791Z" fill="url(#paint4_linear_8043_172165)"/>
<ellipse cx="45.6484" cy="67.5807" rx="22.5" ry="22.9167" fill="url(#paint5_linear_8043_172165)"/>
<path fill-rule="evenodd" clip-rule="evenodd" d="M37.115 56.7871H45.686C50.8994 56.7871 54.8513 59.6412 56.3215 63.7942H58.9914V66.3044H56.8837C56.925 66.7011 56.946 67.1052 56.946 67.5158V67.5774C56.946 68.0397 56.9194 68.4941 56.8672 68.9391H58.9914V71.4493H56.2707C54.7618 75.5446 50.8405 78.3714 45.686 78.3714H37.115V71.4493H34.1367V68.9391H37.115V66.3044H34.1367V63.7942H37.115V56.7871ZM39.5111 71.4493V76.1196H45.686C49.4964 76.1196 52.3274 74.2491 53.6452 71.4493H39.5111ZM54.3793 68.9391H39.5111V66.3044H54.3831C54.4383 66.719 54.4664 67.144 54.4664 67.5774V67.6391C54.4664 68.0824 54.437 68.5165 54.3793 68.9391ZM45.686 59.0352C49.514 59.0352 52.3535 60.9551 53.6634 63.7942H39.5111V59.0352H45.686Z" fill="white"/>
<path d="M45.6484 145.497C58.0748 145.497 68.1484 135.237 68.1484 122.581C68.1484 109.924 58.0748 99.6641 45.6484 99.6641C33.222 99.6641 23.1484 109.924 23.1484 122.581C23.1484 135.237 33.222 145.497 45.6484 145.497Z" fill="url(#paint6_linear_8043_172165)"/>
<path d="M46.697 124.263C49.9649 124.993 50.9436 125.962 50.9436 127.597C50.9436 129.296 49.6853 130.582 46.697 130.789V124.263ZM44.7222 120.595C41.9261 119.96 40.8776 118.896 40.8776 117.452C40.8776 116.007 42.2057 114.689 44.7222 114.403V120.595ZM46.697 121.024V114.403C48.9339 114.657 50.5067 115.816 50.7339 117.817H54.3688C54.229 114.213 51.0659 111.831 46.697 111.513V108.83H44.7222V111.513C40.3183 111.815 37.1727 114.165 37.1727 117.722C37.1727 120.945 39.5669 122.755 44.0057 123.692L44.7222 123.85V130.773C41.9086 130.503 40.5805 129.138 40.2659 127.28H36.6484C36.7708 131.09 40.2834 133.361 44.7222 133.663V136.33H46.697V133.663C51.1533 133.377 54.6484 131.17 54.6484 127.28C54.6484 123.898 52.1319 122.183 47.5358 121.215L46.697 121.024Z" fill="white"/>
<defs>
<linearGradient id="paint0_linear_8043_172165" x1="0" y1="95" x2="245" y2="95" gradientUnits="userSpaceOnUse">
<stop stop-color="#FF49A4"/>
<stop offset="0.93" stop-color="#B049FF"/>
</linearGradient>
<linearGradient id="paint1_linear_8043_172165" x1="92.8047" y1="95.0801" x2="240.258" y2="95.0801" gradientUnits="userSpaceOnUse">
<stop stop-color="#FF49A4"/>
<stop offset="0.93" stop-color="#B049FF"/>
</linearGradient>
<linearGradient id="paint2_linear_8043_172165" x1="112.348" y1="95.0802" x2="220.715" y2="95.0802" gradientUnits="userSpaceOnUse">
<stop stop-color="#FF49A4"/>
<stop offset="0.93" stop-color="#B049FF"/>
</linearGradient>
<linearGradient id="paint3_linear_8043_172165" x1="134.801" y1="95.0807" x2="198.263" y2="95.0807" gradientUnits="userSpaceOnUse">
<stop stop-color="#FF49A4"/>
<stop offset="0.93" stop-color="#B049FF"/>
</linearGradient>
<linearGradient id="paint4_linear_8043_172165" x1="71.4336" y1="95.0791" x2="98.6436" y2="95.0791" gradientUnits="userSpaceOnUse">
<stop stop-color="#FF49A4"/>
<stop offset="0.93" stop-color="#B049FF"/>
</linearGradient>
<linearGradient id="paint5_linear_8043_172165" x1="45.6484" y1="38.171" x2="45.6484" y2="95.3099" gradientUnits="userSpaceOnUse">
<stop stop-color="#F9A606"/>
<stop offset="1" stop-color="#FBCC5F"/>
</linearGradient>
<linearGradient id="paint6_linear_8043_172165" x1="45.6484" y1="99.6641" x2="45.6484" y2="145.497" gradientUnits="userSpaceOnUse">
<stop stop-color="#5AD5B5"/>
<stop offset="1" stop-color="#B2EB8A"/>
</linearGradient>
</defs>
</svg>
