<svg width="61" height="60" viewBox="0 0 61 60" fill="none" xmlns="http://www.w3.org/2000/svg">
<rect x="0.766602" width="60" height="60" rx="8" fill="url(#paint0_linear_3689_4155)"/>
<path fill-rule="evenodd" clip-rule="evenodd" d="M40.0734 22.5401C39.4982 21.8828 38.4991 21.8162 37.8417 22.3913C37.1844 22.9665 37.1178 23.9656 37.693 24.623L40.9332 28.3261H31.7663C30.8929 28.3261 30.1848 29.0342 30.1848 29.9076C30.1848 30.7811 30.8929 31.4891 31.7663 31.4891H40.9332L37.693 35.1922C37.1178 35.8496 37.1844 36.8487 37.8417 37.4239C38.4991 37.9991 39.4982 37.9325 40.0734 37.2751L45.6087 30.949C46.1304 30.3528 46.1304 29.4624 45.6087 28.8662L40.0734 22.5401ZM20.5112 29.9076C20.5112 31.2178 19.4491 32.2799 18.1389 32.2799C16.8287 32.2799 15.7666 31.2178 15.7666 29.9076C15.7666 28.5974 16.8287 27.5353 18.1389 27.5353C19.4491 27.5353 20.5112 28.5974 20.5112 29.9076ZM23.068 29.9076C23.068 29.0341 23.7761 28.3261 24.6495 28.3261H26.231C27.1045 28.3261 27.8125 29.0341 27.8125 29.9076C27.8125 30.781 27.1045 31.4891 26.231 31.4891H24.6495C23.7761 31.4891 23.068 30.781 23.068 29.9076Z" fill="url(#paint1_linear_3689_4155)"/>
<defs>
<linearGradient id="paint0_linear_3689_4155" x1="3.78248" y1="-1.38158" x2="29.796" y2="71.1133" gradientUnits="userSpaceOnUse">
<stop offset="0.0559211" stop-color="#FFEAEA"/>
<stop offset="1" stop-color="#FFF5EA"/>
</linearGradient>
<linearGradient id="paint1_linear_3689_4155" x1="45.027" y1="31.2256" x2="16.89" y2="37.5802" gradientUnits="userSpaceOnUse">
<stop stop-color="#E97047"/>
<stop offset="0.578125" stop-color="#E7A77F"/>
<stop offset="1" stop-color="#007DA3"/>
</linearGradient>
</defs>
</svg>
