<svg
  width="60"
  height="60"
  viewBox="0 0 60 60"
  fill="none"
  xmlns="http://www.w3.org/2000/svg"
>
  <g clip-path="url(#clip0_11489_111976)">
    <rect width="60" height="60" rx="8" fill="#F9EEFC" />
    <path
      fill-rule="evenodd"
      clip-rule="evenodd"
      d="M29.9669 18C35.4298 18 40.7773 20.5974 45.9811 25.5494C45.9877 25.5557 45.9941 25.562 46.0005 25.5683C46.5233 26.0912 46.8664 26.8566 46.8664 27.651C46.8664 27.8059 46.8341 27.9533 46.776 28.0868C46.6944 28.6771 46.4379 29.2966 45.9038 29.7665C45.5904 30.0655 45.2765 30.356 44.9622 30.6378C44.9418 30.6661 44.9198 30.6937 44.8963 30.7204C44.8099 30.8188 44.7097 30.8978 44.6013 30.9573C40.0143 34.9682 35.3261 37.139 30.5384 37.3059C25.538 37.4802 20.6228 35.4623 15.8065 31.4464C15.6778 31.5642 15.551 31.6844 15.4246 31.8108C15.4143 31.8211 15.4038 31.8312 15.3931 31.841C15.1415 32.0733 15.0868 32.5253 15.3968 32.8605L15.4053 32.8684C20.3574 37.581 25.1934 39.8159 29.9138 39.8159C34.6343 39.8159 39.4702 37.581 44.4224 32.8684C44.8594 32.4526 45.5506 32.4698 45.9664 32.9067C46.3821 33.3436 46.365 34.0348 45.9281 34.4506C40.7242 39.4027 35.3768 42 29.9138 42C24.4899 42 19.1797 39.4396 14.0109 34.5562C13.9047 34.4849 13.7921 34.3837 13.6977 34.2423C13.6907 34.2317 13.6838 34.221 13.6772 34.2104C12.7001 33.0231 12.7871 31.2915 13.8942 30.2524C14.2682 29.8797 14.6394 29.5572 14.985 29.2606C15.0296 29.2118 15.0776 29.1679 15.1284 29.1289C19.9644 24.8966 24.9006 22.6829 29.9338 22.6829C34.7228 22.6829 39.4239 24.6869 44.0345 28.527C44.1608 28.4095 44.2872 28.2903 44.4136 28.1695C44.4278 28.156 44.4424 28.1428 44.4573 28.13C44.5337 28.0645 44.6219 27.9162 44.6219 27.6487C44.6219 27.5732 44.6296 27.4995 44.6442 27.4283C44.606 27.3121 44.5418 27.2012 44.4633 27.12C39.5154 22.4154 34.6835 20.1841 29.9669 20.1841C25.2465 20.1841 20.4105 22.4191 15.4583 27.1316C15.0214 27.5474 14.3302 27.5303 13.9144 27.0934C13.4986 26.6564 13.5158 25.9652 13.9527 25.5494C19.1566 20.5974 24.504 18 29.9669 18ZM42.371 29.9861C38.1248 26.5207 33.9872 24.867 29.9338 24.867C25.876 24.867 21.7336 26.5244 17.4824 29.9978C21.9186 33.6192 26.2372 35.2704 30.4623 35.1231C34.3508 34.9875 38.3171 33.3232 42.371 29.9861ZM27.7547 29.9981C27.7547 28.7918 28.7325 27.814 29.9388 27.814C31.145 27.814 32.1229 28.7918 32.1229 29.9981C32.1229 31.2043 31.145 32.1822 29.9388 32.1822C28.7325 32.1822 27.7547 31.2043 27.7547 29.9981ZM29.9388 25.6299C27.5263 25.6299 25.5706 27.5856 25.5706 29.9981C25.5706 32.4106 27.5263 34.3663 29.9388 34.3663C32.3513 34.3663 34.307 32.4106 34.307 29.9981C34.307 27.5856 32.3513 25.6299 29.9388 25.6299Z"
      fill="url(#paint0_linear_11489_111976)"
    />
    <rect x="35.6016" y="30.5996" width="10.4" height="9.6" rx="4.8" fill="#F9EEFC" />
    <path
      fill-rule="evenodd"
      clip-rule="evenodd"
      d="M43.5583 38.5583C45.2496 36.8671 45.2496 34.125 43.5583 32.4338C41.8671 30.7425 39.125 30.7425 37.4338 32.4338C35.7425 34.125 35.7425 36.8671 37.4338 38.5583C39.125 40.2496 41.8671 40.2496 43.5583 38.5583ZM45.0895 40.0895C47.6264 37.5526 47.6264 33.4395 45.0895 30.9027C42.5526 28.3658 38.4395 28.3658 35.9027 30.9027C33.3658 33.4395 33.3658 37.5526 35.9027 40.0895C38.4395 42.6264 42.5526 42.6264 45.0895 40.0895Z"
      fill="#031371"
    />
    <path
      d="M42.7928 39.3239L44.3239 37.7928L49.6829 43.1518C50.1057 43.5746 50.1057 44.2601 49.6829 44.6829C49.2601 45.1057 48.5746 45.1057 48.1518 44.6829L42.7928 39.3239Z"
      fill="#031371"
    />
  </g>
  <defs>
    <linearGradient
      id="paint0_linear_11489_111976"
      x1="13"
      y1="30"
      x2="46.8666"
      y2="30"
      gradientUnits="userSpaceOnUse"
    >
      <stop stop-color="#F154DB" />
      <stop offset="1" stop-color="#974EEA" />
    </linearGradient>
    <clipPath id="clip0_11489_111976">
      <rect width="60" height="60" fill="white" />
    </clipPath>
  </defs>
</svg>
