<svg xmlns="http://www.w3.org/2000/svg" width="252" height="252" fill="none" xmlns:v="https://vecta.io/nano"><style><![CDATA[.B{stroke-width:6}.C{fill:#f46161}.D{stroke:#ffb5b5}.E{stroke-linecap:round}.F{stroke-linejoin:round}.G{color-interpolation-filters:sRGB}.H{flood-opacity:0}]]></style><path opacity=".5" d="M0 16C0 7.163 7.163 0 16 0h220c8.837 0 16 7.163 16 16v220c0 8.837-7.163 16-16 16H16c-8.837 0-16-7.163-16-16V16z" fill="#fff"/><mask id="A" maskUnits="userSpaceOnUse" x="0" y="0" width="252" height="252" mask-type="alpha"><path d="M0 16C0 7.163 7.163 0 16 0h220c8.837 0 16 7.163 16 16v220c0 8.837-7.163 16-16 16H16c-8.837 0-16-7.163-16-16V16z" fill="#fff"/></mask><g mask="url(#A)"><g filter="url(#B)"><path d="M84.488 79.674c.56-2.074 2.683-3.234 4.768-2.716 7.348 1.825 24.039 5.62 35.744 5.62s28.396-3.795 35.744-5.62c2.085-.518 4.208.642 4.768 2.716 3.072 11.385 11.067 46.448-1.053 65.391-8.761 13.693-31.771 24.81-37.926 27.605-.986.448-2.08.448-3.066 0-6.155-2.795-29.165-13.912-37.926-27.605-12.12-18.943-4.125-54.006-1.053-65.391z" class="C"/><path d="M89.979 74.046c-3.563-.885-7.374 1.09-8.387 4.846-1.56 5.782-4.38 17.604-5.267 30.436-.878 12.699.085 27.032 6.689 37.354 4.748 7.421 13.158 13.911 20.858 18.804 7.781 4.944 15.211 8.488 18.355 9.916a6.67 6.67 0 0 0 5.546 0c3.144-1.428 10.574-4.972 18.355-9.916 7.7-4.893 16.11-11.383 20.858-18.804 6.604-10.322 7.567-24.655 6.689-37.354-.887-12.832-3.707-24.654-5.267-30.436-1.013-3.756-4.825-5.731-8.387-4.846-7.381 1.833-23.733 5.532-35.021 5.532s-27.64-3.699-35.021-5.532z" class="B D"/></g><path d="M114.622 123.354l7.519 8.509 15.039-18.841" stroke="#fff" stroke-width="7" class="E F"/><g opacity=".5"><g filter="url(#C)"><path d="M208.433 87.758c.423-1.555 2.015-2.428 3.578-2.038 5.805 1.448 19.452 4.577 28.989 4.577s23.184-3.129 28.989-4.577c1.563-.39 3.155.483 3.578 2.038 2.431 8.949 9.038 37.488-.794 52.855-7.094 11.087-25.791 20.077-30.621 22.265-.74.335-1.564.335-2.304 0-4.83-2.188-23.527-11.178-30.621-22.265-9.832-15.367-3.225-43.906-.794-52.855z" class="C"/><path d="M205.538 86.971l2.895.787-2.895-.787c-1.24 4.563-3.553 14.145-4.299 24.594-.736 10.313-.002 22.126 5.461 30.665 3.916 6.12 10.834 11.428 17.08 15.387 6.329 4.01 12.349 6.87 14.83 7.994a5.77 5.77 0 0 0 4.78 0l-1.238-2.733 1.238 2.733c2.481-1.124 8.501-3.984 14.83-7.994 6.246-3.959 13.164-9.267 17.08-15.387 5.463-8.539 6.197-20.352 5.461-30.665-.746-10.449-3.059-20.031-4.299-24.594-.877-3.225-4.148-4.924-7.199-4.162-5.84 1.457-19.146 4.488-28.263 4.488s-22.423-3.031-28.263-4.488c-3.051-.761-6.322.938-7.199 4.162z" class="B D"/></g><path d="M232.643 123.131l6.055 6.851 12.109-15.171" stroke="#fff" class="B E F"/></g><g opacity=".3"><g filter="url(#D)"><path d="M-24.567 87.758c.422-1.555 2.014-2.428 3.578-2.038C-15.184 87.168-1.537 90.297 8 90.297s23.184-3.129 28.989-4.577c1.563-.39 3.155.483 3.578 2.038 2.432 8.949 9.038 37.488-.794 52.855-7.094 11.087-25.791 20.077-30.621 22.265-.74.335-1.564.335-2.304 0-4.83-2.188-23.527-11.178-30.621-22.265-9.832-15.367-3.225-43.906-.794-52.855z" class="C"/><path d="M-27.462 86.971l2.895.787-2.895-.787c-1.24 4.563-3.553 14.145-4.299 24.594-.736 10.313-.002 22.126 5.461 30.665 3.916 6.12 10.834 11.428 17.08 15.387 6.328 4.01 12.349 6.87 14.83 7.994a5.77 5.77 0 0 0 4.78 0l-1.238-2.733 1.238 2.733a126.56 126.56 0 0 0 14.83-7.994c6.247-3.959 13.164-9.267 17.08-15.387 5.463-8.539 6.197-20.352 5.461-30.665-.746-10.449-3.059-20.031-4.299-24.594-.876-3.225-4.148-4.924-7.199-4.162C30.423 84.265 17.117 87.297 8 87.297s-22.423-3.031-28.263-4.488c-3.051-.761-6.323.938-7.199 4.162z" class="B D"/></g><path d="M-.357 123.131l6.055 6.851 12.109-15.171" stroke="#fff" class="B E F"/></g></g><defs><filter id="B" x="65.049" y="63.838" width="119.902" height="124.167" filterUnits="userSpaceOnUse" class="G"><feFlood result="A" class="H"/><feColorMatrix in="SourceAlpha" values="0 0 0 0 0 0 0 0 0 0 0 0 0 0 0 0 0 0 127 0" result="B"/><feOffset dy="1"/><feGaussianBlur stdDeviation="4"/><feComposite in2="B" operator="out"/><feColorMatrix values="0 0 0 0 0 0 0 0 0 0 0 0 0 0 0 0 0 0 0.06 0"/><feBlend in2="A"/><feBlend in="SourceGraphic"/></filter><filter id="C" x="189.999" y="72.63" width="102.002" height="105.5" filterUnits="userSpaceOnUse" class="G"><feFlood result="A" class="H"/><feColorMatrix in="SourceAlpha" values="0 0 0 0 0 0 0 0 0 0 0 0 0 0 0 0 0 0 127 0" result="B"/><feOffset dy="1"/><feGaussianBlur stdDeviation="4"/><feComposite in2="B" operator="out"/><feColorMatrix values="0 0 0 0 0 0 0 0 0 0 0 0 0 0 0 0 0 0 0.06 0"/><feBlend in2="A"/><feBlend in="SourceGraphic"/></filter><filter id="D" x="-43.001" y="72.63" width="102.002" height="105.5" filterUnits="userSpaceOnUse" class="G"><feFlood result="A" class="H"/><feColorMatrix in="SourceAlpha" values="0 0 0 0 0 0 0 0 0 0 0 0 0 0 0 0 0 0 127 0" result="B"/><feOffset dy="1"/><feGaussianBlur stdDeviation="4"/><feComposite in2="B" operator="out"/><feColorMatrix values="0 0 0 0 0 0 0 0 0 0 0 0 0 0 0 0 0 0 0.06 0"/><feBlend in2="A"/><feBlend in="SourceGraphic"/></filter></defs></svg>