<svg xmlns="http://www.w3.org/2000/svg" width="528" height="208" fill="none" xmlns:v="https://vecta.io/nano"><style><![CDATA[.B{opacity:.5}.C{fill:#25273d}.D{fill:#878bfc}.E{fill:#5c5ffe}.F{color-interpolation-filters:sRGB}.G{flood-opacity:0}.H{fill:#575cfe}.I{fill-rule:evenodd}]]></style><path d="M0 16C0 7.163 7.163 0 16 0h496c8.837 0 16 7.163 16 16v176c0 8.837-7.163 16-16 16H16c-8.837 0-16-7.163-16-16V16z" fill="#fff" class="B"/><mask id="A" maskUnits="userSpaceOnUse" x="0" y="0" width="528" height="208" mask-type="alpha"><path d="M0 16C0 7.163 7.163 0 16 0h496c8.837 0 16 7.163 16 16v176c0 8.837-7.163 16-16 16H16c-8.837 0-16-7.163-16-16V16z" class="C"/></mask><g mask="url(#A)"><g filter="url(#B)"><rect x="293" y="24" width="184" height="218" rx="16" fill="#fff"/></g><rect x="309" y="69" width="152" height="35" rx="8" fill="#f1f3f4"/><rect x="309" y="115" width="152" height="35" rx="8" fill="#f1f3f4"/><rect x="309" y="160" width="152" height="35" rx="17.5" class="C"/><path d="M380 178.837L384.193 183.645L392.58 173" stroke="url(#F)" stroke-width="3" stroke-linecap="round" stroke-linejoin="round"/><g filter="url(#C)"><g filter="url(#D)" class="H"><circle cx="385" cy="29" r="25"/></g><path d="M394.267 33.097c2.074-4.675.327-10.257-4.201-12.871a10.09 10.09 0 0 0-6.686-1.227l.754 2.816c1.502-.182 3.074.103 4.485.918a7.24 7.24 0 0 1 3.121 8.905l-1.933-1.116.543 6.581 5.97-2.82-2.053-1.185z" fill="#fff"/><path d="M379.934 37.774c-4.528-2.614-6.275-8.197-4.201-12.871l-2.053-1.185 5.97-2.82.543 6.581-1.933-1.116a7.24 7.24 0 0 0 3.122 8.905c1.411.815 2.982 1.1 4.484.918l.754 2.816a10.09 10.09 0 0 1-6.686-1.227z" fill="#fff"/></g><circle opacity=".34" cx="197" cy="104" r="2" class="C"/><circle opacity=".34" cx="271" cy="104" r="2" class="C"/><circle cx="233.962" cy="104" r="3" class="C"/><circle cx="214.962" cy="104" r="4" class="B C"/><circle cx="252.962" cy="104" r="4" class="B C"/><rect x="72.789" y="149.606" width="10.394" height="20.789" rx="5.197" class="H"/><rect x="143.817" y="149.606" width="10.394" height="20.789" rx="5.197" class="H"/><rect x="52" y="37" width="123" height="123" rx="10" fill="#d8d9fe"/><rect x="58.929" y="43.929" width="109.141" height="109.141" rx="6" fill="#ededff"/><rect x="67.591" y="52.22" width="4" height="4" rx="2" class="B D"/><rect x="74.591" y="52.22" width="4" height="4" rx="2" class="B D"/><rect x="81.591" y="52.22" width="4" height="4" rx="2" class="B D"/><g filter="url(#E)" class="E I"><path d="M113.5 80.31c-11.96 0-21.655 9.695-21.655 21.655A21.66 21.66 0 0 0 113.5 123.62a21.66 21.66 0 0 0 21.655-21.655c0-11.96-9.695-21.655-21.655-21.655zm-28.585 21.655c0-15.787 12.798-28.585 28.585-28.585s28.585 12.798 28.585 28.585-12.798 28.584-28.585 28.584-28.585-12.798-28.585-28.584z"/></g><path d="M125.137 92.777a1.73 1.73 0 0 0 0-2.45c-.676-.676-1.773-.676-2.45 0l-9.187 9.188-9.187-9.187c-.677-.677-1.774-.677-2.45 0a1.73 1.73 0 0 0 0 2.45l9.187 9.187-9.188 9.188c-.676.676-.676 1.773 0 2.45s1.774.676 2.45 0l9.188-9.188 9.187 9.188c.677.676 1.774.676 2.45 0a1.73 1.73 0 0 0 0-2.45l-9.187-9.188 9.187-9.187z" class="B D I"/><circle cx="113.5" cy="101.965" r="4.331" class="E"/><rect x="164.606" y="61.254" width="6.93" height="15.592" rx="3.465" class="E"/><rect x="164.606" y="123.62" width="6.93" height="15.592" rx="3.465" class="E"/></g><defs><filter id="B" x="281" y="12" width="208" height="242" filterUnits="userSpaceOnUse" class="F"><feFlood result="A" class="G"/><feColorMatrix in="SourceAlpha" values="0 0 0 0 0 0 0 0 0 0 0 0 0 0 0 0 0 0 127 0" result="B"/><feOffset/><feGaussianBlur stdDeviation="6"/><feComposite in2="B" operator="out"/><feColorMatrix values="0 0 0 0 0 0 0 0 0 0 0 0 0 0 0 0 0 0 0.05 0"/><feBlend in2="A"/><feBlend in="SourceGraphic"/></filter><filter id="C" x="356" y="1" width="58" height="58" filterUnits="userSpaceOnUse" class="F"><feFlood result="A" class="G"/><feColorMatrix in="SourceAlpha" values="0 0 0 0 0 0 0 0 0 0 0 0 0 0 0 0 0 0 127 0" result="B"/><feOffset dy="1"/><feGaussianBlur stdDeviation="2"/><feComposite in2="B" operator="out"/><feColorMatrix values="0 0 0 0 0 0 0 0 0 0 0 0 0 0 0 0 0 0 0.1 0"/><feBlend in2="A"/><feBlend in="SourceGraphic"/></filter><filter id="D" x="356" y="0" width="58" height="58" filterUnits="userSpaceOnUse" class="F"><feFlood result="A" class="G"/><feColorMatrix in="SourceAlpha" values="0 0 0 0 0 0 0 0 0 0 0 0 0 0 0 0 0 0 127 0" result="B"/><feOffset/><feGaussianBlur stdDeviation="2"/><feComposite in2="B" operator="out"/><feColorMatrix values="0 0 0 0 0 0 0 0 0 0 0 0 0 0 0 0 0 0 0.1 0"/><feBlend in2="A"/><feBlend in="SourceGraphic"/></filter><filter id="E" x="76.916" y="66.38" width="73.169" height="73.169" filterUnits="userSpaceOnUse" class="F"><feFlood result="A" class="G"/><feColorMatrix in="SourceAlpha" values="0 0 0 0 0 0 0 0 0 0 0 0 0 0 0 0 0 0 127 0"/><feOffset dy="1"/><feGaussianBlur stdDeviation="4"/><feColorMatrix values="0 0 0 0 0.145098 0 0 0 0 0.152941 0 0 0 0 0.239216 0 0 0 0.1 0"/><feBlend in2="A"/><feBlend in="SourceGraphic"/></filter><radialGradient id="F" cx="0" cy="0" r="1" gradientUnits="userSpaceOnUse" gradientTransform="translate(381.398 175.365) rotate(36.1759) scale(11.6884 34.6879)"><stop stop-color="#ffcceb"/><stop offset=".474" stop-color="#bfc6ff"/><stop offset="1" stop-color="#96e4d2"/></radialGradient></defs></svg>