<svg xmlns="http://www.w3.org/2000/svg" xmlns:xlink="http://www.w3.org/1999/xlink" width="325" height="208" fill="none" xmlns:v="https://vecta.io/nano"><path d="M0 24C0 10.745 10.745 0 24 0h277c13.255 0 24 10.745 24 24v184H0V24z" fill="#25273d"/><mask id="A" maskUnits="userSpaceOnUse" x="0" y="0" width="325" height="208" mask-type="alpha"><path d="M0 24C0 10.745 10.745 0 24 0h277c13.255 0 24 10.745 24 24v184H0V24z" fill="#25273d"/></mask><g mask="url(#A)"><path d="M225.5 120.083c13.577 0 24.583-11.006 24.583-24.583S239.077 70.917 225.5 70.917 200.917 81.923 200.917 95.5s11.006 24.583 24.583 24.583z" fill="url(#D)"/><path d="M225.5 80.75v20.375l-9.833-5.351L225.5 80.75z" fill="#fff"/><path d="M225.5 80.75l9.833 15.024-9.833 5.351V80.75zm0 22.09v7.41l-9.833-12.759 9.833 5.349z" fill="#fff"/><path d="M225.5 110.25v-7.41l9.833-5.349-9.833 12.759z" fill="#fff"/><path d="M284.5 179.083c13.577 0 24.583-11.006 24.583-24.583s-11.006-24.583-24.583-24.583-24.583 11.006-24.583 24.583 11.006 24.583 24.583 24.583z" fill="url(#E)"/><path d="M292.637 149.239a2.07 2.07 0 0 0-2.006 0l-4.597 2.63-3.127 1.716-4.597 2.631c-.307.169-.653.258-1.003.258a2.08 2.08 0 0 1-1.003-.258l-3.658-2.061c-.293-.168-.537-.409-.709-.699a1.97 1.97 0 0 1-.275-.957v-4.062c-.003-.339.086-.674.26-.966s.424-.531.724-.691l3.599-2.001a2.08 2.08 0 0 1 1.003-.258c.35 0 .696.089 1.003.258l3.594 2.001a1.97 1.97 0 0 1 .983 1.657v2.621l3.147-1.76v-2.631a1.85 1.85 0 0 0-.258-.967c-.174-.292-.425-.531-.726-.69l-6.681-3.785c-.308-.167-.653-.255-1.003-.255s-.695.088-1.003.255l-6.78 3.785c-.301.159-.552.398-.726.69a1.85 1.85 0 0 0-.258.967v7.602c-.005.34.084.676.258.969a1.84 1.84 0 0 0 .726.692l6.78 3.771a2.07 2.07 0 0 0 1.003.259c.35 0 .696-.089 1.003-.259l4.597-2.571 3.127-1.775 4.597-2.571a2.07 2.07 0 0 1 2.006 0l3.599 2.001c.292.168.536.409.708.7s.267.619.275.957v4.061a1.85 1.85 0 0 1-.259.966c-.174.292-.424.531-.724.691l-3.599 2.06a2.08 2.08 0 0 1-2.006 0l-3.594-2.001c-.293-.169-.537-.41-.709-.7a1.97 1.97 0 0 1-.275-.957v-2.621l-3.127 1.77v2.631c-.004.34.085.674.258.967s.425.531.726.69l6.78 3.776c.308.167.653.254 1.003.254s.695-.087 1.003-.254l6.78-3.786a1.97 1.97 0 0 0 .708-.7 1.96 1.96 0 0 0 .275-.957v-7.601c.005-.341-.084-.677-.257-.97a1.85 1.85 0 0 0-.726-.692l-6.839-3.83z" fill="#fff"/><circle cx="284.5" cy="95.5" r="24.583" fill="url(#F)"/><path fill-rule="evenodd" d="M288.986 92.629c-.699 2.608-4.691 1.198-5.987.851l1.231-4.594c1.296.347 5.482 1.031 4.756 3.743zm-.847 7.419c-.764 2.851-5.562 1.216-7.118.799l1.356-5.059c1.555.421 6.56 1.283 5.762 4.261zm5.404-7.302c.468-2.791-1.634-4.333-4.528-5.406l1.005-3.751-2.295-.615-.986 3.677-1.84-.47.991-3.699-2.282-.611-1.011 3.773-1.46-.391-3.19-.855-.658 2.456 1.669.447a1.23 1.23 0 0 1 1.033 1.358l-2.768 10.332a.84.84 0 0 1-1.065.53c.015.032-1.677-.45-1.677-.45l-1.192 2.621 2.991.801 1.643.44-1.027 3.834 2.295.615 1.012-3.777 1.834.491-1.007 3.76 2.299.616 1.016-3.79c3.94.804 6.9.572 8.211-2.966 1.057-2.848.032-4.52-2.022-5.634 1.516-.321 2.676-1.291 3.009-3.335z" fill="#fff"/><circle cx="225.5" cy="154.5" r="24.583" fill="url(#G)"/><path fill-rule="evenodd" d="M216.177 142.923h9.364c5.696 0 10.014 3.062 11.62 7.517h2.917v2.693h-2.302c.045.425.068.859.068 1.299v.066a12.33 12.33 0 0 1-.086 1.461h2.32v2.693h-2.972c-1.649 4.393-5.933 7.425-11.565 7.425h-9.364v-7.425h-3.255v-2.693h3.255v-2.826h-3.255v-2.693h3.255v-7.517zm2.618 15.729v5.01h6.746c4.163 0 7.257-2.007 8.696-5.01h-15.442zm16.244-2.693h-16.244v-2.826h16.249c.06.444.091.9.091 1.365v.066c0 .476-.033.941-.096 1.395zm-9.498-10.624c4.183 0 7.285 2.059 8.716 5.105h-15.462v-5.105h6.746z" fill="#fff"/><g filter="url(#B)"><path d="M-78 32h273c13.255 0 24 10.745 24 24v152H-62c-8.837 0-16-7.163-16-16V32z" fill="#fff"/></g><g filter="url(#C)"><rect x="18" y="48" width="185" height="48" rx="24" fill="#fff"/><rect x="18.5" y="48.5" width="184" height="47" rx="23.5" stroke="url(#H)"/></g><path d="M73.292 77.18c2.808 0 4.662-2.142 4.662-4.662s-1.872-4.68-4.662-4.68c-2.826 0-4.662 2.142-4.662 4.68 0 2.52 1.836 4.662 4.662 4.662zm0-1.98c-1.332 0-2.502-.99-2.502-2.682 0-1.71 1.17-2.7 2.502-2.7 1.314 0 2.484.99 2.484 2.7 0 1.692-1.17 2.682-2.484 2.682zM86.376 68v1.386c-.63-.99-1.692-1.548-2.97-1.548-2.358 0-4.194 1.854-4.194 4.662 0 2.826 1.836 4.68 4.194 4.68 1.278 0 2.34-.558 2.97-1.548v1.386h2.16V68h-2.16zm-2.484 7.236c-1.332 0-2.412-1.026-2.412-2.736 0-1.692 1.08-2.718 2.412-2.718s2.43 1.026 2.43 2.718c0 1.71-1.098 2.736-2.43 2.736zm11.017-3.528l-1.152-.216c-.558-.126-1.08-.396-1.08-.99 0-.63.594-.972 1.314-.972.828 0 1.368.486 1.476 1.332l2.034-.36c-.252-1.674-1.548-2.682-3.42-2.682-1.836 0-3.492.972-3.492 2.736 0 1.458 1.08 2.322 2.718 2.718l1.062.234c.522.126 1.17.378 1.17.99 0 .594-.558 1.008-1.44 1.008-.846 0-1.512-.468-1.638-1.35l-2.016.36c.27 1.674 1.782 2.664 3.654 2.664 2.034 0 3.654-1.008 3.654-2.772 0-1.476-1.116-2.304-2.844-2.7zm6.058-5.238c.738 0 1.332-.612 1.332-1.35a1.33 1.33 0 1 0-2.664 0c0 .738.594 1.35 1.332 1.35zM99.869 68v9.018h2.16V68h-2.16zm8.803 3.708l-1.152-.216c-.558-.126-1.08-.396-1.08-.99 0-.63.594-.972 1.314-.972.828 0 1.368.486 1.476 1.332l2.034-.36c-.252-1.674-1.548-2.682-3.42-2.682-1.836 0-3.492.972-3.492 2.736 0 1.458 1.08 2.322 2.718 2.718l1.062.234c.522.126 1.17.378 1.17.99 0 .594-.558 1.008-1.44 1.008-.846 0-1.512-.468-1.638-1.35l-2.016.36c.27 1.674 1.782 2.664 3.654 2.664 2.034 0 3.654-1.008 3.654-2.772 0-1.476-1.116-2.304-2.844-2.7zM119.933 68v1.386c-.63-.99-1.692-1.548-2.97-1.548-2.358 0-4.194 1.854-4.194 4.662 0 2.826 1.836 4.68 4.194 4.68 1.278 0 2.34-.558 2.97-1.548v1.386h2.16V68h-2.16zm-2.484 7.236c-1.332 0-2.412-1.026-2.412-2.736 0-1.692 1.08-2.718 2.412-2.718s2.43 1.026 2.43 2.718c0 1.71-1.098 2.736-2.43 2.736zm12.132-7.416c-1.278 0-2.358.576-2.97 1.566V68h-2.16v12.618h2.16v-4.986c.612.99 1.674 1.548 2.97 1.548 2.34 0 4.194-1.854 4.194-4.68 0-2.808-1.854-4.68-4.194-4.68zm-.504 7.416c-1.332 0-2.43-1.026-2.43-2.736 0-1.692 1.098-2.718 2.43-2.718s2.43 1.026 2.43 2.718c0 1.71-1.098 2.736-2.43 2.736zm11.561-7.416c-1.278 0-2.358.576-2.97 1.566V68h-2.16v12.618h2.16v-4.986c.612.99 1.674 1.548 2.97 1.548 2.34 0 4.194-1.854 4.194-4.68 0-2.808-1.854-4.68-4.194-4.68zm-.504 7.416c-1.332 0-2.43-1.026-2.43-2.736 0-1.692 1.098-2.718 2.43-2.718s2.43 1.026 2.43 2.718c0 1.71-1.098 2.736-2.43 2.736zm7.942 1.944a1.33 1.33 0 1 0 0-2.664 1.33 1.33 0 1 0 0 2.664zm3.242-4.68c0 2.538 1.782 4.68 4.59 4.68 2.088 0 3.42-1.188 3.96-2.556l-1.818-.558c-.324.738-1.026 1.314-2.142 1.314-1.35 0-2.286-.936-2.376-2.322h6.624c.324-2.826-1.512-5.22-4.392-5.22-2.808 0-4.446 2.142-4.446 4.662zm2.214-.846c.108-1.134.936-2.07 2.232-2.07s2.106.936 2.214 2.07h-4.446zm7.766-1.908h1.368v4.608c0 1.8 1.026 2.844 2.754 2.844.486 0 .918-.09 1.242-.198v-1.602c-.162.036-.324.054-.522.054-.792 0-1.296-.36-1.296-1.368v-4.338h1.854v-1.728h-1.854V65.66h-2.178v2.358h-1.368v1.728zm7.56 7.272V64.4h2.16v4.896c.468-.864 1.332-1.476 2.61-1.476 2.214 0 3.348 1.53 3.348 3.762v5.436h-2.16v-5.112c0-1.35-.612-2.196-1.836-2.196s-1.962.846-1.962 2.196v5.112h-2.16z" fill="#25273d"/><circle cx="42" cy="72" r="16" fill="url(#I)"/><g clip-path="url(#J)"><path d="M48.561 64.719l-5.683 4.263 1.044-2.52 4.639-1.743z" fill="#e2761b"/><path d="M35.439 64.719l5.634 4.304-.996-2.561-4.639-1.743zm11.074 9.892l-1.514 2.34 3.238.9.931-3.191-2.655-.049zm-11.682.049l.931 3.191 3.238-.9-1.514-2.34-2.655.049z" fill="#e4761b"/><path d="M38.814 70.651l-.899 1.375 3.214.147-.113-3.494-2.202 1.972zm6.363 0l-2.226-2.013-.073 3.535 3.206-.147-.907-1.375zm-6.176 6.301l1.927-.949-1.668-1.317-.259 2.267zm4.064-.949l1.935.949-.267-2.267-1.668 1.317z" fill="#e4761b"/><path d="M44.999 76.952l-1.935-.949.154 1.276-.016.54 1.797-.867zm-5.998 0l1.797.867-.008-.54.138-1.276-1.927.949z" fill="#d7c1b3"/><path d="M40.83 73.842l-1.611-.483 1.133-.524.478 1.007zm2.332 0l.478-1.007 1.141.524-1.619.483z" fill="#233447"/><path d="M39.001 76.952l.275-2.34-1.789.049 1.514 2.291zm5.723-2.341l.275 2.34 1.514-2.291-1.789-.049zm1.36-2.585l-3.206.147.291 1.669.478-1.007 1.141.524 1.295-1.334zm-6.865 1.333l1.142-.524.47 1.007.3-1.669-3.214-.147 1.303 1.334z" fill="#cd6116"/><path d="M37.916 72.026l1.344 2.659-.041-1.326-1.303-1.334zm6.873 1.333l-.057 1.326 1.352-2.659-1.295 1.334z" fill="#e4751f" stroke="#e4751f" stroke-width=".07" stroke-linejoin="round"/><path d="M41.13 72.173l-.3 1.669.372 1.972.089-2.594-.162-1.047zm1.748 0l-.154 1.039.065 2.602.38-1.972-.291-1.669z" fill="#e4751f"/><path d="M43.17 73.842l-.38 1.972.275.188 1.668-1.317.057-1.326-1.619.483zm-3.951-.483l.041 1.326 1.668 1.317.275-.188-.372-1.972-1.611-.483z" fill="#f6851b"/><path d="M43.202 77.819l.016-.54-.146-.131h-2.153l-.13.131.008.54-1.797-.867.631.524 1.271.892h2.186l1.279-.892.631-.524-1.797.867z" fill="#c0ad9e"/><path d="M43.065 76.002l-.275-.188h-1.587l-.275.188-.138 1.276.129-.131h2.153l.146.131-.154-1.276z" fill="#161616"/><path d="M48.796 69.26l.494-2.357-.729-2.185-5.497 4.124 2.113 1.808 2.987.884.664-.785-.283-.205.453-.425-.348-.278.453-.352-.308-.229zm-14.078-2.357l.486 2.357-.316.229.462.352-.348.278.453.425-.283.205.656.785 2.987-.884 2.113-1.808-5.489-4.124-.72 2.185z" fill="#763d16"/><path d="M48.165 71.535l-2.987-.884.907 1.375-1.352 2.659 1.781-.024h2.655l-1.004-3.126zm-9.351-.884l-2.987.884-.996 3.126h2.655l1.773.024-1.344-2.659.899-1.375zm4.064 1.522l.186-3.33.866-2.381h-3.853l.85 2.381.202 3.33.073 1.047v2.594h1.587l.008-2.594.081-1.047z" fill="#f6851b"/></g></g><defs><filter id="B" x="-90" y="20" width="321" height="200" filterUnits="userSpaceOnUse" color-interpolation-filters="sRGB"><feFlood flood-opacity="0" result="A"/><feColorMatrix in="SourceAlpha" values="0 0 0 0 0 0 0 0 0 0 0 0 0 0 0 0 0 0 127 0" result="B"/><feOffset/><feGaussianBlur stdDeviation="6"/><feComposite in2="B" operator="out"/><feColorMatrix values="0 0 0 0 0 0 0 0 0 0 0 0 0 0 0 0 0 0 0.1 0"/><feBlend in2="A"/><feBlend in="SourceGraphic"/></filter><filter id="C" x="10" y="40" width="201" height="64" filterUnits="userSpaceOnUse" color-interpolation-filters="sRGB"><feFlood flood-opacity="0" result="A"/><feColorMatrix in="SourceAlpha" values="0 0 0 0 0 0 0 0 0 0 0 0 0 0 0 0 0 0 127 0" result="B"/><feOffset/><feGaussianBlur stdDeviation="4"/><feComposite in2="B" operator="out"/><feColorMatrix values="0 0 0 0 0 0 0 0 0 0 0 0 0 0 0 0 0 0 0.1 0"/><feBlend in2="A"/><feBlend in="SourceGraphic"/></filter><linearGradient id="D" x1="202.661" y1="95.501" x2="249.783" y2="132.376" xlink:href="#K"><stop stop-color="#6580eb"/><stop offset="1" stop-color="#8ea2f2"/></linearGradient><linearGradient id="E" x1="268.828" y1="136.984" x2="295.562" y2="172.937" xlink:href="#K"><stop stop-color="#8247e5"/><stop offset="1" stop-color="#b993fa"/></linearGradient><linearGradient id="F" x1="259.917" y1="70.917" x2="291.944" y2="121.501" xlink:href="#K"><stop stop-color="#f48702"/><stop offset="1" stop-color="#fcbd71"/></linearGradient><linearGradient id="G" x1="225.5" y1="122.951" x2="225.5" y2="184.246" xlink:href="#K"><stop stop-color="#f9a606"/><stop offset="1" stop-color="#fbcc5f"/></linearGradient><radialGradient id="H" cx="0" cy="0" r="1" gradientTransform="translate(38.5556 58.6667) rotate(12.6381) scale(142.195 189.083)" xlink:href="#K"><stop stop-color="#ffcceb"/><stop offset=".474" stop-color="#bfc6ff"/><stop offset="1" stop-color="#96e4d2"/></radialGradient><linearGradient id="I" x1="42" y1="56" x2="42" y2="88" xlink:href="#K"><stop stop-color="#ffe1a8"/><stop offset="1" stop-color="#ffd2f0"/></linearGradient><clipPath id="J"><path fill="#fff" transform="translate(34.686 64.686)" d="M0 0h14.629v13.714H0z"/></clipPath><linearGradient id="K" gradientUnits="userSpaceOnUse"/></defs></svg>