<svg xmlns="http://www.w3.org/2000/svg" width="325" height="208" fill="none" xmlns:v="https://vecta.io/nano"><style><![CDATA[.B{fill:#e6e9eb}.C{fill-rule:evenodd}.D{fill:#575cfe}]]></style><path opacity=".5" d="M0 24C0 10.745 10.745 0 24 0h277c13.255 0 24 10.745 24 24v184H0V24z" fill="#fff"/><mask id="A" maskUnits="userSpaceOnUse" x="0" y="0" width="325" height="208" mask-type="alpha"><path d="M0 24C0 10.745 10.745 0 24 0h277c13.255 0 24 10.745 24 24v184H0V24z" fill="#fff"/></mask><g mask="url(#A)"><rect x="30" y="38" width="266" height="58" rx="12" fill="#25273d"/><path d="M54.55 68.954c1.008.224 1.596.602 1.596 1.358 0 .854-.742 1.358-1.862 1.358-1.106 0-1.834-.644-2.058-1.722l-1.666.238c.322 1.932 1.75 2.954 3.752 2.954 2.072 0 3.766-1.092 3.766-2.926 0-1.526-.896-2.408-2.94-2.87l-1.134-.252c-.91-.21-1.386-.602-1.386-1.288 0-.714.588-1.246 1.694-1.246 1.176 0 1.778.742 1.862 1.694L57.868 66c-.168-1.904-1.736-2.912-3.57-2.912-1.736 0-3.514.924-3.514 2.856 0 1.722 1.274 2.45 2.856 2.8l.91.21zm4.594.546c0 1.974 1.386 3.64 3.57 3.64 1.624 0 2.66-.924 3.08-1.988l-1.414-.434c-.252.574-.798 1.022-1.666 1.022-1.05 0-1.778-.728-1.848-1.806h5.152c.252-2.198-1.176-4.06-3.416-4.06-2.184 0-3.458 1.666-3.458 3.626zm1.722-.658c.084-.882.728-1.61 1.736-1.61s1.638.728 1.722 1.61h-3.458zM72.619 66v1.078c-.49-.77-1.316-1.204-2.31-1.204-1.834 0-3.262 1.442-3.262 3.626 0 2.198 1.428 3.64 3.262 3.64.994 0 1.82-.434 2.31-1.204v1.078h1.68V66h-1.68zm-1.932 5.628c-1.036 0-1.876-.798-1.876-2.128 0-1.316.84-2.114 1.876-2.114s1.89.798 1.89 2.114c0 1.33-.854 2.128-1.89 2.128zm5.446 1.386V66h1.68v1.204c.364-.896 1.106-1.484 2.38-1.204v1.526c-1.302-.266-2.38.21-2.38 1.708v3.78h-1.68zm4.763-3.514c0 1.974 1.428 3.64 3.626 3.64 1.624 0 2.772-.924 3.164-2.128l-1.498-.462c-.294.672-.91 1.05-1.666 1.05-1.036 0-1.946-.77-1.946-2.1 0-1.316.91-2.086 1.946-2.086.756 0 1.372.378 1.666 1.05l1.498-.462c-.392-1.204-1.554-2.128-3.164-2.128-2.198 0-3.626 1.666-3.626 3.626zm8.269 3.514V63.2h1.68v3.808c.364-.672 1.036-1.148 2.03-1.148 1.722 0 2.604 1.19 2.604 2.926v4.228H93.8v-3.976c0-1.05-.476-1.708-1.428-1.708s-1.526.658-1.526 1.708v3.976h-1.68zm9.827-8.372h3.206v8.372h1.68v-8.372h3.22V63.2h-8.12l.014 1.442zM107.745 73h1.974l2.702-3.822L115.123 73h1.988l-3.64-5.04 3.374-4.746h-1.988l-2.436 3.528-2.436-3.528h-1.988l3.402 4.746-3.654 5.04zm13.221.014V63.2h1.68v3.808c.364-.672 1.036-1.148 2.03-1.148 1.722 0 2.604 1.19 2.604 2.926v4.228h-1.68v-3.976c0-1.05-.476-1.708-1.428-1.708s-1.526.658-1.526 1.708v3.976h-1.68zM134.06 66v1.078c-.49-.77-1.316-1.204-2.31-1.204-1.834 0-3.262 1.442-3.262 3.626 0 2.198 1.428 3.64 3.262 3.64.994 0 1.82-.434 2.31-1.204v1.078h1.68V66h-1.68zm-1.932 5.628c-1.036 0-1.876-.798-1.876-2.128 0-1.316.84-2.114 1.876-2.114s1.89.798 1.89 2.114c0 1.33-.854 2.128-1.89 2.128zm8.568-2.744l-.896-.168c-.434-.098-.84-.308-.84-.77 0-.49.462-.756 1.022-.756.644 0 1.064.378 1.148 1.036l1.582-.28c-.196-1.302-1.204-2.086-2.66-2.086-1.428 0-2.716.756-2.716 2.128 0 1.134.84 1.806 2.114 2.114l.826.182c.406.098.91.294.91.77 0 .462-.434.784-1.12.784-.658 0-1.176-.364-1.274-1.05l-1.568.28c.21 1.302 1.386 2.072 2.842 2.072 1.582 0 2.842-.784 2.842-2.156 0-1.148-.868-1.792-2.212-2.1zm3.677 4.13V63.2h1.68v3.808c.364-.672 1.036-1.148 2.03-1.148 1.722 0 2.604 1.19 2.604 2.926v4.228h-1.68v-3.976c0-1.05-.476-1.708-1.428-1.708s-1.526.658-1.526 1.708v3.976h-1.68zm8.459-1.806l-.448 3.192h1.498l.63-3.192h-1.68zm10.159-5.348c-.994 0-1.834.448-2.31 1.218V63.2h-1.68v9.814h1.68v-1.078c.476.77 1.302 1.204 2.31 1.204 1.82 0 3.262-1.442 3.262-3.64 0-2.184-1.442-3.64-3.262-3.64zm-.392 5.768c-1.036 0-1.89-.798-1.89-2.128 0-1.316.854-2.114 1.89-2.114s1.89.798 1.89 2.114c0 1.33-.854 2.128-1.89 2.128zm5.139-9.268v10.654h1.68V62.36h-1.68zm6.773 10.78c2.184 0 3.626-1.666 3.626-3.626s-1.456-3.64-3.626-3.64c-2.198 0-3.626 1.666-3.626 3.64 0 1.96 1.428 3.626 3.626 3.626zm0-1.54c-1.036 0-1.946-.77-1.946-2.086 0-1.33.91-2.1 1.946-2.1 1.022 0 1.932.77 1.932 2.1 0 1.316-.91 2.086-1.932 2.086zm4.604-2.1c0 1.974 1.428 3.64 3.626 3.64 1.624 0 2.772-.924 3.164-2.128l-1.498-.462c-.294.672-.91 1.05-1.666 1.05-1.036 0-1.946-.77-1.946-2.1 0-1.316.91-2.086 1.946-2.086.756 0 1.372.378 1.666 1.05l1.498-.462c-.392-1.204-1.554-2.128-3.164-2.128-2.198 0-3.626 1.666-3.626 3.626zm8.269 3.514h1.68v-2.38l.63-.574 2.38 2.954h1.96l-3.206-4.046L194.034 66h-2.114l-2.856 2.688V63.2h-1.694l.014 9.814zm9.089.126c.574 0 1.036-.462 1.036-1.036s-.462-1.036-1.036-1.036-1.036.462-1.036 1.036.462 1.036 1.036 1.036zm4.047 0c.574 0 1.036-.462 1.036-1.036s-.462-1.036-1.036-1.036-1.036.462-1.036 1.036.462 1.036 1.036 1.036zm4.047 0c.574 0 1.036-.462 1.036-1.036s-.462-1.036-1.036-1.036-1.036.462-1.036 1.036.462 1.036 1.036 1.036z" fill="url(#C)"/><path d="M270.364 68.364a3.79 3.79 0 0 0-5.359-5.359 3.79 3.79 0 0 0 5.359 5.359zm1.339 1.34c2.22-2.22 2.22-5.819 0-8.038s-5.818-2.22-8.038 0-2.22 5.819 0 8.038 5.819 2.22 8.038 0z" fill="#787a9b" class="C"/><path d="M269.694 69.034l1.339-1.34 4.69 4.689a.95.95 0 0 1 0 1.34.95.95 0 0 1-1.34 0l-4.689-4.689z" fill="#787a9b"/><g filter="url(#B)"><path d="M29 116c0-6.627 5.373-12 12-12h242c6.627 0 12 5.373 12 12v109c0 6.627-5.373 12-12 12H41c-6.627 0-12-5.373-12-12V116z" fill="#fff"/><path d="M29.5 116c0-6.351 5.149-11.5 11.5-11.5h242c6.351 0 11.5 5.149 11.5 11.5v109c0 6.351-5.149 11.5-11.5 11.5H41c-6.351 0-11.5-5.149-11.5-11.5V116z" stroke="#eaeaea"/></g><rect x="91" y="130" width="121" height="6" rx="3" class="D"/><rect x="244" y="130" width="35" height="6" rx="3" class="B"/><path d="M56 133a1 1 0 1 1-2 0 1 1 0 1 1 2 0z" class="B"/><path d="M55 138c3.498 0 6.471-3.134 7.559-4.439a.87.87 0 0 0 0-1.122C61.472 131.134 58.498 128 55 128s-6.471 3.134-7.559 4.439a.87.87 0 0 0 0 1.122C48.529 134.866 51.502 138 55 138zm3-5a3 3 0 1 1-6 0 3 3 0 1 1 6 0z" class="B C"/><rect x="91" y="166" width="121" height="6" rx="3" class="D"/><rect x="244" y="166" width="35" height="6" rx="3" class="B"/><path d="M56 169a1 1 0 1 1-2 0 1 1 0 1 1 2 0z" class="B"/><path d="M55 174c3.498 0 6.471-3.134 7.559-4.439a.87.87 0 0 0 0-1.122C61.472 167.134 58.498 164 55 164s-6.471 3.134-7.559 4.439a.87.87 0 0 0 0 1.122C48.529 170.866 51.502 174 55 174zm3-5a3 3 0 1 1-6 0 3 3 0 1 1 6 0z" class="B C"/><rect x="91" y="203" width="121" height="6" rx="3" class="D"/><rect x="244" y="203" width="35" height="6" rx="3" class="B"/><path d="M56 205a1 1 0 1 1-2 0 1 1 0 1 1 2 0z" class="B"/><path d="M55 210c3.498 0 6.471-3.134 7.559-4.439a.87.87 0 0 0 0-1.122C61.472 203.134 58.498 200 55 200s-6.471 3.134-7.559 4.439a.87.87 0 0 0 0 1.122C48.529 206.866 51.502 210 55 210zm3-5a3 3 0 1 1-6 0 3 3 0 1 1 6 0z" class="B C"/></g><defs><filter id="B" x="17" y="92" width="290" height="157" filterUnits="userSpaceOnUse" color-interpolation-filters="sRGB"><feFlood flood-opacity="0" result="A"/><feColorMatrix in="SourceAlpha" values="0 0 0 0 0 0 0 0 0 0 0 0 0 0 0 0 0 0 127 0" result="B"/><feOffset/><feGaussianBlur stdDeviation="6"/><feComposite in2="B" operator="out"/><feColorMatrix values="0 0 0 0 0 0 0 0 0 0 0 0 0 0 0 0 0 0 0.1 0"/><feBlend in2="A"/><feBlend in="SourceGraphic"/></filter><radialGradient id="C" cx="0" cy="0" r="1" gradientUnits="userSpaceOnUse" gradientTransform="translate(67.4444 62.7778) rotate(5.34592) scale(118.264 68.3311)"><stop stop-color="#ffcceb"/><stop offset=".474" stop-color="#bfc6ff"/><stop offset="1" stop-color="#96e4d2"/></radialGradient></defs></svg>