<svg xmlns="http://www.w3.org/2000/svg" xmlns:xlink="http://www.w3.org/1999/xlink" width="293" height="208" fill="none" xmlns:v="https://vecta.io/nano"><path opacity=".5" d="M0 24C0 10.745 10.745 0 24 0h245c13.255 0 24 10.745 24 24v184H0V24z" fill="#fff"/><mask id="A" maskUnits="userSpaceOnUse" x="0" y="0" width="293" height="208" mask-type="alpha"><path d="M0 24C0 10.745 10.745 0 24 0h245c13.255 0 24 10.745 24 24v184H0V24z" fill="#fff"/></mask><g mask="url(#A)"><g filter="url(#B)"><path d="M40 48c0-8.837 7.163-16 16-16h180c8.837 0 16 7.163 16 16v160H40V48z" fill="#25273d"/><rect x="97" y="134" width="29" height="6" rx="3" fill="#d8d9fe"/><rect x="63" y="134" width="9" height="6" rx="3" fill="url(#C)"/><rect x="80" y="134" width="9" height="6" rx="3" fill="url(#D)"/><rect x="86" y="112" width="29" height="6" rx="3" fill="#fff"/><rect x="63" y="112" width="17" height="6" rx="3" fill="#5c5ffe"/><rect x="63" y="68" width="52" height="6" rx="3" fill="#fff"/><rect x="121" y="68" width="17" height="6" rx="3" fill="#5c5ffe"/><rect x="144" y="68" width="9" height="6" rx="3" fill="url(#E)"/><rect x="63" y="90" width="29" height="6" rx="3" fill="#d8d9fe"/><rect x="98" y="90" width="29" height="6" rx="3" fill="url(#F)"/><circle cx="136" cy="93" r="3" fill="#fff"/><circle cx="66" cy="181" r="3" fill="#fff"/><circle cx="80" cy="181" r="3" fill="url(#G)"/><circle cx="94" cy="181" r="3" fill="#fff"/></g></g><defs><filter id="B" x="28" y="20" width="236" height="200" filterUnits="userSpaceOnUse" color-interpolation-filters="sRGB"><feFlood flood-opacity="0" result="A"/><feColorMatrix in="SourceAlpha" values="0 0 0 0 0 0 0 0 0 0 0 0 0 0 0 0 0 0 127 0" result="B"/><feOffset/><feGaussianBlur stdDeviation="6"/><feComposite in2="B" operator="out"/><feColorMatrix values="0 0 0 0 0 0 0 0 0 0 0 0 0 0 0 0 0 0 0.1 0"/><feBlend in2="A"/><feBlend in="SourceGraphic"/></filter><radialGradient id="C" cx="0" cy="0" r="1" gradientTransform="translate(64 135.333) rotate(29.9476) scale(7.79012 20.9881)" xlink:href="#H"><stop stop-color="#ffcceb"/><stop offset=".474" stop-color="#bfc6ff"/><stop offset="1" stop-color="#96e4d2"/></radialGradient><radialGradient id="D" cx="0" cy="0" r="1" gradientTransform="translate(81 135.333) rotate(29.9476) scale(7.79012 20.9881)" xlink:href="#H"><stop stop-color="#ffcceb"/><stop offset=".474" stop-color="#bfc6ff"/><stop offset="1" stop-color="#96e4d2"/></radialGradient><radialGradient id="E" cx="0" cy="0" r="1" gradientTransform="translate(145 69.3333) rotate(29.9476) scale(7.79012 20.9881)" xlink:href="#H"><stop stop-color="#ffcceb"/><stop offset=".474" stop-color="#bfc6ff"/><stop offset="1" stop-color="#96e4d2"/></radialGradient><radialGradient id="F" cx="0" cy="0" r="1" gradientTransform="translate(101.222 91.3333) rotate(10.1373) scale(22.0949 23.8441)" xlink:href="#H"><stop stop-color="#ffcceb"/><stop offset=".474" stop-color="#bfc6ff"/><stop offset="1" stop-color="#96e4d2"/></radialGradient><radialGradient id="G" cx="0" cy="0" r="1" gradientTransform="translate(77.6667 179.333) rotate(40.8335) scale(5.94756 18.3268)" xlink:href="#H"><stop stop-color="#ffcceb"/><stop offset=".474" stop-color="#bfc6ff"/><stop offset="1" stop-color="#96e4d2"/></radialGradient><linearGradient id="H" gradientUnits="userSpaceOnUse"/></defs></svg>