<svg xmlns="http://www.w3.org/2000/svg" xmlns:xlink="http://www.w3.org/1999/xlink" width="325" height="237" fill="none" xmlns:v="https://vecta.io/nano"><style><![CDATA[.B{opacity:.7}.C{opacity:.5}.D{fill:#878bfc}.E{fill:#5c5ffe}.F{fill-rule:evenodd}]]></style><rect width="325" height="237" rx="16" fill="#fff" class="C"/><mask id="A" maskUnits="userSpaceOnUse" x="0" y="0" width="325" height="237" mask-type="alpha"><rect width="325" height="237" rx="16" fill="#fff"/></mask><g mask="url(#A)"><g style="mix-blend-mode:multiply" opacity=".2"><rect x="196" y="138.579" width="49.474" height="14.842" rx="6" fill="url(#C)" class="C"/><rect x="262.79" y="138.579" width="49.474" height="14.842" rx="6" fill="url(#D)"/><rect x="262.79" y="118.789" width="49.474" height="14.842" rx="6" fill="url(#E)" class="C"/><rect x="262.79" y="99" width="49.474" height="14.842" rx="6" fill="url(#F)" class="B"/><rect x="196" y="158.368" width="49.474" height="14.842" rx="6" fill="url(#G)" class="B"/><rect x="262.79" y="158.368" width="49.474" height="14.842" rx="6" fill="url(#H)" class="B"/><rect x="196" y="178.158" width="49.474" height="14.842" rx="6" fill="url(#I)"/><rect x="262.79" y="178.158" width="49.474" height="14.842" rx="6" fill="url(#J)"/></g><g style="mix-blend-mode:multiply" opacity=".2"><rect x="14.79" y="138.579" width="49.474" height="14.842" rx="6" fill="url(#K)"/><rect x="81.579" y="138.579" width="49.474" height="14.842" rx="6" fill="url(#L)" class="B"/><rect x="14.79" y="118.789" width="49.474" height="14.842" rx="6" fill="url(#M)" class="C"/><rect x="81.579" y="118.789" width="49.474" height="14.842" rx="6" fill="url(#N)"/><rect x="14.79" y="99" width="49.474" height="14.842" rx="6" fill="url(#O)" class="B"/><rect x="14.79" y="158.368" width="49.474" height="14.842" rx="6" fill="url(#P)" class="B"/><rect x="81.579" y="158.368" width="49.474" height="14.842" rx="6" fill="url(#Q)"/><rect x="14.79" y="178.158" width="49.474" height="14.842" rx="6" fill="url(#R)"/><rect x="81.579" y="178.158" width="49.474" height="14.842" rx="6" fill="url(#S)" class="B"/></g><rect x="121.789" y="185.606" width="10.394" height="20.789" rx="5.197" fill="#575cfe"/><rect x="192.817" y="185.606" width="10.394" height="20.789" rx="5.197" fill="#575cfe"/><rect x="101" y="73" width="123" height="123" rx="10" fill="#d8d9fe"/><rect x="107.929" y="79.929" width="109.141" height="109.141" rx="6" fill="#ededff"/><rect x="116.591" y="88.22" width="4" height="4" rx="2" class="C D"/><rect x="123.591" y="88.22" width="4" height="4" rx="2" class="C D"/><rect x="130.591" y="88.22" width="4" height="4" rx="2" class="C D"/><g filter="url(#B)" class="E F"><path d="M162.5 116.31c-11.96 0-21.655 9.695-21.655 21.655A21.66 21.66 0 0 0 162.5 159.62a21.66 21.66 0 0 0 21.655-21.655c0-11.96-9.695-21.655-21.655-21.655zm-28.585 21.655A28.59 28.59 0 0 1 162.5 109.38c15.787 0 28.584 12.798 28.584 28.585s-12.797 28.584-28.584 28.584-28.585-12.798-28.585-28.584z"/></g><path d="M174.137 128.777a1.73 1.73 0 1 0-2.45-2.45l-9.187 9.187-9.187-9.187c-.677-.676-1.774-.676-2.45 0a1.73 1.73 0 0 0 0 2.45l9.187 9.187-9.187 9.188a1.73 1.73 0 0 0 0 2.45c.676.676 1.773.676 2.45 0l9.187-9.188 9.187 9.188c.677.676 1.774.676 2.45 0a1.73 1.73 0 0 0 0-2.45l-9.187-9.188 9.187-9.187z" class="C D F"/><circle cx="162.5" cy="137.965" r="4.331" class="E"/><rect x="213.606" y="97.254" width="6.93" height="15.592" rx="2" class="E"/><rect x="213.606" y="159.62" width="6.93" height="15.592" rx="2" class="E"/><rect x="126" y="48" width="20" height="6" rx="2" fill="url(#T)" class="C"/><rect x="153" y="48" width="20" height="6" rx="2" fill="url(#U)"/><rect x="180" y="48" width="20" height="6" rx="2" fill="url(#V)" class="B"/><rect x="153" y="40" width="20" height="6" rx="2" fill="url(#W)" class="C"/><rect x="180" y="40" width="20" height="6" rx="2" fill="url(#X)"/><rect x="153" y="32" width="20" height="6" rx="2" fill="url(#Y)" class="B"/><rect x="126" y="56" width="20" height="6" rx="2" fill="url(#Z)" class="B"/><rect x="153" y="56" width="20" height="6" rx="2" fill="url(#a)" class="B"/><rect x="180" y="56" width="20" height="6" rx="2" fill="url(#b)"/><rect x="126" y="64" width="20" height="6" rx="2" fill="url(#c)"/><rect x="153" y="64" width="20" height="6" rx="2" fill="url(#d)"/><rect x="180" y="64" width="20" height="6" rx="2" fill="url(#e)" class="B"/></g><defs><filter id="B" x="125.915" y="102.38" width="73.169" height="73.169" filterUnits="userSpaceOnUse" color-interpolation-filters="sRGB"><feFlood flood-opacity="0" result="A"/><feColorMatrix in="SourceAlpha" values="0 0 0 0 0 0 0 0 0 0 0 0 0 0 0 0 0 0 127 0"/><feOffset dy="1"/><feGaussianBlur stdDeviation="4"/><feColorMatrix values="0 0 0 0 0.145098 0 0 0 0 0.152941 0 0 0 0 0.239216 0 0 0 0.1 0"/><feBlend in2="A"/><feBlend in="SourceGraphic"/></filter><linearGradient id="C" x1="197.756" y1="146" x2="207.552" y2="171.554" xlink:href="#f"><stop stop-color="#6580eb"/><stop offset="1" stop-color="#8ea2f2"/></linearGradient><linearGradient id="D" x1="264.545" y1="146" x2="274.341" y2="171.554" xlink:href="#f"><stop stop-color="#6580eb"/><stop offset="1" stop-color="#8ea2f2"/></linearGradient><linearGradient id="E" x1="264.545" y1="126.211" x2="274.341" y2="151.764" xlink:href="#f"><stop stop-color="#6580eb"/><stop offset="1" stop-color="#8ea2f2"/></linearGradient><linearGradient id="F" x1="264.545" y1="106.421" x2="274.341" y2="131.975" xlink:href="#f"><stop stop-color="#6580eb"/><stop offset="1" stop-color="#8ea2f2"/></linearGradient><linearGradient id="G" x1="197.756" y1="165.79" x2="207.552" y2="191.343" xlink:href="#f"><stop stop-color="#6580eb"/><stop offset="1" stop-color="#8ea2f2"/></linearGradient><linearGradient id="H" x1="264.545" y1="165.79" x2="274.341" y2="191.343" xlink:href="#f"><stop stop-color="#6580eb"/><stop offset="1" stop-color="#8ea2f2"/></linearGradient><linearGradient id="I" x1="197.756" y1="185.579" x2="207.552" y2="211.133" xlink:href="#f"><stop stop-color="#6580eb"/><stop offset="1" stop-color="#8ea2f2"/></linearGradient><linearGradient id="J" x1="264.545" y1="185.579" x2="274.341" y2="211.133" xlink:href="#f"><stop stop-color="#6580eb"/><stop offset="1" stop-color="#8ea2f2"/></linearGradient><linearGradient id="K" x1="16.545" y1="146" x2="26.341" y2="171.554" xlink:href="#f"><stop stop-color="#6580eb"/><stop offset="1" stop-color="#8ea2f2"/></linearGradient><linearGradient id="L" x1="83.335" y1="146" x2="93.131" y2="171.554" xlink:href="#f"><stop stop-color="#6580eb"/><stop offset="1" stop-color="#8ea2f2"/></linearGradient><linearGradient id="M" x1="16.545" y1="126.211" x2="26.341" y2="151.764" xlink:href="#f"><stop stop-color="#6580eb"/><stop offset="1" stop-color="#8ea2f2"/></linearGradient><linearGradient id="N" x1="83.335" y1="126.211" x2="93.131" y2="151.764" xlink:href="#f"><stop stop-color="#6580eb"/><stop offset="1" stop-color="#8ea2f2"/></linearGradient><linearGradient id="O" x1="16.545" y1="106.421" x2="26.341" y2="131.975" xlink:href="#f"><stop stop-color="#6580eb"/><stop offset="1" stop-color="#8ea2f2"/></linearGradient><linearGradient id="P" x1="16.545" y1="165.79" x2="26.341" y2="191.343" xlink:href="#f"><stop stop-color="#6580eb"/><stop offset="1" stop-color="#8ea2f2"/></linearGradient><linearGradient id="Q" x1="83.335" y1="165.79" x2="93.131" y2="191.343" xlink:href="#f"><stop stop-color="#6580eb"/><stop offset="1" stop-color="#8ea2f2"/></linearGradient><linearGradient id="R" x1="16.545" y1="185.579" x2="26.341" y2="211.133" xlink:href="#f"><stop stop-color="#6580eb"/><stop offset="1" stop-color="#8ea2f2"/></linearGradient><linearGradient id="S" x1="83.335" y1="185.579" x2="93.131" y2="211.133" xlink:href="#f"><stop stop-color="#6580eb"/><stop offset="1" stop-color="#8ea2f2"/></linearGradient><linearGradient id="T" x1="126.71" y1="51" x2="130.67" y2="61.33" xlink:href="#f"><stop stop-color="#6580eb"/><stop offset="1" stop-color="#8ea2f2"/></linearGradient><linearGradient id="U" x1="153.71" y1="51" x2="157.67" y2="61.33" xlink:href="#f"><stop stop-color="#6580eb"/><stop offset="1" stop-color="#8ea2f2"/></linearGradient><linearGradient id="V" x1="180.71" y1="51" x2="184.67" y2="61.33" xlink:href="#f"><stop stop-color="#6580eb"/><stop offset="1" stop-color="#8ea2f2"/></linearGradient><linearGradient id="W" x1="153.71" y1="43" x2="157.67" y2="53.33" xlink:href="#f"><stop stop-color="#6580eb"/><stop offset="1" stop-color="#8ea2f2"/></linearGradient><linearGradient id="X" x1="180.71" y1="43" x2="184.67" y2="53.33" xlink:href="#f"><stop stop-color="#6580eb"/><stop offset="1" stop-color="#8ea2f2"/></linearGradient><linearGradient id="Y" x1="153.71" y1="35" x2="157.67" y2="45.33" xlink:href="#f"><stop stop-color="#6580eb"/><stop offset="1" stop-color="#8ea2f2"/></linearGradient><linearGradient id="Z" x1="126.71" y1="59" x2="130.67" y2="69.33" xlink:href="#f"><stop stop-color="#6580eb"/><stop offset="1" stop-color="#8ea2f2"/></linearGradient><linearGradient id="a" x1="153.71" y1="59" x2="157.67" y2="69.33" xlink:href="#f"><stop stop-color="#6580eb"/><stop offset="1" stop-color="#8ea2f2"/></linearGradient><linearGradient id="b" x1="180.71" y1="59" x2="184.67" y2="69.33" xlink:href="#f"><stop stop-color="#6580eb"/><stop offset="1" stop-color="#8ea2f2"/></linearGradient><linearGradient id="c" x1="126.71" y1="67" x2="130.67" y2="77.33" xlink:href="#f"><stop stop-color="#6580eb"/><stop offset="1" stop-color="#8ea2f2"/></linearGradient><linearGradient id="d" x1="153.71" y1="67" x2="157.67" y2="77.33" xlink:href="#f"><stop stop-color="#6580eb"/><stop offset="1" stop-color="#8ea2f2"/></linearGradient><linearGradient id="e" x1="180.71" y1="67" x2="184.67" y2="77.33" xlink:href="#f"><stop stop-color="#6580eb"/><stop offset="1" stop-color="#8ea2f2"/></linearGradient><linearGradient id="f" gradientUnits="userSpaceOnUse"/></defs></svg>