<svg xmlns="http://www.w3.org/2000/svg" xmlns:xlink="http://www.w3.org/1999/xlink" width="325" height="237" fill="none" xmlns:v="https://vecta.io/nano"><style><![CDATA[.B{fill:#fff}.C{fill-rule:evenodd}]]></style><rect opacity=".5" width="325" height="237" rx="16" class="B"/><mask id="A" maskUnits="userSpaceOnUse" x="0" y="0" width="325" height="237" mask-type="alpha"><rect width="325" height="237" rx="16" class="B"/></mask><g mask="url(#A)"><circle opacity=".2" cx="163" cy="105" r="84" fill="url(#C)"/><g opacity=".7"><circle cx="69" cy="105" r="28" fill="url(#D)"/><path d="M58.381 91.814h10.666c6.488 0 11.406 3.487 13.235 8.562h3.323v3.067h-2.623c.051.484.077.978.077 1.48v.075a14.04 14.04 0 0 1-.098 1.664h2.643v3.067h-3.386c-1.878 5.003-6.758 8.457-13.172 8.457H58.381v-8.457h-3.706v-3.067h3.706v-3.219h-3.706v-3.067h3.706v-8.562zm2.982 17.915v5.706h7.684c4.742 0 8.265-2.286 9.905-5.706H61.363zm18.503-3.067H61.363v-3.219H79.87c.069.506.104 1.025.104 1.555v.075c0 .542-.037 1.072-.108 1.589zM69.047 94.561c4.764 0 8.297 2.346 9.927 5.815H61.363v-5.815h7.684z" class="B C"/></g><g opacity=".7"><circle cx="-3" cy="105" r="28" fill="url(#E)"/><path d="M-13.619 91.814h10.666c6.488 0 11.406 3.487 13.235 8.562h3.323v3.067h-2.623c.051.484.078.978.078 1.48v.075a14.04 14.04 0 0 1-.098 1.664h2.643v3.067h-3.386c-1.878 5.003-6.758 8.457-13.172 8.457h-10.666v-8.457h-3.706v-3.067h3.706v-3.219h-3.706v-3.067h3.706v-8.562zm2.982 17.915v5.706h7.684c4.742 0 8.265-2.286 9.905-5.706h-17.589zm18.503-3.067h-18.503v-3.219H7.87c.069.506.104 1.025.104 1.555v.075a11.55 11.55 0 0 1-.108 1.589zM-2.953 94.561c4.764 0 8.297 2.346 9.927 5.815h-17.612v-5.815h7.684z" class="B C"/></g><g opacity=".7"><circle cx="257" cy="105" r="28" fill="url(#F)"/><use xlink:href="#J" class="B C"/></g><g opacity=".7"><circle cx="329" cy="105" r="28" fill="url(#G)"/><use xlink:href="#J" x="72" class="B C"/></g><circle cx="163" cy="105" r="70" class="B"/><mask id="B" maskUnits="userSpaceOnUse" x="93" y="35" width="140" height="140" mask-type="alpha"><circle cx="163" cy="105" r="70" class="B"/></mask><g mask="url(#B)"><circle cx="163" cy="105" r="37" fill="url(#H)"/><path d="M148.967 87.576h14.095c8.573 0 15.072 4.608 17.489 11.313h4.391v4.053h-3.466c.068.64.102 1.293.102 1.956v.099a18.5 18.5 0 0 1-.129 2.199h3.493v4.053h-4.474c-2.482 6.611-8.93 11.176-17.406 11.176h-14.095v-11.176h-4.897v-4.053h4.897v-4.254h-4.897v-4.053h4.897V87.576zm3.941 23.673v7.54h10.154c6.266 0 10.921-3.02 13.088-7.54h-23.242zm24.45-4.053h-24.45v-4.254h24.456a15.41 15.41 0 0 1 .137 2.055v.1a15.38 15.38 0 0 1-.143 2.099zm-14.296-15.991c6.295 0 10.964 3.1 13.118 7.684h-23.272v-7.684h10.154z" class="B C"/><path opacity=".3" d="M223.44 52.043c10.991 17.555 8.185 41.549-5.063 49.845s-35.328 4.877-46.32-12.678-6.733-42.6 6.515-50.895 33.876-3.827 44.868 13.729z" fill="#f3f7f9"/><circle cx="239.5" cy="155.5" r="19.5" fill="url(#I)"/><path d="M232.104 146.317h7.429c4.518 0 7.943 2.428 9.217 5.962h2.314v2.136h-1.827c.036.338.054.682.054 1.031v.052a9.82 9.82 0 0 1-.068 1.159h1.841v2.136h-2.358c-1.308 3.485-4.706 5.89-9.173 5.89h-7.429v-5.89h-2.581v-2.136h2.581v-2.242h-2.581v-2.136h2.581v-5.962zm2.077 12.476v3.974h5.352c3.302 0 5.755-1.592 6.898-3.974h-12.25zm12.886-2.136h-12.886v-2.242h12.889a8.04 8.04 0 0 1 .072 1.083v.053c0 .377-.025.746-.075 1.106zm-7.534-8.427c3.317 0 5.778 1.633 6.913 4.049h-12.265v-4.049h5.352z" class="B C"/></g><path d="M131.14 171h62.72l8.512 19.865c1.404 3.278-.373 6.938-3.886 7.552-6.585 1.15-18.33 2.583-35.986 2.583s-29.401-1.433-35.986-2.583c-3.513-.614-5.29-4.274-3.886-7.552L131.14 171z" fill="#575cfe"/><path d="M126 168.239c0-1.768 1.459-3.182 3.226-3.119l33.274.755c10.956 0 26.594-.515 33.274-.755 1.767-.063 3.226 1.351 3.226 3.119 0 1.628-1.25 2.974-2.876 3.06-4.817.255-15.783.701-33.624.701s-28.807-.446-33.624-.701c-1.626-.086-2.876-1.432-2.876-3.06z" fill="#d8d9fe"/></g><defs><radialGradient id="C" cx="0" cy="0" r="1" gradientTransform="translate(97.6667 58.3333) rotate(40.8335) scale(166.532 513.152)" xlink:href="#K"><stop stop-color="#ffcceb"/><stop offset=".474" stop-color="#bfc6ff"/><stop offset="1" stop-color="#96e4d2"/></radialGradient><linearGradient id="D" x1="69" y1="69.067" x2="69" y2="138.88" xlink:href="#K"><stop stop-color="#f9a606"/><stop offset="1" stop-color="#fbcc5f"/></linearGradient><linearGradient id="E" x1="-3" y1="69.067" x2="-3" y2="138.88" xlink:href="#K"><stop stop-color="#f9a606"/><stop offset="1" stop-color="#fbcc5f"/></linearGradient><linearGradient id="F" x1="257" y1="69.067" x2="257" y2="138.88" xlink:href="#K"><stop stop-color="#f9a606"/><stop offset="1" stop-color="#fbcc5f"/></linearGradient><linearGradient id="G" x1="329" y1="69.067" x2="329" y2="138.88" xlink:href="#K"><stop stop-color="#f9a606"/><stop offset="1" stop-color="#fbcc5f"/></linearGradient><linearGradient id="H" x1="163" y1="57.517" x2="163" y2="149.77" xlink:href="#K"><stop stop-color="#f9a606"/><stop offset="1" stop-color="#fbcc5f"/></linearGradient><linearGradient id="I" x1="239.5" y1="130.475" x2="239.5" y2="179.095" xlink:href="#K"><stop stop-color="#f9a606"/><stop offset="1" stop-color="#fbcc5f"/></linearGradient><path id="J" d="M246.381 91.814h10.666c6.488 0 11.406 3.487 13.235 8.562h3.323v3.067h-2.623c.051.484.077.978.077 1.48v.075a14.02 14.02 0 0 1-.098 1.664h2.644v3.067h-3.386c-1.878 5.003-6.758 8.457-13.172 8.457h-10.666v-8.457h-3.707v-3.067h3.707v-3.219h-3.707v-3.067h3.707v-8.562zm2.982 17.915v5.706h7.684c4.742 0 8.265-2.286 9.905-5.706h-17.589zm18.502-3.067h-18.502v-3.219h18.507c.069.506.104 1.025.104 1.555v.075a11.51 11.51 0 0 1-.109 1.589zm-10.818-12.101c4.764 0 8.297 2.346 9.927 5.815h-17.611v-5.815h7.684z"/><linearGradient id="K" gradientUnits="userSpaceOnUse"/></defs></svg>