<svg xmlns="http://www.w3.org/2000/svg" width="325" height="237" fill="none" xmlns:v="https://vecta.io/nano"><style><![CDATA[.B{fill:#eaeaea}.C{fill:#25273d}.D{fill:#f1f3f4}.E{fill:#e0e0e0}.F{fill:#e7fcfa}.G{fill:#1aab9b}.H{fill:#787a9b}.I{color-interpolation-filters:sRGB}.J{flood-opacity:0}]]></style><rect opacity=".5" width="325" height="237" rx="16" fill="#fff"/><mask id="A" maskUnits="userSpaceOnUse" x="0" y="0" width="325" height="237" mask-type="alpha"><rect width="325" height="237" rx="16" fill="#fff"/></mask><g mask="url(#A)"><g filter="url(#B)"><rect x="16" y="20" width="245" height="197" rx="16" fill="#fff"/></g><rect x="41" y="183" width="32" height="3" rx="1.5" class="D"/><rect x="41" y="192" width="42" height="4" rx="2" class="E"/><rect x="111" y="183" width="32" height="3" rx="1.5" class="D"/><rect x="111" y="192" width="42" height="4" rx="2" class="E"/><rect x="181" y="183" width="32" height="3" rx="1.5" class="D"/><rect x="181" y="192" width="42" height="4" rx="2" class="E"/><path stroke="#eaeaea" stroke-dasharray="2 2" d="M41 168.5h195"/><path d="M135.588 72.091V61.182h.699v10.909h-.699zm2.016-7.419c-.04-.372-.208-.662-.503-.869s-.673-.311-1.142-.311c-.33 0-.612.05-.848.149s-.416.234-.541.405-.189.365-.192.584c0 .182.041.339.123.473a1.14 1.14 0 0 0 .346.341 2.41 2.41 0 0 0 .481.23 5.17 5.17 0 0 0 .533.158l.818.204a5.62 5.62 0 0 1 .95.311 3.36 3.36 0 0 1 .823.494c.244.199.437.439.579.72s.213.611.213.989a2.36 2.36 0 0 1-.392 1.351c-.261.386-.639.689-1.133.908s-1.087.324-1.786.324c-.679 0-1.268-.105-1.768-.315s-.887-.517-1.168-.921-.429-.895-.452-1.474h1.556c.023.304.116.557.281.759s.379.352.644.452.565.149.894.149a2.45 2.45 0 0 0 .904-.153 1.47 1.47 0 0 0 .614-.435 1.05 1.05 0 0 0 .225-.656c-.002-.227-.069-.415-.2-.562s-.314-.276-.55-.375a5.28 5.28 0 0 0-.818-.273l-.993-.256c-.718-.185-1.287-.465-1.704-.84s-.622-.879-.622-1.504c0-.514.139-.965.417-1.351s.664-.686 1.146-.899 1.03-.324 1.641-.324c.619 0 1.162.108 1.628.324s.837.51 1.104.891.404.813.413 1.304h-1.521zM140.888 71l3.712-7.347v-.06h-4.308v-1.321h5.944v1.351L142.529 71h-1.641zm7.052-1.193l-.056.469a7.03 7.03 0 0 1-.213 1.091l-.315 1.027-.269.737h-1.039l.162-.707.204-1.006c.065-.372.109-.75.132-1.133l.03-.477h1.364zm4.639 1.313c-.568 0-1.077-.106-1.525-.32s-.806-.511-1.07-.886-.401-.804-.418-1.287h1.534a1.21 1.21 0 0 0 .465.878c.281.224.619.337 1.014.337a1.6 1.6 0 0 0 .827-.213 1.53 1.53 0 0 0 .571-.592c.139-.253.207-.541.204-.865.003-.33-.066-.622-.208-.878a1.56 1.56 0 0 0-.584-.601c-.247-.148-.531-.222-.852-.222a2.03 2.03 0 0 0-.772.145 1.58 1.58 0 0 0-.601.392l-1.427-.234.456-4.5h5.062v1.321h-3.754l-.251 2.314h.051c.162-.19.39-.348.686-.473s.619-.192.971-.192c.529 0 1 .125 1.415.375s.742.588.98 1.023.358.932.358 1.491c0 .577-.133 1.091-.4 1.543a2.83 2.83 0 0 1-1.104 1.061c-.469.256-1.011.383-1.628.383zm7.692 0c-.614 0-1.159-.105-1.636-.315s-.85-.503-1.125-.878-.422-.808-.439-1.3h1.602a1.06 1.06 0 0 0 .234.618c.142.173.331.308.567.405s.5.145.793.145a2.02 2.02 0 0 0 .831-.162c.241-.111.43-.264.566-.46a1.13 1.13 0 0 0 .201-.678c.003-.264-.066-.497-.205-.699s-.341-.359-.605-.473-.577-.17-.946-.17h-.771v-1.219h.771c.304 0 .57-.052.797-.158a1.29 1.29 0 0 0 .541-.443c.131-.193.195-.416.192-.669.003-.247-.053-.462-.166-.643s-.269-.328-.473-.43-.439-.153-.712-.153c-.267 0-.514.048-.741.145s-.411.234-.55.413-.213.386-.222.631h-1.521a2.21 2.21 0 0 1 .422-1.287 2.72 2.72 0 0 1 1.091-.869c.454-.21.964-.315 1.53-.315.582 0 1.088.109 1.517.328s.765.507 1.001.874.354.771.354 1.214c.003.492-.142.903-.435 1.236a2.04 2.04 0 0 1-1.142.652v.068c.614.085 1.084.313 1.41.682s.493.822.491 1.368c0 .489-.14.926-.418 1.313s-.656.685-1.142.903-1.037.328-1.662.328zm7.714-8.966a3.58 3.58 0 0 1 1.219.222c.398.142.756.375 1.074.699s.571.751.758 1.291.281 1.207.281 2.003c.003.75-.076 1.42-.238 2.011s-.388 1.085-.686 1.491-.658.716-1.078.929-.894.32-1.419.32c-.552 0-1.04-.108-1.466-.324s-.766-.511-1.027-.886-.422-.804-.482-1.287h1.556c.079.346.241.622.485.827s.559.303.934.303a1.55 1.55 0 0 0 1.397-.788c.327-.526.49-1.256.49-2.19h-.059c-.139.25-.32.466-.541.648s-.473.317-.755.413-.574.145-.886.145c-.511 0-.972-.122-1.381-.367a2.68 2.68 0 0 1-.967-1.006c-.236-.426-.355-.913-.358-1.462 0-.568.131-1.078.392-1.53a2.84 2.84 0 0 1 1.104-1.074c.471-.264 1.022-.394 1.653-.388zm.004 1.278a1.57 1.57 0 0 0-.831.226c-.244.148-.437.349-.579.605a1.73 1.73 0 0 0-.209.848c.003.31.072.591.209.844s.328.453.567.601a1.55 1.55 0 0 0 .826.222c.23 0 .445-.044.644-.132a1.6 1.6 0 0 0 .52-.367 1.74 1.74 0 0 0 .349-.541c.085-.202.127-.415.124-.639a1.66 1.66 0 0 0-.213-.827 1.65 1.65 0 0 0-.576-.609c-.241-.153-.518-.23-.831-.23zm6.236 6.375l-.056.469a6.8 6.8 0 0 1-.213 1.091l-.315 1.027-.268.737h-1.04l.162-.707.204-1.006a9.65 9.65 0 0 0 .132-1.133l.03-.477h1.364zm1.553-.426v-1.257l3.703-5.851h1.048v1.79h-.639l-2.493 3.95v.068h5.169v1.3h-6.788zM179.941 71v-2.003l.017-.562v-6.162h1.492V71h-1.509zm7.183.119c-.418-.003-.825-.075-1.223-.217s-.756-.379-1.074-.703-.571-.76-.758-1.3-.28-1.214-.277-2.016c0-.747.079-1.413.238-1.999s.388-1.08.686-1.483.658-.716 1.078-.929.897-.32 1.419-.32c.549 0 1.035.108 1.458.324s.77.511 1.031.886.423.793.486 1.261h-1.556c-.079-.335-.242-.602-.49-.801s-.554-.303-.929-.303a1.55 1.55 0 0 0-1.397.788c-.324.525-.488 1.247-.49 2.165h.059c.14-.25.32-.465.541-.643s.472-.317.75-.413a2.66 2.66 0 0 1 .891-.149c.511 0 .97.122 1.377.366a2.66 2.66 0 0 1 .971 1.01c.239.426.357.915.354 1.466.003.574-.128 1.09-.392 1.547a2.84 2.84 0 0 1-1.104 1.074c-.472.261-1.021.391-1.649.388zm-.009-1.278a1.55 1.55 0 0 0 .831-.226 1.63 1.63 0 0 0 .58-.609 1.71 1.71 0 0 0 .209-.861c.003-.312-.066-.595-.205-.848a1.55 1.55 0 0 0-1.393-.822c-.23 0-.445.044-.644.132a1.6 1.6 0 0 0-.52.367c-.147.153-.264.332-.349.537s-.125.418-.128.648c.003.304.074.584.213.84s.331.46.575.614.522.23.831.23zM192.029 71l3.711-7.347v-.06h-4.308v-1.321h5.945v1.351L193.669 71h-1.64zm6.19.094a.91.91 0 0 1-.664-.273.88.88 0 0 1-.273-.665.87.87 0 0 1 .273-.656.91.91 0 0 1 .664-.273c.25 0 .468.091.652.273s.283.401.286.656a.91.91 0 0 1-.136.473c-.086.142-.199.256-.341.341a.89.89 0 0 1-.461.124zm5.37.025a3.68 3.68 0 0 1-1.223-.217c-.398-.145-.756-.379-1.074-.703s-.571-.76-.759-1.3-.279-1.214-.277-2.016c0-.747.08-1.413.239-1.999s.388-1.08.686-1.483.658-.716 1.078-.929.897-.32 1.419-.32c.549 0 1.034.108 1.458.324s.77.511 1.031.886.423.793.486 1.261h-1.556a1.41 1.41 0 0 0-.49-.801c-.244-.202-.554-.303-.929-.303a1.55 1.55 0 0 0-1.397.788c-.324.525-.488 1.247-.491 2.165h.06a2.19 2.19 0 0 1 .541-.643c.222-.179.472-.317.75-.413s.578-.149.891-.149c.511 0 .97.122 1.376.366a2.66 2.66 0 0 1 .972 1.01c.239.426.357.915.354 1.466.003.574-.128 1.09-.392 1.547a2.85 2.85 0 0 1-1.104 1.074c-.472.261-1.021.391-1.649.388zm-.009-1.278a1.55 1.55 0 0 0 .831-.226 1.63 1.63 0 0 0 .58-.609 1.72 1.72 0 0 0 .209-.861c.002-.312-.066-.595-.205-.848a1.55 1.55 0 0 0-1.393-.822 1.57 1.57 0 0 0-.644.132 1.6 1.6 0 0 0-.52.367 1.71 1.71 0 0 0-.349.537c-.083.202-.125.418-.128.648.003.304.074.584.213.84s.331.46.575.614.522.23.831.23zm7.726 1.278c-.614 0-1.159-.105-1.636-.315s-.85-.503-1.125-.878-.422-.808-.439-1.3h1.602a1.06 1.06 0 0 0 .234.618c.143.173.331.308.567.405s.5.145.793.145a2.02 2.02 0 0 0 .831-.162c.241-.111.43-.264.567-.46s.203-.422.2-.678a1.17 1.17 0 0 0-.205-.699c-.139-.202-.341-.359-.605-.473s-.577-.17-.946-.17h-.771v-1.219h.771c.304 0 .57-.052.797-.158s.411-.253.541-.443.195-.416.192-.669c.003-.247-.053-.462-.166-.643s-.269-.328-.473-.43-.439-.153-.712-.153c-.267 0-.514.048-.741.145s-.411.234-.55.413-.213.386-.222.631h-1.521a2.21 2.21 0 0 1 .422-1.287 2.72 2.72 0 0 1 1.091-.869c.454-.21.964-.315 1.53-.315.582 0 1.088.109 1.517.328s.765.507 1.001.874.354.771.354 1.214c.003.492-.142.903-.435 1.236a2.04 2.04 0 0 1-1.142.652v.068c.614.085 1.084.313 1.411.682s.493.822.49 1.368c0 .489-.14.926-.418 1.313s-.656.685-1.142.903-1.037.328-1.662.328z" class="C"/><rect x="132" y="49" width="39" height="4" rx="2" class="B"/><rect x="132" y="78" width="69" height="13" rx="6.5" class="F"/><path d="M141.794 87.546v-5.455h.349v5.455h-.349zm1.008-3.71a.58.58 0 0 0-.252-.435c-.146-.104-.336-.156-.571-.156-.164 0-.306.025-.424.075s-.208.117-.27.202-.095.183-.096.292c0 .091.021.17.062.237a.56.56 0 0 0 .172.17c.073.045.153.084.241.115a2.6 2.6 0 0 0 .266.079l.409.102a2.82 2.82 0 0 1 .476.156c.153.065.29.148.411.247a1.1 1.1 0 0 1 .29.36c.071.141.106.305.106.494a1.18 1.18 0 0 1-.196.675c-.131.193-.319.344-.567.454s-.543.162-.892.162c-.34 0-.635-.053-.885-.158s-.443-.258-.583-.46-.215-.448-.226-.737h.777a.67.67 0 0 0 .141.379c.082.101.19.176.322.226a1.27 1.27 0 0 0 .447.075c.172 0 .323-.026.452-.077a.73.73 0 0 0 .307-.217c.074-.094.111-.203.113-.328-.002-.114-.035-.207-.1-.281a.74.74 0 0 0-.275-.187 2.67 2.67 0 0 0-.409-.136l-.497-.128c-.359-.092-.643-.232-.852-.42s-.311-.44-.311-.752a1.12 1.12 0 0 1 .209-.675c.14-.193.331-.343.573-.45s.515-.162.82-.162.581.054.814.162.418.255.552.445a1.14 1.14 0 0 1 .206.652h-.76zm3.13 3.164l1.856-3.673v-.03h-2.154v-.66h2.972v.675L146.753 87h-.821zm4.825.06a2.1 2.1 0 0 1-.843-.16c-.245-.107-.437-.252-.576-.437a1.02 1.02 0 0 1-.204-.633 1.04 1.04 0 0 1 .119-.505c.081-.153.19-.281.328-.383s.294-.17.465-.198v-.03a.92.92 0 0 1-.546-.343c-.138-.18-.206-.388-.204-.624a.99.99 0 0 1 .187-.601c.127-.176.3-.315.52-.416a1.77 1.77 0 0 1 .754-.153c.28 0 .529.051.748.153s.394.239.52.416.192.376.192.601a.99.99 0 0 1-.211.624.92.92 0 0 1-.539.343v.03a1.03 1.03 0 0 1 .46.198c.138.102.247.23.328.383s.124.322.124.505a1.03 1.03 0 0 1-.209.633c-.139.185-.331.33-.575.437s-.522.16-.838.16zm0-.609a1.01 1.01 0 0 0 .426-.083c.121-.057.215-.136.282-.239a.65.65 0 0 0 .102-.354.66.66 0 0 0-.109-.369.71.71 0 0 0-.287-.254c-.121-.061-.259-.092-.414-.092a.92.92 0 0 0-.417.092.73.73 0 0 0-.29.254.64.64 0 0 0-.102.369c-.002.133.031.251.098.354s.16.18.281.236.266.085.43.085zm0-1.988c.134 0 .252-.027.354-.081s.185-.129.245-.226a.64.64 0 0 0 .092-.335.63.63 0 0 0-.09-.328c-.058-.095-.139-.168-.243-.22a.78.78 0 0 0-.358-.079c-.138 0-.259.026-.364.079s-.185.124-.243.22a.61.61 0 0 0-.083.328c-.001.126.027.238.085.335s.142.17.245.226.225.081.36.081zm3.107 1.941l-.027.234c-.02.179-.056.361-.107.545l-.158.514-.134.369h-.52l.081-.354.103-.503a5.29 5.29 0 0 0 .066-.567l.015-.239h.681zm2.275.656c-.306 0-.579-.053-.818-.158s-.425-.251-.562-.439a1.14 1.14 0 0 1-.22-.65h.801a.53.53 0 0 0 .118.309.7.7 0 0 0 .283.202c.118.048.25.072.396.072a1.01 1.01 0 0 0 .416-.081c.12-.055.215-.132.283-.23s.102-.211.1-.339a.58.58 0 0 0-.102-.35c-.07-.101-.17-.18-.303-.237a1.18 1.18 0 0 0-.473-.085h-.385v-.609h.385c.152 0 .285-.026.399-.079a.64.64 0 0 0 .27-.222.56.56 0 0 0 .096-.335c.002-.124-.026-.231-.083-.322a.56.56 0 0 0-.236-.215.78.78 0 0 0-.356-.077.94.94 0 0 0-.371.072.68.68 0 0 0-.275.207c-.069.088-.106.193-.11.315h-.761a1.11 1.11 0 0 1 .211-.644 1.36 1.36 0 0 1 .545-.435c.228-.105.482-.158.765-.158.291 0 .544.055.759.164s.383.254.5.437a1.1 1.1 0 0 1 .177.607c.002.246-.071.452-.217.618a1.02 1.02 0 0 1-.571.326v.034c.307.043.542.156.705.341s.247.411.245.684a1.09 1.09 0 0 1-.209.656c-.137.192-.328.342-.571.452a1.99 1.99 0 0 1-.831.164zm2.343-.06v-.571l1.514-1.485.363-.39a1.44 1.44 0 0 0 .217-.33.82.82 0 0 0 .072-.341c0-.138-.031-.256-.093-.354a.63.63 0 0 0-.258-.23.83.83 0 0 0-.373-.081.77.77 0 0 0-.377.09.62.62 0 0 0-.252.249c-.058.108-.087.237-.087.386h-.752a1.34 1.34 0 0 1 .19-.722c.126-.205.3-.363.522-.475s.478-.168.767-.168.549.055.771.164a1.26 1.26 0 0 1 .516.45c.123.19.185.408.185.652 0 .163-.031.324-.094.482s-.172.332-.33.524-.376.424-.658.697l-.753.765v.03h1.901V87h-2.991zm5.339.083c-.351 0-.652-.089-.903-.266s-.443-.437-.578-.773-.2-.745-.2-1.221.069-.881.202-1.214.328-.591.578-.767a1.53 1.53 0 0 1 .901-.264 1.53 1.53 0 0 1 .901.264c.252.176.444.432.578.767s.202.74.202 1.214-.067.885-.202 1.223-.326.594-.578.771-.55.266-.901.266zm0-.667c.273 0 .488-.134.646-.403s.238-.667.238-1.191a3.03 3.03 0 0 0-.108-.874c-.073-.236-.175-.413-.307-.533s-.289-.181-.469-.181c-.271 0-.486.135-.643.405s-.238.663-.239 1.183c-.001.348.033.641.104.878s.175.416.307.537a.68.68 0 0 0 .471.179zm2.703.631a.46.46 0 0 1-.333-.136c-.092-.091-.137-.202-.136-.332a.44.44 0 0 1 .136-.328.46.46 0 0 1 .333-.136.45.45 0 0 1 .469.465.46.46 0 0 1-.069.236c-.042.071-.099.128-.17.171s-.146.062-.23.062zm2.492-4.41V87h-.79v-3.594h-.026l-1.02.652v-.724l1.084-.697h.752zM170.124 87v-.571l1.515-1.485.362-.39c.097-.114.169-.224.218-.33a.82.82 0 0 0 .072-.341.64.64 0 0 0-.094-.354c-.062-.099-.148-.176-.258-.23s-.233-.081-.372-.081a.77.77 0 0 0-.378.09c-.108.058-.191.141-.251.249s-.087.237-.087.386h-.752a1.35 1.35 0 0 1 .189-.722c.127-.205.301-.363.522-.475s.479-.168.767-.168.55.055.772.164.393.259.515.45.186.408.186.652c0 .163-.032.324-.094.482s-.173.332-.33.524-.376.424-.659.697l-.752.765v.03h1.901V87h-2.992zm5.293.06c-.307 0-.58-.053-.818-.158s-.425-.251-.563-.439a1.13 1.13 0 0 1-.219-.65h.801a.53.53 0 0 0 .117.309.7.7 0 0 0 .283.202 1.04 1.04 0 0 0 .397.072 1.01 1.01 0 0 0 .415-.081.68.68 0 0 0 .283-.23c.069-.098.102-.211.101-.339a.59.59 0 0 0-.103-.35.68.68 0 0 0-.302-.237c-.131-.057-.289-.085-.473-.085h-.386v-.609h.386c.152 0 .285-.026.398-.079a.65.65 0 0 0 .271-.222c.065-.097.097-.208.096-.335s-.027-.231-.083-.322a.57.57 0 0 0-.237-.215c-.101-.051-.219-.077-.356-.077s-.257.024-.37.072a.67.67 0 0 0-.275.207.52.52 0 0 0-.111.315h-.761a1.11 1.11 0 0 1 .211-.644c.137-.186.318-.331.546-.435a1.8 1.8 0 0 1 .765-.158c.291 0 .544.055.758.164s.383.254.501.437a1.1 1.1 0 0 1 .177.607c.001.246-.071.452-.218.618a1.02 1.02 0 0 1-.571.326v.034c.307.043.542.156.705.341s.247.411.246.684c0 .244-.07.463-.209.656s-.328.342-.571.452-.519.164-.831.164zm4.78.006c-.207 0-.394-.037-.56-.111s-.295-.186-.392-.332-.143-.327-.143-.541c0-.185.034-.337.103-.458a.79.79 0 0 1 .279-.29c.118-.072.25-.127.398-.164a3.25 3.25 0 0 1 .462-.083l.467-.053c.119-.017.206-.043.26-.077s.083-.09.083-.164v-.013c0-.16-.047-.285-.143-.373s-.232-.132-.411-.132c-.189 0-.339.041-.449.123s-.184.18-.222.292l-.72-.102c.057-.199.15-.365.281-.499a1.23 1.23 0 0 1 .479-.303 1.84 1.84 0 0 1 .627-.102c.158 0 .315.018.471.055s.299.098.428.183a.92.92 0 0 1 .311.343c.08.145.119.326.119.543V87h-.741v-.45h-.026c-.046.091-.113.176-.198.256a.95.95 0 0 1-.317.19c-.127.047-.275.07-.446.07zm.201-.567c.155 0 .289-.031.402-.092s.201-.145.262-.247.094-.214.094-.335v-.386c-.024.02-.065.038-.123.055s-.121.032-.192.045l-.211.034-.181.025c-.115.016-.218.041-.309.077a.51.51 0 0 0-.215.149c-.053.063-.079.144-.079.243 0 .142.052.249.155.322s.236.109.397.109zm3.961-2.772v.597h-1.935v-.597h1.935zM182.908 87v-3.582c0-.22.045-.403.136-.55a.86.86 0 0 1 .371-.328 1.2 1.2 0 0 1 .515-.109c.134 0 .253.011.356.032l.23.057-.153.597c-.033-.01-.074-.02-.124-.03a.74.74 0 0 0-.166-.017c-.143 0-.245.035-.305.104s-.087.166-.087.294V87h-.773zm3.689-3.273v.597h-1.881v-.597h1.881zm-1.417-.784h.771v3.072c0 .104.016.183.047.239s.076.091.128.111.111.03.175.03c.048 0 .092-.004.132-.011l.094-.019.13.603a1.83 1.83 0 0 1-.177.047 1.45 1.45 0 0 1-.277.03 1.26 1.26 0 0 1-.522-.087c-.155-.065-.278-.166-.369-.303s-.133-.307-.132-.511v-3.2zm3.476 4.121c-.328 0-.612-.068-.85-.205s-.42-.332-.548-.584-.192-.55-.192-.893c0-.337.064-.632.192-.886a1.45 1.45 0 0 1 .541-.596 1.52 1.52 0 0 1 .816-.215 1.65 1.65 0 0 1 .571.098 1.29 1.29 0 0 1 .478.298c.139.135.248.307.328.516s.119.455.119.742v.237h-2.683v-.52h1.944c-.002-.148-.034-.279-.096-.394a.7.7 0 0 0-.262-.275c-.111-.067-.24-.1-.388-.1-.158 0-.296.038-.416.115s-.212.175-.279.298a.87.87 0 0 0-.1.403v.454c0 .19.035.354.105.49a.74.74 0 0 0 .291.311c.125.071.272.107.439.107.113 0 .214-.016.305-.047a.68.68 0 0 0 .237-.143.6.6 0 0 0 .151-.232l.72.081c-.045.19-.132.356-.26.498a1.26 1.26 0 0 1-.486.328c-.197.077-.423.115-.677.115zm2.107-.064v-3.273h.748v.545h.034c.06-.189.162-.335.307-.437s.313-.155.501-.155l.143.006a.96.96 0 0 1 .134.015v.709c-.033-.011-.085-.021-.156-.03s-.137-.015-.202-.015c-.141 0-.267.031-.379.092a.67.67 0 0 0-.262.249.7.7 0 0 0-.096.369V87h-.772z" class="G"/><rect x="37" y="49" width="48" height="4" rx="2" class="B"/><path d="M40.588 72.091V61.182h.699v10.909h-.699zm2.016-7.419c-.04-.372-.207-.662-.503-.869s-.673-.311-1.142-.311c-.329 0-.612.05-.848.149s-.416.234-.541.405-.189.365-.192.584c0 .182.041.339.124.473a1.13 1.13 0 0 0 .345.341c.145.091.305.168.481.23a5.18 5.18 0 0 0 .533.158l.818.204c.329.077.646.18.95.311a3.35 3.35 0 0 1 .822.494c.244.199.438.439.579.72s.213.611.213.989c0 .511-.131.962-.392 1.351s-.639.689-1.133.908-1.087.324-1.786.324c-.679 0-1.268-.105-1.768-.315s-.886-.517-1.168-.921-.429-.895-.452-1.474h1.555c.023.304.116.557.281.759a1.49 1.49 0 0 0 .643.452 2.55 2.55 0 0 0 .895.149c.344 0 .645-.051.903-.153s.466-.25.614-.435a1.05 1.05 0 0 0 .226-.656c-.003-.227-.07-.415-.2-.562a1.47 1.47 0 0 0-.55-.375c-.233-.102-.506-.193-.818-.273l-.993-.256c-.719-.185-1.287-.465-1.705-.84s-.622-.879-.622-1.504a2.25 2.25 0 0 1 .418-1.351c.281-.386.663-.686 1.146-.899s1.03-.324 1.641-.324c.619 0 1.162.108 1.628.324s.837.51 1.104.891.405.813.413 1.304h-1.521zm6.067 6.447c-.633 0-1.196-.106-1.687-.32s-.872-.504-1.151-.874a2.05 2.05 0 0 1-.409-1.266c-.003-.367.077-.703.239-1.01a2.25 2.25 0 0 1 .656-.767c.278-.207.588-.34.929-.396v-.06c-.449-.099-.812-.328-1.091-.686a1.98 1.98 0 0 1-.409-1.249c-.003-.449.122-.849.375-1.202s.599-.629 1.04-.831.943-.307 1.508-.307c.56 0 1.058.102 1.496.307s.787.479 1.04.831.383.753.383 1.202c0 .472-.141.888-.422 1.249a1.84 1.84 0 0 1-1.078.686v.06c.341.057.648.189.921.396a2.25 2.25 0 0 1 .656.767 2.1 2.1 0 0 1 .247 1.01 2.06 2.06 0 0 1-.418 1.266c-.278.369-.662.66-1.151.874s-1.044.32-1.675.32zm0-1.219c.327 0 .611-.055.852-.166a1.33 1.33 0 0 0 .563-.477 1.29 1.29 0 0 0 .205-.707c-.003-.278-.075-.524-.217-.737s-.331-.385-.575-.507-.517-.183-.827-.183-.591.061-.835.183a1.46 1.46 0 0 0-.58.507c-.139.213-.207.459-.205.737a1.24 1.24 0 0 0 .196.707 1.34 1.34 0 0 0 .563.473c.244.114.531.171.861.171zm0-3.976c.267 0 .503-.054.707-.162s.371-.258.49-.452.18-.416.183-.669c-.003-.25-.062-.469-.179-.656s-.278-.337-.486-.439-.446-.158-.716-.158c-.276 0-.519.053-.729.158s-.369.249-.486.439-.169.406-.166.656c-.003.253.054.476.17.669s.283.341.49.452.45.162.72.162zm7.84 5.195c-.418-.003-.825-.075-1.223-.217s-.756-.379-1.074-.703-.571-.76-.758-1.3-.28-1.214-.277-2.016c0-.747.08-1.413.239-1.999s.388-1.08.686-1.483.658-.716 1.078-.929a3.11 3.11 0 0 1 1.419-.32c.548 0 1.034.108 1.457.324s.77.511 1.031.886.423.793.486 1.261h-1.555c-.08-.335-.243-.602-.49-.801s-.554-.303-.929-.303c-.605 0-1.071.263-1.398.788s-.487 1.247-.49 2.165h.06c.139-.25.32-.465.541-.643s.472-.317.75-.413.578-.149.891-.149c.511 0 .97.122 1.377.366s.733.581.971 1.01.357.915.354 1.466c.003.574-.128 1.09-.392 1.547s-.632.813-1.104 1.074-1.021.391-1.649.388zm-.009-1.278c.31 0 .587-.075.831-.226s.438-.354.579-.609.212-.543.209-.861c.003-.312-.065-.595-.205-.848a1.56 1.56 0 0 0-.567-.601c-.241-.148-.517-.222-.827-.222a1.57 1.57 0 0 0-.643.132 1.6 1.6 0 0 0-.52.367 1.72 1.72 0 0 0-.349.537c-.082.202-.125.418-.128.648.003.304.074.584.213.84s.331.46.575.614a1.53 1.53 0 0 0 .831.23zm7.696 1.278c-.634 0-1.196-.106-1.687-.32s-.872-.504-1.151-.874a2.05 2.05 0 0 1-.409-1.266c-.003-.367.077-.703.239-1.01s.381-.562.656-.767.588-.34.929-.396v-.06c-.449-.099-.812-.328-1.091-.686a1.98 1.98 0 0 1-.409-1.249c-.003-.449.122-.849.375-1.202s.599-.629 1.04-.831.943-.307 1.509-.307c.56 0 1.058.102 1.496.307s.787.479 1.04.831.383.753.383 1.202c0 .472-.141.888-.422 1.249a1.84 1.84 0 0 1-1.078.686v.06c.341.057.648.189.92.396a2.25 2.25 0 0 1 .656.767 2.1 2.1 0 0 1 .247 1.01 2.06 2.06 0 0 1-.418 1.266c-.278.369-.662.66-1.15.874s-1.044.32-1.675.32zm0-1.219c.327 0 .611-.055.852-.166a1.33 1.33 0 0 0 .563-.477 1.29 1.29 0 0 0 .205-.707c-.003-.278-.075-.524-.217-.737s-.331-.385-.575-.507-.517-.183-.827-.183-.591.061-.835.183a1.46 1.46 0 0 0-.58.507c-.139.213-.207.459-.205.737a1.24 1.24 0 0 0 .196.707 1.34 1.34 0 0 0 .563.473c.244.114.531.171.861.171zm0-3.976c.267 0 .503-.054.707-.162s.371-.258.49-.452.18-.416.183-.669c-.003-.25-.062-.469-.179-.656s-.279-.337-.486-.439-.446-.158-.716-.158c-.276 0-.519.053-.729.158s-.369.249-.486.439-.169.406-.166.656c-.003.253.054.476.17.669s.283.341.49.452.45.162.72.162zm5.353 5.169c-.258 0-.48-.091-.665-.273s-.276-.403-.273-.665c-.003-.256.088-.474.273-.656s.406-.273.665-.273a.9.9 0 0 1 .652.273c.188.182.283.401.285.656a.91.91 0 0 1-.136.473.98.98 0 0 1-.341.341c-.139.082-.293.124-.46.124zm5.369.025c-.418-.003-.825-.075-1.223-.217s-.756-.379-1.074-.703-.571-.76-.759-1.3-.28-1.214-.277-2.016c0-.747.08-1.413.239-1.999s.388-1.08.686-1.483.658-.716 1.078-.929a3.11 3.11 0 0 1 1.419-.32c.548 0 1.034.108 1.457.324s.77.511 1.031.886.423.793.486 1.261h-1.555c-.079-.335-.243-.602-.49-.801s-.554-.303-.929-.303c-.605 0-1.071.263-1.398.788s-.487 1.247-.49 2.165h.06c.139-.25.32-.465.541-.643s.472-.317.75-.413.578-.149.891-.149c.511 0 .97.122 1.376.366s.733.581.972 1.01.356.915.354 1.466c.003.574-.128 1.09-.392 1.547s-.632.813-1.104 1.074-1.021.391-1.649.388zm-.008-1.278c.31 0 .587-.075.831-.226s.438-.354.579-.609a1.71 1.71 0 0 0 .209-.861c.003-.312-.065-.595-.204-.848a1.56 1.56 0 0 0-.567-.601c-.242-.148-.517-.222-.827-.222-.23 0-.445.044-.644.132a1.6 1.6 0 0 0-.52.367 1.72 1.72 0 0 0-.349.537c-.082.202-.125.418-.128.648.003.304.074.584.213.84s.331.46.575.614a1.53 1.53 0 0 0 .831.23zm7.696 1.278c-.633 0-1.196-.106-1.687-.32s-.872-.504-1.151-.874a2.05 2.05 0 0 1-.409-1.266c-.003-.367.077-.703.239-1.01a2.25 2.25 0 0 1 .656-.767c.278-.207.588-.34.929-.396v-.06c-.449-.099-.812-.328-1.091-.686a1.98 1.98 0 0 1-.409-1.249c-.003-.449.122-.849.375-1.202s.599-.629 1.04-.831.943-.307 1.508-.307c.56 0 1.058.102 1.496.307s.787.479 1.04.831.383.753.383 1.202c0 .472-.141.888-.422 1.249a1.84 1.84 0 0 1-1.078.686v.06c.341.057.648.189.921.396a2.25 2.25 0 0 1 .656.767 2.1 2.1 0 0 1 .247 1.01 2.06 2.06 0 0 1-.418 1.266c-.278.369-.662.66-1.151.874s-1.044.32-1.675.32zm0-1.219c.327 0 .611-.055.852-.166a1.33 1.33 0 0 0 .563-.477 1.29 1.29 0 0 0 .204-.707c-.003-.278-.075-.524-.217-.737s-.331-.385-.575-.507-.517-.183-.827-.183-.591.061-.835.183a1.46 1.46 0 0 0-.58.507c-.139.213-.207.459-.204.737a1.24 1.24 0 0 0 .196.707 1.34 1.34 0 0 0 .563.473c.244.114.531.171.861.171zm0-3.976c.267 0 .503-.054.707-.162s.371-.258.49-.452.18-.416.183-.669c-.003-.25-.062-.469-.179-.656s-.278-.337-.486-.439-.446-.158-.716-.158c-.276 0-.519.053-.729.158s-.369.249-.486.439-.169.406-.166.656c-.003.253.054.476.171.669s.283.341.49.452.45.162.72.162z" class="C"/><rect x="37" y="78" width="53" height="13" rx="6.5" class="F"/><path d="M46.903 82.577c.209.001.412.038.609.111s.378.188.537.349.285.376.379.646.141.604.141 1.001a3.76 3.76 0 0 1-.119 1.006c-.08.294-.194.543-.343.746s-.329.358-.539.465-.447.16-.71.16a1.6 1.6 0 0 1-.733-.162c-.212-.108-.383-.256-.514-.443a1.41 1.41 0 0 1-.241-.643h.778c.04.173.121.311.243.413s.279.151.467.151c.303 0 .536-.131.699-.394s.245-.628.245-1.095h-.03a1.12 1.12 0 0 1-.271.324 1.23 1.23 0 0 1-.377.207 1.34 1.34 0 0 1-.443.072 1.32 1.32 0 0 1-.69-.183c-.203-.122-.364-.29-.484-.503a1.5 1.5 0 0 1-.179-.731 1.5 1.5 0 0 1 .196-.765c.132-.227.316-.406.552-.537s.511-.197.827-.194zm.002.639c-.153 0-.292.038-.416.113a.8.8 0 0 0-.29.303c-.07.126-.104.268-.104.424a.89.89 0 0 0 .104.422.8.8 0 0 0 .283.3c.121.074.259.111.413.111.115 0 .222-.022.322-.066a.8.8 0 0 0 .26-.183c.075-.079.133-.17.175-.271s.063-.207.062-.32a.83.83 0 0 0-.107-.413.82.82 0 0 0-.288-.305c-.121-.077-.259-.115-.416-.115zM49.278 87v-.571l1.515-1.485.362-.39a1.43 1.43 0 0 0 .217-.33c.048-.106.072-.22.072-.341 0-.138-.031-.256-.094-.354s-.148-.176-.258-.23a.83.83 0 0 0-.373-.081c-.144 0-.269.03-.377.09s-.192.141-.252.249-.087.237-.087.386h-.752c0-.277.063-.518.19-.722a1.28 1.28 0 0 1 .522-.475c.223-.112.479-.168.767-.168s.55.055.771.164.393.259.516.45a1.17 1.17 0 0 1 .185.652c0 .163-.031.324-.094.482s-.173.332-.33.524-.376.424-.658.697l-.752.765v.03h1.901V87h-2.992zm5.34.083c-.351 0-.652-.089-.903-.266s-.443-.437-.577-.773-.2-.745-.2-1.221.069-.881.202-1.214.327-.591.577-.767.552-.264.901-.264.65.088.901.264a1.65 1.65 0 0 1 .577.767c.135.335.202.74.202 1.214s-.068.885-.202 1.223-.326.594-.577.771-.55.266-.901.266zm0-.667c.273 0 .488-.134.646-.403s.239-.667.239-1.191c0-.347-.036-.638-.109-.874s-.175-.413-.307-.533a.67.67 0 0 0-.469-.181c-.271 0-.486.135-.643.405s-.237.663-.239 1.183c-.001.348.033.641.104.878s.175.416.307.537a.68.68 0 0 0 .471.179zm2.703.631c-.129 0-.24-.045-.332-.136a.44.44 0 0 1-.136-.332c-.001-.128.044-.237.136-.328s.203-.136.332-.136a.45.45 0 0 1 .326.136c.094.091.141.2.143.328-.001.087-.024.165-.068.236a.49.49 0 0 1-.17.171c-.07.041-.146.062-.23.062zm2.7.036c-.351 0-.652-.089-.903-.266s-.442-.437-.577-.773-.2-.745-.2-1.221.069-.881.202-1.214.328-.591.578-.767a1.53 1.53 0 0 1 .901-.264 1.53 1.53 0 0 1 .901.264 1.65 1.65 0 0 1 .577.767c.135.335.202.74.202 1.214s-.067.885-.202 1.223-.326.594-.577.771-.55.266-.901.266zm0-.667c.273 0 .488-.134.646-.403s.239-.667.239-1.191c0-.347-.036-.638-.109-.874s-.175-.413-.307-.533a.67.67 0 0 0-.469-.181c-.271 0-.486.135-.643.405s-.237.663-.239 1.183c-.001.348.033.641.104.878s.175.416.307.537a.68.68 0 0 0 .471.179zm4.002.667c-.351 0-.652-.089-.903-.266s-.443-.437-.577-.773-.2-.745-.2-1.221.069-.881.202-1.214.327-.591.577-.767.552-.264.901-.264.65.088.901.264a1.65 1.65 0 0 1 .577.767c.135.335.202.74.202 1.214s-.067.885-.202 1.223-.326.594-.577.771-.55.266-.901.266zm0-.667c.273 0 .488-.134.646-.403s.239-.667.239-1.191c0-.347-.036-.638-.109-.874s-.175-.413-.307-.533a.67.67 0 0 0-.469-.181c-.271 0-.486.135-.643.405s-.237.663-.239 1.183c-.001.348.033.641.104.878s.175.416.307.537a.68.68 0 0 0 .471.179zm4.828.65c-.207 0-.394-.037-.56-.111s-.295-.186-.392-.332-.143-.327-.143-.541c0-.185.034-.337.102-.458a.79.79 0 0 1 .279-.29 1.41 1.41 0 0 1 .398-.164c.149-.038.303-.066.462-.083l.467-.053c.119-.017.206-.043.26-.077s.083-.09.083-.164v-.013c0-.16-.048-.285-.143-.373s-.232-.132-.411-.132c-.189 0-.339.041-.45.123s-.183.18-.222.292l-.72-.102a1.15 1.15 0 0 1 .281-.499c.131-.135.291-.236.479-.303s.398-.102.626-.102c.158 0 .315.018.471.055s.299.098.428.183a.92.92 0 0 1 .311.343c.079.145.119.326.119.543V87h-.742v-.45h-.026a.94.94 0 0 1-.198.256c-.084.078-.19.141-.317.19a1.28 1.28 0 0 1-.445.07zm.2-.567a.84.84 0 0 0 .403-.092c.114-.062.201-.145.262-.247a.63.63 0 0 0 .094-.335v-.386c-.024.02-.065.038-.124.055a1.74 1.74 0 0 1-.192.045l-.211.034-.181.025a1.35 1.35 0 0 0-.309.077c-.091.036-.163.085-.215.149s-.079.144-.079.243c0 .142.052.249.156.322s.236.109.396.109zm3.961-2.772v.597h-1.935v-.597h1.935zM71.56 87v-3.582c0-.22.046-.403.136-.55a.86.86 0 0 1 .371-.328 1.2 1.2 0 0 1 .516-.109 1.78 1.78 0 0 1 .356.032l.23.057-.153.597a1.34 1.34 0 0 0-.124-.03c-.05-.011-.105-.017-.166-.017-.144 0-.245.035-.305.104s-.087.166-.087.294V87h-.773zm3.689-3.273v.597h-1.881v-.597h1.881zm-1.417-.784h.771v3.072c0 .104.016.183.047.239s.075.091.128.111.111.03.175.03c.048 0 .092-.004.132-.011l.094-.019.13.603a1.7 1.7 0 0 1-.177.047 1.44 1.44 0 0 1-.277.03c-.193.006-.367-.023-.522-.087a.81.81 0 0 1-.369-.303c-.09-.136-.133-.307-.132-.511v-3.2zm3.476 4.121c-.328 0-.611-.068-.85-.205s-.42-.332-.548-.584-.192-.55-.192-.893a1.95 1.95 0 0 1 .192-.886 1.45 1.45 0 0 1 .541-.596c.232-.144.504-.215.816-.215a1.65 1.65 0 0 1 .571.098 1.29 1.29 0 0 1 .477.298c.139.135.249.307.328.516s.119.455.119.742v.237h-2.683v-.52h1.943a.83.83 0 0 0-.096-.394c-.062-.117-.15-.208-.262-.275s-.24-.1-.388-.1a.75.75 0 0 0-.415.115c-.119.075-.212.175-.279.298a.86.86 0 0 0-.1.403v.454c0 .19.035.354.104.49s.167.239.292.311.271.107.439.107c.112 0 .214-.016.305-.047s.17-.08.236-.143.117-.14.151-.232l.72.081a1.12 1.12 0 0 1-.26.498c-.126.141-.288.25-.486.328a1.86 1.86 0 0 1-.678.115zM79.416 87v-3.273h.748v.545h.034c.06-.189.162-.335.307-.437s.313-.155.501-.155l.143.006c.054.003.099.008.134.015v.709c-.033-.011-.085-.021-.156-.03s-.137-.015-.202-.015a.78.78 0 0 0-.379.092.67.67 0 0 0-.262.249c-.064.106-.096.229-.096.369V87h-.771z" class="G"/><rect x="37" y="107" width="26" height="4" rx="2" class="B"/><path d="M40.588 128.091v-10.909h.699v10.909h-.699zm2.016-7.419a1.16 1.16 0 0 0-.503-.869c-.293-.208-.673-.312-1.142-.312-.329 0-.612.05-.848.15s-.416.234-.541.404a.99.99 0 0 0-.192.584.88.88 0 0 0 .124.473c.085.134.2.247.345.341a2.4 2.4 0 0 0 .481.23c.176.063.354.115.533.158l.818.205c.329.076.646.18.95.311s.581.295.822.494.438.439.579.72.213.611.213.989c0 .511-.131.961-.392 1.351s-.639.688-1.133.907-1.087.324-1.786.324c-.679 0-1.268-.105-1.768-.315s-.886-.517-1.168-.921-.429-.895-.452-1.474h1.555c.023.304.116.557.281.758s.379.353.643.452.565.149.895.149c.344 0 .645-.051.903-.153s.466-.25.614-.435a1.05 1.05 0 0 0 .226-.656c-.003-.227-.07-.415-.2-.563s-.314-.275-.55-.375-.506-.193-.818-.272l-.993-.256c-.719-.185-1.287-.464-1.705-.839s-.622-.88-.622-1.505c0-.514.139-.964.418-1.351a2.76 2.76 0 0 1 1.146-.899c.483-.216 1.03-.324 1.641-.324.619 0 1.162.108 1.628.324s.837.51 1.104.891.405.812.413 1.304h-1.521zm6.161 6.447a3.69 3.69 0 0 1-1.223-.217c-.398-.145-.756-.379-1.074-.703s-.571-.76-.758-1.3-.28-1.214-.277-2.015c0-.748.079-1.414.239-1.999s.388-1.08.686-1.483a3.03 3.03 0 0 1 1.078-.929c.423-.213.896-.32 1.419-.32.548 0 1.034.108 1.457.324s.77.512 1.031.887.423.792.486 1.261h-1.555c-.08-.335-.243-.602-.49-.801s-.554-.303-.929-.303c-.605 0-1.071.263-1.398.789s-.487 1.247-.49 2.164h.06c.139-.25.32-.464.541-.643a2.46 2.46 0 0 1 .75-.413 2.64 2.64 0 0 1 .891-.15c.511 0 .97.123 1.377.367s.733.581.972 1.01.357.915.354 1.466c.003.574-.128 1.089-.392 1.547s-.632.812-1.104 1.074-1.021.39-1.649.387zm-.009-1.278c.31 0 .587-.075.831-.226s.438-.354.579-.609a1.71 1.71 0 0 0 .209-.861c.003-.313-.065-.595-.205-.848a1.56 1.56 0 0 0-.567-.601 1.55 1.55 0 0 0-.827-.222c-.23 0-.445.044-.643.133a1.6 1.6 0 0 0-.52.366 1.71 1.71 0 0 0-.349.537 1.76 1.76 0 0 0-.128.648c.003.304.074.583.213.839a1.64 1.64 0 0 0 .575.614c.244.153.521.23.831.23zm4.436-.46v-1.257l3.703-5.851h1.048v1.789h-.639l-2.493 3.951v.068h5.169v1.3h-6.788zM57.356 127v-2.003l.017-.562v-6.162h1.491V127h-1.508zm7.016-8.847c.418.003.824.077 1.219.222a2.83 2.83 0 0 1 1.074.699c.318.321.571.751.758 1.291s.281 1.207.281 2.003c.003.75-.077 1.42-.239 2.011s-.388 1.085-.686 1.492a3.03 3.03 0 0 1-1.078.929c-.42.213-.893.319-1.419.319-.551 0-1.04-.108-1.466-.324s-.766-.511-1.027-.886-.422-.804-.482-1.287h1.555c.079.347.241.622.486.827s.558.302.933.302a1.55 1.55 0 0 0 1.398-.788c.327-.526.49-1.256.49-2.19h-.06c-.139.25-.32.466-.541.647a2.47 2.47 0 0 1-.754.414 2.7 2.7 0 0 1-.886.145c-.511 0-.972-.122-1.381-.367s-.729-.579-.967-1.005-.355-.914-.358-1.462a3 3 0 0 1 .392-1.53c.264-.454.632-.812 1.104-1.074s1.023-.393 1.653-.388zm.004 1.279a1.56 1.56 0 0 0-.831.226c-.244.147-.437.349-.579.605s-.209.535-.209.848.072.591.209.844a1.6 1.6 0 0 0 .567.6 1.55 1.55 0 0 0 .827.222c.23 0 .445-.044.644-.132a1.59 1.59 0 0 0 .52-.367 1.73 1.73 0 0 0 .349-.541c.085-.201.126-.415.124-.639a1.66 1.66 0 0 0-.213-.827 1.64 1.64 0 0 0-.575-.609 1.52 1.52 0 0 0-.831-.23zm6.235 6.375l-.055.469a6.95 6.95 0 0 1-.213 1.09l-.315 1.027-.268.738h-1.04l.162-.708.204-1.005c.065-.373.109-.75.132-1.134l.03-.477h1.364zM72.361 127l3.712-7.347v-.059h-4.308v-1.321h5.945v1.351L74.001 127h-1.641zm10.273-8.727V127h-1.581v-7.189h-.051l-2.041 1.304v-1.449l2.169-1.393h1.504zm5.318 8.846c-.634 0-1.196-.106-1.687-.319s-.872-.505-1.151-.874a2.05 2.05 0 0 1-.409-1.265 2.09 2.09 0 0 1 .239-1.01c.162-.307.381-.563.656-.767a2.11 2.11 0 0 1 .929-.397v-.059a1.85 1.85 0 0 1-1.091-.687c-.276-.36-.412-.777-.409-1.248-.003-.449.122-.85.375-1.202s.599-.629 1.04-.831.943-.307 1.509-.307c.56 0 1.058.103 1.496.307s.787.479 1.04.831.383.753.383 1.202a1.97 1.97 0 0 1-.422 1.248c-.278.358-.638.587-1.078.687v.059c.341.057.648.189.92.397s.494.46.656.767.247.643.247 1.01c0 .471-.139.893-.418 1.265s-.662.661-1.15.874-1.044.319-1.675.319zm0-1.218c.327 0 .611-.056.852-.167a1.32 1.32 0 0 0 .563-.477c.134-.204.202-.44.205-.707-.003-.279-.075-.524-.217-.738a1.44 1.44 0 0 0-.575-.507c-.242-.122-.517-.183-.827-.183s-.591.061-.835.183a1.47 1.47 0 0 0-.579.507c-.139.214-.207.459-.205.738-.003.267.063.503.196.707a1.34 1.34 0 0 0 .563.473c.244.114.531.171.861.171zm0-3.976c.267 0 .503-.054.707-.162s.371-.259.49-.452.18-.416.183-.669c-.003-.25-.062-.469-.179-.656a1.15 1.15 0 0 0-.486-.439c-.207-.105-.446-.158-.716-.158a1.61 1.61 0 0 0-.729.158 1.15 1.15 0 0 0-.486.439 1.21 1.21 0 0 0-.166.656 1.24 1.24 0 0 0 .17.669 1.28 1.28 0 0 0 .49.452c.21.108.45.162.72.162zm5.353 5.169c-.259 0-.48-.091-.665-.273s-.276-.403-.273-.665c-.003-.255.088-.474.273-.656s.406-.273.665-.273c.25 0 .467.091.652.273s.283.401.285.656c-.003.174-.048.331-.136.473s-.199.256-.341.341a.88.88 0 0 1-.46.124zm5.287.025c-.633 0-1.196-.106-1.687-.319s-.872-.505-1.151-.874a2.05 2.05 0 0 1-.409-1.265 2.09 2.09 0 0 1 .239-1.01c.162-.307.381-.563.656-.767a2.11 2.11 0 0 1 .929-.397v-.059a1.85 1.85 0 0 1-1.091-.687c-.276-.36-.412-.777-.409-1.248-.003-.449.122-.85.375-1.202s.599-.629 1.04-.831.943-.307 1.508-.307c.56 0 1.058.103 1.495.307a2.56 2.56 0 0 1 1.04.831c.256.352.384.753.384 1.202 0 .471-.141.888-.422 1.248s-.638.587-1.078.687v.059a2.05 2.05 0 0 1 .92.397 2.24 2.24 0 0 1 .656.767c.165.306.248.643.248 1.01a2.06 2.06 0 0 1-.418 1.265c-.278.369-.662.661-1.151.874s-1.044.319-1.674.319zm0-1.218c.327 0 .611-.056.852-.167s.429-.272.562-.477.202-.44.205-.707c-.003-.279-.075-.524-.217-.738a1.44 1.44 0 0 0-.575-.507c-.242-.122-.517-.183-.827-.183s-.591.061-.835.183-.437.292-.58.507-.207.459-.204.738c-.003.267.063.503.196.707a1.34 1.34 0 0 0 .563.473c.244.114.531.171.861.171zm0-3.976c.267 0 .503-.054.707-.162s.371-.259.49-.452.18-.416.183-.669c-.003-.25-.062-.469-.179-.656a1.15 1.15 0 0 0-.486-.439c-.207-.105-.446-.158-.716-.158a1.61 1.61 0 0 0-.729.158 1.15 1.15 0 0 0-.486.439c-.114.187-.169.406-.166.656a1.24 1.24 0 0 0 .17.669 1.28 1.28 0 0 0 .49.452c.21.108.45.162.72.162zm4.486 3.456v-1.257l3.703-5.851h1.048v1.789h-.639l-2.493 3.951v.068h5.169v1.3h-6.788zm4.163 1.619v-2.003l.017-.562v-6.162h1.492V127h-1.509z" class="C"/><rect x="37" y="134" width="70" height="13" rx="6.5" class="F"/><path d="M46.794 143.545v-5.454h.35v5.454h-.35zm1.008-3.709a.58.58 0 0 0-.251-.435c-.146-.103-.337-.155-.571-.155-.165 0-.306.025-.424.074s-.208.117-.271.203a.49.49 0 0 0-.096.292.44.44 0 0 0 .062.236c.043.067.1.124.173.171s.153.083.241.115.177.057.266.078l.409.103c.165.038.323.09.475.155a1.71 1.71 0 0 1 .411.247 1.1 1.1 0 0 1 .29.361 1.08 1.08 0 0 1 .107.494 1.18 1.18 0 0 1-.196.675c-.131.193-.32.345-.567.454s-.543.162-.893.162c-.34 0-.634-.053-.884-.158s-.443-.258-.584-.46-.215-.447-.226-.737h.778a.66.66 0 0 0 .141.379c.082.101.19.176.322.226s.283.075.447.075c.172 0 .322-.026.452-.077a.74.74 0 0 0 .307-.217.53.53 0 0 0 .113-.329c-.001-.113-.035-.207-.1-.281s-.157-.138-.275-.187a2.69 2.69 0 0 0-.409-.137l-.497-.127c-.359-.093-.643-.233-.852-.42s-.311-.44-.311-.752c0-.257.07-.483.209-.676s.332-.343.573-.449a1.99 1.99 0 0 1 .82-.162c.31 0 .581.054.814.162s.418.255.552.445.202.406.207.652h-.761zm4.569 3.224a1.86 1.86 0 0 1-.612-.109c-.199-.072-.378-.19-.537-.352s-.285-.38-.379-.649-.14-.608-.139-1.008a3.82 3.82 0 0 1 .119-1c.079-.292.194-.539.343-.741a1.51 1.51 0 0 1 .539-.464 1.55 1.55 0 0 1 .709-.16 1.58 1.58 0 0 1 .729.162c.213.108.385.255.516.443a1.4 1.4 0 0 1 .243.63h-.778c-.04-.167-.121-.301-.245-.4s-.277-.151-.465-.151c-.303 0-.535.131-.699.394s-.244.623-.245 1.082h.03a1.1 1.1 0 0 1 .271-.322 1.24 1.24 0 0 1 .375-.206 1.32 1.32 0 0 1 .445-.075 1.31 1.31 0 0 1 .688.183 1.34 1.34 0 0 1 .486.505c.119.214.178.458.177.733.001.287-.064.545-.196.774s-.316.406-.552.537a1.67 1.67 0 0 1-.824.194zm-.004-.64c.155 0 .293-.037.415-.112s.219-.177.29-.305.106-.271.104-.431a.85.85 0 0 0-.102-.424.78.78 0 0 0-.283-.3c-.121-.074-.259-.111-.413-.111-.115 0-.222.022-.322.066a.79.79 0 0 0-.26.184.85.85 0 0 0-.175.268.88.88 0 0 0-.064.324c.002.152.037.292.107.42s.165.23.288.306.261.115.416.115zm2.457.58l1.856-3.673v-.03h-2.154v-.661h2.972v.676L55.643 143h-.82zm3.362 0v-.571l1.515-1.485.362-.39a1.45 1.45 0 0 0 .217-.33c.048-.107.072-.22.072-.341 0-.138-.031-.256-.094-.354s-.148-.176-.258-.23a.83.83 0 0 0-.373-.081c-.143 0-.269.03-.377.09s-.192.141-.251.249-.087.236-.087.385h-.752c0-.277.063-.517.19-.722a1.28 1.28 0 0 1 .522-.475c.223-.112.479-.168.767-.168s.55.054.771.164.393.259.516.449.185.408.185.652c0 .164-.031.324-.094.482s-.172.332-.33.524-.376.424-.658.697l-.752.765v.029h1.901V143h-2.991zm4.641-.597l-.028.235a3.47 3.47 0 0 1-.107.545l-.158.514-.134.368h-.52l.081-.353.102-.503c.033-.186.055-.375.066-.567l.015-.239h.682zm2.243.657c-.317 0-.598-.054-.844-.16s-.436-.252-.575-.437-.206-.397-.205-.633a1.05 1.05 0 0 1 .119-.505c.081-.153.19-.281.328-.383a1.05 1.05 0 0 1 .465-.198v-.03c-.225-.05-.406-.164-.546-.343s-.206-.389-.204-.625a.99.99 0 0 1 .188-.6c.126-.177.3-.315.52-.416s.472-.153.754-.153a1.75 1.75 0 0 1 .748.153c.22.101.393.239.52.416s.192.376.192.6a.99.99 0 0 1-.211.625.92.92 0 0 1-.539.343v.03a1.02 1.02 0 0 1 .46.198c.138.102.247.23.328.383s.124.322.124.505a1.03 1.03 0 0 1-.209.633c-.139.185-.331.33-.575.437s-.522.16-.837.16zm0-.61c.163 0 .305-.027.426-.083s.215-.136.281-.238a.65.65 0 0 0 .102-.354c-.001-.139-.038-.262-.109-.369a.71.71 0 0 0-.288-.253c-.121-.061-.258-.092-.413-.092s-.295.031-.418.092a.73.73 0 0 0-.29.253.65.65 0 0 0-.102.369c-.002.133.031.251.098.354s.16.179.281.236a1.01 1.01 0 0 0 .43.085zm0-1.988c.133 0 .251-.027.354-.081a.62.62 0 0 0 .245-.225.64.64 0 0 0 .092-.335c-.002-.125-.031-.234-.09-.328s-.139-.168-.243-.22a.79.79 0 0 0-.358-.078.81.81 0 0 0-.364.078c-.104.052-.185.125-.243.22s-.085.203-.083.328.027.238.085.335.141.17.245.225.225.081.36.081zm3.837-1.885a1.77 1.77 0 0 1 .609.111c.199.071.378.187.537.349s.285.376.379.646.141.603.141 1.001c.001.375-.038.71-.119 1.006s-.194.542-.343.745a1.52 1.52 0 0 1-.539.465c-.21.106-.447.16-.71.16-.276 0-.52-.054-.733-.162a1.38 1.38 0 0 1-.513-.443 1.41 1.41 0 0 1-.241-.644h.778c.04.173.121.311.243.413s.279.152.467.152c.303 0 .535-.132.699-.394s.245-.628.245-1.096h-.03a1.12 1.12 0 0 1-.271.324c-.111.09-.236.159-.377.207a1.35 1.35 0 0 1-.443.072 1.32 1.32 0 0 1-.69-.183c-.203-.122-.364-.29-.484-.503s-.178-.456-.179-.731c0-.284.065-.539.196-.764s.316-.407.552-.537.511-.197.827-.194zm.002.639c-.153 0-.292.038-.416.113s-.219.175-.29.302-.104.268-.104.424a.89.89 0 0 0 .104.422.8.8 0 0 0 .283.301c.121.074.258.11.413.11.115 0 .222-.022.322-.066a.8.8 0 0 0 .26-.183.87.87 0 0 0 .175-.27.79.79 0 0 0 .062-.32.83.83 0 0 0-.106-.413.82.82 0 0 0-.288-.305c-.121-.077-.259-.115-.415-.115zm4.148-.58V143h-.79v-3.594h-.026l-1.021.652v-.725l1.085-.697h.752zm1.351 4.411a.46.46 0 0 1-.332-.136.44.44 0 0 1-.136-.333c-.001-.128.044-.237.136-.328s.203-.136.332-.136a.45.45 0 0 1 .326.136c.094.091.141.2.143.328-.001.087-.024.166-.068.237a.49.49 0 0 1-.17.17c-.07.041-.146.062-.23.062zm2.7.036c-.351 0-.652-.089-.903-.266s-.442-.437-.577-.774-.2-.745-.2-1.221.069-.88.202-1.214.327-.591.577-.767.552-.264.901-.264.65.088.901.264.444.432.577.767.202.74.202 1.214-.067.885-.202 1.223-.326.594-.577.772-.55.266-.901.266zm0-.667c.273 0 .488-.134.646-.403s.239-.666.239-1.191a3.01 3.01 0 0 0-.109-.873c-.072-.236-.175-.413-.307-.533a.67.67 0 0 0-.469-.181c-.271 0-.486.135-.644.405s-.237.663-.239 1.182c-.001.348.033.641.104.878s.175.416.307.537.289.179.471.179zm4.002.667c-.351 0-.652-.089-.903-.266s-.442-.437-.577-.774-.2-.745-.2-1.221.069-.88.202-1.214.328-.591.578-.767.552-.264.901-.264.65.088.901.264.444.432.577.767.202.74.202 1.214-.067.885-.202 1.223-.326.594-.577.772-.55.266-.901.266zm0-.667c.273 0 .488-.134.646-.403s.239-.666.239-1.191c0-.346-.036-.637-.109-.873s-.175-.413-.307-.533a.67.67 0 0 0-.469-.181c-.271 0-.486.135-.643.405s-.237.663-.239 1.182c-.001.348.033.641.104.878s.175.416.307.537.289.179.471.179zm4.828.65c-.207 0-.394-.037-.56-.111s-.296-.186-.392-.332-.143-.327-.143-.541c0-.185.034-.338.102-.458s.161-.218.279-.29.251-.127.398-.164.303-.066.462-.083l.467-.054c.119-.017.206-.042.26-.076s.083-.091.083-.164v-.013c0-.161-.048-.285-.143-.373s-.232-.132-.411-.132c-.189 0-.339.041-.45.123s-.183.18-.222.292l-.72-.102c.057-.199.151-.365.281-.499s.29-.235.479-.302a1.84 1.84 0 0 1 .626-.102c.158 0 .315.018.471.055a1.33 1.33 0 0 1 .428.183.92.92 0 0 1 .311.343 1.12 1.12 0 0 1 .119.544V143h-.742v-.45h-.026c-.047.091-.113.177-.198.256s-.19.141-.317.19-.275.07-.445.07zm.2-.567a.84.84 0 0 0 .403-.091c.114-.063.201-.145.262-.247a.63.63 0 0 0 .094-.335v-.386c-.024.02-.065.039-.123.056s-.121.032-.192.044l-.211.035-.181.025a1.34 1.34 0 0 0-.309.077c-.091.035-.163.085-.215.149s-.079.143-.079.243c0 .142.052.249.156.322a.68.68 0 0 0 .396.108zm3.961-2.772v.597h-1.935v-.597h1.935zM88.646 143v-3.582c0-.22.045-.403.136-.549s.216-.256.371-.329.327-.108.516-.108a1.73 1.73 0 0 1 .356.032l.23.057-.153.597c-.033-.01-.074-.02-.124-.03a.77.77 0 0 0-.166-.017c-.143 0-.245.035-.305.104s-.087.167-.087.294V143h-.773zm3.689-3.273v.597h-1.881v-.597h1.881zm-1.417-.784h.771v3.073c0 .103.016.183.047.238s.075.091.128.111a.49.49 0 0 0 .175.03c.048 0 .092-.004.132-.011l.094-.019.13.603a1.76 1.76 0 0 1-.177.047 1.46 1.46 0 0 1-.277.03c-.193.005-.367-.024-.522-.088a.81.81 0 0 1-.369-.302c-.09-.137-.133-.307-.132-.512v-3.2zm3.476 4.121c-.328 0-.612-.068-.85-.205a1.38 1.38 0 0 1-.548-.583c-.128-.253-.192-.551-.192-.893s.064-.632.192-.887a1.45 1.45 0 0 1 .541-.596c.232-.144.504-.215.816-.215.202 0 .392.032.571.098a1.29 1.29 0 0 1 .477.298 1.4 1.4 0 0 1 .328.516c.08.207.119.454.119.741v.237h-2.683v-.52h1.943c-.001-.148-.033-.279-.096-.394a.69.69 0 0 0-.262-.275c-.111-.067-.24-.1-.388-.1a.75.75 0 0 0-.415.115c-.119.075-.212.174-.279.298s-.099.256-.1.403v.453c0 .191.035.354.104.49a.75.75 0 0 0 .292.312c.125.071.271.106.439.106a.94.94 0 0 0 .305-.047.66.66 0 0 0 .237-.143c.067-.062.117-.139.151-.232l.72.081c-.046.19-.132.357-.26.499s-.288.25-.486.328-.423.115-.678.115zm2.108-.064v-3.273h.748v.546h.034c.06-.189.162-.335.307-.437s.313-.156.501-.156l.143.007c.054.003.099.008.134.015v.709a.88.88 0 0 0-.156-.03c-.07-.01-.137-.015-.202-.015a.78.78 0 0 0-.379.092c-.111.06-.198.143-.262.249s-.096.23-.096.369V143h-.771z" class="G"/><g filter="url(#C)"><rect x="182" y="42" width="127" height="153" rx="12" fill="#fff"/></g><path d="M200.909 67h-1.479v-4.364h1.509c.433 0 .805.087 1.116.262s.553.423.721.748.251.715.251 1.168-.085.845-.254 1.172-.409.577-.726.752-.695.262-1.138.262zm-.688-.684h.65c.304 0 .557-.055.76-.166s.356-.279.458-.501.154-.501.154-.835-.051-.611-.154-.831-.253-.387-.453-.496-.446-.166-.742-.166h-.673v2.996zm4.972.748c-.328 0-.612-.068-.85-.205s-.42-.332-.548-.584-.192-.55-.192-.893c0-.337.064-.632.192-.886a1.45 1.45 0 0 1 .541-.596 1.52 1.52 0 0 1 .816-.215 1.65 1.65 0 0 1 .571.098 1.29 1.29 0 0 1 .478.298c.139.135.248.307.328.516s.119.455.119.742v.237h-2.682v-.52h1.943c-.002-.148-.034-.279-.096-.394a.7.7 0 0 0-.262-.275c-.111-.067-.24-.1-.388-.1-.158 0-.296.038-.415.115a.79.79 0 0 0-.28.298.87.87 0 0 0-.1.403v.454c0 .19.035.354.105.49a.74.74 0 0 0 .292.311.87.87 0 0 0 .438.107c.113 0 .214-.016.305-.047a.68.68 0 0 0 .237-.143.6.6 0 0 0 .151-.232l.72.081c-.045.19-.132.356-.26.498a1.26 1.26 0 0 1-.486.328c-.197.077-.423.115-.677.115zm2.108 1.163v-4.5h.758v.541h.045c.04-.08.096-.164.168-.254s.171-.168.294-.232.281-.098.473-.098c.253 0 .481.065.684.194s.367.317.486.569.181.557.181.921-.059.665-.177.916-.278.443-.481.575a1.24 1.24 0 0 1-.691.198c-.187 0-.343-.031-.466-.094s-.223-.138-.299-.226-.131-.174-.172-.254h-.032v1.743h-.771zm.756-2.864c0 .212.03.397.089.556s.149.283.263.373.254.132.417.132c.171 0 .313-.045.428-.136a.84.84 0 0 0 .26-.377c.06-.16.09-.343.09-.548s-.029-.384-.087-.541a.82.82 0 0 0-.26-.371.68.68 0 0 0-.431-.134c-.165 0-.305.043-.42.13s-.202.208-.262.364-.087.34-.087.552zm4.421 1.7c-.319 0-.596-.07-.831-.211a1.43 1.43 0 0 1-.545-.59c-.128-.253-.192-.548-.192-.886s.064-.634.192-.889a1.43 1.43 0 0 1 .545-.592c.235-.141.512-.211.831-.211s.597.07.831.211.416.338.543.592.194.55.194.889-.064.633-.194.886a1.41 1.41 0 0 1-.543.59c-.234.141-.511.211-.831.211zm.004-.618c.174 0 .319-.048.435-.143s.203-.226.26-.388.087-.342.087-.541-.029-.381-.087-.543-.143-.293-.26-.39-.261-.145-.435-.145-.325.048-.443.145-.204.226-.262.39a1.63 1.63 0 0 0-.085.543 1.62 1.62 0 0 0 .085.541c.058.162.146.291.262.388s.266.143.443.143zm4.806-1.854l-.703.077c-.02-.071-.055-.138-.105-.2s-.114-.113-.196-.151a.71.71 0 0 0-.302-.058c-.161 0-.296.035-.405.104s-.162.16-.16.271a.28.28 0 0 0 .104.232c.073.06.192.109.358.147l.559.119c.309.067.539.173.69.317s.229.335.23.569a.89.89 0 0 1-.181.545c-.118.156-.282.278-.492.367s-.452.132-.725.132c-.4 0-.723-.084-.967-.251a1.01 1.01 0 0 1-.437-.705l.752-.072a.53.53 0 0 0 .218.334c.11.075.255.113.432.113.183 0 .33-.038.441-.113s.168-.168.168-.279a.29.29 0 0 0-.108-.232c-.071-.061-.182-.108-.333-.141l-.558-.117c-.314-.065-.546-.175-.697-.33a.81.81 0 0 1-.223-.592c-.002-.202.053-.376.164-.524s.268-.264.466-.345.432-.123.693-.123c.383 0 .685.082.905.245a1.03 1.03 0 0 1 .412.663zm.706 2.408v-3.273h.771V67h-.771zm.388-3.737a.45.45 0 0 1-.316-.121.39.39 0 0 1-.132-.296c0-.116.044-.215.132-.296s.194-.124.316-.124a.44.44 0 0 1 .315.124c.088.081.132.18.132.296a.39.39 0 0 1-.132.296c-.087.081-.192.121-.315.121zm2.811.465v.597h-1.882v-.597h1.882zm-1.417-.784h.771v3.072c0 .104.016.183.047.239s.075.091.128.111a.49.49 0 0 0 .174.03.76.76 0 0 0 .133-.011l.093-.019.13.603a1.68 1.68 0 0 1-.177.047c-.075.017-.167.027-.277.03a1.26 1.26 0 0 1-.522-.087c-.154-.065-.277-.166-.368-.303s-.134-.307-.132-.511v-3.2zM223.36 67v-4.364h2.838v.663h-2.047v1.185h1.9v.663h-1.9v1.191h2.064V67h-2.855zm3.453-3.701v-.663h3.481v.663h-1.348V67h-.784v-3.701h-1.349zM230.966 67v-4.364h.79v1.847h2.022v-1.847h.793V67h-.793v-1.854h-2.022V67h-.79z" class="C"/><rect x="199" y="73" width="93" height="21" rx="4" class="D"/><path d="M209.54 86.08c-.379 0-.718-.071-1.017-.213s-.537-.341-.713-.591-.267-.536-.279-.858h1.023c.019.239.122.434.31.585a1.05 1.05 0 0 0 .676.225c.206 0 .39-.047.551-.142a1.02 1.02 0 0 0 .381-.395 1.16 1.16 0 0 0 .136-.577 1.17 1.17 0 0 0-.139-.585 1.05 1.05 0 0 0-.389-.401 1.09 1.09 0 0 0-.569-.148c-.174-.002-.345.03-.514.097a1.05 1.05 0 0 0-.4.261l-.952-.156.304-3h3.375v.881h-2.503l-.168 1.543h.035c.107-.127.26-.232.457-.315s.413-.128.648-.128c.352 0 .666.083.943.25a1.77 1.77 0 0 1 .653.682c.159.29.239.621.239.994 0 .384-.089.727-.267 1.028a1.89 1.89 0 0 1-.736.707c-.313.17-.674.256-1.085.256zm5.19.031c-.468 0-.869-.118-1.204-.355s-.59-.582-.77-1.031-.267-.993-.267-1.628.091-1.174.27-1.619.436-.788.769-1.023.736-.352 1.202-.352.867.117 1.202.352.592.576.77 1.023.27.987.27 1.619-.09 1.18-.27 1.631-.435.792-.77 1.028-.734.355-1.202.355zm0-.889c.364 0 .651-.179.861-.537s.318-.889.318-1.588c0-.462-.048-.85-.145-1.165s-.233-.551-.409-.71-.384-.242-.625-.242c-.362 0-.648.18-.858.54s-.316.883-.318 1.577c-.002.464.044.854.139 1.17s.233.555.409.716.386.239.628.239zm5.336.889c-.468 0-.869-.118-1.204-.355s-.59-.582-.77-1.031-.267-.993-.267-1.628.091-1.174.269-1.619.437-.788.77-1.023.736-.352 1.202-.352.867.117 1.202.352.592.576.77 1.023.27.987.27 1.619-.09 1.18-.27 1.631-.435.792-.77 1.028-.734.355-1.202.355zm0-.889c.364 0 .651-.179.861-.537s.318-.889.318-1.588c0-.462-.048-.85-.145-1.165s-.233-.551-.409-.71-.384-.242-.625-.242c-.362 0-.648.18-.858.54s-.316.883-.318 1.577c-.002.464.044.854.139 1.17s.233.555.409.716.386.239.628.239z" fill="#000"/><rect x="199" y="131" width="18" height="2" rx="1" class="B"/><rect x="268" y="131" width="24" height="2" rx="1" class="H"/><rect x="199" y="139" width="12" height="2" rx="1" class="B"/><rect x="277" y="139" width="15" height="2" rx="1" class="H"/><rect x="199" y="147" width="16" height="2" rx="1" class="B"/><rect x="273" y="147" width="19" height="2" rx="1" class="H"/><rect x="199" y="110" width="92" height="3" rx="1.5" class="B"/><rect x="199" y="110" width="62" height="3" rx="1.5" fill="#878bfc"/><g filter="url(#D)" class="C"><circle cx="260.5" cy="111.5" r="3.5"/></g><rect x="198" y="159" width="94" height="18" rx="9" class="C"/></g><defs><filter id="B" x="0" y="4" width="277" height="229" filterUnits="userSpaceOnUse" class="I"><feFlood result="A" class="J"/><feColorMatrix in="SourceAlpha" values="0 0 0 0 0 0 0 0 0 0 0 0 0 0 0 0 0 0 127 0" result="B"/><feOffset/><feGaussianBlur stdDeviation="8"/><feComposite in2="B" operator="out"/><feColorMatrix values="0 0 0 0 0 0 0 0 0 0 0 0 0 0 0 0 0 0 0.03 0"/><feBlend in2="A"/><feBlend in="SourceGraphic"/></filter><filter id="C" x="166" y="26" width="159" height="185" filterUnits="userSpaceOnUse" class="I"><feFlood result="A" class="J"/><feColorMatrix in="SourceAlpha" values="0 0 0 0 0 0 0 0 0 0 0 0 0 0 0 0 0 0 127 0" result="B"/><feOffset/><feGaussianBlur stdDeviation="8"/><feComposite in2="B" operator="out"/><feColorMatrix values="0 0 0 0 0 0 0 0 0 0 0 0 0 0 0 0 0 0 0.05 0"/><feBlend in2="A"/><feBlend in="SourceGraphic"/></filter><filter id="D" x="249" y="100" width="23" height="23" filterUnits="userSpaceOnUse" class="I"><feFlood result="A" class="J"/><feColorMatrix in="SourceAlpha" values="0 0 0 0 0 0 0 0 0 0 0 0 0 0 0 0 0 0 127 0" result="B"/><feOffset/><feGaussianBlur stdDeviation="4"/><feComposite in2="B" operator="out"/><feColorMatrix values="0 0 0 0 0 0 0 0 0 0 0 0 0 0 0 0 0 0 0.1 0"/><feBlend in2="A"/><feBlend in="SourceGraphic"/></filter></defs></svg>