<svg xmlns="http://www.w3.org/2000/svg" xmlns:xlink="http://www.w3.org/1999/xlink" width="325" height="241" fill="none" xmlns:v="https://vecta.io/nano"><style><![CDATA[.B{fill:#fff}.C{fill:#bec9d0}.D{fill:#787a9b}.E{fill:#5c5ffe}]]></style><rect opacity=".5" width="325" height="241" rx="16" class="B"/><mask id="A" maskUnits="userSpaceOnUse" x="0" y="0" width="325" height="241" mask-type="alpha"><rect width="325" height="241" rx="16" fill="#25273d"/></mask><g mask="url(#A)"><g filter="url(#B)" class="B"><rect x="19" y="30" width="289" height="192" rx="16"/></g><path fill-rule="evenodd" d="M79 73.134c1.149-5.229 5.807-9.162 11.385-9.162 6.434 0 11.657 5.208 11.615 11.651 0 1.36-.23 2.656-.648 3.87-.606-1.799-1.671-3.514-3.112-4.915-1.107-1.088-2.402-1.966-3.823-2.573C92.892 71.335 91.242 71 89.549 71c-1.107 0-2.235.167-3.322.502-.084.042-.146.063-.23.084a9.71 9.71 0 0 1 6.163-3.828C86.98 67.444 82.28 69.243 79 73.134zm.71 7.196c1.337-3.723 5.327-7.216 9.839-7.216 5.891 0 10.006 4.832 10.32 9.266-.021.042-.021.063-.021.084-2.026 2.803-5.285 4.685-8.962 4.832.376-2.97 1.755-6.61 2.799-7.698-2.382 1.569-4.429 4.016-6.162 7.363a11.58 11.58 0 0 1-3.489-1.527c.982-3.284 2.883-6.421 4.282-8.011-1.88.523-4.826 3.472-6.58 6.045a11.54 11.54 0 0 1-2.026-3.138z" fill="url(#C)"/><circle cx="54" cy="118" r="12" fill="#575cfe"/><use xlink:href="#D" class="B"/><path d="M54 111l5 7.13-5 2.54V111z" class="B"/><use xlink:href="#E" class="B"/><path d="M54 125v-3.517l5-2.538L54 125z" class="B"/><circle cx="54" cy="154" r="12" class="E"/><use xlink:href="#D" y="36" class="B"/><path d="M54 147l5 7.13-5 2.54V147z" class="B"/><use xlink:href="#F" class="B"/><path d="M54 161v-3.517l5-2.538L54 161z" class="B"/><circle cx="90" cy="118" r="12" class="E"/><use xlink:href="#D" x="36" class="B"/><path d="M90 111l5 7.13-5 2.54V111z" class="B"/><use xlink:href="#E" x="36" class="B"/><path d="M90 125v-3.517l5-2.538L90 125z" class="B"/><circle cx="90" cy="154" r="12" class="C"/><use xlink:href="#D" x="36" y="36" class="B"/><path d="M90 147l5 7.13-5 2.54V147z" class="B"/><use xlink:href="#F" x="36" class="B"/><path d="M90 161v-3.517l5-2.538L90 161z" class="B"/><circle cx="54" cy="190" r="12" class="C"/><use xlink:href="#D" y="72" class="B"/><path d="M54 183l5 7.13-5 2.54V183z" class="B"/><use xlink:href="#G" class="B"/><path d="M54 197v-3.517l5-2.538L54 197z" class="B"/><circle cx="126" cy="118" r="12" class="E"/><use xlink:href="#D" x="72" class="B"/><path d="M126 111l5 7.13-5 2.54V111z" class="B"/><use xlink:href="#E" x="72" class="B"/><use xlink:href="#H" class="B"/><circle cx="126" cy="154" r="12" class="C"/><use xlink:href="#D" x="72" y="36" class="B"/><path d="M126 147l5 7.13-5 2.54V147z" class="B"/><use xlink:href="#F" x="72" class="B"/><use xlink:href="#H" y="36" class="B"/><circle cx="90" cy="190" r="12" class="C"/><use xlink:href="#D" x="36" y="72" class="B"/><path d="M90 183l5 7.13-5 2.54V183z" class="B"/><use xlink:href="#G" x="36" class="B"/><path d="M90 197v-3.517l5-2.538L90 197z" class="B"/><circle cx="126" cy="190" r="12" class="C"/><use xlink:href="#D" x="72" y="72" class="B"/><path d="M126 183l5 7.13-5 2.54V183z" class="B"/><use xlink:href="#G" x="72" class="B"/><use xlink:href="#H" y="72" class="B"/><circle cx="236.5" cy="75.5" r="12.5" fill="#ededff"/><path d="M235.133 77.269v-.169c.003-.58.055-1.042.154-1.387s.252-.623.447-.835.431-.404.706-.577a4.61 4.61 0 0 0 .552-.413c.163-.142.292-.3.388-.472s.144-.371.144-.587a1.1 1.1 0 0 0-.164-.602 1.09 1.09 0 0 0-.442-.398 1.32 1.32 0 0 0-.607-.139 1.35 1.35 0 0 0-.611.144c-.193.093-.35.232-.473.418s-.189.409-.199.681H233c.017-.663.176-1.21.477-1.641s.701-.757 1.198-.969 1.046-.323 1.646-.323c.66 0 1.243.109 1.75.328s.905.529 1.193.94.433.906.433 1.487c0 .388-.065.732-.194 1.034s-.303.563-.532.795-.499.436-.81.621a3.28 3.28 0 0 0-.647.487c-.166.169-.29.365-.373.587s-.121.496-.124.82v.169h-1.884zm.984 3.182c-.331 0-.615-.116-.85-.348s-.346-.517-.343-.845a1.12 1.12 0 0 1 .343-.835c.235-.232.519-.348.85-.348.315 0 .592.116.83.348s.36.51.363.835a1.15 1.15 0 0 1-.174.602 1.28 1.28 0 0 1-.432.433 1.13 1.13 0 0 1-.587.159z" fill="#575cfe"/><circle cx="201" cy="118" r="12" class="D"/><use xlink:href="#D" x="147" class="B"/><path d="M201 111l5 7.13-5 2.54V111z" class="B"/><use xlink:href="#E" x="147" class="B"/><use xlink:href="#H" x="75" class="B"/><circle cx="201" cy="154" r="12" class="D"/><use xlink:href="#D" x="147" y="36" class="B"/><path d="M201 147l5 7.13-5 2.54V147z" class="B"/><use xlink:href="#F" x="147" class="B"/><use xlink:href="#H" x="75" y="36" class="B"/><circle cx="237" cy="118" r="12" class="D"/><use xlink:href="#D" x="183" class="B"/><path d="M237 111l5 7.13-5 2.54V111z" class="B"/><use xlink:href="#E" x="183" class="B"/><use xlink:href="#H" x="111" class="B"/><circle cx="237" cy="154" r="12" class="D"/><use xlink:href="#D" x="183" y="36" class="B"/><path d="M237 147l5 7.13-5 2.54V147z" class="B"/><use xlink:href="#F" x="183" class="B"/><use xlink:href="#H" x="111" y="36" class="B"/><circle cx="273" cy="118" r="12" class="D"/><use xlink:href="#D" x="219" class="B"/><path d="M273 111l5 7.13-5 2.54V111z" class="B"/><use xlink:href="#E" x="219" class="B"/><use xlink:href="#H" x="147" class="B"/><circle cx="273" cy="154" r="12" class="D"/><use xlink:href="#D" x="219" y="36" class="B"/><path d="M273 147l5 7.13-5 2.54V147z" class="B"/><use xlink:href="#F" x="219" class="B"/><use xlink:href="#H" x="147" y="36" class="B"/><circle cx="201" cy="190" r="12" class="D"/><use xlink:href="#D" x="147" y="72" class="B"/><path d="M201 183l5 7.13-5 2.54V183z" class="B"/><use xlink:href="#G" x="147" class="B"/><use xlink:href="#H" x="75" y="72" class="B"/><circle cx="237" cy="190" r="12" class="C"/><use xlink:href="#D" x="183" y="72" class="B"/><path d="M237 183l5 7.13-5 2.54V183z" class="B"/><use xlink:href="#G" x="183" class="B"/><use xlink:href="#H" x="111" y="72" class="B"/><circle cx="273" cy="190" r="12" class="C"/><use xlink:href="#D" x="219" y="72" class="B"/><path d="M273 183l5 7.13-5 2.54V183z" class="B"/><use xlink:href="#G" x="219" class="B"/><use xlink:href="#H" x="147" y="72" class="B"/><rect x="86" y="15" width="153" height="29" rx="14.5" fill="#25273d"/><path d="M111.004 35V24.818h3.898c.736 0 1.347.116 1.835.348s.856.542 1.098.94.368.849.368 1.352c0 .414-.079.769-.239 1.064a2 2 0 0 1-.641.711c-.268.182-.568.313-.9.393v.099c.362.02.708.131 1.039.333a2.31 2.31 0 0 1 .821.845c.212.365.318.805.318 1.323a2.69 2.69 0 0 1-.383 1.422c-.255.418-.64.747-1.153.989s-1.16.363-1.939.363h-4.122zm1.845-1.541h1.983c.67 0 1.152-.128 1.447-.383s.448-.59.448-.994c0-.302-.075-.573-.224-.815s-.361-.437-.637-.577-.603-.214-.984-.214h-2.033v2.983zm0-4.31h1.824c.318 0 .605-.058.86-.174s.456-.287.602-.502.224-.477.224-.776c0-.394-.14-.719-.418-.974s-.684-.383-1.228-.383h-1.864v2.809zm10.608 6.001c-.746 0-1.392-.164-1.939-.492s-.971-.787-1.273-1.377-.447-1.279-.447-2.068.149-1.48.447-2.073.726-1.054 1.273-1.382 1.193-.492 1.939-.492 1.392.164 1.939.492.969.789 1.268 1.382.452 1.284.452 2.073-.151 1.478-.452 2.068-.721 1.049-1.268 1.377-1.193.492-1.939.492zm.01-1.442c.404 0 .742-.111 1.014-.333a2.01 2.01 0 0 0 .607-.905c.135-.378.203-.799.203-1.263s-.068-.89-.203-1.268-.335-.684-.607-.91-.61-.338-1.014-.338c-.415 0-.759.113-1.034.338s-.476.529-.612.91-.199.8-.199 1.268a3.81 3.81 0 0 0 .199 1.263c.136.378.34.679.612.905s.619.333 1.034.333zM128.643 35v-7.636h1.745v1.273h.08c.139-.441.378-.781.716-1.019a1.97 1.97 0 0 1 1.168-.363l.333.015c.126.007.231.018.314.035v1.656a1.92 1.92 0 0 0-.363-.07 3.35 3.35 0 0 0-.473-.035c-.328 0-.623.071-.885.214s-.462.333-.611.582a1.64 1.64 0 0 0-.224.86V35h-1.8zm5.551 0v-7.636h1.745v1.273h.08c.139-.441.378-.781.716-1.019a1.97 1.97 0 0 1 1.168-.363l.333.015c.126.007.231.018.313.035v1.656c-.076-.026-.197-.05-.363-.07s-.319-.035-.472-.035c-.328 0-.623.071-.885.214s-.462.333-.611.582a1.64 1.64 0 0 0-.224.86V35h-1.8zm8.568.149c-.746 0-1.393-.164-1.939-.492s-.971-.787-1.273-1.377-.448-1.279-.448-2.068.15-1.48.448-2.073.726-1.054 1.273-1.382 1.193-.492 1.939-.492 1.392.164 1.938.492a3.3 3.3 0 0 1 1.268 1.382c.302.593.453 1.284.453 2.073s-.151 1.478-.453 2.068-.721 1.049-1.268 1.377-1.193.492-1.938.492zm.009-1.442c.405 0 .743-.111 1.015-.333s.474-.527.606-.905.204-.799.204-1.263-.068-.89-.204-1.268-.335-.684-.606-.91-.61-.338-1.015-.338c-.414 0-.759.113-1.034.338s-.475.529-.611.91a3.8 3.8 0 0 0-.199 1.268c0 .464.066.885.199 1.263a2.05 2.05 0 0 0 .611.905c.275.222.62.333 1.034.333zM149.305 35l-2.157-7.636h1.834l1.343 5.369h.069l1.372-5.369h1.815l1.372 5.339h.075l1.322-5.339h1.84L156.027 35h-1.874l-1.432-5.16h-.105L151.185 35h-1.88zm10.141 0v-7.636h1.8V35h-1.8zm.905-8.72a1.05 1.05 0 0 1-.736-.283c-.205-.192-.308-.423-.308-.691s.103-.502.308-.691a1.04 1.04 0 0 1 .736-.288 1.03 1.03 0 0 1 .736.288c.205.189.308.419.308.691s-.103.499-.308.691a1.04 1.04 0 0 1-.736.283zm4.545 4.246V35h-1.799v-7.636h1.72v1.298h.089c.176-.428.456-.767.84-1.019s.867-.378 1.437-.378c.527 0 .986.113 1.377.338a2.27 2.27 0 0 1 .915.979c.219.427.327.946.323 1.556V35h-1.799v-4.584c0-.51-.133-.91-.398-1.198s-.625-.433-1.089-.433a1.67 1.67 0 0 0-.84.209c-.242.136-.433.333-.572.592s-.204.572-.204.94zm10.053 7.497c-.646 0-1.202-.088-1.666-.264s-.837-.404-1.118-.696-.477-.615-.587-.969l1.621-.393a1.79 1.79 0 0 0 .318.443c.139.149.327.272.562.368s.538.149.9.149c.51 0 .933-.124 1.267-.373s.503-.65.503-1.213v-1.447h-.09c-.093.186-.229.376-.408.572s-.409.36-.701.492-.651.199-1.088.199c-.587 0-1.119-.137-1.596-.413s-.852-.693-1.134-1.243-.417-1.246-.417-2.078c0-.839.139-1.546.417-2.123s.661-1.019 1.139-1.317 1.009-.452 1.596-.452c.447 0 .815.076 1.103.229a2.12 2.12 0 0 1 .696.542 2.94 2.94 0 0 1 .393.592h.1v-1.263h1.774v7.761c0 .653-.155 1.193-.467 1.621s-.737.747-1.278.96-1.153.318-1.839.318zm.015-4.544c.381 0 .706-.093.974-.278s.473-.452.612-.8.209-.766.209-1.253c0-.481-.07-.901-.209-1.263s-.338-.641-.607-.84-.591-.303-.979-.303c-.401 0-.736.104-1.004.313s-.471.495-.607.86-.204.772-.204 1.233c0 .467.068.877.204 1.228s.343.62.611.815.605.288 1 .288zm17.681-5.225h-1.859c-.053-.305-.151-.575-.293-.81a2.19 2.19 0 0 0-.532-.607c-.213-.166-.454-.29-.726-.373s-.559-.129-.87-.129c-.554 0-1.044.139-1.472.418s-.762.68-1.004 1.213-.363 1.178-.363 1.944c0 .779.121 1.435.363 1.969s.58.931 1.004 1.203.917.403 1.467.403a2.96 2.96 0 0 0 .855-.119c.268-.083.509-.204.721-.363a2.14 2.14 0 0 0 .542-.587 2.21 2.21 0 0 0 .308-.796l1.859.01a3.99 3.99 0 0 1-.452 1.362c-.229.424-.529.799-.9 1.124a4.14 4.14 0 0 1-1.303.756c-.497.179-1.049.269-1.655.269-.895 0-1.694-.207-2.396-.621s-1.257-1.013-1.661-1.795-.606-1.72-.606-2.814.203-2.035.611-2.814.963-1.38 1.666-1.795 1.498-.621 2.386-.621c.567 0 1.094.08 1.581.239a4.05 4.05 0 0 1 1.302.701c.382.305.695.68.94 1.124s.411.945.487 1.511zm4.941 6.895c-.746 0-1.392-.164-1.939-.492s-.971-.787-1.273-1.377-.447-1.279-.447-2.068.149-1.48.447-2.073.726-1.054 1.273-1.382 1.193-.492 1.939-.492 1.392.164 1.939.492.969.789 1.267 1.382.453 1.284.453 2.073-.151 1.478-.453 2.068-.72 1.049-1.267 1.377-1.194.492-1.939.492zm.01-1.442c.404 0 .742-.111 1.014-.333s.474-.527.606-.905.204-.799.204-1.263-.068-.89-.204-1.268-.334-.684-.606-.91-.61-.338-1.014-.338c-.415 0-.759.113-1.034.338s-.476.529-.612.91-.199.8-.199 1.268a3.81 3.81 0 0 0 .199 1.263c.136.378.34.679.612.905s.619.333 1.034.333zm11.212-4.325l-1.641.179a1.31 1.31 0 0 0-.243-.467c-.113-.146-.266-.264-.458-.353s-.427-.134-.706-.134c-.374 0-.689.081-.944.244s-.376.373-.373.631c-.003.222.078.403.243.542s.448.254.836.343l1.302.278c.723.156 1.26.403 1.611.741s.534.781.537 1.327a2.07 2.07 0 0 1-.423 1.273c-.275.365-.658.65-1.148.855s-1.054.308-1.69.308c-.935 0-1.687-.195-2.258-.587s-.909-.943-1.019-1.646l1.755-.169c.08.345.249.605.507.78s.595.264 1.01.264c.427 0 .77-.088 1.029-.264s.392-.393.392-.651c0-.219-.084-.399-.253-.542s-.424-.252-.776-.328l-1.302-.273c-.733-.152-1.275-.409-1.626-.771s-.525-.825-.522-1.382c-.003-.471.124-.878.383-1.223s.625-.617 1.089-.805 1.006-.288 1.615-.288c.895 0 1.6.191 2.113.572s.837.897.96 1.546zm5.461-2.018v1.392h-4.39v-1.392h4.39zm-3.306-1.83h1.8v7.169c0 .242.036.428.109.557a.59.59 0 0 0 .298.259c.123.046.259.07.408.07.113 0 .216-.008.308-.025l.219-.045.303 1.407c-.096.033-.233.07-.412.109s-.391.063-.647.07c-.45.013-.856-.055-1.218-.204s-.648-.388-.86-.706-.311-.716-.308-1.193v-7.467z" class="B"/><path stroke="#bec9d0" stroke-dasharray="2 2" d="M163.5 63v139"/></g><defs><filter id="B" x="7" y="18" width="313" height="216" filterUnits="userSpaceOnUse" color-interpolation-filters="sRGB"><feFlood flood-opacity="0" result="A"/><feColorMatrix in="SourceAlpha" values="0 0 0 0 0 0 0 0 0 0 0 0 0 0 0 0 0 0 127 0" result="B"/><feOffset/><feGaussianBlur stdDeviation="6"/><feComposite in2="B" operator="out"/><feColorMatrix values="0 0 0 0 0 0 0 0 0 0 0 0 0 0 0 0 0 0 0.05 0"/><feBlend in2="A"/><feBlend in="SourceGraphic"/></filter><radialGradient id="C" cx="0" cy="0" r="1" gradientUnits="userSpaceOnUse" gradientTransform="translate(81.6991 66.6749) rotate(49.7265) scale(23.382 130.041)"><stop stop-color="#b67cff"/><stop offset=".617" stop-color="#878bfc"/><stop offset="1" stop-color="#526eff"/></radialGradient><path id="D" d="M54 111v9.67l-5-2.54 5-7.13z"/><path id="E" d="M54 121.483V125l-5-6.055 5 2.538z"/><path id="F" d="M54 157.483V161l-5-6.055 5 2.538z"/><path id="G" d="M54 193.483V197l-5-6.055 5 2.538z"/><path id="H" d="M126 125v-3.517l5-2.538-5 6.055z"/></defs></svg>