<svg xmlns="http://www.w3.org/2000/svg" xmlns:xlink="http://www.w3.org/1999/xlink" width="325" height="209" fill="none" xmlns:v="https://vecta.io/nano"><rect opacity=".8" width="325" height="209" rx="16" fill="#fff" fill-opacity=".5"/><mask id="A" maskUnits="userSpaceOnUse" x="0" y="0" width="325" height="209" mask-type="alpha"><rect width="325" height="209" rx="16" fill="#25273d"/></mask><g mask="url(#A)"><path opacity=".1" transform="rotate(270 167 263)" fill="url(#B)" d="M167 263h209v68H167z"/><path opacity=".1" d="M201 222c-18.778 0-34-15.222-34-34V55h68v133c0 18.778-15.222 34-34 34z" fill="url(#C)"/><path opacity=".1" d="M201 193c-18.778 0-34-15.222-34-34V55h68v104c0 18.778-15.222 34-34 34z" fill="url(#D)"/><path opacity=".1" d="M201 163c-18.778 0-34-15.222-34-34V55h68v74c0 18.778-15.222 34-34 34z" fill="url(#E)"/><path opacity=".1" d="M201 133c-18.778 0-34-15.222-34-34V55h68v44c0 18.778-15.222 34-34 34z" fill="url(#F)"/><path d="M201 91c18.778 0 34-15.222 34-34s-15.222-34-34-34-34 15.222-34 34 15.222 34 34 34z" fill="url(#G)"/><path d="M201 36.6v28.18l-13.6-7.401L201 36.6z" fill="#fff"/><path d="M201 36.6l13.6 20.778L201 64.78V36.6zm0 30.552V77.4l-13.6-17.646 13.6 7.398z" fill="#fff"/><path d="M201 77.4V67.152l13.6-7.398L201 77.4z" fill="#fff"/><path opacity=".2" transform="rotate(270 13 327)" fill="url(#H)" d="M13 327h221v68H13z"/><path opacity=".1" d="M47 281c-18.778 0-34-15.222-34-34V108h68v139c0 18.778-15.222 34-34 34z" fill="url(#I)"/><path opacity=".1" d="M47 246c-18.778 0-34-15.222-34-34V108h68v104c0 18.778-15.222 34-34 34z" fill="url(#J)"/><path opacity=".1" d="M47 212c-18.778 0-34-15.222-34-34v-72h68v72c0 18.778-15.222 34-34 34z" fill="url(#K)"/><path opacity=".1" d="M47 178c-18.778 0-34-15.222-34-34v-38h68v38c0 18.778-15.222 34-34 34z" fill="url(#L)"/><path d="M47 139c18.778 0 34-15.222 34-34S65.778 71 47 71s-34 15.222-34 34 15.222 34 34 34z" fill="url(#M)"/><path d="M47 84.6v28.18l-13.6-7.402L47 84.6z" fill="#fff"/><path d="M47 84.6l13.6 20.778L47 112.78V84.6zm0 30.552V125.4l-13.6-17.646 13.6 7.398z" fill="#fff"/><path d="M47 125.4v-10.248l13.6-7.398L47 125.4z" fill="#fff"/><path transform="rotate(90 158 146)" fill="url(#N)" d="M158 146h319v68H158z"/><path opacity=".05" d="M124 321c18.778 0 34-15.222 34-34V148H90v139c0 18.778 15.222 34 34 34z" fill="url(#O)"/><path opacity=".05" d="M124 286c18.778 0 34-15.222 34-34V148H90v104c0 18.778 15.222 34 34 34z" fill="url(#P)"/><path opacity=".05" d="M124 252c18.778 0 34-15.222 34-34v-70H90v70c0 18.778 15.222 34 34 34z" fill="url(#Q)"/><path opacity=".05" d="M124 218c18.778 0 34-15.222 34-34v-38H90v38c0 18.778 15.222 34 34 34z" fill="url(#R)"/><path d="M124 179c18.778 0 34-15.222 34-34s-15.222-34-34-34-34 15.222-34 34 15.222 34 34 34z" fill="url(#S)"/><path fill-rule="evenodd" d="M135.528 139.328l-11.819-18.456-11.819 18.456 11.818 6.873 11.82-6.873zm-11.819-13.679l-8.201 12.807 8.2 4.768 8.202-4.768-8.201-12.807zm-13.727 16.637l13.712 7.972 13.715-7.972.376.584a16.7 16.7 0 0 1 2.603 8.426 16.69 16.69 0 0 1-2.051 8.577c-1.44 2.624-3.558 4.812-6.133 6.337s-5.514 2.328-8.506 2.328a16.7 16.7 0 0 1-14.64-8.665 16.7 16.7 0 0 1-2.051-8.577c.097-2.991.997-5.901 2.604-8.426l.371-.584z" fill="#fff"/><path opacity=".1" d="M278 288c-18.778 0-34-15.222-34-34V115h68v139c0 18.778-15.222 34-34 34z" fill="url(#T)"/><path opacity=".1" d="M278 219c-18.778 0-34-15.222-34-34v-70h68v70c0 18.778-15.222 34-34 34z" fill="url(#U)"/><path opacity=".1" d="M278 185c-18.778 0-34-15.222-34-34v-38h68v38c0 18.778-15.222 34-34 34z" fill="url(#V)"/><circle cx="278" cy="113" r="34" fill="url(#W)"/><path fill-rule="evenodd" d="M284.204 109.03c-.967 3.607-6.488 1.657-8.279 1.177l1.702-6.354c1.792.48 7.582 1.426 6.577 5.177zm-1.171 10.259c-1.056 3.944-7.693 1.683-9.845 1.106l1.875-6.998c2.151.583 9.074 1.775 7.97 5.892zm7.474-10.097c.648-3.86-2.26-5.993-6.263-7.477l1.39-5.189-3.174-.85-1.363 5.086-2.545-.65 1.371-5.116-3.156-.846-1.398 5.218-2.02-.541-4.413-1.182-.91 3.397 2.309.618a1.7 1.7 0 0 1 1.429 1.878l-3.828 14.29c-.205.609-.864.937-1.474.733.022.044-2.319-.622-2.319-.622l-1.648 3.624 4.136 1.109 2.273.608-1.421 5.303 3.174.85 1.4-5.224 2.537.68-1.394 5.2 3.181.852 1.404-5.242c5.45 1.112 9.543.791 11.357-4.103 1.461-3.938.045-6.25-2.796-7.791 2.097-.444 3.7-1.786 4.161-4.613z" fill="#fff"/></g><defs><linearGradient id="B" x1="207.519" y1="279.15" x2="240.323" y2="375.171" xlink:href="#X"><stop stop-color="#f75e18"/><stop offset="1" stop-color="#f39c74"/></linearGradient><linearGradient id="C" x1="183.15" y1="189.623" x2="273.806" y2="150.864" xlink:href="#X"><stop stop-color="#f75e18"/><stop offset="1" stop-color="#f39c74"/></linearGradient><linearGradient id="D" x1="183.15" y1="166.246" x2="267.735" y2="122.482" xlink:href="#X"><stop stop-color="#f75e18"/><stop offset="1" stop-color="#f39c74"/></linearGradient><linearGradient id="E" x1="183.15" y1="142.062" x2="257.766" y2="92.733" xlink:href="#X"><stop stop-color="#f75e18"/><stop offset="1" stop-color="#f39c74"/></linearGradient><linearGradient id="F" x1="183.15" y1="117.878" x2="241.492" y2="64.473" xlink:href="#X"><stop stop-color="#f75e18"/><stop offset="1" stop-color="#f39c74"/></linearGradient><linearGradient id="G" x1="180.183" y1="39.15" x2="233.733" y2="90.15" xlink:href="#X"><stop stop-color="#f75e18"/><stop offset="1" stop-color="#f39c74"/></linearGradient><linearGradient id="H" x1="20.843" y1="361.001" x2="66.571" y2="477.301" xlink:href="#X"><stop stop-color="#6580eb"/><stop offset="1" stop-color="#8ea2f2"/></linearGradient><linearGradient id="I" x1="47.001" y1="274.861" x2="154.229" y2="221.002" xlink:href="#X"><stop stop-color="#6580eb"/><stop offset="1" stop-color="#8ea2f2"/></linearGradient><linearGradient id="J" x1="47.001" y1="241.103" x2="143.157" y2="180.556" xlink:href="#X"><stop stop-color="#6580eb"/><stop offset="1" stop-color="#8ea2f2"/></linearGradient><linearGradient id="K" x1="47.001" y1="208.238" x2="127.312" y2="142.403" xlink:href="#X"><stop stop-color="#6580eb"/><stop offset="1" stop-color="#8ea2f2"/></linearGradient><linearGradient id="L" x1="47.001" y1="175.445" x2="101.663" y2="109.475" xlink:href="#X"><stop stop-color="#6580eb"/><stop offset="1" stop-color="#8ea2f2"/></linearGradient><linearGradient id="M" x1="15.413" y1="105.001" x2="80.584" y2="156.001" xlink:href="#X"><stop stop-color="#6580eb"/><stop offset="1" stop-color="#8ea2f2"/></linearGradient><linearGradient id="N" x1="158" y1="146" x2="165.716" y2="239.648" xlink:href="#X"><stop stop-color="#e2f7f9"/><stop offset="1" stop-color="#d3f3f5"/></linearGradient><linearGradient id="O" x1="148.226" y1="289.644" x2="77.084" y2="268.851" xlink:href="#X"><stop stop-color="#00a3ff"/><stop offset="1" stop-color="#0b91dd"/></linearGradient><linearGradient id="P" x1="148.226" y1="260.987" x2="80.147" y2="236.043" xlink:href="#X"><stop stop-color="#00a3ff"/><stop offset="1" stop-color="#0b91dd"/></linearGradient><linearGradient id="Q" x1="148.226" y1="233.15" x2="85.77" y2="202.784" xlink:href="#X"><stop stop-color="#00a3ff"/><stop offset="1" stop-color="#0b91dd"/></linearGradient><linearGradient id="R" x1="148.226" y1="204.95" x2="96.512" y2="168.632" xlink:href="#X"><stop stop-color="#00a3ff"/><stop offset="1" stop-color="#0b91dd"/></linearGradient><linearGradient id="S" x1="102.325" y1="120.774" x2="139.3" y2="170.499" xlink:href="#X"><stop stop-color="#00a3ff"/><stop offset="1" stop-color="#0b91dd"/></linearGradient><linearGradient id="T" x1="234.367" y1="201.5" x2="319.14" y2="201.5" xlink:href="#X"><stop stop-color="#f9a606"/><stop offset="1" stop-color="#fbcc5f"/></linearGradient><linearGradient id="U" x1="234.367" y1="167" x2="319.14" y2="167" xlink:href="#X"><stop stop-color="#f9a606"/><stop offset="1" stop-color="#fbcc5f"/></linearGradient><linearGradient id="V" x1="234.367" y1="149" x2="319.14" y2="149" xlink:href="#X"><stop stop-color="#f9a606"/><stop offset="1" stop-color="#fbcc5f"/></linearGradient><linearGradient id="W" x1="244" y1="79" x2="288.296" y2="148.96" xlink:href="#X"><stop stop-color="#f48702"/><stop offset="1" stop-color="#fcbd71"/></linearGradient><linearGradient id="X" gradientUnits="userSpaceOnUse"/></defs></svg>