<svg xmlns="http://www.w3.org/2000/svg" xmlns:xlink="http://www.w3.org/1999/xlink" width="325" height="237" fill="none" xmlns:v="https://vecta.io/nano"><style><![CDATA[.B{fill:#787a9b}.C{color-interpolation-filters:sRGB}.D{flood-opacity:0}.E{fill-rule:evenodd}]]></style><rect opacity=".5" width="325" height="237" rx="16" fill="#fff"/><mask id="A" maskUnits="userSpaceOnUse" x="0" y="0" width="325" height="237" mask-type="alpha"><rect width="325" height="237" rx="16" fill="#fff"/></mask><g mask="url(#A)"><g filter="url(#B)"><rect x="30" y="47" width="266" height="251" rx="16" fill="#fff"/></g><g filter="url(#C)"><path d="M139.886 21.198c.322-1.192 1.541-1.858 2.739-1.56 4.221 1.048 13.809 3.228 20.533 3.228s16.311-2.18 20.532-3.228c1.198-.298 2.417.369 2.739 1.56 1.765 6.54 6.357 26.682-.605 37.563-5.032 7.865-18.25 14.251-21.786 15.857-.566.257-1.194.257-1.761 0-3.536-1.606-16.753-7.992-21.786-15.857-6.962-10.882-2.369-31.023-.605-37.563z" fill="#f46161"/></g><g filter="url(#D)" class="E"><path d="M192.837 38.114c.51 7.376-.003 16.087-4.11 22.505-2.938 4.593-8.038 8.486-12.509 11.327-4.563 2.9-8.911 4.973-10.755 5.81a5.55 5.55 0 0 1-4.611 0c-1.844-.837-6.192-2.91-10.755-5.81-4.471-2.841-9.571-6.735-12.509-11.327-4.106-6.418-4.62-15.129-4.11-22.505.52-7.529 2.171-14.441 3.081-17.814.843-3.124 4.002-4.726 6.897-4.007 4.258 1.058 13.457 3.127 19.702 3.127s15.443-2.069 19.701-3.127c2.896-.719 6.055.884 6.898 4.007.909 3.372 2.56 10.285 3.08 17.814zm-50.212-18.476c-1.197-.298-2.417.369-2.739 1.56-1.764 6.54-6.357 26.682.605 37.563 5.033 7.865 18.25 14.251 21.786 15.857.567.257 1.195.257 1.761 0 3.536-1.606 16.754-7.992 21.786-15.857 6.962-10.882 2.37-31.023.605-37.563-.322-1.192-1.541-1.858-2.739-1.56-4.221 1.048-13.808 3.228-20.532 3.228s-16.312-2.18-20.533-3.228z" fill="#ffb5b5"/></g><path d="M171.408 38.784a2.01 2.01 0 0 1 .317 2.826l-8.638 10.823a2.01 2.01 0 0 1-3.078.077l-4.319-4.888a2.01 2.01 0 1 1 3.013-2.663l2.734 3.094 7.146-8.952a2.01 2.01 0 0 1 2.825-.317z" fill="#fff" class="E"/><rect x="46" y="222" width="234" height="4" rx="2" fill="#ededff"/><rect x="46" y="222" width="129" height="4" rx="2" fill="url(#E)"/><circle cx="175" cy="224" r="6" fill="#25273d"/><path d="M48.6 168.688c.576.128.912.344.912.776 0 .488-.424.776-1.064.776-.632 0-1.048-.368-1.176-.984l-.952.136c.184 1.104 1 1.688 2.144 1.688 1.184 0 2.152-.624 2.152-1.672 0-.872-.512-1.376-1.68-1.64l-.648-.144c-.52-.12-.792-.344-.792-.736 0-.408.336-.712.968-.712.672 0 1.016.424 1.064.968l.968-.144c-.096-1.088-.992-1.664-2.04-1.664-.992 0-2.008.528-2.008 1.632 0 .984.728 1.4 1.632 1.6l.52.12zm2.545-.912h.608v2.048c0 .8.456 1.264 1.224 1.264a1.77 1.77 0 0 0 .552-.088v-.712c-.072.016-.144.024-.232.024-.352 0-.576-.16-.576-.608v-1.928h.824v-.768h-.824v-1.048h-.968v1.048h-.608v.768zm5.152 3.304c1.248 0 2.072-.952 2.072-2.072s-.832-2.08-2.072-2.08c-1.256 0-2.072.952-2.072 2.08 0 1.12.816 2.072 2.072 2.072zm0-.88c-.592 0-1.112-.44-1.112-1.192 0-.76.52-1.2 1.112-1.2.584 0 1.104.44 1.104 1.2 0 .752-.52 1.192-1.104 1.192zm5.111-3.28c-.568 0-1.048.256-1.32.696V167h-.96v5.608h.96v-2.216c.272.44.744.688 1.32.688 1.04 0 1.864-.824 1.864-2.08 0-1.248-.824-2.08-1.864-2.08zm-.224 3.296c-.592 0-1.08-.456-1.08-1.216 0-.752.488-1.208 1.08-1.208s1.08.456 1.08 1.208c0 .76-.488 1.216-1.08 1.216zm5.626-2.256h-2.688v.776h2.688v-.776zm1.124 3.048h3.656v-.824h-2.696V165.4h-.96v5.608zm6.167.072c1.248 0 2.072-.952 2.072-2.072s-.832-2.08-2.072-2.08c-1.256 0-2.072.952-2.072 2.08 0 1.12.816 2.072 2.072 2.072zm0-.88c-.592 0-1.112-.44-1.112-1.192 0-.76.52-1.2 1.112-1.2.584 0 1.104.44 1.104 1.2 0 .752-.52 1.192-1.104 1.192zm4.615-1.552l-.512-.096c-.248-.056-.48-.176-.48-.44 0-.28.264-.432.584-.432.368 0 .608.216.656.592l.904-.16c-.112-.744-.688-1.192-1.52-1.192-.816 0-1.552.432-1.552 1.216 0 .648.48 1.032 1.208 1.208l.472.104c.232.056.52.168.52.44 0 .264-.248.448-.64.448-.376 0-.672-.208-.728-.6l-.896.16c.12.744.792 1.184 1.624 1.184.904 0 1.624-.448 1.624-1.232 0-.656-.496-1.024-1.264-1.2zm3.805 0l-.512-.096c-.248-.056-.48-.176-.48-.44 0-.28.264-.432.584-.432.368 0 .608.216.656.592l.904-.16c-.112-.744-.688-1.192-1.52-1.192-.816 0-1.552.432-1.552 1.216 0 .648.48 1.032 1.208 1.208l.472.104c.232.056.52.168.52.44 0 .264-.248.448-.64.448-.376 0-.672-.208-.728-.6l-.896.16c.12.744.792 1.184 1.624 1.184.904 0 1.624-.448 1.624-1.232 0-.656-.496-1.024-1.264-1.2zm3.378-.448c0 1.56 1.112 2.88 2.848 2.88 1.272 0 2.192-.712 2.544-1.712l-.96-.272c-.24.696-.824 1.096-1.584 1.096-1.008 0-1.84-.76-1.84-1.984 0-1.232.832-1.992 1.84-1.992.76 0 1.344.4 1.584 1.096l.952-.272c-.352-.992-1.272-1.712-2.536-1.712-1.736 0-2.856 1.32-2.856 2.88l.008-.008zm7.983 2.88c1.248 0 2.072-.952 2.072-2.072s-.832-2.08-2.072-2.08c-1.256 0-2.072.952-2.072 2.08 0 1.12.816 2.072 2.072 2.072zm0-.88c-.592 0-1.112-.44-1.112-1.192 0-.76.52-1.2 1.112-1.2.584 0 1.104.44 1.104 1.2 0 .752-.52 1.192-1.104 1.192zm2.911-5.28v6.088h.96v-6.088h-.96zm2.078 0v6.088h.96v-6.088h-.96zm4.983 2.08v.616c-.28-.44-.752-.688-1.32-.688-1.048 0-1.864.824-1.864 2.072 0 1.256.816 2.08 1.864 2.08.568 0 1.04-.248 1.32-.688v.616h.96V167h-.96zm-1.104 3.216c-.592 0-1.072-.456-1.072-1.216 0-.752.48-1.208 1.072-1.208s1.08.456 1.08 1.208c0 .76-.488 1.216-1.08 1.216zm2.832-2.44h.608v2.048c0 .8.456 1.264 1.224 1.264a1.77 1.77 0 0 0 .552-.088v-.712c-.072.016-.144.024-.232.024-.352 0-.576-.16-.576-.608v-1.928h.824v-.768h-.824v-1.048h-.968v1.048h-.608v.768zm3.08 1.224c0 1.128.792 2.08 2.04 2.08.928 0 1.52-.528 1.76-1.136l-.808-.248c-.144.328-.456.584-.952.584-.6 0-1.016-.416-1.056-1.032h2.944c.144-1.256-.672-2.32-1.952-2.32-1.248 0-1.976.952-1.976 2.072zm.984-.376c.048-.504.416-.92.992-.92s.936.416.984.92h-1.976zm3.731 2.384V167h.96v.688c.208-.512.632-.848 1.36-.688v.872c-.744-.152-1.36.12-1.36.976v2.16h-.96zm5.906-4.008v.616c-.28-.44-.752-.688-1.32-.688-1.048 0-1.864.824-1.864 2.072 0 1.256.816 2.08 1.864 2.08.568 0 1.04-.248 1.32-.688v.616h.96V167h-.96zm-1.104 3.216c-.592 0-1.072-.456-1.072-1.216 0-.752.48-1.208 1.072-1.208s1.08.456 1.08 1.208c0 .76-.488 1.216-1.08 1.216zm3.193-5.296v6.088h.96v-6.088h-.96zm3.515 6.088h.96v-2.096h.816l1.232 2.088h1.032l-1.328-2.256c.768-.248 1.232-.832 1.232-1.584 0-1.008-.808-1.76-2.112-1.76h-1.84l.008 5.608zm.96-2.92v-1.856h.872c.728 0 1.144.344 1.144.928 0 .576-.416.928-1.144.928h-.872zM132.8 167v.616c-.28-.44-.752-.688-1.32-.688-1.048 0-1.864.824-1.864 2.072 0 1.256.816 2.08 1.864 2.08.568 0 1.04-.248 1.32-.688v.616h.96V167h-.96zm-1.104 3.216c-.592 0-1.072-.456-1.072-1.216 0-.752.48-1.208 1.072-1.208s1.08.456 1.08 1.208c0 .76-.488 1.216-1.08 1.216zm2.832-2.44h.608v2.048c0 .8.456 1.264 1.224 1.264a1.77 1.77 0 0 0 .552-.088v-.712c-.072.016-.144.024-.232.024-.352 0-.576-.16-.576-.608v-1.928h.824v-.768h-.824v-1.048h-.968v1.048h-.608v.768zm3.952-1.456c.328 0 .592-.272.592-.6a.59.59 0 1 0-1.184 0c0 .328.264.6.592.6zm-.488.68v4.008h.96V167h-.96zm4.001 4.08c1.248 0 2.072-.952 2.072-2.072s-.832-2.08-2.072-2.08c-1.256 0-2.072.952-2.072 2.08 0 1.12.816 2.072 2.072 2.072zm0-.88c-.592 0-1.112-.44-1.112-1.192 0-.76.52-1.2 1.112-1.2.584 0 1.104.44 1.104 1.2 0 .752-.52 1.192-1.104 1.192z" class="B"/><path d="M47.12 193h7.728v-1.552H49.44c.16-.784.736-1.232 1.344-1.664l1.504-1.04c1.28-.896 2.416-1.808 2.416-3.328 0-2.016-1.696-3.104-3.504-3.104-1.824 0-3.824 1.072-3.632 3.504h1.904c-.112-1.12.624-1.824 1.664-1.824 1.024 0 1.6.656 1.6 1.424 0 .784-.496 1.312-1.328 1.856l-1.488.976c-1.952 1.296-2.8 2.56-2.816 4.752h.016zm9.173-7.28h2.096v7.296h1.936V182.44h-1.472c-.176 1.168-.752 1.904-2.56 1.968v1.312zm5.625-1.696h5.6c-1.872 2.192-3.504 4.784-3.44 8.976h1.92c-.064-4.432 1.856-7.136 3.76-9.12v-1.408h-7.84v1.552zm12.221 3.808c1.68 0 2.768-1.264 2.768-2.768 0-1.488-1.104-2.768-2.768-2.768-1.68 0-2.768 1.264-2.768 2.768 0 1.488 1.088 2.768 2.768 2.768zm-.688 5.184h1.728l7.152-10.56h-1.712l-7.168 10.56zm.688-6.416c-.784 0-1.424-.576-1.424-1.536 0-.976.64-1.536 1.424-1.536s1.408.56 1.408 1.536c0 .96-.624 1.536-1.408 1.536zm7.536 6.56c1.664 0 2.768-1.264 2.768-2.768 0-1.488-1.104-2.768-2.768-2.768-1.68 0-2.784 1.28-2.784 2.768 0 1.504 1.104 2.768 2.784 2.768zm0-1.232c-.8 0-1.424-.56-1.424-1.536 0-.96.624-1.536 1.424-1.536.784 0 1.408.576 1.408 1.536 0 .976-.624 1.536-1.408 1.536zm143.124-1.936c0-1.472-.8-2.576-3.008-3.072l-.464-.112v-2.896c.88.176 1.392.832 1.488 1.712l1.808-.272c-.224-1.872-1.536-2.896-3.296-3.04v-1.456h-.928v1.456c-1.68.144-3.296 1.152-3.296 3.072 0 1.68 1.168 2.576 2.96 2.976l.336.08v3.104c-.912-.144-1.6-.736-1.776-1.824l-1.776.288c.336 1.936 1.648 2.976 3.552 3.136v1.456h.928v-1.44c1.984-.144 3.472-1.296 3.472-3.168zm-5.808-4.752c0-.752.56-1.216 1.408-1.344v2.704c-.848-.208-1.408-.592-1.408-1.36zm2.336 6.32v-2.912c.96.24 1.6.656 1.6 1.472 0 .848-.704 1.328-1.6 1.44zm5.242-5.52c0 1.92 1.472 3.536 3.696 3.536 1.184 0 2.032-.608 2.496-1.392-.016.16-.064.304-.096.448-.464 2.736-3.072 3.424-5.2 2.512l-.48 1.536c3.728 1.504 7.808-.576 7.808-5.504 0-2.096-1.152-4.864-4.24-4.864-2.432 0-3.984 1.824-3.984 3.728zm1.968-.048c0-1.232.928-2.048 2.016-2.048 1.104 0 2.032.816 2.032 2.048s-.928 2.048-2.032 2.048c-1.088 0-2.016-.816-2.016-2.048zm14.013 1.424c.944-.496 1.456-1.312 1.456-2.208 0-1.536-1.312-2.912-3.568-2.912-2.272 0-3.568 1.376-3.568 2.912 0 .896.512 1.712 1.44 2.208-1.12.496-1.76 1.424-1.76 2.512 0 1.664 1.408 3.232 3.888 3.232s3.888-1.568 3.888-3.232c0-1.088-.656-2.016-1.776-2.512zm-2.112-3.536c.928 0 1.696.512 1.696 1.44 0 .912-.768 1.44-1.696 1.44s-1.696-.528-1.696-1.44c0-.928.768-1.44 1.696-1.44zm0 7.68c-1.072 0-1.952-.608-1.952-1.68s.88-1.68 1.952-1.68 1.952.608 1.952 1.68-.88 1.68-1.952 1.68zm9.839 1.6c2.816 0 4.352-2.448 4.352-5.424s-1.552-5.44-4.352-5.44-4.336 2.448-4.336 5.44c0 2.976 1.536 5.424 4.336 5.424zm0-1.664c-1.44 0-2.416-1.312-2.416-3.76 0-2.464.976-3.776 2.416-3.776s2.432 1.312 2.432 3.776c0 2.448-.976 3.76-2.432 3.76zm7.449 1.664a1.184 1.184 0 1 0 0-2.368 1.184 1.184 0 1 0 0 2.368zm3.281-7.12c0 1.92 1.472 3.536 3.696 3.536 1.184 0 2.032-.608 2.496-1.392-.016.16-.064.304-.096.448-.464 2.736-3.072 3.424-5.2 2.512l-.48 1.536c3.728 1.504 7.808-.576 7.808-5.504 0-2.096-1.152-4.864-4.24-4.864-2.432 0-3.984 1.824-3.984 3.728zm1.968-.048c0-1.232.928-2.048 2.016-2.048 1.104 0 2.032.816 2.032 2.048s-.928 2.048-2.032 2.048c-1.088 0-2.016-.816-2.016-2.048zm8.333 7.008h7.728v-1.552h-5.408c.16-.784.736-1.232 1.344-1.664l1.504-1.04c1.28-.896 2.416-1.808 2.416-3.328 0-2.016-1.696-3.104-3.504-3.104-1.824 0-3.824 1.072-3.632 3.504h1.904c-.112-1.12.624-1.824 1.664-1.824 1.024 0 1.6.656 1.6 1.424 0 .784-.496 1.312-1.328 1.856l-1.488.976c-1.952 1.296-2.8 2.56-2.816 4.752h.016z" fill="#000"/><path d="M226.56 171.008h1.552c1.88 0 2.976-1.24 2.976-2.808 0-1.544-1.096-2.792-2.976-2.8h-1.552v5.608zm.96-.848v-3.904h.592c1.176 0 1.928.736 1.928 1.952 0 1.208-.752 1.944-1.928 1.944l-.592.008zm4.132-3.16l1.64 3.816-.72 1.784h.92l2.296-5.6h-.968l-1.072 2.664L232.66 167h-1.008zm4.734 4.008V167h.96v.576c.208-.384.592-.656 1.16-.656.984 0 1.488.68 1.488 1.672v2.416h-.96v-2.272c0-.6-.272-.976-.816-.976s-.872.376-.872.976v2.272h-.96zm7.476-4.008v.616c-.28-.44-.752-.688-1.32-.688-1.048 0-1.864.824-1.864 2.072 0 1.256.816 2.08 1.864 2.08.568 0 1.04-.248 1.32-.688v.616h.96V167h-.96zm-1.104 3.216c-.592 0-1.072-.456-1.072-1.216 0-.752.48-1.208 1.072-1.208s1.08.456 1.08 1.208c0 .76-.488 1.216-1.08 1.216zm3.113.784v-4h.96v.512c.2-.352.552-.592 1.072-.592.616 0 1.016.28 1.224.728.208-.44.616-.728 1.256-.728.952 0 1.408.656 1.408 1.624V171h-.96v-2.312c-.008-.576-.24-.928-.728-.928-.496 0-.792.352-.792.928V171h-.96v-2.312c-.008-.576-.24-.928-.728-.928-.496 0-.792.352-.792.928V171h-.96zm7.476-4.68c.328 0 .592-.272.592-.6a.59.59 0 1 0-1.184 0c0 .328.264.6.592.6zm-.488.68v4.008h.96V167h-.96zm1.929 2c0 1.128.816 2.08 2.072 2.08.928 0 1.584-.528 1.808-1.216l-.856-.264c-.168.384-.52.6-.952.6-.592 0-1.112-.44-1.112-1.2 0-.752.52-1.192 1.112-1.192.432 0 .784.216.952.6l.856-.264c-.224-.688-.888-1.216-1.808-1.216-1.256 0-2.072.952-2.072 2.072zm6.163 2.008h.96v-2.096h.88c1.288-.008 2.104-.752 2.104-1.752 0-1.008-.808-1.76-2.104-1.76h-1.84v5.608zm.96-2.92v-1.856h.88c.72 0 1.136.344 1.136.928 0 .576-.416.928-1.136.928h-.88zm3.741 2.92V167h.96v.688c.208-.512.632-.848 1.36-.688v.872c-.744-.152-1.36.12-1.36.976v2.16h-.96zm3.594-4.688c.328 0 .592-.272.592-.6a.59.59 0 1 0-1.184 0c0 .328.264.6.592.6zm-.488.68v4.008h.96V167h-.96zm1.928 2c0 1.128.816 2.08 2.072 2.08.928 0 1.584-.528 1.808-1.216l-.856-.264c-.168.384-.52.6-.952.6-.592 0-1.112-.44-1.112-1.2 0-.752.52-1.192 1.112-1.192.432 0 .784.216.952.6l.856-.264c-.224-.688-.888-1.216-1.808-1.216-1.256 0-2.072.952-2.072 2.072zm4.446 0c0 1.128.792 2.08 2.04 2.08.928 0 1.52-.528 1.76-1.136l-.808-.248c-.144.328-.456.584-.952.584-.6 0-1.016-.416-1.056-1.032h2.944c.144-1.256-.672-2.32-1.952-2.32-1.248 0-1.976.952-1.976 2.072zm.984-.376c.048-.504.416-.92.992-.92s.936.416.984.92h-1.976z" class="B"/><use xlink:href="#F" class="B"/><rect x="164" y="94" width="80" height="24" rx="12" fill="#5c5ffe"/><use xlink:href="#F" x="92" fill="#fff"/><rect x="48" y="134" width="223" height="3" rx="1.5" fill="#e6e9eb"/><rect x="48" y="145" width="156" height="3" rx="1.5" fill="#e6e9eb"/></g><defs><filter id="B" x="14" y="31" width="298" height="283" filterUnits="userSpaceOnUse" class="C"><feFlood result="A" class="D"/><feColorMatrix in="SourceAlpha" values="0 0 0 0 0 0 0 0 0 0 0 0 0 0 0 0 0 0 127 0" result="B"/><feOffset/><feGaussianBlur stdDeviation="8"/><feComposite in2="B" operator="out"/><feColorMatrix values="0 0 0 0 0 0 0 0 0 0 0 0 0 0 0 0 0 0 0.05 0"/><feBlend in2="A"/><feBlend in="SourceGraphic"/></filter><filter id="C" x="128.762" y="12.567" width="68.791" height="71.244" filterUnits="userSpaceOnUse" class="C"><feFlood result="A" class="D"/><feColorMatrix in="SourceAlpha" values="0 0 0 0 0 0 0 0 0 0 0 0 0 0 0 0 0 0 127 0" result="B"/><feOffset dy="1"/><feGaussianBlur stdDeviation="4"/><feComposite in2="B" operator="out"/><feColorMatrix values="0 0 0 0 0 0 0 0 0 0 0 0 0 0 0 0 0 0 0.06 0"/><feBlend in2="A"/><feBlend in="SourceGraphic"/></filter><filter id="D" x="125.315" y="9.123" width="75.685" height="78.135" filterUnits="userSpaceOnUse" class="C"><feFlood result="A" class="D"/><feColorMatrix in="SourceAlpha" values="0 0 0 0 0 0 0 0 0 0 0 0 0 0 0 0 0 0 127 0" result="B"/><feOffset dy="1"/><feGaussianBlur stdDeviation="4"/><feComposite in2="B" operator="out"/><feColorMatrix values="0 0 0 0 0 0 0 0 0 0 0 0 0 0 0 0 0 0 0.06 0"/><feBlend in2="A"/><feBlend in="SourceGraphic"/></filter><linearGradient id="E" x1="51.5" y1="224" x2="175" y2="224" gradientUnits="userSpaceOnUse"><stop stop-color="#a4a6ff"/><stop offset="1" stop-color="#5156ff"/></linearGradient><path id="F" d="M83.5 106.5c0 1.95 1.39 3.6 3.56 3.6 1.59 0 2.74-.89 3.18-2.14l-1.2-.34c-.3.87-1.03 1.37-1.98 1.37-1.26 0-2.3-.95-2.3-2.48 0-1.54 1.04-2.49 2.3-2.49.95 0 1.68.5 1.98 1.37l1.19-.34c-.44-1.24-1.59-2.14-3.17-2.14-2.17 0-3.57 1.65-3.57 3.6l.01-.01zm7.739-4.1v7.61h1.2v-7.61h-1.2zm4.838 7.7c1.56 0 2.59-1.19 2.59-2.59s-1.04-2.6-2.59-2.6c-1.57 0-2.59 1.19-2.59 2.6 0 1.4 1.02 2.59 2.59 2.59zm0-1.1c-.74 0-1.39-.55-1.39-1.49 0-.95.65-1.5 1.39-1.5.73 0 1.38.55 1.38 1.5 0 .94-.65 1.49-1.38 1.49zm5.769-1.94l-.64-.12c-.31-.07-.6-.22-.6-.55 0-.35.33-.54.73-.54a.77.77 0 0 1 .82.74l1.13-.2c-.14-.93-.86-1.49-1.9-1.49-1.02 0-1.94.54-1.94 1.52 0 .81.6 1.29 1.51 1.51l.59.13c.29.07.65.21.65.55 0 .33-.31.56-.8.56-.47 0-.84-.26-.91-.75l-1.12.2c.15.93.99 1.48 2.03 1.48 1.13 0 2.03-.56 2.03-1.54 0-.82-.62-1.28-1.58-1.5zm2.275.44c0 1.41.99 2.6 2.55 2.6 1.16 0 1.9-.66 2.2-1.42l-1.01-.31c-.18.41-.57.73-1.19.73-.75 0-1.27-.52-1.32-1.29h3.68c.18-1.57-.84-2.9-2.44-2.9-1.56 0-2.47 1.19-2.47 2.59zm1.23-.47c.06-.63.52-1.15 1.24-1.15s1.17.52 1.23 1.15h-2.47zm6.112-1.06h.76v2.56c0 1 .57 1.58 1.53 1.58.27 0 .51-.05.69-.11v-.89a1.29 1.29 0 0 1-.29.03c-.44 0-.72-.2-.72-.76v-2.41h1.03v-.96h-1.03v-1.31h-1.21v1.31h-.76v.96zm6.44 4.13c1.56 0 2.59-1.19 2.59-2.59s-1.04-2.6-2.59-2.6c-1.57 0-2.59 1.19-2.59 2.6 0 1.4 1.02 2.59 2.59 2.59zm0-1.1c-.74 0-1.39-.55-1.39-1.49 0-.95.65-1.5 1.39-1.5.73 0 1.38.55 1.38 1.5 0 .94-.65 1.49-1.38 1.49zm5.436 1.01h1.94c2.35 0 3.72-1.55 3.72-3.51 0-1.93-1.37-3.49-3.72-3.5h-1.94v7.01zm1.2-1.06v-4.88h.74c1.47 0 2.41.92 2.41 2.44 0 1.51-.94 2.43-2.41 2.43l-.74.01zm5.165 1.06h1.31l.63-1.62h3.09l.64 1.62h1.31l-2.84-7h-1.3l-2.84 7zm2.31-2.59l1.18-2.94 1.18 2.94h-2.36zm5.582-4.42v7.01h1.2V103h-1.2z"/></defs></svg>