<svg xmlns="http://www.w3.org/2000/svg" width="325" height="237" fill="none" xmlns:v="https://vecta.io/nano"><rect opacity=".5" width="325" height="237" rx="16" fill="#fff"/><mask id="A" maskUnits="userSpaceOnUse" x="0" y="0" width="325" height="237" mask-type="alpha"><rect width="325" height="237" rx="16" fill="#fff"/></mask><g mask="url(#A)"><path fill-rule="evenodd" d="M327.996 101.649L291.998 56 256 101.649h13.361V200h44.536v-98.351h14.099z" fill="url(#B)"/><path fill-rule="evenodd" d="M101.995 48.5L53.497-13 5 48.5h18V181h60V48.5h18.995z" fill="url(#C)"/><circle cx="169" cy="119" r="76" fill="#575cfe"/><circle cx="169" cy="119" r="76" fill="url(#D)"/><g style="mix-blend-mode:overlay" opacity=".2"><circle cx="169" cy="119" r="64" fill="#000"/></g><path d="M170.46 146.601c-6.403 0-11.599-1.297-15.589-3.891-3.99-2.619-6.28-6.648-6.871-12.086l11.23-.225c.591 2.47 1.86 4.353 3.805 5.65 1.97 1.273 4.433 1.909 7.389 1.909 1.773 0 3.337-.287 4.691-.861 1.379-.599 2.463-1.397 3.251-2.395.788-1.022 1.182-2.182 1.182-3.48 0-1.995-.628-3.48-1.884-4.452-1.256-.998-3.189-1.797-5.8-2.395l-8.755-1.909c-4.063-.823-7.327-2.457-9.789-4.901-2.439-2.47-3.682-5.775-3.732-9.916-.024-3.393.875-6.324 2.697-8.794 1.847-2.495 4.347-4.415 7.499-5.763 3.177-1.347 6.736-2.021 10.676-2.021 4.039 0 7.524.736 10.455 2.208 2.955 1.447 5.221 3.405 6.797 5.875 1.601 2.444 2.377 5.151 2.328 8.119l-10.898.188c-.345-2.395-1.133-4.279-2.365-5.651s-3.275-2.058-6.132-2.058c-1.477 0-2.795.162-3.953.487s-2.154.785-2.992 1.384c-.837.574-1.477 1.26-1.921 2.058-.418.798-.628 1.697-.628 2.694 0 1.572.517 2.819 1.552 3.742 1.059.898 3.041 1.734 5.947 2.507l8.608 2.133c4.851 1.173 8.349 3.181 10.491 6.025 2.167 2.843 3.251 6.298 3.251 10.365 0 3.118-.85 5.837-2.549 8.157-1.675 2.32-4.051 4.116-7.13 5.388s-6.698 1.908-10.861 1.908zM165.843 84h9.346v9.729h-9.346V84zm-.185 59.271h9.309V153h-9.309v-9.729z" fill="#fff"/></g><defs><linearGradient id="B" x1="291.998" y1="56" x2="291.998" y2="335.835" gradientUnits="userSpaceOnUse"><stop stop-color="#d8d9fe"/><stop offset=".512" stop-color="#d8d9fe" stop-opacity="0"/></linearGradient><linearGradient id="C" x1="53.497" y1="-13" x2="53.497" y2="364" gradientUnits="userSpaceOnUse"><stop stop-color="#d8d9fe"/><stop offset=".512" stop-color="#d8d9fe" stop-opacity="0"/></linearGradient><linearGradient id="D" x1="93" y1="43" x2="238.16" y2="198.8" gradientUnits="userSpaceOnUse"><stop stop-color="#2a30ee"/><stop offset="1" stop-color="#a4a6ff"/></linearGradient></defs></svg>