
<svg width="342" height="380" viewBox="0 0 342 380" fill="none" xmlns="http://www.w3.org/2000/svg">
  <path d="M51.2349 181.307C49.2544 179.986 50.1465 176.656 52.5223 176.502C67.6182 175.525 100.096 172.262 118.238 161.788C136.379 151.314 155.444 124.819 163.838 112.234C165.159 110.254 168.488 111.146 168.642 113.521C169.619 128.617 172.882 161.095 183.356 179.237C193.83 197.378 220.325 216.443 232.91 224.837C234.891 226.158 233.999 229.488 231.623 229.641C216.527 230.618 184.049 233.881 165.908 244.355C147.766 254.829 128.701 281.324 120.307 293.909C118.986 295.89 115.657 294.998 115.503 292.622C114.526 277.526 111.263 245.048 100.789 226.907C90.3153 208.765 63.82 189.7 51.2349 181.307Z" fill="url(#paint0_linear_6103_26770)"/>
  <g filter="url(#filter0_d_6103_26770)">
    <path d="M93.1878 123.42C92.7214 121.085 95.7067 119.362 97.4953 120.933C108.86 130.917 134.133 151.575 154.367 156.997C174.601 162.418 206.817 157.164 221.652 154.201C223.986 153.734 225.71 156.72 224.139 158.508C214.155 169.873 193.497 195.146 188.075 215.38C182.653 235.614 187.907 267.83 190.871 282.664C191.337 284.999 188.352 286.723 186.563 285.151C175.198 275.168 149.926 254.51 129.691 249.088C109.457 243.666 77.2415 248.92 62.4071 251.884C60.0726 252.35 58.349 249.365 59.9202 247.576C69.904 236.211 90.5621 210.938 95.9838 190.704C101.405 170.47 96.1515 138.254 93.1878 123.42Z" fill="url(#paint1_linear_6103_26770)"/>
  </g>
  <path d="M110.156 201.794C109.032 202.188 109.032 203.931 110.156 204.325C115.557 206.22 125.253 210.099 130.131 214.977C135.008 219.854 138.888 229.551 140.783 234.952C141.177 236.075 142.92 236.075 143.314 234.952C145.209 229.551 149.088 219.854 153.966 214.977C158.843 210.099 168.54 206.22 173.941 204.325C175.064 203.931 175.064 202.188 173.941 201.794C168.54 199.899 158.843 196.019 153.966 191.142C149.088 186.264 145.209 176.568 143.314 171.167C142.92 170.043 141.177 170.043 140.783 171.167C138.888 176.568 135.008 186.264 130.131 191.142C125.253 196.019 115.557 199.899 110.156 201.794Z" fill="white"/>
  <path opacity="0.7" d="M196.381 118.279C196.16 118.354 196.16 118.692 196.381 118.766C197.784 119.241 200.772 120.373 202.223 121.823C203.673 123.273 204.804 126.262 205.279 127.665C205.354 127.885 205.691 127.885 205.766 127.665C206.241 126.262 207.373 123.273 208.823 121.823C210.273 120.373 213.262 119.241 214.665 118.766C214.885 118.691 214.885 118.354 214.665 118.279C213.262 117.804 210.273 116.673 208.823 115.223C207.373 113.772 206.241 110.784 205.766 109.381C205.691 109.16 205.354 109.16 205.279 109.381C204.804 110.784 203.673 113.772 202.223 115.223C200.772 116.673 197.784 117.804 196.381 118.279Z" fill="url(#paint2_linear_6103_26770)"/>
  <path d="M248.881 45.2793C248.66 45.354 248.66 45.6915 248.881 45.7662C250.284 46.2411 253.272 47.3727 254.723 48.8229C256.173 50.273 257.304 53.2617 257.779 54.6646C257.854 54.8853 258.191 54.8853 258.266 54.6646C258.741 53.2617 259.873 50.273 261.323 48.8229C262.773 47.3727 265.762 46.2411 267.165 45.7662C267.385 45.6915 267.385 45.354 267.165 45.2793C265.762 44.8044 262.773 43.6728 261.323 42.2227C259.873 40.7725 258.741 37.7838 258.266 36.381C258.191 36.1602 257.854 36.1602 257.779 36.381C257.304 37.7838 256.173 40.7725 254.723 42.2227C253.272 43.6728 250.284 44.8044 248.881 45.2793Z" fill="url(#paint3_linear_6103_26770)"/>
  <path d="M2.8809 123.779C2.66013 123.854 2.66013 124.192 2.8809 124.266C4.28373 124.741 7.27241 125.873 8.7226 127.323C10.1728 128.773 11.3043 131.762 11.7792 133.165C11.854 133.385 12.1914 133.385 12.2662 133.165C12.7411 131.762 13.8726 128.773 15.3228 127.323C16.773 125.873 19.7617 124.741 21.1645 124.266C21.3853 124.191 21.3853 123.854 21.1645 123.779C19.7617 123.304 16.773 122.173 15.3228 120.723C13.8726 119.272 12.7411 116.284 12.2662 114.881C12.1914 114.66 11.854 114.66 11.7792 114.881C11.3043 116.284 10.1728 119.272 8.7226 120.723C7.27241 122.173 4.28373 123.304 2.8809 123.779Z" fill="url(#paint4_linear_6103_26770)"/>
  <path d="M320.881 166.779C320.66 166.854 320.66 167.192 320.881 167.266C322.284 167.741 325.272 168.873 326.723 170.323C328.173 171.773 329.304 174.762 329.779 176.165C329.854 176.385 330.191 176.385 330.266 176.165C330.741 174.762 331.873 171.773 333.323 170.323C334.773 168.873 337.762 167.741 339.165 167.266C339.385 167.191 339.385 166.854 339.165 166.779C337.762 166.304 334.773 165.173 333.323 163.723C331.873 162.272 330.741 159.284 330.266 157.881C330.191 157.66 329.854 157.66 329.779 157.881C329.304 159.284 328.173 162.272 326.723 163.723C325.272 165.173 322.284 166.304 320.881 166.779Z" fill="url(#paint5_linear_6103_26770)"/>
  <path d="M270.254 243.185C270.107 243.235 270.107 243.46 270.254 243.51C271.189 243.826 273.182 244.58 274.148 245.547C275.115 246.514 275.87 248.507 276.186 249.442C276.236 249.589 276.461 249.589 276.511 249.442C276.827 248.507 277.582 246.514 278.549 245.547C279.515 244.58 281.508 243.826 282.443 243.51C282.59 243.46 282.59 243.235 282.443 243.185C281.508 242.868 279.515 242.114 278.549 241.147C277.582 240.18 276.827 238.188 276.511 237.253C276.461 237.105 276.236 237.105 276.186 237.253C275.87 238.188 275.115 240.18 274.148 241.147C273.182 242.114 271.189 242.868 270.254 243.185Z" fill="url(#paint6_linear_6103_26770)"/>
  <path d="M270.254 243.185C270.107 243.235 270.107 243.46 270.254 243.51C271.189 243.826 273.182 244.58 274.148 245.547C275.115 246.514 275.87 248.507 276.186 249.442C276.236 249.589 276.461 249.589 276.511 249.442C276.827 248.507 277.582 246.514 278.549 245.547C279.515 244.58 281.508 243.826 282.443 243.51C282.59 243.46 282.59 243.235 282.443 243.185C281.508 242.868 279.515 242.114 278.549 241.147C277.582 240.18 276.827 238.188 276.511 237.253C276.461 237.105 276.236 237.105 276.186 237.253C275.87 238.188 275.115 240.18 274.148 241.147C273.182 242.114 271.189 242.868 270.254 243.185Z" fill="url(#paint7_linear_6103_26770)"/>
  <path d="M9.25393 7.18488C9.10675 7.23471 9.10675 7.4597 9.25393 7.50952C10.1892 7.82611 12.1816 8.58048 13.1484 9.54727C14.1152 10.5141 14.8696 12.5065 15.1862 13.4417C15.236 13.5889 15.461 13.5889 15.5108 13.4417C15.8274 12.5065 16.5817 10.5141 17.5485 9.54727C18.5153 8.58048 20.5078 7.82611 21.443 7.50952C21.5902 7.4597 21.5902 7.23471 21.443 7.18488C20.5078 6.86829 18.5153 6.11392 17.5485 5.14713C16.5817 4.18034 15.8274 2.18789 15.5108 1.25267C15.461 1.10549 15.236 1.10549 15.1862 1.25267C14.8696 2.18789 14.1152 4.18034 13.1484 5.14713C12.1816 6.11392 10.1892 6.86829 9.25393 7.18488Z" fill="url(#paint8_linear_6103_26770)"/>
  <path d="M9.25393 7.18488C9.10675 7.23471 9.10675 7.4597 9.25393 7.50952C10.1892 7.82611 12.1816 8.58048 13.1484 9.54727C14.1152 10.5141 14.8696 12.5065 15.1862 13.4417C15.236 13.5889 15.461 13.5889 15.5108 13.4417C15.8274 12.5065 16.5817 10.5141 17.5485 9.54727C18.5153 8.58048 20.5078 7.82611 21.443 7.50952C21.5902 7.4597 21.5902 7.23471 21.443 7.18488C20.5078 6.86829 18.5153 6.11392 17.5485 5.14713C16.5817 4.18034 15.8274 2.18789 15.5108 1.25267C15.461 1.10549 15.236 1.10549 15.1862 1.25267C14.8696 2.18789 14.1152 4.18034 13.1484 5.14713C12.1816 6.11392 10.1892 6.86829 9.25393 7.18488Z" fill="url(#paint9_linear_6103_26770)"/>
  <path d="M110.254 52.1849C110.107 52.2347 110.107 52.4597 110.254 52.5095C111.189 52.8261 113.182 53.5805 114.148 54.5473C115.115 55.5141 115.87 57.5065 116.186 58.4417C116.236 58.5889 116.461 58.5889 116.511 58.4417C116.827 57.5065 117.582 55.5141 118.549 54.5473C119.515 53.5805 121.508 52.8261 122.443 52.5095C122.59 52.4597 122.59 52.2347 122.443 52.1849C121.508 51.8683 119.515 51.1139 118.549 50.1471C117.582 49.1803 116.827 47.1879 116.511 46.2527C116.461 46.1055 116.236 46.1055 116.186 46.2527C115.87 47.1879 115.115 49.1803 114.148 50.1471C113.182 51.1139 111.189 51.8683 110.254 52.1849Z" fill="url(#paint10_linear_6103_26770)"/>
  <path d="M110.254 52.1849C110.107 52.2347 110.107 52.4597 110.254 52.5095C111.189 52.8261 113.182 53.5805 114.148 54.5473C115.115 55.5141 115.87 57.5065 116.186 58.4417C116.236 58.5889 116.461 58.5889 116.511 58.4417C116.827 57.5065 117.582 55.5141 118.549 54.5473C119.515 53.5805 121.508 52.8261 122.443 52.5095C122.59 52.4597 122.59 52.2347 122.443 52.1849C121.508 51.8683 119.515 51.1139 118.549 50.1471C117.582 49.1803 116.827 47.1879 116.511 46.2527C116.461 46.1055 116.236 46.1055 116.186 46.2527C115.87 47.1879 115.115 49.1803 114.148 50.1471C113.182 51.1139 111.189 51.8683 110.254 52.1849Z" fill="url(#paint11_linear_6103_26770)"/>
  <path opacity="0.7" d="M1.8809 316.279C1.66013 316.354 1.66013 316.692 1.8809 316.766C3.28373 317.241 6.27241 318.373 7.7226 319.823C9.17279 321.273 10.3043 324.262 10.7792 325.665C10.854 325.885 11.1914 325.885 11.2662 325.665C11.7411 324.262 12.8726 321.273 14.3228 319.823C15.773 318.373 18.7617 317.241 20.1645 316.766C20.3853 316.691 20.3853 316.354 20.1645 316.279C18.7617 315.804 15.773 314.673 14.3228 313.223C12.8726 311.772 11.7411 308.784 11.2662 307.381C11.1914 307.16 10.854 307.16 10.7792 307.381C10.3043 308.784 9.17278 311.772 7.7226 313.223C6.27241 314.673 3.28373 315.804 1.8809 316.279Z" fill="url(#paint12_linear_6103_26770)"/>
  <path opacity="0.5" d="M224.881 367.779C224.66 367.854 224.66 368.192 224.881 368.266C226.284 368.741 229.272 369.873 230.723 371.323C232.173 372.773 233.304 375.762 233.779 377.165C233.854 377.385 234.191 377.385 234.266 377.165C234.741 375.762 235.873 372.773 237.323 371.323C238.773 369.873 241.762 368.741 243.165 368.266C243.385 368.191 243.385 367.854 243.165 367.779C241.762 367.304 238.773 366.173 237.323 364.723C235.873 363.272 234.741 360.284 234.266 358.881C234.191 358.66 233.854 358.66 233.779 358.881C233.304 360.284 232.173 363.272 230.723 364.723C229.272 366.173 226.284 367.304 224.881 367.779Z" fill="url(#paint13_linear_6103_26770)"/>
  <defs>
    <filter id="filter0_d_6103_26770" x="48.4809" y="109.494" width="187.097" height="187.098" filterUnits="userSpaceOnUse" color-interpolation-filters="sRGB">
      <feFlood flood-opacity="0" result="BackgroundImageFix"/>
      <feColorMatrix in="SourceAlpha" type="matrix" values="0 0 0 0 0 0 0 0 0 0 0 0 0 0 0 0 0 0 127 0" result="hardAlpha"/>
      <feOffset/>
      <feGaussianBlur stdDeviation="5.41718"/>
      <feComposite in2="hardAlpha" operator="out"/>
      <feColorMatrix type="matrix" values="0 0 0 0 0 0 0 0 0 0 0 0 0 0 0 0 0 0 0.1 0"/>
      <feBlend mode="normal" in2="BackgroundImageFix" result="effect1_dropShadow_6103_26770"/>
      <feBlend mode="normal" in="SourceGraphic" in2="effect1_dropShadow_6103_26770" result="shape"/>
    </filter>
    <linearGradient id="paint0_linear_6103_26770" x1="70.5491" y1="250.732" x2="116.584" y2="93.2964" gradientUnits="userSpaceOnUse">
      <stop stop-color="#D74C1B"/>
      <stop offset="0.248346" stop-color="#EF6636"/>
      <stop offset="0.552718" stop-color="#E7936B"/>
      <stop offset="0.977469" stop-color="#FFE5D4"/>
    </linearGradient>
    <linearGradient id="paint1_linear_6103_26770" x1="94.3841" y1="119.635" x2="228.839" y2="244.35" gradientUnits="userSpaceOnUse">
      <stop stop-color="#D74C1B"/>
      <stop offset="0.248346" stop-color="#EF6636"/>
      <stop offset="0.552718" stop-color="#E7936B"/>
      <stop offset="0.977469" stop-color="#FFE5D4"/>
    </linearGradient>
    <linearGradient id="paint2_linear_6103_26770" x1="199.967" y1="112.203" x2="200.331" y2="128.258" gradientUnits="userSpaceOnUse">
      <stop stop-color="#D74C1B"/>
      <stop offset="0.475" stop-color="#EF6636"/>
      <stop offset="1" stop-color="#E7936B"/>
    </linearGradient>
    <linearGradient id="paint3_linear_6103_26770" x1="252.467" y1="39.2032" x2="252.831" y2="55.2581" gradientUnits="userSpaceOnUse">
      <stop stop-color="#D74C1B"/>
      <stop offset="0.475" stop-color="#EF6636"/>
      <stop offset="1" stop-color="#E7936B"/>
    </linearGradient>
    <linearGradient id="paint4_linear_6103_26770" x1="6.46659" y1="117.703" x2="6.83071" y2="133.758" gradientUnits="userSpaceOnUse">
      <stop stop-color="#D74C1B"/>
      <stop offset="0.475" stop-color="#EF6636"/>
      <stop offset="1" stop-color="#E7936B"/>
    </linearGradient>
    <linearGradient id="paint5_linear_6103_26770" x1="324.467" y1="160.703" x2="324.831" y2="176.758" gradientUnits="userSpaceOnUse">
      <stop stop-color="#D74C1B"/>
      <stop offset="0.475" stop-color="#EF6636"/>
      <stop offset="1" stop-color="#E7936B"/>
    </linearGradient>
    <linearGradient id="paint6_linear_6103_26770" x1="272.644" y1="239.134" x2="272.887" y2="249.837" gradientUnits="userSpaceOnUse">
      <stop stop-color="#D74C1B"/>
      <stop offset="0.248346" stop-color="#EF6636"/>
      <stop offset="0.552718" stop-color="#E7936B"/>
      <stop offset="0.977469" stop-color="#FFE5D4"/>
    </linearGradient>
    <linearGradient id="paint7_linear_6103_26770" x1="272.644" y1="239.134" x2="272.887" y2="249.837" gradientUnits="userSpaceOnUse">
      <stop stop-color="#D74C1B"/>
      <stop offset="0.475" stop-color="#EF6636"/>
      <stop offset="1" stop-color="#E7936B"/>
    </linearGradient>
    <linearGradient id="paint8_linear_6103_26770" x1="11.6444" y1="3.1342" x2="11.8871" y2="13.8374" gradientUnits="userSpaceOnUse">
      <stop stop-color="#D74C1B"/>
      <stop offset="0.248346" stop-color="#EF6636"/>
      <stop offset="0.552718" stop-color="#E7936B"/>
      <stop offset="0.977469" stop-color="#FFE5D4"/>
    </linearGradient>
    <linearGradient id="paint9_linear_6103_26770" x1="11.6444" y1="3.1342" x2="11.8871" y2="13.8374" gradientUnits="userSpaceOnUse">
      <stop stop-color="#D74C1B"/>
      <stop offset="0.475" stop-color="#EF6636"/>
      <stop offset="1" stop-color="#E7936B"/>
    </linearGradient>
    <linearGradient id="paint10_linear_6103_26770" x1="112.644" y1="48.1342" x2="112.887" y2="58.8374" gradientUnits="userSpaceOnUse">
      <stop stop-color="#D74C1B"/>
      <stop offset="0.248346" stop-color="#EF6636"/>
      <stop offset="0.552718" stop-color="#E7936B"/>
      <stop offset="0.977469" stop-color="#FFE5D4"/>
    </linearGradient>
    <linearGradient id="paint11_linear_6103_26770" x1="112.644" y1="48.1342" x2="112.887" y2="58.8374" gradientUnits="userSpaceOnUse">
      <stop stop-color="#D74C1B"/>
      <stop offset="0.475" stop-color="#EF6636"/>
      <stop offset="1" stop-color="#E7936B"/>
    </linearGradient>
    <linearGradient id="paint12_linear_6103_26770" x1="5.46659" y1="310.203" x2="5.83071" y2="326.258" gradientUnits="userSpaceOnUse">
      <stop stop-color="#D74C1B"/>
      <stop offset="0.475" stop-color="#EF6636"/>
      <stop offset="1" stop-color="#E7936B"/>
    </linearGradient>
    <linearGradient id="paint13_linear_6103_26770" x1="228.467" y1="361.703" x2="228.831" y2="377.758" gradientUnits="userSpaceOnUse">
      <stop stop-color="#D74C1B"/>
      <stop offset="0.475" stop-color="#EF6636"/>
      <stop offset="1" stop-color="#E7936B"/>
    </linearGradient>
  </defs>
</svg>
