<svg width="420" height="296" viewBox="0 0 420 296" fill="none" xmlns="http://www.w3.org/2000/svg">
<mask id="mask0_2056_38998" style="mask-type:alpha" maskUnits="userSpaceOnUse" x="0" y="0" width="420" height="296">
<rect width="420" height="296" rx="16" fill="#D9D9D9"/>
</mask>
<g mask="url(#mask0_2056_38998)">
<g opacity="0.4">
<g filter="url(#filter0_f_2056_38998)">
<ellipse cx="224.5" cy="191.5" rx="224.5" ry="191.5" transform="matrix(1 0 0 -1 121 328)" fill="#FA8A71"/>
</g>
<g opacity="0.5" filter="url(#filter1_f_2056_38998)">
<ellipse cx="134.375" cy="130.087" rx="134.375" ry="130.087" transform="matrix(1 0 0 -1 -65 343.938)" fill="#6DD5FA"/>
</g>
<g filter="url(#filter2_f_2056_38998)">
<ellipse cx="53.3689" cy="36.2146" rx="53.3689" ry="36.2146" transform="matrix(1 0 0 -1 240.918 200.031)" fill="#FFD7CE"/>
</g>
<g opacity="0.5" filter="url(#filter3_f_2056_38998)">
<path d="M424 -127.616C424 -205.835 276.243 -109.143 166.904 1.69739C57.5639 112.537 -50.1342 39.2887 -107.925 143.622C-165.715 247.955 -72.463 346.532 249.647 210.765C394.902 210.765 424 -49.3964 424 -127.616Z" fill="#FFDB7D"/>
</g>
</g>
<rect opacity="0.4" x="60.5" y="28.5" width="299" height="239" rx="23.5" fill="url(#paint0_linear_2056_38998)" stroke="white"/>
<g filter="url(#filter4_d_2056_38998)">
<rect x="14" y="77" width="140" height="140" rx="12" fill="url(#paint1_linear_2056_38998)"/>
<rect x="14.5" y="77.5" width="139" height="139" rx="11.5" stroke="white"/>
</g>
<g filter="url(#filter5_d_2056_38998)">
<rect x="266" y="77" width="140" height="140" rx="70" fill="url(#paint2_linear_2056_38998)"/>
<rect x="266.5" y="77.5" width="139" height="139" rx="69.5" stroke="white"/>
</g>
<circle cx="336" cy="147" r="33.5" transform="rotate(90 336 147)" fill="url(#paint3_linear_2056_38998)" stroke="white"/>
<path d="M335.5 180.496C317.229 180.229 302.5 165.335 302.5 147C302.5 128.665 317.229 113.771 335.5 113.504L335.5 180.496Z" fill="url(#paint4_linear_2056_38998)" stroke="white"/>
<rect x="79" y="110.707" width="51.326" height="51.326" rx="7.5" transform="rotate(45 79 110.707)" fill="url(#paint5_linear_2056_38998)" stroke="white"/>
<path fill-rule="evenodd" clip-rule="evenodd" d="M111.687 146.999H46.3145C46.3144 145.208 46.9978 143.416 48.3647 142.049L74.0511 116.363C76.7848 113.629 81.2169 113.629 83.9506 116.363L109.637 142.049C111.004 143.416 111.687 145.208 111.687 146.999Z" fill="#D9D9D9"/>
<path fill-rule="evenodd" clip-rule="evenodd" d="M111.687 146.999H46.3145C46.3144 145.208 46.9978 143.416 48.3647 142.049L74.0511 116.363C76.7848 113.629 81.2169 113.629 83.9506 116.363L109.637 142.049C111.004 143.416 111.687 145.208 111.687 146.999Z" fill="url(#paint6_linear_2056_38998)"/>
<path fill-rule="evenodd" clip-rule="evenodd" d="M202.621 137.621C203.793 136.45 203.793 134.55 202.621 133.379C201.45 132.207 199.55 132.207 198.379 133.379L186.879 144.879C186.021 145.737 185.764 147.027 186.228 148.148C186.693 149.269 187.787 150 189 150H219C220.657 150 222 148.657 222 147C222 145.343 220.657 144 219 144H196.243L202.621 137.621ZM218.379 166.379C217.207 167.55 217.207 169.45 218.379 170.621C219.55 171.793 221.45 171.793 222.621 170.621L234.121 159.121C234.979 158.263 235.236 156.973 234.772 155.852C234.307 154.731 233.213 154 232 154H202C200.343 154 199 155.343 199 157C199 158.657 200.343 160 202 160H224.757L218.379 166.379Z" fill="black"/>
<path fill-rule="evenodd" clip-rule="evenodd" d="M202.621 137.621C203.793 136.45 203.793 134.55 202.621 133.379C201.45 132.207 199.55 132.207 198.379 133.379L186.879 144.879C186.021 145.737 185.764 147.027 186.228 148.148C186.693 149.269 187.787 150 189 150H219C220.657 150 222 148.657 222 147C222 145.343 220.657 144 219 144H196.243L202.621 137.621ZM218.379 166.379C217.207 167.55 217.207 169.45 218.379 170.621C219.55 171.793 221.45 171.793 222.621 170.621L234.121 159.121C234.979 158.263 235.236 156.973 234.772 155.852C234.307 154.731 233.213 154 232 154H202C200.343 154 199 155.343 199 157C199 158.657 200.343 160 202 160H224.757L218.379 166.379Z" fill="url(#paint7_linear_2056_38998)"/>
</g>
<defs>
<filter id="filter0_f_2056_38998" x="-14.286" y="-190.286" width="719.572" height="653.572" filterUnits="userSpaceOnUse" color-interpolation-filters="sRGB">
<feFlood flood-opacity="0" result="BackgroundImageFix"/>
<feBlend mode="normal" in="SourceGraphic" in2="BackgroundImageFix" result="shape"/>
<feGaussianBlur stdDeviation="67.643" result="effect1_foregroundBlur_2056_38998"/>
</filter>
<filter id="filter1_f_2056_38998" x="-200.286" y="-51.5223" width="539.322" height="530.746" filterUnits="userSpaceOnUse" color-interpolation-filters="sRGB">
<feFlood flood-opacity="0" result="BackgroundImageFix"/>
<feBlend mode="normal" in="SourceGraphic" in2="BackgroundImageFix" result="shape"/>
<feGaussianBlur stdDeviation="67.643" result="effect1_foregroundBlur_2056_38998"/>
</filter>
<filter id="filter2_f_2056_38998" x="105.632" y="-7.6844" width="377.31" height="343.002" filterUnits="userSpaceOnUse" color-interpolation-filters="sRGB">
<feFlood flood-opacity="0" result="BackgroundImageFix"/>
<feBlend mode="normal" in="SourceGraphic" in2="BackgroundImageFix" result="shape"/>
<feGaussianBlur stdDeviation="67.643" result="effect1_foregroundBlur_2056_38998"/>
</filter>
<filter id="filter3_f_2056_38998" x="-259.286" y="-291.286" width="818.572" height="703.572" filterUnits="userSpaceOnUse" color-interpolation-filters="sRGB">
<feFlood flood-opacity="0" result="BackgroundImageFix"/>
<feBlend mode="normal" in="SourceGraphic" in2="BackgroundImageFix" result="shape"/>
<feGaussianBlur stdDeviation="67.643" result="effect1_foregroundBlur_2056_38998"/>
</filter>
<filter id="filter4_d_2056_38998" x="6" y="70" width="156" height="156" filterUnits="userSpaceOnUse" color-interpolation-filters="sRGB">
<feFlood flood-opacity="0" result="BackgroundImageFix"/>
<feColorMatrix in="SourceAlpha" type="matrix" values="0 0 0 0 0 0 0 0 0 0 0 0 0 0 0 0 0 0 127 0" result="hardAlpha"/>
<feOffset dy="1"/>
<feGaussianBlur stdDeviation="4"/>
<feComposite in2="hardAlpha" operator="out"/>
<feColorMatrix type="matrix" values="0 0 0 0 0 0 0 0 0 0 0 0 0 0 0 0 0 0 0.1 0"/>
<feBlend mode="normal" in2="BackgroundImageFix" result="effect1_dropShadow_2056_38998"/>
<feBlend mode="normal" in="SourceGraphic" in2="effect1_dropShadow_2056_38998" result="shape"/>
</filter>
<filter id="filter5_d_2056_38998" x="258" y="70" width="156" height="156" filterUnits="userSpaceOnUse" color-interpolation-filters="sRGB">
<feFlood flood-opacity="0" result="BackgroundImageFix"/>
<feColorMatrix in="SourceAlpha" type="matrix" values="0 0 0 0 0 0 0 0 0 0 0 0 0 0 0 0 0 0 127 0" result="hardAlpha"/>
<feOffset dy="1"/>
<feGaussianBlur stdDeviation="4"/>
<feComposite in2="hardAlpha" operator="out"/>
<feColorMatrix type="matrix" values="0 0 0 0 0 0 0 0 0 0 0 0 0 0 0 0 0 0 0.1 0"/>
<feBlend mode="normal" in2="BackgroundImageFix" result="effect1_dropShadow_2056_38998"/>
<feBlend mode="normal" in="SourceGraphic" in2="effect1_dropShadow_2056_38998" result="shape"/>
</filter>
<linearGradient id="paint0_linear_2056_38998" x1="60" y1="18" x2="358.395" y2="270.883" gradientUnits="userSpaceOnUse">
<stop offset="0.0265018" stop-color="#6FD9FF"/>
<stop offset="0.375" stop-color="#F2FCFF"/>
<stop offset="0.651042" stop-color="#FFE7D8"/>
<stop offset="1" stop-color="#FBB677"/>
</linearGradient>
<linearGradient id="paint1_linear_2056_38998" x1="14" y1="77" x2="154" y2="217" gradientUnits="userSpaceOnUse">
<stop offset="0.0265018" stop-color="#6FD9FF"/>
<stop offset="0.375" stop-color="#F2FCFF"/>
<stop offset="0.651042" stop-color="#FFE7D8"/>
<stop offset="1" stop-color="#FBB677"/>
</linearGradient>
<linearGradient id="paint2_linear_2056_38998" x1="266" y1="77" x2="406" y2="217" gradientUnits="userSpaceOnUse">
<stop offset="0.0265018" stop-color="#6FD9FF"/>
<stop offset="0.375" stop-color="#F2FCFF"/>
<stop offset="0.651042" stop-color="#FFE7D8"/>
<stop offset="1" stop-color="#FBB677"/>
</linearGradient>
<linearGradient id="paint3_linear_2056_38998" x1="306" y1="143" x2="387" y2="147" gradientUnits="userSpaceOnUse">
<stop offset="0.0265018" stop-color="#6FD9FF"/>
<stop offset="0.375" stop-color="#F2FCFF"/>
<stop offset="0.651042" stop-color="#FFE7D8"/>
<stop offset="1" stop-color="#FBB677"/>
</linearGradient>
<linearGradient id="paint4_linear_2056_38998" x1="266" y1="147" x2="333" y2="151" gradientUnits="userSpaceOnUse">
<stop offset="0.0265018" stop-color="#6FD9FF"/>
<stop offset="0.375" stop-color="#F2FCFF"/>
<stop offset="0.651042" stop-color="#FFE7D8"/>
<stop offset="1" stop-color="#FBB677"/>
</linearGradient>
<linearGradient id="paint5_linear_2056_38998" x1="79" y1="162.326" x2="131.326" y2="110" gradientUnits="userSpaceOnUse">
<stop stop-color="#6FD9FF"/>
<stop offset="0.375" stop-color="#F2FCFF"/>
<stop offset="0.651042" stop-color="#FFE7D8"/>
<stop offset="1" stop-color="#FBB677"/>
</linearGradient>
<linearGradient id="paint6_linear_2056_38998" x1="112" y1="146.999" x2="66" y2="122.999" gradientUnits="userSpaceOnUse">
<stop stop-color="#6FD9FF"/>
<stop offset="0.375" stop-color="#F2FCFF"/>
<stop offset="0.651042" stop-color="#FFE7D8"/>
<stop offset="1" stop-color="#FBB677"/>
</linearGradient>
<linearGradient id="paint7_linear_2056_38998" x1="194" y1="140" x2="232" y2="168.5" gradientUnits="userSpaceOnUse">
<stop stop-color="#FC845B"/>
<stop offset="0.453125" stop-color="#E7A77F"/>
<stop offset="1" stop-color="#00A7D9"/>
</linearGradient>
</defs>
</svg>
