<svg width="450" height="300" viewBox="0 0 450 300" fill="none" xmlns="http://www.w3.org/2000/svg">
<path d="M0 24C0 10.7452 10.7452 0 24 0H426C439.255 0 450 10.7452 450 24V276C450 289.255 439.255 300 426 300H24C10.7452 300 0 289.255 0 276V24Z" fill="url(#paint0_linear_1370_19132)"/>
<path d="M0 24C0 10.7452 10.7452 0 24 0H426C439.255 0 450 10.7452 450 24V276C450 289.255 439.255 300 426 300H24C10.7452 300 0 289.255 0 276V24Z" fill="#F2FCFF"/>
<mask id="mask0_1370_19132" style="mask-type:alpha" maskUnits="userSpaceOnUse" x="0" y="0" width="450" height="300">
<path d="M0 24C0 10.7452 10.7452 0 24 0H426C439.255 0 450 10.7452 450 24V276C450 289.255 439.255 300 426 300H24C10.7452 300 0 289.255 0 276V24Z" fill="#101123"/>
</mask>
<g mask="url(#mask0_1370_19132)">
<g opacity="0.3" filter="url(#filter0_f_1370_19132)">
<circle cx="83" cy="66" r="89" fill="#FD8072"/>
</g>
<g opacity="0.6" filter="url(#filter1_f_1370_19132)">
<ellipse cx="176.5" cy="220" rx="104.5" ry="89" fill="#FD8072"/>
</g>
<g filter="url(#filter2_f_1370_19132)">
<circle cx="67" cy="176" r="89" fill="#FFD7CE"/>
</g>
<g filter="url(#filter3_f_1370_19132)">
<ellipse cx="256" cy="81" rx="56" ry="38" fill="#6DD5FA"/>
</g>
<g filter="url(#filter4_f_1370_19132)">
<ellipse cx="350" cy="218" rx="106" ry="101" fill="#FFE7D8"/>
</g>
<g filter="url(#filter5_f_1370_19132)">
<path d="M462.44 218.416C462.44 243.821 412.44 212.416 375.44 176.416C338.44 140.416 301.996 164.207 282.44 130.32C262.884 96.4337 294.44 64.4165 403.44 108.513C452.594 108.513 462.44 193.011 462.44 218.416Z" fill="#FFDB7D"/>
</g>
<path opacity="0.7" d="M665.5 146.5C665.5 258.613 574.391 349.5 462 349.5C349.609 349.5 258.5 258.613 258.5 146.5C258.5 34.3874 349.609 -56.5 462 -56.5C574.391 -56.5 665.5 34.3874 665.5 146.5Z" fill="url(#paint1_linear_1370_19132)" stroke="white"/>
<circle opacity="0.7" cx="141.5" cy="150.5" r="141" fill="url(#paint2_linear_1370_19132)" stroke="white"/>
<path fill-rule="evenodd" clip-rule="evenodd" d="M147 140.38C157.883 137.884 166 128.14 166 116.5C166 102.969 155.031 92 141.5 92C127.969 92 117 102.969 117 116.5C117 127.781 124.624 137.28 135 140.128V204C135 207.314 137.686 210 141 210C144.314 210 147 207.314 147 204V200H155C156.657 200 158 198.657 158 197C158 195.343 156.657 194 155 194H147V187H155C156.657 187 158 185.657 158 184C158 182.343 156.657 181 155 181H147V140.38ZM154 116.5C154 123.404 148.404 129 141.5 129C134.596 129 129 123.404 129 116.5C129 109.596 134.596 104 141.5 104C148.404 104 154 109.596 154 116.5Z" fill="url(#paint3_linear_1370_19132)"/>
<circle cx="446.5" cy="149.5" r="51" fill="url(#paint4_linear_1370_19132)" stroke="white"/>
<circle cx="365.5" cy="149.5" r="67" fill="url(#paint5_linear_1370_19132)" stroke="white"/>
<circle cx="280.5" cy="149.5" r="85" fill="url(#paint6_linear_1370_19132)" stroke="white"/>
<circle opacity="0.8" cx="280" cy="150" r="59.5" fill="url(#paint7_linear_1370_19132)" stroke="white"/>
<path d="M280.001 113.5V165.302L255.626 151.696L280.001 113.5Z" fill="url(#paint8_linear_1370_19132)"/>
<path d="M280.001 113.5L304.376 151.696L280.001 165.302V113.5Z" fill="url(#paint9_linear_1370_19132)"/>
<path d="M280 169.662V188.5L255.625 156.063L280 169.662Z" fill="url(#paint10_linear_1370_19132)"/>
<path d="M280 188.5V169.662L304.377 156.063L280 188.5Z" fill="url(#paint11_linear_1370_19132)"/>
</g>
<defs>
<filter id="filter0_f_1370_19132" x="-66" y="-83" width="298" height="298" filterUnits="userSpaceOnUse" color-interpolation-filters="sRGB">
<feFlood flood-opacity="0" result="BackgroundImageFix"/>
<feBlend mode="normal" in="SourceGraphic" in2="BackgroundImageFix" result="shape"/>
<feGaussianBlur stdDeviation="30" result="effect1_foregroundBlur_1370_19132"/>
</filter>
<filter id="filter1_f_1370_19132" x="12" y="71" width="329" height="298" filterUnits="userSpaceOnUse" color-interpolation-filters="sRGB">
<feFlood flood-opacity="0" result="BackgroundImageFix"/>
<feBlend mode="normal" in="SourceGraphic" in2="BackgroundImageFix" result="shape"/>
<feGaussianBlur stdDeviation="30" result="effect1_foregroundBlur_1370_19132"/>
</filter>
<filter id="filter2_f_1370_19132" x="-82" y="27" width="298" height="298" filterUnits="userSpaceOnUse" color-interpolation-filters="sRGB">
<feFlood flood-opacity="0" result="BackgroundImageFix"/>
<feBlend mode="normal" in="SourceGraphic" in2="BackgroundImageFix" result="shape"/>
<feGaussianBlur stdDeviation="30" result="effect1_foregroundBlur_1370_19132"/>
</filter>
<filter id="filter3_f_1370_19132" x="140" y="-17" width="232" height="196" filterUnits="userSpaceOnUse" color-interpolation-filters="sRGB">
<feFlood flood-opacity="0" result="BackgroundImageFix"/>
<feBlend mode="normal" in="SourceGraphic" in2="BackgroundImageFix" result="shape"/>
<feGaussianBlur stdDeviation="30" result="effect1_foregroundBlur_1370_19132"/>
</filter>
<filter id="filter4_f_1370_19132" x="184" y="57" width="332" height="322" filterUnits="userSpaceOnUse" color-interpolation-filters="sRGB">
<feFlood flood-opacity="0" result="BackgroundImageFix"/>
<feBlend mode="normal" in="SourceGraphic" in2="BackgroundImageFix" result="shape"/>
<feGaussianBlur stdDeviation="30" result="effect1_foregroundBlur_1370_19132"/>
</filter>
<filter id="filter5_f_1370_19132" x="217" y="27" width="305.44" height="260.635" filterUnits="userSpaceOnUse" color-interpolation-filters="sRGB">
<feFlood flood-opacity="0" result="BackgroundImageFix"/>
<feBlend mode="normal" in="SourceGraphic" in2="BackgroundImageFix" result="shape"/>
<feGaussianBlur stdDeviation="30" result="effect1_foregroundBlur_1370_19132"/>
</filter>
<linearGradient id="paint0_linear_1370_19132" x1="225" y1="0" x2="225" y2="300" gradientUnits="userSpaceOnUse">
<stop stop-color="#FFE4BB"/>
<stop offset="1" stop-color="#C6F1FF"/>
</linearGradient>
<linearGradient id="paint1_linear_1370_19132" x1="258" y1="-57" x2="666" y2="350" gradientUnits="userSpaceOnUse">
<stop stop-color="#6DD5FA"/>
<stop offset="0.375" stop-color="#F2FCFF"/>
<stop offset="0.651042" stop-color="#FFE7D8"/>
<stop offset="1" stop-color="#FBB677"/>
</linearGradient>
<linearGradient id="paint2_linear_1370_19132" x1="0" y1="9" x2="283" y2="292" gradientUnits="userSpaceOnUse">
<stop offset="0.0265018" stop-color="#6FD9FF"/>
<stop offset="0.375" stop-color="#F2FCFF"/>
<stop offset="0.651042" stop-color="#FFE7D8"/>
<stop offset="1" stop-color="#FBB677"/>
</linearGradient>
<linearGradient id="paint3_linear_1370_19132" x1="166.001" y1="197.145" x2="117" y2="92" gradientUnits="userSpaceOnUse">
<stop stop-color="#FC845B"/>
<stop offset="0.453125" stop-color="#E7A77F"/>
<stop offset="1" stop-color="#00A7D9"/>
</linearGradient>
<linearGradient id="paint4_linear_1370_19132" x1="395" y1="97.9999" x2="514.715" y2="123.98" gradientUnits="userSpaceOnUse">
<stop stop-color="#6DD5FA"/>
<stop offset="0.375" stop-color="#F2FCFF"/>
<stop offset="0.651042" stop-color="#FFE7D8"/>
<stop offset="1" stop-color="#FBB677"/>
</linearGradient>
<linearGradient id="paint5_linear_1370_19132" x1="298" y1="81.9999" x2="433" y2="217" gradientUnits="userSpaceOnUse">
<stop stop-color="#6DD5FA"/>
<stop offset="0.375" stop-color="#F2FCFF"/>
<stop offset="0.651042" stop-color="#FFE7D8"/>
<stop offset="1" stop-color="#FBB677"/>
</linearGradient>
<linearGradient id="paint6_linear_1370_19132" x1="195" y1="64" x2="366" y2="235" gradientUnits="userSpaceOnUse">
<stop stop-color="#6DD5FA"/>
<stop offset="0.375" stop-color="#F2FCFF"/>
<stop offset="0.651042" stop-color="#FFE7D8"/>
<stop offset="1" stop-color="#FBB677"/>
</linearGradient>
<linearGradient id="paint7_linear_1370_19132" x1="220" y1="90" x2="339.858" y2="210.141" gradientUnits="userSpaceOnUse">
<stop stop-color="#FFE7D8"/>
<stop offset="0.520833" stop-color="#F2FCFF"/>
<stop offset="1" stop-color="#6DD5FA"/>
</linearGradient>
<linearGradient id="paint8_linear_1370_19132" x1="304.377" y1="180.33" x2="256.325" y2="156.983" gradientUnits="userSpaceOnUse">
<stop stop-color="#FC845B"/>
<stop offset="0.453125" stop-color="#E7A77F"/>
<stop offset="1" stop-color="#00A7D9"/>
</linearGradient>
<linearGradient id="paint9_linear_1370_19132" x1="304.377" y1="180.33" x2="256.325" y2="156.983" gradientUnits="userSpaceOnUse">
<stop stop-color="#FC845B"/>
<stop offset="0.453125" stop-color="#E7A77F"/>
<stop offset="1" stop-color="#00A7D9"/>
</linearGradient>
<linearGradient id="paint10_linear_1370_19132" x1="304.377" y1="180.33" x2="256.325" y2="156.983" gradientUnits="userSpaceOnUse">
<stop stop-color="#FC845B"/>
<stop offset="0.453125" stop-color="#E7A77F"/>
<stop offset="1" stop-color="#00A7D9"/>
</linearGradient>
<linearGradient id="paint11_linear_1370_19132" x1="304.377" y1="180.33" x2="256.325" y2="156.983" gradientUnits="userSpaceOnUse">
<stop stop-color="#FC845B"/>
<stop offset="0.453125" stop-color="#E7A77F"/>
<stop offset="1" stop-color="#00A7D9"/>
</linearGradient>
</defs>
</svg>
