<svg xmlns="http://www.w3.org/2000/svg" width="146" height="100" fill="none" xmlns:v="https://vecta.io/nano">
  <path fill-rule="evenodd"
    d="M74.681 39.272l9.361 22.074c.529 1.141 1.311 1.7 2.346 1.705h.828c1.035 0 1.819-.564 2.346-1.705l9.361-22.076c.074-.201.113-.413.115-.626a1.7 1.7 0 0 0-.46-1.23c-.161-.16-.355-.284-.569-.365a1.65 1.65 0 0 0-.674-.104 1.7 1.7 0 0 0-.966.313 1.99 1.99 0 0 0-.666.827l-8.903 21.606L77.9 38.085c-.142-.329-.373-.614-.668-.827a1.7 1.7 0 0 0-.966-.313 1.65 1.65 0 0 0-.673.104c-.214.081-.408.205-.568.365a1.7 1.7 0 0 0-.46 1.23 1.88 1.88 0 0 0 .115.627zm27.971 22.558c.083.204.208.389.367.545a1.5 1.5 0 0 0 .553.371c.212.081.439.115.665.099h15.204c.429.005.843-.156 1.15-.447.157-.138.282-.307.365-.497s.124-.394.118-.599c.004-.209-.037-.416-.12-.608a1.5 1.5 0 0 0-.363-.509 1.5 1.5 0 0 0-.523-.357 1.54 1.54 0 0 0-.627-.114h-13.455v-8.186h12.097a1.65 1.65 0 0 0 .621-.112 1.61 1.61 0 0 0 .529-.335c.157-.138.282-.307.366-.496s.123-.394.118-.599c.001-.209-.041-.415-.124-.607s-.205-.366-.36-.511c-.146-.153-.324-.275-.523-.355a1.55 1.55 0 0 0-.627-.114h-12.097v-8.143h13.455c.428.007.842-.152 1.15-.441.157-.138.282-.307.365-.496s.124-.394.118-.6a1.47 1.47 0 0 0-.12-.609 1.52 1.52 0 0 0-.363-.51c-.146-.153-.325-.274-.523-.355s-.412-.12-.627-.114h-15.204c-.227-.008-.453.032-.663.115a1.59 1.59 0 0 0-.555.372c-.319.325-.492.758-.484 1.207v22.365c-.006.219.034.437.117.641zm-25.853-1.11l-9.36-22.076c-.527-1.14-1.315-1.699-2.346-1.699h-.829c-1.036 0-1.817.559-2.346 1.705l-4.072 9.62h-3.081c-.445.003-.87.175-1.185.481a1.62 1.62 0 0 0-.495 1.152v.022a1.62 1.62 0 0 0 .495 1.152c.314.306.74.479 1.185.481h1.656l-3.883 9.17c-.074.201-.113.413-.115.626a1.7 1.7 0 0 0 .46 1.23c.161.16.355.285.569.366s.444.117.674.104c.347-.005.685-.114.966-.313.294-.213.525-.499.668-.828l4.277-10.351h2.942c.445-.003.87-.175 1.185-.481a1.62 1.62 0 0 0 .495-1.152v-.055a1.62 1.62 0 0 0-.494-1.152c-.314-.306-.74-.479-1.185-.481h-1.591l3.29-7.94 8.901 21.606a1.99 1.99 0 0 0 .666.827 1.7 1.7 0 0 0 .967.313c.229.012.459-.023.673-.104s.408-.205.569-.365c.313-.336.478-.778.46-1.231.01-.215-.029-.429-.114-.627zM39.47 38.644l9.36 22.076a1.45 1.45 0 0 1 .115.626 1.7 1.7 0 0 1-.46 1.23 1.62 1.62 0 0 1-.569.365c-.214.081-.444.117-.673.105-.347-.005-.685-.114-.966-.313-.295-.213-.526-.499-.668-.828L36.709 40.3l-3.267 7.941h1.587c.445.002.871.175 1.185.481a1.62 1.62 0 0 1 .495 1.152v.046a1.62 1.62 0 0 1-.495 1.152c-.314.306-.74.479-1.185.481h-2.963l-4.277 10.351c-.143.329-.373.615-.668.828-.281.199-.618.308-.966.313a1.65 1.65 0 0 1-.674-.104 1.62 1.62 0 0 1-.569-.366c-.313-.335-.478-.777-.46-1.23.002-.213.041-.425.115-.626l3.883-9.17h-1.656c-.443-.003-.867-.175-1.181-.478a1.62 1.62 0 0 1-.498-1.146v-.022a1.62 1.62 0 0 1 .495-1.152c.314-.306.74-.479 1.184-.482h3.082l4.07-9.62c.53-1.146 1.311-1.705 2.346-1.705h.828c1.036 0 1.822.559 2.348 1.699z"
    fill="#17344F" /></svg>