<svg xmlns="http://www.w3.org/2000/svg" width="163" height="30" fill="none" xmlns:v="https://vecta.io/nano"><g clip-path="url(#A)" fill="#17344F"><path d="M53.666 27.39c-.187 0-.362-.07-.525-.209-.14-.162-.21-.336-.21-.522 0-.116.012-.22.035-.313l8.231-22.33c.07-.255.21-.475.42-.661.233-.209.549-.313.946-.313h5.184c.397 0 .701.104.911.313.233.186.385.406.455.661l8.196 22.33c.047.093.07.197.07.313 0 .186-.082.359-.245.522-.14.139-.315.209-.525.209H72.3c-.35 0-.619-.081-.806-.244-.163-.185-.268-.348-.315-.487l-1.366-3.548h-9.352L59.13 26.66c-.047.139-.152.301-.315.487-.163.162-.444.244-.841.244h-4.308zm8.231-9.287h6.515L65.12 8.921l-3.222 9.183zm29.88 9.635c-1.331 0-2.603-.162-3.818-.487-1.191-.348-2.253-.858-3.187-1.53s-1.681-1.507-2.242-2.504c-.537-.997-.829-2.157-.876-3.478 0-.209.07-.383.21-.522.14-.162.327-.244.56-.244h4.729c.327 0 .572.081.736.244.187.162.339.406.455.73.117.649.339 1.183.666 1.6.327.394.736.696 1.226.904.514.186 1.086.278 1.716.278 1.168 0 2.066-.371 2.697-1.113.631-.765.946-1.878.946-3.339V8.225H84.246c-.233 0-.444-.081-.63-.243-.163-.162-.245-.371-.245-.626V3.912c0-.255.082-.464.245-.626.187-.162.397-.243.63-.243h16.953c.257 0 .467.081.631.243a.79.79 0 0 1 .28.626v14.539c0 2.017-.444 3.722-1.331 5.113-.887 1.368-2.102 2.412-3.643 3.131-1.541.696-3.328 1.043-5.359 1.043zm19.367-.348c-.257 0-.467-.081-.63-.244s-.245-.371-.245-.626V3.912c0-.255.082-.464.245-.626s.373-.243.63-.243h3.713c.397 0 .678.093.841.278.187.162.303.29.35.383l8.547 13.391V3.912c0-.255.082-.464.245-.626s.373-.243.63-.243h4.204c.257 0 .467.081.63.243s.245.371.245.626v22.609c0 .232-.082.441-.245.626-.163.162-.373.244-.63.244h-3.748c-.374 0-.654-.093-.841-.278l-.315-.383-8.547-12.87v12.661c0 .255-.082.464-.245.626s-.373.244-.63.244h-4.204zm26.402 0c-.187 0-.362-.07-.525-.209-.141-.162-.211-.336-.211-.522 0-.116.012-.22.035-.313l8.232-22.33c.07-.255.21-.475.42-.661.233-.209.549-.313.946-.313h5.184c.397 0 .7.104.911.313.233.186.385.406.455.661l8.196 22.33c.047.093.07.197.07.313 0 .186-.082.359-.245.522-.14.139-.315.209-.525.209h-4.309c-.35 0-.618-.081-.805-.244-.164-.185-.269-.348-.316-.487l-1.366-3.548h-9.352l-1.331 3.548c-.047.139-.152.301-.315.487-.163.162-.444.244-.841.244h-4.308zm8.231-9.287h6.515L149 8.921l-3.223 9.183z"/><path fill-rule="evenodd" d="M21.133.434c6.78 0 13.415 3.199 19.868 9.292.008.008.016.016.024.024a3.7 3.7 0 0 1 1.081 2.58c0 .183-.036.357-.102.516-.098.739-.418 1.518-1.093 2.107-.39.369-.781.728-1.172 1.076a1.37 1.37 0 0 1-.075.092c-.106.119-.228.216-.36.29-5.691 4.94-11.511 7.616-17.456 7.821-6.203.215-12.298-2.268-18.268-7.204-.154.14-.305.283-.456.432-.013.013-.026.026-.04.038-.301.275-.368.814.005 1.216l.01.009c6.135 5.793 12.123 8.537 17.965 8.537s11.83-2.744 17.965-8.537a1.39 1.39 0 0 1 1.951.048 1.36 1.36 0 0 1-.048 1.936c-6.453 6.093-13.088 9.292-19.868 9.292-6.731 0-13.319-3.153-19.728-9.16a1.43 1.43 0 0 1-.394-.392c-.009-.013-.017-.026-.025-.038-1.218-1.47-1.11-3.615.272-4.902.505-.5 1.007-.926 1.466-1.317l.015-.013.018-.015C8.701 8.93 14.839 6.192 21.1 6.192c5.938 0 11.766 2.463 17.479 7.18l.451-.422a1.36 1.36 0 0 1 .055-.05c.087-.074.195-.248.195-.572 0-.088.008-.174.024-.257-.046-.142-.124-.278-.22-.377-6.13-5.783-12.112-8.522-17.949-8.522S9.304 5.917 3.168 11.71a1.39 1.39 0 0 1-1.951-.048 1.36 1.36 0 0 1 .048-1.936C7.719 3.632 14.353.434 21.133.434zm15.342 14.768C31.224 10.956 26.109 8.931 21.1 8.931c-5.014 0-10.135 2.029-15.393 6.285 5.487 4.438 10.826 6.459 16.048 6.279 4.805-.166 9.708-2.204 14.722-6.293zm-18.056.014c0-1.469 1.2-2.66 2.681-2.66s2.681 1.191 2.681 2.66-1.2 2.66-2.681 2.66-2.681-1.191-2.681-2.66zM21.1 9.817c-3.005 0-5.441 2.417-5.441 5.399s2.436 5.399 5.441 5.399 5.441-2.417 5.441-5.398-2.436-5.399-5.441-5.399z"/></g><defs><clipPath id="A"><path fill="#fff" transform="translate(.075)" d="M0 0h162v30H0z"/></clipPath></defs></svg>