<svg xmlns="http://www.w3.org/2000/svg" width="184" height="48" fill="none" xmlns:v="https://vecta.io/nano"><g opacity=".5" clip-path="url(#A)"><path d="M1.567 14.786v18.429c0 1.173.621 2.259 1.634 2.846l15.861 9.21c1.013.586 2.255.586 3.268 0l15.861-9.21c1.013-.587 1.634-1.673 1.634-2.846V14.786c0-1.173-.621-2.259-1.634-2.846L22.33 2.73c-1.013-.586-2.255-.586-3.268 0L3.201 11.94c-1.003.586-1.634 1.673-1.634 2.846z" fill="#596f78"/><g fill="#fff"><path d="M24.164 27.571L21.9 33.81c-.067.173-.067.365 0 .538l3.889 10.738 4.5-2.615-5.398-14.901c-.124-.346-.602-.346-.726 0zm4.529-10.497c-.124-.346-.602-.346-.726 0l-2.264 6.239c-.067.173-.067.365 0 .538l6.373 17.583 4.5-2.615-7.883-21.746z"/></g><g fill="#596f78"><path d="M20.696 3.413a.66.66 0 0 1 .325.087l17.16 9.969c.201.115.325.327.325.558v19.938c0 .231-.124.442-.325.558l-17.16 9.979c-.095.058-.21.087-.325.087s-.22-.029-.325-.087L3.22 34.532c-.201-.115-.325-.327-.325-.558V14.026c0-.231.124-.442.325-.558l17.16-9.969c.096-.058.21-.087.315-.087zm0-2.913c-.611 0-1.223.163-1.768.481L1.768 10.95C.678 11.584 0 12.757 0 14.026v19.938a3.58 3.58 0 0 0 1.768 3.086l17.16 9.969c.545.317 1.156.481 1.768.481s1.223-.163 1.768-.481l17.16-9.969a3.55 3.55 0 0 0 1.768-3.086V14.026a3.58 3.58 0 0 0-1.768-3.086L22.473.981C21.919.663 21.307.5 20.696.5z" fill-opacity=".8"/><path d="M9.354 41.453l1.577-4.345 3.172 2.653-2.962 2.73-1.787-1.038z"/></g><g fill="#fff"><path d="M19.253 12.603h-4.347c-.325 0-.621.202-.726.509L4.854 38.838l4.5 2.615 10.271-28.331a.39.39 0 0 0-.373-.519zm7.615 0h-4.347c-.325 0-.621.202-.726.509L11.141 42.491l4.5 2.615 11.59-31.974a.39.39 0 0 0-.363-.529z"/></g><g fill="#596f78"><path d="M59.918 17.958c.43 0 .803.087 1.099.269s.592.529.879 1.048l5.675 10.363c.057.115.067.211.038.288s-.115.115-.248.115h-2.178c-.191 0-.325-.077-.392-.221l-1.214-2.22h-8.055l-1.185 2.221c-.077.154-.21.221-.392.221H51.72c-.153 0-.239-.039-.268-.115s-.019-.173.038-.288l5.628-10.363c.287-.519.564-.865.841-1.048s.592-.269.956-.269h1.003zm-3.335 7.623h5.905l-2.723-5.057c-.048-.077-.105-.125-.191-.125h-.105c-.076 0-.143.039-.191.125l-2.694 5.057zm23.457-7.623c1.319 0 2.255.298 2.828.894s.86 1.48.86 2.653v.98c0 .99-.201 1.769-.602 2.346s-1.051.942-1.959 1.105l2.933 3.653c.057.058.076.144.048.26-.019.115-.115.173-.277.173h-2.207c-.153 0-.248-.019-.306-.048a.72.72 0 0 1-.172-.173l-2.713-3.586h-5.542v3.432c0 .25-.124.375-.373.375h-1.854c-.267 0-.392-.125-.392-.375v-11.17c0-.346.172-.519.516-.519h9.211zm-7.099 6.162h6.564c.583 0 .994-.125 1.232-.375s.363-.634.363-1.154v-.721c0-.519-.124-.904-.363-1.154s-.65-.375-1.232-.375h-6.344c-.153 0-.22.067-.22.212v3.567zm25.129-6.162c1.175 0 2.016.24 2.513.711s.745 1.182.745 2.134v.827c0 .961-.363 1.692-1.098 2.192.783.461 1.184 1.202 1.184 2.221v1a4.46 4.46 0 0 1-.153 1.24c-.105.365-.267.683-.506.942s-.545.461-.936.596-.87.211-1.443.211H88.191c-.344 0-.516-.173-.516-.519V18.477c0-.346.172-.519.516-.519h9.88zm-7.768 5.018h7.032c.573 0 .956-.086 1.166-.26s.306-.423.306-.759v-.586c0-.356-.096-.615-.296-.788-.201-.163-.525-.25-.965-.25h-7.013a.19.19 0 0 0-.22.221v2.423h-.01zm0 1.884v2.567a.19.19 0 0 0 .22.221h7.032c.459 0 .784-.086.975-.25s.296-.433.296-.798v-.654c0-.356-.105-.625-.315-.808s-.602-.279-1.175-.279h-7.032zm17.505-6.902c.248 0 .372.125.372.375v11.315c0 .25-.124.375-.372.375h-1.854c-.268 0-.392-.125-.392-.375V18.343c0-.25.134-.375.392-.375l1.854-.01zm17.962 0c.268 0 .392.125.392.375v1.692c0 .269-.134.394-.392.394h-5.379v9.229c0 .25-.124.375-.373.375h-1.872c-.249 0-.373-.125-.373-.375v-9.229h-5.379c-.268 0-.392-.134-.392-.394v-1.692c0-.25.134-.375.392-.375h13.376zm13.559 0c1.318 0 2.255.298 2.828.894s.86 1.48.86 2.653v.98c0 .99-.201 1.769-.602 2.346s-1.051.942-1.959 1.105l2.933 3.653c.058.058.077.144.048.26-.019.115-.114.173-.277.173h-2.207c-.153 0-.248-.019-.306-.048a.74.74 0 0 1-.172-.173l-2.713-3.586h-5.542v3.432c0 .25-.124.375-.373.375h-1.853c-.268 0-.392-.125-.392-.375v-11.17c0-.346.172-.519.516-.519h9.211zm-7.09 6.162h6.564c.583 0 .994-.125 1.233-.375s.363-.634.363-1.154v-.721c0-.519-.124-.904-.363-1.154s-.65-.375-1.233-.375h-6.344c-.153 0-.22.067-.22.212v3.567zm16.73-6.162c.249 0 .373.125.373.375v6.883c0 .462.038.846.115 1.144.076.308.2.548.372.721.172.183.402.308.698.375.296.077.659.115 1.108.115h4.749c.449 0 .812-.038 1.108-.115s.526-.202.698-.375c.172-.183.296-.423.363-.721a5.41 5.41 0 0 0 .105-1.144v-6.883c0-.25.124-.375.373-.375h1.872c.249 0 .373.125.373.375v7.143c0 .827-.086 1.529-.258 2.115-.172.577-.449 1.048-.831 1.413s-.879.625-1.491.788-1.347.24-2.217.24h-4.939c-.87 0-1.606-.077-2.207-.24s-1.099-.423-1.481-.788-.66-.836-.841-1.413-.268-1.288-.268-2.115v-7.143c0-.25.134-.375.392-.375h1.834zm19.674 0a4.15 4.15 0 0 1 .649.048c.182.038.344.096.478.202.134.096.258.231.373.394a4.15 4.15 0 0 1 .334.663l3.564 8.277c.048.106.124.154.239.154h.21c.115 0 .191-.048.239-.154l3.564-8.277c.115-.279.229-.5.334-.663a1.34 1.34 0 0 1 .373-.394c.134-.096.296-.163.468-.202.182-.038.392-.048.64-.048h1.835c.592 0 .994.135 1.204.404s.306.731.306 1.384v9.902c0 .25-.134.375-.392.375h-1.749c-.248 0-.372-.125-.372-.375V20.64c0-.115-.048-.173-.134-.173h-.153c-.115 0-.191.048-.22.135l-3.459 7.729a4.87 4.87 0 0 1-.42.788 2.81 2.81 0 0 1-.459.529 1.51 1.51 0 0 1-.563.298 2.83 2.83 0 0 1-.746.087h-.821a2.83 2.83 0 0 1-.746-.087c-.211-.058-.401-.154-.563-.298a2.27 2.27 0 0 1-.459-.529 4.53 4.53 0 0 1-.42-.788l-3.459-7.729c-.038-.096-.105-.135-.22-.135h-.153c-.095 0-.134.058-.134.173v9.008c0 .25-.124.375-.372.375h-1.749c-.267 0-.392-.125-.392-.375v-9.902c0-.654.106-1.115.306-1.384.21-.269.612-.404 1.214-.404h1.825z"/></g></g><defs><clipPath id="A"><path fill="#fff" transform="translate(0 .5)" d="M0 0h183.452v47H0z"/></clipPath></defs></svg>