<svg xmlns="http://www.w3.org/2000/svg" width="242" height="100" fill="none" xmlns:v="https://vecta.io/nano"><path fill-rule="evenodd" d="M28.146 42.459V63.32h-4.071v-24.26c0-1.959 2.238-3.075 3.803-1.898l19.338 14.553c.596.449.947 1.151.947 1.898v9.707h-4.071v-8.861l-15.946-12zm43.088 0V63.32h4.071v-24.26c0-1.959-2.238-3.075-3.803-1.898L52.164 51.715c-.596.449-.947 1.151-.947 1.898v9.707h4.071v-8.861l15.946-12zm21.287-.137a2.91 2.91 0 0 1 5.428-1.456l6.237 10.794 6.378-10.876c.498-.849 1.409-1.371 2.393-1.371 1.533 0 2.775 1.242 2.775 2.774v18.401h-3.779V44.786l-5.124 8.328a3.19 3.19 0 0 1-2.716 1.518c-1.11 0-2.14-.577-2.719-1.524L96.3 44.786v15.802h-3.779V42.322zm37.828-.988c.463-1.16 1.586-1.922 2.835-1.922a3.05 3.05 0 0 1 2.835 1.923l7.662 19.252h-3.884l-2.384-5.431h-8.697l-2.384 5.431h-3.659l7.676-19.254zm5.744 10.356l-3.029-7.91-3.043 7.91h6.072zm27.028-11.774l-9.216 9.267v-7.881a1.89 1.89 0 0 0-1.889-1.889 1.89 1.89 0 0 0-1.89 1.889v19.286h3.779V50.414l10.196 10.174h4.903l-10.781-10.969 7.314-7.289c1.079-1.075.317-2.917-1.205-2.917-.455 0-.891.181-1.211.503zm15.483 20.672c-1.886 0-3.415-1.529-3.415-3.415V42.828c0-1.886 1.529-3.415 3.415-3.415h9.793a1.74 1.74 0 1 1 0 3.482h-9.415v5.118h8.591a1.74 1.74 0 1 1 0 3.482h-8.591v5.763h9.491c.92 0 1.665.745 1.665 1.665s-.745 1.665-1.665 1.665h-9.869zm36.895-13.115a7.35 7.35 0 0 0 .255-1.951c0-.79-.095-1.501-.285-2.131-.19-.64-.435-1.166-.735-1.576-.29-.42-.66-.785-1.11-1.096-.439-.31-.869-.545-1.289-.705-.41-.16-.885-.285-1.425-.375-.529-.1-.984-.16-1.364-.18l-1.23-.045h-5.656c-1.886 0-3.415 1.529-3.415 3.415v17.76h3.778V52.47h3.614l5.968 8.117h4.918l-6.433-8.763c.84-.25 1.565-.6 2.175-1.051.619-.45 1.104-.961 1.454-1.531.36-.57.62-1.161.78-1.771zm-12.476 1.516V42.88h4.184c3.069 0 4.603.996 4.603 2.987 0 .53-.105.991-.315 1.381-.2.39-.46.695-.78.915-.309.22-.709.395-1.199.525-.49.12-.965.2-1.425.24l-1.589.06h-3.479z" fill="#17344F"/></svg>