<svg width="180" height="36" viewBox="0 0 180 36" fill="none" xmlns="http://www.w3.org/2000/svg">
<g clip-path="url(#clip0_2411_7234)">
<path fill-rule="evenodd" clip-rule="evenodd" d="M37.8523 11.6728V1.10905C37.8523 0.6879 37.6189 0.325241 37.2689 0.126366C37.0943 0.0327773 36.9308 -0.00231934 36.7444 -0.00231934C36.5228 -0.00231934 36.3013 0.06787 36.1148 0.208253L25.4679 7.66026C22.4824 9.75429 20.5698 13.0415 20.2203 16.6564C19.9643 19.2017 20.5096 21.712 21.7057 23.8966C21.7569 24.0485 21.8202 24.2011 21.8959 24.3547C21.8959 24.3547 22.0235 24.6367 22.3401 25.1261C22.7399 25.7443 23.2468 26.2838 23.7775 26.7939L31.5747 34.2868C32.0643 34.7431 32.6127 34.591 32.7758 34.5208C32.9392 34.4623 33.4638 34.205 33.4638 33.5849V23.5124C33.4638 22.0853 32.6593 20.7633 31.3297 20.0146L27.3341 17.7843C30.1208 16.302 33.381 15.2109 35.7063 14.5389C36.9659 14.1646 37.8523 12.9947 37.8523 11.6728ZM0.742004 11.6738V1.11004C0.742004 0.688899 0.975216 0.326235 1.32507 0.127361C1.49998 0.0337719 1.66324 -0.00132492 1.84984 -0.00132492C2.0714 -0.00132492 2.29296 0.0688684 2.47956 0.209252L13.1264 7.66122C16.1115 9.75525 18.0241 13.0426 18.374 16.6574C18.6306 19.2077 18.0825 21.7229 16.8815 23.9105L16.8805 23.8991C16.8295 24.0501 16.7664 24.202 16.6912 24.3547C16.6912 24.3547 16.5994 24.5578 16.3778 24.9184C15.9072 25.6853 15.2809 26.3407 14.6321 26.9642L7.01225 34.2868C6.5225 34.7431 5.97438 34.591 5.81115 34.5208C5.64789 34.4623 5.12312 34.205 5.12312 33.5849V23.5124C5.12312 22.0853 5.93945 20.7633 7.25715 20.0146L11.2554 17.7827C8.46969 16.3018 5.21182 15.2116 2.88772 14.54C1.62828 14.1656 0.742004 12.9958 0.742004 11.6738Z" fill="#17344F"/>
<path fill-rule="evenodd" clip-rule="evenodd" d="M59.9911 3.39185H55.915V28.5817H58.8888V8.53479H59.1687L67.828 28.5817H71.2566L79.9154 8.53479H80.1953V28.5817H83.1691V3.39185H79.1634L69.7172 25.2406H69.4373L59.9911 3.39185ZM95.5328 10.3363C90.11 10.3363 86.4537 13.66 86.4537 19.6776C86.4537 25.6777 90.11 29.0013 95.5328 29.0013C100.938 29.0013 104.611 25.6777 104.611 19.6776C104.611 13.66 100.938 10.3363 95.5328 10.3363ZM95.5328 26.4823C91.9642 26.4823 89.5674 24.0858 89.5674 19.6776C89.5674 15.2519 91.9642 12.8728 95.5328 12.8728C99.0836 12.8728 101.48 15.2519 101.48 19.6776C101.48 24.0858 99.0836 26.4823 95.5328 26.4823ZM107.552 10.7562H110.525V12.8904H110.805C111.418 11.6309 112.537 10.6863 115.214 10.6863H117.698V13.3452H115.284C111.943 13.3452 110.63 15.182 110.63 18.803V28.5816H107.552V10.7562ZM120.066 10.7564V35.5789H123.145V26.2202H123.425C124.754 28.1969 126.905 28.9841 129.372 28.9841C134.007 28.9841 137.559 25.8353 137.559 19.6778C137.559 13.5028 134.007 10.3541 129.372 10.3541C126.853 10.3541 124.684 11.1587 123.355 13.2229H123.075V10.7564H120.066ZM128.742 26.4301C125.349 26.4301 123.04 23.9986 123.04 19.6778C123.04 15.3396 125.349 12.908 128.742 12.908C132.153 12.908 134.463 15.3396 134.463 19.6778C134.463 23.9986 132.153 26.4301 128.742 26.4301ZM140.507 3.39189H143.585V12.9606H143.865C145.142 11.0713 147.259 10.3541 149.76 10.3541C153.906 10.3541 156.53 12.4533 156.53 16.809V28.5818H153.451V17.1064C153.451 14.2026 151.859 12.9256 149.078 12.9256C146.034 12.9256 143.585 14.7273 143.585 18.6283V28.5818H140.507V3.39189ZM168.378 10.3365C162.956 10.3365 159.3 13.6601 159.3 19.6777C159.3 25.6778 162.956 29.0015 168.378 29.0015C173.784 29.0015 177.458 25.6778 177.458 19.6777C177.458 13.6601 173.784 10.3365 168.378 10.3365ZM168.378 26.4825C164.81 26.4825 162.414 24.086 162.414 19.6777C162.414 15.252 164.81 12.873 168.378 12.873C171.93 12.873 174.326 15.252 174.326 19.6777C174.326 24.086 171.93 26.4825 168.378 26.4825Z" fill="#17344F"/>
</g>
<defs>
<clipPath id="clip0_2411_7234">
<rect width="178.479" height="36" fill="white" transform="translate(0.742188)"/>
</clipPath>
</defs>
</svg>
