<svg xmlns="http://www.w3.org/2000/svg" width="184" height="46" fill="none" xmlns:v="https://vecta.io/nano"><g opacity=".5" clip-path="url(#A)"><g fill="#17344f"><path d="M62.797 13.575c1.521-.039 3.027.304 4.38.996a6.92 6.92 0 0 1 2.848 2.815 8.61 8.61 0 0 1 .999 4.209 12.95 12.95 0 0 1-.213 2.204 11.16 11.16 0 0 1-1.902 4.659c-.947 1.336-2.203 2.424-3.661 3.172a10.45 10.45 0 0 1-4.873 1.143 9.25 9.25 0 0 1-4.42-.996c-1.208-.631-2.199-1.607-2.848-2.803a8.63 8.63 0 0 1-.987-4.193 13.2 13.2 0 0 1 .213-2.257 11.16 11.16 0 0 1 1.904-4.661c.947-1.337 2.209-2.422 3.674-3.16a10.64 10.64 0 0 1 4.886-1.129zm-.293 3.453c-1.559-.021-3.067.559-4.207 1.62a7.53 7.53 0 0 0-2.29 4.355 10.17 10.17 0 0 0-.133 1.487c0 1.487.426 2.66 1.278 3.519s2.023 1.288 3.513 1.288a6.14 6.14 0 0 0 2.956-.73 6.5 6.5 0 0 0 2.29-2.085c.639-.949 1.058-2.029 1.225-3.16a7.74 7.74 0 0 0 .133-1.512c0-1.487-.426-2.655-1.278-3.504s-2.014-1.275-3.487-1.278zm21.328.664c1.633 0 2.933.504 3.901 1.512s1.451 2.407 1.451 4.196a11.12 11.12 0 0 1-.16 1.832c-.242 1.435-.777 2.805-1.571 4.025-.704 1.087-1.665 1.985-2.797 2.616-1.075.595-2.284.905-3.513.901-1.079.05-2.143-.264-3.022-.89-.766-.582-1.285-1.43-1.453-2.375l-1.782 10.092h-3.754l3.836-21.724h3.753l-.559 3.054a6.18 6.18 0 0 1 2.317-2.364c1.018-.591 2.178-.893 3.355-.876zm-3.275 11.792a4.4 4.4 0 0 0 3.009-1.129 5.32 5.32 0 0 0 1.651-3.12 7.18 7.18 0 0 0 .08-1.009 3.23 3.23 0 0 0-.183-1.297 3.24 3.24 0 0 0-.683-1.119 3.26 3.26 0 0 0-1.105-.665c-.409-.146-.844-.208-1.278-.183-1.113-.009-2.189.404-3.009 1.155a5.23 5.23 0 0 0-1.651 3.121c-.052.316-.078.636-.08.956a3.23 3.23 0 0 0 .195 1.3c.153.415.391.795.697 1.115a3.22 3.22 0 0 0 2.357.877zm14.964-2.02a3.05 3.05 0 0 0-.053.637 1.17 1.17 0 0 0 .067.543 1.18 1.18 0 0 0 .306.453 2.08 2.08 0 0 0 1.225.279h1.465l-.586 3.215h-1.972c-1.402 0-2.476-.283-3.222-.848s-1.118-1.495-1.118-2.789a8.11 8.11 0 0 1 .16-1.54l1.118-6.374h-2.049l.559-3.16h2.05l.639-3.638h3.781l-.639 3.638h3.249l-.559 3.16h-3.275l-1.145 6.424zm8.308-13.438c-.006-.327.059-.651.193-.949a2.23 2.23 0 0 1 .579-.777 2.81 2.81 0 0 1 1.944-.691 2.06 2.06 0 0 1 1.424.465 1.54 1.54 0 0 1 .394.547c.09.209.132.435.124.662a2.19 2.19 0 0 1-.187.941 2.2 2.2 0 0 1-.572.772 2.79 2.79 0 0 1-1.93.677 2.14 2.14 0 0 1-1.451-.451 1.52 1.52 0 0 1-.395-.538 1.49 1.49 0 0 1-.123-.655v-.002zm3.461 3.851l-2.609 14.714h-3.753l2.61-14.713 3.752-.001zm22.207-.213c1.527 0 2.712.412 3.555 1.235s1.265 2.005 1.265 3.545a9.15 9.15 0 0 1-.133 1.593l-1.518 8.553h-3.755l1.465-8.126a5.57 5.57 0 0 0 .08-.903 2.55 2.55 0 0 0-.152-1.052 2.56 2.56 0 0 0-.567-.9 2.8 2.8 0 0 0-1.997-.677c-.97-.028-1.916.309-2.65.943a4.71 4.71 0 0 0-1.424 2.775l-1.411 7.941H118.5l1.465-8.126a5.57 5.57 0 0 0 .08-.903 2.55 2.55 0 0 0-.152-1.052 2.56 2.56 0 0 0-.567-.9 2.8 2.8 0 0 0-1.997-.677c-.985-.023-1.942.328-2.676.983-.793.763-1.296 1.777-1.425 2.868v-.133l-1.384 7.941h-3.781l2.609-14.713h3.754l-.48 2.762a5.86 5.86 0 0 1 2.223-2.191 6.18 6.18 0 0 1 3.075-.783 4.91 4.91 0 0 1 2.956.848c.8.596 1.35 1.466 1.544 2.443.624-.994 1.484-1.82 2.503-2.403.985-.58 2.107-.887 3.25-.888v-.002zm9.346-3.638a2.23 2.23 0 0 1 .772-1.726 2.81 2.81 0 0 1 1.944-.691 2.06 2.06 0 0 1 1.425.465 1.55 1.55 0 0 1 .393.547c.09.209.132.435.124.662a2.19 2.19 0 0 1-.187.941c-.131.296-.326.56-.571.772a2.79 2.79 0 0 1-1.931.677 2.14 2.14 0 0 1-1.451-.451 1.52 1.52 0 0 1-.518-1.193v-.002zm3.462 3.851l-2.61 14.714h-3.754l2.609-14.713 3.755-.001zm7.803-.184c1.988 0 3.501.447 4.54 1.341a4.96 4.96 0 0 1 1.229 1.635 4.93 4.93 0 0 1 .461 1.99h-3.674a2.17 2.17 0 0 0-.193-.943 2.2 2.2 0 0 0-.579-.77c-.605-.45-1.35-.672-2.104-.624-.58-.027-1.153.131-1.637.451a1.44 1.44 0 0 0-.47.531c-.11.213-.163.451-.156.691-.003.248.068.49.203.698a1.26 1.26 0 0 0 .556.47 12.1 12.1 0 0 0 2.356.823c.854.24 1.694.529 2.515.863a4.62 4.62 0 0 1 1.678 1.208 3.05 3.05 0 0 1 .705 2.098 4.89 4.89 0 0 1-.106 1.009 3.97 3.97 0 0 1-.645 1.499 3.98 3.98 0 0 1-1.193 1.115c-1.011.664-2.36.996-4.047.996-1.935 0-3.484-.438-4.648-1.313a4.47 4.47 0 0 1-1.341-1.609c-.312-.635-.469-1.335-.456-2.042h3.675c-.037.325.014.654.148.953a1.84 1.84 0 0 0 .61.747 3.77 3.77 0 0 0 2.33.637 2.43 2.43 0 0 0 1.624-.479c.18-.148.324-.335.421-.547a1.54 1.54 0 0 0 .139-.675 1.28 1.28 0 0 0-.101-.529 1.29 1.29 0 0 0-.312-.44c-.297-.27-.646-.478-1.025-.611-.409-.151-.994-.332-1.758-.544a22.52 22.52 0 0 1-2.449-.812 4.21 4.21 0 0 1-1.598-1.155c-.463-.568-.7-1.287-.666-2.018a6.25 6.25 0 0 1 .08-.956 3.97 3.97 0 0 1 .629-1.526 3.98 3.98 0 0 1 1.197-1.14c1.02-.682 2.374-1.022 4.06-1.022h.002zm28.597-.027c1.527 0 2.711.412 3.555 1.235s1.264 2.005 1.264 3.545a8.96 8.96 0 0 1-.133 1.593l-1.519 8.552h-3.754l1.464-8.126a5.46 5.46 0 0 0 .08-.903c.024-.357-.028-.716-.151-1.052s-.318-.643-.568-.9a2.8 2.8 0 0 0-1.997-.677 3.88 3.88 0 0 0-2.649.943 4.71 4.71 0 0 0-1.425 2.775l-1.411 7.941h-3.754l1.464-8.126a5.46 5.46 0 0 0 .08-.903c.024-.357-.028-.716-.151-1.052s-.318-.643-.568-.9a2.8 2.8 0 0 0-1.997-.677c-.985-.023-1.941.328-2.676.983-.792.763-1.296 1.777-1.424 2.868v-.133l-1.385 7.941h-3.781l2.608-14.713h3.754l-.48 2.762a5.86 5.86 0 0 1 2.223-2.191 6.18 6.18 0 0 1 3.075-.783 4.91 4.91 0 0 1 2.956.848c.8.596 1.35 1.466 1.544 2.443a7.14 7.14 0 0 1 2.503-2.403 6.41 6.41 0 0 1 3.252-.888h.001zM23.082 45.5c12.459 0 22.559-10.074 22.559-22.5S35.541.5 23.082.5.523 10.574.523 23s10.1 22.5 22.559 22.5z"/></g><g fill="#fff"><path d="M16.499 28.967a5.43 5.43 0 0 1-3.3-.945c-.418-.319-.752-.734-.974-1.211s-.323-.999-.296-1.524a6.05 6.05 0 0 1 .085-.911l.626-2.92c.767-3.095 2.747-4.642 5.94-4.642a5.91 5.91 0 0 1 2.335.439 3.55 3.55 0 0 1 1.625 1.283c.405.597.612 1.305.592 2.026a5.99 5.99 0 0 1-.085.895l-.609 2.92c-.394 1.541-1.077 2.695-2.048 3.46-.97.754-2.267 1.131-3.892 1.131zm.237-2.431a2.41 2.41 0 0 0 1.608-.557c.497-.45.835-1.048.965-1.705l.592-2.768a3.87 3.87 0 0 0 .068-.726c0-1.024-.536-1.536-1.608-1.536a2.48 2.48 0 0 0-1.625.557 3.16 3.16 0 0 0-.948 1.705l-.609 2.768a3.6 3.6 0 0 0-.068.709c0 1.035.542 1.553 1.625 1.553zm7.176 2.262a.36.36 0 0 1-.288-.118c-.056-.091-.075-.2-.051-.304l2.335-10.972c.021-.121.087-.23.185-.304a.52.52 0 0 1 .322-.118h4.502c1.06-.052 2.111.219 3.013.776a2.55 2.55 0 0 1 .874.971 2.54 2.54 0 0 1 .277 1.275 4.03 4.03 0 0 1-.102.878 4.57 4.57 0 0 1-1.709 2.87c-.846.619-2.008.928-3.486.928H27.5l-.778 3.697c-.021.121-.087.23-.185.304a.52.52 0 0 1-.321.118h-2.303zm5.991-6.448a2.02 2.02 0 0 0 1.236-.388c.368-.27.622-.667.711-1.114a2.95 2.95 0 0 0 .051-.506c.01-.137-.011-.275-.061-.403s-.127-.244-.227-.339a1.42 1.42 0 0 0-.982-.27H28.6l-.643 3.021h1.946z"/></g></g><defs><clipPath id="A"><path fill="#fff" transform="translate(.523 .5)" d="M0 0h183v45H0z"/></clipPath></defs></svg>