<svg width="110" height="38" viewBox="0 0 110 38" fill="none" xmlns="http://www.w3.org/2000/svg">
<path d="M97.3244 37.9999H92.4192L97.0475 27.911L88.8193 10.9377H94.0015L99.5395 23.1236L104.722 10.9377H109.587L97.3244 37.9999ZM87.1521 10.9377L79.2406 19.088L87.3104 30.2057H81.6929L76.0362 22.3323L73.6628 24.8249V30.2057H69.1133V1.56079H73.6628V18.7319L81.0601 10.9377H87.1521ZM64.2649 8.72204L59.9925 10.0672C59.7156 8.3264 58.2519 5.75466 54.4938 5.75466C51.6456 5.75466 49.6677 7.65379 49.6677 9.7903C49.6677 11.5707 50.7754 12.9159 52.9511 13.3907L56.986 14.2215C61.9309 15.2107 64.5813 18.3363 64.5813 22.2927C64.5813 26.6449 61.0606 30.7992 54.6521 30.7992C47.5315 30.7992 44.2482 26.2097 43.813 22.1741L48.2436 20.908C48.5205 23.8358 50.6171 26.5262 54.6521 26.5262C58.0146 26.5262 59.7552 24.8249 59.7552 22.6488C59.7552 20.8288 58.4102 19.365 55.9971 18.8506L52.0412 18.0197C47.7689 17.1493 44.9207 14.3402 44.9207 10.1464C44.9207 5.43814 49.2326 1.56079 54.4543 1.56079C61.0606 1.56079 63.6319 5.5964 64.2649 8.72204Z" fill="#17344F"/>
<path d="M3.96387 6.71106C4.46518 6.02106 5.01995 5.37152 5.62304 4.76843L5.82537 4.87996L17.0288 16.1436L17.1352 16.2806L3.96387 6.71106Z" fill="#17344F"/>
<path opacity="0.7" d="M5.62305 4.76848C8.05417 2.33736 11.1926 0.738284 14.5883 0.200439L14.7009 0.51002L17.1352 16.0648V16.2806L5.62305 4.76848Z" fill="#17344F"/>
<path opacity="0.5" d="M24.528 1.77539C25.2875 2.16245 26.0153 2.60854 26.7049 3.10957L26.6757 3.36314L17.194 16.2335L17.135 16.2806L24.528 1.77539Z" fill="#17344F"/>
<path opacity="0.9" d="M33.4156 16.2806C33.4156 17.989 33.1468 19.6868 32.6188 21.3116L32.2338 21.3736L17.2548 16.3416L17.135 16.2806H33.4156Z" fill="#17344F"/>
<path opacity="0.7" d="M32.619 21.3113C32.091 22.9361 31.3107 24.4677 30.3066 25.8498L29.9355 25.7869L17.212 16.3606L17.135 16.2806L32.619 21.3113Z" fill="#17344F"/>
<path opacity="0.3" d="M22.1661 31.7644C19.7225 32.5583 17.1258 32.7627 14.5882 32.3608L14.4866 32.0487L17.0617 16.5576L17.135 16.2806L22.1661 31.7644Z" fill="#17344F"/>
<path opacity="0.7" d="M14.5881 32.3608C13.7458 32.2274 12.9152 32.028 12.104 31.7644L12.0591 31.3879L17.0422 16.4505L17.135 16.2806L14.5881 32.3608Z" fill="#17344F"/>
<path opacity="0.9" d="M12.1042 31.7644C10.4794 31.2365 8.94782 30.4561 7.56567 29.4519V29.1573L16.9689 16.4466L17.1352 16.2806L12.1042 31.7644Z" fill="#17344F"/>
<path opacity="0.9" d="M2.62898 23.6718C1.46256 21.3826 0.854493 18.8498 0.854492 16.2806L1.06275 16.2037H16.6085L17.1351 16.2806L2.62898 23.6718Z" fill="#17344F"/>
<path opacity="0.5" d="M14.5874 0.200598C17.1254 -0.201541 19.7226 0.00280071 22.1664 0.796911L17.1352 16.2806L14.5874 0.200598Z" fill="#17344F"/>
<path opacity="0.3" d="M26.7046 3.10938C29.486 5.13014 31.5562 7.97948 32.6187 11.2491L17.135 16.2806L26.7046 3.10938Z" fill="#17344F"/>
<path d="M7.56566 29.4519C6.18352 28.4477 4.96805 27.2323 3.96387 25.8501L17.1352 16.2806L7.56566 29.4519Z" fill="#17344F"/>
<path opacity="0.5" d="M0.854492 16.2807C0.854492 14.5722 1.12339 12.8744 1.65132 11.2496L17.1351 16.2807H0.854492Z" fill="#17344F"/>
<path d="M30.3068 25.8494C29.3027 27.2317 28.0873 28.4471 26.7052 29.4514L17.135 16.2806L30.3068 25.8494Z" fill="#17344F"/>
</svg>
