<svg width="151" height="42" viewBox="0 0 151 42" fill="none" xmlns="http://www.w3.org/2000/svg">
  <g clip-path="url(#clip0_2512_1327)">
    <path d="M85.7664 22.9075C85.7664 26.9267 83.4172 30.0586 79.3979 30.0586C75.2746 30.0586 73.03 27.0311 73.03 22.9075C73.03 18.7317 75.4312 15.7043 79.3979 15.7043C83.4172 15.7043 85.7664 18.8883 85.7664 22.9075ZM89.7856 22.9075C89.7856 16.8526 86.2359 12.2071 79.9723 12.2071C77.3625 12.2071 74.7002 13.3555 73.3431 15.5999V12.5203H69.3762V41.5941H73.3431V30.3195C74.5959 32.5118 77.1536 33.5557 79.7634 33.5557C86.2884 33.5557 89.7856 28.7536 89.7856 22.9075ZM138.005 23.3251L145.417 33.2426H150.376L140.875 20.6108L149.592 12.5203H144.425L135.395 20.8197V3.85555H131.376V33.2426H135.395V25.7262L138.005 23.3251ZM109.084 22.9075C109.084 26.8223 106.944 30.0586 102.716 30.0586C98.5924 30.0586 96.348 27.0311 96.348 22.9075C96.348 18.8361 98.6448 15.7043 102.716 15.7043C106.527 15.7043 109.084 18.5229 109.084 22.9075ZM108.771 12.5203V15.2867C107.309 13.3555 104.699 12.2071 102.246 12.2071C96.1391 12.2071 92.3288 16.5395 92.3288 22.9075C92.3288 29.119 95.9826 33.5557 102.299 33.5557C104.804 33.5557 107.727 32.5118 108.771 30.4239V33.2426H112.738V12.5203H108.771ZM123.181 13.4599C122.294 14.1384 121.615 15.1301 121.146 16.5395V12.5203H117.178V33.2426H121.146V23.8993C121.146 21.3938 121.563 19.4625 122.294 18.1054C123.076 16.696 124.381 15.9653 126.156 15.9653H129.183V12.5203H126.678C125.216 12.5203 124.068 12.8335 123.181 13.4599ZM65.9311 25.413C65.9311 19.4625 61.4944 18.1054 56.4313 16.696C53.6648 16.0697 49.5412 15.2345 49.5412 11.8417C49.5412 9.02306 52.5165 7.92693 55.3873 7.92693C58.6235 7.92693 61.1812 9.75381 61.5466 12.9901H65.7223C65.4614 7.61374 61.2334 4.16873 55.4395 4.16873C50.3242 4.16873 45.3133 6.67419 45.2089 11.7895C45.2089 17.479 49.5934 18.9927 54.6566 20.3498C57.0576 21.0285 61.7032 22.1246 61.7032 25.4652C61.7032 28.597 58.3625 29.7976 55.2307 29.7976C51.3682 29.7976 48.7583 27.4486 48.4973 23.5861H44.2171C44.4259 29.2756 48.2363 33.5557 55.1785 33.5557C60.6593 33.5557 65.9311 31.3113 65.9311 25.413ZM23.8182 21.3143H37.1469C37.6595 21.3143 37.7628 20.6163 37.2966 20.4031L23.819 14.2646V0.883864C23.819 0.384413 23.151 0.220527 22.9205 0.663607L17.3797 11.332L11.2399 8.51206C10.6525 8.27482 10.2918 8.75313 10.4911 9.16418L14.1524 16.7166H0.82377C0.311125 16.7166 0.207809 17.4147 0.674018 17.6279L14.1516 23.7664V37.1471C14.1516 37.6465 14.8196 37.8104 15.0501 37.3674L20.5909 26.6989L26.7307 29.5189C27.3181 29.7561 27.6789 29.2779 27.4795 28.8667L23.8182 21.3143Z" fill="#17344F"/>
  </g>
  <defs>
    <clipPath id="clip0_2512_1327">
      <rect width="150" height="41.1882" fill="white" transform="translate(0.375732 0.405884)"/>
    </clipPath>
  </defs>
</svg>
