<svg width="151" height="48" viewBox="0 0 151 48" fill="none" xmlns="http://www.w3.org/2000/svg">
<g clip-path="url(#clip0_2411_7153)">
<path fill-rule="evenodd" clip-rule="evenodd" d="M49.8577 35.7219C48.3639 35.2726 47.1737 34.6604 46.2904 33.9031L47.6255 30.8911C48.4777 31.5689 49.5228 32.1153 50.7751 32.5511C52.0138 32.9866 53.2661 33.1941 54.5184 33.1941C56.0603 33.1941 57.2193 32.9522 57.9889 32.4541C58.7581 31.9563 59.1307 31.2957 59.1307 30.4899C59.1307 29.8952 58.9202 29.3938 58.4889 29.0065C58.0543 28.6192 57.5264 28.3148 56.8676 28.0902C56.2087 27.8654 55.3254 27.6234 54.1836 27.3502C52.5934 26.9802 51.3065 26.5928 50.3268 26.2228C49.3471 25.8528 48.4949 25.258 47.7878 24.4522C47.0805 23.6467 46.7286 22.5504 46.7286 21.181C46.7286 20.0227 47.0321 18.9749 47.6601 18.024C48.288 17.0728 49.2332 16.3328 50.4889 15.7692C51.7585 15.2056 53.3005 14.9325 55.1151 14.9325C56.3847 14.9325 57.6369 15.095 58.8754 15.4165C60.1139 15.7382 61.1729 16.1911 62.0562 16.7859L60.835 19.7979C59.9206 19.2653 58.972 18.8468 57.975 18.5737C56.978 18.3004 56.0154 18.1553 55.0841 18.1553C53.5592 18.1553 52.4174 18.4145 51.679 18.9299C50.9409 19.4451 50.5545 20.1368 50.5545 20.9908C50.5545 21.5858 50.7648 22.0697 51.1962 22.4571C51.6273 22.8444 52.1587 23.1347 52.8175 23.3596C53.4764 23.5844 54.3596 23.8264 55.5014 24.0996C57.0436 24.4522 58.3304 24.8259 59.3101 25.227C60.3071 25.6141 61.1593 26.2089 61.8664 26.9973C62.5737 27.786 62.9255 28.8648 62.9255 30.2203C62.9255 31.3788 62.6219 32.4265 61.994 33.3601C61.3662 34.2939 60.4209 35.0339 59.1514 35.5975C57.8818 36.1612 56.3224 36.4342 54.5078 36.4342C52.9176 36.4171 51.3755 36.175 49.8646 35.7254L49.8577 35.7219ZM79.6985 25.7178C80.5679 24.9917 81.0162 23.9786 81.0162 22.6402C81.0162 21.302 80.5815 20.2716 79.6985 19.5626C78.8292 18.8365 77.5457 18.4837 75.8587 18.4837H71.3257V26.7795H75.8587C77.5457 26.7795 78.8326 26.4268 79.6985 25.7178ZM80.7575 16.0873C82.0926 16.6823 83.1206 17.5362 83.8417 18.6636C84.5662 19.7735 84.918 21.0945 84.918 22.6402C84.918 24.1861 84.5662 25.4759 83.8417 26.6031C83.1172 27.7304 82.1064 28.5846 80.7575 29.1794C79.4224 29.7743 77.8493 30.0819 76.0347 30.0819H71.3257V36.1231H67.4517V15.1986H76.0313C77.8322 15.1986 79.4051 15.4892 80.7542 16.084L80.7575 16.0873ZM95.4123 19.0648L99.3485 28.2145H91.5071L95.4123 19.0648ZM90.2067 31.2749H100.635L102.709 36.1058H106.759L97.3409 15.1986H93.5323L84.1488 36.1058H88.1504L90.2067 31.2749ZM121.831 19.5626C120.962 18.8365 119.678 18.4837 117.991 18.4837H113.458V26.8106H117.991C119.678 26.8106 120.965 26.4406 121.831 25.7145C122.697 24.9884 123.149 23.9578 123.149 22.6229C123.149 21.302 122.714 20.2716 121.831 19.5626ZM123.228 36.1058L118.971 29.9852C118.795 30.0023 118.523 30.0162 118.167 30.0162H113.458V36.1058H109.584V15.1986H118.164C119.965 15.1986 121.555 15.5031 122.887 16.1011C124.222 16.6959 125.25 17.5501 125.971 18.6774C126.695 19.7874 127.047 21.1085 127.047 22.6541C127.047 24.2 126.661 25.5865 125.905 26.7138C125.132 27.8412 124.042 28.6953 122.611 29.2589L127.416 36.137H123.221V36.1058H123.228ZM138.873 27.3642L135.565 30.7596V36.1058H131.691V15.1986H135.565V25.9253L145.879 15.1986H150.233L141.474 24.5421L150.779 36.1058H146.245L138.873 27.3642Z" fill="#17344F"/>
<path fill-rule="evenodd" clip-rule="evenodd" d="M24.2528 28.145L28.5858 0.684859C28.6307 0.401447 29.0239 0.366773 29.1171 0.640062L32.9601 11.8577C33.074 12.1932 33.0465 12.5596 32.8809 12.8744L24.7669 28.3179C24.622 28.5912 24.2046 28.4529 24.2528 28.1484V28.145ZM19.1643 43.063L14.7486 21.1806C14.683 20.8555 14.7486 20.5131 14.9245 20.2331L22.6313 8.14393C22.7865 7.90175 23.1627 8.02978 23.135 8.32031L19.706 43.0352C19.6749 43.35 19.2265 43.3708 19.1643 43.063ZM0.845939 28.688L16.8531 47.3543C17.1531 47.7037 17.712 47.3715 17.5533 46.9392L13.2204 35.1823C13.0203 34.6392 12.627 34.1861 12.1199 33.9096L1.3565 28.0551C0.95284 27.8338 0.545739 28.3388 0.845939 28.688ZM22.9867 36.6172L31.4596 24.2616C31.7493 23.8397 32.253 23.6219 32.7602 23.698L38.1796 24.5211C38.5281 24.5729 38.6455 25.0189 38.3695 25.2369L23.4112 37.0183C23.1456 37.2258 22.7971 36.8973 22.9867 36.6206V36.6172ZM5.67909 22.7263L6.64851 15.8275C6.68988 15.5438 7.07625 15.4921 7.19011 15.755L13.1686 29.7219C13.2894 30.0054 12.9375 30.2509 12.7133 30.04L6.04137 23.7638C5.75845 23.4974 5.62044 23.1066 5.67563 22.7229L5.67909 22.7263Z" fill="#17344F"/>
</g>
<defs>
<clipPath id="clip0_2411_7153">
<rect width="150" height="47.0947" fill="white" transform="translate(0.742188 0.452637)"/>
</clipPath>
</defs>
</svg>
